<svg id="Camada_1" data-name="Camada 1" xmlns="http://www.w3.org/2000/svg" viewBox="0 0 40 40"><defs><style>.cls-1{stroke:#000;stroke-miterlimit:10;stroke-width:0.06px;}.cls-2{fill:none;}</style></defs><title>BOTÕES - PÁG ESTAÇÕES-07</title><path class="cls-1" d="M7.85,23.44a1.71,1.71,0,0,1-.54-1.31c.05-1.64.1-3.28.14-4.92a1.36,1.36,0,0,1,.11-.6A1.15,1.15,0,0,1,8.64,16H31.37a1.07,1.07,0,0,1,1.16,1c0,.76,0,1.51.07,2.27l.09,2.91A1.82,1.82,0,0,1,30.88,24c-.72,0-1.45,0-2.17,0H9.29A2.13,2.13,0,0,1,7.85,23.44Zm1.89-6.76H8.63a.38.38,0,0,0-.44.39c0,.5,0,1,0,1.51,0,1.2-.08,2.4-.11,3.61a1,1,0,0,0,.39.83,1.43,1.43,0,0,0,.93.29H30.71A1.17,1.17,0,0,0,32,22.15c0-.8-.05-1.6-.08-2.4s-.05-1.8-.08-2.7a.36.36,0,0,0-.36-.36H30.26v.08c0,.39,0,.79,0,1.18a.56.56,0,0,1-.07.26.37.37,0,0,1-.41.12.33.33,0,0,1-.25-.33v-.62c0-.23,0-.47,0-.68H27.79v3.17a.36.36,0,0,1-.51.32.35.35,0,0,1-.23-.36c0-.84,0-1.69,0-2.53v-.6H25.32v.07c0,.41,0,.82,0,1.23a.37.37,0,0,1-.73,0V17.4c0-.24,0-.48,0-.7H22.84v3.18a.33.33,0,0,1-.24.33.36.36,0,0,1-.49-.35V16.7H20.37v.08c0,.4,0,.8,0,1.2a.46.46,0,0,1-.08.25.35.35,0,0,1-.39.11.34.34,0,0,1-.26-.32v-.61c0-.24,0-.48,0-.71H17.89v3.18a.34.34,0,0,1-.37.35.35.35,0,0,1-.36-.34V17.41c0-.24,0-.48,0-.71H15.4a.36.36,0,0,1,0,.11V18a.37.37,0,0,1-.73,0,2.71,2.71,0,0,1,0-.29c0-.34,0-.68,0-1H13s0,0,0,.06v1.36c0,.57,0,1.15,0,1.72a.35.35,0,0,1-.18.34.38.38,0,0,1-.37,0,.37.37,0,0,1-.19-.33c0-.9,0-1.8,0-2.7,0-.16,0-.32,0-.46H10.47V18a.33.33,0,0,1-.27.31.35.35,0,0,1-.4-.14.58.58,0,0,1-.06-.26C9.73,17.53,9.74,17.11,9.74,16.68Z"/><path class="cls-1" d="M29.75,24.07H9.29A2.21,2.21,0,0,1,7.8,23.5h0a1.79,1.79,0,0,1-.57-1.37l.15-4.92v0a1.16,1.16,0,0,1,.12-.6,1.22,1.22,0,0,1,1.14-.64H31.37A1.16,1.16,0,0,1,32.61,17c0,.53,0,1.08,0,1.6,0,.23,0,.45,0,.67l0,.78.06,2.13a1.73,1.73,0,0,1-.54,1.27,2,2,0,0,1-1.34.58Zm-1-.16h.51c.54,0,1.1,0,1.64,0a1.73,1.73,0,0,0,1.73-1.69c0-.71,0-1.43-.06-2.12l0-.79c0-.22,0-.44,0-.66,0-.53,0-1.07-.06-1.61a1,1,0,0,0-1.08-.92H8.64a1.06,1.06,0,0,0-1,.56,1.15,1.15,0,0,0-.1.52v0c0,1.64-.09,3.28-.14,4.92a1.58,1.58,0,0,0,.52,1.25,2,2,0,0,0,1.38.52H28.73Zm1.11-.51H9.36a1.48,1.48,0,0,1-1-.31A1.1,1.1,0,0,1,8,22.19c0-.89,0-1.8.08-2.67l0-.95v-.34c0-.38,0-.78,0-1.17a.46.46,0,0,1,.52-.46H9.82V17c0,.32,0,.62,0,.92a.45.45,0,0,0,0,.22.29.29,0,0,0,.32.11.25.25,0,0,0,.2-.24V16.61h1.92v.08a.66.66,0,0,1,0,.14c0,.1,0,.21,0,.32v2.7a.28.28,0,0,0,.15.26.3.3,0,0,0,.29,0,.26.26,0,0,0,.14-.27V18.12c0-.23,0-.47,0-.7v-.66a.09.09,0,0,1,0-.05v-.09h1.91V17c0,.24,0,.49,0,.73V18a.28.28,0,0,0,.3.28h0a.26.26,0,0,0,.28-.28V16.81s0,0,0-.06v-.13h1.94v.08a1.55,1.55,0,0,0,0,.22v3a.26.26,0,0,0,.28.26h0a.31.31,0,0,0,.22-.08.27.27,0,0,0,.08-.19c0-.87,0-1.75,0-2.58v-.68h1.91v.29c0,.17,0,.33,0,.5V18a.26.26,0,0,0,.2.25.3.3,0,0,0,.31-.08.52.52,0,0,0,.07-.22V16.62h1.9v.54c0,.34,0,.69,0,1v.34c0,.44,0,.89,0,1.33a.29.29,0,0,0,.11.24.31.31,0,0,0,.28,0,.26.26,0,0,0,.18-.26V16.62h1.91v.28c0,.16,0,.32,0,.49V18a.26.26,0,0,0,.28.26h0a.27.27,0,0,0,.29-.27c0-.28,0-.56,0-.83v-.55h1.9v.26c0,.14,0,.28,0,.42v2.53a.27.27,0,0,0,.18.29.31.31,0,0,0,.28,0,.27.27,0,0,0,.12-.23V16.63H29.6v.28c0,.15,0,.32,0,.48V18a.26.26,0,0,0,.19.26.28.28,0,0,0,.32-.09.4.4,0,0,0,.06-.22c0-.28,0-.57,0-.85v-.49h.42c.27,0,.56,0,.83,0a.43.43,0,0,1,.44.42c0,.82.05,1.64.08,2.46l0,.77c0,.61,0,1.25.05,1.88a1.13,1.13,0,0,1-.32.85,1.42,1.42,0,0,1-1,.4Zm-18.42-.17H30.7a1.24,1.24,0,0,0,.9-.35,1,1,0,0,0,.28-.74l-.06-1.88,0-.76c0-.82-.05-1.64-.08-2.46a.28.28,0,0,0-.28-.28h-1.1V18a.51.51,0,0,1-.09.3.43.43,0,0,1-.49.16.41.41,0,0,1-.31-.41V16.79H27.86c0,.76,0,1.51,0,2.27v.83a.42.42,0,0,1-.19.36.5.5,0,0,1-.43,0,.44.44,0,0,1-.27-.44V16.79H25.39V18a.43.43,0,0,1-.45.43h0A.42.42,0,0,1,24.5,18v-.63c0-.16,0-.33,0-.48v-.13h-1.6v3.1a.41.41,0,0,1-.3.41.46.46,0,0,1-.41-.06.43.43,0,0,1-.18-.37V16.78H20.44c0,.11,0,.22,0,.33,0,.28,0,.58,0,.87a.57.57,0,0,1-.1.3.42.42,0,0,1-.47.14.44.44,0,0,1-.32-.4v-.61c0-.17,0-.34,0-.5v-.14H18v3.1a.41.41,0,0,1-.12.3.47.47,0,0,1-.33.13.42.42,0,0,1-.44-.42V17.41c0-.16,0-.33,0-.5v-.13H15.5V18a.43.43,0,0,1-.44.43.42.42,0,0,1-.45-.42,3,3,0,0,1,0-.3c0-.25,0-.49,0-.73v-.2H13v2c0,.36,0,.72,0,1.08a.44.44,0,0,1-.22.41.46.46,0,0,1-.44,0,.43.43,0,0,1-.24-.4v-1c0-.58,0-1.16,0-1.74,0-.11,0-.22,0-.33v0h-1.6V18a.42.42,0,0,1-.33.39.44.44,0,0,1-.49-.18A.58.58,0,0,1,9.66,18V16.76h-1c-.23,0-.35.1-.36.31l0,1.16v.35l0,1c0,.87-.06,1.77-.08,2.66a1,1,0,0,0,.36.77,1.36,1.36,0,0,0,.88.27h2.06Z"/><rect class="cls-2" width="40" height="40"/></svg>