<svg id="Camada_1" data-name="Camada 1" xmlns="http://www.w3.org/2000/svg" viewBox="0 0 286.27 57.45"><defs><style>.cls-1{opacity:0.75;}.cls-2{fill:#fff;}.cls-3{fill:#ff6900;}.cls-4{fill:#a0d5e1;}.cls-5{fill:#d2eaf1;}.cls-6{fill:#53c0c0;}.cls-7{fill:#49c08b;}.cls-8{fill:#86d55d;}.cls-9{fill:#c2ea2e;}.cls-10{fill:#e1e817;}.cls-11{fill:#ffb500;}.cls-12{fill:#ff0f00;}.cls-13{fill:#ca0000;}.cls-14{fill:#8b0000;}.cls-15{fill:#6e0000;}.cls-16{fill:#500000;}.cls-17{fill:#300;}.cls-18{fill:#939393;}</style></defs><title>LEGENDAS - ESCALA</title><g class="cls-1"><path class="cls-2" d="M0,6.38A6.37,6.37,0,0,1,6.36,0H279.91a6.37,6.37,0,0,1,6.36,6.38V51.07a6.37,6.37,0,0,1-6.36,6.38H6.36A6.37,6.37,0,0,1,0,51.07Z"/></g><path class="cls-3" d="M171.38,23h-5.47a2,2,0,0,1-2.11-2V10.13a2,2,0,0,1,2.11-2h5.47a2,2,0,0,1,2.11,2V21.06A2,2,0,0,1,171.38,23Z"/><path class="cls-4" d="M51.79,23H46.33a2,2,0,0,1-2.11-2V10.13a2,2,0,0,1,2.11-2h5.46a2,2,0,0,1,2.11,2V21.06A2,2,0,0,1,51.79,23Z"/><path class="cls-5" d="M34.71,23H29.24a2,2,0,0,1-2.1-2V10.13a2,2,0,0,1,2.1-2h5.47a2,2,0,0,1,2.11,2V21.06A2,2,0,0,1,34.71,23Z"/><path class="cls-6" d="M68.88,23H63.41a2,2,0,0,1-2.11-2V10.13a2,2,0,0,1,2.11-2h5.47a2,2,0,0,1,2.11,2V21.06A2,2,0,0,1,68.88,23Z"/><path class="cls-7" d="M86,23H80.49a2,2,0,0,1-2.1-2V10.13a2,2,0,0,1,2.1-2H86a2,2,0,0,1,2.11,2V21.06A2,2,0,0,1,86,23Z"/><path class="cls-8" d="M103,23H97.58a2,2,0,0,1-2.11-2V10.13a2,2,0,0,1,2.11-2H103a2,2,0,0,1,2.11,2V21.06A2,2,0,0,1,103,23Z"/><path class="cls-9" d="M120.13,23h-5.47a2,2,0,0,1-2.11-2V10.13a2,2,0,0,1,2.11-2h5.47a2,2,0,0,1,2.11,2V21.06A2,2,0,0,1,120.13,23Z"/><path class="cls-10" d="M137.21,23h-5.47a2,2,0,0,1-2.1-2V10.13a2,2,0,0,1,2.1-2h5.47a2,2,0,0,1,2.11,2V21.06A2,2,0,0,1,137.21,23Z"/><path class="cls-11" d="M154.29,23h-5.46a2,2,0,0,1-2.11-2V10.13a2,2,0,0,1,2.11-2h5.46a2,2,0,0,1,2.11,2V21.06A2,2,0,0,1,154.29,23Z"/><path class="cls-12" d="M188.46,23H183a2,2,0,0,1-2.1-2V10.13a2,2,0,0,1,2.1-2h5.47a2,2,0,0,1,2.11,2V21.06A2,2,0,0,1,188.46,23Z"/><path class="cls-13" d="M205.54,23h-5.46a2,2,0,0,1-2.11-2V10.13a2,2,0,0,1,2.11-2h5.46a2,2,0,0,1,2.11,2V21.06A2,2,0,0,1,205.54,23Z"/><path class="cls-14" d="M222.63,23h-5.47a2,2,0,0,1-2.11-2V10.13a2,2,0,0,1,2.11-2h5.47a2,2,0,0,1,2.11,2V21.06A2,2,0,0,1,222.63,23Z"/><path class="cls-15" d="M239.79,23h-5.47a2,2,0,0,1-2.11-2V10.13a2,2,0,0,1,2.11-2h5.47a2,2,0,0,1,2.11,2V21.06A2,2,0,0,1,239.79,23Z"/><path class="cls-16" d="M257,23h-5.47a2,2,0,0,1-2.11-2V10.13a2,2,0,0,1,2.11-2H257a2,2,0,0,1,2.11,2V21.06A2,2,0,0,1,257,23Z"/><path class="cls-17" d="M274.11,23h-5.47a2,2,0,0,1-2.11-2V10.13a2,2,0,0,1,2.11-2h5.47a2,2,0,0,1,2.11,2V21.06A2,2,0,0,1,274.11,23Z"/><path class="cls-2" d="M17.63,23H12.16a2,2,0,0,1-2.11-2V10.13a2,2,0,0,1,2.11-2h5.47a2,2,0,0,1,2.11,2V21.06A2,2,0,0,1,17.63,23Z"/><path class="cls-18" d="M17.63,23.27H12.16A2.29,2.29,0,0,1,9.8,21.06V10.13a2.29,2.29,0,0,1,2.36-2.22h5.47A2.29,2.29,0,0,1,20,10.13V21.06A2.29,2.29,0,0,1,17.63,23.27ZM12.16,8.41a1.8,1.8,0,0,0-1.86,1.72V21.06a1.8,1.8,0,0,0,1.86,1.71h5.47a1.8,1.8,0,0,0,1.86-1.71V10.13a1.8,1.8,0,0,0-1.86-1.72Z"/><path d="M91,43.36h0l-.56,1.11-1.59,2.89-1.58-2.89-.56-1.11H86.6V49h-.78V42.32h1.06l1.9,3.57h0l1.91-3.57h1V49H91Z"/><path d="M97,49a.75.75,0,0,1-.61-.23,1.14,1.14,0,0,1-.24-.57h0a1.31,1.31,0,0,1-.53.68,1.62,1.62,0,0,1-.89.23,1.7,1.7,0,0,1-1.21-.4,1.37,1.37,0,0,1-.43-1.08,1.22,1.22,0,0,1,.51-1.06,2.66,2.66,0,0,1,1.58-.38h1v-.48a1.07,1.07,0,0,0-.29-.8,1.23,1.23,0,0,0-.87-.27,1.27,1.27,0,0,0-.75.2,1.7,1.7,0,0,0-.5.53l-.45-.43a1.76,1.76,0,0,1,.63-.68,2.36,2.36,0,0,1,2.49.16,1.52,1.52,0,0,1,.5,1.21v2.69h.56V49Zm-2.18-.53a2.11,2.11,0,0,0,.52-.07,1.55,1.55,0,0,0,.41-.19.89.89,0,0,0,.26-.29.6.6,0,0,0,.1-.35v-.81h-1a1.88,1.88,0,0,0-1,.19.62.62,0,0,0-.3.56v.2a.66.66,0,0,0,.26.56A1.15,1.15,0,0,0,94.84,48.42Z"/><path d="M102.66,49.49a1.2,1.2,0,0,1-.59,1.12,3.63,3.63,0,0,1-1.78.35,3.22,3.22,0,0,1-1.65-.31,1,1,0,0,1-.51-.89.89.89,0,0,1,.21-.63,1.31,1.31,0,0,1,.57-.32V48.7a.7.7,0,0,1-.44-.68.68.68,0,0,1,.24-.56,1.51,1.51,0,0,1,.61-.29v0a1.59,1.59,0,0,1-.68-.6,1.68,1.68,0,0,1-.24-.9,1.73,1.73,0,0,1,.13-.69,1.57,1.57,0,0,1,1-.88,2,2,0,0,1,.75-.13,2.27,2.27,0,0,1,.93.19V44a.85.85,0,0,1,.13-.48.5.5,0,0,1,.44-.19h.73V44h-.93v.32a1.62,1.62,0,0,1,.42.55,1.81,1.81,0,0,1,.14.72,1.68,1.68,0,0,1-.13.68,1.47,1.47,0,0,1-.38.54,1.61,1.61,0,0,1-.58.35,2.29,2.29,0,0,1-.76.12,2.42,2.42,0,0,1-.47,0,1.3,1.3,0,0,0-.45.19.41.41,0,0,0-.2.36.29.29,0,0,0,.21.29,1.62,1.62,0,0,0,.54.08h1a2.08,2.08,0,0,1,1.33.34A1.16,1.16,0,0,1,102.66,49.49Zm-.71.06a.55.55,0,0,0-.22-.47,1.33,1.33,0,0,0-.8-.18H99.3a.7.7,0,0,0-.46.66.77.77,0,0,0,.25.56,1.18,1.18,0,0,0,.82.22h.7a1.93,1.93,0,0,0,1-.2A.64.64,0,0,0,102,49.55Zm-1.7-2.84a1.16,1.16,0,0,0,.77-.23.86.86,0,0,0,.28-.72v-.27a.89.89,0,0,0-.28-.72,1.4,1.4,0,0,0-1.54,0,.89.89,0,0,0-.28.72v.27a.86.86,0,0,0,.28.72A1.16,1.16,0,0,0,100.25,46.71Z"/><path d="M103.55,49V44h.76v.79h0a1.58,1.58,0,0,1,.51-.65,1.39,1.39,0,0,1,.88-.25,1.51,1.51,0,0,1,1.2.49,2,2,0,0,1,.45,1.38V49h-.76v-3c0-.88-.37-1.32-1.12-1.32a2.12,2.12,0,0,0-.44,0,1.46,1.46,0,0,0-.38.17.77.77,0,0,0-.27.3.76.76,0,0,0-.1.41V49Z"/><path d="M109.32,42.9a.45.45,0,0,1-.35-.12.42.42,0,0,1-.11-.31v-.13A.4.4,0,0,1,109,42a.45.45,0,0,1,.35-.12.46.46,0,0,1,.36.12.44.44,0,0,1,.11.3v.13a.47.47,0,0,1-.11.31A.46.46,0,0,1,109.32,42.9ZM108.94,44h.76V49h-.76Z"/><path d="M112.4,49a.75.75,0,0,1-.6-.23.79.79,0,0,1-.21-.58V44.72h-.8V44h.45a.48.48,0,0,0,.34-.09.54.54,0,0,0,.09-.35v-.91h.68V44h1.08v.68h-1.08v3.55h1V49Z"/><path d="M117.67,48.16h0a2.68,2.68,0,0,1-.18.33,1.06,1.06,0,0,1-.27.29,1.22,1.22,0,0,1-.39.21,1.7,1.7,0,0,1-.53.07,1.55,1.55,0,0,1-1.21-.49,1.94,1.94,0,0,1-.45-1.38V44h.76v3c0,.89.38,1.33,1.13,1.33a1.61,1.61,0,0,0,.44-.06,1.46,1.46,0,0,0,.38-.17.8.8,0,0,0,.26-.29.83.83,0,0,0,.1-.43V44h.76V49h-.76Z"/><path d="M123.18,48.16h0a1.48,1.48,0,0,1-1.43.9,1.79,1.79,0,0,1-1.46-.69,2.36,2.36,0,0,1-.4-.81,4.12,4.12,0,0,1,0-2.13,2.4,2.4,0,0,1,.4-.8,1.83,1.83,0,0,1,.63-.52,1.9,1.9,0,0,1,.83-.18,1.67,1.67,0,0,1,.88.22,1.39,1.39,0,0,1,.55.68h0V41.92h.76v7h-.76Zm-1.26.23a2,2,0,0,0,.49-.07,1.08,1.08,0,0,0,.4-.2.8.8,0,0,0,.27-.31.85.85,0,0,0,.1-.43V45.55a.75.75,0,0,0-.1-.38,1,1,0,0,0-.27-.3,1.48,1.48,0,0,0-.4-.19,1.61,1.61,0,0,0-.49-.07,1.32,1.32,0,0,0-1,.4,1.56,1.56,0,0,0-.37,1.07v.84A1.54,1.54,0,0,0,120.9,48,1.33,1.33,0,0,0,121.92,48.39Z"/><path d="M127.4,49.06a2.21,2.21,0,0,1-.91-.18,1.86,1.86,0,0,1-.69-.52,2.49,2.49,0,0,1-.45-.8,3.82,3.82,0,0,1,0-2.12,2.54,2.54,0,0,1,.45-.81,1.86,1.86,0,0,1,.69-.52,2.21,2.21,0,0,1,.91-.18,2.07,2.07,0,0,1,.88.18,2,2,0,0,1,.67.5,2.28,2.28,0,0,1,.42.75,2.93,2.93,0,0,1,.15,1v.36H126v.22a1.87,1.87,0,0,0,.1.59,1.49,1.49,0,0,0,.29.47,1.17,1.17,0,0,0,.46.31,1.48,1.48,0,0,0,.61.12,1.42,1.42,0,0,0,1.35-.85l.54.39a2,2,0,0,1-.74.82A2.23,2.23,0,0,1,127.4,49.06Zm0-4.49a1.32,1.32,0,0,0-.57.11,1.23,1.23,0,0,0-.44.3,1.61,1.61,0,0,0-.29.47A1.63,1.63,0,0,0,126,46v.07h2.71V46a1.52,1.52,0,0,0-.35-1A1.24,1.24,0,0,0,127.4,44.57Z"/><path d="M136.15,48.16h0a1.49,1.49,0,0,1-1.43.9,1.87,1.87,0,0,1-.83-.18,1.73,1.73,0,0,1-.63-.51,2.36,2.36,0,0,1-.4-.81,4.12,4.12,0,0,1,0-2.13,2.4,2.4,0,0,1,.4-.8,1.66,1.66,0,0,1,.63-.52,1.87,1.87,0,0,1,.83-.18,1.67,1.67,0,0,1,.88.22,1.39,1.39,0,0,1,.55.68h0V41.92h.76v7h-.76Zm-1.26.23a2,2,0,0,0,.49-.07,1.08,1.08,0,0,0,.4-.2,1,1,0,0,0,.27-.31.85.85,0,0,0,.1-.43V45.55a.75.75,0,0,0-.1-.38,1.27,1.27,0,0,0-.27-.3,1.48,1.48,0,0,0-.4-.19,1.61,1.61,0,0,0-.49-.07,1.32,1.32,0,0,0-1,.4,1.52,1.52,0,0,0-.37,1.07v.84a1.49,1.49,0,0,0,.37,1.06A1.33,1.33,0,0,0,134.89,48.39Z"/><path d="M140.38,49.06a2.19,2.19,0,0,1-.9-.18,1.81,1.81,0,0,1-.7-.52,2.16,2.16,0,0,1-.45-.8,3.39,3.39,0,0,1,0-2.12,2.21,2.21,0,0,1,.45-.81,1.81,1.81,0,0,1,.7-.52,2.34,2.34,0,0,1,1.8,0,1.94,1.94,0,0,1,.69.52,2.38,2.38,0,0,1,.46.81,3.59,3.59,0,0,1,0,2.12,2.33,2.33,0,0,1-.46.8,1.94,1.94,0,0,1-.69.52A2.19,2.19,0,0,1,140.38,49.06Zm0-.67a1.37,1.37,0,0,0,1-.38,1.56,1.56,0,0,0,.39-1.16v-.71a1.54,1.54,0,0,0-.39-1.15,1.33,1.33,0,0,0-1-.38,1.36,1.36,0,0,0-1,.38,1.54,1.54,0,0,0-.39,1.15v.71a1.56,1.56,0,0,0,.39,1.16A1.41,1.41,0,0,0,140.38,48.39Z"/><path d="M147.67,49l-2.2-6.63h.86l1.09,3.34.73,2.49h0l.75-2.49,1.1-3.34h.83L148.64,49Z"/><path d="M153.43,49.06a2.21,2.21,0,0,1-.91-.18,1.86,1.86,0,0,1-.69-.52,2.49,2.49,0,0,1-.45-.8,3.82,3.82,0,0,1,0-2.12,2.54,2.54,0,0,1,.45-.81,1.86,1.86,0,0,1,.69-.52,2.21,2.21,0,0,1,.91-.18,2.07,2.07,0,0,1,.88.18,2,2,0,0,1,.67.5,2.28,2.28,0,0,1,.42.75,2.93,2.93,0,0,1,.15,1v.36H152v.22a1.63,1.63,0,0,0,.11.59,1.31,1.31,0,0,0,.28.47,1.17,1.17,0,0,0,.46.31,1.48,1.48,0,0,0,.61.12,1.42,1.42,0,0,0,1.35-.85l.54.39a2,2,0,0,1-.74.82A2.23,2.23,0,0,1,153.43,49.06Zm0-4.49a1.32,1.32,0,0,0-.57.11,1.23,1.23,0,0,0-.44.3,1.61,1.61,0,0,0-.29.47A1.63,1.63,0,0,0,152,46v.07h2.71V46a1.52,1.52,0,0,0-.35-1A1.24,1.24,0,0,0,153.43,44.57Z"/><path d="M156.8,49V44h.76v.79h0a1.58,1.58,0,0,1,.51-.65,1.39,1.39,0,0,1,.88-.25,1.51,1.51,0,0,1,1.2.49,2,2,0,0,1,.44,1.38V49h-.76v-3q0-1.32-1.11-1.32a2.12,2.12,0,0,0-.44,0,1.71,1.71,0,0,0-.39.17,1,1,0,0,0-.27.3.86.86,0,0,0-.1.41V49Z"/><path d="M163.28,49a.78.78,0,0,1-.6-.23.79.79,0,0,1-.21-.58V44.72h-.8V44h.45a.48.48,0,0,0,.34-.09.54.54,0,0,0,.09-.35v-.91h.68V44h1.08v.68h-1.08v3.55h1V49Z"/><path d="M167.35,49.06a2.19,2.19,0,0,1-.9-.18,1.81,1.81,0,0,1-.7-.52,2.16,2.16,0,0,1-.45-.8,3.39,3.39,0,0,1,0-2.12,2.21,2.21,0,0,1,.45-.81,1.81,1.81,0,0,1,.7-.52,2.34,2.34,0,0,1,1.8,0,1.94,1.94,0,0,1,.69.52,2.38,2.38,0,0,1,.46.81,3.59,3.59,0,0,1,0,2.12,2.33,2.33,0,0,1-.46.8,1.94,1.94,0,0,1-.69.52A2.19,2.19,0,0,1,167.35,49.06Zm0-.67a1.38,1.38,0,0,0,1-.38,1.56,1.56,0,0,0,.39-1.16v-.71a1.54,1.54,0,0,0-.39-1.15,1.34,1.34,0,0,0-1-.38,1.36,1.36,0,0,0-1,.38,1.54,1.54,0,0,0-.39,1.15v.71a1.56,1.56,0,0,0,.39,1.16A1.41,1.41,0,0,0,167.35,48.39Z"/><path d="M173,46a6.42,6.42,0,0,1,.13-1.32,6,6,0,0,1,.37-1.18,5.22,5.22,0,0,1,.54-1,4.22,4.22,0,0,1,.68-.76h.72a4.64,4.64,0,0,0-.72.81,6.14,6.14,0,0,0-.54,1,6.81,6.81,0,0,0-.35,1.05,4.57,4.57,0,0,0-.12,1v.82a4.75,4.75,0,0,0,.12,1,5.83,5.83,0,0,0,.36,1,5.73,5.73,0,0,0,.54,1,4.56,4.56,0,0,0,.71.8h-.72a3.73,3.73,0,0,1-.67-.74,5,5,0,0,1-.54-1,6.13,6.13,0,0,1-.37-1.19A5.86,5.86,0,0,1,173,46Z"/><path d="M176.24,49V44H177v.79h0a2.37,2.37,0,0,1,.19-.35,1.48,1.48,0,0,1,.27-.29,1.37,1.37,0,0,1,.36-.19,1.83,1.83,0,0,1,1.39.16,1.43,1.43,0,0,1,.61.76h0a1.48,1.48,0,0,1,1.49-1,1.45,1.45,0,0,1,1.17.49A2,2,0,0,1,183,45.8V49h-.76v-3a1.6,1.6,0,0,0-.26-1,1,1,0,0,0-.82-.33,2,2,0,0,0-.43,0,1.2,1.2,0,0,0-.36.17.83.83,0,0,0-.26.3.76.76,0,0,0-.1.41V49h-.76v-3a1.61,1.61,0,0,0-.25-1,1,1,0,0,0-.8-.33,2.12,2.12,0,0,0-.44,0,1.4,1.4,0,0,0-.37.17.94.94,0,0,0-.26.3.76.76,0,0,0-.1.41V49Z"/><path d="M183.81,50.38l2.48-8.46H187l-2.47,8.46Z"/><path d="M189.64,49.06a2.34,2.34,0,0,1-1.14-.26,2.51,2.51,0,0,1-.79-.7l.54-.43a2.15,2.15,0,0,0,.63.55,1.69,1.69,0,0,0,.82.2,1.23,1.23,0,0,0,.76-.21.71.71,0,0,0,.27-.59.67.67,0,0,0-.19-.49,1.08,1.08,0,0,0-.67-.28l-.39-.06a2.81,2.81,0,0,1-.62-.15,1.58,1.58,0,0,1-.5-.26A1.07,1.07,0,0,1,188,46a1.46,1.46,0,0,1-.11-.58,1.41,1.41,0,0,1,.13-.64,1.33,1.33,0,0,1,.36-.45A1.71,1.71,0,0,1,189,44a2.61,2.61,0,0,1,.69-.09,2.19,2.19,0,0,1,1,.21,2.26,2.26,0,0,1,.7.58l-.5.46a1.62,1.62,0,0,0-.47-.42,1.59,1.59,0,0,0-.79-.18,1.12,1.12,0,0,0-.72.2.7.7,0,0,0-.24.56.58.58,0,0,0,.24.52,1.73,1.73,0,0,0,.7.24l.38,0a2.05,2.05,0,0,1,1.16.48,1.25,1.25,0,0,1,.34.9,1.36,1.36,0,0,1-.49,1.12A2,2,0,0,1,189.64,49.06Z"/><path d="M194.49,46a6.48,6.48,0,0,1-.14,1.34,6.13,6.13,0,0,1-.37,1.19,5,5,0,0,1-.54,1,3.73,3.73,0,0,1-.67.74h-.72a5,5,0,0,0,.7-.8,5.73,5.73,0,0,0,.54-1,5.83,5.83,0,0,0,.36-1,4.23,4.23,0,0,0,.13-1v-.82a4.08,4.08,0,0,0-.13-1,5.84,5.84,0,0,0-.34-1.05,6.14,6.14,0,0,0-.54-1,5.08,5.08,0,0,0-.72-.81h.72a4.22,4.22,0,0,1,.68.76,5.85,5.85,0,0,1,.54,1,6,6,0,0,1,.37,1.18A6.42,6.42,0,0,1,194.49,46Z"/><path d="M21.35,34.65v-.71H23.2V28.61h-.07l-1.67,1.55-.46-.5L22.75,28H24v5.92h1.71v.71Z"/><path d="M57.48,30.81a1.47,1.47,0,0,0,1-.31,1,1,0,0,0,.33-.79v-.06a1,1,0,0,0-.32-.78,1.33,1.33,0,0,0-.87-.26,1.4,1.4,0,0,0-.83.22,1.72,1.72,0,0,0-.53.6L55.69,29a2.2,2.2,0,0,1,.3-.4,1.73,1.73,0,0,1,.41-.34A2.13,2.13,0,0,1,57,28a2.26,2.26,0,0,1,.71-.1,2.85,2.85,0,0,1,.79.11,1.83,1.83,0,0,1,.64.32,1.55,1.55,0,0,1,.59,1.24,1.7,1.7,0,0,1-.1.57,1.68,1.68,0,0,1-.27.45,1.88,1.88,0,0,1-.41.32,2.1,2.1,0,0,1-.49.2v0a1.94,1.94,0,0,1,.51.18,1.67,1.67,0,0,1,.45.34,1.52,1.52,0,0,1,.31.49,1.78,1.78,0,0,1,.12.67,1.85,1.85,0,0,1-.16.78,1.73,1.73,0,0,1-.46.61,2.12,2.12,0,0,1-.71.4,3.16,3.16,0,0,1-1.68.05,2.44,2.44,0,0,1-.59-.25,2.73,2.73,0,0,1-.45-.36,3.39,3.39,0,0,1-.35-.42l.6-.46a2.07,2.07,0,0,0,.27.37,1.7,1.7,0,0,0,.33.27A1.38,1.38,0,0,0,57,34a2.09,2.09,0,0,0,.53.06,1.56,1.56,0,0,0,1.06-.32,1.15,1.15,0,0,0,.37-.92v-.07a1.15,1.15,0,0,0-.37-.92,1.56,1.56,0,0,0-1.06-.32h-.78v-.7Z"/><path d="M93.59,28.72H90.68l-.19,2.53h.07a2.27,2.27,0,0,1,.53-.54,1.52,1.52,0,0,1,.83-.2,2,2,0,0,1,.78.15,1.88,1.88,0,0,1,.63.4,1.72,1.72,0,0,1,.41.64,2.37,2.37,0,0,1,.15.87,2.56,2.56,0,0,1-.15.89,2,2,0,0,1-.44.69,2.11,2.11,0,0,1-.7.45,2.54,2.54,0,0,1-.94.16,2.78,2.78,0,0,1-.74-.09,2.13,2.13,0,0,1-1-.61,3.29,3.29,0,0,1-.34-.42l.6-.46a2.68,2.68,0,0,0,.26.37,1.53,1.53,0,0,0,.3.27,1.17,1.17,0,0,0,.39.18,2,2,0,0,0,.52.06,1.36,1.36,0,0,0,1-.36,1.38,1.38,0,0,0,.36-1v-.1a1.38,1.38,0,0,0-.36-1,1.36,1.36,0,0,0-1-.36,1.28,1.28,0,0,0-.72.17,2.5,2.5,0,0,0-.47.39l-.67-.1L90,28h3.56Z"/><path d="M124.74,34.65l2.54-5.95h-2.84v1.24h-.71V28h4.35v.7l-2.49,5.93Z"/><path d="M162.44,30.45a4.5,4.5,0,0,1-.22,1.39,5.69,5.69,0,0,1-.57,1.19,5.56,5.56,0,0,1-.76.95,5.26,5.26,0,0,1-.82.67h-1a11.69,11.69,0,0,0,1-.76,5.92,5.92,0,0,0,.74-.77,5.46,5.46,0,0,0,.53-.87,5.4,5.4,0,0,0,.35-1l-.05,0a2.21,2.21,0,0,1-.61.68,1.65,1.65,0,0,1-1,.27,2.22,2.22,0,0,1-.79-.14,1.92,1.92,0,0,1-.62-.41,1.78,1.78,0,0,1-.4-.65,2.26,2.26,0,0,1-.15-.85,2.35,2.35,0,0,1,.16-.89,1.9,1.9,0,0,1,.44-.69,2,2,0,0,1,.7-.46,2.53,2.53,0,0,1,.9-.16,2.34,2.34,0,0,1,.93.18,2,2,0,0,1,.7.5,2.14,2.14,0,0,1,.44.8A3.59,3.59,0,0,1,162.44,30.45Zm-2.22,1a1.38,1.38,0,0,0,1-.36,1.35,1.35,0,0,0,.37-1V30a1.35,1.35,0,0,0-.37-1,1.38,1.38,0,0,0-1-.36A1.25,1.25,0,0,0,158.84,30v.08a1.25,1.25,0,0,0,1.38,1.39Z"/><path d="M189.46,34.65v-.71h1.85V28.61h-.06l-1.67,1.55-.47-.5L190.87,28h1.24v5.92h1.71v.71Z"/><path d="M195.16,34.65v-.71H197V28.61H197l-1.67,1.55-.47-.5L196.57,28h1.24v5.92h1.71v.71Z"/><path d="M223.86,34.65v-.71h1.85V28.61h-.07L224,30.16l-.46-.5L225.26,28h1.25v5.92h1.71v.71Z"/><path d="M231.2,30.81a1.42,1.42,0,0,0,1-.31,1,1,0,0,0,.34-.79v-.06a.92.92,0,0,0-.33-.78,1.3,1.3,0,0,0-.86-.26,1.4,1.4,0,0,0-.83.22,1.62,1.62,0,0,0-.53.6l-.59-.45a2.2,2.2,0,0,1,.3-.4,1.73,1.73,0,0,1,.41-.34,2.13,2.13,0,0,1,.55-.24,2.26,2.26,0,0,1,.71-.1,2.9,2.9,0,0,1,.79.11,1.83,1.83,0,0,1,.64.32,1.48,1.48,0,0,1,.43.53,1.61,1.61,0,0,1,.16.71,1.7,1.7,0,0,1-.1.57,1.68,1.68,0,0,1-.27.45,1.88,1.88,0,0,1-.41.32,2,2,0,0,1-.5.2v0a2,2,0,0,1,.52.18,1.67,1.67,0,0,1,.45.34,1.52,1.52,0,0,1,.31.49,1.78,1.78,0,0,1,.12.67,1.85,1.85,0,0,1-.16.78,1.73,1.73,0,0,1-.46.61,2.12,2.12,0,0,1-.71.4,3,3,0,0,1-.92.14,2.88,2.88,0,0,1-.76-.09,2.44,2.44,0,0,1-.59-.25,2.73,2.73,0,0,1-.45-.36,3.39,3.39,0,0,1-.35-.42l.6-.46a2.07,2.07,0,0,0,.27.37,1.7,1.7,0,0,0,.33.27,1.38,1.38,0,0,0,.41.18,2.09,2.09,0,0,0,.53.06,1.56,1.56,0,0,0,1.06-.32,1.18,1.18,0,0,0,.36-.92v-.07a1.18,1.18,0,0,0-.36-.92,1.56,1.56,0,0,0-1.06-.32h-.78v-.7Z"/><path d="M258,34.65v-.71h1.86V28.61h-.07l-1.67,1.55-.47-.5L259.42,28h1.24v5.92h1.71v.71Z"/><path d="M267.61,28.72H264.7l-.19,2.53h.07a2.27,2.27,0,0,1,.53-.54,1.52,1.52,0,0,1,.83-.2,2.09,2.09,0,0,1,.79.15,1.84,1.84,0,0,1,.62.4,1.87,1.87,0,0,1,.42.64,2.6,2.6,0,0,1,.14.87,2.56,2.56,0,0,1-.15.89,2,2,0,0,1-.44.69,2.11,2.11,0,0,1-.7.45,2.54,2.54,0,0,1-.94.16,2.78,2.78,0,0,1-.74-.09,2.13,2.13,0,0,1-1-.61,3.29,3.29,0,0,1-.34-.42l.6-.46a2.68,2.68,0,0,0,.26.37,1.53,1.53,0,0,0,.3.27,1.17,1.17,0,0,0,.39.18,2,2,0,0,0,.52.06,1.4,1.4,0,0,0,1-.36,1.42,1.42,0,0,0,.35-1v-.1a1.42,1.42,0,0,0-.35-1,1.4,1.4,0,0,0-1-.36,1.28,1.28,0,0,0-.72.17,2.5,2.5,0,0,0-.47.39l-.67-.1.24-3.64h3.55Z"/></svg>