<svg id="Camada_1" data-name="Camada 1" xmlns="http://www.w3.org/2000/svg" viewBox="0 0 338.11 57.45"><defs><style>.cls-1{opacity:0.75;}.cls-2{fill:#fff;}.cls-3{fill:#f9c64e;}.cls-4{fill:#33fcfc;}.cls-5{fill:#00bedc;}.cls-6{fill:#017596;}.cls-7{fill:#a2dcf7;}.cls-8{fill:#c8f4fd;}.cls-9{fill:#5e9ad2;}.cls-10{fill:#0a6eff;}.cls-11{fill:#14ff64;}.cls-12{fill:#49b34d;}.cls-13{fill:#016301;}.cls-14{fill:#ffff4b;}.cls-15{fill:#f5742d;}.cls-16{fill:#d62528;}.cls-17{fill:#ecd0fc;}.cls-18{fill:#cb7ef6;}.cls-19{fill:#950fdf;}.cls-20{fill:#ccfcfc;}.cls-21{fill:#939393;}</style></defs><title>LEGENDAS_PÁGINA_CLIMA_MAIORES</title><g class="cls-1"><path class="cls-2" d="M0,6.38C0,2.86,3.36,0,7.51,0H330.59c4.15,0,7.52,2.86,7.52,6.38V51.07c0,3.52-3.37,6.38-7.52,6.38H7.51C3.36,57.45,0,54.59,0,51.07Z"/></g><path class="cls-3" d="M171.58,23h-5.46a2,2,0,0,1-2.11-2V10.13a2,2,0,0,1,2.11-2h5.46a2,2,0,0,1,2.11,2V21.06A2,2,0,0,1,171.58,23Z"/><path class="cls-4" d="M291.85,23h-5.46a2,2,0,0,1-2.11-2V10.13a2,2,0,0,1,2.11-2h5.46a2,2,0,0,1,2.11,2V21.06A2,2,0,0,1,291.85,23Z"/><path class="cls-5" d="M308.91,23h-5.47a2,2,0,0,1-2.11-2V10.13a2,2,0,0,1,2.11-2h5.47a2,2,0,0,1,2.11,2V21.06A2,2,0,0,1,308.91,23Z"/><path class="cls-6" d="M326,23h-5.46a2,2,0,0,1-2.11-2V10.13a2,2,0,0,1,2.11-2H326a2,2,0,0,1,2.11,2V21.06A2,2,0,0,1,326,23Z"/><path class="cls-7" d="M52,23H46.53a2,2,0,0,1-2.1-2V10.13a2,2,0,0,1,2.1-2H52a2,2,0,0,1,2.11,2V21.06A2,2,0,0,1,52,23Z"/><path class="cls-8" d="M34.92,23H29.45a2,2,0,0,1-2.11-2V10.13a2,2,0,0,1,2.11-2h5.47a2,2,0,0,1,2.11,2V21.06A2,2,0,0,1,34.92,23Z"/><path class="cls-9" d="M69.08,23H63.62a2,2,0,0,1-2.11-2V10.13a2,2,0,0,1,2.11-2h5.46a2,2,0,0,1,2.11,2V21.06A2,2,0,0,1,69.08,23Z"/><path class="cls-10" d="M86.17,23H80.7a2,2,0,0,1-2.11-2V10.13a2,2,0,0,1,2.11-2h5.47a2,2,0,0,1,2.11,2V21.06A2,2,0,0,1,86.17,23Z"/><path class="cls-11" d="M103.25,23H97.78a2,2,0,0,1-2.1-2V10.13a2,2,0,0,1,2.1-2h5.47a2,2,0,0,1,2.11,2V21.06A2,2,0,0,1,103.25,23Z"/><path class="cls-12" d="M120.33,23h-5.46a2,2,0,0,1-2.11-2V10.13a2,2,0,0,1,2.11-2h5.46a2,2,0,0,1,2.11,2V21.06A2,2,0,0,1,120.33,23Z"/><path class="cls-13" d="M137.42,23H132a2,2,0,0,1-2.11-2V10.13a2,2,0,0,1,2.11-2h5.47a2,2,0,0,1,2.11,2V21.06A2,2,0,0,1,137.42,23Z"/><path class="cls-14" d="M154.5,23H149a2,2,0,0,1-2.1-2V10.13a2,2,0,0,1,2.1-2h5.47a2,2,0,0,1,2.11,2V21.06A2,2,0,0,1,154.5,23Z"/><path class="cls-15" d="M188.8,23h-5.47a2,2,0,0,1-2.11-2V10.13a2,2,0,0,1,2.11-2h5.47a2,2,0,0,1,2.11,2V21.06A2,2,0,0,1,188.8,23Z"/><path class="cls-16" d="M206,23h-5.47a2,2,0,0,1-2.11-2V10.13a2,2,0,0,1,2.11-2H206a2,2,0,0,1,2.11,2V21.06A2,2,0,0,1,206,23Z"/><path class="cls-17" d="M223.21,23h-5.47a2,2,0,0,1-2.11-2V10.13a2,2,0,0,1,2.11-2h5.47a2,2,0,0,1,2.11,2V21.06A2,2,0,0,1,223.21,23Z"/><path class="cls-18" d="M240.37,23H234.9a2,2,0,0,1-2.11-2V10.13a2,2,0,0,1,2.11-2h5.47a2,2,0,0,1,2.11,2V21.06A2,2,0,0,1,240.37,23Z"/><path class="cls-19" d="M257.53,23h-5.47a2,2,0,0,1-2.11-2V10.13a2,2,0,0,1,2.11-2h5.47a2,2,0,0,1,2.11,2V21.06A2,2,0,0,1,257.53,23Z"/><path class="cls-20" d="M274.69,23h-5.47a2,2,0,0,1-2.1-2V10.13a2,2,0,0,1,2.1-2h5.47a2,2,0,0,1,2.11,2V21.06A2,2,0,0,1,274.69,23Z"/><path class="cls-2" d="M17.83,23H12.37a2,2,0,0,1-2.11-2V10.13a2,2,0,0,1,2.11-2h5.46a2,2,0,0,1,2.11,2V21.06A2,2,0,0,1,17.83,23Z"/><path class="cls-21" d="M17.84,23.28H12.37A2.3,2.3,0,0,1,10,21.06V10.12a2.29,2.29,0,0,1,2.36-2.21h5.47a2.28,2.28,0,0,1,2.35,2.21V21.06A2.29,2.29,0,0,1,17.84,23.28ZM12.37,8.41a1.79,1.79,0,0,0-1.86,1.71V21.06a1.8,1.8,0,0,0,1.86,1.72h5.47a1.8,1.8,0,0,0,1.85-1.72V10.12a1.79,1.79,0,0,0-1.85-1.71Z"/><path d="M129.67,49V42.33h2.64a1.78,1.78,0,0,1,1.37.51,2.25,2.25,0,0,1,0,2.78,1.78,1.78,0,0,1-1.37.51h-1.84V49Zm.8-3.53h1.84a1,1,0,0,0,.74-.25.93.93,0,0,0,.26-.7V44a.93.93,0,0,0-.26-.7,1.07,1.07,0,0,0-.74-.25h-1.84Z"/><path d="M135.26,49v-4.9H136V45h0a1.56,1.56,0,0,1,.48-.63,1.48,1.48,0,0,1,.94-.27h.29v.76h-.44a1.78,1.78,0,0,0-1,.23.69.69,0,0,0-.34.59V49Z"/><path d="M140.54,49.08a2.06,2.06,0,0,1-.91-.19,1.94,1.94,0,0,1-.69-.51,2.46,2.46,0,0,1-.45-.81,3.47,3.47,0,0,1-.16-1.06,3.4,3.4,0,0,1,.16-1,2.41,2.41,0,0,1,.45-.82,1.94,1.94,0,0,1,.69-.51,2.21,2.21,0,0,1,.91-.18,2.07,2.07,0,0,1,.88.18,2,2,0,0,1,.67.49,2.23,2.23,0,0,1,.42.76,2.87,2.87,0,0,1,.15.95v.36h-3.53v.23a1.81,1.81,0,0,0,.1.58,1.33,1.33,0,0,0,.29.47,1.23,1.23,0,0,0,.45.32,1.71,1.71,0,0,0,.62.11,1.45,1.45,0,0,0,.81-.22,1.43,1.43,0,0,0,.54-.62l.54.39a2,2,0,0,1-.74.82A2.33,2.33,0,0,1,140.54,49.08Zm0-4.5a1.48,1.48,0,0,0-.57.11,1.25,1.25,0,0,0-.44.31,1.38,1.38,0,0,0-.29.46,1.64,1.64,0,0,0-.11.6v.06h2.71V46a1.49,1.49,0,0,0-.36-1.05A1.2,1.2,0,0,0,140.54,44.58Z"/><path d="M145.73,49.08a2.13,2.13,0,0,1-.92-.19,1.94,1.94,0,0,1-.69-.51,2.22,2.22,0,0,1-.42-.81,3.82,3.82,0,0,1,0-2.12,2.22,2.22,0,0,1,.42-.81,1.94,1.94,0,0,1,.69-.51,2.29,2.29,0,0,1,.92-.18,2,2,0,0,1,1.18.31,2,2,0,0,1,.66.84l-.64.32a1.11,1.11,0,0,0-.44-.59,1.29,1.29,0,0,0-.76-.21,1.55,1.55,0,0,0-.59.11,1,1,0,0,0-.43.3,1.27,1.27,0,0,0-.26.47,2.21,2.21,0,0,0-.08.59v.84a1.61,1.61,0,0,0,.34,1.06,1.27,1.27,0,0,0,1,.41,1.37,1.37,0,0,0,1.33-.85l.56.37a2,2,0,0,1-.71.84A2.1,2.1,0,0,1,145.73,49.08Z"/><path d="M149.07,42.91a.47.47,0,0,1-.36-.12.45.45,0,0,1-.11-.31v-.12a.45.45,0,0,1,.11-.31.47.47,0,0,1,.36-.12.49.49,0,0,1,.36.12.45.45,0,0,1,.1.31v.12a.45.45,0,0,1-.1.31A.49.49,0,0,1,149.07,42.91Zm-.38,1.15h.76V49h-.76Z"/><path d="M151.06,44.06h.76v.79h0a1.32,1.32,0,0,1,.56-.68,1.62,1.62,0,0,1,.88-.22,1.83,1.83,0,0,1,.82.18,1.73,1.73,0,0,1,.63.51,2.2,2.2,0,0,1,.4.81,4.08,4.08,0,0,1,0,2.12,2.2,2.2,0,0,1-.4.81,1.73,1.73,0,0,1-.63.51,1.71,1.71,0,0,1-.82.19,1.5,1.5,0,0,1-1.44-.91h0v2.69h-.76Zm2,4.34a1.28,1.28,0,0,0,1-.4,1.52,1.52,0,0,0,.37-1.07v-.84A1.49,1.49,0,0,0,154.1,45a1.29,1.29,0,0,0-1-.41,1.57,1.57,0,0,0-.49.07,1.31,1.31,0,0,0-.41.2,1,1,0,0,0-.27.3.82.82,0,0,0-.1.37V47.4a.93.93,0,0,0,.1.42,1,1,0,0,0,.27.32,1.29,1.29,0,0,0,.41.19A1.57,1.57,0,0,0,153.09,48.4Z"/><path d="M157,42.91a.45.45,0,0,1-.35-.12.41.41,0,0,1-.11-.31v-.12a.41.41,0,0,1,.11-.31.45.45,0,0,1,.35-.12.46.46,0,0,1,.36.12.45.45,0,0,1,.11.31v.12a.45.45,0,0,1-.11.31A.46.46,0,0,1,157,42.91Zm-.38,1.15h.76V49h-.76Z"/><path d="M160,49a.76.76,0,0,1-.6-.22.81.81,0,0,1-.21-.58V44.73h-.8v-.67h.45a.43.43,0,0,0,.34-.1.53.53,0,0,0,.09-.35V42.7H160v1.36h1.08v.67H160v3.56h1V49Z"/><path d="M165.85,49a.74.74,0,0,1-.62-.23,1.13,1.13,0,0,1-.23-.57H165a1.21,1.21,0,0,1-.53.69,1.67,1.67,0,0,1-.88.23,1.73,1.73,0,0,1-1.21-.4,1.42,1.42,0,0,1-.44-1.09,1.23,1.23,0,0,1,.51-1.06,2.69,2.69,0,0,1,1.58-.37h1v-.49a1,1,0,0,0-.28-.79,1.19,1.19,0,0,0-.88-.28,1.34,1.34,0,0,0-.74.2,1.59,1.59,0,0,0-.5.53l-.46-.43a1.78,1.78,0,0,1,.64-.67,2,2,0,0,1,1.1-.28,2,2,0,0,1,1.39.43,1.54,1.54,0,0,1,.49,1.22v2.69h.56V49Zm-2.19-.53a1.68,1.68,0,0,0,.52-.07,1,1,0,0,0,.41-.19.9.9,0,0,0,.27-.28.73.73,0,0,0,.09-.35v-.81h-1a1.82,1.82,0,0,0-1,.19.62.62,0,0,0-.3.55v.2a.67.67,0,0,0,.26.56A1.17,1.17,0,0,0,163.66,48.43Z"/><path d="M169.18,44a2,2,0,0,1,1.17.31,1.91,1.91,0,0,1,.66.83l-.63.33a1.16,1.16,0,0,0-.44-.59,1.31,1.31,0,0,0-.76-.21,1.57,1.57,0,0,0-.6.11,1.19,1.19,0,0,0-.43.3,1.25,1.25,0,0,0-.25.47,1.83,1.83,0,0,0-.09.59v.83a1.61,1.61,0,0,0,.35,1.06,1.27,1.27,0,0,0,1,.41,1.38,1.38,0,0,0,1.33-.85l.55.37a1.9,1.9,0,0,1-.64.79,2,2,0,0,1-1,.37l-.1.47,0,0a1.19,1.19,0,0,1,.37-.06.69.69,0,0,1,.46.16.58.58,0,0,1,.19.47.68.68,0,0,1-.09.35.68.68,0,0,1-.23.25,1.16,1.16,0,0,1-.34.14,1.68,1.68,0,0,1-.4,0,1.15,1.15,0,0,1-.94-.39l.37-.39a.7.7,0,0,0,.57.26.56.56,0,0,0,.3-.07.23.23,0,0,0,.12-.22.28.28,0,0,0-.12-.23,1.16,1.16,0,0,0-.52-.16l-.27,0,.12-.62a2,2,0,0,1-1.42-.78,3,3,0,0,1-.5-1.78,3.48,3.48,0,0,1,.15-1.06,2.24,2.24,0,0,1,.43-.81,1.94,1.94,0,0,1,.69-.51A2.25,2.25,0,0,1,169.18,44Z"/><path d="M175.7,49a.74.74,0,0,1-.62-.23,1.13,1.13,0,0,1-.23-.57h0a1.21,1.21,0,0,1-.53.69,1.67,1.67,0,0,1-.88.23,1.73,1.73,0,0,1-1.21-.4,1.42,1.42,0,0,1-.44-1.09,1.23,1.23,0,0,1,.51-1.06,2.69,2.69,0,0,1,1.58-.37h1v-.49a1,1,0,0,0-.28-.79,1.19,1.19,0,0,0-.88-.28,1.34,1.34,0,0,0-.74.2,1.59,1.59,0,0,0-.5.53l-.46-.43a1.78,1.78,0,0,1,.64-.67,2,2,0,0,1,1.1-.28,2,2,0,0,1,1.39.43,1.54,1.54,0,0,1,.49,1.22v2.69h.56V49Zm-1.28-5.81a.93.93,0,0,1-.42-.09l-.34-.16a2.26,2.26,0,0,0-.38-.17.83.83,0,0,0-.28-.06.57.57,0,0,0-.29.07,1.31,1.31,0,0,0-.26.19l-.32-.38a1.5,1.5,0,0,1,.36-.35,1.11,1.11,0,0,1,1-.07l.34.16.38.18a1.11,1.11,0,0,0,.28.05.57.57,0,0,0,.29-.07,1,1,0,0,0,.26-.19l.32.38A1.34,1.34,0,0,1,175,43,.86.86,0,0,1,174.42,43.15Zm-.91,5.28a1.68,1.68,0,0,0,.52-.07,1,1,0,0,0,.41-.19.8.8,0,0,0,.27-.28.73.73,0,0,0,.09-.35v-.81h-1a1.82,1.82,0,0,0-1,.19.62.62,0,0,0-.3.55v.2a.67.67,0,0,0,.26.56A1.17,1.17,0,0,0,173.51,48.43Z"/><path d="M179.06,49.08a2,2,0,0,1-.9-.19,2,2,0,0,1-.7-.51,2.65,2.65,0,0,1-.45-.81,3.19,3.19,0,0,1-.16-1.06,3.13,3.13,0,0,1,.16-1,2.59,2.59,0,0,1,.45-.82,2,2,0,0,1,.7-.51,2.34,2.34,0,0,1,1.8,0,2.07,2.07,0,0,1,.7.51,2.59,2.59,0,0,1,.45.82,3.13,3.13,0,0,1,.16,1,3.19,3.19,0,0,1-.16,1.06,2.65,2.65,0,0,1-.45.81,2.07,2.07,0,0,1-.7.51A2,2,0,0,1,179.06,49.08Zm0-.68a1.41,1.41,0,0,0,1-.38,1.55,1.55,0,0,0,.39-1.16v-.7a1.55,1.55,0,0,0-.39-1.16,1.53,1.53,0,0,0-2,0,1.55,1.55,0,0,0-.39,1.16v.7a1.55,1.55,0,0,0,.39,1.16A1.41,1.41,0,0,0,179.06,48.4Z"/><path d="M184.75,46a7,7,0,0,1,.13-1.32,6.13,6.13,0,0,1,.37-1.19,5.25,5.25,0,0,1,.55-1,4.18,4.18,0,0,1,.67-.76h.72a4.7,4.7,0,0,0-.71.82,5.16,5.16,0,0,0-.55,1,5.74,5.74,0,0,0-.34,1,4.21,4.21,0,0,0-.13,1v.82a4.15,4.15,0,0,0,.13,1,5.88,5.88,0,0,0,.35,1,6.14,6.14,0,0,0,.54,1,4.93,4.93,0,0,0,.71.79h-.72a3.44,3.44,0,0,1-.66-.74,5,5,0,0,1-.55-1,5.92,5.92,0,0,1-.37-1.19A6.45,6.45,0,0,1,184.75,46Z"/><path d="M188,49v-4.9h.76v.79h0a2.89,2.89,0,0,1,.19-.35,1.5,1.5,0,0,1,.27-.29,1.18,1.18,0,0,1,.37-.19,1.45,1.45,0,0,1,.49-.07,1.71,1.71,0,0,1,.89.23,1.33,1.33,0,0,1,.61.75h0a1.57,1.57,0,0,1,.5-.69,1.5,1.5,0,0,1,1-.29,1.48,1.48,0,0,1,1.18.49,2,2,0,0,1,.42,1.38V49h-.76v-3a1.64,1.64,0,0,0-.26-1,1,1,0,0,0-.81-.33,1.56,1.56,0,0,0-.44.06,1.09,1.09,0,0,0-.36.17.73.73,0,0,0-.26.29.88.88,0,0,0-.09.41V49h-.76v-3a1.64,1.64,0,0,0-.26-1,1,1,0,0,0-.8-.33,1.61,1.61,0,0,0-.44.06,1.14,1.14,0,0,0-.37.17.92.92,0,0,0-.26.29.89.89,0,0,0-.1.41V49Z"/><path d="M196.25,49v-4.9H197v.79h0a2.91,2.91,0,0,1,.2-.35,1.2,1.2,0,0,1,.26-.29,1.18,1.18,0,0,1,.37-.19,1.45,1.45,0,0,1,.49-.07,1.75,1.75,0,0,1,.9.23,1.35,1.35,0,0,1,.6.75h0a1.57,1.57,0,0,1,.5-.69,1.55,1.55,0,0,1,1-.29,1.45,1.45,0,0,1,1.17.49,2,2,0,0,1,.42,1.38V49h-.76v-3a1.58,1.58,0,0,0-.26-1,1,1,0,0,0-.81-.33,1.49,1.49,0,0,0-.43.06,1.14,1.14,0,0,0-.37.17.81.81,0,0,0-.26.29.88.88,0,0,0-.09.41V49h-.76v-3a1.64,1.64,0,0,0-.26-1,1,1,0,0,0-.8-.33,1.54,1.54,0,0,0-.43.06,1.05,1.05,0,0,0-.37.17.84.84,0,0,0-.27.29.88.88,0,0,0-.09.41V49Z"/><path d="M206.12,46a6.45,6.45,0,0,1-.13,1.33,6.64,6.64,0,0,1-.37,1.19,5.61,5.61,0,0,1-.55,1,3.72,3.72,0,0,1-.66.74h-.73a4.44,4.44,0,0,0,.7-.79,6.2,6.2,0,0,0,.55-1,5.88,5.88,0,0,0,.35-1,4.15,4.15,0,0,0,.13-1V45.6a4.73,4.73,0,0,0-.12-1,6,6,0,0,0-.89-2,4.37,4.37,0,0,0-.72-.82h.73a4.18,4.18,0,0,1,.67.76,5.88,5.88,0,0,1,.55,1,6.9,6.9,0,0,1,.36,1.19A6.29,6.29,0,0,1,206.12,46Z"/><path d="M42.7,29.51H39.79L39.6,32h.07a2.26,2.26,0,0,1,.54-.53,1.46,1.46,0,0,1,.82-.2,2.09,2.09,0,0,1,.79.15,1.84,1.84,0,0,1,.62.4,1.78,1.78,0,0,1,.42.64,2.71,2.71,0,0,1,0,1.75,2,2,0,0,1-.44.7,2.11,2.11,0,0,1-.7.45,2.54,2.54,0,0,1-.94.16,2.78,2.78,0,0,1-.74-.09,2.22,2.22,0,0,1-.56-.26,1.88,1.88,0,0,1-.43-.35,4.18,4.18,0,0,1-.34-.42l.6-.46a2.09,2.09,0,0,0,.26.36,1.58,1.58,0,0,0,.3.28,1.15,1.15,0,0,0,.39.17,1.6,1.6,0,0,0,.52.07,1.36,1.36,0,0,0,1-.37,1.42,1.42,0,0,0,.35-1v-.09a1.42,1.42,0,0,0-.35-1,1.4,1.4,0,0,0-1-.36,1.37,1.37,0,0,0-.72.16,2.55,2.55,0,0,0-.47.4l-.67-.1.24-3.64H42.7Z"/><path d="M13.1,35.44v-.71H15V29.39h-.07L13.21,31l-.46-.5,1.75-1.64h1.25v5.92h1.71v.71Z"/><path d="M70.12,35.44v-.71H72V29.39h-.06L70.23,31l-.46-.5,1.76-1.64h1.24v5.92h1.71v.71Z"/><path d="M79.71,29.51h-2.9L76.62,32h.06a2.26,2.26,0,0,1,.54-.53,1.48,1.48,0,0,1,.82-.2,2,2,0,0,1,.79.15,1.88,1.88,0,0,1,.63.4,1.9,1.9,0,0,1,.41.64,2.31,2.31,0,0,1,.15.86,2.52,2.52,0,0,1-.15.89,2.05,2.05,0,0,1-.45.7,2,2,0,0,1-.7.45,2.49,2.49,0,0,1-.93.16,2.73,2.73,0,0,1-.74-.09,2.48,2.48,0,0,1-.57-.26,2.44,2.44,0,0,1-.43-.35l-.34-.42.6-.46a2.8,2.8,0,0,0,.26.36,2,2,0,0,0,.31.28,1.19,1.19,0,0,0,.38.17,1.66,1.66,0,0,0,.53.07,1.34,1.34,0,0,0,1-.37,1.38,1.38,0,0,0,.35-1v-.09A1.24,1.24,0,0,0,77.79,32a1.33,1.33,0,0,0-.72.16,2.26,2.26,0,0,0-.47.4l-.68-.1.24-3.64h3.55Z"/><path d="M108.43,35.44h-4.35v-.82l2.16-2a4.71,4.71,0,0,0,.78-.91,1.75,1.75,0,0,0,.32-1v-.12a1.3,1.3,0,0,0-.31-.89,1.16,1.16,0,0,0-.92-.35,1.44,1.44,0,0,0-.53.09,1.33,1.33,0,0,0-.4.24,1.31,1.31,0,0,0-.27.35,3,3,0,0,0-.18.45l-.71-.28a2.72,2.72,0,0,1,.26-.58,2,2,0,0,1,.42-.49,1.91,1.91,0,0,1,.61-.35,2.32,2.32,0,0,1,.84-.13,2.54,2.54,0,0,1,.86.14,1.79,1.79,0,0,1,.64.4,1.68,1.68,0,0,1,.39.61,1.94,1.94,0,0,1,.14.78,2.36,2.36,0,0,1-.11.72,2.6,2.6,0,0,1-.3.63,3.44,3.44,0,0,1-.46.58c-.18.19-.37.38-.58.57l-1.79,1.61h3.49Z"/><path d="M113.8,29.51h-2.91L110.7,32h.06a2.26,2.26,0,0,1,.54-.53,1.48,1.48,0,0,1,.82-.2,2,2,0,0,1,.79.15,1.88,1.88,0,0,1,.63.4,1.76,1.76,0,0,1,.41.64,2.31,2.31,0,0,1,.15.86,2.52,2.52,0,0,1-.15.89,2,2,0,0,1-.44.7,2.15,2.15,0,0,1-.71.45,2.45,2.45,0,0,1-.93.16,2.73,2.73,0,0,1-.74-.09,2.22,2.22,0,0,1-.56-.26,2.19,2.19,0,0,1-.44-.35q-.18-.21-.33-.42l.59-.46a2.11,2.11,0,0,0,.27.36,1.58,1.58,0,0,0,.3.28,1.19,1.19,0,0,0,.38.17,1.66,1.66,0,0,0,.53.07,1.34,1.34,0,0,0,1-.37,1.38,1.38,0,0,0,.35-1v-.09A1.24,1.24,0,0,0,111.87,32a1.33,1.33,0,0,0-.72.16,2.55,2.55,0,0,0-.47.4l-.68-.1.24-3.64h3.56Z"/><path d="M141.19,35.44V34.13H138v-.7l2.78-4.62H142v4.66h1v.66h-1v1.31Zm-2.45-2h2.45v-4h0Z"/><path d="M146.18,35.55a1.87,1.87,0,0,1-1.73-.9,4.85,4.85,0,0,1-.55-2.53,4.85,4.85,0,0,1,.55-2.53,2.11,2.11,0,0,1,3.46,0,4.85,4.85,0,0,1,.55,2.53,4.85,4.85,0,0,1-.55,2.53A1.87,1.87,0,0,1,146.18,35.55Zm0-.7a1.41,1.41,0,0,0,.67-.16,1.22,1.22,0,0,0,.44-.46,1.94,1.94,0,0,0,.25-.69,4.06,4.06,0,0,0,.08-.88V31.58a4.06,4.06,0,0,0-.08-.88,2,2,0,0,0-.25-.69,1.12,1.12,0,0,0-.44-.45,1.31,1.31,0,0,0-.67-.17,1.24,1.24,0,0,0-.66.17,1.08,1.08,0,0,0-.45.45,2.25,2.25,0,0,0-.25.69,4.06,4.06,0,0,0-.08.88v1.08a4.06,4.06,0,0,0,.08.88,2.15,2.15,0,0,0,.25.69,1.17,1.17,0,0,0,.45.46A1.34,1.34,0,0,0,146.18,34.85Z"/><path d="M166,35.55a2.34,2.34,0,0,1-.93-.18,1.84,1.84,0,0,1-.7-.5,2.21,2.21,0,0,1-.44-.8,3.25,3.25,0,0,1-.16-1.07,4.55,4.55,0,0,1,.22-1.39,5.38,5.38,0,0,1,.57-1.18,5.19,5.19,0,0,1,.76-.95,4.74,4.74,0,0,1,.82-.67h1a10.18,10.18,0,0,0-1,.75,6,6,0,0,0-.74.78,5,5,0,0,0-.53.86,5.28,5.28,0,0,0-.35,1h0a2.33,2.33,0,0,1,.61-.68,1.65,1.65,0,0,1,1-.27,2,2,0,0,1,.79.15,1.64,1.64,0,0,1,.62.41,1.74,1.74,0,0,1,.4.64,2.52,2.52,0,0,1,0,1.74,2,2,0,0,1-.44.7,2.21,2.21,0,0,1-.7.45A2.36,2.36,0,0,1,166,35.55Zm0-.7a1.38,1.38,0,0,0,1-.36,1.41,1.41,0,0,0,.36-1v-.08a1.4,1.4,0,0,0-.36-1,1.39,1.39,0,0,0-2.41,1v.08a1.27,1.27,0,0,0,1.39,1.4Z"/><path d="M171.67,35.55a1.9,1.9,0,0,1-1.74-.9,5,5,0,0,1-.54-2.53,5,5,0,0,1,.54-2.53,1.9,1.9,0,0,1,1.74-.9,1.87,1.87,0,0,1,1.73.9,4.87,4.87,0,0,1,.55,2.53,4.85,4.85,0,0,1-.55,2.53A1.87,1.87,0,0,1,171.67,35.55Zm0-.7a1.34,1.34,0,0,0,.66-.16,1.17,1.17,0,0,0,.45-.46,2.15,2.15,0,0,0,.25-.69,4.71,4.71,0,0,0,.08-.88V31.58a4.79,4.79,0,0,0-.08-.88,2.35,2.35,0,0,0-.25-.69,1.08,1.08,0,0,0-.45-.45,1.24,1.24,0,0,0-.66-.17,1.31,1.31,0,0,0-.67.17,1.12,1.12,0,0,0-.44.45,2.36,2.36,0,0,0-.26.69,4.79,4.79,0,0,0-.08.88v1.08a4.71,4.71,0,0,0,.08.88,2.16,2.16,0,0,0,.26.69,1.22,1.22,0,0,0,.44.46A1.41,1.41,0,0,0,171.67,34.85Z"/><path d="M193.89,31.24a4.26,4.26,0,0,1-.22,1.39,5.2,5.2,0,0,1-.56,1.19,6,6,0,0,1-.77,1,5.21,5.21,0,0,1-.81.67h-1c.36-.26.67-.52.95-.76a6.51,6.51,0,0,0,.73-.77,4.86,4.86,0,0,0,.54-.87,5.4,5.4,0,0,0,.35-1l0,0a2.21,2.21,0,0,1-.61.68,1.66,1.66,0,0,1-1,.27,2.3,2.3,0,0,1-.79-.14,1.87,1.87,0,0,1-.61-.41,2.06,2.06,0,0,1-.41-.65,2.48,2.48,0,0,1-.14-.85,2.56,2.56,0,0,1,.15-.89,2.06,2.06,0,0,1,.45-.69,1.94,1.94,0,0,1,.69-.46,2.59,2.59,0,0,1,.91-.16,2.34,2.34,0,0,1,.93.18,1.84,1.84,0,0,1,.7.5,2.29,2.29,0,0,1,.44.8A3.55,3.55,0,0,1,193.89,31.24Zm-2.21,1a1.27,1.27,0,0,0,1.39-1.39v-.08a1.44,1.44,0,0,0-2.41-1,1.35,1.35,0,0,0-.37,1v.08a1.35,1.35,0,0,0,.37,1A1.38,1.38,0,0,0,191.68,32.26Z"/><path d="M197.38,35.55a1.87,1.87,0,0,1-1.73-.9,4.85,4.85,0,0,1-.55-2.53,4.87,4.87,0,0,1,.55-2.53,2.11,2.11,0,0,1,3.46,0,4.87,4.87,0,0,1,.55,2.53,4.85,4.85,0,0,1-.55,2.53A1.87,1.87,0,0,1,197.38,35.55Zm0-.7a1.34,1.34,0,0,0,.66-.16,1.17,1.17,0,0,0,.45-.46,2.15,2.15,0,0,0,.25-.69,4,4,0,0,0,.08-.88V31.58a4.06,4.06,0,0,0-.08-.88,2.35,2.35,0,0,0-.25-.69,1.08,1.08,0,0,0-.45-.45,1.24,1.24,0,0,0-.66-.17,1.31,1.31,0,0,0-.67.17,1.12,1.12,0,0,0-.44.45,2.1,2.1,0,0,0-.25.69,4.06,4.06,0,0,0-.08.88v1.08a4,4,0,0,0,.08.88,1.94,1.94,0,0,0,.25.69,1.22,1.22,0,0,0,.44.46A1.41,1.41,0,0,0,197.38,34.85Z"/><path d="M221.24,35.44v-.71h1.85V29.39H223L221.35,31l-.47-.5,1.76-1.64h1.25v5.92h1.71v.71Z"/><path d="M228.58,31.6a1.42,1.42,0,0,0,1-.31,1,1,0,0,0,.34-.79v-.06a1,1,0,0,0-.33-.79,1.36,1.36,0,0,0-.86-.26,1.46,1.46,0,0,0-.84.23,1.82,1.82,0,0,0-.53.6l-.59-.45a3.79,3.79,0,0,1,.3-.4,2,2,0,0,1,.42-.34,2.34,2.34,0,0,1,.55-.25,2.55,2.55,0,0,1,.71-.09,2.9,2.9,0,0,1,.79.11,1.92,1.92,0,0,1,.64.32,1.5,1.5,0,0,1,.58,1.24,1.48,1.48,0,0,1-.1.57,1.29,1.29,0,0,1-.27.45,1.82,1.82,0,0,1-.4.32,2.18,2.18,0,0,1-.5.2v0a2,2,0,0,1,.52.18,1.81,1.81,0,0,1,.44.33,1.63,1.63,0,0,1,.44,1.16,2,2,0,0,1-.16.79,1.73,1.73,0,0,1-.46.61,2.22,2.22,0,0,1-.71.4,3,3,0,0,1-.92.14,2.88,2.88,0,0,1-.76-.09,2.29,2.29,0,0,1-.59-.26,2,2,0,0,1-.45-.35,4.32,4.32,0,0,1-.35-.42l.6-.46a1.69,1.69,0,0,0,.27.36,1.75,1.75,0,0,0,.33.28,1.62,1.62,0,0,0,.4.18,2.17,2.17,0,0,0,.54.06,1.58,1.58,0,0,0,1.06-.32,1.18,1.18,0,0,0,.36-.92v-.07a1.18,1.18,0,0,0-.36-.92,1.58,1.58,0,0,0-1.06-.32h-.78v-.7Z"/><path d="M234.65,35.55a1.87,1.87,0,0,1-1.73-.9,4.85,4.85,0,0,1-.55-2.53,4.87,4.87,0,0,1,.55-2.53,2.11,2.11,0,0,1,3.46,0,4.87,4.87,0,0,1,.55,2.53,4.85,4.85,0,0,1-.55,2.53A1.87,1.87,0,0,1,234.65,35.55Zm0-.7a1.34,1.34,0,0,0,.66-.16,1.17,1.17,0,0,0,.45-.46,2.15,2.15,0,0,0,.25-.69,4,4,0,0,0,.08-.88V31.58a4.06,4.06,0,0,0-.08-.88,2.35,2.35,0,0,0-.25-.69,1.08,1.08,0,0,0-.45-.45,1.24,1.24,0,0,0-.66-.17,1.31,1.31,0,0,0-.67.17,1.12,1.12,0,0,0-.44.45,2.1,2.1,0,0,0-.25.69,4.06,4.06,0,0,0-.08.88v1.08a4,4,0,0,0,.08.88,1.94,1.94,0,0,0,.25.69,1.22,1.22,0,0,0,.44.46A1.41,1.41,0,0,0,234.65,34.85Z"/><path d="M255.71,35.44v-.71h1.85V29.39h-.07L255.82,31l-.46-.5,1.75-1.64h1.25v5.92h1.71v.71Z"/><path d="M265.63,31.24a4.54,4.54,0,0,1-.21,1.39,5.69,5.69,0,0,1-.57,1.19,6.59,6.59,0,0,1-.76,1,5.76,5.76,0,0,1-.82.67h-1c.36-.26.67-.52.95-.76a5.78,5.78,0,0,0,.73-.77,4.86,4.86,0,0,0,.54-.87,5.4,5.4,0,0,0,.35-1l-.05,0a2.21,2.21,0,0,1-.61.68,1.66,1.66,0,0,1-1,.27,2.21,2.21,0,0,1-.78-.14,1.92,1.92,0,0,1-.62-.41,1.87,1.87,0,0,1-.4-.65,2.26,2.26,0,0,1-.15-.85,2.56,2.56,0,0,1,.15-.89,2.06,2.06,0,0,1,.45-.69,1.94,1.94,0,0,1,.69-.46,2.63,2.63,0,0,1,.91-.16,2.34,2.34,0,0,1,.93.18,1.84,1.84,0,0,1,.7.5,2.29,2.29,0,0,1,.44.8A3.55,3.55,0,0,1,265.63,31.24Zm-2.21,1a1.38,1.38,0,0,0,1-.36,1.35,1.35,0,0,0,.37-1v-.08a1.35,1.35,0,0,0-.37-1,1.39,1.39,0,0,0-2.41,1v.08a1.27,1.27,0,0,0,1.39,1.39Z"/><path d="M269.12,35.55a1.87,1.87,0,0,1-1.73-.9,4.85,4.85,0,0,1-.55-2.53,4.87,4.87,0,0,1,.55-2.53,1.87,1.87,0,0,1,1.73-.9,1.9,1.9,0,0,1,1.74.9,5,5,0,0,1,.54,2.53,5,5,0,0,1-.54,2.53A1.9,1.9,0,0,1,269.12,35.55Zm0-.7a1.41,1.41,0,0,0,.67-.16,1.22,1.22,0,0,0,.44-.46,1.94,1.94,0,0,0,.25-.69,4,4,0,0,0,.09-.88V31.58a4,4,0,0,0-.09-.88,2.1,2.1,0,0,0-.25-.69,1.12,1.12,0,0,0-.44-.45,1.31,1.31,0,0,0-.67-.17,1.24,1.24,0,0,0-.66.17A1.08,1.08,0,0,0,268,30a2.35,2.35,0,0,0-.25.69,4.06,4.06,0,0,0-.08.88v1.08a4,4,0,0,0,.08.88,2.15,2.15,0,0,0,.25.69,1.17,1.17,0,0,0,.45.46A1.34,1.34,0,0,0,269.12,34.85Z"/><path d="M294.08,35.44h-4.35v-.82l2.17-2a4.71,4.71,0,0,0,.77-.91,1.75,1.75,0,0,0,.32-1v-.12a1.25,1.25,0,0,0-.31-.89,1.16,1.16,0,0,0-.92-.35,1.44,1.44,0,0,0-.53.09,1.28,1.28,0,0,0-.39.24,1.17,1.17,0,0,0-.28.35,3,3,0,0,0-.18.45l-.71-.28a2.94,2.94,0,0,1,.26-.57,1.83,1.83,0,0,1,.42-.5,2.12,2.12,0,0,1,.61-.35,2.39,2.39,0,0,1,.84-.13,2.54,2.54,0,0,1,.86.14,1.79,1.79,0,0,1,.64.4,2,2,0,0,1,.4.61,2.13,2.13,0,0,1,.13.78,2.09,2.09,0,0,1-.11.72,2.6,2.6,0,0,1-.3.63,4,4,0,0,1-.46.59c-.18.18-.37.37-.58.56l-1.79,1.61h3.49Z"/><path d="M299.45,29.51h-2.91L296.35,32h.07a2,2,0,0,1,.53-.54,1.52,1.52,0,0,1,.83-.2,2,2,0,0,1,.78.15,1.88,1.88,0,0,1,.63.4,1.64,1.64,0,0,1,.41.64,2.33,2.33,0,0,1,.15.87,2.46,2.46,0,0,1-.15.88,2,2,0,0,1-.44.7,2.15,2.15,0,0,1-.71.45,2.45,2.45,0,0,1-.93.16,2.73,2.73,0,0,1-.74-.09,2.22,2.22,0,0,1-.56-.26,2.19,2.19,0,0,1-.44-.35q-.18-.21-.33-.42l.6-.46a2.09,2.09,0,0,0,.26.36,1.58,1.58,0,0,0,.3.28,1.4,1.4,0,0,0,.39.18,2,2,0,0,0,.52.06,1.32,1.32,0,0,0,1-.37,1.37,1.37,0,0,0,.36-1v-.1a1.38,1.38,0,0,0-.36-1,1.67,1.67,0,0,0-1.75-.2,3,3,0,0,0-.47.4l-.67-.1.23-3.64h3.56Z"/><path d="M303.27,35.55a1.9,1.9,0,0,1-1.74-.9,5,5,0,0,1-.54-2.53,5,5,0,0,1,.54-2.53,1.9,1.9,0,0,1,1.74-.9,1.87,1.87,0,0,1,1.73.9,5,5,0,0,1,.55,2.53,5,5,0,0,1-.55,2.53A1.87,1.87,0,0,1,303.27,35.55Zm0-.7a1.34,1.34,0,0,0,.66-.16,1.32,1.32,0,0,0,.45-.46,2.15,2.15,0,0,0,.25-.69,4.71,4.71,0,0,0,.08-.88V31.58a4.79,4.79,0,0,0-.08-.88,2.35,2.35,0,0,0-.25-.69,1.21,1.21,0,0,0-.45-.45,1.24,1.24,0,0,0-.66-.17,1.28,1.28,0,0,0-.67.17,1.21,1.21,0,0,0-.45.45,2.67,2.67,0,0,0-.25.69,4.79,4.79,0,0,0-.08.88v1.08a4.71,4.71,0,0,0,.08.88,2.42,2.42,0,0,0,.25.69,1.32,1.32,0,0,0,.45.46A1.38,1.38,0,0,0,303.27,34.85Z"/><path d="M319.73,35.44h-4.35v-.82l2.17-2a4.09,4.09,0,0,0,.77-.91,1.75,1.75,0,0,0,.32-1v-.12a1.25,1.25,0,0,0-.31-.89,1.16,1.16,0,0,0-.92-.35,1.44,1.44,0,0,0-.53.09,1.28,1.28,0,0,0-.39.24,1.35,1.35,0,0,0-.28.35,2.2,2.2,0,0,0-.17.45l-.72-.28a2.94,2.94,0,0,1,.26-.57,1.83,1.83,0,0,1,.42-.5,2.12,2.12,0,0,1,.61-.35,2.39,2.39,0,0,1,.84-.13,2.65,2.65,0,0,1,.87.14,1.84,1.84,0,0,1,.63.4,2,2,0,0,1,.4.61,2.13,2.13,0,0,1,.13.78,2.09,2.09,0,0,1-.11.72,3,3,0,0,1-.29.63,4,4,0,0,1-.47.59c-.18.18-.37.37-.58.56l-1.79,1.61h3.49Z"/><path d="M323.22,35.55a3,3,0,0,1-1-.15,2,2,0,0,1-.72-.4,1.54,1.54,0,0,1-.43-.61,1.91,1.91,0,0,1-.15-.76,1.51,1.51,0,0,1,.37-1.08,2,2,0,0,1,1-.56v-.08a1.67,1.67,0,0,1-.83-.58,1.55,1.55,0,0,1-.31-1,1.48,1.48,0,0,1,.55-1.21,2.89,2.89,0,0,1,3.1,0,1.51,1.51,0,0,1,.55,1.21,1.61,1.61,0,0,1-.31,1,1.72,1.72,0,0,1-.83.58V32a2,2,0,0,1,1,.56,1.55,1.55,0,0,1,.37,1.08,1.91,1.91,0,0,1-.15.76,1.57,1.57,0,0,1-.44.61,2,2,0,0,1-.71.4A3,3,0,0,1,323.22,35.55Zm0-.7a1.68,1.68,0,0,0,1.07-.31,1.09,1.09,0,0,0,.38-.88v-.19a1.09,1.09,0,0,0-.38-.88,1.68,1.68,0,0,0-1.07-.31,1.73,1.73,0,0,0-1.08.31,1.09,1.09,0,0,0-.38.88v.19a1.09,1.09,0,0,0,.38.88A1.73,1.73,0,0,0,323.22,34.85Zm0-3.23a1.47,1.47,0,0,0,.95-.27.94.94,0,0,0,.32-.77v-.14a1,1,0,0,0-.32-.78,1.47,1.47,0,0,0-.95-.27,1.44,1.44,0,0,0-1,.27.94.94,0,0,0-.33.78v.14a.92.92,0,0,0,.33.77A1.44,1.44,0,0,0,323.22,31.62Z"/><path d="M328.92,35.55a1.9,1.9,0,0,1-1.74-.9,5,5,0,0,1-.54-2.53,5,5,0,0,1,.54-2.53,1.9,1.9,0,0,1,1.74-.9,1.87,1.87,0,0,1,1.73.9,4.87,4.87,0,0,1,.55,2.53,4.85,4.85,0,0,1-.55,2.53A1.87,1.87,0,0,1,328.92,35.55Zm0-.7a1.34,1.34,0,0,0,.66-.16,1.17,1.17,0,0,0,.45-.46,2.15,2.15,0,0,0,.25-.69,4.71,4.71,0,0,0,.08-.88V31.58a4.79,4.79,0,0,0-.08-.88A2.35,2.35,0,0,0,330,30a1.08,1.08,0,0,0-.45-.45,1.24,1.24,0,0,0-.66-.17,1.31,1.31,0,0,0-.67.17,1.12,1.12,0,0,0-.44.45,2.36,2.36,0,0,0-.26.69,4.79,4.79,0,0,0-.08.88v1.08a4.71,4.71,0,0,0,.08.88,2.16,2.16,0,0,0,.26.69,1.22,1.22,0,0,0,.44.46A1.41,1.41,0,0,0,328.92,34.85Z"/></svg>