<svg id="Camada_1" data-name="Camada 1" xmlns="http://www.w3.org/2000/svg" viewBox="0 0 320.44 57.45">
  <title>LEGENDAS_PÁGINA_CLIMA</title>
  <g style="opacity: 0.75">
    <path d="M0,6.38C0,2.86,3.19,0,7.12,0h306.2c3.94,0,7.12,2.86,7.12,6.38V51.07c0,3.52-3.18,6.38-7.12,6.38H7.12C3.19,57.45,0,54.59,0,51.07Z" style="fill: #fff"/>
  </g>
  <g>
    <path d="M17.51,32.58v-.69h2.1v.69Z"/>
    <path d="M24.46,34.68H20.77V34L22.6,32.3a3.61,3.61,0,0,0,.66-.77,1.48,1.48,0,0,0,.27-.82v-.1a1.13,1.13,0,0,0-.26-.76,1,1,0,0,0-.78-.29,1.52,1.52,0,0,0-.45.07.93.93,0,0,0-.33.21.89.89,0,0,0-.24.3,2,2,0,0,0-.15.37l-.6-.23a3.06,3.06,0,0,1,.22-.49,1.61,1.61,0,0,1,.36-.42,1.58,1.58,0,0,1,.51-.29,1.93,1.93,0,0,1,.71-.11,2.13,2.13,0,0,1,.74.12,1.38,1.38,0,0,1,.87.85,1.76,1.76,0,0,1,.12.66,1.74,1.74,0,0,1-.1.61,2.2,2.2,0,0,1-.25.54,4.18,4.18,0,0,1-.39.49c-.15.16-.32.32-.5.48L21.5,34.09h3Z"/>
    <path d="M27.42,34.78a2,2,0,0,1-.79-.15A1.58,1.58,0,0,1,26,34.2a1.8,1.8,0,0,1-.38-.68,3.15,3.15,0,0,1-.13-.9,3.79,3.79,0,0,1,.19-1.18,4.71,4.71,0,0,1,1.13-1.81,4.33,4.33,0,0,1,.69-.57h.87c-.3.22-.57.44-.81.65a4.74,4.74,0,0,0-.62.65,4.22,4.22,0,0,0-.45.73,4.77,4.77,0,0,0-.3.88l0,0a1.82,1.82,0,0,1,.52-.58,1.44,1.44,0,0,1,.84-.23,1.76,1.76,0,0,1,.66.12,1.49,1.49,0,0,1,.53.35,1.6,1.6,0,0,1,.34.55,2,2,0,0,1,.12.71,2.06,2.06,0,0,1-.13.76,1.66,1.66,0,0,1-.38.59,1.71,1.71,0,0,1-.59.38A2.06,2.06,0,0,1,27.42,34.78Zm0-.6a1.17,1.17,0,0,0,.86-.3,1.18,1.18,0,0,0,.31-.88v-.07a1.08,1.08,0,0,0-1.17-1.18,1.08,1.08,0,0,0-1.18,1.18V33a1.22,1.22,0,0,0,.31.88A1.21,1.21,0,0,0,27.41,34.18Z"/>
  </g>
  <g>
    <path d="M51.68,32.58v-.69h2.1v.69Z"/>
    <path d="M55,34.68v-.59h1.57V29.56h0l-1.42,1.32-.39-.42,1.48-1.4h1.06v5h1.45v.59Z"/>
    <path d="M61.58,34.78a2.45,2.45,0,0,1-.85-.13,1.6,1.6,0,0,1-.6-.34,1.28,1.28,0,0,1-.37-.52,1.5,1.5,0,0,1-.13-.64,1.36,1.36,0,0,1,.31-.92,1.74,1.74,0,0,1,.83-.47v-.07a1.45,1.45,0,0,1-.71-.49,1.34,1.34,0,0,1-.26-.82,1.26,1.26,0,0,1,.47-1,2.45,2.45,0,0,1,2.62,0,1.26,1.26,0,0,1,.47,1,1.34,1.34,0,0,1-.26.82,1.45,1.45,0,0,1-.71.49v.07a1.71,1.71,0,0,1,.82.47,1.32,1.32,0,0,1,.32.92,1.66,1.66,0,0,1-.13.64,1.38,1.38,0,0,1-.37.52,1.64,1.64,0,0,1-.61.34A2.39,2.39,0,0,1,61.58,34.78Zm0-.6a1.45,1.45,0,0,0,.91-.26.9.9,0,0,0,.32-.74V33a.9.9,0,0,0-.32-.74,1.45,1.45,0,0,0-.91-.26,1.43,1.43,0,0,0-.91.26.88.88,0,0,0-.32.74v.17a.88.88,0,0,0,.32.74A1.43,1.43,0,0,0,61.58,34.18Zm0-2.73a1.23,1.23,0,0,0,.8-.23.79.79,0,0,0,.28-.66v-.12a.78.78,0,0,0-.28-.65,1.23,1.23,0,0,0-.8-.23,1.26,1.26,0,0,0-.81.23.8.8,0,0,0-.27.65v.12a.81.81,0,0,0,.27.66A1.26,1.26,0,0,0,61.58,31.45Z"/>
  </g>
  <g>
    <path d="M88.26,32.58v-.69h2.1v.69Z"/>
    <path d="M93.33,34.78a2.39,2.39,0,0,1-.84-.13,1.57,1.57,0,0,1-.61-.34,1.28,1.28,0,0,1-.37-.52,1.5,1.5,0,0,1-.13-.64,1.32,1.32,0,0,1,.32-.92,1.71,1.71,0,0,1,.82-.47v-.07a1.45,1.45,0,0,1-.71-.49,1.34,1.34,0,0,1-.26-.82,1.26,1.26,0,0,1,.47-1,2.45,2.45,0,0,1,2.62,0,1.26,1.26,0,0,1,.47,1,1.34,1.34,0,0,1-.26.82,1.45,1.45,0,0,1-.71.49v.07a1.71,1.71,0,0,1,.82.47,1.32,1.32,0,0,1,.32.92,1.5,1.5,0,0,1-.13.64,1.28,1.28,0,0,1-.37.52,1.6,1.6,0,0,1-.6.34A2.49,2.49,0,0,1,93.33,34.78Zm0-.6a1.43,1.43,0,0,0,.91-.26.9.9,0,0,0,.32-.74V33a.9.9,0,0,0-.32-.74,1.43,1.43,0,0,0-.91-.26,1.45,1.45,0,0,0-.91.26.9.9,0,0,0-.32.74v.17a.9.9,0,0,0,.32.74A1.45,1.45,0,0,0,93.33,34.18Zm0-2.73a1.28,1.28,0,0,0,.81-.23.81.81,0,0,0,.27-.66v-.12a.8.8,0,0,0-.27-.65,1.28,1.28,0,0,0-.81-.23,1.23,1.23,0,0,0-.8.23.78.78,0,0,0-.28.65v.12a.79.79,0,0,0,.28.66A1.23,1.23,0,0,0,93.33,31.45Z"/>
  </g>
  <path d="M126,34.78a1.57,1.57,0,0,1-1.46-.77,4.12,4.12,0,0,1-.47-2.14,4.12,4.12,0,0,1,.47-2.14,1.79,1.79,0,0,1,2.93,0,4.12,4.12,0,0,1,.47,2.14,4.12,4.12,0,0,1-.47,2.14A1.58,1.58,0,0,1,126,34.78Zm0-.6a1,1,0,0,0,.57-.14,1.06,1.06,0,0,0,.38-.38,2.19,2.19,0,0,0,.21-.58,3.54,3.54,0,0,0,.07-.75v-.91a3.42,3.42,0,0,0-.07-.75,2.27,2.27,0,0,0-.21-.59,1.15,1.15,0,0,0-.38-.38,1.12,1.12,0,0,0-.57-.14,1.13,1.13,0,0,0-.56.14,1.15,1.15,0,0,0-.38.38,2.27,2.27,0,0,0-.21.59,3.42,3.42,0,0,0-.07.75v.91a3.54,3.54,0,0,0,.07.75,2.19,2.19,0,0,0,.21.58,1.06,1.06,0,0,0,.38.38A1,1,0,0,0,126,34.18Z"/>
  <path d="M160.1,34.78a2.39,2.39,0,0,1-.84-.13,1.64,1.64,0,0,1-.61-.34,1.38,1.38,0,0,1-.37-.52,1.66,1.66,0,0,1-.12-.64,1.31,1.31,0,0,1,.31-.92,1.71,1.71,0,0,1,.82-.47v-.07a1.42,1.42,0,0,1-.7-.49,1.28,1.28,0,0,1-.27-.82,1.26,1.26,0,0,1,.47-1,2.45,2.45,0,0,1,2.62,0,1.24,1.24,0,0,1,.47,1,1.34,1.34,0,0,1-.26.82,1.42,1.42,0,0,1-.7.49v.07a1.76,1.76,0,0,1,.82.47,1.31,1.31,0,0,1,.31.92,1.66,1.66,0,0,1-.12.64,1.5,1.5,0,0,1-.37.52,1.72,1.72,0,0,1-.61.34A2.45,2.45,0,0,1,160.1,34.78Zm0-.6a1.43,1.43,0,0,0,.91-.26.88.88,0,0,0,.32-.74V33a.88.88,0,0,0-.32-.74,1.43,1.43,0,0,0-.91-.26,1.45,1.45,0,0,0-.91.26.9.9,0,0,0-.32.74v.17a.9.9,0,0,0,.32.74A1.45,1.45,0,0,0,160.1,34.18Zm0-2.73a1.24,1.24,0,0,0,.81-.23.81.81,0,0,0,.27-.66v-.12a.8.8,0,0,0-.27-.65,1.52,1.52,0,0,0-1.61,0,.81.81,0,0,0-.28.65v.12a.82.82,0,0,0,.28.66A1.23,1.23,0,0,0,160.1,31.45Z"/>
  <g>
    <path d="M87.39,42.93v5.44h-.73V42.93H84.72v-.65h4.61v.65Z"/>
    <path d="M91.39,48.47a2.06,2.06,0,0,1-.84-.16,1.74,1.74,0,0,1-.63-.48,2,2,0,0,1-.41-.74,3,3,0,0,1-.15-1,3,3,0,0,1,.15-1,2,2,0,0,1,.41-.74,1.74,1.74,0,0,1,.63-.48,2.06,2.06,0,0,1,.84-.16,1.92,1.92,0,0,1,.81.16,1.73,1.73,0,0,1,.61.46,1.78,1.78,0,0,1,.38.69,2.46,2.46,0,0,1,.14.88v.33H90.1v.2a1.53,1.53,0,0,0,.09.54,1.24,1.24,0,0,0,.26.43,1.17,1.17,0,0,0,.42.29,1.4,1.4,0,0,0,.56.1,1.36,1.36,0,0,0,.75-.2,1.31,1.31,0,0,0,.49-.57l.49.36a1.69,1.69,0,0,1-.68.75A2,2,0,0,1,91.39,48.47Zm0-4.12a1.29,1.29,0,0,0-.53.1,1.26,1.26,0,0,0-.4.28,1.36,1.36,0,0,0-.27.43,1.53,1.53,0,0,0-.09.54v.06h2.48v-.09a1.37,1.37,0,0,0-.33-1A1.09,1.09,0,0,0,91.39,44.35Z"/>
    <path d="M94.48,48.37v-4.5h.7v.72h0a3.3,3.3,0,0,1,.18-.32,1,1,0,0,1,.25-.26.88.88,0,0,1,.33-.18,1.56,1.56,0,0,1,.46-.06,1.63,1.63,0,0,1,.81.21,1.27,1.27,0,0,1,.56.69h0a1.32,1.32,0,0,1,.46-.63,1.41,1.41,0,0,1,.91-.27,1.38,1.38,0,0,1,1.08.44,1.94,1.94,0,0,1,.38,1.27v2.89H100V45.6a1.45,1.45,0,0,0-.24-.91.91.91,0,0,0-.75-.31,1.34,1.34,0,0,0-.4.06,1,1,0,0,0-.33.15.73.73,0,0,0-.32.65v3.13h-.7V45.6a1.45,1.45,0,0,0-.24-.91.87.87,0,0,0-.73-.31,1.34,1.34,0,0,0-.4.06,1,1,0,0,0-.34.15.78.78,0,0,0-.24.27.79.79,0,0,0-.09.38v3.13Z"/>
    <path d="M102.09,43.87h.7v.72h0a1.27,1.27,0,0,1,.51-.62,1.52,1.52,0,0,1,.81-.2,1.73,1.73,0,0,1,.76.16,1.65,1.65,0,0,1,.58.47,2.33,2.33,0,0,1,.37.74,4.06,4.06,0,0,1,0,2,2.33,2.33,0,0,1-.37.74,1.65,1.65,0,0,1-.58.47,1.73,1.73,0,0,1-.76.16,1.37,1.37,0,0,1-1.32-.82h0v2.46h-.7Zm1.86,4a1.18,1.18,0,0,0,.93-.37,1.38,1.38,0,0,0,.34-1v-.77a1.35,1.35,0,0,0-.34-1,1.19,1.19,0,0,0-.93-.38,1.63,1.63,0,0,0-.45.07,1.06,1.06,0,0,0-.37.18.83.83,0,0,0-.25.28.67.67,0,0,0-.09.34v1.68a.8.8,0,0,0,.09.39.71.71,0,0,0,.25.29,1.06,1.06,0,0,0,.37.18A1.63,1.63,0,0,0,104,47.85Z"/>
    <path d="M108.84,48.47a2,2,0,0,1-.83-.16,1.77,1.77,0,0,1-.64-.48,2.12,2.12,0,0,1-.41-.74,3.24,3.24,0,0,1-.14-1,3.29,3.29,0,0,1,.14-1,2.12,2.12,0,0,1,.41-.74,1.77,1.77,0,0,1,.64-.48,2,2,0,0,1,.83-.16,1.92,1.92,0,0,1,.81.16,1.73,1.73,0,0,1,.61.46,1.94,1.94,0,0,1,.39.69,2.71,2.71,0,0,1,.13.88v.33h-3.23v.2a1.53,1.53,0,0,0,.09.54,1.24,1.24,0,0,0,.26.43,1.37,1.37,0,0,0,.42.29,1.43,1.43,0,0,0,.56.1,1.32,1.32,0,0,0,.75-.2,1.25,1.25,0,0,0,.49-.57l.5.36a1.75,1.75,0,0,1-.68.75A2.07,2.07,0,0,1,108.84,48.47Zm0-4.12a1.24,1.24,0,0,0-.52.1,1.2,1.2,0,0,0-.41.28,1.47,1.47,0,0,0-.36,1v.06H110v-.09a1.36,1.36,0,0,0-.32-1A1.12,1.12,0,0,0,108.84,44.35Z"/>
    <path d="M111.94,48.37v-4.5h.69v.83h.05a1.32,1.32,0,0,1,.43-.58,1.35,1.35,0,0,1,.87-.25h.27v.7h-.41a1.6,1.6,0,0,0-.89.21.63.63,0,0,0-.32.54v3Z"/>
    <path d="M118.37,48.37a.68.68,0,0,1-.56-.21,1,1,0,0,1-.22-.52h0a1.1,1.1,0,0,1-.49.62,1.53,1.53,0,0,1-.81.21,1.58,1.58,0,0,1-1.11-.36,1.29,1.29,0,0,1-.4-1,1.13,1.13,0,0,1,.47-1,2.44,2.44,0,0,1,1.45-.34h.89v-.45a1,1,0,0,0-.26-.73,1.12,1.12,0,0,0-.81-.25,1.21,1.21,0,0,0-.68.18,1.67,1.67,0,0,0-.46.49l-.42-.39a1.61,1.61,0,0,1,.59-.63,1.85,1.85,0,0,1,1-.25,1.83,1.83,0,0,1,1.27.4,1.36,1.36,0,0,1,.46,1.11v2.47h.51v.62Zm-2-.49a1.75,1.75,0,0,0,.48-.06,1.33,1.33,0,0,0,.38-.17,1,1,0,0,0,.24-.27.57.57,0,0,0,.09-.32v-.74h-.93a1.73,1.73,0,0,0-.87.17.59.59,0,0,0-.28.51v.18a.62.62,0,0,0,.24.52A1.07,1.07,0,0,0,116.36,47.88Z"/>
    <path d="M120.75,48.37a.73.73,0,0,1-.55-.2.76.76,0,0,1-.19-.54V44.49h-.74v-.62h.42a.38.38,0,0,0,.3-.09.45.45,0,0,0,.09-.32v-.84h.63v1.25h1v.62h-1v3.26h.91v.62Z"/>
    <path d="M125.59,47.65h0a1.52,1.52,0,0,1-.17.3,1.22,1.22,0,0,1-.24.27,1,1,0,0,1-.36.18,1.45,1.45,0,0,1-.49.07,1.43,1.43,0,0,1-1.11-.45,1.8,1.8,0,0,1-.41-1.26V43.87h.7v2.77c0,.81.34,1.21,1,1.21a1.33,1.33,0,0,0,.4-.05,1.23,1.23,0,0,0,.35-.15.75.75,0,0,0,.34-.66V43.87h.7v4.5h-.7Z"/>
    <path d="M127.77,48.37v-4.5h.7v.83h0a1.4,1.4,0,0,1,.43-.58,1.35,1.35,0,0,1,.87-.25h.27v.7h-.41a1.63,1.63,0,0,0-.89.21.62.62,0,0,0-.31.54v3Z"/>
    <path d="M134.2,48.37a.68.68,0,0,1-.56-.21,1,1,0,0,1-.21-.52h-.05a1.1,1.1,0,0,1-.49.62,1.48,1.48,0,0,1-.81.21,1.61,1.61,0,0,1-1.11-.36,1.32,1.32,0,0,1-.4-1,1.13,1.13,0,0,1,.47-1,2.46,2.46,0,0,1,1.45-.34h.89v-.45a1,1,0,0,0-.26-.73,1.1,1.1,0,0,0-.8-.25,1.27,1.27,0,0,0-.69.18,1.52,1.52,0,0,0-.45.49l-.42-.39a1.51,1.51,0,0,1,.58-.63,2.21,2.21,0,0,1,2.29.15,1.39,1.39,0,0,1,.45,1.11v2.47h.51v.62Zm-2-.49a1.86,1.86,0,0,0,.48-.06,1.26,1.26,0,0,0,.37-.17.76.76,0,0,0,.24-.27.57.57,0,0,0,.09-.32v-.74h-.92a1.8,1.8,0,0,0-.88.17.58.58,0,0,0-.27.51v.18a.62.62,0,0,0,.24.52A1,1,0,0,0,132.2,47.88Z"/>
    <path d="M140.52,47.65h0a1.37,1.37,0,0,1-1.32.82,1.73,1.73,0,0,1-.76-.16,1.74,1.74,0,0,1-.58-.47,2.13,2.13,0,0,1-.36-.74,3.76,3.76,0,0,1,0-2,2.13,2.13,0,0,1,.36-.74,1.74,1.74,0,0,1,.58-.47,1.73,1.73,0,0,1,.76-.16,1.5,1.5,0,0,1,.81.2,1.27,1.27,0,0,1,.51.62h0V41.92h.7v6.45h-.7Zm-1.16.2a1.63,1.63,0,0,0,.45-.06,1.06,1.06,0,0,0,.37-.18.71.71,0,0,0,.25-.29.8.8,0,0,0,.09-.39V45.25a.67.67,0,0,0-.09-.34.83.83,0,0,0-.25-.28,1.06,1.06,0,0,0-.37-.18,1.63,1.63,0,0,0-.45-.07,1.21,1.21,0,0,0-.93.38,1.35,1.35,0,0,0-.34,1v.77a1.38,1.38,0,0,0,.34,1A1.2,1.2,0,0,0,139.36,47.85Z"/>
    <path d="M144.4,48.47a2,2,0,0,1-.83-.16,1.77,1.77,0,0,1-.64-.48,2.29,2.29,0,0,1-.41-.74,3,3,0,0,1-.15-1,3,3,0,0,1,.15-1,2.29,2.29,0,0,1,.41-.74,1.77,1.77,0,0,1,.64-.48,2.23,2.23,0,0,1,1.66,0,1.86,1.86,0,0,1,.64.48,2.14,2.14,0,0,1,.42.74,3.29,3.29,0,0,1,.14,1,3.24,3.24,0,0,1-.14,1,2.14,2.14,0,0,1-.42.74,1.86,1.86,0,0,1-.64.48A2,2,0,0,1,144.4,48.47Zm0-.62a1.29,1.29,0,0,0,.93-.34,1.44,1.44,0,0,0,.35-1.07V45.8a1.44,1.44,0,0,0-.35-1.07,1.29,1.29,0,0,0-.93-.35,1.27,1.27,0,0,0-.92.35,1.44,1.44,0,0,0-.36,1.07v.64a1.44,1.44,0,0,0,.36,1.07A1.26,1.26,0,0,0,144.4,47.85Z"/>
    <path d="M153.52,48.37l-.61-1.8h-2.46l-.61,1.8h-.74l2.13-6.09h.93l2.13,6.09ZM151.7,43h0l-1,3h2.1Z"/>
    <path d="M155.23,48.37v-4.5h.7v.83h0a1.29,1.29,0,0,1,1.3-.83h.27v.7h-.41a1.57,1.57,0,0,0-.88.21.63.63,0,0,0-.32.54v3Z"/>
    <path d="M162.18,48.47a2,2,0,0,1-.83-.16,1.77,1.77,0,0,1-.64-.48,2.12,2.12,0,0,1-.41-.74,3.24,3.24,0,0,1-.14-1,3.29,3.29,0,0,1,.14-1,2.12,2.12,0,0,1,.41-.74,1.77,1.77,0,0,1,.64-.48,2,2,0,0,1,.83-.16,1.92,1.92,0,0,1,.81.16,1.73,1.73,0,0,1,.61.46,1.94,1.94,0,0,1,.39.69,2.71,2.71,0,0,1,.13.88v.33h-3.23v.2A1.53,1.53,0,0,0,161,47a1.24,1.24,0,0,0,.26.43,1.37,1.37,0,0,0,.42.29,1.43,1.43,0,0,0,.56.1,1.32,1.32,0,0,0,.75-.2,1.25,1.25,0,0,0,.49-.57l.5.36a1.75,1.75,0,0,1-.68.75A2.07,2.07,0,0,1,162.18,48.47Zm0-4.12a1.24,1.24,0,0,0-.52.1,1.2,1.2,0,0,0-.41.28,1.47,1.47,0,0,0-.36,1v.06h2.48v-.09a1.36,1.36,0,0,0-.32-1A1.12,1.12,0,0,0,162.18,44.35Z"/>
    <path d="M165.27,48.37v-4.5h.7v.72h0a2,2,0,0,1,.18-.32.85.85,0,0,1,.24-.26,1,1,0,0,1,.34-.18,1.44,1.44,0,0,1,.45-.06A1.64,1.64,0,0,1,168,44a1.31,1.31,0,0,1,.56.69h0a1.47,1.47,0,0,1,.46-.63,1.43,1.43,0,0,1,.91-.27,1.38,1.38,0,0,1,1.08.44,1.89,1.89,0,0,1,.39,1.27v2.89h-.7V45.6a1.52,1.52,0,0,0-.23-.91.91.91,0,0,0-.75-.31,1.29,1.29,0,0,0-.4.06,1,1,0,0,0-.34.15.75.75,0,0,0-.23.27.79.79,0,0,0-.09.38v3.13H168V45.6a1.52,1.52,0,0,0-.23-.91.89.89,0,0,0-.74-.31,1.34,1.34,0,0,0-.4.06,1,1,0,0,0-.34.15.78.78,0,0,0-.24.27.79.79,0,0,0-.09.38v3.13Z"/>
    <path d="M178.85,48.37h-4v-.75l2-1.83a4,4,0,0,0,.72-.84,1.62,1.62,0,0,0,.29-.88V44a1.21,1.21,0,0,0-.28-.82,1.09,1.09,0,0,0-.85-.32,1.48,1.48,0,0,0-.49.08,1.28,1.28,0,0,0-.36.22,1.2,1.2,0,0,0-.25.33,1.76,1.76,0,0,0-.16.4l-.66-.25a2.79,2.79,0,0,1,.24-.53,1.86,1.86,0,0,1,.39-.45,1.79,1.79,0,0,1,.56-.32,2.5,2.5,0,0,1,1.56,0,1.69,1.69,0,0,1,.59.37,1.75,1.75,0,0,1,.36.55,2.09,2.09,0,0,1,.12.72,2,2,0,0,1-.1.66,2.55,2.55,0,0,1-.27.58,4.06,4.06,0,0,1-.42.53c-.17.18-.35.35-.54.53l-1.64,1.47h3.2Z"/>
    <path d="M182.23,48.37v-4.5h.7v.72h0a3.24,3.24,0,0,1,.17-.32,1,1,0,0,1,.25-.26,1,1,0,0,1,.33-.18,1.56,1.56,0,0,1,.46-.06A1.67,1.67,0,0,1,185,44a1.25,1.25,0,0,1,.55.69h0A1.39,1.39,0,0,1,186,44a1.41,1.41,0,0,1,.91-.27,1.38,1.38,0,0,1,1.08.44,1.89,1.89,0,0,1,.39,1.27v2.89h-.7V45.6a1.45,1.45,0,0,0-.24-.91.88.88,0,0,0-.75-.31,1.23,1.23,0,0,0-.39.06,1,1,0,0,0-.34.15.67.67,0,0,0-.23.27.79.79,0,0,0-.09.38v3.13H185V45.6a1.45,1.45,0,0,0-.24-.91.87.87,0,0,0-.73-.31,1.34,1.34,0,0,0-.4.06,1,1,0,0,0-.34.15.78.78,0,0,0-.24.27.79.79,0,0,0-.09.38v3.13Z"/>
    <path d="M191.54,48.47a2.06,2.06,0,0,1-.84-.16,1.74,1.74,0,0,1-.63-.48,2,2,0,0,1-.41-.74,3,3,0,0,1-.15-1,3,3,0,0,1,.15-1,2,2,0,0,1,.41-.74,1.74,1.74,0,0,1,.63-.48,2.06,2.06,0,0,1,.84-.16,1.92,1.92,0,0,1,.81.16,1.82,1.82,0,0,1,.61.46,1.92,1.92,0,0,1,.38.69,2.46,2.46,0,0,1,.14.88v.33h-3.23v.2a1.53,1.53,0,0,0,.09.54,1.1,1.1,0,0,0,.26.43,1.17,1.17,0,0,0,.42.29,1.4,1.4,0,0,0,.56.1,1.3,1.3,0,0,0,.74-.2,1.27,1.27,0,0,0,.5-.57l.49.36a1.69,1.69,0,0,1-.68.75A2,2,0,0,1,191.54,48.47Zm0-4.12a1.29,1.29,0,0,0-.53.1,1.26,1.26,0,0,0-.4.28,1.21,1.21,0,0,0-.27.43,1.53,1.53,0,0,0-.09.54v.06h2.48v-.09a1.37,1.37,0,0,0-.33-1A1.09,1.09,0,0,0,191.54,44.35Z"/>
    <path d="M195.62,48.37a.74.74,0,0,1-.55-.2.81.81,0,0,1-.19-.54V44.49h-.74v-.62h.42a.41.41,0,0,0,.31-.09.46.46,0,0,0,.08-.32v-.84h.63v1.25h1v.62h-1v3.26h.92v.62Z"/>
    <path d="M197.69,48.37v-4.5h.7v.83h0a1.34,1.34,0,0,1,.44-.58,1.32,1.32,0,0,1,.86-.25H200v.7h-.41a1.57,1.57,0,0,0-.88.21.61.61,0,0,0-.32.54v3Z"/>
    <path d="M202.55,48.47a2,2,0,0,1-.83-.16,1.77,1.77,0,0,1-.64-.48,2.14,2.14,0,0,1-.42-.74,3.24,3.24,0,0,1-.14-1,3.29,3.29,0,0,1,.14-1,2.14,2.14,0,0,1,.42-.74,1.77,1.77,0,0,1,.64-.48,2.21,2.21,0,0,1,1.65,0,1.77,1.77,0,0,1,.64.48,2.14,2.14,0,0,1,.42.74,3,3,0,0,1,.15,1,3,3,0,0,1-.15,1,2.14,2.14,0,0,1-.42.74,1.77,1.77,0,0,1-.64.48A2,2,0,0,1,202.55,48.47Zm0-.62a1.26,1.26,0,0,0,.92-.34,1.44,1.44,0,0,0,.36-1.07V45.8a1.44,1.44,0,0,0-.36-1.07,1.27,1.27,0,0,0-.92-.35,1.29,1.29,0,0,0-.93.35,1.44,1.44,0,0,0-.35,1.07v.64a1.44,1.44,0,0,0,.35,1.07A1.29,1.29,0,0,0,202.55,47.85Z"/>
    <path d="M207.08,48.47a2.09,2.09,0,0,1-1.05-.24,2.46,2.46,0,0,1-.73-.64l.5-.4a2,2,0,0,0,.58.51,1.54,1.54,0,0,0,.75.18,1.12,1.12,0,0,0,.7-.19.67.67,0,0,0,.25-.54.61.61,0,0,0-.18-.45,1,1,0,0,0-.61-.26l-.36,0a2.38,2.38,0,0,1-.57-.14,1.54,1.54,0,0,1-.46-.24,1.15,1.15,0,0,1-.31-.38,1.27,1.27,0,0,1-.1-.54,1.34,1.34,0,0,1,.12-.58,1.2,1.2,0,0,1,.33-.41,1.52,1.52,0,0,1,.51-.25,2.2,2.2,0,0,1,.64-.08A2,2,0,0,1,208,44a2.05,2.05,0,0,1,.65.53l-.46.42a1.39,1.39,0,0,0-.44-.38,1.42,1.42,0,0,0-.72-.17,1,1,0,0,0-.66.19.61.61,0,0,0-.22.51.53.53,0,0,0,.22.48,1.71,1.71,0,0,0,.64.21l.35.06a1.84,1.84,0,0,1,1.06.43,1.13,1.13,0,0,1,.32.83,1.26,1.26,0,0,1-.45,1A1.82,1.82,0,0,1,207.08,48.47Z"/>
    <path d="M212,45.65a6,6,0,0,1,.45-2.3,5,5,0,0,1,.51-.91,3.83,3.83,0,0,1,.61-.7h.67a3.94,3.94,0,0,0-.66.75,5.2,5.2,0,0,0-.5.89,7.2,7.2,0,0,0-.32,1,4.53,4.53,0,0,0-.11.94V46a4.47,4.47,0,0,0,.11.95,5.44,5.44,0,0,0,.33,1,4.84,4.84,0,0,0,.5.89,3.81,3.81,0,0,0,.65.73h-.67a3.75,3.75,0,0,1-.61-.68,4.65,4.65,0,0,1-.5-.91,6.75,6.75,0,0,1-.34-1.1A6.08,6.08,0,0,1,212,45.65Z"/>
    <path d="M216,45.37a1.27,1.27,0,0,1-1-.41,1.78,1.78,0,0,1-.35-1.16,1.74,1.74,0,0,1,.35-1.15,1.39,1.39,0,0,1,2,0,1.69,1.69,0,0,1,.36,1.15,1.73,1.73,0,0,1-.36,1.16A1.26,1.26,0,0,1,216,45.37Zm0-.45a.69.69,0,0,0,.57-.24,1,1,0,0,0,.19-.61v-.54a1,1,0,0,0-.19-.61.69.69,0,0,0-.57-.24.67.67,0,0,0-.57.24.93.93,0,0,0-.19.61v.54a.93.93,0,0,0,.19.61A.67.67,0,0,0,216,44.92Z"/>
    <path d="M220.64,48.47a2.2,2.2,0,0,1-1.81-.79,3.59,3.59,0,0,1-.64-2.32,3.77,3.77,0,0,1,.64-2.36,2.17,2.17,0,0,1,1.81-.82,2.13,2.13,0,0,1,2.09,1.32l-.59.36a1.69,1.69,0,0,0-.56-.75,1.5,1.5,0,0,0-.94-.29,1.57,1.57,0,0,0-.7.15,1.46,1.46,0,0,0-.53.43,1.88,1.88,0,0,0-.32.65,2.88,2.88,0,0,0-.12.86v.91a2.24,2.24,0,0,0,.44,1.47,1.49,1.49,0,0,0,1.23.54,1.59,1.59,0,0,0,1-.3,1.73,1.73,0,0,0,.57-.8l.58.37a2.34,2.34,0,0,1-.82,1A2.32,2.32,0,0,1,220.64,48.47Z"/>
    <path d="M225.29,45.65a6.08,6.08,0,0,1-.12,1.22,6.75,6.75,0,0,1-.34,1.1,4.65,4.65,0,0,1-.5.91,3.75,3.75,0,0,1-.61.68h-.67a3.81,3.81,0,0,0,.65-.73,4.32,4.32,0,0,0,.5-.89,5.44,5.44,0,0,0,.33-1,4.47,4.47,0,0,0,.11-.95v-.75a4.53,4.53,0,0,0-.11-.94,6,6,0,0,0-.32-1,5.2,5.2,0,0,0-.5-.89,3.94,3.94,0,0,0-.66-.75h.67a4.29,4.29,0,0,1,.62.7,5.63,5.63,0,0,1,.5.91,6,6,0,0,1,.45,2.3Z"/>
  </g>
  <g>
    <path d="M190.21,34.68v-.59h1.57V29.56h-.05l-1.42,1.32-.39-.42,1.48-1.4h1.06v5h1.45v.59Z"/>
    <path d="M196.76,34.78a2,2,0,0,1-.79-.15,1.58,1.58,0,0,1-.59-.43,1.8,1.8,0,0,1-.38-.68,3.15,3.15,0,0,1-.13-.9,3.52,3.52,0,0,1,.19-1.18,4,4,0,0,1,.48-1,4.4,4.4,0,0,1,.64-.81,4.87,4.87,0,0,1,.7-.57h.87c-.3.22-.57.44-.81.65a4.74,4.74,0,0,0-.62.65,3.68,3.68,0,0,0-.45.73,4.77,4.77,0,0,0-.3.88l0,0a1.82,1.82,0,0,1,.52-.58,1.42,1.42,0,0,1,.84-.23,1.76,1.76,0,0,1,.66.12,1.49,1.49,0,0,1,.53.35,1.6,1.6,0,0,1,.34.55,2,2,0,0,1,.12.71,2.06,2.06,0,0,1-.13.76,1.66,1.66,0,0,1-.38.59,1.71,1.71,0,0,1-.59.38A2.06,2.06,0,0,1,196.76,34.78Zm0-.6a1.17,1.17,0,0,0,.86-.3,1.18,1.18,0,0,0,.31-.88v-.07a1.08,1.08,0,0,0-1.17-1.18,1.08,1.08,0,0,0-1.18,1.18V33a1.22,1.22,0,0,0,.31.88A1.21,1.21,0,0,0,196.75,34.18Z"/>
  </g>
  <g>
    <path d="M228.08,34.68h-3.69V34l1.84-1.69a4.28,4.28,0,0,0,.66-.77,1.55,1.55,0,0,0,.26-.82v-.1a1.12,1.12,0,0,0-.25-.76,1,1,0,0,0-.78-.29,1.53,1.53,0,0,0-.46.07.93.93,0,0,0-.33.21,1,1,0,0,0-.23.3,1.51,1.51,0,0,0-.15.37l-.61-.23a2.42,2.42,0,0,1,.23-.49,1.59,1.59,0,0,1,.86-.71,2,2,0,0,1,.72-.11,2.11,2.11,0,0,1,.73.12,1.38,1.38,0,0,1,.87.85,1.76,1.76,0,0,1,.12.66,2,2,0,0,1-.09.61,2.69,2.69,0,0,1-.26.54,2.79,2.79,0,0,1-.39.49c-.15.16-.31.32-.49.48l-1.52,1.37h3Z"/>
    <path d="M230.72,31.43a1.26,1.26,0,0,0,.86-.26.86.86,0,0,0,.28-.67v-.06a.79.79,0,0,0-.28-.66,1.14,1.14,0,0,0-.72-.22,1.27,1.27,0,0,0-.71.19,1.39,1.39,0,0,0-.45.51l-.5-.38a2,2,0,0,1,.25-.34,1.67,1.67,0,0,1,.82-.49,1.9,1.9,0,0,1,.6-.08,2.41,2.41,0,0,1,.67.09,1.52,1.52,0,0,1,.54.27,1.24,1.24,0,0,1,.37.45,1.4,1.4,0,0,1,.13.6,1.3,1.3,0,0,1-.09.49,1.1,1.1,0,0,1-.23.37,1.13,1.13,0,0,1-.34.27,1.54,1.54,0,0,1-.42.17v0a2.32,2.32,0,0,1,.44.16,1.33,1.33,0,0,1,.38.29,1.25,1.25,0,0,1,.26.42,1.4,1.4,0,0,1,.1.56,1.59,1.59,0,0,1-.13.66,1.46,1.46,0,0,1-.39.52,2,2,0,0,1-.6.34,2.45,2.45,0,0,1-.78.12,2.51,2.51,0,0,1-.65-.08,2,2,0,0,1-.88-.52,2.34,2.34,0,0,1-.29-.35l.5-.39a2.49,2.49,0,0,0,.23.31A1.49,1.49,0,0,0,230,34a1.6,1.6,0,0,0,.35.15,2,2,0,0,0,.45,0,1.34,1.34,0,0,0,.9-.27,1,1,0,0,0,.3-.77v-.07a1,1,0,0,0-.3-.77,1.35,1.35,0,0,0-.9-.28h-.66v-.59Z"/>
  </g>
  <g>
    <path d="M262.24,34.23h-3.69v-.69l1.83-1.69a3.61,3.61,0,0,0,.66-.77,1.48,1.48,0,0,0,.27-.82v-.1a1.13,1.13,0,0,0-.26-.76,1,1,0,0,0-.78-.29,1.25,1.25,0,0,0-.45.08.79.79,0,0,0-.33.2.89.89,0,0,0-.24.3,2,2,0,0,0-.15.37l-.6-.23a2.38,2.38,0,0,1,.22-.49,1.78,1.78,0,0,1,.36-.42,1.58,1.58,0,0,1,.51-.29,2.16,2.16,0,0,1,.71-.11,2.13,2.13,0,0,1,.74.12,1.44,1.44,0,0,1,.87.85,1.76,1.76,0,0,1,.12.66,1.74,1.74,0,0,1-.1.61,2.2,2.2,0,0,1-.25.54,3.49,3.49,0,0,1-.39.49c-.15.16-.32.32-.5.48l-1.51,1.37h3Z"/>
    <path d="M264.18,34.23l2.15-5h-2.4v1h-.6V28.62H267v.59l-2.11,5Z"/>
  </g>
  <path d="M171.38,23h-5.47a2,2,0,0,1-2.11-2V10.12a2,2,0,0,1,2.11-2h5.47a2,2,0,0,1,2.11,2V21.06A2,2,0,0,1,171.38,23Z" style="fill: #7eb9e9"/>
  <path d="M51.79,23H46.33a2,2,0,0,1-2.11-2V10.12a2,2,0,0,1,2.11-2h5.46a2,2,0,0,1,2.11,2V21.06A2,2,0,0,1,51.79,23Z" style="fill: indigo"/>
  <path d="M34.71,23H29.24a2,2,0,0,1-2.1-2V10.12a2,2,0,0,1,2.1-2h5.47a2,2,0,0,1,2.11,2V21.06A2,2,0,0,1,34.71,23Z" style="fill: #6f38af"/>
  <path d="M68.88,23H63.41a2,2,0,0,1-2.11-2V10.12a2,2,0,0,1,2.11-2h5.47a2,2,0,0,1,2.11,2V21.06A2,2,0,0,1,68.88,23Z" style="fill: #3d068f"/>
  <path d="M86,23H80.49a2,2,0,0,1-2.1-2V10.12a2,2,0,0,1,2.1-2H86a2,2,0,0,1,2.11,2V21.06A2,2,0,0,1,86,23Z" style="fill: #1316b4"/>
  <path d="M103,23H97.58a2,2,0,0,1-2.11-2V10.12a2,2,0,0,1,2.11-2H103a2,2,0,0,1,2.11,2V21.06A2,2,0,0,1,103,23Z" style="fill: #2331c7"/>
  <path d="M120.13,23h-5.47a2,2,0,0,1-2.11-2V10.12a2,2,0,0,1,2.11-2h5.47a2,2,0,0,1,2.11,2V21.06A2,2,0,0,1,120.13,23Z" style="fill: #365fc6"/>
  <path d="M137.21,23h-5.47a2,2,0,0,1-2.1-2V10.12a2,2,0,0,1,2.1-2h5.47a2,2,0,0,1,2.11,2V21.06A2,2,0,0,1,137.21,23Z" style="fill: #466fcf"/>
  <path d="M154.29,23h-5.46a2,2,0,0,1-2.11-2V10.12a2,2,0,0,1,2.11-2h5.46a2,2,0,0,1,2.11,2V21.06A2,2,0,0,1,154.29,23Z" style="fill: #629bd9"/>
  <path d="M188.46,23H183a2,2,0,0,1-2.1-2V10.12a2,2,0,0,1,2.1-2h5.47a2,2,0,0,1,2.11,2V21.06A2,2,0,0,1,188.46,23Z" style="fill: #b4dfa8"/>
  <path d="M205.54,23h-5.46a2,2,0,0,1-2.11-2V10.12a2,2,0,0,1,2.11-2h5.46a2,2,0,0,1,2.11,2V21.06A2,2,0,0,1,205.54,23Z" style="fill: #b0d793"/>
  <path d="M222.63,23h-5.47a2,2,0,0,1-2.11-2V10.12a2,2,0,0,1,2.11-2h5.47a2,2,0,0,1,2.11,2V21.06A2,2,0,0,1,222.63,23Z" style="fill: #debd50"/>
  <path d="M239.79,23h-5.47a2,2,0,0,1-2.11-2V10.12a2,2,0,0,1,2.11-2h5.47a2,2,0,0,1,2.11,2V21.06A2,2,0,0,1,239.79,23Z" style="fill: #d9a449"/>
  <path d="M257,23h-5.47a2,2,0,0,1-2.11-2V10.12a2,2,0,0,1,2.11-2H257a2,2,0,0,1,2.11,2V21.06A2,2,0,0,1,257,23Z" style="fill: #cc7139"/>
  <path d="M274.11,23h-5.47a2,2,0,0,1-2.11-2V10.12a2,2,0,0,1,2.11-2h5.47a2,2,0,0,1,2.11,2V21.06A2,2,0,0,1,274.11,23Z" style="fill: #ca6232"/>
  <g>
    <path d="M294.41,30.87a1.26,1.26,0,0,0,.86-.26.87.87,0,0,0,.29-.67v-.06a.82.82,0,0,0-.28-.66,1.2,1.2,0,0,0-.73-.22,1.29,1.29,0,0,0-.71.19,1.59,1.59,0,0,0-.45.51l-.5-.38a2.56,2.56,0,0,1,.26-.34,2.08,2.08,0,0,1,.35-.29,2,2,0,0,1,1.07-.28,2.46,2.46,0,0,1,.67.09,1.71,1.71,0,0,1,.54.27,1.33,1.33,0,0,1,.36.45,1.26,1.26,0,0,1,.13.6,1.53,1.53,0,0,1-.08.49,1.16,1.16,0,0,1-.23.37,1.54,1.54,0,0,1-.34.28,1.59,1.59,0,0,1-.43.16v0a1.76,1.76,0,0,1,.44.15,1.37,1.37,0,0,1,.38.29,1.27,1.27,0,0,1,.27.42,1.6,1.6,0,0,1,.1.56,1.67,1.67,0,0,1-.14.67,1.39,1.39,0,0,1-.39.51,1.6,1.6,0,0,1-.6.34,2.6,2.6,0,0,1-1.42,0,1.76,1.76,0,0,1-.5-.22,1.68,1.68,0,0,1-.39-.3,3.17,3.17,0,0,1-.29-.35l.51-.39a1.47,1.47,0,0,0,.23.31,1,1,0,0,0,.28.23,1,1,0,0,0,.34.15,1.55,1.55,0,0,0,.45,0,1.31,1.31,0,0,0,.9-.27,1,1,0,0,0,.31-.77v-.07a1,1,0,0,0-.31-.77,1.31,1.31,0,0,0-.9-.27h-.66v-.6Z"/>
    <path d="M301.43,34.12h-3.68v-.69l1.83-1.69a4.28,4.28,0,0,0,.66-.77,1.48,1.48,0,0,0,.27-.82v-.1a1.13,1.13,0,0,0-.26-.76,1,1,0,0,0-.78-.29,1.25,1.25,0,0,0-.45.08.9.9,0,0,0-.34.2,1,1,0,0,0-.23.3,2,2,0,0,0-.15.37l-.6-.23a1.94,1.94,0,0,1,.22-.49,1.74,1.74,0,0,1,.35-.42,1.63,1.63,0,0,1,.52-.29,2.16,2.16,0,0,1,.71-.11,2.07,2.07,0,0,1,.73.12,1.35,1.35,0,0,1,.54.34,1.39,1.39,0,0,1,.34.51,2.07,2.07,0,0,1,0,1.27,2.65,2.65,0,0,1-.25.54,3.49,3.49,0,0,1-.39.49c-.16.16-.32.32-.5.48l-1.51,1.37h2.95Z"/>
  </g>
  <path d="M291.2,22.91h-5.47a2,2,0,0,1-2.11-2V10a2,2,0,0,1,2.11-2h5.47a2,2,0,0,1,2.1,2V21A2,2,0,0,1,291.2,22.91Z" style="fill: #8c2918"/>
  <path d="M308.28,22.91h-5.46a2,2,0,0,1-2.11-2V10a2,2,0,0,1,2.11-2h5.46a2,2,0,0,1,2.11,2V21A2,2,0,0,1,308.28,22.91Z" style="fill: #6e1c10"/>
  <path d="M17.63,23H12.16a2,2,0,0,1-2.11-2V10.12a2,2,0,0,1,2.11-2h5.47a2,2,0,0,1,2.11,2V21.06A2,2,0,0,1,17.63,23Z" style="fill: #7b4bbd"/>
</svg>
