<svg id="Camada_1" data-name="Camada 1" xmlns="http://www.w3.org/2000/svg" viewBox="0 0 338.21 57.45">
  <title>LEGENDAS_PÁGINA_CLIMA</title>
  <g style="opacity: 0.75">
    <path d="M0,6.38C0,2.86,3.36,0,7.52,0H330.7c4.15,0,7.51,2.86,7.51,6.38V51.07c0,3.52-3.36,6.38-7.51,6.38H7.52C3.36,57.45,0,54.59,0,51.07Z" style="fill: #fff"/>
  </g>
  <g>
    <path d="M101.11,48.7V42.62h2.42a1.64,1.64,0,0,1,1.26.47,1.78,1.78,0,0,1,.44,1.27,1.81,1.81,0,0,1-.44,1.28,1.64,1.64,0,0,1-1.26.47h-1.69V48.7Zm.73-3.24h1.69a1,1,0,0,0,.68-.22.87.87,0,0,0,.24-.65v-.45a.85.85,0,0,0-.24-.65,1,1,0,0,0-.68-.23h-1.69Z"/>
    <path d="M106.23,48.7V44.21h.7V45h0a1.35,1.35,0,0,1,.43-.57,1.33,1.33,0,0,1,.86-.25h.28v.69h-.41a1.52,1.52,0,0,0-.89.22.63.63,0,0,0-.32.53V48.7Z"/>
    <path d="M111.08,48.81a2,2,0,0,1-.83-.17,1.87,1.87,0,0,1-.64-.47,2.4,2.4,0,0,1-.41-.74,3.43,3.43,0,0,1,0-1.94,2.46,2.46,0,0,1,.41-.75,1.87,1.87,0,0,1,.64-.47,2,2,0,0,1,.83-.17,1.92,1.92,0,0,1,.81.17,1.83,1.83,0,0,1,.61.45,2.13,2.13,0,0,1,.39.69,2.75,2.75,0,0,1,.14.88v.33h-3.24v.21a1.61,1.61,0,0,0,.09.54,1.34,1.34,0,0,0,.26.43,1.37,1.37,0,0,0,.42.29,1.48,1.48,0,0,0,.57.1,1.39,1.39,0,0,0,.74-.2,1.28,1.28,0,0,0,.49-.58l.5.36a1.69,1.69,0,0,1-.68.75A2,2,0,0,1,111.08,48.81Zm0-4.12a1.27,1.27,0,0,0-.52.1,1.15,1.15,0,0,0-.41.28,1.24,1.24,0,0,0-.26.43,1.33,1.33,0,0,0-.1.54v.06h2.49V46a1.38,1.38,0,0,0-.33-1A1.15,1.15,0,0,0,111.08,44.69Z"/>
    <path d="M115.53,48.81a2.09,2.09,0,0,1-1-.24,2.34,2.34,0,0,1-.73-.64l.5-.4a2,2,0,0,0,.58.51,1.54,1.54,0,0,0,.75.18,1.13,1.13,0,0,0,.69-.19.64.64,0,0,0,.25-.55.6.6,0,0,0-.17-.44,1,1,0,0,0-.61-.26l-.36-.05a3.28,3.28,0,0,1-.58-.14,1.61,1.61,0,0,1-.45-.24A1.13,1.13,0,0,1,114,46a1.27,1.27,0,0,1-.11-.54,1.18,1.18,0,0,1,.13-.58,1.14,1.14,0,0,1,.33-.42,1.52,1.52,0,0,1,.51-.25,2.61,2.61,0,0,1,.64-.08,2.12,2.12,0,0,1,.92.19,2.21,2.21,0,0,1,.65.54l-.47.41a1.36,1.36,0,0,0-.43-.38,1.43,1.43,0,0,0-.73-.17,1,1,0,0,0-.65.19.65.65,0,0,0-.23.51.54.54,0,0,0,.23.48,1.7,1.7,0,0,0,.64.22l.35,0a1.91,1.91,0,0,1,1.06.43,1.15,1.15,0,0,1,.31.84,1.25,1.25,0,0,1-.44,1A1.84,1.84,0,0,1,115.53,48.81Z"/>
    <path d="M119.72,48.81a2.09,2.09,0,0,1-1-.24,2.46,2.46,0,0,1-.73-.64l.5-.4A2.11,2.11,0,0,0,119,48a1.54,1.54,0,0,0,.75.18,1.19,1.19,0,0,0,.7-.19.67.67,0,0,0,.25-.55.64.64,0,0,0-.17-.44,1.06,1.06,0,0,0-.62-.26l-.36-.05a3,3,0,0,1-.57-.14,1.54,1.54,0,0,1-.46-.24,1.1,1.1,0,0,1-.3-.38,1.13,1.13,0,0,1-.11-.54,1.31,1.31,0,0,1,.12-.58,1.14,1.14,0,0,1,.33-.42,1.73,1.73,0,0,1,.51-.25,2.61,2.61,0,0,1,.64-.08,1.84,1.84,0,0,1,1.57.73l-.46.41a1.53,1.53,0,0,0-.44-.38,1.42,1.42,0,0,0-.72-.17,1,1,0,0,0-.66.19.64.64,0,0,0-.22.51.53.53,0,0,0,.22.48,1.7,1.7,0,0,0,.64.22l.35,0a1.91,1.91,0,0,1,1.06.43,1.15,1.15,0,0,1,.32.84,1.26,1.26,0,0,1-.45,1A1.82,1.82,0,0,1,119.72,48.81Z"/>
    <path d="M125.89,48.7a.69.69,0,0,1-.57-.2,1.1,1.1,0,0,1-.21-.53h0a1.16,1.16,0,0,1-.49.63,1.77,1.77,0,0,1-1.92-.16,1.25,1.25,0,0,1-.4-1,1.13,1.13,0,0,1,.47-1,2.52,2.52,0,0,1,1.45-.34h.89v-.44a1,1,0,0,0-.26-.73,1.35,1.35,0,0,0-1.49-.07,1.51,1.51,0,0,0-.46.48l-.42-.39a1.58,1.58,0,0,1,.59-.62,1.82,1.82,0,0,1,1-.26,1.89,1.89,0,0,1,1.27.4,1.43,1.43,0,0,1,.45,1.12v2.47h.52v.61Zm-1.17-5.33a.93.93,0,0,1-.39-.08l-.31-.15a3.12,3.12,0,0,0-.35-.16.91.91,0,0,0-.26,0,.53.53,0,0,0-.26.06,1.71,1.71,0,0,0-.25.18l-.28-.35a1.39,1.39,0,0,1,.32-.32.88.88,0,0,1,.51-.14.8.8,0,0,1,.39.08l.3.14a2.74,2.74,0,0,0,.36.17.81.81,0,0,0,.25,0,.53.53,0,0,0,.26-.06,1.59,1.59,0,0,0,.25-.17l.29.35a1.44,1.44,0,0,1-.33.32A.87.87,0,0,1,124.72,43.37Zm-.84,4.85a1.75,1.75,0,0,0,.48-.06,1.11,1.11,0,0,0,.38-.18.85.85,0,0,0,.24-.26.62.62,0,0,0,.09-.32v-.74h-.93a1.63,1.63,0,0,0-.87.17.57.57,0,0,0-.28.51v.18a.6.6,0,0,0,.24.51A1,1,0,0,0,123.88,48.22Z"/>
    <path d="M129,48.81a2.05,2.05,0,0,1-.83-.17,1.87,1.87,0,0,1-.64-.47,2.4,2.4,0,0,1-.41-.74,3.21,3.21,0,0,1,0-1.94,2.46,2.46,0,0,1,.41-.75,1.87,1.87,0,0,1,.64-.47,2.05,2.05,0,0,1,.83-.17,2,2,0,0,1,.83.17,2,2,0,0,1,.64.47,2.28,2.28,0,0,1,.42.75,3.43,3.43,0,0,1,0,1.94,2.23,2.23,0,0,1-.42.74,2,2,0,0,1-.64.47A2,2,0,0,1,129,48.81Zm0-.62a1.29,1.29,0,0,0,.93-.35,1.41,1.41,0,0,0,.35-1.06v-.65a1.41,1.41,0,0,0-.35-1.06,1.4,1.4,0,0,0-1.85,0,1.42,1.42,0,0,0-.36,1.06v.65a1.42,1.42,0,0,0,.36,1.06A1.28,1.28,0,0,0,129,48.19Z"/>
    <path d="M137.48,48.7a.67.67,0,0,1-.56-.2,1.1,1.1,0,0,1-.21-.53h-.05a1.16,1.16,0,0,1-.49.63,1.48,1.48,0,0,1-.81.21,1.57,1.57,0,0,1-1.11-.37,1.28,1.28,0,0,1-.39-1,1.15,1.15,0,0,1,.46-1,2.54,2.54,0,0,1,1.45-.34h.89v-.44a.93.93,0,0,0-.26-.73,1.1,1.1,0,0,0-.8-.26,1.19,1.19,0,0,0-.69.19,1.48,1.48,0,0,0-.45.48L134,45a1.55,1.55,0,0,1,.58-.62,1.87,1.87,0,0,1,1-.26,1.92,1.92,0,0,1,1.28.4,1.43,1.43,0,0,1,.45,1.12v2.47h.51v.61Zm-2-.48a1.86,1.86,0,0,0,.48-.06,1.06,1.06,0,0,0,.37-.18.77.77,0,0,0,.25-.26.72.72,0,0,0,.08-.32v-.74h-.92a1.69,1.69,0,0,0-.88.17.58.58,0,0,0-.27.51v.18a.6.6,0,0,0,.24.51A1,1,0,0,0,135.48,48.22Z"/>
    <path d="M140.57,48.81a2.05,2.05,0,0,1-.83-.17,1.87,1.87,0,0,1-.64-.47,2.05,2.05,0,0,1-.41-.74,3.21,3.21,0,0,1,0-1.94,2.1,2.1,0,0,1,.41-.75,1.87,1.87,0,0,1,.64-.47,2.05,2.05,0,0,1,.83-.17,2,2,0,0,1,.82.17,1.87,1.87,0,0,1,.64.47,2.28,2.28,0,0,1,.42.75,3.21,3.21,0,0,1,0,1.94,2.23,2.23,0,0,1-.42.74,1.87,1.87,0,0,1-.64.47A2,2,0,0,1,140.57,48.81Zm0-.62a1.27,1.27,0,0,0,.92-.35,1.42,1.42,0,0,0,.36-1.06v-.65a1.42,1.42,0,0,0-.36-1.06,1.27,1.27,0,0,0-.92-.35,1.29,1.29,0,0,0-.93.35,1.46,1.46,0,0,0-.35,1.06v.65a1.46,1.46,0,0,0,.35,1.06A1.29,1.29,0,0,0,140.57,48.19Z"/>
    <path d="M147.35,45l-.73-1.35h0V48.7h-.71V42.62h.84L149,46.33l.73,1.35h0V42.62h.71V48.7h-.84Z"/>
    <path d="M152.39,43.6l-.45-.2.74-1.49.64.31ZM152,48.7V44.21h.7V48.7Z"/>
    <path d="M155.15,48.7l-1.58-4.49h.7l.78,2.23.49,1.53h0l.49-1.53.8-2.23h.67L156,48.7Z"/>
    <path d="M160.06,48.81a2.05,2.05,0,0,1-.83-.17,1.87,1.87,0,0,1-.64-.47,2.19,2.19,0,0,1-.4-.74,3.21,3.21,0,0,1,0-1.94,2.24,2.24,0,0,1,.4-.75,1.87,1.87,0,0,1,.64-.47,2.05,2.05,0,0,1,.83-.17,1.86,1.86,0,0,1,.81.17,1.73,1.73,0,0,1,.61.45,2.13,2.13,0,0,1,.39.69,2.75,2.75,0,0,1,.14.88v.33h-3.24v.21a1.4,1.4,0,0,0,.1.54,1.18,1.18,0,0,0,.26.43,1.22,1.22,0,0,0,.41.29,1.48,1.48,0,0,0,.57.1,1.39,1.39,0,0,0,.74-.2,1.36,1.36,0,0,0,.5-.58l.49.36a1.69,1.69,0,0,1-.68.75A2,2,0,0,1,160.06,48.81Zm0-4.12a1.27,1.27,0,0,0-.52.1,1,1,0,0,0-.4.28,1.12,1.12,0,0,0-.27.43,1.53,1.53,0,0,0-.1.54v.06h2.49V46a1.38,1.38,0,0,0-.33-1A1.15,1.15,0,0,0,160.06,44.69Z"/>
    <path d="M163.9,48.7a.69.69,0,0,1-.55-.2.73.73,0,0,1-.19-.52V42.25h.7v5.84h.66v.61Z"/>
    <path d="M172.4,43.58h0l-.52,1-1.45,2.65-1.46-2.65-.51-1h0V48.7h-.71V42.62h1l1.75,3.28h0l1.75-3.28h1V48.7h-.72Z"/>
    <path d="M176.36,48.81a2,2,0,0,1-.83-.17,1.87,1.87,0,0,1-.64-.47,2.21,2.21,0,0,1-.41-.74,3.43,3.43,0,0,1,0-1.94,2.26,2.26,0,0,1,.41-.75,1.87,1.87,0,0,1,.64-.47,2,2,0,0,1,.83-.17,1.92,1.92,0,0,1,.81.17,1.83,1.83,0,0,1,.61.45,2.13,2.13,0,0,1,.39.69,2.75,2.75,0,0,1,.13.88v.33h-3.23v.21a1.61,1.61,0,0,0,.09.54,1.34,1.34,0,0,0,.26.43,1.26,1.26,0,0,0,.42.29,1.43,1.43,0,0,0,.56.1,1.4,1.4,0,0,0,.75-.2,1.34,1.34,0,0,0,.49-.58l.5.36a1.75,1.75,0,0,1-.68.75A2.07,2.07,0,0,1,176.36,48.81Zm0-4.12a1.24,1.24,0,0,0-.52.1,1.07,1.07,0,0,0-.41.28,1.43,1.43,0,0,0-.27.43,1.53,1.53,0,0,0-.09.54v.06h2.48V46a1.43,1.43,0,0,0-.32-1A1.15,1.15,0,0,0,176.36,44.69Zm.07-1.09-.45-.2.74-1.49.63.31Z"/>
    <path d="M182.33,48h0a1.39,1.39,0,0,1-1.32.83,1.73,1.73,0,0,1-.76-.17,1.55,1.55,0,0,1-.58-.47,2,2,0,0,1-.36-.74,3.25,3.25,0,0,1-.13-1,3.32,3.32,0,0,1,.13-1,2,2,0,0,1,.36-.74,1.55,1.55,0,0,1,.58-.47,1.73,1.73,0,0,1,.76-.17,1.62,1.62,0,0,1,.81.2,1.35,1.35,0,0,1,.51.63h0V42.25h.7V48.7h-.7Zm-1.16.21a1.63,1.63,0,0,0,.45-.06A1.06,1.06,0,0,0,182,48a.86.86,0,0,0,.25-.29.8.8,0,0,0,.09-.39V45.59a.73.73,0,0,0-.09-.35A.72.72,0,0,0,182,45a1.06,1.06,0,0,0-.37-.18,1.33,1.33,0,0,0-.45-.07,1.2,1.2,0,0,0-.93.37,1.39,1.39,0,0,0-.34,1v.77a1.39,1.39,0,0,0,.34,1A1.2,1.2,0,0,0,181.17,48.19Z"/>
    <path d="M184.86,43.15a.41.41,0,0,1-.33-.11.43.43,0,0,1-.1-.28v-.11a.44.44,0,0,1,.1-.29.55.55,0,0,1,.66,0,.44.44,0,0,1,.1.29v.11a.43.43,0,0,1-.1.28A.41.41,0,0,1,184.86,43.15Zm-.35,1.06h.7V48.7h-.7Z"/>
    <path d="M188.39,48.81a2.05,2.05,0,0,1-.83-.17,1.87,1.87,0,0,1-.64-.47,2.21,2.21,0,0,1-.41-.74,3.21,3.21,0,0,1,0-1.94,2.26,2.26,0,0,1,.41-.75,1.87,1.87,0,0,1,.64-.47,2.11,2.11,0,0,1,1.66,0,2,2,0,0,1,.64.47,2.1,2.1,0,0,1,.41.75,3.21,3.21,0,0,1,0,1.94,2.05,2.05,0,0,1-.41.74,2,2,0,0,1-.64.47A2.05,2.05,0,0,1,188.39,48.81Zm0-.62a1.25,1.25,0,0,0,.92-.35,1.42,1.42,0,0,0,.36-1.06v-.65a1.42,1.42,0,0,0-.36-1.06,1.38,1.38,0,0,0-1.84,0,1.42,1.42,0,0,0-.36,1.06v.65a1.42,1.42,0,0,0,.36,1.06A1.25,1.25,0,0,0,188.39,48.19Z"/>
    <path d="M196.51,48h0a1.37,1.37,0,0,1-1.31.83,1.73,1.73,0,0,1-.76-.17,1.55,1.55,0,0,1-.58-.47,2.23,2.23,0,0,1-.37-.74,3.63,3.63,0,0,1-.12-1,3.7,3.7,0,0,1,.12-1,2.23,2.23,0,0,1,.37-.74,1.55,1.55,0,0,1,.58-.47,1.73,1.73,0,0,1,.76-.17,1.56,1.56,0,0,1,.8.2,1.24,1.24,0,0,1,.51.63h0V42.25h.7V48.7h-.7Zm-1.16.21a1.63,1.63,0,0,0,.45-.06,1.16,1.16,0,0,0,.37-.18,1,1,0,0,0,.25-.29.8.8,0,0,0,.09-.39V45.59a.73.73,0,0,0-.09-.35.81.81,0,0,0-.25-.27,1.16,1.16,0,0,0-.37-.18,1.33,1.33,0,0,0-.45-.07,1.17,1.17,0,0,0-.93.37,1.39,1.39,0,0,0-.34,1v.77a1.39,1.39,0,0,0,.34,1A1.17,1.17,0,0,0,195.35,48.19Z"/>
    <path d="M200.39,48.81a2.05,2.05,0,0,1-.83-.17,1.87,1.87,0,0,1-.64-.47,2.23,2.23,0,0,1-.42-.74,3.43,3.43,0,0,1,0-1.94,2.28,2.28,0,0,1,.42-.75,1.87,1.87,0,0,1,.64-.47,2.05,2.05,0,0,1,.83-.17,2,2,0,0,1,.82.17,1.87,1.87,0,0,1,.64.47,2.28,2.28,0,0,1,.42.75,3.21,3.21,0,0,1,0,1.94,2.23,2.23,0,0,1-.42.74,1.87,1.87,0,0,1-.64.47A2,2,0,0,1,200.39,48.81Zm0-.62a1.27,1.27,0,0,0,.92-.35,1.42,1.42,0,0,0,.36-1.06v-.65a1.42,1.42,0,0,0-.36-1.06,1.27,1.27,0,0,0-.92-.35,1.29,1.29,0,0,0-.93.35,1.46,1.46,0,0,0-.35,1.06v.65a1.46,1.46,0,0,0,.35,1.06A1.29,1.29,0,0,0,200.39,48.19Z"/>
    <path d="M210.44,43.58h0l-.52,1-1.45,2.65L207,44.6l-.51-1h-.05V48.7h-.71V42.62h1l1.75,3.28h0l1.75-3.28h.95V48.7h-.72Z"/>
    <path d="M216,48.7a.67.67,0,0,1-.56-.2,1,1,0,0,1-.22-.53h0a1.16,1.16,0,0,1-.49.63,1.77,1.77,0,0,1-1.92-.16,1.25,1.25,0,0,1-.4-1,1.16,1.16,0,0,1,.47-1,2.52,2.52,0,0,1,1.45-.34h.89v-.44a1,1,0,0,0-.26-.73,1.35,1.35,0,0,0-1.49-.07,1.51,1.51,0,0,0-.46.48l-.42-.39a1.66,1.66,0,0,1,.59-.62,1.85,1.85,0,0,1,1-.26,1.88,1.88,0,0,1,1.27.4,1.43,1.43,0,0,1,.46,1.12v2.47h.51v.61Zm-2-.48a1.75,1.75,0,0,0,.48-.06,1.11,1.11,0,0,0,.38-.18.85.85,0,0,0,.24-.26.62.62,0,0,0,.09-.32v-.74h-.93a1.63,1.63,0,0,0-.87.17.59.59,0,0,0-.28.51v.18a.6.6,0,0,0,.24.51A1,1,0,0,0,214,48.22Z"/>
    <path d="M217.36,48.7V44.21h.7V45h.05a1.35,1.35,0,0,1,.43-.57,1.33,1.33,0,0,1,.86-.25h.28v.69h-.41a1.52,1.52,0,0,0-.89.22.63.63,0,0,0-.32.53V48.7Z"/>
    <path d="M222.6,46a5.41,5.41,0,0,1,.13-1.21,5.68,5.68,0,0,1,.33-1.08,4.65,4.65,0,0,1,.5-.91,3.91,3.91,0,0,1,.62-.7h.67a3.94,3.94,0,0,0-.66.75,4.84,4.84,0,0,0-.5.89,5.41,5.41,0,0,0-.32,1,4.45,4.45,0,0,0-.11.94v.75a4.54,4.54,0,0,0,.11,1,5.35,5.35,0,0,0,.82,1.85,4.23,4.23,0,0,0,.66.73h-.67a3.72,3.72,0,0,1-.61-.68,4.74,4.74,0,0,1-.5-.92,5.79,5.79,0,0,1-.34-1.09A6.1,6.1,0,0,1,222.6,46Z"/>
    <path d="M225.54,42.25h.7v2.68h0a1.58,1.58,0,0,1,.47-.6,1.32,1.32,0,0,1,.81-.23,1.41,1.41,0,0,1,1.1.45,1.83,1.83,0,0,1,.41,1.27V48.7h-.7V45.94c0-.82-.34-1.22-1-1.22a1.84,1.84,0,0,0-.41.05,1.25,1.25,0,0,0-.35.16.81.81,0,0,0-.25.27.74.74,0,0,0-.09.38V48.7h-.7Z"/>
    <path d="M230.56,48.7V42.62H233a1.67,1.67,0,0,1,1.26.47,1.78,1.78,0,0,1,.44,1.27,1.81,1.81,0,0,1-.44,1.28,1.67,1.67,0,0,1-1.26.47H231.3V48.7Zm.74-3.24H233a.93.93,0,0,0,.67-.22.87.87,0,0,0,.24-.65v-.45a.85.85,0,0,0-.24-.65.94.94,0,0,0-.67-.23H231.3Z"/>
    <path d="M239,48.7a.67.67,0,0,1-.56-.2,1,1,0,0,1-.22-.53h0a1.16,1.16,0,0,1-.49.63,1.48,1.48,0,0,1-.81.21,1.54,1.54,0,0,1-1.11-.37,1.29,1.29,0,0,1-.4-1,1.16,1.16,0,0,1,.47-1,2.52,2.52,0,0,1,1.45-.34h.89v-.44a1,1,0,0,0-.26-.73,1.11,1.11,0,0,0-.8-.26,1.17,1.17,0,0,0-.69.19,1.48,1.48,0,0,0-.45.48l-.42-.39a1.55,1.55,0,0,1,.58-.62,1.85,1.85,0,0,1,1-.26,1.92,1.92,0,0,1,1.28.4,1.43,1.43,0,0,1,.45,1.12v2.47h.51v.61Zm-2-.48a1.75,1.75,0,0,0,.48-.06,1.11,1.11,0,0,0,.38-.18.74.74,0,0,0,.24-.26.62.62,0,0,0,.09-.32v-.74h-.92a1.67,1.67,0,0,0-.88.17.58.58,0,0,0-.27.51v.18a.6.6,0,0,0,.24.51A1,1,0,0,0,237,48.22Z"/>
    <path d="M241.8,46a6.11,6.11,0,0,1-.12,1.23,6.63,6.63,0,0,1-.34,1.09,5.34,5.34,0,0,1-.5.92,4.12,4.12,0,0,1-.61.68h-.67a3.81,3.81,0,0,0,.65-.73,5.2,5.2,0,0,0,.5-.89,6.06,6.06,0,0,0,.33-1,4.54,4.54,0,0,0,.11-1v-.75a4.45,4.45,0,0,0-.11-.94,6.36,6.36,0,0,0-.32-1,4.84,4.84,0,0,0-.5-.89,3.94,3.94,0,0,0-.66-.75h.67a3.53,3.53,0,0,1,.61.7,4.67,4.67,0,0,1,.51.91,5.68,5.68,0,0,1,.33,1.08A6.06,6.06,0,0,1,241.8,46Z"/>
  </g>
  <g>
    <path d="M171.75,23h-5.47a2,2,0,0,1-2.11-2V10.13a2,2,0,0,1,2.11-2h5.47a2,2,0,0,1,2.11,2V21.06A2,2,0,0,1,171.75,23Z" style="fill: #fff"/>
    <path d="M171.75,23.28h-5.47a2.3,2.3,0,0,1-2.36-2.22V10.12a2.29,2.29,0,0,1,2.36-2.21h5.47a2.29,2.29,0,0,1,2.36,2.21V21.06A2.3,2.3,0,0,1,171.75,23.28ZM166.28,8.41a1.79,1.79,0,0,0-1.86,1.71V21.06a1.8,1.8,0,0,0,1.86,1.72h5.47a1.81,1.81,0,0,0,1.86-1.72V10.12a1.8,1.8,0,0,0-1.86-1.71Z" style="fill: #939393"/>
  </g>
  <path d="M292,23h-5.47a2,2,0,0,1-2.11-2V10.13a2,2,0,0,1,2.11-2H292a2,2,0,0,1,2.11,2V21.06A2,2,0,0,1,292,23Z" style="fill: #a50000"/>
  <path d="M309,23h-5.47a2,2,0,0,1-2.11-2V10.13a2,2,0,0,1,2.11-2H309a2,2,0,0,1,2.11,2V21.06A2,2,0,0,1,309,23Z" style="fill: #830000"/>
  <path d="M326.1,23h-5.47a2,2,0,0,1-2.11-2V10.13a2,2,0,0,1,2.11-2h5.47a2,2,0,0,1,2.11,2V21.06A2,2,0,0,1,326.1,23Z" style="fill: brown"/>
  <path d="M51.84,23H46.38a2,2,0,0,1-2.11-2V10.13a2,2,0,0,1,2.11-2h5.46a2,2,0,0,1,2.11,2V21.06A2,2,0,0,1,51.84,23Z" style="fill: #0048ab"/>
  <path d="M34.76,23H29.29a2,2,0,0,1-2.11-2V10.13a2,2,0,0,1,2.11-2h5.47a2,2,0,0,1,2.11,2V21.06A2,2,0,0,1,34.76,23Z" style="fill: #001476"/>
  <path d="M17.6,23H12.13a2,2,0,0,1-2.11-2V10.13a2,2,0,0,1,2.11-2H17.6a2,2,0,0,1,2.1,2V21.06A2,2,0,0,1,17.6,23Z" style="fill: #00074c"/>
  <path d="M68.93,23H63.47a2,2,0,0,1-2.11-2V10.13a2,2,0,0,1,2.11-2h5.46a2,2,0,0,1,2.11,2V21.06A2,2,0,0,1,68.93,23Z" style="fill: #0067c6"/>
  <path d="M86,23H80.55a2,2,0,0,1-2.1-2V10.13a2,2,0,0,1,2.1-2H86a2,2,0,0,1,2.11,2V21.06A2,2,0,0,1,86,23Z" style="fill: #0090d7"/>
  <path d="M103.1,23H97.63a2,2,0,0,1-2.1-2V10.13a2,2,0,0,1,2.1-2h5.47a2,2,0,0,1,2.11,2V21.06A2,2,0,0,1,103.1,23Z" style="fill: #00a0db"/>
  <path d="M120.19,23h-5.47a2,2,0,0,1-2.11-2V10.13a2,2,0,0,1,2.11-2h5.47a2,2,0,0,1,2.11,2V21.06A2,2,0,0,1,120.19,23Z" style="fill: #00c4e1"/>
  <path d="M137.35,23h-5.47a2,2,0,0,1-2.11-2V10.13a2,2,0,0,1,2.11-2h5.47a2,2,0,0,1,2.11,2V21.06A2,2,0,0,1,137.35,23Z" style="fill: #5ce1ee"/>
  <path d="M154.51,23H149a2,2,0,0,1-2.1-2V10.13a2,2,0,0,1,2.1-2h5.47a2,2,0,0,1,2.11,2V21.06A2,2,0,0,1,154.51,23Z" style="fill: #c0f6ff"/>
  <path d="M188.91,23h-5.47a2,2,0,0,1-2.11-2V10.13a2,2,0,0,1,2.11-2h5.47a2,2,0,0,1,2.11,2V21.06A2,2,0,0,1,188.91,23Z" style="fill: #ffdcde"/>
  <path d="M206.07,23H200.6a2,2,0,0,1-2.11-2V10.13a2,2,0,0,1,2.11-2h5.47a2,2,0,0,1,2.11,2V21.06A2,2,0,0,1,206.07,23Z" style="fill: #ffb59e"/>
  <path d="M223.32,23h-5.47a2,2,0,0,1-2.11-2V10.13a2,2,0,0,1,2.11-2h5.47a2,2,0,0,1,2.11,2V21.06A2,2,0,0,1,223.32,23Z" style="fill: #ff834b"/>
  <path d="M240.48,23H235a2,2,0,0,1-2.11-2V10.13a2,2,0,0,1,2.11-2h5.47a2,2,0,0,1,2.11,2V21.06A2,2,0,0,1,240.48,23Z" style="fill: #ff4100"/>
  <path d="M257.64,23h-5.47a2,2,0,0,1-2.11-2V10.13a2,2,0,0,1,2.11-2h5.47a2,2,0,0,1,2.11,2V21.06A2,2,0,0,1,257.64,23Z" style="fill: red"/>
  <path d="M274.8,23h-5.47a2,2,0,0,1-2.11-2V10.13a2,2,0,0,1,2.11-2h5.47a2,2,0,0,1,2.11,2V21.06A2,2,0,0,1,274.8,23Z" style="fill: #e30000"/>
  <g>
    <path d="M11.88,30.68a3.83,3.83,0,0,1-.18,1.18,5.14,5.14,0,0,1-.48,1,5.91,5.91,0,0,1-.65.81,4.59,4.59,0,0,1-.69.56H9a9.73,9.73,0,0,0,.8-.64,5.35,5.35,0,0,0,.62-.65,3.68,3.68,0,0,0,.45-.73,4.33,4.33,0,0,0,.3-.88l0,0a1.92,1.92,0,0,1-.52.58,1.41,1.41,0,0,1-.83.23A1.81,1.81,0,0,1,9.12,32a1.59,1.59,0,0,1-.52-.35,1.62,1.62,0,0,1-.35-.55,2,2,0,0,1-.12-.72,2,2,0,0,1,.13-.75,1.66,1.66,0,0,1,1-1,2.07,2.07,0,0,1,.77-.14,1.94,1.94,0,0,1,.78.15,1.81,1.81,0,0,1,.6.42,1.94,1.94,0,0,1,.37.68A2.86,2.86,0,0,1,11.88,30.68ZM10,31.54a1.18,1.18,0,0,0,.86-.3,1.17,1.17,0,0,0,.31-.88V30.3a1.17,1.17,0,0,0-.31-.88,1.18,1.18,0,0,0-.86-.3,1.19,1.19,0,0,0-.87.3,1.17,1.17,0,0,0-.31.88v.06a1.17,1.17,0,0,0,.31.88A1.19,1.19,0,0,0,10,31.54Z"/>
    <path d="M14.83,34.33A2.39,2.39,0,0,1,14,34.2a1.64,1.64,0,0,1-.61-.34,1.34,1.34,0,0,1-.37-.51,1.75,1.75,0,0,1-.12-.65,1.27,1.27,0,0,1,.31-.91,1.65,1.65,0,0,1,.82-.48v-.06a1.44,1.44,0,0,1-.7-.5,1.37,1.37,0,0,1,.2-1.85,2,2,0,0,1,1.31-.38,2.07,2.07,0,0,1,1.32.38,1.4,1.4,0,0,1,.2,1.85,1.44,1.44,0,0,1-.7.5v.06a1.69,1.69,0,0,1,.82.48,1.27,1.27,0,0,1,.31.91,1.75,1.75,0,0,1-.12.65,1.46,1.46,0,0,1-.37.51,1.72,1.72,0,0,1-.61.34A2.41,2.41,0,0,1,14.83,34.33Zm0-.6a1.35,1.35,0,0,0,.91-.26.88.88,0,0,0,.33-.74v-.17a.9.9,0,0,0-.33-.74,1.41,1.41,0,0,0-.91-.26,1.45,1.45,0,0,0-.91.26.92.92,0,0,0-.32.74v.17a.9.9,0,0,0,.32.74A1.39,1.39,0,0,0,14.83,33.73Zm0-2.73a1.24,1.24,0,0,0,.81-.23.79.79,0,0,0,.27-.65V30a.81.81,0,0,0-.27-.66,1.24,1.24,0,0,0-.81-.22,1.23,1.23,0,0,0-.8.22.81.81,0,0,0-.27.66v.12a.79.79,0,0,0,.27.65A1.23,1.23,0,0,0,14.83,31Z"/>
    <path d="M19.66,34.33a1.59,1.59,0,0,1-1.47-.76,4.16,4.16,0,0,1-.46-2.15,4.15,4.15,0,0,1,.46-2.14,1.59,1.59,0,0,1,1.47-.76,1.59,1.59,0,0,1,1.47.76,4.15,4.15,0,0,1,.46,2.14,4.16,4.16,0,0,1-.46,2.15A1.59,1.59,0,0,1,19.66,34.33Zm0-.6a1.14,1.14,0,0,0,.57-.13,1,1,0,0,0,.37-.39,1.89,1.89,0,0,0,.22-.58,4.35,4.35,0,0,0,.07-.75V31a4.35,4.35,0,0,0-.07-.75,1.89,1.89,0,0,0-.22-.58,1,1,0,0,0-.37-.39,1.14,1.14,0,0,0-.57-.13,1.08,1.08,0,0,0-.56.13,1,1,0,0,0-.38.39,1.66,1.66,0,0,0-.21.58,3.54,3.54,0,0,0-.07.75v.91a3.54,3.54,0,0,0,.07.75,1.66,1.66,0,0,0,.21.58,1,1,0,0,0,.38.39A1.08,1.08,0,0,0,19.66,33.73Z"/>
  </g>
  <g>
    <path d="M37.48,30.68a3.83,3.83,0,0,1-.18,1.18,4.2,4.2,0,0,1-.48,1,5.24,5.24,0,0,1-.65.81,3.77,3.77,0,0,1-.69.56h-.87c.3-.22.57-.43.81-.64a6.25,6.25,0,0,0,.62-.65,4.93,4.93,0,0,0,.45-.73,4.33,4.33,0,0,0,.29-.88l0,0a1.89,1.89,0,0,1-.51.58,1.44,1.44,0,0,1-.84.23,1.85,1.85,0,0,1-.67-.12,1.7,1.7,0,0,1-.52-.35,1.6,1.6,0,0,1-.34-.55,2,2,0,0,1-.13-.72,2,2,0,0,1,.14-.75,1.58,1.58,0,0,1,.38-.59,1.67,1.67,0,0,1,.58-.38,2.11,2.11,0,0,1,.77-.14,2,2,0,0,1,.79.15,1.67,1.67,0,0,1,.59.42,2,2,0,0,1,.38.68A3.18,3.18,0,0,1,37.48,30.68Zm-1.87.86a1.05,1.05,0,0,0,1.17-1.18V30.3a1.18,1.18,0,1,0-2.35,0v.06a1.07,1.07,0,0,0,1.18,1.18Z"/>
    <path d="M40.44,34.33a2.45,2.45,0,0,1-.85-.13,1.6,1.6,0,0,1-.6-.34,1.24,1.24,0,0,1-.37-.51,1.57,1.57,0,0,1-.13-.65,1.32,1.32,0,0,1,.31-.91,1.68,1.68,0,0,1,.83-.48v-.06a1.47,1.47,0,0,1-.71-.5,1.34,1.34,0,0,1-.26-.82,1.28,1.28,0,0,1,.47-1,2.45,2.45,0,0,1,2.62,0,1.28,1.28,0,0,1,.47,1,1.34,1.34,0,0,1-.26.82,1.47,1.47,0,0,1-.71.5v.06a1.65,1.65,0,0,1,.82.48,1.28,1.28,0,0,1,.32.91,1.75,1.75,0,0,1-.13.65,1.34,1.34,0,0,1-.37.51,1.64,1.64,0,0,1-.61.34A2.39,2.39,0,0,1,40.44,34.33Zm0-.6a1.39,1.39,0,0,0,.91-.26.9.9,0,0,0,.32-.74v-.17a.92.92,0,0,0-.32-.74,1.45,1.45,0,0,0-.91-.26,1.43,1.43,0,0,0-.91.26.89.89,0,0,0-.32.74v.17a.88.88,0,0,0,.32.74A1.37,1.37,0,0,0,40.44,33.73Zm0-2.73a1.23,1.23,0,0,0,.8-.23.77.77,0,0,0,.28-.65V30a.79.79,0,0,0-.28-.66,1.23,1.23,0,0,0-.8-.22,1.26,1.26,0,0,0-.81.22.81.81,0,0,0-.27.66v.12a.79.79,0,0,0,.27.65A1.26,1.26,0,0,0,40.44,31Z"/>
    <path d="M45.87,34.23v-1.1H43.16v-.59l2.35-3.92h1v3.95h.82v.56h-.82v1.1Zm-2.08-1.66h2.08V29.14h0Z"/>
  </g>
  <g>
    <path d="M71.79,30.68a3.84,3.84,0,0,1-.19,1.18,4.2,4.2,0,0,1-.48,1,4.71,4.71,0,0,1-.65.81,3.77,3.77,0,0,1-.69.56h-.87c.3-.22.57-.43.81-.64a6.25,6.25,0,0,0,.62-.65,4.93,4.93,0,0,0,.45-.73,5,5,0,0,0,.3-.88l0,0a2.06,2.06,0,0,1-.52.58,1.44,1.44,0,0,1-.84.23A1.76,1.76,0,0,1,69,32a1.63,1.63,0,0,1-.53-.35,1.6,1.6,0,0,1-.34-.55,2,2,0,0,1-.12-.72,2,2,0,0,1,.13-.75,1.58,1.58,0,0,1,.38-.59,1.77,1.77,0,0,1,.58-.38,2.11,2.11,0,0,1,.77-.14,2,2,0,0,1,.79.15,1.67,1.67,0,0,1,.59.42,2,2,0,0,1,.38.68A3.17,3.17,0,0,1,71.79,30.68Zm-1.88.86a1.07,1.07,0,0,0,1.18-1.18V30.3a1.07,1.07,0,0,0-1.18-1.18,1.06,1.06,0,0,0-1.17,1.18v.06a1.06,1.06,0,0,0,1.17,1.18Z"/>
    <path d="M76.61,30.68a3.83,3.83,0,0,1-.18,1.18,4.2,4.2,0,0,1-.48,1,4.71,4.71,0,0,1-.65.81,3.77,3.77,0,0,1-.69.56h-.87c.3-.22.57-.43.81-.64a6.25,6.25,0,0,0,.62-.65,4.93,4.93,0,0,0,.45-.73,4.33,4.33,0,0,0,.29-.88l0,0a1.89,1.89,0,0,1-.51.58,1.44,1.44,0,0,1-.84.23,1.85,1.85,0,0,1-.67-.12,1.7,1.7,0,0,1-.52-.35A1.6,1.6,0,0,1,73,31.1a2,2,0,0,1-.13-.72,2,2,0,0,1,.14-.75,1.58,1.58,0,0,1,.38-.59,1.77,1.77,0,0,1,.58-.38,2.11,2.11,0,0,1,.77-.14,2,2,0,0,1,.79.15,1.67,1.67,0,0,1,.59.42,2,2,0,0,1,.38.68A3.18,3.18,0,0,1,76.61,30.68Zm-1.87.86a1.05,1.05,0,0,0,1.17-1.18V30.3a1.18,1.18,0,1,0-2.35,0v.06a1.07,1.07,0,0,0,1.18,1.18Z"/>
    <path d="M81.44,34.23H77.76v-.69l1.83-1.69a3.61,3.61,0,0,0,.66-.77,1.46,1.46,0,0,0,.27-.82v-.1a1.09,1.09,0,0,0-.26-.75,1,1,0,0,0-.78-.29,1.25,1.25,0,0,0-.45.07.91.91,0,0,0-.33.2,1,1,0,0,0-.24.3,2.39,2.39,0,0,0-.15.37l-.6-.23a2.38,2.38,0,0,1,.22-.49,2,2,0,0,1,.35-.42,1.75,1.75,0,0,1,.52-.29,2.16,2.16,0,0,1,.71-.11,2,2,0,0,1,.73.12,1.35,1.35,0,0,1,.54.34,1.39,1.39,0,0,1,.34.51,1.76,1.76,0,0,1,.11.66,2,2,0,0,1-.09.61,2.2,2.2,0,0,1-.25.54,3.49,3.49,0,0,1-.39.49c-.16.16-.32.32-.5.48l-1.51,1.37h3Z"/>
  </g>
  <g>
    <path d="M134.28,34.23v-.59h1.57V29.12h-.06l-1.42,1.31L134,30l1.49-1.39h1.05v5H138v.59Z"/>
    <path d="M140.81,34.33a1.59,1.59,0,0,1-1.47-.76,4.16,4.16,0,0,1-.46-2.15,4.15,4.15,0,0,1,.46-2.14,1.8,1.8,0,0,1,2.94,0,4.15,4.15,0,0,1,.46,2.14,4.16,4.16,0,0,1-.46,2.15A1.59,1.59,0,0,1,140.81,34.33Zm0-.6a1.08,1.08,0,0,0,.56-.13,1,1,0,0,0,.38-.39,1.89,1.89,0,0,0,.22-.58,4.38,4.38,0,0,0,.06-.75V31a4.38,4.38,0,0,0-.06-.75,1.89,1.89,0,0,0-.22-.58,1,1,0,0,0-.38-.39,1.27,1.27,0,0,0-1.12,0,1,1,0,0,0-.38.39,1.66,1.66,0,0,0-.21.58,3.54,3.54,0,0,0-.07.75v.91a3.54,3.54,0,0,0,.07.75,1.66,1.66,0,0,0,.21.58,1,1,0,0,0,.38.39A1.08,1.08,0,0,0,140.81,33.73Z"/>
    <path d="M145.64,34.33a1.59,1.59,0,0,1-1.47-.76,4.16,4.16,0,0,1-.46-2.15,4.15,4.15,0,0,1,.46-2.14,1.8,1.8,0,0,1,2.94,0,4.15,4.15,0,0,1,.46,2.14,4.16,4.16,0,0,1-.46,2.15A1.59,1.59,0,0,1,145.64,34.33Zm0-.6a1.08,1.08,0,0,0,.56-.13,1,1,0,0,0,.38-.39,1.66,1.66,0,0,0,.21-.58,3.54,3.54,0,0,0,.07-.75V31a3.54,3.54,0,0,0-.07-.75,1.66,1.66,0,0,0-.21-.58,1,1,0,0,0-.38-.39,1.27,1.27,0,0,0-1.12,0,1,1,0,0,0-.38.39,1.66,1.66,0,0,0-.21.58,3.54,3.54,0,0,0-.07.75v.91a3.54,3.54,0,0,0,.07.75,1.66,1.66,0,0,0,.21.58,1,1,0,0,0,.38.39A1.08,1.08,0,0,0,145.64,33.73Z"/>
    <path d="M150.47,34.33a2.49,2.49,0,0,1-.85-.13,1.6,1.6,0,0,1-.6-.34,1.24,1.24,0,0,1-.37-.51,1.57,1.57,0,0,1-.13-.65,1.32,1.32,0,0,1,.31-.91,1.68,1.68,0,0,1,.83-.48v-.06a1.47,1.47,0,0,1-.71-.5,1.34,1.34,0,0,1-.26-.82,1.28,1.28,0,0,1,.47-1,2.45,2.45,0,0,1,2.62,0,1.28,1.28,0,0,1,.47,1,1.34,1.34,0,0,1-.26.82,1.47,1.47,0,0,1-.71.5v.06a1.65,1.65,0,0,1,.82.48,1.28,1.28,0,0,1,.32.91,1.75,1.75,0,0,1-.13.65,1.34,1.34,0,0,1-.37.51,1.57,1.57,0,0,1-.61.34A2.39,2.39,0,0,1,150.47,34.33Zm0-.6a1.39,1.39,0,0,0,.91-.26.9.9,0,0,0,.32-.74v-.17a.92.92,0,0,0-.32-.74,1.45,1.45,0,0,0-.91-.26,1.43,1.43,0,0,0-.91.26.89.89,0,0,0-.32.74v.17a.88.88,0,0,0,.32.74A1.37,1.37,0,0,0,150.47,33.73Zm0-2.73a1.23,1.23,0,0,0,.8-.23.77.77,0,0,0,.28-.65V30a.79.79,0,0,0-.28-.66,1.23,1.23,0,0,0-.8-.22,1.26,1.26,0,0,0-.81.22.81.81,0,0,0-.27.66v.12a.79.79,0,0,0,.27.65A1.26,1.26,0,0,0,150.47,31Z"/>
  </g>
  <g>
    <path d="M100,34.23v-.59h1.57V29.12h-.06l-1.41,1.31-.4-.42,1.49-1.39h1.06v5h1.44v.59Z"/>
    <path d="M106.57,34.33a1.56,1.56,0,0,1-1.46-.76,4.16,4.16,0,0,1-.47-2.15,4.14,4.14,0,0,1,.47-2.14,1.56,1.56,0,0,1,1.46-.76,1.58,1.58,0,0,1,1.47.76,4.14,4.14,0,0,1,.47,2.14,4.16,4.16,0,0,1-.47,2.15A1.58,1.58,0,0,1,106.57,34.33Zm0-.6a1.14,1.14,0,0,0,.57-.13,1.09,1.09,0,0,0,.38-.39,2.19,2.19,0,0,0,.21-.58,4.35,4.35,0,0,0,.07-.75V31a4.35,4.35,0,0,0-.07-.75,2.19,2.19,0,0,0-.21-.58,1.09,1.09,0,0,0-.38-.39,1.14,1.14,0,0,0-.57-.13,1,1,0,0,0-.94.52,2.19,2.19,0,0,0-.21.58,3.54,3.54,0,0,0-.07.75v.91a3.54,3.54,0,0,0,.07.75,2.19,2.19,0,0,0,.21.58,1,1,0,0,0,.94.52Z"/>
    <path d="M111.4,34.33a1.59,1.59,0,0,1-1.47-.76,4.27,4.27,0,0,1-.46-2.15,4.25,4.25,0,0,1,.46-2.14,1.8,1.8,0,0,1,2.94,0,4.15,4.15,0,0,1,.46,2.14,4.16,4.16,0,0,1-.46,2.15A1.59,1.59,0,0,1,111.4,34.33Zm0-.6a1.14,1.14,0,0,0,.57-.13,1,1,0,0,0,.37-.39,1.89,1.89,0,0,0,.22-.58,4.35,4.35,0,0,0,.07-.75V31a4.35,4.35,0,0,0-.07-.75,1.89,1.89,0,0,0-.22-.58,1,1,0,0,0-.37-.39,1.14,1.14,0,0,0-.57-.13,1.1,1.1,0,0,0-.56.13,1,1,0,0,0-.38.39,1.89,1.89,0,0,0-.21.58,3.54,3.54,0,0,0-.07.75v.91a3.54,3.54,0,0,0,.07.75,1.89,1.89,0,0,0,.21.58,1,1,0,0,0,.38.39A1.1,1.1,0,0,0,111.4,33.73Z"/>
    <path d="M116.23,34.33a1.59,1.59,0,0,1-1.47-.76,4.16,4.16,0,0,1-.46-2.15,4.15,4.15,0,0,1,.46-2.14,1.8,1.8,0,0,1,2.94,0,4.15,4.15,0,0,1,.46,2.14,4.16,4.16,0,0,1-.46,2.15A1.59,1.59,0,0,1,116.23,34.33Zm0-.6a1.14,1.14,0,0,0,.57-.13,1,1,0,0,0,.37-.39,1.89,1.89,0,0,0,.22-.58,4.35,4.35,0,0,0,.07-.75V31a4.35,4.35,0,0,0-.07-.75,1.89,1.89,0,0,0-.22-.58,1,1,0,0,0-.37-.39,1.14,1.14,0,0,0-.57-.13,1.08,1.08,0,0,0-.56.13,1,1,0,0,0-.38.39,1.66,1.66,0,0,0-.21.58A3.54,3.54,0,0,0,115,31v.91a3.54,3.54,0,0,0,.07.75,1.66,1.66,0,0,0,.21.58,1,1,0,0,0,.38.39A1.08,1.08,0,0,0,116.23,33.73Z"/>
  </g>
  <g>
    <path d="M160.24,34.23v-.59h1.57V29.12h-.06l-1.41,1.31-.4-.42,1.49-1.39h1.06v5h1.44v.59Z"/>
    <path d="M166.78,34.33a1.57,1.57,0,0,1-1.47-.76,4.16,4.16,0,0,1-.47-2.15,4.14,4.14,0,0,1,.47-2.14,1.79,1.79,0,0,1,2.93,0,4.14,4.14,0,0,1,.47,2.14,4.16,4.16,0,0,1-.47,2.15A1.56,1.56,0,0,1,166.78,34.33Zm0-.6a1,1,0,0,0,.94-.52,2.19,2.19,0,0,0,.21-.58,3.54,3.54,0,0,0,.07-.75V31a3.54,3.54,0,0,0-.07-.75,2.19,2.19,0,0,0-.21-.58,1,1,0,0,0-.94-.52,1.14,1.14,0,0,0-.57.13,1.09,1.09,0,0,0-.38.39,2.19,2.19,0,0,0-.21.58,3.54,3.54,0,0,0-.07.75v.91a3.54,3.54,0,0,0,.07.75,2.19,2.19,0,0,0,.21.58,1.09,1.09,0,0,0,.38.39A1.14,1.14,0,0,0,166.78,33.73Z"/>
    <path d="M169.9,34.23v-.59h1.57V29.12h-.06L170,30.43,169.6,30l1.49-1.39h1v5h1.45v.59Z"/>
    <path d="M176.12,31a1.21,1.21,0,0,0,.86-.26.85.85,0,0,0,.28-.67V30a.79.79,0,0,0-.28-.67,1.14,1.14,0,0,0-.72-.21,1.27,1.27,0,0,0-.71.18,1.34,1.34,0,0,0-.45.52l-.5-.39a1.91,1.91,0,0,1,.25-.33,1.64,1.64,0,0,1,.35-.29,1.68,1.68,0,0,1,.47-.21,2.23,2.23,0,0,1,.6-.08,2.41,2.41,0,0,1,.67.09,1.52,1.52,0,0,1,.54.27,1.13,1.13,0,0,1,.36.45,1.27,1.27,0,0,1,.14.6,1.3,1.3,0,0,1-.09.49,1,1,0,0,1-.23.37,1.34,1.34,0,0,1-.34.28,1.52,1.52,0,0,1-.42.16v0a1.76,1.76,0,0,1,.44.15,1.53,1.53,0,0,1,.38.29,1.25,1.25,0,0,1,.26.42,1.4,1.4,0,0,1,.1.56,1.67,1.67,0,0,1-.13.67,1.51,1.51,0,0,1-.39.51,1.77,1.77,0,0,1-.6.34,2.45,2.45,0,0,1-.78.12,2.51,2.51,0,0,1-.65-.08A1.88,1.88,0,0,1,175,34a2.43,2.43,0,0,1-.67-.66l.5-.39a1.92,1.92,0,0,0,.23.31,1.49,1.49,0,0,0,.28.23,1,1,0,0,0,.35.15,1.55,1.55,0,0,0,.45,0,1.34,1.34,0,0,0,.9-.27,1,1,0,0,0,.3-.77v-.07a1,1,0,0,0-.3-.77,1.34,1.34,0,0,0-.9-.27h-.66V31Z"/>
  </g>
  <g>
    <path d="M185.82,34.23v-.59h1.57V29.12h-.06l-1.41,1.31-.4-.42L187,28.62h1.06v5h1.44v.59Z"/>
    <path d="M192.36,34.33a1.59,1.59,0,0,1-1.47-.76,4.16,4.16,0,0,1-.47-2.15,4.14,4.14,0,0,1,.47-2.14,1.59,1.59,0,0,1,1.47-.76,1.56,1.56,0,0,1,1.46.76,4.14,4.14,0,0,1,.47,2.14,4.16,4.16,0,0,1-.47,2.15A1.56,1.56,0,0,1,192.36,34.33Zm0-.6a1.1,1.1,0,0,0,.56-.13,1,1,0,0,0,.38-.39,2.19,2.19,0,0,0,.21-.58,3.54,3.54,0,0,0,.07-.75V31a3.54,3.54,0,0,0-.07-.75,2.19,2.19,0,0,0-.21-.58,1,1,0,0,0-.38-.39,1.1,1.1,0,0,0-.56-.13,1.14,1.14,0,0,0-.57.13,1.09,1.09,0,0,0-.38.39,2.19,2.19,0,0,0-.21.58,4.35,4.35,0,0,0-.07.75v.91a4.35,4.35,0,0,0,.07.75,2.19,2.19,0,0,0,.21.58,1.09,1.09,0,0,0,.38.39A1.14,1.14,0,0,0,192.36,33.73Z"/>
    <path d="M195.48,34.23v-.59h1.57V29.12H197l-1.41,1.31-.4-.42,1.49-1.39h1.05v5h1.45v.59Z"/>
    <path d="M202.62,34.23v-1.1h-2.71v-.59l2.35-3.92h1v3.95h.81v.56h-.81v1.1Zm-2.08-1.66h2.08V29.14h0Z"/>
  </g>
  <g>
    <path d="M220.21,34.23v-.59h1.56V29.12h-.05l-1.42,1.31-.39-.42,1.49-1.39h1v5h1.45v.59Z"/>
    <path d="M226.74,34.33a1.59,1.59,0,0,1-1.47-.76,4.16,4.16,0,0,1-.46-2.15,4.15,4.15,0,0,1,.46-2.14,1.8,1.8,0,0,1,2.94,0,4.15,4.15,0,0,1,.46,2.14,4.16,4.16,0,0,1-.46,2.15A1.59,1.59,0,0,1,226.74,34.33Zm0-.6a1.08,1.08,0,0,0,.56-.13,1,1,0,0,0,.38-.39,1.89,1.89,0,0,0,.22-.58,4.38,4.38,0,0,0,.06-.75V31a4.38,4.38,0,0,0-.06-.75,1.89,1.89,0,0,0-.22-.58,1,1,0,0,0-.38-.39,1.27,1.27,0,0,0-1.12,0,1,1,0,0,0-.38.39,1.66,1.66,0,0,0-.21.58,3.54,3.54,0,0,0-.07.75v.91a3.54,3.54,0,0,0,.07.75,1.66,1.66,0,0,0,.21.58,1,1,0,0,0,.38.39A1.08,1.08,0,0,0,226.74,33.73Z"/>
    <path d="M233.45,34.23h-3.69v-.69l1.83-1.69a3.61,3.61,0,0,0,.66-.77,1.46,1.46,0,0,0,.27-.82v-.1a1.09,1.09,0,0,0-.26-.75,1,1,0,0,0-.78-.29,1.25,1.25,0,0,0-.45.07.91.91,0,0,0-.33.2,1,1,0,0,0-.24.3,2.39,2.39,0,0,0-.15.37l-.6-.23a3.06,3.06,0,0,1,.22-.49,2,2,0,0,1,.36-.42,1.58,1.58,0,0,1,.51-.29,2.16,2.16,0,0,1,.71-.11,2.13,2.13,0,0,1,.74.12,1.44,1.44,0,0,1,.87.85,1.76,1.76,0,0,1,.12.66,1.7,1.7,0,0,1-.1.61,2.2,2.2,0,0,1-.25.54,3.49,3.49,0,0,1-.39.49c-.15.16-.32.32-.5.48l-1.51,1.37h3Z"/>
    <path d="M236.4,34.33a1.59,1.59,0,0,1-1.47-.76,4.16,4.16,0,0,1-.46-2.15,4.15,4.15,0,0,1,.46-2.14,1.8,1.8,0,0,1,2.94,0,4.15,4.15,0,0,1,.46,2.14,4.16,4.16,0,0,1-.46,2.15A1.59,1.59,0,0,1,236.4,34.33Zm0-.6a1.08,1.08,0,0,0,.56-.13,1,1,0,0,0,.38-.39,1.66,1.66,0,0,0,.21-.58,3.54,3.54,0,0,0,.07-.75V31a3.54,3.54,0,0,0-.07-.75,1.66,1.66,0,0,0-.21-.58,1,1,0,0,0-.38-.39,1.27,1.27,0,0,0-1.12,0,1,1,0,0,0-.38.39,1.89,1.89,0,0,0-.22.58,4.38,4.38,0,0,0-.06.75v.91a4.38,4.38,0,0,0,.06.75,1.89,1.89,0,0,0,.22.58,1,1,0,0,0,.38.39A1.08,1.08,0,0,0,236.4,33.73Z"/>
  </g>
  <g>
    <path d="M254.56,34.23v-.59h1.57V29.12h-.05l-1.42,1.31-.39-.42,1.48-1.39h1.06v5h1.45v.59Z"/>
    <path d="M261.1,34.33a1.59,1.59,0,0,1-1.47-.76,4.16,4.16,0,0,1-.46-2.15,4.15,4.15,0,0,1,.46-2.14,1.8,1.8,0,0,1,2.94,0,4.15,4.15,0,0,1,.46,2.14,4.16,4.16,0,0,1-.46,2.15A1.59,1.59,0,0,1,261.1,34.33Zm0-.6a1.08,1.08,0,0,0,.56-.13,1,1,0,0,0,.38-.39,1.66,1.66,0,0,0,.21-.58,3.54,3.54,0,0,0,.07-.75V31a3.54,3.54,0,0,0-.07-.75,1.66,1.66,0,0,0-.21-.58,1,1,0,0,0-.38-.39,1.08,1.08,0,0,0-.56-.13,1.14,1.14,0,0,0-.57.13,1,1,0,0,0-.37.39,1.89,1.89,0,0,0-.22.58,4.38,4.38,0,0,0-.06.75v.91a4.38,4.38,0,0,0,.06.75,1.89,1.89,0,0,0,.22.58,1,1,0,0,0,.37.39A1.14,1.14,0,0,0,261.1,33.73Z"/>
    <path d="M267.8,34.23h-3.68v-.69L266,31.85a3.92,3.92,0,0,0,.66-.77,1.46,1.46,0,0,0,.27-.82v-.1a1.09,1.09,0,0,0-.26-.75,1,1,0,0,0-.78-.29,1.25,1.25,0,0,0-.45.07,1.05,1.05,0,0,0-.34.2,1.14,1.14,0,0,0-.23.3,2.39,2.39,0,0,0-.15.37l-.6-.23a2.38,2.38,0,0,1,.22-.49,2,2,0,0,1,.35-.42,1.75,1.75,0,0,1,.52-.29,2.16,2.16,0,0,1,.71-.11,2,2,0,0,1,.73.12,1.35,1.35,0,0,1,.54.34,1.39,1.39,0,0,1,.34.51,2,2,0,0,1,.11.66,2,2,0,0,1-.09.61,2.2,2.2,0,0,1-.25.54,3.49,3.49,0,0,1-.39.49c-.16.16-.32.32-.5.48l-1.51,1.37h2.95Z"/>
    <path d="M270.76,34.33a2.45,2.45,0,0,1-.85-.13,1.72,1.72,0,0,1-.61-.34,1.46,1.46,0,0,1-.37-.51,1.75,1.75,0,0,1-.12-.65,1.27,1.27,0,0,1,.31-.91,1.69,1.69,0,0,1,.82-.48v-.06a1.44,1.44,0,0,1-.7-.5,1.4,1.4,0,0,1,.2-1.85,2.07,2.07,0,0,1,1.32-.38,2,2,0,0,1,1.31.38,1.37,1.37,0,0,1,.2,1.85,1.44,1.44,0,0,1-.7.5v.06a1.65,1.65,0,0,1,.82.48,1.27,1.27,0,0,1,.31.91,1.75,1.75,0,0,1-.12.65,1.34,1.34,0,0,1-.37.51,1.64,1.64,0,0,1-.61.34A2.39,2.39,0,0,1,270.76,34.33Zm0-.6a1.39,1.39,0,0,0,.91-.26.9.9,0,0,0,.32-.74v-.17a.92.92,0,0,0-.32-.74,1.45,1.45,0,0,0-.91-.26,1.41,1.41,0,0,0-.91.26.9.9,0,0,0-.33.74v.17a.88.88,0,0,0,.33.74A1.35,1.35,0,0,0,270.76,33.73Zm0-2.73a1.23,1.23,0,0,0,.8-.23.8.8,0,0,0,.28-.65V30a.82.82,0,0,0-.28-.66,1.58,1.58,0,0,0-1.61,0,.81.81,0,0,0-.27.66v.12a.79.79,0,0,0,.27.65A1.24,1.24,0,0,0,270.76,31Z"/>
  </g>
  <g>
    <path d="M288.83,34.23v-.59h1.57V29.12h-.06l-1.41,1.31-.4-.42L290,28.62h1.06v5h1.44v.59Z"/>
    <path d="M295.37,34.33a1.59,1.59,0,0,1-1.47-.76,4.16,4.16,0,0,1-.47-2.15,4.14,4.14,0,0,1,.47-2.14,1.59,1.59,0,0,1,1.47-.76,1.56,1.56,0,0,1,1.46.76,4.14,4.14,0,0,1,.47,2.14,4.16,4.16,0,0,1-.47,2.15A1.56,1.56,0,0,1,295.37,34.33Zm0-.6a1.1,1.1,0,0,0,.56-.13,1,1,0,0,0,.38-.39,2.19,2.19,0,0,0,.21-.58,3.54,3.54,0,0,0,.07-.75V31a3.54,3.54,0,0,0-.07-.75,2.19,2.19,0,0,0-.21-.58,1,1,0,0,0-.38-.39,1.1,1.1,0,0,0-.56-.13,1.14,1.14,0,0,0-.57.13,1.09,1.09,0,0,0-.38.39,2.19,2.19,0,0,0-.21.58,4.35,4.35,0,0,0-.07.75v.91a4.35,4.35,0,0,0,.07.75,2.19,2.19,0,0,0,.21.58,1.09,1.09,0,0,0,.38.39A1.14,1.14,0,0,0,295.37,33.73Z"/>
    <path d="M299.88,31a1.21,1.21,0,0,0,.86-.26.85.85,0,0,0,.28-.67V30a.82.82,0,0,0-.27-.67,1.19,1.19,0,0,0-.73-.21,1.27,1.27,0,0,0-.71.18,1.53,1.53,0,0,0-.45.52l-.5-.39a1.91,1.91,0,0,1,.25-.33,1.64,1.64,0,0,1,.35-.29,1.68,1.68,0,0,1,.47-.21,2.23,2.23,0,0,1,.6-.08,2.41,2.41,0,0,1,.67.09,1.66,1.66,0,0,1,.55.27,1.33,1.33,0,0,1,.36.45,1.26,1.26,0,0,1,.13.6,1.53,1.53,0,0,1-.08.49,1.37,1.37,0,0,1-.23.37,1.39,1.39,0,0,1-.35.28,1.52,1.52,0,0,1-.42.16v0a1.76,1.76,0,0,1,.44.15,1.53,1.53,0,0,1,.38.29,1.11,1.11,0,0,1,.26.42,1.4,1.4,0,0,1,.1.56,1.67,1.67,0,0,1-.13.67,1.39,1.39,0,0,1-.39.51,1.68,1.68,0,0,1-.6.34,2.45,2.45,0,0,1-.78.12,2.57,2.57,0,0,1-.65-.08,2,2,0,0,1-.5-.21,2.43,2.43,0,0,1-.67-.66l.51-.39a1.89,1.89,0,0,0,.22.31,1.49,1.49,0,0,0,.28.23,1,1,0,0,0,.35.15,1.55,1.55,0,0,0,.45,0,1.31,1.31,0,0,0,.9-.27,1,1,0,0,0,.31-.77v-.07a1,1,0,0,0-.31-.77,1.31,1.31,0,0,0-.9-.27h-.66V31Z"/>
    <path d="M305,34.33a1.94,1.94,0,0,1-.78-.15,1.62,1.62,0,0,1-.6-.43,1.78,1.78,0,0,1-.37-.68,2.75,2.75,0,0,1-.13-.9,3.79,3.79,0,0,1,.18-1.18,5.14,5.14,0,0,1,.48-1,4.81,4.81,0,0,1,.65-.81,4.59,4.59,0,0,1,.69-.56H306a8,8,0,0,0-.8.64,4.18,4.18,0,0,0-.62.65,3.68,3.68,0,0,0-.45.73,3.79,3.79,0,0,0-.3.88l0,0a1.92,1.92,0,0,1,.52-.58,1.41,1.41,0,0,1,.83-.23,1.81,1.81,0,0,1,.67.12,1.45,1.45,0,0,1,.52.35,1.46,1.46,0,0,1,.34.55,1.81,1.81,0,0,1,.13.72,2.27,2.27,0,0,1-.13.75,1.71,1.71,0,0,1-.38.59,1.81,1.81,0,0,1-.59.38A2.11,2.11,0,0,1,305,34.33Zm0-.6a1.21,1.21,0,0,0,.87-.3,1.18,1.18,0,0,0,.31-.88v-.06a1.17,1.17,0,0,0-.31-.88,1.21,1.21,0,0,0-.87-.31,1.19,1.19,0,0,0-.86.31,1.17,1.17,0,0,0-.31.88v.06A1.06,1.06,0,0,0,305,33.73Z"/>
  </g>
  <g>
    <path d="M314.45,34.23v-.59H316V29.12h0l-1.42,1.31-.39-.42,1.48-1.39h1.06v5h1.45v.59Z"/>
    <path d="M321,34.33a1.59,1.59,0,0,1-1.47-.76,4.16,4.16,0,0,1-.46-2.15,4.15,4.15,0,0,1,.46-2.14,1.8,1.8,0,0,1,2.94,0,4.15,4.15,0,0,1,.46,2.14,4.16,4.16,0,0,1-.46,2.15A1.59,1.59,0,0,1,321,34.33Zm0-.6a1.08,1.08,0,0,0,.56-.13,1,1,0,0,0,.38-.39,1.66,1.66,0,0,0,.21-.58,3.54,3.54,0,0,0,.07-.75V31a3.54,3.54,0,0,0-.07-.75,1.66,1.66,0,0,0-.21-.58,1,1,0,0,0-.38-.39,1.08,1.08,0,0,0-.56-.13,1.14,1.14,0,0,0-.57.13,1,1,0,0,0-.37.39,1.89,1.89,0,0,0-.22.58,4.38,4.38,0,0,0-.06.75v.91a4.38,4.38,0,0,0,.06.75,1.89,1.89,0,0,0,.22.58,1,1,0,0,0,.37.39A1.14,1.14,0,0,0,321,33.73Z"/>
    <path d="M326.42,34.23v-1.1h-2.71v-.59l2.35-3.92h1v3.95h.81v.56h-.81v1.1Zm-2.08-1.66h2.08V29.14h0Z"/>
    <path d="M330.65,34.33a1.59,1.59,0,0,1-1.47-.76,4.16,4.16,0,0,1-.47-2.15,4.14,4.14,0,0,1,.47-2.14,1.8,1.8,0,0,1,2.94,0,4.25,4.25,0,0,1,.46,2.14,4.27,4.27,0,0,1-.46,2.15A1.59,1.59,0,0,1,330.65,34.33Zm0-.6a1.1,1.1,0,0,0,.56-.13,1,1,0,0,0,.38-.39,1.66,1.66,0,0,0,.21-.58,3.54,3.54,0,0,0,.07-.75V31a3.54,3.54,0,0,0-.07-.75,1.66,1.66,0,0,0-.21-.58,1,1,0,0,0-.38-.39,1.1,1.1,0,0,0-.56-.13,1.14,1.14,0,0,0-.57.13,1,1,0,0,0-.37.39,1.89,1.89,0,0,0-.22.58,4.35,4.35,0,0,0-.07.75v.91a4.35,4.35,0,0,0,.07.75,1.89,1.89,0,0,0,.22.58,1,1,0,0,0,.37.39A1.14,1.14,0,0,0,330.65,33.73Z"/>
  </g>
</svg>
