<svg id="Camada_1" data-name="Camada 1" xmlns="http://www.w3.org/2000/svg" viewBox="0 0 285.95 57.45"><defs><style>.cls-1{opacity:0.75;}.cls-2{fill:#fff;}.cls-3{fill:#b9ef92;}.cls-4{fill:#2e7bf7;}.cls-5{fill:#6032fe;}.cls-6{fill:#1e91f3;}.cls-7{fill:#14cae5;}.cls-8{fill:#24d8df;}.cls-9{fill:#54f6cb;}.cls-10{fill:#67fcc2;}.cls-11{fill:#96fca7;}.cls-12{fill:#d9da7d;}.cls-13{fill:#e8cb72;}.cls-14{fill:#ff934d;}.cls-15{fill:#ff7e41;}.cls-16{fill:#ff351b;}.cls-17{fill:red;}.cls-18{fill:#7019ff;}</style></defs><title>LEGENDAS_PÁGINA_CLIMA_MAIORES</title><g class="cls-1"><path class="cls-2" d="M0,6.38A6.37,6.37,0,0,1,6.35,0H279.59A6.37,6.37,0,0,1,286,6.38V51.07a6.37,6.37,0,0,1-6.36,6.38H6.35A6.37,6.37,0,0,1,0,51.07Z"/></g><path class="cls-3" d="M171.38,23h-5.47a2,2,0,0,1-2.11-2V10.13a2,2,0,0,1,2.11-2h5.47a2,2,0,0,1,2.11,2V21.06A2,2,0,0,1,171.38,23Z"/><path class="cls-4" d="M51.79,23H46.33a2,2,0,0,1-2.11-2V10.13a2,2,0,0,1,2.11-2h5.46a2,2,0,0,1,2.11,2V21.06A2,2,0,0,1,51.79,23Z"/><path class="cls-5" d="M34.71,23H29.24a2,2,0,0,1-2.1-2V10.13a2,2,0,0,1,2.1-2h5.47a2,2,0,0,1,2.11,2V21.06A2,2,0,0,1,34.71,23Z"/><path class="cls-6" d="M68.88,23H63.41a2,2,0,0,1-2.11-2V10.13a2,2,0,0,1,2.11-2h5.47a2,2,0,0,1,2.11,2V21.06A2,2,0,0,1,68.88,23Z"/><path class="cls-7" d="M86,23H80.49a2,2,0,0,1-2.1-2V10.13a2,2,0,0,1,2.1-2H86a2,2,0,0,1,2.11,2V21.06A2,2,0,0,1,86,23Z"/><path class="cls-8" d="M103,23H97.58a2,2,0,0,1-2.11-2V10.13a2,2,0,0,1,2.11-2H103a2,2,0,0,1,2.11,2V21.06A2,2,0,0,1,103,23Z"/><path class="cls-9" d="M120.13,23h-5.47a2,2,0,0,1-2.11-2V10.13a2,2,0,0,1,2.11-2h5.47a2,2,0,0,1,2.11,2V21.06A2,2,0,0,1,120.13,23Z"/><path class="cls-10" d="M137.21,23h-5.47a2,2,0,0,1-2.1-2V10.13a2,2,0,0,1,2.1-2h5.47a2,2,0,0,1,2.11,2V21.06A2,2,0,0,1,137.21,23Z"/><path class="cls-11" d="M154.29,23h-5.46a2,2,0,0,1-2.11-2V10.13a2,2,0,0,1,2.11-2h5.46a2,2,0,0,1,2.11,2V21.06A2,2,0,0,1,154.29,23Z"/><path class="cls-12" d="M188.46,23H183a2,2,0,0,1-2.1-2V10.13a2,2,0,0,1,2.1-2h5.47a2,2,0,0,1,2.11,2V21.06A2,2,0,0,1,188.46,23Z"/><path class="cls-13" d="M205.54,23h-5.46a2,2,0,0,1-2.11-2V10.13a2,2,0,0,1,2.11-2h5.46a2,2,0,0,1,2.11,2V21.06A2,2,0,0,1,205.54,23Z"/><path class="cls-14" d="M222.63,23h-5.47a2,2,0,0,1-2.11-2V10.13a2,2,0,0,1,2.11-2h5.47a2,2,0,0,1,2.11,2V21.06A2,2,0,0,1,222.63,23Z"/><path class="cls-15" d="M239.79,23h-5.47a2,2,0,0,1-2.11-2V10.13a2,2,0,0,1,2.11-2h5.47a2,2,0,0,1,2.11,2V21.06A2,2,0,0,1,239.79,23Z"/><path class="cls-16" d="M257,23h-5.47a2,2,0,0,1-2.11-2V10.13a2,2,0,0,1,2.11-2H257a2,2,0,0,1,2.11,2V21.06A2,2,0,0,1,257,23Z"/><path class="cls-17" d="M274.11,23h-5.47a2,2,0,0,1-2.11-2V10.13a2,2,0,0,1,2.11-2h5.47a2,2,0,0,1,2.11,2V21.06A2,2,0,0,1,274.11,23Z"/><path class="cls-18" d="M17.63,23H12.16a2,2,0,0,1-2.11-2V10.13a2,2,0,0,1,2.11-2h5.47a2,2,0,0,1,2.11,2V21.06A2,2,0,0,1,17.63,23Z"/><path d="M65.38,44.41v5.92h-.79V44.41H62.48V43.7h5v.71Z"/><path d="M69.73,50.45a2.19,2.19,0,0,1-.9-.18,2.1,2.1,0,0,1-.7-.52,2.44,2.44,0,0,1-.44-.81,3.56,3.56,0,0,1,0-2.11,2.25,2.25,0,0,1,.44-.81,2,2,0,0,1,.7-.52,2.19,2.19,0,0,1,.9-.18,2.11,2.11,0,0,1,.89.18,1.9,1.9,0,0,1,.66.49,2.27,2.27,0,0,1,.43.76,3.21,3.21,0,0,1,.14,1v.36H68.33v.23a1.57,1.57,0,0,0,.1.58,1.52,1.52,0,0,0,.28.48,1.49,1.49,0,0,0,.46.31,1.66,1.66,0,0,0,.61.11,1.45,1.45,0,0,0,.81-.22,1.37,1.37,0,0,0,.54-.62l.54.39a1.88,1.88,0,0,1-.74.82A2.28,2.28,0,0,1,69.73,50.45Zm0-4.5a1.56,1.56,0,0,0-.57.11,1.35,1.35,0,0,0-.44.31,1.49,1.49,0,0,0-.29.47,1.59,1.59,0,0,0-.1.59v.06H71v-.1a1.46,1.46,0,0,0-.36-1A1.2,1.2,0,0,0,69.73,46Z"/><path d="M73.11,50.33v-4.9h.76v.79h0a2,2,0,0,1,.19-.35,1.06,1.06,0,0,1,.27-.29,1,1,0,0,1,.36-.19,1.51,1.51,0,0,1,.5-.07,1.71,1.71,0,0,1,.89.23,1.4,1.4,0,0,1,.61.76h0a1.45,1.45,0,0,1,.49-.7,1.61,1.61,0,0,1,1-.29,1.45,1.45,0,0,1,1.17.49,2,2,0,0,1,.42,1.38v3.14h-.76v-3a1.61,1.61,0,0,0-.25-1A1,1,0,0,0,78,46a1.49,1.49,0,0,0-.43.06,1.14,1.14,0,0,0-.37.17.78.78,0,0,0-.25.29.8.8,0,0,0-.1.41v3.41h-.76v-3a1.6,1.6,0,0,0-.26-1A.91.91,0,0,0,75,46a1.56,1.56,0,0,0-.44.06,1.14,1.14,0,0,0-.37.17.83.83,0,0,0-.36.7v3.41Z"/><path d="M81.4,45.43h.76v.79h0a1.4,1.4,0,0,1,.55-.68,1.67,1.67,0,0,1,.88-.22,1.87,1.87,0,0,1,.83.18,1.73,1.73,0,0,1,.63.51,2.2,2.2,0,0,1,.4.81,3.83,3.83,0,0,1,.14,1.06A3.91,3.91,0,0,1,85.49,49a2.23,2.23,0,0,1-.4.8,1.66,1.66,0,0,1-.63.52,1.87,1.87,0,0,1-.83.18,1.48,1.48,0,0,1-1.43-.91h0v2.69H81.4Zm2,4.34a1.32,1.32,0,0,0,1-.4,1.52,1.52,0,0,0,.37-1.07v-.84a1.49,1.49,0,0,0-.37-1.06,1.33,1.33,0,0,0-1-.41,2,2,0,0,0-.49.07,1.5,1.5,0,0,0-.4.2,1,1,0,0,0-.27.3.72.72,0,0,0-.1.38v1.83a.88.88,0,0,0,.1.43,1.14,1.14,0,0,0,.27.31,1.25,1.25,0,0,0,.4.2A2,2,0,0,0,83.42,49.77Z"/><path d="M88.75,50.45a2.19,2.19,0,0,1-.9-.18,2.1,2.1,0,0,1-.7-.52,2.44,2.44,0,0,1-.44-.81,3.56,3.56,0,0,1,0-2.11,2.25,2.25,0,0,1,.44-.81,2,2,0,0,1,.7-.52,2.19,2.19,0,0,1,.9-.18,2.11,2.11,0,0,1,.89.18,1.9,1.9,0,0,1,.66.49,2.09,2.09,0,0,1,.42.76,2.91,2.91,0,0,1,.15,1v.36H87.35v.23a1.57,1.57,0,0,0,.1.58,1.35,1.35,0,0,0,.28.48,1.49,1.49,0,0,0,.46.31,1.66,1.66,0,0,0,.61.11,1.45,1.45,0,0,0,.81-.22,1.43,1.43,0,0,0,.54-.62l.54.39a1.88,1.88,0,0,1-.74.82A2.33,2.33,0,0,1,88.75,50.45Zm0-4.5a1.48,1.48,0,0,0-.57.11,1.35,1.35,0,0,0-.44.31,1.49,1.49,0,0,0-.29.47,1.59,1.59,0,0,0-.1.59v.06h2.7v-.1a1.46,1.46,0,0,0-.35-1A1.2,1.2,0,0,0,88.75,46Z"/><path d="M92.13,50.33v-4.9h.76v.9h0a1.47,1.47,0,0,1,.48-.62,1.42,1.42,0,0,1,.94-.28h.29v.76H94.2a1.78,1.78,0,0,0-1,.23.69.69,0,0,0-.34.59v3.32Z"/><path d="M99.14,50.33a.77.77,0,0,1-.62-.22,1.21,1.21,0,0,1-.23-.57h-.05a1.22,1.22,0,0,1-.53.68,1.67,1.67,0,0,1-.88.23,1.75,1.75,0,0,1-1.21-.4A1.42,1.42,0,0,1,95.18,49a1.23,1.23,0,0,1,.51-1.06,2.69,2.69,0,0,1,1.58-.37h1v-.48a1.05,1.05,0,0,0-.28-.8,1.18,1.18,0,0,0-.87-.28,1.35,1.35,0,0,0-.75.2,1.69,1.69,0,0,0-.5.53l-.46-.42A1.73,1.73,0,0,1,96,45.6a2,2,0,0,1,1.1-.28,2,2,0,0,1,1.39.43A1.54,1.54,0,0,1,99,47v2.69h.56v.67ZM97,49.8a1.68,1.68,0,0,0,.52-.07,1,1,0,0,0,.41-.19.8.8,0,0,0,.27-.28.7.7,0,0,0,.09-.35V48.1h-1a1.82,1.82,0,0,0-1,.19.62.62,0,0,0-.3.55V49a.67.67,0,0,0,.26.56A1.17,1.17,0,0,0,97,49.8Z"/><path d="M101.73,50.33a.75.75,0,0,1-.6-.22.81.81,0,0,1-.21-.58V46.11h-.8v-.68h.45a.43.43,0,0,0,.34-.1A.53.53,0,0,0,101,45v-.91h.68v1.36h1.08v.68h-1.08v3.55h1v.67Z"/><path d="M107,49.54h0a2.21,2.21,0,0,1-.18.34,1.23,1.23,0,0,1-.27.29,1.43,1.43,0,0,1-.39.2,1.69,1.69,0,0,1-.53.08,1.58,1.58,0,0,1-1.21-.49,2,2,0,0,1-.45-1.38V45.43h.76v3c0,.88.38,1.32,1.12,1.32a2.22,2.22,0,0,0,.45-.05,1.21,1.21,0,0,0,.38-.18.73.73,0,0,0,.26-.29.79.79,0,0,0,.1-.42v-3.4h.76v4.9H107Z"/><path d="M109.38,50.33v-4.9h.76v.9h0a1.47,1.47,0,0,1,.48-.62,1.42,1.42,0,0,1,.94-.28h.29v.76h-.44a1.78,1.78,0,0,0-1,.23.69.69,0,0,0-.34.59v3.32Z"/><path d="M116.39,50.33a.77.77,0,0,1-.62-.22,1.21,1.21,0,0,1-.23-.57h-.05a1.22,1.22,0,0,1-.53.68,1.65,1.65,0,0,1-.88.23,1.75,1.75,0,0,1-1.21-.4,1.41,1.41,0,0,1-.43-1.09,1.23,1.23,0,0,1,.5-1.06,2.7,2.7,0,0,1,1.59-.37h1v-.48a1.05,1.05,0,0,0-.28-.8,1.18,1.18,0,0,0-.87-.28,1.35,1.35,0,0,0-.75.2,1.69,1.69,0,0,0-.5.53l-.46-.42a1.73,1.73,0,0,1,.64-.68,2,2,0,0,1,1.1-.28,2,2,0,0,1,1.39.43,1.54,1.54,0,0,1,.49,1.22v2.69h.57v.67Zm-2.19-.53a1.68,1.68,0,0,0,.52-.07,1,1,0,0,0,.41-.19.8.8,0,0,0,.27-.28.7.7,0,0,0,.09-.35V48.1h-1a1.82,1.82,0,0,0-1,.19.62.62,0,0,0-.3.55V49a.65.65,0,0,0,.27.56A1.14,1.14,0,0,0,114.2,49.8Z"/><path d="M123.28,49.54h0a1.5,1.5,0,0,1-1.44.91,1.83,1.83,0,0,1-.82-.18,1.77,1.77,0,0,1-.64-.52A2.39,2.39,0,0,1,120,49a3.56,3.56,0,0,1-.14-1.07,3.49,3.49,0,0,1,.14-1.06,2.35,2.35,0,0,1,.39-.81,1.86,1.86,0,0,1,.64-.51,1.83,1.83,0,0,1,.82-.18,1.64,1.64,0,0,1,.88.22,1.37,1.37,0,0,1,.56.68h0V43.3H124v7h-.76Zm-1.27.23a1.93,1.93,0,0,0,.49-.06,1.31,1.31,0,0,0,.41-.2,1.14,1.14,0,0,0,.27-.31,1,1,0,0,0,.1-.43V46.94a.83.83,0,0,0-.1-.38,1,1,0,0,0-.27-.3,1.56,1.56,0,0,0-.41-.2A1.93,1.93,0,0,0,122,46a1.29,1.29,0,0,0-1,.41,1.49,1.49,0,0,0-.37,1.06v.84a1.52,1.52,0,0,0,.37,1.07A1.28,1.28,0,0,0,122,49.77Z"/><path d="M129.21,50.33a.75.75,0,0,1-.61-.22,1.21,1.21,0,0,1-.23-.57h-.05a1.26,1.26,0,0,1-.53.68,1.68,1.68,0,0,1-.89.23,1.75,1.75,0,0,1-1.21-.4,1.41,1.41,0,0,1-.43-1.09,1.23,1.23,0,0,1,.51-1.06,2.67,2.67,0,0,1,1.58-.37h1v-.48a1.09,1.09,0,0,0-.28-.8,1.22,1.22,0,0,0-.88-.28,1.29,1.29,0,0,0-.74.2,1.69,1.69,0,0,0-.5.53l-.46-.42a1.66,1.66,0,0,1,.64-.68,2,2,0,0,1,1.1-.28,2,2,0,0,1,1.39.43,1.54,1.54,0,0,1,.49,1.22v2.69h.56v.67ZM127,49.8a1.72,1.72,0,0,0,.52-.07,1.11,1.11,0,0,0,.41-.19.86.86,0,0,0,.26-.28.62.62,0,0,0,.1-.35V48.1h-1a1.8,1.8,0,0,0-1,.19.62.62,0,0,0-.3.55V49a.67.67,0,0,0,.26.56A1.15,1.15,0,0,0,127,49.8Z"/><path d="M134.9,50.45a2.74,2.74,0,0,1-2.34-1.16l.59-.5a2.56,2.56,0,0,0,.77.71,2.07,2.07,0,0,0,1,.24A1.55,1.55,0,0,0,136,49.4a1.18,1.18,0,0,0,.38-.91.93.93,0,0,0-.29-.73,2.12,2.12,0,0,0-.94-.41l-.54-.12a3.05,3.05,0,0,1-1.39-.64,1.49,1.49,0,0,1-.48-1.19,1.65,1.65,0,0,1,.61-1.35,2,2,0,0,1,.69-.34,3.14,3.14,0,0,1,.89-.12,2.86,2.86,0,0,1,1.29.27,2.6,2.6,0,0,1,.91.81l-.6.44a2.25,2.25,0,0,0-.67-.6,1.91,1.91,0,0,0-1-.22,1.65,1.65,0,0,0-1,.27,1,1,0,0,0-.37.81.87.87,0,0,0,.31.72,2.53,2.53,0,0,0,.94.39l.54.12a2.85,2.85,0,0,1,1.42.66,1.64,1.64,0,0,1,.43,1.19,2.19,2.19,0,0,1-.15.83,1.91,1.91,0,0,1-.45.63,2.08,2.08,0,0,1-.72.39A2.85,2.85,0,0,1,134.9,50.45Z"/><path d="M141.51,49.54h0a1.63,1.63,0,0,1-.19.34,1.23,1.23,0,0,1-.27.29,1.43,1.43,0,0,1-.39.2,1.69,1.69,0,0,1-.53.08,1.58,1.58,0,0,1-1.21-.49,2,2,0,0,1-.44-1.38V45.43h.76v3c0,.88.37,1.32,1.12,1.32a2.12,2.12,0,0,0,.44-.05,1.21,1.21,0,0,0,.38-.18.84.84,0,0,0,.27-.29.9.9,0,0,0,.1-.42v-3.4h.76v4.9h-.76Z"/><path d="M143.88,45.43h.76v.79h0a1.4,1.4,0,0,1,.55-.68,1.67,1.67,0,0,1,.88-.22,1.87,1.87,0,0,1,.83.18,1.73,1.73,0,0,1,.63.51,2.2,2.2,0,0,1,.4.81,3.83,3.83,0,0,1,.14,1.06A3.91,3.91,0,0,1,148,49a2.23,2.23,0,0,1-.4.8,1.66,1.66,0,0,1-.63.52,1.87,1.87,0,0,1-.83.18,1.48,1.48,0,0,1-1.43-.91h0v2.69h-.76Zm2,4.34a1.3,1.3,0,0,0,1-.4,1.52,1.52,0,0,0,.37-1.07v-.84a1.49,1.49,0,0,0-.37-1.06,1.31,1.31,0,0,0-1-.41,1.85,1.85,0,0,0-.48.07,1.56,1.56,0,0,0-.41.2,1,1,0,0,0-.27.3.72.72,0,0,0-.1.38v1.83a.88.88,0,0,0,.1.43,1.14,1.14,0,0,0,.27.31,1.31,1.31,0,0,0,.41.2A1.86,1.86,0,0,0,145.9,49.77Z"/><path d="M151.23,50.45a2.19,2.19,0,0,1-.9-.18,2.1,2.1,0,0,1-.7-.52,2.44,2.44,0,0,1-.44-.81,3.56,3.56,0,0,1,0-2.11,2.25,2.25,0,0,1,.44-.81,2,2,0,0,1,.7-.52,2.19,2.19,0,0,1,.9-.18,2.11,2.11,0,0,1,.89.18,1.9,1.9,0,0,1,.66.49,2.27,2.27,0,0,1,.43.76,3.21,3.21,0,0,1,.14,1v.36h-3.52v.23a1.57,1.57,0,0,0,.1.58,1.35,1.35,0,0,0,.28.48,1.49,1.49,0,0,0,.46.31,1.66,1.66,0,0,0,.61.11,1.45,1.45,0,0,0,.81-.22,1.43,1.43,0,0,0,.54-.62l.54.39a1.88,1.88,0,0,1-.74.82A2.3,2.3,0,0,1,151.23,50.45Zm0-4.5a1.52,1.52,0,0,0-.57.11,1.35,1.35,0,0,0-.44.31,1.49,1.49,0,0,0-.29.47,1.59,1.59,0,0,0-.1.59v.06h2.71v-.1a1.46,1.46,0,0,0-.36-1A1.2,1.2,0,0,0,151.23,46Z"/><path d="M154.61,50.33v-4.9h.76v.9h0a1.47,1.47,0,0,1,.48-.62,1.42,1.42,0,0,1,.94-.28h.29v.76h-.44a1.78,1.78,0,0,0-1,.23.69.69,0,0,0-.34.59v3.32Z"/><path d="M158.4,46.11h-.8v-.68h.8v-1a1.26,1.26,0,0,1,.26-.82,1,1,0,0,1,.81-.32h.74V44h-1.05v1.45h1.05v.68h-1.05v4.22h-.76Z"/><path d="M161.67,44.78l-.5-.23.81-1.62.69.34Zm-.46,5.55v-4.9H162v4.9Z"/><path d="M165.41,50.45a2.25,2.25,0,0,1-.92-.18,1.71,1.71,0,0,1-.69-.52,2.28,2.28,0,0,1-.43-.8,3.55,3.55,0,0,1-.15-1.07,3.48,3.48,0,0,1,.15-1.06,2.24,2.24,0,0,1,.43-.81,1.78,1.78,0,0,1,.69-.51,2.25,2.25,0,0,1,.92-.18,1.89,1.89,0,0,1,1.17.32,1.8,1.8,0,0,1,.66.83l-.64.32a1.13,1.13,0,0,0-.43-.59,1.33,1.33,0,0,0-.76-.21,1.57,1.57,0,0,0-.6.11,1.18,1.18,0,0,0-.68.77,1.87,1.87,0,0,0-.09.59v.84a1.61,1.61,0,0,0,.35,1.06,1.27,1.27,0,0,0,1,.41,1.38,1.38,0,0,0,1.33-.85l.55.37a2,2,0,0,1-.71.84A2,2,0,0,1,165.41,50.45Z"/><path d="M168.74,44.28a.45.45,0,0,1-.35-.12.41.41,0,0,1-.11-.31v-.12a.41.41,0,0,1,.11-.31.45.45,0,0,1,.35-.12.46.46,0,0,1,.36.12.45.45,0,0,1,.11.31v.12a.45.45,0,0,1-.11.31A.46.46,0,0,1,168.74,44.28Zm-.38,1.15h.76v4.9h-.76Z"/><path d="M172.58,50.45a2.21,2.21,0,0,1-.91-.18,2,2,0,0,1-.69-.52,2.65,2.65,0,0,1-.45-.81,3.79,3.79,0,0,1,0-2.11A2.43,2.43,0,0,1,171,46a1.86,1.86,0,0,1,.69-.52,2.21,2.21,0,0,1,.91-.18,2.07,2.07,0,0,1,.88.18,1.94,1.94,0,0,1,.67.49,2.44,2.44,0,0,1,.42.76,2.91,2.91,0,0,1,.15,1v.36h-3.53v.23a1.81,1.81,0,0,0,.1.58,1.54,1.54,0,0,0,.29.48,1.34,1.34,0,0,0,.45.31,1.75,1.75,0,0,0,.62.11,1.45,1.45,0,0,0,.81-.22,1.43,1.43,0,0,0,.54-.62l.54.39a2,2,0,0,1-.74.82A2.33,2.33,0,0,1,172.58,50.45Zm0-4.5a1.48,1.48,0,0,0-.57.11,1.25,1.25,0,0,0-.44.31,1.49,1.49,0,0,0-.29.47,1.59,1.59,0,0,0-.11.59v.06h2.71v-.1a1.5,1.5,0,0,0-.35-1A1.21,1.21,0,0,0,172.58,46Z"/><path d="M181.33,49.54h0a1.49,1.49,0,0,1-1.43.91,1.87,1.87,0,0,1-.83-.18,1.66,1.66,0,0,1-.63-.52,2.4,2.4,0,0,1-.4-.8,3.91,3.91,0,0,1-.14-1.07,3.83,3.83,0,0,1,.14-1.06,2.36,2.36,0,0,1,.4-.81,1.73,1.73,0,0,1,.63-.51,1.87,1.87,0,0,1,.83-.18,1.67,1.67,0,0,1,.88.22,1.35,1.35,0,0,1,.55.68h0V43.3h.76v7h-.76Zm-1.26.23a2,2,0,0,0,.49-.06,1.25,1.25,0,0,0,.4-.2,1.14,1.14,0,0,0,.27-.31.88.88,0,0,0,.1-.43V46.94a.72.72,0,0,0-.1-.38,1,1,0,0,0-.27-.3,1.5,1.5,0,0,0-.4-.2,2,2,0,0,0-.49-.07,1.33,1.33,0,0,0-1,.41,1.49,1.49,0,0,0-.37,1.06v.84a1.52,1.52,0,0,0,.37,1.07A1.32,1.32,0,0,0,180.07,49.77Z"/><path d="M185.56,50.45a2.19,2.19,0,0,1-.9-.18,1.92,1.92,0,0,1-.7-.52,2.29,2.29,0,0,1-.45-.81,3.36,3.36,0,0,1,0-2.11A2.13,2.13,0,0,1,184,46a1.81,1.81,0,0,1,.7-.52,2.34,2.34,0,0,1,1.8,0,1.94,1.94,0,0,1,.69.52,2.29,2.29,0,0,1,.46.81,3.56,3.56,0,0,1,0,2.11,2.48,2.48,0,0,1-.46.81,2.06,2.06,0,0,1-.69.52A2.19,2.19,0,0,1,185.56,50.45Zm0-.68a1.34,1.34,0,0,0,1-.38,1.55,1.55,0,0,0,.39-1.16v-.7a1.55,1.55,0,0,0-.39-1.16,1.38,1.38,0,0,0-1-.38,1.41,1.41,0,0,0-1,.38,1.55,1.55,0,0,0-.39,1.16v.7a1.55,1.55,0,0,0,.39,1.16A1.36,1.36,0,0,0,185.56,49.77Z"/><path d="M196.51,44.75h0l-.56,1.11-1.58,2.89-1.59-2.89-.56-1.11h0v5.58h-.78V43.7h1.07l1.9,3.57h0l1.91-3.57h1v6.63h-.78Z"/><path d="M202.54,50.33a.75.75,0,0,1-.61-.22,1.21,1.21,0,0,1-.23-.57h0a1.26,1.26,0,0,1-.53.68,1.67,1.67,0,0,1-.88.23,1.77,1.77,0,0,1-1.22-.4,1.45,1.45,0,0,1-.43-1.09,1.23,1.23,0,0,1,.51-1.06,2.69,2.69,0,0,1,1.58-.37h1v-.48a1.05,1.05,0,0,0-.28-.8,1.21,1.21,0,0,0-.88-.28,1.32,1.32,0,0,0-.74.2,1.69,1.69,0,0,0-.5.53l-.46-.42a1.66,1.66,0,0,1,.64-.68,2,2,0,0,1,1.1-.28,2,2,0,0,1,1.39.43,1.54,1.54,0,0,1,.49,1.22v2.69H203v.67Zm-2.18-.53a1.72,1.72,0,0,0,.52-.07,1,1,0,0,0,.41-.19,1,1,0,0,0,.27-.28.7.7,0,0,0,.09-.35V48.1h-1a1.8,1.8,0,0,0-.95.19.62.62,0,0,0-.3.55V49a.67.67,0,0,0,.26.56A1.17,1.17,0,0,0,200.36,49.8Z"/><path d="M204.05,50.33v-4.9h.76v.9h.05a1.47,1.47,0,0,1,.48-.62,1.42,1.42,0,0,1,.94-.28h.29v.76h-.44a1.76,1.76,0,0,0-1,.23.7.7,0,0,0-.35.59v3.32Z"/><path d="M209.76,47.37a6.28,6.28,0,0,1,.14-1.32,6.53,6.53,0,0,1,.36-1.18,5.61,5.61,0,0,1,.55-1,4.55,4.55,0,0,1,.67-.76h.73a4.7,4.7,0,0,0-.72.82,6,6,0,0,0-.89,2,4.73,4.73,0,0,0-.12,1v.82a4.66,4.66,0,0,0,.12,1,5.63,5.63,0,0,0,.35,1,6.2,6.2,0,0,0,.55,1,4.16,4.16,0,0,0,.71.79h-.73a3.72,3.72,0,0,1-.66-.74,5.51,5.51,0,0,1-.55-1,7,7,0,0,1-.37-1.2A6.38,6.38,0,0,1,209.76,47.37Z"/><path d="M214.05,47a1.35,1.35,0,0,1-1.08-.45A2.23,2.23,0,0,1,213,44a1.52,1.52,0,0,1,2.16,0,2.23,2.23,0,0,1,0,2.52A1.35,1.35,0,0,1,214.05,47Zm0-.5a.73.73,0,0,0,.62-.25,1,1,0,0,0,.21-.67V45a1,1,0,0,0-.21-.66.87.87,0,0,0-1.24,0,1,1,0,0,0-.21.66v.59a1,1,0,0,0,.21.67A.73.73,0,0,0,214.05,46.51Z"/><path d="M219.16,50.45a2.42,2.42,0,0,1-2-.86,3.93,3.93,0,0,1-.7-2.53,4.06,4.06,0,0,1,.7-2.57,2.36,2.36,0,0,1,2-.9A2.31,2.31,0,0,1,221.44,45l-.65.39a1.85,1.85,0,0,0-.6-.82,1.66,1.66,0,0,0-1-.31,1.84,1.84,0,0,0-.76.16,1.53,1.53,0,0,0-.57.47,2,2,0,0,0-.36.71,3.38,3.38,0,0,0-.12.93v1a2.43,2.43,0,0,0,.47,1.61,1.62,1.62,0,0,0,1.34.58,1.73,1.73,0,0,0,1.06-.32,1.86,1.86,0,0,0,.63-.87l.64.4a2.64,2.64,0,0,1-.9,1.1A2.55,2.55,0,0,1,219.16,50.45Z"/><path d="M224.23,47.37a5.77,5.77,0,0,1-.14,1.33,6.23,6.23,0,0,1-.37,1.2,4.93,4.93,0,0,1-.54,1,3.47,3.47,0,0,1-.67.74h-.72a4.49,4.49,0,0,0,.7-.79,7.12,7.12,0,0,0,.55-1,5.63,5.63,0,0,0,.35-1,4.15,4.15,0,0,0,.13-1V47a4.73,4.73,0,0,0-.12-1,6.69,6.69,0,0,0-.35-1,5.73,5.73,0,0,0-.54-1,4.7,4.7,0,0,0-.72-.82h.72a4.59,4.59,0,0,1,.68.76,5,5,0,0,1,.54,1,5.82,5.82,0,0,1,.37,1.18A6.29,6.29,0,0,1,224.23,47.37Z"/><path d="M23.35,36.15a1.86,1.86,0,0,1-1.73-.91,4.81,4.81,0,0,1-.55-2.52,4.82,4.82,0,0,1,.55-2.53,1.87,1.87,0,0,1,1.73-.9,1.9,1.9,0,0,1,1.74.9,4.93,4.93,0,0,1,.54,2.53,4.91,4.91,0,0,1-.54,2.52A1.88,1.88,0,0,1,23.35,36.15Zm0-.71a1.3,1.3,0,0,0,.67-.16,1.19,1.19,0,0,0,.44-.45,2.1,2.1,0,0,0,.25-.69,4,4,0,0,0,.09-.88V32.18a4,4,0,0,0-.09-.88,1.94,1.94,0,0,0-.25-.69,1.22,1.22,0,0,0-.44-.46,1.3,1.3,0,0,0-.67-.16,1.24,1.24,0,0,0-.66.16,1.17,1.17,0,0,0-.45.46,2.15,2.15,0,0,0-.25.69,4,4,0,0,0-.08.88v1.08a4.06,4.06,0,0,0,.08.88,2.35,2.35,0,0,0,.25.69,1.15,1.15,0,0,0,.45.45A1.24,1.24,0,0,0,23.35,35.44Z"/><path d="M58.34,36v-1.3h-3.2V34l2.78-4.63H59.1v4.67h1v.66h-1V36Zm-2.45-2h2.45V30h0Z"/><path d="M91.89,36.15a3,3,0,0,1-1-.15,2.08,2.08,0,0,1-.72-.4,1.76,1.76,0,0,1-.44-.61,1.94,1.94,0,0,1-.15-.76A1.5,1.5,0,0,1,90,33.15a1.93,1.93,0,0,1,1-.57v-.07a1.79,1.79,0,0,1-.83-.59,1.56,1.56,0,0,1-.31-1,1.48,1.48,0,0,1,.56-1.21,2.36,2.36,0,0,1,1.54-.45,2.39,2.39,0,0,1,1.55.45A1.47,1.47,0,0,1,94,31a1.5,1.5,0,0,1-.31,1,1.69,1.69,0,0,1-.83.59v.07a2,2,0,0,1,1,.57,1.49,1.49,0,0,1,.37,1.08,2.14,2.14,0,0,1-.14.76,1.76,1.76,0,0,1-.44.61,2.17,2.17,0,0,1-.72.4A3,3,0,0,1,91.89,36.15Zm0-.71a1.71,1.71,0,0,0,1.08-.3,1.09,1.09,0,0,0,.38-.88v-.2a1.05,1.05,0,0,0-.38-.87,1.65,1.65,0,0,0-1.08-.31,1.63,1.63,0,0,0-1.07.31,1.05,1.05,0,0,0-.38.87v.2a1.09,1.09,0,0,0,.38.88A1.68,1.68,0,0,0,91.89,35.44Zm0-3.23a1.44,1.44,0,0,0,1-.26,1,1,0,0,0,.33-.78V31a.92.92,0,0,0-.33-.77,1.44,1.44,0,0,0-1-.27,1.47,1.47,0,0,0-1,.27.94.94,0,0,0-.32.77v.14a1,1,0,0,0,.32.78A1.47,1.47,0,0,0,91.89,32.21Z"/><path d="M121.15,36v-.7H123V30h-.07l-1.67,1.56-.46-.5,1.75-1.65h1.25v5.93h1.71V36Z"/><path d="M131.08,36h-4.35v-.81l2.16-2a4.71,4.71,0,0,0,.78-.91,1.74,1.74,0,0,0,.31-1v-.11a1.32,1.32,0,0,0-.3-.9,1.19,1.19,0,0,0-.92-.34,1.44,1.44,0,0,0-.53.09,1.05,1.05,0,0,0-.4.23,1.36,1.36,0,0,0-.27.36,1.7,1.7,0,0,0-.18.44l-.71-.27a2.72,2.72,0,0,1,.26-.58,2,2,0,0,1,.42-.49,2,2,0,0,1,.6-.35,2.41,2.41,0,0,1,.85-.13,2.54,2.54,0,0,1,.86.14,1.88,1.88,0,0,1,.64.4,1.68,1.68,0,0,1,.39.61,2.13,2.13,0,0,1,.14.78,2.41,2.41,0,0,1-.11.72,2.6,2.6,0,0,1-.3.63,4,4,0,0,1-.46.58c-.18.19-.38.38-.58.57l-1.79,1.61h3.49Z"/><path d="M155.31,36v-.7h1.86V30h-.07l-1.67,1.56-.47-.5,1.76-1.65H158v5.93h1.71V36Z"/><path d="M163,36.15a2.34,2.34,0,0,1-.93-.18,2,2,0,0,1-.7-.5,2.25,2.25,0,0,1-.44-.81,3.48,3.48,0,0,1-.15-1.06,4.5,4.5,0,0,1,.21-1.39A5.69,5.69,0,0,1,161.6,31a6.09,6.09,0,0,1,.76-.95,5.76,5.76,0,0,1,.82-.67h1a11.69,11.69,0,0,0-1,.76,5.23,5.23,0,0,0-.73.77,5.16,5.16,0,0,0-.54.86,5.76,5.76,0,0,0-.35,1l.05,0a2.21,2.21,0,0,1,.61-.68,1.66,1.66,0,0,1,1-.27,2.21,2.21,0,0,1,.78.14,1.92,1.92,0,0,1,.62.41,2.06,2.06,0,0,1,.41.65,2.52,2.52,0,0,1,.14.85,2.56,2.56,0,0,1-.15.89,2.06,2.06,0,0,1-.45.69,2,2,0,0,1-.7.46A2.57,2.57,0,0,1,163,36.15Zm0-.71a1.27,1.27,0,0,0,1.39-1.39V34a1.45,1.45,0,0,0-2.41-1,1.35,1.35,0,0,0-.37,1v.08a1.35,1.35,0,0,0,.37,1A1.38,1.38,0,0,0,163,35.44Z"/><path d="M193.56,36h-4.35v-.81l2.16-2a4.71,4.71,0,0,0,.78-.91,1.74,1.74,0,0,0,.31-1v-.11a1.32,1.32,0,0,0-.3-.9,1.19,1.19,0,0,0-.92-.34,1.44,1.44,0,0,0-.53.09,1.13,1.13,0,0,0-.4.23,1.36,1.36,0,0,0-.27.36,2.14,2.14,0,0,0-.18.44l-.71-.27a2.72,2.72,0,0,1,.26-.58,2,2,0,0,1,.42-.49,1.91,1.91,0,0,1,.61-.35,2.32,2.32,0,0,1,.84-.13,2.54,2.54,0,0,1,.86.14,1.79,1.79,0,0,1,.64.4,1.68,1.68,0,0,1,.39.61,2.13,2.13,0,0,1,.14.78,2.41,2.41,0,0,1-.11.72,2.6,2.6,0,0,1-.3.63,4,4,0,0,1-.46.58c-.18.19-.37.38-.58.57l-1.79,1.61h3.49Z"/><path d="M197,36.15a1.86,1.86,0,0,1-1.73-.91,4.91,4.91,0,0,1-.55-2.52,4.92,4.92,0,0,1,.55-2.53,2.12,2.12,0,0,1,3.47,0,4.93,4.93,0,0,1,.54,2.53,4.91,4.91,0,0,1-.54,2.52A1.87,1.87,0,0,1,197,36.15Zm0-.71a1.22,1.22,0,0,0,1.12-.61,2.67,2.67,0,0,0,.25-.69,4.79,4.79,0,0,0,.08-.88V32.18a4.71,4.71,0,0,0-.08-.88,2.42,2.42,0,0,0-.25-.69,1.32,1.32,0,0,0-.45-.46A1.3,1.3,0,0,0,197,30a1.2,1.2,0,0,0-1.11.62,2.15,2.15,0,0,0-.25.69,4.71,4.71,0,0,0-.08.88v1.08a4.79,4.79,0,0,0,.08.88,2.35,2.35,0,0,0,.25.69,1.21,1.21,0,0,0,.45.45A1.24,1.24,0,0,0,197,35.44Z"/><path d="M227.76,36h-4.35v-.81l2.16-2a4.71,4.71,0,0,0,.78-.91,1.75,1.75,0,0,0,.32-1v-.11a1.33,1.33,0,0,0-.31-.9,1.19,1.19,0,0,0-.92-.34,1.44,1.44,0,0,0-.53.09,1.13,1.13,0,0,0-.4.23,1.36,1.36,0,0,0-.27.36,2.89,2.89,0,0,0-.18.44l-.71-.27a2.72,2.72,0,0,1,.26-.58,2,2,0,0,1,.42-.49,1.91,1.91,0,0,1,.61-.35,2.39,2.39,0,0,1,.84-.13,2.54,2.54,0,0,1,.86.14,1.79,1.79,0,0,1,.64.4,1.68,1.68,0,0,1,.39.61,1.94,1.94,0,0,1,.14.78,2.41,2.41,0,0,1-.11.72,2.6,2.6,0,0,1-.3.63,3.44,3.44,0,0,1-.46.58c-.18.19-.37.38-.58.57l-1.79,1.61h3.49Z"/><path d="M232,36v-1.3h-3.2V34l2.77-4.63h1.19v4.67h1v.66h-1V36Zm-2.45-2H232V30h-.05Z"/><path d="M262.1,36h-4.35v-.81l2.16-2a4.71,4.71,0,0,0,.78-.91,1.75,1.75,0,0,0,.32-1v-.11a1.33,1.33,0,0,0-.31-.9,1.19,1.19,0,0,0-.92-.34,1.44,1.44,0,0,0-.53.09,1.13,1.13,0,0,0-.4.23,1.36,1.36,0,0,0-.27.36,2.89,2.89,0,0,0-.18.44l-.71-.27a2.72,2.72,0,0,1,.26-.58,2,2,0,0,1,.42-.49,1.91,1.91,0,0,1,.61-.35,2.39,2.39,0,0,1,.84-.13,2.54,2.54,0,0,1,.86.14,1.79,1.79,0,0,1,.64.4,1.68,1.68,0,0,1,.39.61,1.94,1.94,0,0,1,.14.78,2.13,2.13,0,0,1-.11.72,2.6,2.6,0,0,1-.3.63,3.44,3.44,0,0,1-.46.58c-.18.19-.37.38-.58.57l-1.79,1.61h3.49Z"/><path d="M265.58,36.15a3,3,0,0,1-1-.15,2.08,2.08,0,0,1-.72-.4,1.76,1.76,0,0,1-.44-.61,1.94,1.94,0,0,1-.14-.76,1.49,1.49,0,0,1,.37-1.08,2,2,0,0,1,1-.57v-.07a1.77,1.77,0,0,1-.84-.59,1.56,1.56,0,0,1-.3-1,1.47,1.47,0,0,1,.55-1.21,2.88,2.88,0,0,1,3.09,0,1.47,1.47,0,0,1,.55,1.21,1.56,1.56,0,0,1-.3,1,1.77,1.77,0,0,1-.84.59v.07a2,2,0,0,1,1,.57,1.49,1.49,0,0,1,.37,1.08,2.14,2.14,0,0,1-.14.76,1.76,1.76,0,0,1-.44.61,2.08,2.08,0,0,1-.72.4A3,3,0,0,1,265.58,36.15Zm0-.71a1.71,1.71,0,0,0,1.08-.3,1.09,1.09,0,0,0,.38-.88v-.2a1.05,1.05,0,0,0-.38-.87,1.65,1.65,0,0,0-1.08-.31,1.63,1.63,0,0,0-1.07.31,1.05,1.05,0,0,0-.38.87v.2a1.09,1.09,0,0,0,.38.88A1.68,1.68,0,0,0,265.58,35.44Zm0-3.23a1.44,1.44,0,0,0,.95-.26,1,1,0,0,0,.33-.78V31a.92.92,0,0,0-.33-.77,1.79,1.79,0,0,0-1.89,0,.92.92,0,0,0-.33.77v.14a1,1,0,0,0,.33.78A1.42,1.42,0,0,0,265.58,32.21Z"/></svg>