<svg id="Camada_1" data-name="Camada 1" xmlns="http://www.w3.org/2000/svg" viewBox="0 0 338.21 57.45">
  <title>LEGENDAS_PÁGINA_CLIMA</title>
  <g style="opacity: 0.75">
    <path d="M0,6.38C0,2.86,3.36,0,7.52,0H330.7c4.15,0,7.51,2.86,7.51,6.38V51.07c0,3.52-3.36,6.38-7.51,6.38H7.52C3.36,57.45,0,54.59,0,51.07Z" style="fill: #fff"/>
  </g>
  <g>
    <path d="M8.31,34.23v-1.1H5.6v-.59L8,28.62H9v3.95h.81v.56H9v1.1ZM6.23,32.57H8.31V29.14h0Z"/>
    <path d="M12.54,34.33a2.68,2.68,0,0,1-.85-.12,1.91,1.91,0,0,1-.61-.35,1.46,1.46,0,0,1-.37-.51,1.75,1.75,0,0,1-.12-.65,1.27,1.27,0,0,1,.31-.91,1.69,1.69,0,0,1,.82-.48v-.06a1.44,1.44,0,0,1-.7-.5,1.4,1.4,0,0,1,.2-1.85,2.07,2.07,0,0,1,1.32-.38,2,2,0,0,1,1.31.38,1.4,1.4,0,0,1,.2,1.85,1.44,1.44,0,0,1-.7.5v.06a1.65,1.65,0,0,1,.82.48,1.27,1.27,0,0,1,.31.91,1.75,1.75,0,0,1-.12.65,1.34,1.34,0,0,1-.37.51,1.81,1.81,0,0,1-.61.35A2.66,2.66,0,0,1,12.54,34.33Zm0-.6a1.39,1.39,0,0,0,.91-.26.9.9,0,0,0,.32-.74v-.17a.92.92,0,0,0-.32-.74,1.45,1.45,0,0,0-.91-.26,1.41,1.41,0,0,0-.91.26.9.9,0,0,0-.33.74v.17a.88.88,0,0,0,.33.74A1.35,1.35,0,0,0,12.54,33.73Zm0-2.73a1.23,1.23,0,0,0,.8-.23.79.79,0,0,0,.27-.65V30a.81.81,0,0,0-.27-.66,1.23,1.23,0,0,0-.8-.22,1.24,1.24,0,0,0-.81.22.81.81,0,0,0-.27.66v.12a.79.79,0,0,0,.27.65A1.24,1.24,0,0,0,12.54,31Z"/>
    <path d="M17.36,34.33a1.56,1.56,0,0,1-1.46-.76,4.14,4.14,0,0,1-.47-2.14,4.16,4.16,0,0,1,.47-2.15,1.56,1.56,0,0,1,1.46-.76,1.58,1.58,0,0,1,1.47.76,4.16,4.16,0,0,1,.47,2.15,4.14,4.14,0,0,1-.47,2.14A1.58,1.58,0,0,1,17.36,34.33Zm0-.6a1.14,1.14,0,0,0,.57-.13,1.09,1.09,0,0,0,.38-.39,2.19,2.19,0,0,0,.21-.58,4.35,4.35,0,0,0,.07-.75V31a4.35,4.35,0,0,0-.07-.75,2.19,2.19,0,0,0-.21-.58,1.09,1.09,0,0,0-.38-.39,1.14,1.14,0,0,0-.57-.13,1,1,0,0,0-.94.52,2.19,2.19,0,0,0-.21.58,3.54,3.54,0,0,0-.07.75v.91a3.54,3.54,0,0,0,.07.75,2.19,2.19,0,0,0,.21.58,1,1,0,0,0,.94.52Z"/>
    <path d="M22.19,34.33a1.59,1.59,0,0,1-1.47-.76,4.25,4.25,0,0,1-.46-2.14,4.27,4.27,0,0,1,.46-2.15,1.59,1.59,0,0,1,1.47-.76,1.59,1.59,0,0,1,1.47.76,4.16,4.16,0,0,1,.46,2.15,4.15,4.15,0,0,1-.46,2.14A1.59,1.59,0,0,1,22.19,34.33Zm0-.6a1.14,1.14,0,0,0,.57-.13,1,1,0,0,0,.37-.39,1.89,1.89,0,0,0,.22-.58,4.35,4.35,0,0,0,.07-.75V31a4.35,4.35,0,0,0-.07-.75,1.89,1.89,0,0,0-.22-.58,1,1,0,0,0-.37-.39,1.14,1.14,0,0,0-.57-.13,1.1,1.1,0,0,0-.56.13,1,1,0,0,0-.38.39,1.89,1.89,0,0,0-.21.58A3.54,3.54,0,0,0,21,31v.91a3.54,3.54,0,0,0,.07.75,1.89,1.89,0,0,0,.21.58,1,1,0,0,0,.38.39A1.1,1.1,0,0,0,22.19,33.73Z"/>
  </g>
  <g>
    <path d="M34,34.23v-1.1H31.27v-.59l2.35-3.92h1v3.95h.82v.56h-.82v1.1ZM31.9,32.57H34V29.14h0Z"/>
    <path d="M40.08,30.68a3.52,3.52,0,0,1-.19,1.18,4.59,4.59,0,0,1-.47,1,5.91,5.91,0,0,1-.65.81,4.59,4.59,0,0,1-.69.56h-.87a9.73,9.73,0,0,0,.8-.64,5.35,5.35,0,0,0,.62-.65,3.68,3.68,0,0,0,.45-.73,4.33,4.33,0,0,0,.3-.88l0,0a1.92,1.92,0,0,1-.52.58,1.41,1.41,0,0,1-.83.23,1.81,1.81,0,0,1-.67-.12,1.45,1.45,0,0,1-.52-.35,1.62,1.62,0,0,1-.35-.55,2,2,0,0,1-.12-.72,2,2,0,0,1,.13-.75,1.66,1.66,0,0,1,1-1,2.07,2.07,0,0,1,.77-.14,1.94,1.94,0,0,1,.78.15,1.7,1.7,0,0,1,.6.43,1.82,1.82,0,0,1,.37.67A2.86,2.86,0,0,1,40.08,30.68Zm-1.88.87a1.2,1.2,0,0,0,.87-.31,1.17,1.17,0,0,0,.31-.88V30.3a1.18,1.18,0,0,0-.31-.88,1.4,1.4,0,0,0-1.73,0,1.18,1.18,0,0,0-.31.88v.06a1.17,1.17,0,0,0,.31.88A1.19,1.19,0,0,0,38.2,31.55Z"/>
    <path d="M44.91,34.23H41.22v-.69l1.84-1.69a4.28,4.28,0,0,0,.66-.77,1.52,1.52,0,0,0,.26-.82v-.1a1.08,1.08,0,0,0-.25-.75,1,1,0,0,0-.79-.29,1.25,1.25,0,0,0-.45.07,1,1,0,0,0-.33.2,1.14,1.14,0,0,0-.23.3,2.39,2.39,0,0,0-.15.37l-.61-.23a2.35,2.35,0,0,1,.23-.48,1.79,1.79,0,0,1,.35-.43,1.72,1.72,0,0,1,.52-.29,2.12,2.12,0,0,1,.71-.11,2.07,2.07,0,0,1,.73.12,1.44,1.44,0,0,1,.87.85,1.76,1.76,0,0,1,.12.66,2,2,0,0,1-.09.61,2.24,2.24,0,0,1-.26.54,2.47,2.47,0,0,1-.39.49c-.15.16-.32.32-.49.48L42,33.64h3Z"/>
    <path d="M47.86,34.33a1.59,1.59,0,0,1-1.47-.76,4.15,4.15,0,0,1-.46-2.14,4.16,4.16,0,0,1,.46-2.15,1.8,1.8,0,0,1,2.94,0,4.16,4.16,0,0,1,.46,2.15,4.15,4.15,0,0,1-.46,2.14A1.59,1.59,0,0,1,47.86,34.33Zm0-.6a1.14,1.14,0,0,0,.57-.13,1,1,0,0,0,.37-.39,1.89,1.89,0,0,0,.22-.58,4.35,4.35,0,0,0,.07-.75V31a4.35,4.35,0,0,0-.07-.75,1.89,1.89,0,0,0-.22-.58,1,1,0,0,0-.37-.39,1.14,1.14,0,0,0-.57-.13,1.08,1.08,0,0,0-.56.13,1,1,0,0,0-.38.39,1.66,1.66,0,0,0-.21.58,3.54,3.54,0,0,0-.07.75v.91a3.54,3.54,0,0,0,.07.75,1.66,1.66,0,0,0,.21.58,1,1,0,0,0,.38.39A1.08,1.08,0,0,0,47.86,33.73Z"/>
  </g>
  <g>
    <path d="M69,29.21H66.56l-.16,2.14h0a1.78,1.78,0,0,1,.46-.45,1.27,1.27,0,0,1,.7-.17,1.76,1.76,0,0,1,.66.12,1.49,1.49,0,0,1,.53.35,1.37,1.37,0,0,1,.35.54,1.86,1.86,0,0,1,.13.73,2,2,0,0,1-.13.75,1.69,1.69,0,0,1-.37.59,1.86,1.86,0,0,1-.6.38,2.18,2.18,0,0,1-.79.14,2.35,2.35,0,0,1-.63-.08,1.56,1.56,0,0,1-.47-.21,1.6,1.6,0,0,1-.37-.31,3.17,3.17,0,0,1-.29-.35l.51-.39a1.89,1.89,0,0,0,.22.31,1.38,1.38,0,0,0,.26.23.84.84,0,0,0,.33.15,1.44,1.44,0,0,0,.44,0,1.2,1.2,0,0,0,.88-.3,1.25,1.25,0,0,0,.29-.87v-.08a1.21,1.21,0,0,0-.29-.86,1.4,1.4,0,0,0-1.49-.17,2.18,2.18,0,0,0-.4.34l-.57-.08.2-3.09h3Z"/>
    <path d="M70.55,34.23v-.59h1.57V29.12h-.06l-1.41,1.31-.4-.42,1.49-1.39H72.8v5h1.44v.59Z"/>
    <path d="M77.09,34.33a1.57,1.57,0,0,1-1.47-.76,4.14,4.14,0,0,1-.47-2.14,4.16,4.16,0,0,1,.47-2.15,1.79,1.79,0,0,1,2.93,0A4.16,4.16,0,0,1,79,31.43a4.14,4.14,0,0,1-.47,2.14A1.56,1.56,0,0,1,77.09,34.33Zm0-.6a1,1,0,0,0,.94-.52,1.89,1.89,0,0,0,.21-.58,3.54,3.54,0,0,0,.07-.75V31a3.54,3.54,0,0,0-.07-.75,1.89,1.89,0,0,0-.21-.58,1,1,0,0,0-.94-.52,1.14,1.14,0,0,0-.57.13,1.09,1.09,0,0,0-.38.39,2.19,2.19,0,0,0-.21.58,3.54,3.54,0,0,0-.07.75v.91a3.54,3.54,0,0,0,.07.75,2.19,2.19,0,0,0,.21.58,1.09,1.09,0,0,0,.38.39A1.14,1.14,0,0,0,77.09,33.73Z"/>
    <path d="M81.91,34.33a1.56,1.56,0,0,1-1.46-.76A4.14,4.14,0,0,1,80,31.43a4.16,4.16,0,0,1,.47-2.15,1.56,1.56,0,0,1,1.46-.76,1.59,1.59,0,0,1,1.47.76,4.16,4.16,0,0,1,.47,2.15,4.14,4.14,0,0,1-.47,2.14A1.59,1.59,0,0,1,81.91,34.33Zm0-.6a1.14,1.14,0,0,0,.57-.13,1.09,1.09,0,0,0,.38-.39,2.19,2.19,0,0,0,.21-.58,4.35,4.35,0,0,0,.07-.75V31a4.35,4.35,0,0,0-.07-.75,2.19,2.19,0,0,0-.21-.58,1.09,1.09,0,0,0-.38-.39,1.14,1.14,0,0,0-.57-.13,1,1,0,0,0-.94.52,1.89,1.89,0,0,0-.21.58,3.54,3.54,0,0,0-.07.75v.91a3.54,3.54,0,0,0,.07.75,1.89,1.89,0,0,0,.21.58,1,1,0,0,0,.94.52Z"/>
  </g>
  <g>
    <path d="M137.52,29.21h-2.47l-.16,2.14H135a1.75,1.75,0,0,1,.45-.45,1.29,1.29,0,0,1,.7-.17,1.85,1.85,0,0,1,.67.12,1.58,1.58,0,0,1,.53.35,1.37,1.37,0,0,1,.35.54,2.07,2.07,0,0,1,.12.73,2.23,2.23,0,0,1-.12.75,1.58,1.58,0,0,1-.38.59,1.71,1.71,0,0,1-.59.38,2.24,2.24,0,0,1-.8.14,2.33,2.33,0,0,1-.62-.08,1.75,1.75,0,0,1-.48-.21,1.85,1.85,0,0,1-.37-.31,3.07,3.07,0,0,1-.28-.35l.51-.39a1.89,1.89,0,0,0,.22.31,1.09,1.09,0,0,0,.25.23,1,1,0,0,0,.33.15,1.44,1.44,0,0,0,.44,0,1.19,1.19,0,0,0,.88-.3,1.21,1.21,0,0,0,.3-.87v-.08a1.17,1.17,0,0,0-.3-.86,1.15,1.15,0,0,0-.88-.31,1.13,1.13,0,0,0-.6.14,2.18,2.18,0,0,0-.4.34l-.57-.08.2-3.09h3Z"/>
    <path d="M141.36,34.23v-1.1h-2.72v-.59L141,28.62h1v3.95h.81v.56H142v1.1Zm-2.08-1.66h2.08V29.14h0Z"/>
    <path d="M145.59,34.33a2,2,0,0,1-.79-.15,1.67,1.67,0,0,1-.59-.42,1.92,1.92,0,0,1-.38-.69,3.06,3.06,0,0,1-.12-.9,3.83,3.83,0,0,1,.18-1.18,4.2,4.2,0,0,1,.48-1,4.81,4.81,0,0,1,.65-.81,3.77,3.77,0,0,1,.69-.56h.87c-.3.22-.57.43-.81.64a5.39,5.39,0,0,0-.62.65,4.93,4.93,0,0,0-.45.73,4.33,4.33,0,0,0-.29.88l0,0A1.8,1.8,0,0,1,145,31a1.38,1.38,0,0,1,.83-.23,1.85,1.85,0,0,1,.67.12,1.54,1.54,0,0,1,.52.35,1.6,1.6,0,0,1,.34.55,2,2,0,0,1,.13.72,2,2,0,0,1-.14.75,1.69,1.69,0,0,1-.37.59,1.86,1.86,0,0,1-.6.38A2.06,2.06,0,0,1,145.59,34.33Zm0-.6a1.21,1.21,0,0,0,.87-.3,1.22,1.22,0,0,0,.31-.88v-.06a1.08,1.08,0,0,0-1.18-1.19,1.08,1.08,0,0,0-1.17,1.19v.06a1.18,1.18,0,0,0,.31.88A1.17,1.17,0,0,0,145.58,33.73Z"/>
    <path d="M150.41,34.33a1.59,1.59,0,0,1-1.47-.76,4.15,4.15,0,0,1-.46-2.14,4.16,4.16,0,0,1,.46-2.15,1.8,1.8,0,0,1,2.94,0,4.16,4.16,0,0,1,.46,2.15,4.15,4.15,0,0,1-.46,2.14A1.59,1.59,0,0,1,150.41,34.33Zm0-.6a1.08,1.08,0,0,0,.56-.13,1,1,0,0,0,.38-.39,1.66,1.66,0,0,0,.21-.58,3.54,3.54,0,0,0,.07-.75V31a3.54,3.54,0,0,0-.07-.75,1.66,1.66,0,0,0-.21-.58,1,1,0,0,0-.38-.39,1.27,1.27,0,0,0-1.12,0,1,1,0,0,0-.38.39,1.89,1.89,0,0,0-.22.58,4.38,4.38,0,0,0-.06.75v.91a4.38,4.38,0,0,0,.06.75,1.89,1.89,0,0,0,.22.58,1,1,0,0,0,.38.39A1.08,1.08,0,0,0,150.41,33.73Z"/>
  </g>
  <g>
    <path d="M103.23,29.21h-2.46l-.16,2.14h0a1.78,1.78,0,0,1,.46-.45,1.26,1.26,0,0,1,.69-.17,1.78,1.78,0,0,1,.67.12,1.49,1.49,0,0,1,.53.35,1.37,1.37,0,0,1,.35.54,1.86,1.86,0,0,1,.13.73,2,2,0,0,1-.13.75,1.69,1.69,0,0,1-.37.59,1.86,1.86,0,0,1-.6.38,2.18,2.18,0,0,1-.79.14,2.35,2.35,0,0,1-.63-.08,1.75,1.75,0,0,1-.48-.21,1.55,1.55,0,0,1-.36-.31,3.17,3.17,0,0,1-.29-.35l.51-.39a1.89,1.89,0,0,0,.22.31,1.13,1.13,0,0,0,.26.23.86.86,0,0,0,.32.15,1.55,1.55,0,0,0,.45,0,1.16,1.16,0,0,0,.87-.3,1.21,1.21,0,0,0,.3-.87v-.08a1.17,1.17,0,0,0-.3-.86,1.13,1.13,0,0,0-.87-.31,1.17,1.17,0,0,0-.61.14,2.18,2.18,0,0,0-.4.34l-.57-.08.2-3.09h3Z"/>
    <path d="M108.34,34.23h-3.68v-.69l1.83-1.69a4.28,4.28,0,0,0,.66-.77,1.46,1.46,0,0,0,.27-.82v-.1a1.09,1.09,0,0,0-.26-.75,1,1,0,0,0-.78-.29,1.25,1.25,0,0,0-.45.07,1.05,1.05,0,0,0-.34.2,1.14,1.14,0,0,0-.23.3,2.39,2.39,0,0,0-.15.37l-.6-.23a1.88,1.88,0,0,1,.22-.48,1.79,1.79,0,0,1,.35-.43,1.85,1.85,0,0,1,.52-.29,2.16,2.16,0,0,1,.71-.11,2.07,2.07,0,0,1,.73.12,1.35,1.35,0,0,1,.54.34,1.39,1.39,0,0,1,.34.51,2,2,0,0,1,.11.66,2,2,0,0,1-.09.61,2.65,2.65,0,0,1-.25.54,3.49,3.49,0,0,1-.39.49c-.16.16-.32.32-.5.48l-1.51,1.37h3Z"/>
    <path d="M113.17,34.23h-3.69v-.69l1.84-1.69a4.28,4.28,0,0,0,.66-.77,1.44,1.44,0,0,0,.26-.82v-.1a1.08,1.08,0,0,0-.25-.75,1,1,0,0,0-.78-.29,1.18,1.18,0,0,0-.45.07,1.05,1.05,0,0,0-.34.2,1.14,1.14,0,0,0-.23.3,2.39,2.39,0,0,0-.15.37l-.6-.23a1.88,1.88,0,0,1,.22-.48,1.79,1.79,0,0,1,.35-.43,1.72,1.72,0,0,1,.52-.29,2.12,2.12,0,0,1,.71-.11,2.07,2.07,0,0,1,.73.12,1.42,1.42,0,0,1,.54.34,1.36,1.36,0,0,1,.33.51,1.76,1.76,0,0,1,.12.66,2,2,0,0,1-.09.61,2.24,2.24,0,0,1-.26.54,2.47,2.47,0,0,1-.39.49c-.15.16-.31.32-.49.48l-1.51,1.37h3Z"/>
    <path d="M116.12,34.33a1.59,1.59,0,0,1-1.47-.76,4.25,4.25,0,0,1-.46-2.14,4.27,4.27,0,0,1,.46-2.15,1.8,1.8,0,0,1,2.94,0,4.16,4.16,0,0,1,.46,2.15,4.15,4.15,0,0,1-.46,2.14A1.59,1.59,0,0,1,116.12,34.33Zm0-.6a1.14,1.14,0,0,0,.57-.13,1,1,0,0,0,.37-.39,1.89,1.89,0,0,0,.22-.58,4.35,4.35,0,0,0,.07-.75V31a4.35,4.35,0,0,0-.07-.75,1.89,1.89,0,0,0-.22-.58,1,1,0,0,0-.37-.39,1.14,1.14,0,0,0-.57-.13,1.1,1.1,0,0,0-.56.13,1,1,0,0,0-.38.39,1.89,1.89,0,0,0-.21.58,3.54,3.54,0,0,0-.07.75v.91a3.54,3.54,0,0,0,.07.75,1.89,1.89,0,0,0,.21.58,1,1,0,0,0,.38.39A1.1,1.1,0,0,0,116.12,33.73Z"/>
  </g>
  <g>
    <path d="M163.3,29.21h-2.47l-.16,2.14h.06a1.61,1.61,0,0,1,.45-.45,1.27,1.27,0,0,1,.7-.17,1.85,1.85,0,0,1,.67.12,1.58,1.58,0,0,1,.53.35,1.49,1.49,0,0,1,.35.54,2.07,2.07,0,0,1,.12.73,2,2,0,0,1-.13.75,1.56,1.56,0,0,1-.37.59,1.67,1.67,0,0,1-.6.38,2.14,2.14,0,0,1-.79.14,2.33,2.33,0,0,1-.62-.08,1.75,1.75,0,0,1-.48-.21,1.85,1.85,0,0,1-.37-.31,3.07,3.07,0,0,1-.28-.35l.5-.39a1.92,1.92,0,0,0,.23.31,1.09,1.09,0,0,0,.25.23,1,1,0,0,0,.33.15,1.44,1.44,0,0,0,.44,0,1.19,1.19,0,0,0,.88-.3,1.21,1.21,0,0,0,.3-.87v-.08a1.17,1.17,0,0,0-.3-.86,1.15,1.15,0,0,0-.88-.31,1.17,1.17,0,0,0-.61.14,2.12,2.12,0,0,0-.39.34l-.58-.08.21-3.09h3Z"/>
    <path d="M166.54,34.33a2,2,0,0,1-.79-.15,1.67,1.67,0,0,1-.59-.42,1.92,1.92,0,0,1-.38-.69,3,3,0,0,1-.13-.9,3.84,3.84,0,0,1,.19-1.18,4.2,4.2,0,0,1,.48-1,4.36,4.36,0,0,1,.65-.81,3.77,3.77,0,0,1,.69-.56h.87c-.3.22-.57.43-.81.64a5.39,5.39,0,0,0-.62.65,4.93,4.93,0,0,0-.45.73,4.33,4.33,0,0,0-.29.88l0,0a1.89,1.89,0,0,1,.51-.58,1.44,1.44,0,0,1,.84-.23,1.85,1.85,0,0,1,.67.12,1.54,1.54,0,0,1,.52.35,1.6,1.6,0,0,1,.34.55,2,2,0,0,1,.13.72,2,2,0,0,1-.14.75,1.58,1.58,0,0,1-.38.59,1.71,1.71,0,0,1-.59.38A2.06,2.06,0,0,1,166.54,34.33Zm0-.6a1.21,1.21,0,0,0,.87-.3,1.22,1.22,0,0,0,.31-.88v-.06a1.08,1.08,0,0,0-1.18-1.19,1.08,1.08,0,0,0-1.17,1.19v.06a1.18,1.18,0,0,0,.31.88A1.17,1.17,0,0,0,166.53,33.73Z"/>
    <path d="M172,34.23v-1.1h-2.71v-.59l2.35-3.92h1v3.95h.81v.56h-.81v1.1Zm-2.07-1.66H172V29.14h0Z"/>
    <path d="M176.19,34.33a1.59,1.59,0,0,1-1.47-.76,4.15,4.15,0,0,1-.46-2.14,4.16,4.16,0,0,1,.46-2.15,1.8,1.8,0,0,1,2.94,0,4.27,4.27,0,0,1,.46,2.15,4.25,4.25,0,0,1-.46,2.14A1.59,1.59,0,0,1,176.19,34.33Zm0-.6a1.08,1.08,0,0,0,.56-.13,1,1,0,0,0,.38-.39,1.66,1.66,0,0,0,.21-.58,3.54,3.54,0,0,0,.07-.75V31a3.54,3.54,0,0,0-.07-.75,1.66,1.66,0,0,0-.21-.58,1,1,0,0,0-.38-.39,1.08,1.08,0,0,0-.56-.13,1.14,1.14,0,0,0-.57.13,1,1,0,0,0-.37.39,1.89,1.89,0,0,0-.22.58A4.35,4.35,0,0,0,175,31v.91a4.35,4.35,0,0,0,.07.75,1.89,1.89,0,0,0,.22.58,1,1,0,0,0,.37.39A1.14,1.14,0,0,0,176.19,33.73Z"/>
  </g>
  <g>
    <path d="M139.05,47.82h0a1.2,1.2,0,0,1-.56.71,2,2,0,0,1-1.14.28,2.45,2.45,0,0,1-1-.21,2,2,0,0,1-.8-.6,2.94,2.94,0,0,1-.52-1,4.67,4.67,0,0,1-.18-1.36,4.57,4.57,0,0,1,.18-1.34,2.82,2.82,0,0,1,.52-1,2.35,2.35,0,0,1,.82-.61,2.83,2.83,0,0,1,1.07-.21,2.42,2.42,0,0,1,1.36.37,2.39,2.39,0,0,1,.85,1l-.6.37a1.76,1.76,0,0,0-.62-.77,1.72,1.72,0,0,0-1-.28,1.78,1.78,0,0,0-.74.15,1.64,1.64,0,0,0-.57.4,2,2,0,0,0-.37.63,2.39,2.39,0,0,0-.13.82v1a2.41,2.41,0,0,0,.13.83,1.78,1.78,0,0,0,.37.63,1.65,1.65,0,0,0,.59.41,2.26,2.26,0,0,0,1.38.06,1.38,1.38,0,0,0,.5-.25,1.36,1.36,0,0,0,.34-.41,1.4,1.4,0,0,0,.12-.6v-.6h-1.35v-.64h2.06v3.13h-.68Z"/>
    <path d="M142.79,48.81a2,2,0,0,1-.83-.17,1.75,1.75,0,0,1-.64-.47,2.4,2.4,0,0,1-.41-.74,3.43,3.43,0,0,1,0-1.94,2.46,2.46,0,0,1,.41-.75,1.87,1.87,0,0,1,.64-.47,2,2,0,0,1,.83-.17,1.86,1.86,0,0,1,.81.17,1.73,1.73,0,0,1,.61.45,2.13,2.13,0,0,1,.39.69,2.75,2.75,0,0,1,.14.88v.33H141.5v.21a1.61,1.61,0,0,0,.09.54,1.36,1.36,0,0,0,.27.43,1.22,1.22,0,0,0,.41.29,1.48,1.48,0,0,0,.57.1,1.39,1.39,0,0,0,.74-.2,1.25,1.25,0,0,0,.49-.57l.5.35a1.59,1.59,0,0,1-.68.75A2,2,0,0,1,142.79,48.81Zm0-4.12a1.27,1.27,0,0,0-.52.1,1.15,1.15,0,0,0-.41.28,1.24,1.24,0,0,0-.26.43,1.33,1.33,0,0,0-.1.54v.06H144V46a1.34,1.34,0,0,0-.33-1A1.12,1.12,0,0,0,142.79,44.69Z"/>
    <path d="M147.59,48.81a2.05,2.05,0,0,1-.83-.17,1.75,1.75,0,0,1-.64-.47,2.05,2.05,0,0,1-.41-.74,3.21,3.21,0,0,1,0-1.94,2.1,2.1,0,0,1,.41-.75,1.87,1.87,0,0,1,.64-.47,2.05,2.05,0,0,1,.83-.17,2,2,0,0,1,.82.17,1.87,1.87,0,0,1,.64.47,2.28,2.28,0,0,1,.42.75,3.21,3.21,0,0,1,0,1.94,2.23,2.23,0,0,1-.42.74,1.75,1.75,0,0,1-.64.47A2,2,0,0,1,147.59,48.81Zm0-.62a1.27,1.27,0,0,0,.92-.35,1.4,1.4,0,0,0,.36-1.06v-.65a1.42,1.42,0,0,0-.36-1.06,1.27,1.27,0,0,0-.92-.35,1.29,1.29,0,0,0-.93.35,1.46,1.46,0,0,0-.35,1.06v.65a1.44,1.44,0,0,0,.35,1.06A1.29,1.29,0,0,0,147.59,48.19Z"/>
    <path d="M150.77,44.21h.7v.72h0a1.27,1.27,0,0,1,.51-.62,1.53,1.53,0,0,1,.81-.21,1.73,1.73,0,0,1,.76.17,1.63,1.63,0,0,1,.58.47,2,2,0,0,1,.36.74,3.32,3.32,0,0,1,.13,1,3.25,3.25,0,0,1-.13,1,2,2,0,0,1-.36.74,1.63,1.63,0,0,1-.58.47,1.73,1.73,0,0,1-.76.17A1.37,1.37,0,0,1,151.5,48h0v2.47h-.7Zm1.86,4a1.2,1.2,0,0,0,.93-.37,1.39,1.39,0,0,0,.34-1v-.77a1.39,1.39,0,0,0-.34-1,1.23,1.23,0,0,0-.93-.37,1.33,1.33,0,0,0-.45.07,1.06,1.06,0,0,0-.37.18.72.72,0,0,0-.25.27.73.73,0,0,0-.09.35v1.68a.8.8,0,0,0,.09.39.86.86,0,0,0,.25.29,1.06,1.06,0,0,0,.37.18A1.63,1.63,0,0,0,152.63,48.19Z"/>
    <path d="M157.53,48.81a2.05,2.05,0,0,1-.83-.17,1.75,1.75,0,0,1-.64-.47,2.23,2.23,0,0,1-.42-.74,3.43,3.43,0,0,1,0-1.94,2.28,2.28,0,0,1,.42-.75,1.87,1.87,0,0,1,.64-.47,2.05,2.05,0,0,1,.83-.17,2,2,0,0,1,.82.17,1.87,1.87,0,0,1,.64.47,2.28,2.28,0,0,1,.42.75,3.21,3.21,0,0,1,0,1.94,2.23,2.23,0,0,1-.42.74,1.75,1.75,0,0,1-.64.47A2,2,0,0,1,157.53,48.81Zm0-.62a1.28,1.28,0,0,0,.92-.35,1.4,1.4,0,0,0,.36-1.06v-.65a1.42,1.42,0,0,0-.36-1.06,1.4,1.4,0,0,0-1.85,0,1.41,1.41,0,0,0-.35,1.06v.65a1.4,1.4,0,0,0,.35,1.06A1.29,1.29,0,0,0,157.53,48.19Z"/>
    <path d="M161.7,48.71a.69.69,0,0,1-.55-.21A.73.73,0,0,1,161,48V44.83h-.74v-.62h.42a.39.39,0,0,0,.31-.1.48.48,0,0,0,.08-.31V43h.63v1.25h1v.62h-1v3.26h.92v.62Z"/>
    <path d="M165.43,48.81a2.07,2.07,0,0,1-.84-.17,1.71,1.71,0,0,1-.63-.47,2.05,2.05,0,0,1-.41-.74,3.21,3.21,0,0,1,0-1.94,2.1,2.1,0,0,1,.41-.75,1.83,1.83,0,0,1,.63-.47,2.07,2.07,0,0,1,.84-.17,1.92,1.92,0,0,1,.81.17,1.83,1.83,0,0,1,.61.45,2.33,2.33,0,0,1,.39.69,2.75,2.75,0,0,1,.13.88v.33h-3.23v.21a1.61,1.61,0,0,0,.09.54,1.34,1.34,0,0,0,.26.43,1.17,1.17,0,0,0,.42.29,1.4,1.4,0,0,0,.56.1,1.45,1.45,0,0,0,.75-.2,1.31,1.31,0,0,0,.49-.57l.49.35a1.59,1.59,0,0,1-.68.75A1.93,1.93,0,0,1,165.43,48.81Zm0-4.12a1.29,1.29,0,0,0-.53.1,1.12,1.12,0,0,0-.4.28,1.26,1.26,0,0,0-.27.43,1.53,1.53,0,0,0-.09.54v.06h2.48V46a1.34,1.34,0,0,0-.33-1A1.09,1.09,0,0,0,165.43,44.69Z"/>
    <path d="M168.52,48.71v-4.5h.7v.72h0a1.49,1.49,0,0,1,.47-.6,1.32,1.32,0,0,1,.81-.23,1.41,1.41,0,0,1,1.1.45,1.83,1.83,0,0,1,.41,1.27v2.89h-.7V45.94c0-.81-.34-1.22-1-1.22a1.84,1.84,0,0,0-.41.05,1.25,1.25,0,0,0-.35.16.72.72,0,0,0-.25.27.76.76,0,0,0-.09.38v3.13Z"/>
    <path d="M175.15,48.81a2.08,2.08,0,0,1-.85-.17,1.63,1.63,0,0,1-.63-.47,2.09,2.09,0,0,1-.39-.74,3.24,3.24,0,0,1-.14-1,3.31,3.31,0,0,1,.14-1,2.09,2.09,0,0,1,.39-.74,1.63,1.63,0,0,1,.63-.47,2.08,2.08,0,0,1,.85-.17,1.81,1.81,0,0,1,1.07.29,1.78,1.78,0,0,1,.61.77l-.58.29a1.17,1.17,0,0,0-.4-.54,1.2,1.2,0,0,0-.7-.19,1.35,1.35,0,0,0-.55.1,1,1,0,0,0-.39.28,1.07,1.07,0,0,0-.24.43,1.8,1.8,0,0,0-.08.54v.77a1.47,1.47,0,0,0,.32,1,1.16,1.16,0,0,0,.94.38,1.27,1.27,0,0,0,1.22-.78l.5.34a1.74,1.74,0,0,1-.65.77A1.87,1.87,0,0,1,175.15,48.81Z"/>
    <path d="M178.21,43.15a.41.41,0,0,1-.33-.11.37.37,0,0,1-.1-.28v-.11a.39.39,0,0,1,.1-.29.45.45,0,0,1,.33-.11.41.41,0,0,1,.32.11.39.39,0,0,1,.1.29v.11a.37.37,0,0,1-.1.28A.38.38,0,0,1,178.21,43.15Zm-.35,1.06h.7v4.5h-.7Z"/>
    <path d="M183.31,48.71a.68.68,0,0,1-.56-.21,1,1,0,0,1-.22-.53h0a1.16,1.16,0,0,1-.49.63,1.77,1.77,0,0,1-1.92-.16,1.25,1.25,0,0,1-.4-1,1.16,1.16,0,0,1,.47-1,2.52,2.52,0,0,1,1.45-.34h.89v-.44a1,1,0,0,0-.26-.73,1.35,1.35,0,0,0-1.49-.07,1.51,1.51,0,0,0-.46.48l-.42-.39a1.66,1.66,0,0,1,.59-.62,1.85,1.85,0,0,1,1-.26,1.88,1.88,0,0,1,1.27.4,1.43,1.43,0,0,1,.46,1.12v2.47h.51v.62Zm-2-.49a1.75,1.75,0,0,0,.48-.06,1.11,1.11,0,0,0,.38-.18.85.85,0,0,0,.24-.26.62.62,0,0,0,.09-.32v-.74h-.93a1.63,1.63,0,0,0-.87.17.59.59,0,0,0-.28.51v.18a.6.6,0,0,0,.24.51A1,1,0,0,0,181.3,48.22Z"/>
    <path d="M185.44,48.71a.72.72,0,0,1-.56-.21.77.77,0,0,1-.19-.52V42.25h.7v5.84h.66v.62Z"/>
    <path d="M189.1,46a6.06,6.06,0,0,1,.13-1.21,5.68,5.68,0,0,1,.33-1.08,5.23,5.23,0,0,1,.5-.91,3.91,3.91,0,0,1,.62-.7h.67a3.94,3.94,0,0,0-.66.75,4.84,4.84,0,0,0-.5.89,5.41,5.41,0,0,0-.32,1,4.45,4.45,0,0,0-.11.94v.75a4.54,4.54,0,0,0,.11,1,7.2,7.2,0,0,0,.32,1,5.25,5.25,0,0,0,.51.89,3.81,3.81,0,0,0,.65.73h-.67a3.72,3.72,0,0,1-.61-.68,4.74,4.74,0,0,1-.5-.92,6.63,6.63,0,0,1-.34-1.09A6.1,6.1,0,0,1,189.1,46Z"/>
    <path d="M195.92,49.21a1.11,1.11,0,0,1-.54,1,3.34,3.34,0,0,1-1.64.32,3,3,0,0,1-1.51-.28.92.92,0,0,1-.46-.82.77.77,0,0,1,.19-.57,1,1,0,0,1,.52-.3v-.1a.64.64,0,0,1-.4-.62.62.62,0,0,1,.22-.52,1.42,1.42,0,0,1,.55-.27v0a1.5,1.5,0,0,1-.62-.55,1.54,1.54,0,0,1-.22-.83,1.61,1.61,0,0,1,.12-.63,1.43,1.43,0,0,1,.88-.81,1.85,1.85,0,0,1,.69-.12,2,2,0,0,1,.86.18V44.2a.76.76,0,0,1,.12-.44.44.44,0,0,1,.4-.17h.67v.62h-.86v.29a1.33,1.33,0,0,1,.38.5,1.53,1.53,0,0,1,.14.66,1.61,1.61,0,0,1-.12.63,1.42,1.42,0,0,1-.35.49,1.57,1.57,0,0,1-.53.32,1.94,1.94,0,0,1-.7.11,2.18,2.18,0,0,1-.44,0,1.5,1.5,0,0,0-.41.18.38.38,0,0,0-.18.33.27.27,0,0,0,.19.27,1.72,1.72,0,0,0,.5.07h1a1.87,1.87,0,0,1,1.21.31A1.08,1.08,0,0,1,195.92,49.21Zm-.65,0a.52.52,0,0,0-.21-.43,1.23,1.23,0,0,0-.72-.16h-1.5a.64.64,0,0,0-.42.61.67.67,0,0,0,.22.51,1.08,1.08,0,0,0,.75.21H194a1.79,1.79,0,0,0,.91-.19A.59.59,0,0,0,195.27,49.25Zm-1.56-2.59a1.06,1.06,0,0,0,.71-.22.81.81,0,0,0,.26-.66v-.24a.84.84,0,0,0-.26-.67,1.31,1.31,0,0,0-1.42,0,.84.84,0,0,0-.26.67v.24a.81.81,0,0,0,.26.66A1.06,1.06,0,0,0,193.71,46.66Z"/>
    <path d="M196.73,44.21h.7v.72h0a1.18,1.18,0,0,1,.51-.62,1.47,1.47,0,0,1,.8-.21,1.7,1.7,0,0,1,.76.17,1.55,1.55,0,0,1,.58.47,2.23,2.23,0,0,1,.37.74,3.7,3.7,0,0,1,.12,1,3.63,3.63,0,0,1-.12,1,2.23,2.23,0,0,1-.37.74,1.55,1.55,0,0,1-.58.47,1.7,1.7,0,0,1-.76.17,1.35,1.35,0,0,1-1.31-.83h0v2.47h-.7Zm1.86,4a1.17,1.17,0,0,0,.93-.37,1.39,1.39,0,0,0,.34-1v-.77a1.39,1.39,0,0,0-.34-1,1.2,1.2,0,0,0-.93-.37,1.41,1.41,0,0,0-.45.07,1.16,1.16,0,0,0-.37.18.81.81,0,0,0-.25.27.73.73,0,0,0-.09.35v1.68a.8.8,0,0,0,.09.39,1,1,0,0,0,.25.29,1.16,1.16,0,0,0,.37.18A1.74,1.74,0,0,0,198.59,48.19Z"/>
    <path d="M201.79,48.71v-4.5h.7v.72h0l.18-.32a1.27,1.27,0,0,1,.25-.27,1,1,0,0,1,.33-.17,1.27,1.27,0,0,1,.46-.07,1.67,1.67,0,0,1,.82.21,1.27,1.27,0,0,1,.55.7h0a1.34,1.34,0,0,1,1.37-.91,1.35,1.35,0,0,1,1.08.45,1.92,1.92,0,0,1,.38,1.27v2.89h-.69V45.94A1.43,1.43,0,0,0,207,45a.88.88,0,0,0-.75-.31,1.6,1.6,0,0,0-.39.05,1.19,1.19,0,0,0-.34.16.78.78,0,0,0-.24.27.89.89,0,0,0-.08.38v3.13h-.7V45.94a1.43,1.43,0,0,0-.24-.91.84.84,0,0,0-.73-.31,1.75,1.75,0,0,0-.4.05,1.19,1.19,0,0,0-.34.16.78.78,0,0,0-.24.27.76.76,0,0,0-.09.38v3.13Z"/>
    <path d="M210.86,46a5.46,5.46,0,0,1-.13,1.23,5.79,5.79,0,0,1-.34,1.09,4.74,4.74,0,0,1-.5.92,3.39,3.39,0,0,1-.61.68h-.66a4.18,4.18,0,0,0,.65-.73,6,6,0,0,0,.5-.89,5.15,5.15,0,0,0,.32-1,4,4,0,0,0,.11-1v-.75a3.88,3.88,0,0,0-.11-.94,4.71,4.71,0,0,0-.32-1,4.62,4.62,0,0,0-1.15-1.64h.66a3.56,3.56,0,0,1,.62.7,4.65,4.65,0,0,1,.5.91,6.51,6.51,0,0,1,.34,1.08A6.06,6.06,0,0,1,210.86,46Z"/>
  </g>
  <g>
    <path d="M189,29.21h-2.46l-.16,2.14h.06a1.61,1.61,0,0,1,.45-.45,1.27,1.27,0,0,1,.7-.17,1.85,1.85,0,0,1,.67.12,1.58,1.58,0,0,1,.53.35,1.49,1.49,0,0,1,.35.54,2.07,2.07,0,0,1,.12.73,2,2,0,0,1-.13.75,1.56,1.56,0,0,1-.37.59,1.67,1.67,0,0,1-.6.38,2.14,2.14,0,0,1-.79.14,2.28,2.28,0,0,1-.62-.08,1.75,1.75,0,0,1-.48-.21,1.85,1.85,0,0,1-.37-.31,3.07,3.07,0,0,1-.28-.35l.5-.39a2.77,2.77,0,0,0,.22.31,1.38,1.38,0,0,0,.26.23.91.91,0,0,0,.33.15,1.44,1.44,0,0,0,.44,0,1.19,1.19,0,0,0,.88-.3,1.21,1.21,0,0,0,.3-.87v-.08a1.17,1.17,0,0,0-.3-.86,1.15,1.15,0,0,0-.88-.31,1.17,1.17,0,0,0-.61.14,2.57,2.57,0,0,0-.4.34l-.57-.08.2-3.09h3Z"/>
    <path d="M191.26,34.23l2.15-5H191v1h-.61V28.62h3.69v.59l-2.11,5Z"/>
    <path d="M197.1,34.33a1.59,1.59,0,0,1-1.47-.76,4.15,4.15,0,0,1-.46-2.14,4.16,4.16,0,0,1,.46-2.15,1.8,1.8,0,0,1,2.94,0,4.16,4.16,0,0,1,.46,2.15,4.15,4.15,0,0,1-.46,2.14A1.59,1.59,0,0,1,197.1,34.33Zm0-.6a1.08,1.08,0,0,0,.56-.13,1,1,0,0,0,.38-.39,1.66,1.66,0,0,0,.21-.58,3.54,3.54,0,0,0,.07-.75V31a3.54,3.54,0,0,0-.07-.75,1.66,1.66,0,0,0-.21-.58,1,1,0,0,0-.38-.39,1.27,1.27,0,0,0-1.12,0,1,1,0,0,0-.38.39,1.89,1.89,0,0,0-.22.58,4.38,4.38,0,0,0-.06.75v.91a4.38,4.38,0,0,0,.06.75,1.89,1.89,0,0,0,.22.58,1,1,0,0,0,.38.39A1.08,1.08,0,0,0,197.1,33.73Z"/>
    <path d="M201.93,34.33a1.59,1.59,0,0,1-1.47-.76,4.15,4.15,0,0,1-.46-2.14,4.16,4.16,0,0,1,.46-2.15,1.8,1.8,0,0,1,2.94,0,4.16,4.16,0,0,1,.46,2.15,4.15,4.15,0,0,1-.46,2.14A1.59,1.59,0,0,1,201.93,34.33Zm0-.6a1.08,1.08,0,0,0,.56-.13,1,1,0,0,0,.38-.39,1.66,1.66,0,0,0,.21-.58,3.54,3.54,0,0,0,.07-.75V31a3.54,3.54,0,0,0-.07-.75,1.66,1.66,0,0,0-.21-.58,1,1,0,0,0-.38-.39,1.08,1.08,0,0,0-.56-.13,1.14,1.14,0,0,0-.57.13,1,1,0,0,0-.37.39,1.89,1.89,0,0,0-.22.58,4.38,4.38,0,0,0-.06.75v.91a4.38,4.38,0,0,0,.06.75,1.89,1.89,0,0,0,.22.58,1,1,0,0,0,.37.39A1.14,1.14,0,0,0,201.93,33.73Z"/>
  </g>
  <g>
    <path d="M223.45,29.21H221l-.16,2.14h.06a1.61,1.61,0,0,1,.45-.45,1.27,1.27,0,0,1,.7-.17,1.85,1.85,0,0,1,.67.12,1.58,1.58,0,0,1,.53.35,1.49,1.49,0,0,1,.35.54,2.07,2.07,0,0,1,.12.73,2,2,0,0,1-.13.75,1.56,1.56,0,0,1-.37.59,1.67,1.67,0,0,1-.6.38,2.14,2.14,0,0,1-.79.14,2.33,2.33,0,0,1-.62-.08,1.75,1.75,0,0,1-.48-.21,1.85,1.85,0,0,1-.37-.31,3.07,3.07,0,0,1-.28-.35l.5-.39a1.92,1.92,0,0,0,.23.31,1.09,1.09,0,0,0,.25.23.91.91,0,0,0,.33.15,1.44,1.44,0,0,0,.44,0,1.19,1.19,0,0,0,.88-.3,1.21,1.21,0,0,0,.3-.87v-.08a1.17,1.17,0,0,0-.3-.86,1.15,1.15,0,0,0-.88-.31,1.17,1.17,0,0,0-.61.14,2.12,2.12,0,0,0-.39.34l-.58-.08.21-3.09h3Z"/>
    <path d="M225.67,34.23l2.15-5h-2.39v1h-.61V28.62h3.69v.59l-2.11,5Z"/>
    <path d="M231.2,31a1.19,1.19,0,0,0,.85-.26.86.86,0,0,0,.29-.67V30a.76.76,0,0,0-.28-.66,1.12,1.12,0,0,0-.73-.22,1.29,1.29,0,0,0-.71.18,1.53,1.53,0,0,0-.45.52l-.5-.39a2.5,2.5,0,0,1,.26-.33,1.42,1.42,0,0,1,.35-.29,1.62,1.62,0,0,1,.46-.21,2.25,2.25,0,0,1,.61-.08,2.46,2.46,0,0,1,.67.09,1.52,1.52,0,0,1,.54.27,1.35,1.35,0,0,1,.5,1.05,1.3,1.3,0,0,1-.09.49,1.16,1.16,0,0,1-.23.37,1.54,1.54,0,0,1-.34.28,1.52,1.52,0,0,1-.42.16v0a1.56,1.56,0,0,1,.44.16,1.25,1.25,0,0,1,.37.28,1.27,1.27,0,0,1,.27.42,1.4,1.4,0,0,1,.1.56,1.67,1.67,0,0,1-.14.67,1.48,1.48,0,0,1-.38.51,1.72,1.72,0,0,1-.61.34,2.37,2.37,0,0,1-.78.12,2.49,2.49,0,0,1-.64-.08,1.75,1.75,0,0,1-.5-.21,1.66,1.66,0,0,1-.38-.31,3.27,3.27,0,0,1-.3-.35l.51-.39a1.92,1.92,0,0,0,.23.31,1.23,1.23,0,0,0,.28.23,1,1,0,0,0,.34.15,1.55,1.55,0,0,0,.45,0,1.35,1.35,0,0,0,.91-.27,1,1,0,0,0,.3-.77v-.07a1,1,0,0,0-.3-.77,1.35,1.35,0,0,0-.91-.27h-.66V31Z"/>
    <path d="M236.34,34.33a1.59,1.59,0,0,1-1.47-.76,4.15,4.15,0,0,1-.46-2.14,4.16,4.16,0,0,1,.46-2.15,1.8,1.8,0,0,1,2.94,0,4.16,4.16,0,0,1,.46,2.15,4.15,4.15,0,0,1-.46,2.14A1.59,1.59,0,0,1,236.34,34.33Zm0-.6a1.08,1.08,0,0,0,.56-.13,1,1,0,0,0,.38-.39,1.66,1.66,0,0,0,.21-.58,3.54,3.54,0,0,0,.07-.75V31a3.54,3.54,0,0,0-.07-.75,1.66,1.66,0,0,0-.21-.58,1,1,0,0,0-.38-.39,1.27,1.27,0,0,0-1.12,0,1,1,0,0,0-.38.39,1.89,1.89,0,0,0-.22.58,4.38,4.38,0,0,0-.06.75v.91a4.38,4.38,0,0,0,.06.75,1.89,1.89,0,0,0,.22.58,1,1,0,0,0,.38.39A1.08,1.08,0,0,0,236.34,33.73Z"/>
  </g>
  <g>
    <path d="M257.77,29.21H255.3l-.16,2.14h.06a1.61,1.61,0,0,1,.45-.45,1.27,1.27,0,0,1,.7-.17,1.85,1.85,0,0,1,.67.12,1.58,1.58,0,0,1,.53.35,1.37,1.37,0,0,1,.35.54,2.07,2.07,0,0,1,.12.73,2.23,2.23,0,0,1-.12.75,1.66,1.66,0,0,1-1,1,2.24,2.24,0,0,1-.8.14,2.33,2.33,0,0,1-.62-.08A1.75,1.75,0,0,1,255,34a1.85,1.85,0,0,1-.37-.31,3.07,3.07,0,0,1-.28-.35l.51-.39a1.44,1.44,0,0,0,.22.31,1.09,1.09,0,0,0,.25.23,1,1,0,0,0,.33.15,1.44,1.44,0,0,0,.44,0,1.19,1.19,0,0,0,.88-.3,1.21,1.21,0,0,0,.3-.87v-.08a1.17,1.17,0,0,0-.3-.86,1.15,1.15,0,0,0-.88-.31,1.17,1.17,0,0,0-.61.14,2.12,2.12,0,0,0-.39.34l-.57-.08.2-3.09h3Z"/>
    <path d="M260,34.23l2.15-5h-2.4v1h-.61V28.62h3.69v.59l-2.11,5Z"/>
    <path d="M266.43,34.23v-1.1h-2.71v-.59l2.35-3.92h1v3.95h.81v.56h-.81v1.1Zm-2.07-1.66h2.07V29.14h0Z"/>
    <path d="M270.66,34.33a1.59,1.59,0,0,1-1.47-.76,4.15,4.15,0,0,1-.46-2.14,4.16,4.16,0,0,1,.46-2.15,1.8,1.8,0,0,1,2.94,0,4.16,4.16,0,0,1,.46,2.15,4.15,4.15,0,0,1-.46,2.14A1.59,1.59,0,0,1,270.66,34.33Zm0-.6a1.08,1.08,0,0,0,.56-.13,1,1,0,0,0,.38-.39,1.66,1.66,0,0,0,.21-.58,3.54,3.54,0,0,0,.07-.75V31a3.54,3.54,0,0,0-.07-.75,1.66,1.66,0,0,0-.21-.58,1,1,0,0,0-.38-.39,1.27,1.27,0,0,0-1.12,0,1,1,0,0,0-.38.39,1.66,1.66,0,0,0-.21.58,3.54,3.54,0,0,0-.07.75v.91a3.54,3.54,0,0,0,.07.75,1.66,1.66,0,0,0,.21.58,1,1,0,0,0,.38.39A1.08,1.08,0,0,0,270.66,33.73Z"/>
  </g>
  <g>
    <path d="M292,29.21h-2.47l-.16,2.14h.06a1.75,1.75,0,0,1,.45-.45,1.29,1.29,0,0,1,.7-.17,1.81,1.81,0,0,1,.67.12,1.58,1.58,0,0,1,.53.35,1.37,1.37,0,0,1,.35.54,2.07,2.07,0,0,1,.13.73,2.22,2.22,0,0,1-.13.75,1.58,1.58,0,0,1-.38.59,1.71,1.71,0,0,1-.59.38,2.24,2.24,0,0,1-.8.14,2.33,2.33,0,0,1-.62-.08,1.75,1.75,0,0,1-.48-.21,1.85,1.85,0,0,1-.37-.31,3.07,3.07,0,0,1-.28-.35l.51-.39a1.89,1.89,0,0,0,.22.31,1.34,1.34,0,0,0,.25.23,1,1,0,0,0,.33.15,1.44,1.44,0,0,0,.44,0,1.19,1.19,0,0,0,.88-.3,1.21,1.21,0,0,0,.3-.87v-.08a1.17,1.17,0,0,0-.3-.86,1.15,1.15,0,0,0-.88-.31,1.13,1.13,0,0,0-.6.14,2.18,2.18,0,0,0-.4.34l-.57-.08.2-3.09h3Z"/>
    <path d="M294.23,34.23l2.15-5H294v1h-.61V28.62h3.69v.59l-2.11,5Z"/>
    <path d="M301.66,29.21h-2.47L299,31.35h.06a1.61,1.61,0,0,1,.45-.45,1.27,1.27,0,0,1,.7-.17,1.85,1.85,0,0,1,.67.12,1.58,1.58,0,0,1,.53.35,1.37,1.37,0,0,1,.35.54,2.07,2.07,0,0,1,.12.73,2,2,0,0,1-.13.75,1.56,1.56,0,0,1-.37.59,1.67,1.67,0,0,1-.6.38,2.14,2.14,0,0,1-.79.14,2.33,2.33,0,0,1-.62-.08,1.75,1.75,0,0,1-.48-.21,1.85,1.85,0,0,1-.37-.31,3.07,3.07,0,0,1-.28-.35l.5-.39a1.92,1.92,0,0,0,.23.31,1.09,1.09,0,0,0,.25.23,1,1,0,0,0,.33.15,1.44,1.44,0,0,0,.44,0,1.19,1.19,0,0,0,.88-.3,1.21,1.21,0,0,0,.3-.87v-.08a1.17,1.17,0,0,0-.3-.86,1.15,1.15,0,0,0-.88-.31,1.17,1.17,0,0,0-.61.14,2.12,2.12,0,0,0-.39.34l-.58-.08.21-3.09h3Z"/>
    <path d="M304.89,34.33a1.59,1.59,0,0,1-1.47-.76,4.15,4.15,0,0,1-.46-2.14,4.16,4.16,0,0,1,.46-2.15,1.8,1.8,0,0,1,2.94,0,4.16,4.16,0,0,1,.46,2.15,4.15,4.15,0,0,1-.46,2.14A1.59,1.59,0,0,1,304.89,34.33Zm0-.6a1.08,1.08,0,0,0,.56-.13,1,1,0,0,0,.38-.39,1.89,1.89,0,0,0,.22-.58,4.38,4.38,0,0,0,.06-.75V31a4.38,4.38,0,0,0-.06-.75,1.89,1.89,0,0,0-.22-.58,1,1,0,0,0-.38-.39,1.27,1.27,0,0,0-1.12,0,1,1,0,0,0-.38.39,1.66,1.66,0,0,0-.21.58,3.54,3.54,0,0,0-.07.75v.91a3.54,3.54,0,0,0,.07.75,1.66,1.66,0,0,0,.21.58,1,1,0,0,0,.38.39A1.08,1.08,0,0,0,304.89,33.73Z"/>
  </g>
  <g>
    <path d="M317.65,29.21h-2.46L315,31.35h.06a1.64,1.64,0,0,1,.46-.45,1.23,1.23,0,0,1,.69-.17,1.81,1.81,0,0,1,.67.12,1.58,1.58,0,0,1,.53.35,1.37,1.37,0,0,1,.35.54,2.07,2.07,0,0,1,.13.73,2.22,2.22,0,0,1-.13.75,1.58,1.58,0,0,1-.38.59,1.71,1.71,0,0,1-.59.38,2.24,2.24,0,0,1-.8.14,2.33,2.33,0,0,1-.62-.08,1.75,1.75,0,0,1-.48-.21,1.55,1.55,0,0,1-.36-.31,3.17,3.17,0,0,1-.29-.35l.51-.39a1.89,1.89,0,0,0,.22.31,1.13,1.13,0,0,0,.26.23.86.86,0,0,0,.32.15,1.44,1.44,0,0,0,.44,0,1.19,1.19,0,0,0,.88-.3,1.21,1.21,0,0,0,.3-.87v-.08a1.17,1.17,0,0,0-.3-.86,1.15,1.15,0,0,0-.88-.31,1.13,1.13,0,0,0-.6.14,2.18,2.18,0,0,0-.4.34l-.57-.08.2-3.09h3Z"/>
    <path d="M319.88,34.23l2.15-5h-2.4v1H319V28.62h3.69v.59l-2.11,5Z"/>
    <path d="M325.72,34.33a1.94,1.94,0,0,1-.78-.15,1.63,1.63,0,0,1-.6-.42,1.91,1.91,0,0,1-.37-.69,2.75,2.75,0,0,1-.13-.9A3.83,3.83,0,0,1,324,31a5.14,5.14,0,0,1,.48-1,4.81,4.81,0,0,1,.65-.81,4.59,4.59,0,0,1,.69-.56h.87a9.73,9.73,0,0,0-.8.64,4.18,4.18,0,0,0-.62.65,3.68,3.68,0,0,0-.45.73,3.79,3.79,0,0,0-.3.88l0,0a1.92,1.92,0,0,1,.52-.58,1.41,1.41,0,0,1,.83-.23,1.85,1.85,0,0,1,.67.12,1.45,1.45,0,0,1,.52.35,1.46,1.46,0,0,1,.34.55,1.81,1.81,0,0,1,.13.72,2.27,2.27,0,0,1-.13.75,1.71,1.71,0,0,1-.38.59,1.81,1.81,0,0,1-.59.38A2.15,2.15,0,0,1,325.72,34.33Zm0-.6a1.21,1.21,0,0,0,.87-.3,1.22,1.22,0,0,0,.31-.88v-.06a1.08,1.08,0,0,0-1.18-1.19,1.08,1.08,0,0,0-1.17,1.19v.06a1.18,1.18,0,0,0,.31.88A1.17,1.17,0,0,0,325.71,33.73Z"/>
    <path d="M330.54,34.33a1.59,1.59,0,0,1-1.47-.76,4.15,4.15,0,0,1-.46-2.14,4.16,4.16,0,0,1,.46-2.15,1.8,1.8,0,0,1,2.94,0,4.16,4.16,0,0,1,.46,2.15,4.15,4.15,0,0,1-.46,2.14A1.59,1.59,0,0,1,330.54,34.33Zm0-.6a1.14,1.14,0,0,0,.57-.13,1,1,0,0,0,.37-.39,1.89,1.89,0,0,0,.22-.58,4.35,4.35,0,0,0,.07-.75V31a4.35,4.35,0,0,0-.07-.75,1.89,1.89,0,0,0-.22-.58,1,1,0,0,0-.37-.39,1.14,1.14,0,0,0-.57-.13,1.08,1.08,0,0,0-.56.13,1,1,0,0,0-.38.39,1.66,1.66,0,0,0-.21.58,3.54,3.54,0,0,0-.07.75v.91a3.54,3.54,0,0,0,.07.75,1.66,1.66,0,0,0,.21.58,1,1,0,0,0,.38.39A1.08,1.08,0,0,0,330.54,33.73Z"/>
  </g>
  <g>
    <path d="M171.75,23h-5.47a2,2,0,0,1-2.11-2V10.13a2,2,0,0,1,2.11-2h5.47a2,2,0,0,1,2.11,2V21.06A2,2,0,0,1,171.75,23Z" style="fill: #fff"/>
    <path d="M171.75,23.27h-5.47a2.29,2.29,0,0,1-2.36-2.21V10.13a2.29,2.29,0,0,1,2.36-2.22h5.47a2.29,2.29,0,0,1,2.36,2.22V21.06A2.29,2.29,0,0,1,171.75,23.27ZM166.28,8.41a1.79,1.79,0,0,0-1.86,1.72V21.06a1.79,1.79,0,0,0,1.86,1.71h5.47a1.8,1.8,0,0,0,1.86-1.71V10.13a1.8,1.8,0,0,0-1.86-1.72Z" style="fill: #939393"/>
  </g>
  <path d="M292,23h-5.47a2,2,0,0,1-2.11-2V10.13a2,2,0,0,1,2.11-2H292a2,2,0,0,1,2.11,2V21.06A2,2,0,0,1,292,23Z" style="fill: #a50000"/>
  <path d="M309,23h-5.47a2,2,0,0,1-2.11-2V10.13a2,2,0,0,1,2.11-2H309a2,2,0,0,1,2.11,2V21.06A2,2,0,0,1,309,23Z" style="fill: #830000"/>
  <path d="M326.1,23h-5.47a2,2,0,0,1-2.11-2V10.13a2,2,0,0,1,2.11-2h5.47a2,2,0,0,1,2.11,2V21.06A2,2,0,0,1,326.1,23Z" style="fill: brown"/>
  <path d="M51.84,23H46.38a2,2,0,0,1-2.11-2V10.13a2,2,0,0,1,2.11-2h5.46a2,2,0,0,1,2.11,2V21.06A2,2,0,0,1,51.84,23Z" style="fill: #0048ab"/>
  <path d="M34.76,23H29.29a2,2,0,0,1-2.11-2V10.13a2,2,0,0,1,2.11-2h5.47a2,2,0,0,1,2.11,2V21.06A2,2,0,0,1,34.76,23Z" style="fill: #001476"/>
  <path d="M17.6,23H12.13a2,2,0,0,1-2.11-2V10.13a2,2,0,0,1,2.11-2H17.6a2,2,0,0,1,2.1,2V21.06A2,2,0,0,1,17.6,23Z" style="fill: #00074c"/>
  <path d="M68.93,23H63.47a2,2,0,0,1-2.11-2V10.13a2,2,0,0,1,2.11-2h5.46a2,2,0,0,1,2.11,2V21.06A2,2,0,0,1,68.93,23Z" style="fill: #0067c6"/>
  <path d="M86,23H80.55a2,2,0,0,1-2.1-2V10.13a2,2,0,0,1,2.1-2H86a2,2,0,0,1,2.11,2V21.06A2,2,0,0,1,86,23Z" style="fill: #0090d7"/>
  <path d="M103.1,23H97.63a2,2,0,0,1-2.1-2V10.13a2,2,0,0,1,2.1-2h5.47a2,2,0,0,1,2.11,2V21.06A2,2,0,0,1,103.1,23Z" style="fill: #00a0db"/>
  <path d="M120.19,23h-5.47a2,2,0,0,1-2.11-2V10.13a2,2,0,0,1,2.11-2h5.47a2,2,0,0,1,2.11,2V21.06A2,2,0,0,1,120.19,23Z" style="fill: #00c4e1"/>
  <path d="M137.35,23h-5.47a2,2,0,0,1-2.11-2V10.13a2,2,0,0,1,2.11-2h5.47a2,2,0,0,1,2.11,2V21.06A2,2,0,0,1,137.35,23Z" style="fill: #5ce1ee"/>
  <path d="M154.51,23H149a2,2,0,0,1-2.1-2V10.13a2,2,0,0,1,2.1-2h5.47a2,2,0,0,1,2.11,2V21.06A2,2,0,0,1,154.51,23Z" style="fill: #c0f6ff"/>
  <path d="M188.91,23h-5.47a2,2,0,0,1-2.11-2V10.13a2,2,0,0,1,2.11-2h5.47a2,2,0,0,1,2.11,2V21.06A2,2,0,0,1,188.91,23Z" style="fill: #ffdcde"/>
  <path d="M206.07,23H200.6a2,2,0,0,1-2.11-2V10.13a2,2,0,0,1,2.11-2h5.47a2,2,0,0,1,2.11,2V21.06A2,2,0,0,1,206.07,23Z" style="fill: #ffb59e"/>
  <path d="M223.32,23h-5.47a2,2,0,0,1-2.11-2V10.13a2,2,0,0,1,2.11-2h5.47a2,2,0,0,1,2.11,2V21.06A2,2,0,0,1,223.32,23Z" style="fill: #ff834b"/>
  <path d="M240.48,23H235a2,2,0,0,1-2.11-2V10.13a2,2,0,0,1,2.11-2h5.47a2,2,0,0,1,2.11,2V21.06A2,2,0,0,1,240.48,23Z" style="fill: #ff4100"/>
  <path d="M257.64,23h-5.47a2,2,0,0,1-2.11-2V10.13a2,2,0,0,1,2.11-2h5.47a2,2,0,0,1,2.11,2V21.06A2,2,0,0,1,257.64,23Z" style="fill: red"/>
  <path d="M274.8,23h-5.47a2,2,0,0,1-2.11-2V10.13a2,2,0,0,1,2.11-2h5.47a2,2,0,0,1,2.11,2V21.06A2,2,0,0,1,274.8,23Z" style="fill: #e30000"/>
</svg>
