<svg id="Camada_1" data-name="Camada 1" xmlns="http://www.w3.org/2000/svg" viewBox="0 0 285.95 57.45">
  <title>LEGENDAS_PÁGINA_CLIMA</title>
  <g style="opacity: 0.75">
    <path d="M0,6.38A6.37,6.37,0,0,1,6.35,0H279.59A6.37,6.37,0,0,1,286,6.38V51.07a6.37,6.37,0,0,1-6.36,6.38H6.35A6.37,6.37,0,0,1,0,51.07Z" style="fill: #fff"/>
  </g>
  <g>
    <path d="M71.47,43.26V48.7h-.74V43.26H68.8v-.64h4.6v.64Z"/>
    <path d="M75.46,48.81a2,2,0,0,1-.83-.17,1.87,1.87,0,0,1-.64-.47,2.31,2.31,0,0,1-.41-.74,3,3,0,0,1-.14-1,2.93,2.93,0,0,1,.14-1,2.26,2.26,0,0,1,.41-.75,1.75,1.75,0,0,1,.64-.47,2,2,0,0,1,.83-.17,1.92,1.92,0,0,1,.81.17,1.83,1.83,0,0,1,.61.45,2.13,2.13,0,0,1,.39.69,2.75,2.75,0,0,1,.13.88v.33H74.17v.21a1.61,1.61,0,0,0,.09.54,1.45,1.45,0,0,0,.26.43,1.24,1.24,0,0,0,.42.28,1.43,1.43,0,0,0,.56.11,1.4,1.4,0,0,0,.75-.2,1.34,1.34,0,0,0,.49-.58l.5.36a1.75,1.75,0,0,1-.68.75A2.07,2.07,0,0,1,75.46,48.81Zm0-4.13a1.42,1.42,0,0,0-.52.1,1.09,1.09,0,0,0-.41.29,1.29,1.29,0,0,0-.26.42,1.42,1.42,0,0,0-.1.55v.06h2.48V46a1.41,1.41,0,0,0-.32-1A1.12,1.12,0,0,0,75.46,44.68Z"/>
    <path d="M78.55,48.7V44.2h.7v.73h0a1.65,1.65,0,0,1,.18-.32.88.88,0,0,1,.24-.27,1.2,1.2,0,0,1,.34-.17,1.18,1.18,0,0,1,.45-.07,1.67,1.67,0,0,1,.82.21,1.33,1.33,0,0,1,.56.7h0a1.5,1.5,0,0,1,.46-.64,1.41,1.41,0,0,1,.91-.27,1.35,1.35,0,0,1,1.08.45,1.87,1.87,0,0,1,.39,1.27V48.7H84V45.93a1.42,1.42,0,0,0-.24-.9.86.86,0,0,0-.75-.31,1.6,1.6,0,0,0-.39.05,1.19,1.19,0,0,0-.34.16.67.67,0,0,0-.23.27.74.74,0,0,0-.09.38V48.7h-.7V45.93a1.49,1.49,0,0,0-.23-.9.86.86,0,0,0-.74-.31,1.75,1.75,0,0,0-.4.05,1.33,1.33,0,0,0-.34.16.78.78,0,0,0-.24.27.74.74,0,0,0-.09.38V48.7Z"/>
    <path d="M86.17,44.2h.69v.73h0a1.24,1.24,0,0,1,.51-.63,1.56,1.56,0,0,1,.8-.2,1.7,1.7,0,0,1,.76.17,1.55,1.55,0,0,1,.58.47,2.23,2.23,0,0,1,.37.74,3.61,3.61,0,0,1,.13,1,3.69,3.69,0,0,1-.13,1,2.23,2.23,0,0,1-.37.74,1.55,1.55,0,0,1-.58.47,1.7,1.7,0,0,1-.76.17A1.36,1.36,0,0,1,86.9,48h0v2.47h-.69Zm1.85,4a1.21,1.21,0,0,0,.94-.37,1.44,1.44,0,0,0,.34-1v-.77a1.44,1.44,0,0,0-.34-1,1.21,1.21,0,0,0-.94-.37,1.57,1.57,0,0,0-.82.24,1.12,1.12,0,0,0-.25.28.7.7,0,0,0-.09.35v1.68a.8.8,0,0,0,.09.39,1,1,0,0,0,.62.47A1.74,1.74,0,0,0,88,48.19Z"/>
    <path d="M92.91,48.81a2.05,2.05,0,0,1-.83-.17,1.87,1.87,0,0,1-.64-.47,2.52,2.52,0,0,1-.41-.74,3.31,3.31,0,0,1-.14-1,3.22,3.22,0,0,1,.14-1,2.46,2.46,0,0,1,.41-.75,1.75,1.75,0,0,1,.64-.47,2.05,2.05,0,0,1,.83-.17,1.86,1.86,0,0,1,.81.17,1.73,1.73,0,0,1,.61.45,2.13,2.13,0,0,1,.39.69,2.75,2.75,0,0,1,.14.88v.33H91.62v.21a1.61,1.61,0,0,0,.09.54,1.48,1.48,0,0,0,.27.43,1.15,1.15,0,0,0,.42.28A1.47,1.47,0,0,0,93.7,48a1.28,1.28,0,0,0,.49-.58l.5.36a1.69,1.69,0,0,1-.68.75A2,2,0,0,1,92.91,48.81Zm0-4.13a1.46,1.46,0,0,0-.52.1,1.18,1.18,0,0,0-.41.29,1.29,1.29,0,0,0-.26.42,1.42,1.42,0,0,0-.1.55v.06h2.49V46a1.37,1.37,0,0,0-.33-1A1.12,1.12,0,0,0,92.91,44.68Z"/>
    <path d="M96,48.7V44.2h.7V45h0a1.38,1.38,0,0,1,.44-.57,1.3,1.3,0,0,1,.86-.26h.27v.7h-.41a1.54,1.54,0,0,0-.89.22.62.62,0,0,0-.31.53V48.7Z"/>
    <path d="M102.44,48.7a.68.68,0,0,1-.56-.21.94.94,0,0,1-.21-.52h0a1.16,1.16,0,0,1-.49.63,1.48,1.48,0,0,1-.81.21,1.57,1.57,0,0,1-1.11-.37,1.28,1.28,0,0,1-.39-1,1.14,1.14,0,0,1,.46-1,2.54,2.54,0,0,1,1.45-.34h.89v-.44a1,1,0,0,0-.26-.74,1.14,1.14,0,0,0-.8-.25,1.27,1.27,0,0,0-.69.18,1.63,1.63,0,0,0-.45.49L99,45a1.63,1.63,0,0,1,.58-.62,2.18,2.18,0,0,1,2.29.14,1.42,1.42,0,0,1,.45,1.11v2.47h.51v.62Zm-2-.48a1.85,1.85,0,0,0,.48-.07,1.05,1.05,0,0,0,.37-.17.73.73,0,0,0,.24-.26.62.62,0,0,0,.09-.32v-.75h-.92a1.68,1.68,0,0,0-.88.18.57.57,0,0,0-.27.51v.18a.6.6,0,0,0,.24.51A1,1,0,0,0,100.44,48.22Z"/>
    <path d="M104.82,48.7a.69.69,0,0,1-.55-.2.76.76,0,0,1-.19-.54V44.82h-.74V44.2h.42a.43.43,0,0,0,.31-.09.48.48,0,0,0,.08-.31V43h.63V44.2h1v.62h-1v3.26h.91v.62Z"/>
    <path d="M109.66,48h0l-.17.31a1,1,0,0,1-.25.26,1.23,1.23,0,0,1-.36.19,1.45,1.45,0,0,1-.49.07,1.41,1.41,0,0,1-1.1-.45,1.78,1.78,0,0,1-.41-1.27V44.2h.69V47c0,.81.35,1.22,1,1.22a1.84,1.84,0,0,0,.41,0,1.39,1.39,0,0,0,.35-.16.78.78,0,0,0,.24-.27.75.75,0,0,0,.09-.39V44.2h.7v4.5h-.7Z"/>
    <path d="M111.84,48.7V44.2h.7V45h0a1.38,1.38,0,0,1,.44-.57,1.34,1.34,0,0,1,.86-.26h.27v.7h-.41a1.49,1.49,0,0,0-.88.22.63.63,0,0,0-.32.53V48.7Z"/>
    <path d="M118.27,48.7a.69.69,0,0,1-.56-.21,1,1,0,0,1-.21-.52h0a1.21,1.21,0,0,1-.49.63,1.53,1.53,0,0,1-.81.21,1.58,1.58,0,0,1-1.12-.37,1.28,1.28,0,0,1-.39-1,1.14,1.14,0,0,1,.46-1,2.58,2.58,0,0,1,1.46-.34h.89v-.44a1,1,0,0,0-.27-.74,1.14,1.14,0,0,0-.8-.25,1.21,1.21,0,0,0-.68.18,1.54,1.54,0,0,0-.46.49l-.42-.39a1.58,1.58,0,0,1,.59-.62,1.82,1.82,0,0,1,1-.26,1.84,1.84,0,0,1,1.27.4,1.42,1.42,0,0,1,.45,1.11v2.47h.52v.62Zm-2-.48a1.85,1.85,0,0,0,.48-.07,1.05,1.05,0,0,0,.37-.17.88.88,0,0,0,.25-.26.62.62,0,0,0,.09-.32v-.75h-.93a1.68,1.68,0,0,0-.88.18.57.57,0,0,0-.27.51v.18a.6.6,0,0,0,.24.51A1.07,1.07,0,0,0,116.27,48.22Z"/>
    <path d="M124.6,48h0a1.37,1.37,0,0,1-1.32.83,1.69,1.69,0,0,1-.75-.17,1.55,1.55,0,0,1-.58-.47,2.06,2.06,0,0,1-.37-.74,3.69,3.69,0,0,1-.13-1,3.61,3.61,0,0,1,.13-1,2.06,2.06,0,0,1,.37-.74,1.55,1.55,0,0,1,.58-.47,1.69,1.69,0,0,1,.75-.17,1.57,1.57,0,0,1,.81.2,1.35,1.35,0,0,1,.51.63h0V42.25h.69V48.7h-.69Zm-1.16.21a1.74,1.74,0,0,0,.45-.06,1.16,1.16,0,0,0,.37-.18,1,1,0,0,0,.24-.29.71.71,0,0,0,.1-.39V45.59a.62.62,0,0,0-.1-.35.92.92,0,0,0-.24-.28,1.57,1.57,0,0,0-.82-.24,1.21,1.21,0,0,0-.94.37,1.44,1.44,0,0,0-.34,1v.77a1.44,1.44,0,0,0,.34,1A1.21,1.21,0,0,0,123.44,48.19Z"/>
    <path d="M130.05,48.7a.7.7,0,0,1-.57-.21,1,1,0,0,1-.21-.52h0a1.21,1.21,0,0,1-.49.63,1.77,1.77,0,0,1-1.92-.16,1.25,1.25,0,0,1-.4-1,1.14,1.14,0,0,1,.46-1,2.58,2.58,0,0,1,1.46-.34h.89v-.44A1,1,0,0,0,129,45a1.14,1.14,0,0,0-.8-.25,1.21,1.21,0,0,0-.68.18,1.54,1.54,0,0,0-.46.49L126.6,45a1.58,1.58,0,0,1,.59-.62,1.82,1.82,0,0,1,1-.26,1.84,1.84,0,0,1,1.27.4,1.42,1.42,0,0,1,.45,1.11v2.47h.52v.62Zm-2-.48a1.85,1.85,0,0,0,.48-.07,1.05,1.05,0,0,0,.37-.17.88.88,0,0,0,.25-.26.62.62,0,0,0,.09-.32v-.75h-.93a1.61,1.61,0,0,0-.87.18.56.56,0,0,0-.28.51v.18a.6.6,0,0,0,.24.51A1.07,1.07,0,0,0,128,48.22Z"/>
    <path d="M135.27,48.81a2.74,2.74,0,0,1-1.27-.28,2.78,2.78,0,0,1-.89-.79l.55-.45a2.28,2.28,0,0,0,.71.65,1.82,1.82,0,0,0,.92.22,1.43,1.43,0,0,0,1-.31,1.09,1.09,0,0,0,.35-.84.87.87,0,0,0-.26-.67,2,2,0,0,0-.87-.37l-.49-.12a2.88,2.88,0,0,1-1.28-.58,1.35,1.35,0,0,1-.44-1.09,1.66,1.66,0,0,1,.15-.72,1.3,1.3,0,0,1,.41-.52,1.83,1.83,0,0,1,.64-.32,2.94,2.94,0,0,1,.81-.11,2.54,2.54,0,0,1,1.18.26,2.19,2.19,0,0,1,.84.74l-.55.4a2,2,0,0,0-.61-.55,1.86,1.86,0,0,0-.89-.2,1.48,1.48,0,0,0-.92.25.84.84,0,0,0-.34.74.79.79,0,0,0,.29.66,2,2,0,0,0,.85.35l.5.12a2.51,2.51,0,0,1,1.3.61,1.46,1.46,0,0,1,.4,1.09,2.06,2.06,0,0,1-.14.76,1.69,1.69,0,0,1-.42.57,1.92,1.92,0,0,1-.66.37A2.89,2.89,0,0,1,135.27,48.81Z"/>
    <path d="M141.33,48h0a1.59,1.59,0,0,1-.17.31.88.88,0,0,1-.25.26,1.17,1.17,0,0,1-.35.19,1.49,1.49,0,0,1-.49.07,1.42,1.42,0,0,1-1.11-.45,1.83,1.83,0,0,1-.41-1.27V44.2h.7V47c0,.81.34,1.22,1,1.22a1.75,1.75,0,0,0,.4,0A1.25,1.25,0,0,0,141,48a.81.81,0,0,0,.25-.27.75.75,0,0,0,.09-.39V44.2H142v4.5h-.69Z"/>
    <path d="M143.51,44.2h.69v.73h0a1.35,1.35,0,0,1,.51-.63,1.57,1.57,0,0,1,.81-.2,1.73,1.73,0,0,1,.76.17,1.6,1.6,0,0,1,.57.47,2.06,2.06,0,0,1,.37.74,3.25,3.25,0,0,1,.13,1,3.32,3.32,0,0,1-.13,1,2.06,2.06,0,0,1-.37.74,1.6,1.6,0,0,1-.57.47,1.73,1.73,0,0,1-.76.17,1.37,1.37,0,0,1-1.32-.83h0v2.47h-.69Zm1.85,4a1.21,1.21,0,0,0,.94-.37,1.44,1.44,0,0,0,.34-1v-.77a1.44,1.44,0,0,0-.34-1,1.21,1.21,0,0,0-.94-.37,1.31,1.31,0,0,0-.44.07,1.33,1.33,0,0,0-.38.17.92.92,0,0,0-.24.28.62.62,0,0,0-.1.35v1.68a.71.71,0,0,0,.1.39,1,1,0,0,0,.24.29,1.11,1.11,0,0,0,.38.18A1.61,1.61,0,0,0,145.36,48.19Z"/>
    <path d="M150.26,48.81a2.07,2.07,0,0,1-.84-.17,1.83,1.83,0,0,1-.63-.47,2.14,2.14,0,0,1-.41-.74,3,3,0,0,1-.15-1,2.93,2.93,0,0,1,.15-1,2.1,2.1,0,0,1,.41-.75,1.71,1.71,0,0,1,.63-.47,2.07,2.07,0,0,1,.84-.17,1.86,1.86,0,0,1,1.42.62,2.11,2.11,0,0,1,.38.69,2.75,2.75,0,0,1,.14.88v.33H149v.21a1.61,1.61,0,0,0,.09.54,1.27,1.27,0,0,0,.26.43,1.15,1.15,0,0,0,.42.28A1.47,1.47,0,0,0,151,48a1.3,1.3,0,0,0,.5-.58l.49.36a1.69,1.69,0,0,1-.68.75A2,2,0,0,1,150.26,48.81Zm0-4.13a1.47,1.47,0,0,0-.53.1,1.14,1.14,0,0,0-.4.29,1.17,1.17,0,0,0-.27.42A1.63,1.63,0,0,0,149,46v.06h2.48V46a1.37,1.37,0,0,0-.33-1A1.1,1.1,0,0,0,150.26,44.68Z"/>
    <path d="M153.35,48.7V44.2h.7V45h0a1.38,1.38,0,0,1,.44-.57,1.32,1.32,0,0,1,.86-.26h.27v.7h-.41a1.49,1.49,0,0,0-.88.22.61.61,0,0,0-.32.53V48.7Z"/>
    <path d="M156.83,44.82h-.73V44.2h.73v-.9a1.14,1.14,0,0,1,.24-.76.92.92,0,0,1,.74-.29h.68v.62h-1V44.2h1v.62h-1V48.7h-.7Z"/>
    <path d="M159.83,43.6l-.46-.21.75-1.48.63.31Zm-.42,5.1V44.2h.7v4.5Z"/>
    <path d="M163.26,48.81a2.07,2.07,0,0,1-.84-.17,1.63,1.63,0,0,1-.63-.47,2,2,0,0,1-.4-.74,3.32,3.32,0,0,1-.13-1,3.25,3.25,0,0,1,.13-1,2,2,0,0,1,.4-.74,1.63,1.63,0,0,1,.63-.47,2.07,2.07,0,0,1,.84-.17A1.67,1.67,0,0,1,165,45.16l-.59.29a1,1,0,0,0-.4-.54,1.2,1.2,0,0,0-.7-.19,1.35,1.35,0,0,0-.55.1,1.21,1.21,0,0,0-.39.28,1.18,1.18,0,0,0-.23.43,1.53,1.53,0,0,0-.08.54v.77a1.42,1.42,0,0,0,.32,1,1.15,1.15,0,0,0,.93.38,1.25,1.25,0,0,0,1.22-.79l.51.34a1.78,1.78,0,0,1-.65.78A1.93,1.93,0,0,1,163.26,48.81Z"/>
    <path d="M166.32,43.15A.41.41,0,0,1,166,43a.39.39,0,0,1-.1-.28v-.12a.39.39,0,0,1,.1-.28.41.41,0,0,1,.32-.11.44.44,0,0,1,.33.11.39.39,0,0,1,.1.28v.12a.39.39,0,0,1-.1.28A.44.44,0,0,1,166.32,43.15ZM166,44.2h.69v4.5H166Z"/>
    <path d="M169.85,48.81a2.07,2.07,0,0,1-.84-.17,1.83,1.83,0,0,1-.63-.47,2.14,2.14,0,0,1-.41-.74,3,3,0,0,1-.15-1,2.93,2.93,0,0,1,.15-1,2.1,2.1,0,0,1,.41-.75,1.71,1.71,0,0,1,.63-.47,2.07,2.07,0,0,1,.84-.17,1.92,1.92,0,0,1,.81.17,1.83,1.83,0,0,1,.61.45,1.94,1.94,0,0,1,.38.69,2.5,2.5,0,0,1,.14.88v.33h-3.23v.21a1.61,1.61,0,0,0,.09.54,1.45,1.45,0,0,0,.26.43,1.15,1.15,0,0,0,.42.28,1.4,1.4,0,0,0,.56.11,1.45,1.45,0,0,0,.75-.2,1.34,1.34,0,0,0,.49-.58l.49.36a1.69,1.69,0,0,1-.68.75A2,2,0,0,1,169.85,48.81Zm0-4.13a1.47,1.47,0,0,0-.53.1,1.14,1.14,0,0,0-.4.29,1.32,1.32,0,0,0-.27.42,1.63,1.63,0,0,0-.09.55v.06H171V46a1.37,1.37,0,0,0-.33-1A1.09,1.09,0,0,0,169.85,44.68Z"/>
    <path d="M177.88,48h0a1.37,1.37,0,0,1-1.32.83,1.69,1.69,0,0,1-.75-.17,1.55,1.55,0,0,1-.58-.47,2.06,2.06,0,0,1-.37-.74,3.69,3.69,0,0,1-.13-1,3.61,3.61,0,0,1,.13-1,2.06,2.06,0,0,1,.37-.74,1.55,1.55,0,0,1,.58-.47,1.69,1.69,0,0,1,.75-.17,1.57,1.57,0,0,1,.81.2,1.35,1.35,0,0,1,.51.63h0V42.25h.69V48.7h-.69Zm-1.16.21a1.74,1.74,0,0,0,.45-.06,1.16,1.16,0,0,0,.37-.18,1,1,0,0,0,.24-.29.71.71,0,0,0,.1-.39V45.59a.62.62,0,0,0-.1-.35.92.92,0,0,0-.24-.28,1.57,1.57,0,0,0-.82-.24,1.21,1.21,0,0,0-.94.37,1.44,1.44,0,0,0-.34,1v.77a1.44,1.44,0,0,0,.34,1A1.21,1.21,0,0,0,176.72,48.19Z"/>
    <path d="M181.76,48.81a2,2,0,0,1-.83-.17,1.78,1.78,0,0,1-.64-.47,2.34,2.34,0,0,1-.42-.74,3,3,0,0,1-.15-1,2.93,2.93,0,0,1,.15-1,2.28,2.28,0,0,1,.42-.75,1.67,1.67,0,0,1,.64-.47,2.09,2.09,0,0,1,1.65,0,1.75,1.75,0,0,1,.64.47,2.28,2.28,0,0,1,.42.75,2.93,2.93,0,0,1,.15,1,3,3,0,0,1-.15,1,2.34,2.34,0,0,1-.42.74,1.87,1.87,0,0,1-.64.47A2,2,0,0,1,181.76,48.81Zm0-.62a1.28,1.28,0,0,0,.92-.35,1.42,1.42,0,0,0,.36-1.06v-.65a1.42,1.42,0,0,0-.36-1.06,1.4,1.4,0,0,0-1.85,0,1.42,1.42,0,0,0-.36,1.06v.65a1.42,1.42,0,0,0,.36,1.06A1.29,1.29,0,0,0,181.76,48.19Z"/>
    <path d="M191.81,43.58h0l-.52,1-1.46,2.65-1.45-2.65-.52-1h0V48.7h-.71V42.62h1l1.75,3.28h0l1.75-3.28h.94V48.7h-.71Z"/>
    <path d="M197.35,48.7a.7.7,0,0,1-.57-.21,1,1,0,0,1-.21-.52h0a1.21,1.21,0,0,1-.49.63,1.53,1.53,0,0,1-.81.21,1.58,1.58,0,0,1-1.12-.37,1.28,1.28,0,0,1-.39-1,1.14,1.14,0,0,1,.46-1,2.58,2.58,0,0,1,1.46-.34h.89v-.44a1,1,0,0,0-.27-.74,1.14,1.14,0,0,0-.8-.25,1.21,1.21,0,0,0-.68.18,1.54,1.54,0,0,0-.46.49L193.9,45a1.58,1.58,0,0,1,.59-.62,1.82,1.82,0,0,1,1-.26,1.84,1.84,0,0,1,1.27.4,1.42,1.42,0,0,1,.45,1.11v2.47h.52v.62Zm-2-.48a1.85,1.85,0,0,0,.48-.07,1.05,1.05,0,0,0,.37-.17.88.88,0,0,0,.25-.26.62.62,0,0,0,.09-.32v-.75h-.93a1.61,1.61,0,0,0-.87.18.56.56,0,0,0-.28.51v.18a.6.6,0,0,0,.24.51A1.07,1.07,0,0,0,195.34,48.22Z"/>
    <path d="M198.73,48.7V44.2h.7V45h0a1.38,1.38,0,0,1,.44-.57,1.34,1.34,0,0,1,.86-.26H201v.7h-.41a1.49,1.49,0,0,0-.88.22.63.63,0,0,0-.32.53V48.7Z"/>
    <path d="M204,46a6.06,6.06,0,0,1,.12-1.21,5.69,5.69,0,0,1,.34-1.08,4.65,4.65,0,0,1,.5-.91,3.56,3.56,0,0,1,.62-.7h.66a4.62,4.62,0,0,0-1.15,1.64,4.71,4.71,0,0,0-.32,1,3.88,3.88,0,0,0-.11.94v.75a4,4,0,0,0,.11,1,5.15,5.15,0,0,0,.32,1,6,6,0,0,0,.5.89,4.58,4.58,0,0,0,.65.73h-.66a3.39,3.39,0,0,1-.61-.68,5,5,0,0,1-.5-.92,5.79,5.79,0,0,1-.34-1.09A5.46,5.46,0,0,1,204,46Z"/>
    <path d="M207.9,45.7a1.23,1.23,0,0,1-1-.41,2,2,0,0,1,0-2.31,1.41,1.41,0,0,1,2,0,2,2,0,0,1,0,2.31A1.24,1.24,0,0,1,207.9,45.7Zm0-.45a.69.69,0,0,0,.57-.23.93.93,0,0,0,.19-.61v-.55a.93.93,0,0,0-.19-.61.69.69,0,0,0-.57-.23.72.72,0,0,0-.57.23,1,1,0,0,0-.18.61v.55a1,1,0,0,0,.18.61A.72.72,0,0,0,207.9,45.25Z"/>
    <path d="M212.59,48.81a2.18,2.18,0,0,1-1.8-.79,3.6,3.6,0,0,1-.65-2.32,3.75,3.75,0,0,1,.65-2.36,2.16,2.16,0,0,1,1.8-.83,2.15,2.15,0,0,1,2.1,1.33l-.6.36a1.65,1.65,0,0,0-.55-.76,1.53,1.53,0,0,0-.95-.28,1.6,1.6,0,0,0-.7.15,1.51,1.51,0,0,0-.52.42,2.15,2.15,0,0,0-.33.66,3.18,3.18,0,0,0-.11.85v.91a2.29,2.29,0,0,0,.43,1.48,1.5,1.5,0,0,0,1.23.53,1.57,1.57,0,0,0,1-.3,1.77,1.77,0,0,0,.58-.8l.58.37a2.31,2.31,0,0,1-.83,1A2.22,2.22,0,0,1,212.59,48.81Z"/>
    <path d="M217.25,46a5.46,5.46,0,0,1-.13,1.23,5.14,5.14,0,0,1-.34,1.09,5,5,0,0,1-.5.92,3.39,3.39,0,0,1-.61.68H215a4.58,4.58,0,0,0,.65-.73,6,6,0,0,0,.5-.89,5.15,5.15,0,0,0,.32-1,4,4,0,0,0,.12-1v-.75a3.91,3.91,0,0,0-.12-.94,4.71,4.71,0,0,0-.32-1A4.62,4.62,0,0,0,215,42.08h.66a3.56,3.56,0,0,1,.62.7,4.65,4.65,0,0,1,.5.91,5.69,5.69,0,0,1,.34,1.08A6.06,6.06,0,0,1,217.25,46Z"/>
  </g>
  <path d="M171.38,23h-5.47a2,2,0,0,1-2.11-2V10.13a2,2,0,0,1,2.11-2h5.47a2,2,0,0,1,2.11,2V21.06A2,2,0,0,1,171.38,23Z" style="fill: #b9ef92"/>
  <path d="M51.79,23H46.33a2,2,0,0,1-2.11-2V10.13a2,2,0,0,1,2.11-2h5.46a2,2,0,0,1,2.11,2V21.06A2,2,0,0,1,51.79,23Z" style="fill: #2e7bf7"/>
  <path d="M34.71,23H29.24a2,2,0,0,1-2.1-2V10.13a2,2,0,0,1,2.1-2h5.47a2,2,0,0,1,2.11,2V21.06A2,2,0,0,1,34.71,23Z" style="fill: #6032fe"/>
  <path d="M68.88,23H63.41a2,2,0,0,1-2.11-2V10.13a2,2,0,0,1,2.11-2h5.47a2,2,0,0,1,2.11,2V21.06A2,2,0,0,1,68.88,23Z" style="fill: #1e91f3"/>
  <path d="M86,23H80.49a2,2,0,0,1-2.1-2V10.13a2,2,0,0,1,2.1-2H86a2,2,0,0,1,2.11,2V21.06A2,2,0,0,1,86,23Z" style="fill: #14cae5"/>
  <path d="M103,23H97.58a2,2,0,0,1-2.11-2V10.13a2,2,0,0,1,2.11-2H103a2,2,0,0,1,2.11,2V21.06A2,2,0,0,1,103,23Z" style="fill: #24d8df"/>
  <path d="M120.13,23h-5.47a2,2,0,0,1-2.11-2V10.13a2,2,0,0,1,2.11-2h5.47a2,2,0,0,1,2.11,2V21.06A2,2,0,0,1,120.13,23Z" style="fill: #54f6cb"/>
  <path d="M137.21,23h-5.47a2,2,0,0,1-2.1-2V10.13a2,2,0,0,1,2.1-2h5.47a2,2,0,0,1,2.11,2V21.06A2,2,0,0,1,137.21,23Z" style="fill: #67fcc2"/>
  <path d="M154.29,23h-5.46a2,2,0,0,1-2.11-2V10.13a2,2,0,0,1,2.11-2h5.46a2,2,0,0,1,2.11,2V21.06A2,2,0,0,1,154.29,23Z" style="fill: #96fca7"/>
  <path d="M188.46,23H183a2,2,0,0,1-2.1-2V10.13a2,2,0,0,1,2.1-2h5.47a2,2,0,0,1,2.11,2V21.06A2,2,0,0,1,188.46,23Z" style="fill: #d9da7d"/>
  <path d="M205.54,23h-5.46a2,2,0,0,1-2.11-2V10.13a2,2,0,0,1,2.11-2h5.46a2,2,0,0,1,2.11,2V21.06A2,2,0,0,1,205.54,23Z" style="fill: #e8cb72"/>
  <path d="M222.63,23h-5.47a2,2,0,0,1-2.11-2V10.13a2,2,0,0,1,2.11-2h5.47a2,2,0,0,1,2.11,2V21.06A2,2,0,0,1,222.63,23Z" style="fill: #ff934d"/>
  <path d="M239.79,23h-5.47a2,2,0,0,1-2.11-2V10.13a2,2,0,0,1,2.11-2h5.47a2,2,0,0,1,2.11,2V21.06A2,2,0,0,1,239.79,23Z" style="fill: #ff7e41"/>
  <path d="M257,23h-5.47a2,2,0,0,1-2.11-2V10.13a2,2,0,0,1,2.11-2H257a2,2,0,0,1,2.11,2V21.06A2,2,0,0,1,257,23Z" style="fill: #ff351b"/>
  <path d="M274.11,23h-5.47a2,2,0,0,1-2.11-2V10.13a2,2,0,0,1,2.11-2h5.47a2,2,0,0,1,2.11,2V21.06A2,2,0,0,1,274.11,23Z" style="fill: red"/>
  <path d="M17.63,23H12.16a2,2,0,0,1-2.11-2V10.13a2,2,0,0,1,2.11-2h5.47a2,2,0,0,1,2.11,2V21.06A2,2,0,0,1,17.63,23Z" style="fill: #7019ff"/>
  <path d="M23.47,34A1.56,1.56,0,0,1,22,33.24a4.12,4.12,0,0,1-.47-2.14A4.12,4.12,0,0,1,22,29a1.57,1.57,0,0,1,1.46-.77,1.59,1.59,0,0,1,1.47.77,4.12,4.12,0,0,1,.47,2.14,4.12,4.12,0,0,1-.47,2.14A1.58,1.58,0,0,1,23.47,34Zm0-.59a1.12,1.12,0,0,0,.57-.14,1.15,1.15,0,0,0,.38-.38,2.27,2.27,0,0,0,.21-.59,3.38,3.38,0,0,0,.07-.74v-.92a3.38,3.38,0,0,0-.07-.74,2.27,2.27,0,0,0-.21-.59,1.06,1.06,0,0,0-.38-.38,1.21,1.21,0,0,0-1.13,0,1.06,1.06,0,0,0-.38.38,2.27,2.27,0,0,0-.21.59,3.38,3.38,0,0,0-.07.74v.92a3.38,3.38,0,0,0,.07.74,2.27,2.27,0,0,0,.21.59,1.15,1.15,0,0,0,.38.38A1.13,1.13,0,0,0,23.47,33.41Z"/>
  <path d="M58.27,33.91v-1.1H55.56v-.6l2.35-3.92h1v4h.82v.57h-.82v1.1Zm-2.08-1.67h2.08V28.81h0Z"/>
  <path d="M91.81,34a2.72,2.72,0,0,1-.85-.12,1.74,1.74,0,0,1-.6-.34A1.35,1.35,0,0,1,90,33a1.53,1.53,0,0,1-.13-.64,1.3,1.3,0,0,1,.31-.92A1.74,1.74,0,0,1,91,31v-.07a1.47,1.47,0,0,1-.71-.49A1.37,1.37,0,0,1,90,29.6a1.22,1.22,0,0,1,.47-1,2.4,2.4,0,0,1,2.62,0,1.24,1.24,0,0,1,.47,1,1.37,1.37,0,0,1-.26.83,1.52,1.52,0,0,1-.71.49V31a1.71,1.71,0,0,1,.82.47,1.3,1.3,0,0,1,.32.92,1.7,1.7,0,0,1-.13.64,1.46,1.46,0,0,1-.37.52,1.79,1.79,0,0,1-.61.34A2.66,2.66,0,0,1,91.81,34Zm0-.59a1.45,1.45,0,0,0,.91-.26.92.92,0,0,0,.32-.74v-.17a.9.9,0,0,0-.32-.74,1.39,1.39,0,0,0-.91-.26,1.37,1.37,0,0,0-.91.26.88.88,0,0,0-.32.74v.17a.89.89,0,0,0,.32.74A1.43,1.43,0,0,0,91.81,33.41Zm0-2.74a1.23,1.23,0,0,0,.8-.22.82.82,0,0,0,.28-.66v-.12a.82.82,0,0,0-.28-.66,1.23,1.23,0,0,0-.8-.22A1.26,1.26,0,0,0,91,29a.81.81,0,0,0-.27.66v.12a.81.81,0,0,0,.27.66A1.26,1.26,0,0,0,91.81,30.67Z"/>
  <g>
    <path d="M121.92,33.91v-.6h1.57V28.79h-.06L122,30.11l-.39-.43,1.49-1.39h1v5h1.45v.6Z"/>
    <path d="M130.33,33.91h-3.69v-.69l1.84-1.69a4.34,4.34,0,0,0,.66-.78,1.52,1.52,0,0,0,.26-.81v-.1a1.11,1.11,0,0,0-.25-.76,1,1,0,0,0-.78-.29,1.27,1.27,0,0,0-.46.07,1.21,1.21,0,0,0-.33.2,1.33,1.33,0,0,0-.23.3,2.5,2.5,0,0,0-.15.38l-.61-.23a2.42,2.42,0,0,1,.23-.49,1.57,1.57,0,0,1,.35-.42,1.81,1.81,0,0,1,.51-.3,2.22,2.22,0,0,1,.72-.11,2.07,2.07,0,0,1,.73.12,1.66,1.66,0,0,1,.54.34,1.49,1.49,0,0,1,.33.52,1.76,1.76,0,0,1,.12.66,2,2,0,0,1-.09.61,2.17,2.17,0,0,1-.26.53,2.51,2.51,0,0,1-.39.5c-.15.16-.31.32-.49.48l-1.51,1.36h3Z"/>
  </g>
  <g>
    <path d="M156.08,33.91v-.6h1.57V28.79h-.05l-1.42,1.32-.39-.43,1.49-1.39h1.05v5h1.45v.6Z"/>
    <path d="M162.63,34a2.22,2.22,0,0,1-.79-.14,1.7,1.7,0,0,1-.59-.43,1.88,1.88,0,0,1-.38-.68,3.16,3.16,0,0,1-.12-.9,3.79,3.79,0,0,1,.18-1.18,4.27,4.27,0,0,1,.48-1,4.72,4.72,0,0,1,.65-.8,3.85,3.85,0,0,1,.69-.57h.87c-.3.22-.57.43-.81.64a5.46,5.46,0,0,0-.62.66,4.46,4.46,0,0,0-.45.73,4.13,4.13,0,0,0-.29.88h0a1.75,1.75,0,0,1,.51-.57,1.37,1.37,0,0,1,.84-.23,1.85,1.85,0,0,1,.67.12,1.51,1.51,0,0,1,.52.34,1.82,1.82,0,0,1,.34.55,2.09,2.09,0,0,1,.13.72,2.06,2.06,0,0,1-.14.76,1.62,1.62,0,0,1-.38.58,1.6,1.6,0,0,1-.59.39A2.06,2.06,0,0,1,162.63,34Zm0-.59a1.08,1.08,0,0,0,1.18-1.18v-.07a1.22,1.22,0,0,0-.31-.88,1.17,1.17,0,0,0-2,.88v.07a1.06,1.06,0,0,0,1.17,1.18Z"/>
  </g>
  <g>
    <path d="M193.66,33.91H190v-.69l1.83-1.69a3.65,3.65,0,0,0,.66-.78,1.45,1.45,0,0,0,.27-.81v-.1a1.11,1.11,0,0,0-.26-.76,1,1,0,0,0-.78-.29,1.25,1.25,0,0,0-.45.07,1.08,1.08,0,0,0-.33.2,1.13,1.13,0,0,0-.24.3,1.74,1.74,0,0,0-.14.38l-.61-.23a3.06,3.06,0,0,1,.22-.49,1.61,1.61,0,0,1,.36-.42,1.81,1.81,0,0,1,.51-.3,2.16,2.16,0,0,1,.71-.11,2.13,2.13,0,0,1,.74.12,1.43,1.43,0,0,1,.87.86,1.76,1.76,0,0,1,.12.66,1.74,1.74,0,0,1-.1.61,2.14,2.14,0,0,1-.25.53,3.56,3.56,0,0,1-.39.5c-.15.16-.32.32-.5.48l-1.51,1.36h3Z"/>
    <path d="M196.61,34a1.59,1.59,0,0,1-1.47-.76,4.12,4.12,0,0,1-.46-2.14,4.12,4.12,0,0,1,.46-2.14,1.79,1.79,0,0,1,2.94,0,4.12,4.12,0,0,1,.46,2.14,4.12,4.12,0,0,1-.46,2.14A1.59,1.59,0,0,1,196.61,34Zm0-.59a1.08,1.08,0,0,0,.56-.14,1.06,1.06,0,0,0,.38-.38,1.72,1.72,0,0,0,.21-.59,3.38,3.38,0,0,0,.07-.74v-.92a3.38,3.38,0,0,0-.07-.74,1.72,1.72,0,0,0-.21-.59,1.13,1.13,0,0,0-1.5-.38.93.93,0,0,0-.38.38,2,2,0,0,0-.22.59,4.18,4.18,0,0,0-.06.74v.92a4.18,4.18,0,0,0,.06.74,2,2,0,0,0,.22.59,1,1,0,0,0,.38.38A1.08,1.08,0,0,0,196.61,33.41Z"/>
  </g>
  <g>
    <path d="M226.07,33.91h-3.69v-.69l1.84-1.69a4.34,4.34,0,0,0,.66-.78,1.52,1.52,0,0,0,.26-.81v-.1a1.11,1.11,0,0,0-.25-.76,1,1,0,0,0-.78-.29,1.27,1.27,0,0,0-.46.07,1.08,1.08,0,0,0-.33.2,1.33,1.33,0,0,0-.23.3,1.77,1.77,0,0,0-.15.38l-.61-.23a2.42,2.42,0,0,1,.23-.49,1.57,1.57,0,0,1,.35-.42,1.81,1.81,0,0,1,.51-.3,2.22,2.22,0,0,1,.72-.11,2.11,2.11,0,0,1,.73.12,1.43,1.43,0,0,1,.87.86,1.76,1.76,0,0,1,.12.66,2,2,0,0,1-.09.61,2.61,2.61,0,0,1-.26.53,2.51,2.51,0,0,1-.39.5c-.15.16-.31.32-.49.48l-1.52,1.36h3Z"/>
    <path d="M229.63,33.91v-1.1h-2.72v-.6l2.35-3.92h1v4h.81v.57h-.81v1.1Zm-2.08-1.67h2.08V28.81h0Z"/>
  </g>
  <g>
    <path d="M262.06,33.91h-3.69v-.69l1.84-1.69a4.34,4.34,0,0,0,.66-.78,1.52,1.52,0,0,0,.26-.81v-.1a1.06,1.06,0,0,0-.26-.76,1,1,0,0,0-.78-.29,1.25,1.25,0,0,0-.45.07,1.08,1.08,0,0,0-.33.2,1.33,1.33,0,0,0-.23.3,1.37,1.37,0,0,0-.15.38l-.61-.23a3.06,3.06,0,0,1,.22-.49,1.74,1.74,0,0,1,.87-.72,2.18,2.18,0,0,1,.72-.11,2.11,2.11,0,0,1,.73.12,1.43,1.43,0,0,1,.87.86,1.76,1.76,0,0,1,.12.66,2,2,0,0,1-.09.61,2.61,2.61,0,0,1-.26.53,2.51,2.51,0,0,1-.39.5c-.15.16-.32.32-.49.48l-1.52,1.36h3Z"/>
    <path d="M265,34a2.66,2.66,0,0,1-.84-.12,1.79,1.79,0,0,1-.61-.34,1.46,1.46,0,0,1-.37-.52,1.53,1.53,0,0,1-.13-.64,1.3,1.3,0,0,1,.32-.92,1.71,1.71,0,0,1,.82-.47v-.07a1.52,1.52,0,0,1-.71-.49,1.37,1.37,0,0,1-.26-.83,1.24,1.24,0,0,1,.47-1,2.4,2.4,0,0,1,2.62,0,1.24,1.24,0,0,1,.47,1,1.37,1.37,0,0,1-.26.83,1.52,1.52,0,0,1-.71.49V31a1.74,1.74,0,0,1,.83.47,1.35,1.35,0,0,1,.31.92,1.53,1.53,0,0,1-.13.64,1.35,1.35,0,0,1-.37.52,1.74,1.74,0,0,1-.6.34A2.77,2.77,0,0,1,265,34Zm0-.59a1.43,1.43,0,0,0,.91-.26.89.89,0,0,0,.32-.74v-.17a.88.88,0,0,0-.32-.74,1.37,1.37,0,0,0-.91-.26,1.39,1.39,0,0,0-.91.26.9.9,0,0,0-.32.74v.17a.92.92,0,0,0,.32.74A1.45,1.45,0,0,0,265,33.41Zm0-2.74a1.26,1.26,0,0,0,.81-.22.81.81,0,0,0,.27-.66v-.12a.81.81,0,0,0-.27-.66,1.26,1.26,0,0,0-.81-.22,1.23,1.23,0,0,0-.8.22.79.79,0,0,0-.28.66v.12a.79.79,0,0,0,.28.66A1.23,1.23,0,0,0,265,30.67Z"/>
  </g>
</svg>
