<svg id="Camada_1" data-name="Camada 1" xmlns="http://www.w3.org/2000/svg" viewBox="0 0 338.39 57.45">
  <title>LEGENDAS_PÁGINA_CLIMA</title>
  <g style="opacity: 0.75">
    <path d="M0,6.38C0,2.86,3.37,0,7.52,0H330.87c4.16,0,7.52,2.86,7.52,6.38V51.07c0,3.52-3.36,6.38-7.52,6.38H7.52C3.37,57.45,0,54.59,0,51.07Z" style="fill: #fff"/>
  </g>
  <g>
    <path d="M34.67,33.14v-.69h2.1v.69Z"/>
    <path d="M41.61,35.24H37.93v-.69l1.83-1.69a4.28,4.28,0,0,0,.66-.77,1.51,1.51,0,0,0,.27-.82v-.1a1.13,1.13,0,0,0-.26-.76,1,1,0,0,0-.78-.29,1.52,1.52,0,0,0-.45.07,1.27,1.27,0,0,0-.34.2,1.19,1.19,0,0,0-.23.31,2,2,0,0,0-.15.37l-.6-.23a2.38,2.38,0,0,1,.22-.49,1.57,1.57,0,0,1,.35-.42,1.75,1.75,0,0,1,.52-.29,1.93,1.93,0,0,1,.71-.11,2.07,2.07,0,0,1,.73.12A1.45,1.45,0,0,1,41,30a1.51,1.51,0,0,1,.34.52,2.07,2.07,0,0,1,0,1.27,2.35,2.35,0,0,1-.25.53,3.56,3.56,0,0,1-.39.5c-.16.16-.32.32-.5.48l-1.51,1.36h3Z"/>
    <path d="M44.57,35.34a1.94,1.94,0,0,1-.78-.15,1.7,1.7,0,0,1-.6-.43,1.78,1.78,0,0,1-.37-.68,2.84,2.84,0,0,1-.13-.9A3.52,3.52,0,0,1,42.88,32a4.67,4.67,0,0,1,.47-1,5.26,5.26,0,0,1,.65-.8,5.45,5.45,0,0,1,.69-.57h.87c-.3.22-.57.44-.8.64a4.77,4.77,0,0,0-.62.66,3.68,3.68,0,0,0-.45.73,4.13,4.13,0,0,0-.3.88h0A1.78,1.78,0,0,1,44,32a1.41,1.41,0,0,1,.83-.23,1.81,1.81,0,0,1,.67.12,1.45,1.45,0,0,1,.52.35,1.62,1.62,0,0,1,.35.55,2,2,0,0,1,.12.71,2.06,2.06,0,0,1-.13.76,1.81,1.81,0,0,1-.38.59,1.71,1.71,0,0,1-.59.38A2.11,2.11,0,0,1,44.57,35.34Zm0-.6a1.08,1.08,0,0,0,1.17-1.18v-.07a1.08,1.08,0,0,0-1.17-1.18,1.17,1.17,0,0,0-.87.31,1.14,1.14,0,0,0-.31.87v.07a1.14,1.14,0,0,0,.31.87A1.17,1.17,0,0,0,44.57,34.74Z"/>
  </g>
  <g>
    <path d="M8.91,33.14v-.69H11v.69Z"/>
    <path d="M13.67,32a1.23,1.23,0,0,0,.85-.26.88.88,0,0,0,.29-.67V31a.79.79,0,0,0-.28-.66,1.12,1.12,0,0,0-.73-.22,1.21,1.21,0,0,0-.71.19,1.59,1.59,0,0,0-.45.51l-.49-.39a1.79,1.79,0,0,1,.25-.33,1.69,1.69,0,0,1,.35-.29,2.29,2.29,0,0,1,.47-.21,2.15,2.15,0,0,1,.6-.07,2.41,2.41,0,0,1,.67.09,1.52,1.52,0,0,1,.54.27,1.39,1.39,0,0,1,.36.44,1.33,1.33,0,0,1,.13.61,1.23,1.23,0,0,1-.31.86,1.27,1.27,0,0,1-.34.27,1.54,1.54,0,0,1-.42.17v0a2.6,2.6,0,0,1,.44.16,1.44,1.44,0,0,1,.37.28,1.51,1.51,0,0,1,.27.42,1.48,1.48,0,0,1,.1.57,1.59,1.59,0,0,1-.14.66,1.52,1.52,0,0,1-.38.52,2.1,2.1,0,0,1-.61.34,2.37,2.37,0,0,1-.78.12,2.49,2.49,0,0,1-.64-.08,2.09,2.09,0,0,1-.5-.22,1.94,1.94,0,0,1-.38-.3,3.27,3.27,0,0,1-.3-.35l.51-.39a3.55,3.55,0,0,0,.23.31,1.56,1.56,0,0,0,.28.23,1.52,1.52,0,0,0,.34.15,2,2,0,0,0,.45.05,1.35,1.35,0,0,0,.91-.27,1,1,0,0,0,.3-.78v-.06a1,1,0,0,0-.3-.77,1.31,1.31,0,0,0-.91-.28h-.66V32Z"/>
    <path d="M19.41,35.24v-1.1H16.7v-.6l2.35-3.92h1v3.95h.81v.57h-.81v1.1Zm-2.07-1.67h2.07V30.15h0Z"/>
  </g>
  <g>
    <path d="M68.81,33.14v-.69h2.1v.69Z"/>
    <path d="M72.18,35.24v-.6h1.57V30.12h-.06l-1.42,1.32L71.88,31l1.49-1.39h1v5h1.45v.6Z"/>
    <path d="M78.71,35.34a2.65,2.65,0,0,1-.84-.13,1.79,1.79,0,0,1-.61-.34,1.46,1.46,0,0,1-.37-.52,1.66,1.66,0,0,1-.13-.64,1.3,1.3,0,0,1,.32-.92,1.71,1.71,0,0,1,.82-.47v-.07a1.45,1.45,0,0,1-.71-.49,1.35,1.35,0,0,1-.26-.83,1.24,1.24,0,0,1,.47-1,2.45,2.45,0,0,1,2.62,0,1.22,1.22,0,0,1,.47,1,1.35,1.35,0,0,1-.26.83,1.45,1.45,0,0,1-.71.49v.07a1.74,1.74,0,0,1,.83.47,1.35,1.35,0,0,1,.31.92,1.5,1.5,0,0,1-.13.64,1.35,1.35,0,0,1-.37.52,1.74,1.74,0,0,1-.6.34A2.71,2.71,0,0,1,78.71,35.34Zm0-.6a1.43,1.43,0,0,0,.91-.26.88.88,0,0,0,.32-.74v-.17a.88.88,0,0,0-.32-.74,1.37,1.37,0,0,0-.91-.26,1.39,1.39,0,0,0-.91.26.9.9,0,0,0-.32.74v.17a.9.9,0,0,0,.32.74A1.45,1.45,0,0,0,78.71,34.74Zm0-2.74a1.26,1.26,0,0,0,.81-.22.81.81,0,0,0,.27-.66V31a.78.78,0,0,0-.27-.65,1.26,1.26,0,0,0-.81-.23,1.23,1.23,0,0,0-.8.23.76.76,0,0,0-.28.65v.12a.79.79,0,0,0,.28.66A1.23,1.23,0,0,0,78.71,32Z"/>
  </g>
  <g>
    <path d="M103,33.14v-.69h2.1v.69Z"/>
    <path d="M106.4,35.24v-.6H108V30.12h-.06l-1.42,1.32L106.1,31l1.49-1.39h1v5h1.45v.6Z"/>
    <path d="M112.93,35.34a1.6,1.6,0,0,1-1.47-.77,4.12,4.12,0,0,1-.46-2.14,4.12,4.12,0,0,1,.46-2.14,1.8,1.8,0,0,1,2.94,0,4.12,4.12,0,0,1,.46,2.14,4.12,4.12,0,0,1-.46,2.14A1.6,1.6,0,0,1,112.93,35.34Zm0-.6a1,1,0,0,0,.57-.14,1,1,0,0,0,.37-.38,2,2,0,0,0,.22-.59,4.14,4.14,0,0,0,.07-.74V32a4.14,4.14,0,0,0-.07-.74,2,2,0,0,0-.22-.59,1,1,0,0,0-.37-.38,1.15,1.15,0,0,0-.57-.14,1.08,1.08,0,0,0-.56.14,1.06,1.06,0,0,0-.38.38,1.72,1.72,0,0,0-.21.59,3.38,3.38,0,0,0-.07.74v.92a3.38,3.38,0,0,0,.07.74,1.72,1.72,0,0,0,.21.59,1,1,0,0,0,.94.52Z"/>
  </g>
  <g>
    <path d="M139.63,33.14v-.69h2.1v.69Z"/>
    <path d="M145.31,35.24v-1.1h-2.72v-.6l2.35-3.92h1v3.95h.81v.57H146v1.1Zm-2.08-1.67h2.08V30.15h0Z"/>
  </g>
  <path d="M169.24,35.34a1.6,1.6,0,0,1-1.47-.77,4.12,4.12,0,0,1-.46-2.14,4.12,4.12,0,0,1,.46-2.14,1.8,1.8,0,0,1,2.94,0,4.12,4.12,0,0,1,.46,2.14,4.12,4.12,0,0,1-.46,2.14A1.6,1.6,0,0,1,169.24,35.34Zm0-.6a1,1,0,0,0,.94-.52,2,2,0,0,0,.22-.59,4.18,4.18,0,0,0,.06-.74V32a4.18,4.18,0,0,0-.06-.74,2,2,0,0,0-.22-.59,1.06,1.06,0,0,0-.38-.38,1.19,1.19,0,0,0-1.12,0,1.06,1.06,0,0,0-.38.38,1.72,1.72,0,0,0-.21.59A3.38,3.38,0,0,0,168,32v.92a3.38,3.38,0,0,0,.07.74,1.72,1.72,0,0,0,.21.59,1,1,0,0,0,.94.52Z"/>
  <path d="M195.38,35.24v-1.1h-2.71v-.6L195,29.62h1v3.95h.81v.57H196v1.1Zm-2.08-1.67h2.08V30.15h0Z"/>
  <g>
    <path d="M225.08,35.24v-.6h1.57V30.12h-.06l-1.41,1.32-.4-.43,1.49-1.39h1.06v5h1.44v.6Z"/>
    <path d="M231.61,35.34a1.57,1.57,0,0,1-1.46-.77,4.12,4.12,0,0,1-.47-2.14,4.12,4.12,0,0,1,.47-2.14,1.56,1.56,0,0,1,1.46-.76,1.58,1.58,0,0,1,1.47.76,4.12,4.12,0,0,1,.47,2.14,4.12,4.12,0,0,1-.47,2.14A1.59,1.59,0,0,1,231.61,35.34Zm0-.6a1,1,0,0,0,.57-.14,1.06,1.06,0,0,0,.38-.38,2.27,2.27,0,0,0,.21-.59,3.38,3.38,0,0,0,.07-.74V32a3.38,3.38,0,0,0-.07-.74,2.27,2.27,0,0,0-.21-.59,1.15,1.15,0,0,0-.38-.38,1.12,1.12,0,0,0-.57-.14,1.11,1.11,0,0,0-.56.14,1.15,1.15,0,0,0-.38.38,2.27,2.27,0,0,0-.21.59,3.38,3.38,0,0,0-.07.74v.92a3.38,3.38,0,0,0,.07.74,2.27,2.27,0,0,0,.21.59,1.06,1.06,0,0,0,.38.38A1,1,0,0,0,231.61,34.74Z"/>
  </g>
  <g>
    <path d="M259.39,35.24v-.6H261V30.12h0l-1.42,1.32-.4-.43,1.49-1.39h1.06v5h1.45v.6Z"/>
    <path d="M265.93,35.34a2.71,2.71,0,0,1-.85-.13,1.74,1.74,0,0,1-.6-.34,1.35,1.35,0,0,1-.37-.52,1.5,1.5,0,0,1-.13-.64,1.3,1.3,0,0,1,.31-.92,1.76,1.76,0,0,1,.82-.47v-.07a1.42,1.42,0,0,1-.7-.49,1.35,1.35,0,0,1-.26-.83,1.22,1.22,0,0,1,.47-1,2.45,2.45,0,0,1,2.62,0,1.24,1.24,0,0,1,.47,1,1.29,1.29,0,0,1-.27.83,1.38,1.38,0,0,1-.7.49v.07a1.71,1.71,0,0,1,.82.47,1.3,1.3,0,0,1,.32.92,1.66,1.66,0,0,1-.13.64,1.46,1.46,0,0,1-.37.52,1.79,1.79,0,0,1-.61.34A2.65,2.65,0,0,1,265.93,35.34Zm0-.6a1.45,1.45,0,0,0,.91-.26.9.9,0,0,0,.32-.74v-.17a.9.9,0,0,0-.32-.74,1.39,1.39,0,0,0-.91-.26,1.37,1.37,0,0,0-.91.26.88.88,0,0,0-.32.74v.17a.88.88,0,0,0,.32.74A1.43,1.43,0,0,0,265.93,34.74Zm0-2.74a1.23,1.23,0,0,0,.8-.22.82.82,0,0,0,.28-.66V31a.78.78,0,0,0-.28-.65,1.23,1.23,0,0,0-.8-.23,1.26,1.26,0,0,0-.81.23.78.78,0,0,0-.27.65v.12a.81.81,0,0,0,.27.66A1.26,1.26,0,0,0,265.93,32Z"/>
  </g>
  <g>
    <path d="M297.26,35.24h-3.69v-.69l1.84-1.69a4.28,4.28,0,0,0,.66-.77,1.58,1.58,0,0,0,.26-.82v-.1a1.08,1.08,0,0,0-.26-.76,1,1,0,0,0-.78-.29,1.52,1.52,0,0,0-.45.07,1.08,1.08,0,0,0-.33.2,1.56,1.56,0,0,0-.38.68l-.61-.23a3.06,3.06,0,0,1,.22-.49,1.82,1.82,0,0,1,.36-.42,1.58,1.58,0,0,1,.51-.29,2,2,0,0,1,.72-.11,2.11,2.11,0,0,1,.73.12,1.38,1.38,0,0,1,.87.85,1.76,1.76,0,0,1,.12.66,2,2,0,0,1-.09.61,2.37,2.37,0,0,1-.26.53,2.51,2.51,0,0,1-.39.5c-.15.16-.32.32-.49.48l-1.52,1.36h3Z"/>
    <path d="M300.22,35.34a1.94,1.94,0,0,1-.78-.15,1.54,1.54,0,0,1-.6-.43,1.78,1.78,0,0,1-.37-.68,2.84,2.84,0,0,1-.13-.9,3.79,3.79,0,0,1,.18-1.18,4.51,4.51,0,0,1,1.13-1.81,4.33,4.33,0,0,1,.69-.57h.87c-.3.22-.57.44-.8.64a4.62,4.62,0,0,0-1.08,1.39,4.13,4.13,0,0,0-.29.88h0a1.67,1.67,0,0,1,.52-.57,1.41,1.41,0,0,1,.83-.23,1.85,1.85,0,0,1,.67.12,1.45,1.45,0,0,1,.52.35,1.46,1.46,0,0,1,.34.55,1.8,1.8,0,0,1,.13.71,2.06,2.06,0,0,1-.14.76,1.64,1.64,0,0,1-.37.59,1.81,1.81,0,0,1-.59.38A2.15,2.15,0,0,1,300.22,35.34Zm0-.6a1.08,1.08,0,0,0,1.18-1.18v-.07a1.08,1.08,0,0,0-1.18-1.18A1.08,1.08,0,0,0,299,33.49v.07a1.08,1.08,0,0,0,1.17,1.18Z"/>
  </g>
  <g>
    <path d="M320.83,32a1.26,1.26,0,0,0,.86-.26.88.88,0,0,0,.29-.67V31a.82.82,0,0,0-.28-.66,1.13,1.13,0,0,0-.73-.22,1.19,1.19,0,0,0-.71.19,1.59,1.59,0,0,0-.45.51l-.5-.39a3.59,3.59,0,0,1,.25-.33,2,2,0,0,1,.35-.29,2.56,2.56,0,0,1,.47-.21,2.27,2.27,0,0,1,.61-.07,2.39,2.39,0,0,1,.66.09,1.66,1.66,0,0,1,.55.27,1.39,1.39,0,0,1,.36.44,1.33,1.33,0,0,1,.13.61,1.23,1.23,0,0,1-.31.86,1.27,1.27,0,0,1-.34.27,1.75,1.75,0,0,1-.43.17v0a2.32,2.32,0,0,1,.44.16,1.49,1.49,0,0,1,.38.28,1.51,1.51,0,0,1,.27.42,1.7,1.7,0,0,1,.1.57,1.59,1.59,0,0,1-.14.66,1.43,1.43,0,0,1-.39.52,1.92,1.92,0,0,1-.6.34,2.45,2.45,0,0,1-.78.12,2.57,2.57,0,0,1-.65-.08,2.2,2.2,0,0,1-.49-.22,2,2,0,0,1-.39-.3,3.17,3.17,0,0,1-.29-.35l.51-.39a2.26,2.26,0,0,0,.23.31,1.49,1.49,0,0,0,.27.23,1.84,1.84,0,0,0,.35.15,2,2,0,0,0,.45.05,1.31,1.31,0,0,0,.9-.27,1,1,0,0,0,.31-.78v-.06a1,1,0,0,0-.31-.77,1.26,1.26,0,0,0-.9-.28h-.66V32Z"/>
    <path d="M326.58,35.24v-1.1h-2.71v-.6l2.35-3.92h1v3.95H328v.57h-.82v1.1Zm-2.08-1.67h2.08V30.15h0Z"/>
  </g>
  <g>
    <path d="M166.28,23.58h5.47a2,2,0,0,0,2.11-2V10.68a2,2,0,0,0-2.11-2h-5.47a2,2,0,0,0-2.11,2V21.61A2,2,0,0,0,166.28,23.58Z" style="fill: #fff"/>
    <path d="M171.75,23.83h-5.47a2.29,2.29,0,0,1-2.36-2.22V10.68a2.3,2.3,0,0,1,2.36-2.22h5.47a2.3,2.3,0,0,1,2.36,2.22V21.61A2.29,2.29,0,0,1,171.75,23.83ZM166.28,9a1.79,1.79,0,0,0-1.86,1.72V21.61a1.79,1.79,0,0,0,1.86,1.72h5.47a1.8,1.8,0,0,0,1.86-1.72V10.68A1.8,1.8,0,0,0,171.75,9Z" style="fill: #939393"/>
  </g>
  <path d="M46.38,23.58h5.46a2,2,0,0,0,2.11-2V10.68a2,2,0,0,0-2.11-2H46.38a2,2,0,0,0-2.11,2V21.61A2,2,0,0,0,46.38,23.58Z" style="fill: #a50000"/>
  <path d="M29.29,23.58h5.47a2,2,0,0,0,2.11-2V10.68a2,2,0,0,0-2.11-2H29.29a2,2,0,0,0-2.11,2V21.61A2,2,0,0,0,29.29,23.58Z" style="fill: #830000"/>
  <path d="M12.13,23.58H17.6a2,2,0,0,0,2.1-2V10.68a2,2,0,0,0-2.1-2H12.13a2,2,0,0,0-2.11,2V21.61A2,2,0,0,0,12.13,23.58Z" style="fill: brown"/>
  <path d="M286.49,23.58H292a2,2,0,0,0,2.11-2V10.68a2,2,0,0,0-2.11-2h-5.47a2,2,0,0,0-2.11,2V21.61A2,2,0,0,0,286.49,23.58Z" style="fill: #0048ab"/>
  <path d="M303.65,23.58h5.47a2,2,0,0,0,2.11-2V10.68a2,2,0,0,0-2.11-2h-5.47a2,2,0,0,0-2.11,2V21.61A2,2,0,0,0,303.65,23.58Z" style="fill: #001476"/>
  <path d="M320.81,23.58h5.47a2,2,0,0,0,2.11-2V10.68a2,2,0,0,0-2.11-2h-5.47a2,2,0,0,0-2.11,2V21.61A2,2,0,0,0,320.81,23.58Z" style="fill: #00074c"/>
  <path d="M269.33,23.58h5.47a2,2,0,0,0,2.11-2V10.68a2,2,0,0,0-2.11-2h-5.47a2,2,0,0,0-2.11,2V21.61A2.05,2.05,0,0,0,269.33,23.58Z" style="fill: #0067c6"/>
  <path d="M252.17,23.58h5.47a2,2,0,0,0,2.11-2V10.68a2,2,0,0,0-2.11-2h-5.47a2,2,0,0,0-2.11,2V21.61A2,2,0,0,0,252.17,23.58Z" style="fill: #0090d7"/>
  <path d="M235,23.58h5.47a2,2,0,0,0,2.11-2V10.68a2,2,0,0,0-2.11-2H235a2,2,0,0,0-2.11,2V21.61A2,2,0,0,0,235,23.58Z" style="fill: #00a0db"/>
  <path d="M217.85,23.58h5.47a2,2,0,0,0,2.11-2V10.68a2,2,0,0,0-2.11-2h-5.47a2,2,0,0,0-2.11,2V21.61A2,2,0,0,0,217.85,23.58Z" style="fill: #00c4e1"/>
  <path d="M200.6,23.58h5.47a2,2,0,0,0,2.11-2V10.68a2,2,0,0,0-2.11-2H200.6a2,2,0,0,0-2.11,2V21.61A2,2,0,0,0,200.6,23.58Z" style="fill: #5ce1ee"/>
  <path d="M183.44,23.58h5.47a2,2,0,0,0,2.11-2V10.68a2,2,0,0,0-2.11-2h-5.47a2,2,0,0,0-2.11,2V21.61A2,2,0,0,0,183.44,23.58Z" style="fill: #c0f6ff"/>
  <path d="M149,23.58h5.47a2,2,0,0,0,2.11-2V10.68a2,2,0,0,0-2.11-2H149a2,2,0,0,0-2.1,2V21.61A2,2,0,0,0,149,23.58Z" style="fill: #ffdcde"/>
  <path d="M131.88,23.58h5.47a2,2,0,0,0,2.11-2V10.68a2,2,0,0,0-2.11-2h-5.47a2,2,0,0,0-2.11,2V21.61A2.05,2.05,0,0,0,131.88,23.58Z" style="fill: #ffb59e"/>
  <path d="M114.72,23.58h5.47a2,2,0,0,0,2.11-2V10.68a2,2,0,0,0-2.11-2h-5.47a2,2,0,0,0-2.11,2V21.61A2.05,2.05,0,0,0,114.72,23.58Z" style="fill: #ff834b"/>
  <path d="M97.63,23.58h5.47a2,2,0,0,0,2.11-2V10.68a2,2,0,0,0-2.11-2H97.63a2,2,0,0,0-2.1,2V21.61A2,2,0,0,0,97.63,23.58Z" style="fill: #ff4100"/>
  <path d="M80.55,23.58H86a2,2,0,0,0,2.11-2V10.68a2,2,0,0,0-2.11-2H80.55a2,2,0,0,0-2.1,2V21.61A2,2,0,0,0,80.55,23.58Z" style="fill: red"/>
  <path d="M63.47,23.58h5.46a2,2,0,0,0,2.11-2V10.68a2,2,0,0,0-2.11-2H63.47a2,2,0,0,0-2.11,2V21.61A2,2,0,0,0,63.47,23.58Z" style="fill: #e30000"/>
  <g>
    <path d="M98.26,43.73h2a2.63,2.63,0,0,1,1,.2,1.93,1.93,0,0,1,.79.57,2.46,2.46,0,0,1,.5,1,4.41,4.41,0,0,1,.18,1.33,4.46,4.46,0,0,1-.18,1.33,2.53,2.53,0,0,1-.5,1,2.14,2.14,0,0,1-.79.57,2.63,2.63,0,0,1-1,.19h-2Zm2,5.44a1.92,1.92,0,0,0,.69-.12,1.58,1.58,0,0,0,.54-.37,1.88,1.88,0,0,0,.36-.6,2.47,2.47,0,0,0,.12-.81v-1a2.55,2.55,0,0,0-.12-.81,1.83,1.83,0,0,0-.36-.59,1.34,1.34,0,0,0-.54-.37,1.73,1.73,0,0,0-.69-.13H99v4.79Z"/>
    <path d="M104.39,44.27a.45.45,0,0,1-.33-.11.46.46,0,0,1-.1-.29v-.11a.46.46,0,0,1,.76-.28.37.37,0,0,1,.1.28v.11a.41.41,0,0,1-.1.29A.45.45,0,0,1,104.39,44.27Zm-.35,1h.7v4.5H104Z"/>
    <path d="M107.22,49.82l-1.58-4.5h.7l.78,2.23.49,1.54h0l.49-1.54.8-2.23h.67L108,49.82Z"/>
    <path d="M112.13,49.92a2,2,0,0,1-.83-.16,1.77,1.77,0,0,1-.64-.48,2.1,2.1,0,0,1-.4-.74,3,3,0,0,1-.15-1,3,3,0,0,1,.15-1,2.1,2.1,0,0,1,.4-.74,1.77,1.77,0,0,1,.64-.48,2,2,0,0,1,.83-.16,1.86,1.86,0,0,1,.81.16,1.76,1.76,0,0,1,.62.46,2.09,2.09,0,0,1,.38.69,2.71,2.71,0,0,1,.14.88v.33h-3.24V48a1.32,1.32,0,0,0,.1.53,1.1,1.1,0,0,0,.26.43,1.17,1.17,0,0,0,.42.29,1.4,1.4,0,0,0,.56.1,1.3,1.3,0,0,0,.74-.2,1.27,1.27,0,0,0,.5-.57l.49.36a1.69,1.69,0,0,1-.68.75A2,2,0,0,1,112.13,49.92Zm0-4.12a1.27,1.27,0,0,0-.52.1,1.15,1.15,0,0,0-.4.28,1.21,1.21,0,0,0-.27.43,1.62,1.62,0,0,0-.1.54v.06h2.49v-.09a1.37,1.37,0,0,0-.33-1A1.12,1.12,0,0,0,112.13,45.8Z"/>
    <path d="M115.23,49.82v-4.5h.7v.83h0a1.34,1.34,0,0,1,.44-.58,1.37,1.37,0,0,1,.86-.25h.27V46h-.41a1.57,1.57,0,0,0-.88.21.61.61,0,0,0-.32.54v3Z"/>
    <path d="M122,50.32a1.11,1.11,0,0,1-.54,1,3.25,3.25,0,0,1-1.64.33,3,3,0,0,1-1.52-.29.92.92,0,0,1-.46-.82.85.85,0,0,1,.19-.57,1.29,1.29,0,0,1,.53-.3V49.6a.65.65,0,0,1-.4-.63.64.64,0,0,1,.21-.52,1.71,1.71,0,0,1,.56-.26v0a1.44,1.44,0,0,1-.62-.55,1.51,1.51,0,0,1-.22-.83,1.68,1.68,0,0,1,.12-.63,1.54,1.54,0,0,1,.34-.49,1.67,1.67,0,0,1,.53-.32,2.24,2.24,0,0,1,1.55.06v-.08a.78.78,0,0,1,.12-.44.49.49,0,0,1,.41-.17h.67v.62H121v.29a1.42,1.42,0,0,1,.38.5,1.67,1.67,0,0,1,0,1.29,1.61,1.61,0,0,1-.35.5,1.8,1.8,0,0,1-.54.32,2.12,2.12,0,0,1-.69.11,2.2,2.2,0,0,1-.44,0,2.2,2.2,0,0,0-.41.18.38.38,0,0,0-.18.33.27.27,0,0,0,.19.27,1.4,1.4,0,0,0,.5.07h1a1.88,1.88,0,0,1,1.21.32A1.08,1.08,0,0,1,122,50.32Zm-.65,0a.5.5,0,0,0-.21-.43,1.19,1.19,0,0,0-.73-.16h-1.49a.63.63,0,0,0-.42.61.66.66,0,0,0,.22.5,1.08,1.08,0,0,0,.75.21h.65a1.84,1.84,0,0,0,.9-.18A.59.59,0,0,0,121.37,50.37Zm-1.56-2.6a1.08,1.08,0,0,0,.7-.21.81.81,0,0,0,.26-.67v-.24a.78.78,0,0,0-.26-.66,1.24,1.24,0,0,0-1.41,0,.81.81,0,0,0-.26.66v.24a.84.84,0,0,0,.26.67A1.09,1.09,0,0,0,119.81,47.77Z"/>
    <path d="M124.47,49.92a2,2,0,0,1-.83-.16,1.77,1.77,0,0,1-.64-.48,2.29,2.29,0,0,1-.41-.74,3.24,3.24,0,0,1-.14-1,3.29,3.29,0,0,1,.14-1,2.29,2.29,0,0,1,.41-.74,1.77,1.77,0,0,1,.64-.48,2,2,0,0,1,.83-.16,1.92,1.92,0,0,1,.81.16,1.73,1.73,0,0,1,.61.46,1.94,1.94,0,0,1,.39.69,2.71,2.71,0,0,1,.14.88v.33h-3.24V48a1.51,1.51,0,0,0,.09.53,1.24,1.24,0,0,0,.26.43,1.37,1.37,0,0,0,.42.29,1.48,1.48,0,0,0,.57.1,1.3,1.3,0,0,0,.74-.2,1.25,1.25,0,0,0,.49-.57l.5.36a1.75,1.75,0,0,1-.68.75A2,2,0,0,1,124.47,49.92Zm.45-6.77,1,1.25-.38.27-1-1-1,1-.38-.27,1-1.25Zm-.45,2.65a1.27,1.27,0,0,0-.52.1,1.3,1.3,0,0,0-.41.28,1.34,1.34,0,0,0-.26.43,1.4,1.4,0,0,0-.1.54v.06h2.49v-.09a1.37,1.37,0,0,0-.33-1A1.12,1.12,0,0,0,124.47,45.8Z"/>
    <path d="M127.57,49.82v-4.5h.69V46h0a1.41,1.41,0,0,1,.47-.6,1.29,1.29,0,0,1,.8-.22,1.4,1.4,0,0,1,1.1.45,1.76,1.76,0,0,1,.41,1.26v2.89h-.7V47.05c0-.81-.34-1.21-1-1.21a1.33,1.33,0,0,0-.4,0,1.14,1.14,0,0,0-.36.15.88.88,0,0,0-.24.27.7.7,0,0,0-.1.38v3.13Z"/>
    <path d="M134.19,49.92a2.06,2.06,0,0,1-.84-.16,1.74,1.74,0,0,1-.63-.47,2,2,0,0,1-.4-.74,3.76,3.76,0,0,1,0-2,2,2,0,0,1,.4-.74,1.74,1.74,0,0,1,.63-.47,2.06,2.06,0,0,1,.84-.16,1.77,1.77,0,0,1,1.08.29,1.83,1.83,0,0,1,.61.76l-.59.3a1,1,0,0,0-.4-.54,1.2,1.2,0,0,0-.7-.19,1.35,1.35,0,0,0-.55.1,1.19,1.19,0,0,0-.39.27,1.27,1.27,0,0,0-.23.43,1.63,1.63,0,0,0-.08.55V48a1.45,1.45,0,0,0,.32,1,1.14,1.14,0,0,0,.93.37,1.26,1.26,0,0,0,1.22-.78l.51.34a1.84,1.84,0,0,1-.65.78A1.93,1.93,0,0,1,134.19,49.92Z"/>
    <path d="M137.25,44.27a.37.37,0,0,1-.42-.4v-.11a.37.37,0,0,1,.1-.28.38.38,0,0,1,.32-.11.41.41,0,0,1,.33.11.37.37,0,0,1,.1.28v.11a.41.41,0,0,1-.1.29A.45.45,0,0,1,137.25,44.27Zm-.35,1h.7v4.5h-.7Z"/>
    <path d="M142.35,49.82a.68.68,0,0,1-.56-.21,1.06,1.06,0,0,1-.21-.52h-.05a1.15,1.15,0,0,1-.48.63,1.63,1.63,0,0,1-.82.2,1.61,1.61,0,0,1-1.11-.36,1.32,1.32,0,0,1-.39-1,1.12,1.12,0,0,1,.46-1,2.46,2.46,0,0,1,1.45-.34h.89V46.8a1,1,0,0,0-.26-.73,1.1,1.1,0,0,0-.8-.25,1.21,1.21,0,0,0-.68.18,1.44,1.44,0,0,0-.46.49l-.42-.39a1.58,1.58,0,0,1,.58-.63,2.21,2.21,0,0,1,2.29.15,1.39,1.39,0,0,1,.45,1.11V49.2h.52v.62Zm-2-.49a1.86,1.86,0,0,0,.48-.06,1.26,1.26,0,0,0,.37-.17.91.91,0,0,0,.25-.27.66.66,0,0,0,.08-.32v-.74h-.92a1.68,1.68,0,0,0-.88.18.55.55,0,0,0-.27.5v.18a.62.62,0,0,0,.24.52A1,1,0,0,0,140.35,49.33Z"/>
    <path d="M148.67,49.1h0a1.37,1.37,0,0,1-1.32.82,1.73,1.73,0,0,1-.76-.16,1.74,1.74,0,0,1-.58-.47,2.13,2.13,0,0,1-.36-.74,3.76,3.76,0,0,1,0-2,2.13,2.13,0,0,1,.36-.74,1.74,1.74,0,0,1,.58-.47,1.73,1.73,0,0,1,.76-.16,1.48,1.48,0,0,1,.81.2,1.27,1.27,0,0,1,.51.62h0V43.37h.7v6.45h-.7Zm-1.16.2a1.63,1.63,0,0,0,.45-.06,1,1,0,0,0,.37-.18.75.75,0,0,0,.25-.28.86.86,0,0,0,.09-.39V46.7a.67.67,0,0,0-.09-.34.83.83,0,0,0-.25-.28,1,1,0,0,0-.37-.18,1.63,1.63,0,0,0-.45-.06,1.2,1.2,0,0,0-.93.37,1.41,1.41,0,0,0-.34,1V48a1.41,1.41,0,0,0,.34,1A1.2,1.2,0,0,0,147.51,49.3Z"/>
    <path d="M152.55,49.92a2.06,2.06,0,0,1-.84-.16,1.74,1.74,0,0,1-.63-.48,2,2,0,0,1-.41-.74,3,3,0,0,1-.15-1,3,3,0,0,1,.15-1,2,2,0,0,1,.41-.74,1.74,1.74,0,0,1,.63-.48,2.06,2.06,0,0,1,.84-.16,1.92,1.92,0,0,1,.81.16,1.82,1.82,0,0,1,.61.46,1.92,1.92,0,0,1,.38.69,2.71,2.71,0,0,1,.14.88v.33h-3.24V48a1.51,1.51,0,0,0,.1.53,1.1,1.1,0,0,0,.26.43,1.17,1.17,0,0,0,.42.29,1.4,1.4,0,0,0,.56.1,1.3,1.3,0,0,0,.74-.2,1.27,1.27,0,0,0,.5-.57l.49.36a1.69,1.69,0,0,1-.68.75A2,2,0,0,1,152.55,49.92Zm0-4.12a1.29,1.29,0,0,0-.53.1,1.26,1.26,0,0,0-.4.28,1.21,1.21,0,0,0-.27.43,1.62,1.62,0,0,0-.1.54v.06h2.49v-.09a1.37,1.37,0,0,0-.33-1A1.1,1.1,0,0,0,152.55,45.8Z"/>
    <path d="M158.46,43.73v3.78a2.22,2.22,0,0,0,.32,1.32,1.29,1.29,0,0,0,1.13.45,1.32,1.32,0,0,0,1.14-.45,2.29,2.29,0,0,0,.32-1.32V43.73h.73v3.6a4.89,4.89,0,0,1-.12,1.15,2,2,0,0,1-.38.81,1.62,1.62,0,0,1-.68.48,3.11,3.11,0,0,1-1,.15,3.07,3.07,0,0,1-1-.15,1.55,1.55,0,0,1-.66-.48,2.16,2.16,0,0,1-.37-.81,5.54,5.54,0,0,1-.11-1.15v-3.6Z"/>
    <path d="M163.61,49.82v-4.5h.7V46h0a2,2,0,0,1,.18-.32,1.2,1.2,0,0,1,.24-.26,1,1,0,0,1,.34-.18,1.53,1.53,0,0,1,.45-.06,1.64,1.64,0,0,1,.82.21,1.27,1.27,0,0,1,.56.69h0a1.32,1.32,0,0,1,.46-.63,1.39,1.39,0,0,1,.91-.27,1.32,1.32,0,0,1,1.07.45,1.85,1.85,0,0,1,.39,1.26v2.89h-.7V47.05a1.48,1.48,0,0,0-.23-.91.9.9,0,0,0-.75-.3,1.33,1.33,0,0,0-.4,0,1,1,0,0,0-.33.15.88.88,0,0,0-.24.27.79.79,0,0,0-.09.38v3.13h-.69V47.05a1.47,1.47,0,0,0-.24-.91.87.87,0,0,0-.73-.3,1.33,1.33,0,0,0-.4,0,1,1,0,0,0-.34.15.88.88,0,0,0-.24.27.79.79,0,0,0-.09.38v3.13Z"/>
    <path d="M171.57,44.27a.45.45,0,0,1-.33-.11.46.46,0,0,1-.1-.29v-.11a.43.43,0,1,1,.86,0v.11a.46.46,0,0,1-.1.29A.45.45,0,0,1,171.57,44.27Zm-.35,1h.7v4.5h-.7Z"/>
    <path d="M176.28,49.1h0a1.36,1.36,0,0,1-1.31.82,1.7,1.7,0,0,1-.76-.16,1.65,1.65,0,0,1-.58-.47,2.33,2.33,0,0,1-.37-.74,4.06,4.06,0,0,1,0-2,2.33,2.33,0,0,1,.37-.74,1.65,1.65,0,0,1,.58-.47,1.7,1.7,0,0,1,.76-.16,1.46,1.46,0,0,1,.8.2,1.18,1.18,0,0,1,.51.62h0V43.37H177v6.45h-.69Zm-1.16.2a1.74,1.74,0,0,0,.45-.06,1.16,1.16,0,0,0,.37-.18,1,1,0,0,0,.25-.28.86.86,0,0,0,.09-.39V46.7a.67.67,0,0,0-.09-.34,1.12,1.12,0,0,0-.25-.28,1.16,1.16,0,0,0-.37-.18,1.74,1.74,0,0,0-.45-.06,1.17,1.17,0,0,0-.93.37,1.37,1.37,0,0,0-.35,1V48a1.37,1.37,0,0,0,.35,1A1.17,1.17,0,0,0,175.12,49.3Z"/>
    <path d="M181.73,49.82a.71.71,0,0,1-.57-.21,1.06,1.06,0,0,1-.21-.52h0a1.16,1.16,0,0,1-.49.63,1.62,1.62,0,0,1-.81.2,1.58,1.58,0,0,1-1.11-.36,1.29,1.29,0,0,1-.4-1,1.13,1.13,0,0,1,.47-1,2.44,2.44,0,0,1,1.45-.34h.89V46.8a1,1,0,0,0-.26-.73,1.14,1.14,0,0,0-.81-.25,1.21,1.21,0,0,0-.68.18,1.55,1.55,0,0,0-.46.49l-.42-.39a1.54,1.54,0,0,1,.59-.63,2.19,2.19,0,0,1,2.28.15,1.39,1.39,0,0,1,.45,1.11V49.2h.52v.62Zm-2-.49a1.75,1.75,0,0,0,.48-.06,1.33,1.33,0,0,0,.38-.17,1,1,0,0,0,.24-.27.57.57,0,0,0,.09-.32v-.74H180a1.61,1.61,0,0,0-.87.18.54.54,0,0,0-.28.5v.18a.62.62,0,0,0,.24.52A1.07,1.07,0,0,0,179.72,49.33Z"/>
    <path d="M186,49.1h0a1.38,1.38,0,0,1-1.32.82,1.73,1.73,0,0,1-.76-.16,1.65,1.65,0,0,1-.58-.47,2.13,2.13,0,0,1-.36-.74,3.76,3.76,0,0,1,0-2,2.13,2.13,0,0,1,.36-.74,1.65,1.65,0,0,1,.58-.47,1.73,1.73,0,0,1,.76-.16,1.52,1.52,0,0,1,.81.2A1.27,1.27,0,0,1,186,46h0V43.37h.7v6.45H186Zm-1.16.2a1.63,1.63,0,0,0,.45-.06,1.06,1.06,0,0,0,.37-.18.75.75,0,0,0,.25-.28.86.86,0,0,0,.09-.39V46.7a.67.67,0,0,0-.09-.34.83.83,0,0,0-.25-.28,1.06,1.06,0,0,0-.37-.18,1.63,1.63,0,0,0-.45-.06,1.2,1.2,0,0,0-.93.37,1.37,1.37,0,0,0-.34,1V48a1.37,1.37,0,0,0,.34,1A1.2,1.2,0,0,0,184.83,49.3Z"/>
    <path d="M189.86,49.92a2,2,0,0,1-.83-.16,1.77,1.77,0,0,1-.64-.48,2.29,2.29,0,0,1-.41-.74,3.24,3.24,0,0,1-.14-1,3.29,3.29,0,0,1,.14-1,2.29,2.29,0,0,1,.41-.74,1.77,1.77,0,0,1,.64-.48,2,2,0,0,1,.83-.16,1.92,1.92,0,0,1,.81.16,1.73,1.73,0,0,1,.61.46,1.94,1.94,0,0,1,.39.69,2.71,2.71,0,0,1,.14.88v.33h-3.24V48a1.51,1.51,0,0,0,.09.53,1.24,1.24,0,0,0,.26.43,1.37,1.37,0,0,0,.42.29,1.48,1.48,0,0,0,.57.1,1.3,1.3,0,0,0,.74-.2,1.25,1.25,0,0,0,.49-.57l.5.36a1.75,1.75,0,0,1-.68.75A2,2,0,0,1,189.86,49.92Zm0-4.12a1.27,1.27,0,0,0-.52.1,1.3,1.3,0,0,0-.41.28,1.34,1.34,0,0,0-.26.43,1.4,1.4,0,0,0-.1.54v.06h2.49v-.09a1.37,1.37,0,0,0-.33-1A1.12,1.12,0,0,0,189.86,45.8Z"/>
    <path d="M195,47.1a6,6,0,0,1,.45-2.3,5,5,0,0,1,.51-.91,4.2,4.2,0,0,1,.61-.7h.67a3.94,3.94,0,0,0-.66.75,5.2,5.2,0,0,0-.5.89,7.2,7.2,0,0,0-.32,1,4.53,4.53,0,0,0-.11.94v.75a4.47,4.47,0,0,0,.11,1,5.44,5.44,0,0,0,.33,1,4.84,4.84,0,0,0,.5.89,3.81,3.81,0,0,0,.65.73h-.67a3.75,3.75,0,0,1-.61-.68,4.65,4.65,0,0,1-.5-.91,6.75,6.75,0,0,1-.34-1.1A6.08,6.08,0,0,1,195,47.1Z"/>
    <path d="M198,49.82v-.65h1.7v-4.9h-.06l-1.53,1.43-.43-.46,1.61-1.51h1.14v5.44H202v.65Z"/>
    <path d="M205,49.92a1.71,1.71,0,0,1-1.59-.82,4.57,4.57,0,0,1-.5-2.32,4.52,4.52,0,0,1,.5-2.32,1.94,1.94,0,0,1,3.18,0,4.42,4.42,0,0,1,.5,2.32,4.47,4.47,0,0,1-.5,2.32A1.71,1.71,0,0,1,205,49.92Zm0-.64a1.17,1.17,0,0,0,.61-.15,1.1,1.1,0,0,0,.41-.42,2,2,0,0,0,.23-.63,4,4,0,0,0,.08-.81v-1a4.12,4.12,0,0,0-.08-.81,2,2,0,0,0-.23-.63,1.1,1.1,0,0,0-.41-.42,1.18,1.18,0,0,0-1.63.42,2.23,2.23,0,0,0-.23.63,4.14,4.14,0,0,0-.07.81v1a4,4,0,0,0,.07.81,2.23,2.23,0,0,0,.23.63,1.11,1.11,0,0,0,1,.57Z"/>
    <path d="M208.26,45.83v-.75h2.27v.75Z"/>
    <path d="M211.94,47l1.29-2.78h-1.35v.59h-.47v-1h2.37v.46L212.52,47Z"/>
    <path d="M214.8,43.37h.69v4.09h0l.69-.77,1.27-1.37h.85l-1.67,1.78,1.83,2.72h-.84l-1.49-2.29-.68.69v1.6h-.69Z"/>
    <path d="M223.1,50.32a1.1,1.1,0,0,1-.55,1,3.21,3.21,0,0,1-1.63.33,3,3,0,0,1-1.52-.29.9.9,0,0,1-.46-.82.8.8,0,0,1,.19-.57,1.25,1.25,0,0,1,.52-.3V49.6a.67.67,0,0,1-.4-.63.65.65,0,0,1,.22-.52,1.62,1.62,0,0,1,.56-.26v0a1.33,1.33,0,0,1-.62-.55,1.6,1.6,0,0,1-.1-1.46,1.39,1.39,0,0,1,.34-.49,1.67,1.67,0,0,1,.53-.32,1.92,1.92,0,0,1,.69-.11,2,2,0,0,1,.86.17v-.08a.78.78,0,0,1,.12-.44.47.47,0,0,1,.4-.17h.67v.62h-.85v.29a1.55,1.55,0,0,1,.38.5,1.59,1.59,0,0,1,.13.66,1.61,1.61,0,0,1-.12.63,1.43,1.43,0,0,1-.34.5,1.8,1.8,0,0,1-.54.32,2.19,2.19,0,0,1-.7.11,2.1,2.1,0,0,1-.43,0,2.2,2.2,0,0,0-.41.18.39.39,0,0,0-.19.33.28.28,0,0,0,.2.27,1.34,1.34,0,0,0,.49.07h1a1.9,1.9,0,0,1,1.22.32A1.08,1.08,0,0,1,223.1,50.32Zm-.66,0a.5.5,0,0,0-.2-.43,1.21,1.21,0,0,0-.73-.16H220a.63.63,0,0,0-.42.61.7.7,0,0,0,.22.5,1.1,1.1,0,0,0,.76.21h.64a1.88,1.88,0,0,0,.91-.18A.59.59,0,0,0,222.44,50.37Zm-1.56-2.6a1.11,1.11,0,0,0,.71-.21.84.84,0,0,0,.26-.67v-.24a.81.81,0,0,0-.26-.66,1.11,1.11,0,0,0-.71-.22,1.08,1.08,0,0,0-.7.22.78.78,0,0,0-.26.66v.24a.81.81,0,0,0,.26.67A1.08,1.08,0,0,0,220.88,47.77Z"/>
    <path d="M229.26,49.92a2.09,2.09,0,0,1-1-.24,2.46,2.46,0,0,1-.73-.64l.5-.4a2,2,0,0,0,.58.51,1.54,1.54,0,0,0,.75.18,1.12,1.12,0,0,0,.7-.19.66.66,0,0,0,.24-.54.62.62,0,0,0-.17-.45,1.05,1.05,0,0,0-.61-.26l-.36,0a3,3,0,0,1-.57-.13,1.82,1.82,0,0,1-.46-.25,1.15,1.15,0,0,1-.31-.38,1.27,1.27,0,0,1-.11-.54,1.21,1.21,0,0,1,.13-.58,1.2,1.2,0,0,1,.33-.41,1.35,1.35,0,0,1,.51-.25,2.2,2.2,0,0,1,.64-.08,2,2,0,0,1,.92.19,2.05,2.05,0,0,1,.65.53l-.46.42a1.39,1.39,0,0,0-.44-.38,1.42,1.42,0,0,0-.72-.17,1,1,0,0,0-.66.19.61.61,0,0,0-.22.51.53.53,0,0,0,.22.48,1.71,1.71,0,0,0,.64.21l.35.06a1.84,1.84,0,0,1,1.06.43,1.13,1.13,0,0,1,.32.83,1.26,1.26,0,0,1-.45,1A1.83,1.83,0,0,1,229.26,49.92Z"/>
    <path d="M231.93,45.83v-.75h2.27v.75Z"/>
    <path d="M235.28,47v-.43h.95V44.18h0l-.78.77-.32-.32.89-.9h.81v2.79h.86V47Z"/>
    <path d="M240.13,47.1a5.43,5.43,0,0,1-.13,1.22,5.24,5.24,0,0,1-.34,1.1,4.65,4.65,0,0,1-.5.91,3.13,3.13,0,0,1-.61.68h-.66a3.81,3.81,0,0,0,.65-.73,5.51,5.51,0,0,0,.5-.89,4.71,4.71,0,0,0,.32-1,3.93,3.93,0,0,0,.12-1v-.75a4,4,0,0,0-.12-.94,5.1,5.1,0,0,0-.81-1.85,4.79,4.79,0,0,0-.66-.75h.66a4.24,4.24,0,0,1,.62.7,5,5,0,0,1,.5.91,5.33,5.33,0,0,1,.34,1.09A6,6,0,0,1,240.13,47.1Z"/>
  </g>
</svg>
