<svg id="Camada_1" data-name="Camada 1" xmlns="http://www.w3.org/2000/svg" viewBox="0 0 286.27 57.45">
  <title>LEGENDAS_PÁGINA_CLIMA</title>
  <g style="opacity: 0.75">
    <path d="M0,6.38A6.37,6.37,0,0,1,6.36,0H279.91a6.37,6.37,0,0,1,6.36,6.38V51.07a6.37,6.37,0,0,1-6.36,6.38H6.36A6.37,6.37,0,0,1,0,51.07Z" style="fill: #fff"/>
  </g>
  <g>
    <path d="M94.8,43.58h0l-.52,1-1.45,2.65L91.33,44.6l-.52-1h0v5.13h-.71V42.62h1l1.75,3.28h0l1.75-3.28h.94v6.09H94.8Z"/>
    <path d="M100.34,48.71a.7.7,0,0,1-.57-.21,1.1,1.1,0,0,1-.21-.53h0a1.21,1.21,0,0,1-.49.63,1.77,1.77,0,0,1-1.92-.16,1.25,1.25,0,0,1-.4-1,1.15,1.15,0,0,1,.46-1,2.58,2.58,0,0,1,1.46-.34h.89v-.44a1,1,0,0,0-.27-.73,1.1,1.1,0,0,0-.8-.26,1.21,1.21,0,0,0-.68.19,1.51,1.51,0,0,0-.46.48L96.89,45a1.58,1.58,0,0,1,.59-.62,1.82,1.82,0,0,1,1-.26,1.89,1.89,0,0,1,1.27.4,1.43,1.43,0,0,1,.45,1.12v2.47h.52v.62Zm-2-.49a1.8,1.8,0,0,0,.48-.06,1,1,0,0,0,.37-.18.77.77,0,0,0,.25-.26.62.62,0,0,0,.09-.32v-.74h-.93a1.63,1.63,0,0,0-.87.17.57.57,0,0,0-.28.51v.18a.6.6,0,0,0,.24.51A1,1,0,0,0,98.33,48.22Z"/>
    <path d="M105.52,49.21a1.12,1.12,0,0,1-.55,1,3.33,3.33,0,0,1-1.63.32,3,3,0,0,1-1.52-.28.92.92,0,0,1-.46-.82.77.77,0,0,1,.19-.57,1.07,1.07,0,0,1,.52-.3v-.1a.64.64,0,0,1-.4-.62.62.62,0,0,1,.22-.52,1.39,1.39,0,0,1,.56-.27v0a1.47,1.47,0,0,1-.63-.55,1.54,1.54,0,0,1-.22-.83,1.61,1.61,0,0,1,.12-.63,1.43,1.43,0,0,1,.88-.81,1.88,1.88,0,0,1,.69-.12,2,2,0,0,1,.86.18V44.2a.76.76,0,0,1,.12-.44.44.44,0,0,1,.4-.17h.67v.62h-.85v.29a1.45,1.45,0,0,1,.38.5,1.53,1.53,0,0,1,.13.66,1.61,1.61,0,0,1-.12.63,1.42,1.42,0,0,1-.35.49,1.47,1.47,0,0,1-.53.32,1.94,1.94,0,0,1-.7.11,2.25,2.25,0,0,1-.44,0,1.32,1.32,0,0,0-.4.18.37.37,0,0,0-.19.33.28.28,0,0,0,.19.27,1.72,1.72,0,0,0,.5.07h1a1.92,1.92,0,0,1,1.22.31A1.11,1.11,0,0,1,105.52,49.21Zm-.66,0a.54.54,0,0,0-.2-.43,1.29,1.29,0,0,0-.73-.16h-1.5a.64.64,0,0,0-.42.61.67.67,0,0,0,.22.51A1.1,1.1,0,0,0,103,50h.64a1.79,1.79,0,0,0,.91-.19A.59.59,0,0,0,104.86,49.25Zm-1.56-2.59a1.06,1.06,0,0,0,.71-.22.81.81,0,0,0,.26-.66v-.24a.84.84,0,0,0-.26-.67,1.31,1.31,0,0,0-1.42,0,.84.84,0,0,0-.26.67v.24a.81.81,0,0,0,.26.66A1.06,1.06,0,0,0,103.3,46.66Z"/>
    <path d="M106.33,48.71v-4.5H107v.72h0a1.46,1.46,0,0,1,.46-.6,1.34,1.34,0,0,1,.81-.23,1.4,1.4,0,0,1,1.1.45,1.83,1.83,0,0,1,.41,1.27v2.89h-.7V45.94c0-.81-.34-1.22-1-1.22a1.75,1.75,0,0,0-.4.05,1.46,1.46,0,0,0-.36.16.78.78,0,0,0-.24.27.67.67,0,0,0-.1.38v3.13Z"/>
    <path d="M111.63,43.15a.41.41,0,0,1-.33-.11.37.37,0,0,1-.1-.28v-.11a.39.39,0,0,1,.1-.29.45.45,0,0,1,.33-.11.41.41,0,0,1,.32.11.39.39,0,0,1,.1.29v.11a.37.37,0,0,1-.1.28A.38.38,0,0,1,111.63,43.15Zm-.35,1.06h.7v4.5h-.7Z"/>
    <path d="M114.45,48.71a.69.69,0,0,1-.55-.21.73.73,0,0,1-.19-.53V44.83H113v-.62h.42a.39.39,0,0,0,.31-.1.48.48,0,0,0,.08-.31V43h.63v1.25h1v.62h-1v3.26h.91v.62Z"/>
    <path d="M119.29,48h0a3.07,3.07,0,0,1-.17.31,1.27,1.27,0,0,1-.25.27,1.51,1.51,0,0,1-.36.18,1.63,1.63,0,0,1-1.6-.38,1.83,1.83,0,0,1-.41-1.27V44.21h.7V47c0,.81.35,1.21,1,1.21a1.84,1.84,0,0,0,.41,0A1.39,1.39,0,0,0,119,48a.85.85,0,0,0,.24-.26.8.8,0,0,0,.09-.39V44.21h.7v4.5h-.7Z"/>
    <path d="M124.35,48h0a1.37,1.37,0,0,1-1.31.83,1.7,1.7,0,0,1-.76-.17,1.55,1.55,0,0,1-.58-.47,2.23,2.23,0,0,1-.37-.74,3.63,3.63,0,0,1-.12-1,3.7,3.7,0,0,1,.12-1,2.23,2.23,0,0,1,.37-.74,1.55,1.55,0,0,1,.58-.47,1.7,1.7,0,0,1,.76-.17,1.47,1.47,0,0,1,.8.21,1.18,1.18,0,0,1,.51.62h0V42.25h.7v6.46h-.7Zm-1.16.21a1.68,1.68,0,0,0,.45-.06A1.16,1.16,0,0,0,124,48a1,1,0,0,0,.25-.29.8.8,0,0,0,.09-.39V45.59a.73.73,0,0,0-.09-.35A.81.81,0,0,0,124,45a1.16,1.16,0,0,0-.37-.18,1.37,1.37,0,0,0-.45-.07,1.24,1.24,0,0,0-.94.37,1.43,1.43,0,0,0-.33,1v.77a1.43,1.43,0,0,0,.33,1A1.21,1.21,0,0,0,123.19,48.19Z"/>
    <path d="M128.22,48.81a2,2,0,0,1-.83-.17,1.75,1.75,0,0,1-.64-.47,2.21,2.21,0,0,1-.41-.74,3.43,3.43,0,0,1,0-1.94,2.26,2.26,0,0,1,.41-.75,1.87,1.87,0,0,1,.64-.47,2,2,0,0,1,.83-.17,1.92,1.92,0,0,1,.81.17,1.83,1.83,0,0,1,.61.45,2.13,2.13,0,0,1,.39.69,2.75,2.75,0,0,1,.13.88v.33h-3.23v.21a1.61,1.61,0,0,0,.09.54,1.34,1.34,0,0,0,.26.43,1.17,1.17,0,0,0,.42.29,1.43,1.43,0,0,0,.56.1A1.4,1.4,0,0,0,129,48a1.31,1.31,0,0,0,.49-.57l.5.35a1.65,1.65,0,0,1-.68.75A2,2,0,0,1,128.22,48.81Zm0-4.12a1.24,1.24,0,0,0-.52.1,1.07,1.07,0,0,0-.41.28,1.43,1.43,0,0,0-.27.43,1.53,1.53,0,0,0-.09.54v.06h2.48V46a1.38,1.38,0,0,0-.32-1A1.12,1.12,0,0,0,128.22,44.69Z"/>
    <path d="M136.25,48h0a1.37,1.37,0,0,1-1.31.83,1.73,1.73,0,0,1-.76-.17,1.55,1.55,0,0,1-.58-.47,2.23,2.23,0,0,1-.37-.74,3.63,3.63,0,0,1-.12-1,3.7,3.7,0,0,1,.12-1,2.23,2.23,0,0,1,.37-.74,1.55,1.55,0,0,1,.58-.47,1.73,1.73,0,0,1,.76-.17,1.47,1.47,0,0,1,.8.21,1.18,1.18,0,0,1,.51.62h0V42.25h.7v6.46h-.7Zm-1.16.21a1.63,1.63,0,0,0,.45-.06,1.16,1.16,0,0,0,.37-.18,1,1,0,0,0,.25-.29.8.8,0,0,0,.09-.39V45.59a.73.73,0,0,0-.09-.35.81.81,0,0,0-.25-.27,1.16,1.16,0,0,0-.37-.18,1.33,1.33,0,0,0-.45-.07,1.2,1.2,0,0,0-.93.37,1.39,1.39,0,0,0-.34,1v.77a1.39,1.39,0,0,0,.34,1A1.17,1.17,0,0,0,135.09,48.19Z"/>
    <path d="M140.13,48.81a2.05,2.05,0,0,1-.83-.17,1.75,1.75,0,0,1-.64-.47,2.23,2.23,0,0,1-.42-.74,3.43,3.43,0,0,1,0-1.94,2.28,2.28,0,0,1,.42-.75,1.87,1.87,0,0,1,.64-.47,2.05,2.05,0,0,1,.83-.17,2,2,0,0,1,.82.17,1.87,1.87,0,0,1,.64.47,2.28,2.28,0,0,1,.42.75,3.21,3.21,0,0,1,0,1.94,2.23,2.23,0,0,1-.42.74,1.75,1.75,0,0,1-.64.47A2,2,0,0,1,140.13,48.81Zm0-.62a1.27,1.27,0,0,0,.92-.35,1.4,1.4,0,0,0,.36-1.06v-.65a1.42,1.42,0,0,0-.36-1.06,1.27,1.27,0,0,0-.92-.35,1.29,1.29,0,0,0-.93.35,1.41,1.41,0,0,0-.35,1.06v.65a1.4,1.4,0,0,0,.35,1.06A1.29,1.29,0,0,0,140.13,48.19Z"/>
    <path d="M146.82,48.71l-2-6.09h.79l1,3.07.67,2.28h0l.69-2.28,1-3.07h.76l-2,6.09Z"/>
    <path d="M152.11,48.81a2.07,2.07,0,0,1-.84-.17,1.8,1.8,0,0,1-.63-.47,2.05,2.05,0,0,1-.41-.74,3.43,3.43,0,0,1,0-1.94,2.1,2.1,0,0,1,.41-.75,1.93,1.93,0,0,1,.63-.47,2.07,2.07,0,0,1,.84-.17,1.92,1.92,0,0,1,.81.17,1.83,1.83,0,0,1,.61.45,2.13,2.13,0,0,1,.39.69,2.75,2.75,0,0,1,.13.88v.33h-3.23v.21a1.61,1.61,0,0,0,.09.54,1.34,1.34,0,0,0,.26.43,1.17,1.17,0,0,0,.42.29,1.4,1.4,0,0,0,.56.1,1.42,1.42,0,0,0,.75-.2,1.31,1.31,0,0,0,.49-.57l.5.35a1.7,1.7,0,0,1-.68.75A2,2,0,0,1,152.11,48.81Zm0-4.12a1.32,1.32,0,0,0-.53.1,1.12,1.12,0,0,0-.4.28,1.43,1.43,0,0,0-.27.43,1.53,1.53,0,0,0-.09.54v.06h2.48V46a1.34,1.34,0,0,0-.33-1A1.09,1.09,0,0,0,152.11,44.69Z"/>
    <path d="M155.2,48.71v-4.5h.7v.72h0a1.58,1.58,0,0,1,.47-.6,1.32,1.32,0,0,1,.81-.23,1.41,1.41,0,0,1,1.1.45,1.83,1.83,0,0,1,.41,1.27v2.89H158V45.94c0-.81-.34-1.22-1-1.22a1.84,1.84,0,0,0-.41.05,1.25,1.25,0,0,0-.35.16.72.72,0,0,0-.25.27.76.76,0,0,0-.09.38v3.13Z"/>
    <path d="M161.15,48.71a.72.72,0,0,1-.56-.21.77.77,0,0,1-.18-.53V44.83h-.74v-.62h.41c.16,0,.26,0,.31-.1a.43.43,0,0,0,.09-.31V43h.62v1.25h1v.62h-1v3.26H162v.62Z"/>
    <path d="M164.88,48.81a2.05,2.05,0,0,1-.83-.17,1.75,1.75,0,0,1-.64-.47,2.21,2.21,0,0,1-.41-.74,3.21,3.21,0,0,1,0-1.94,2.26,2.26,0,0,1,.41-.75,1.87,1.87,0,0,1,.64-.47,2.05,2.05,0,0,1,.83-.17,2,2,0,0,1,.82.17,1.87,1.87,0,0,1,.64.47,2.28,2.28,0,0,1,.42.75,3.21,3.21,0,0,1,0,1.94,2.23,2.23,0,0,1-.42.74,1.75,1.75,0,0,1-.64.47A2,2,0,0,1,164.88,48.81Zm0-.62a1.25,1.25,0,0,0,.92-.35,1.4,1.4,0,0,0,.36-1.06v-.65a1.42,1.42,0,0,0-.36-1.06,1.38,1.38,0,0,0-1.84,0,1.42,1.42,0,0,0-.36,1.06v.65a1.4,1.4,0,0,0,.36,1.06A1.25,1.25,0,0,0,164.88,48.19Z"/>
    <path d="M170.1,46a6.06,6.06,0,0,1,.12-1.21,6.51,6.51,0,0,1,.34-1.08,4.65,4.65,0,0,1,.5-.91,3.56,3.56,0,0,1,.62-.7h.66a4.62,4.62,0,0,0-1.15,1.64,5.41,5.41,0,0,0-.32,1,3.88,3.88,0,0,0-.11.94v.75a4,4,0,0,0,.11,1,5.35,5.35,0,0,0,.82,1.85,4.18,4.18,0,0,0,.65.73h-.66a3.72,3.72,0,0,1-.61-.68,4.74,4.74,0,0,1-.5-.92,5.79,5.79,0,0,1-.34-1.09A5.46,5.46,0,0,1,170.1,46Z"/>
    <path d="M173,48.71v-4.5h.7v.72h0a3.3,3.3,0,0,1,.18-.32,1.27,1.27,0,0,1,.25-.27,1,1,0,0,1,.33-.17,1.27,1.27,0,0,1,.46-.07,1.63,1.63,0,0,1,.81.21,1.29,1.29,0,0,1,.56.7h0a1.34,1.34,0,0,1,1.37-.91,1.35,1.35,0,0,1,1.08.45,1.92,1.92,0,0,1,.38,1.27v2.89h-.69V45.94a1.43,1.43,0,0,0-.24-.91.88.88,0,0,0-.75-.31,1.75,1.75,0,0,0-.4.05,1.26,1.26,0,0,0-.33.16.78.78,0,0,0-.24.27.76.76,0,0,0-.08.38v3.13h-.7V45.94a1.43,1.43,0,0,0-.24-.91.84.84,0,0,0-.73-.31,1.75,1.75,0,0,0-.4.05,1.19,1.19,0,0,0-.34.16.78.78,0,0,0-.24.27.76.76,0,0,0-.09.38v3.13Z"/>
    <path d="M185.34,48.81a2.09,2.09,0,0,1-1.05-.24,2.46,2.46,0,0,1-.73-.64l.5-.4a2.11,2.11,0,0,0,.58.51,1.54,1.54,0,0,0,.75.18,1.19,1.19,0,0,0,.7-.19.67.67,0,0,0,.25-.55.64.64,0,0,0-.17-.44,1.06,1.06,0,0,0-.62-.26l-.36-.05a3.17,3.17,0,0,1-.57-.14,1.54,1.54,0,0,1-.46-.24,1,1,0,0,1-.3-.38,1.13,1.13,0,0,1-.11-.54,1.31,1.31,0,0,1,.12-.58,1.07,1.07,0,0,1,.34-.42,1.56,1.56,0,0,1,.5-.25,2.67,2.67,0,0,1,.64-.08,1.84,1.84,0,0,1,1.57.73l-.46.41a1.53,1.53,0,0,0-.44-.38,1.42,1.42,0,0,0-.72-.17,1,1,0,0,0-.66.19.64.64,0,0,0-.22.51.53.53,0,0,0,.22.48,1.7,1.7,0,0,0,.64.22l.35,0a1.91,1.91,0,0,1,1.06.43,1.15,1.15,0,0,1,.32.84,1.26,1.26,0,0,1-.45,1A1.82,1.82,0,0,1,185.34,48.81Z"/>
    <path d="M188,45.06v-.75h2.28v.75Z"/>
    <path d="M191.37,45.84V45.4h.95V43.06h0l-.79.78-.31-.32.89-.9h.81V45.4h.85v.44Z"/>
    <path d="M196.21,46a6.11,6.11,0,0,1-.12,1.23,6.63,6.63,0,0,1-.34,1.09,4.74,4.74,0,0,1-.5.92,4.12,4.12,0,0,1-.61.68H194a3.81,3.81,0,0,0,.65-.73,5.25,5.25,0,0,0,.51-.89,7.2,7.2,0,0,0,.32-1,4.54,4.54,0,0,0,.11-1v-.75a4.45,4.45,0,0,0-.11-.94,5.41,5.41,0,0,0-.32-1,4.84,4.84,0,0,0-.5-.89,3.94,3.94,0,0,0-.66-.75h.67a3.91,3.91,0,0,1,.62.7,5.23,5.23,0,0,1,.5.91,5.68,5.68,0,0,1,.33,1.08A6.06,6.06,0,0,1,196.21,46Z"/>
  </g>
  <path d="M171.38,23h-5.47a2,2,0,0,1-2.11-2V10.13a2,2,0,0,1,2.11-2h5.47a2,2,0,0,1,2.11,2V21.06A2,2,0,0,1,171.38,23Z" style="fill: #ff6900"/>
  <path d="M51.79,23H46.33a2,2,0,0,1-2.11-2V10.13a2,2,0,0,1,2.11-2h5.46a2,2,0,0,1,2.11,2V21.06A2,2,0,0,1,51.79,23Z" style="fill: #a0d5e1"/>
  <path d="M34.71,23H29.24a2,2,0,0,1-2.1-2V10.13a2,2,0,0,1,2.1-2h5.47a2,2,0,0,1,2.11,2V21.06A2,2,0,0,1,34.71,23Z" style="fill: #d2eaf1"/>
  <path d="M68.88,23H63.41a2,2,0,0,1-2.11-2V10.13a2,2,0,0,1,2.11-2h5.47a2,2,0,0,1,2.11,2V21.06A2,2,0,0,1,68.88,23Z" style="fill: #53c0c0"/>
  <path d="M86,23H80.49a2,2,0,0,1-2.1-2V10.13a2,2,0,0,1,2.1-2H86a2,2,0,0,1,2.11,2V21.06A2,2,0,0,1,86,23Z" style="fill: #49c08b"/>
  <path d="M103,23H97.58a2,2,0,0,1-2.11-2V10.13a2,2,0,0,1,2.11-2H103a2,2,0,0,1,2.11,2V21.06A2,2,0,0,1,103,23Z" style="fill: #86d55d"/>
  <path d="M120.13,23h-5.47a2,2,0,0,1-2.11-2V10.13a2,2,0,0,1,2.11-2h5.47a2,2,0,0,1,2.11,2V21.06A2,2,0,0,1,120.13,23Z" style="fill: #c2ea2e"/>
  <path d="M137.21,23h-5.47a2,2,0,0,1-2.1-2V10.13a2,2,0,0,1,2.1-2h5.47a2,2,0,0,1,2.11,2V21.06A2,2,0,0,1,137.21,23Z" style="fill: #e1e817"/>
  <path d="M154.29,23h-5.46a2,2,0,0,1-2.11-2V10.13a2,2,0,0,1,2.11-2h5.46a2,2,0,0,1,2.11,2V21.06A2,2,0,0,1,154.29,23Z" style="fill: #ffb500"/>
  <path d="M188.46,23H183a2,2,0,0,1-2.1-2V10.13a2,2,0,0,1,2.1-2h5.47a2,2,0,0,1,2.11,2V21.06A2,2,0,0,1,188.46,23Z" style="fill: #ff0f00"/>
  <path d="M205.54,23h-5.46a2,2,0,0,1-2.11-2V10.13a2,2,0,0,1,2.11-2h5.46a2,2,0,0,1,2.11,2V21.06A2,2,0,0,1,205.54,23Z" style="fill: #ca0000"/>
  <path d="M222.63,23h-5.47a2,2,0,0,1-2.11-2V10.13a2,2,0,0,1,2.11-2h5.47a2,2,0,0,1,2.11,2V21.06A2,2,0,0,1,222.63,23Z" style="fill: #8b0000"/>
  <path d="M239.79,23h-5.47a2,2,0,0,1-2.11-2V10.13a2,2,0,0,1,2.11-2h5.47a2,2,0,0,1,2.11,2V21.06A2,2,0,0,1,239.79,23Z" style="fill: #6e0000"/>
  <path d="M257,23h-5.47a2,2,0,0,1-2.11-2V10.13a2,2,0,0,1,2.11-2H257a2,2,0,0,1,2.11,2V21.06A2,2,0,0,1,257,23Z" style="fill: #500000"/>
  <path d="M274.11,23h-5.47a2,2,0,0,1-2.11-2V10.13a2,2,0,0,1,2.11-2h5.47a2,2,0,0,1,2.11,2V21.06A2,2,0,0,1,274.11,23Z" style="fill: #300"/>
  <g>
    <path d="M17.63,23H12.16a2,2,0,0,1-2.11-2V10.13a2,2,0,0,1,2.11-2h5.47a2,2,0,0,1,2.11,2V21.06A2,2,0,0,1,17.63,23Z" style="fill: #fff"/>
    <path d="M17.63,23.27H12.16A2.29,2.29,0,0,1,9.8,21.06V10.13a2.29,2.29,0,0,1,2.36-2.22h5.47A2.29,2.29,0,0,1,20,10.13V21.06A2.29,2.29,0,0,1,17.63,23.27ZM12.16,8.41a1.8,1.8,0,0,0-1.86,1.72V21.06a1.8,1.8,0,0,0,1.86,1.71h5.47a1.8,1.8,0,0,0,1.86-1.71V10.13a1.8,1.8,0,0,0-1.86-1.72Z" style="fill: #939393"/>
  </g>
  <path d="M21.68,33.89v-.6l1.57,0,0-4.52h-.05l-1.44,1.3-.39-.43,1.51-1.37H24l-.05,5h1.45v.6Z"/>
  <path d="M57,30.66a1.26,1.26,0,0,0,.86-.26.88.88,0,0,0,.28-.67v-.06a.79.79,0,0,0-.28-.66,1.09,1.09,0,0,0-.72-.22,1.19,1.19,0,0,0-.71.19,1.41,1.41,0,0,0-.45.51l-.5-.39a2.39,2.39,0,0,1,.25-.33,1.64,1.64,0,0,1,.35-.29,2,2,0,0,1,.47-.21,2.23,2.23,0,0,1,.6-.08,2.09,2.09,0,0,1,.67.1,1.52,1.52,0,0,1,.54.27,1.3,1.3,0,0,1,.37.44,1.47,1.47,0,0,1,.13.6,1.26,1.26,0,0,1-.09.49,1,1,0,0,1-.23.38,1.13,1.13,0,0,1-.34.27,1.54,1.54,0,0,1-.42.17v0a1.79,1.79,0,0,1,.44.16,1.49,1.49,0,0,1,.38.28,1.29,1.29,0,0,1,.26.42,1.43,1.43,0,0,1,.1.56,1.6,1.6,0,0,1-.13.67,1.65,1.65,0,0,1-.39.52,1.93,1.93,0,0,1-.6.33A2.45,2.45,0,0,1,57,34a2.54,2.54,0,0,1-.65-.07,2,2,0,0,1-.88-.52,2,2,0,0,1-.29-.36l.5-.38a2.37,2.37,0,0,0,.23.3,1.55,1.55,0,0,0,.28.24,1.6,1.6,0,0,0,.35.15,2,2,0,0,0,.45,0,1.33,1.33,0,0,0,.9-.27,1,1,0,0,0,.31-.78V32.3a1,1,0,0,0-.31-.78,1.33,1.33,0,0,0-.9-.27h-.66v-.59Z"/>
  <path d="M93.33,28.89H90.87L90.71,31h.06a1.61,1.61,0,0,1,.45-.45,1.19,1.19,0,0,1,.7-.17,1.85,1.85,0,0,1,.67.12,1.55,1.55,0,0,1,.53.34,1.68,1.68,0,0,1,.35.54,2.11,2.11,0,0,1,.12.73,2.06,2.06,0,0,1-.13.76,1.52,1.52,0,0,1-.37.58,1.56,1.56,0,0,1-.6.39,2.15,2.15,0,0,1-.79.13,2.3,2.3,0,0,1-.62-.07,2.12,2.12,0,0,1-.48-.22,2.2,2.2,0,0,1-.37-.3,2.48,2.48,0,0,1-.28-.36l.5-.38c.07.11.15.21.22.3a1.45,1.45,0,0,0,.26.24,1.43,1.43,0,0,0,.33.15,1.84,1.84,0,0,0,.44,0,1.15,1.15,0,0,0,.88-.31,1.17,1.17,0,0,0,.3-.86v-.08a1.21,1.21,0,0,0-.3-.87,1.19,1.19,0,0,0-.88-.3,1.08,1.08,0,0,0-.61.14,2.06,2.06,0,0,0-.4.33l-.57-.08.2-3.09h3Z"/>
  <path d="M125,33.91l2.15-5h-2.4v1.05h-.61V28.29h3.69v.6l-2.11,5Z"/>
  <path d="M162,30.35a3.52,3.52,0,0,1-.19,1.18,4.27,4.27,0,0,1-.48,1,4.68,4.68,0,0,1-.64.8,4.87,4.87,0,0,1-.7.57h-.87c.31-.22.57-.44.81-.64a4.77,4.77,0,0,0,.62-.66,3.68,3.68,0,0,0,.45-.73,4.77,4.77,0,0,0,.3-.88h0a1.9,1.9,0,0,1-.52.57,1.41,1.41,0,0,1-.83.23,1.78,1.78,0,0,1-.67-.12,1.49,1.49,0,0,1-.53-.35,1.84,1.84,0,0,1-.34-.54,2,2,0,0,1-.12-.72,2.06,2.06,0,0,1,.13-.76,1.81,1.81,0,0,1,.38-.59,1.71,1.71,0,0,1,.59-.38,2,2,0,0,1,.76-.14,2,2,0,0,1,.79.15,1.7,1.7,0,0,1,.6.43,1.93,1.93,0,0,1,.37.68A2.84,2.84,0,0,1,162,30.35Zm-1.88.87A1.08,1.08,0,0,0,161.28,30V30a1.08,1.08,0,0,0-1.18-1.18A1.08,1.08,0,0,0,158.93,30V30a1.08,1.08,0,0,0,1.17,1.18Z"/>
  <g>
    <path d="M190.16,33.91v-.6h1.57V28.79h-.06l-1.42,1.32-.39-.43,1.49-1.39h1.05v5h1.45v.6Z"/>
    <path d="M195,33.91v-.6h1.57V28.79h-.06l-1.42,1.32-.39-.43,1.49-1.39h1v5h1.45v.6Z"/>
  </g>
  <g>
    <path d="M224.57,33.91v-.6h1.57V28.79h-.06l-1.41,1.32-.4-.43,1.49-1.39h1.06v5h1.44v.6Z"/>
    <path d="M230.79,30.66a1.26,1.26,0,0,0,.86-.26.88.88,0,0,0,.28-.67v-.06a.81.81,0,0,0-.27-.66,1.13,1.13,0,0,0-.73-.22,1.19,1.19,0,0,0-.71.19,1.41,1.41,0,0,0-.45.51l-.5-.39a2.39,2.39,0,0,1,.25-.33,1.64,1.64,0,0,1,.35-.29,2,2,0,0,1,.47-.21,2.23,2.23,0,0,1,.6-.08,2.09,2.09,0,0,1,.67.1,1.66,1.66,0,0,1,.55.27,1.39,1.39,0,0,1,.36.44,1.32,1.32,0,0,1,.13.6,1.48,1.48,0,0,1-.08.49,1.43,1.43,0,0,1-.23.38,1.17,1.17,0,0,1-.35.27,1.54,1.54,0,0,1-.42.17v0a1.79,1.79,0,0,1,.44.16,1.49,1.49,0,0,1,.38.28,1.29,1.29,0,0,1,.26.42,1.43,1.43,0,0,1,.11.56,1.6,1.6,0,0,1-.14.67,1.52,1.52,0,0,1-.39.52,1.82,1.82,0,0,1-.6.33,2.45,2.45,0,0,1-.78.12,2.59,2.59,0,0,1-.65-.07,2.52,2.52,0,0,1-.5-.22,2.28,2.28,0,0,1-.38-.3,2,2,0,0,1-.29-.36l.51-.38a2.32,2.32,0,0,0,.22.3,1.55,1.55,0,0,0,.28.24,1.6,1.6,0,0,0,.35.15,2,2,0,0,0,.45,0,1.31,1.31,0,0,0,.9-.27,1,1,0,0,0,.31-.78V32.3a1,1,0,0,0-.31-.78,1.31,1.31,0,0,0-.9-.27h-.66v-.59Z"/>
  </g>
  <g>
    <path d="M258.71,33.91v-.6h1.57V28.79h0l-1.42,1.32-.39-.43,1.49-1.39h1v5h1.45v.6Z"/>
    <path d="M266.84,28.89h-2.46L264.22,31h.06a1.61,1.61,0,0,1,.45-.45,1.19,1.19,0,0,1,.7-.17,1.85,1.85,0,0,1,.67.12,1.55,1.55,0,0,1,.53.34,1.68,1.68,0,0,1,.35.54,2.11,2.11,0,0,1,.12.73,2.06,2.06,0,0,1-.13.76,1.52,1.52,0,0,1-.37.58,1.64,1.64,0,0,1-.6.39,2.18,2.18,0,0,1-.79.13,2.3,2.3,0,0,1-.62-.07,2.12,2.12,0,0,1-.48-.22,2.2,2.2,0,0,1-.37-.3,2.48,2.48,0,0,1-.28-.36l.5-.38c.07.11.15.21.22.3a1.45,1.45,0,0,0,.26.24,1.26,1.26,0,0,0,.33.15,1.84,1.84,0,0,0,.44,0,1.15,1.15,0,0,0,.88-.31,1.17,1.17,0,0,0,.29-.86v-.08a1.21,1.21,0,0,0-.29-.87,1.19,1.19,0,0,0-.88-.3,1.08,1.08,0,0,0-.61.14,1.8,1.8,0,0,0-.4.33l-.57-.08.2-3.09h3Z"/>
  </g>
</svg>
