<svg id="Camada_1" data-name="Camada 1" xmlns="http://www.w3.org/2000/svg" viewBox="0 0 338.11 57.45">
  <title>LEGENDAS_PÁGINA_CLIMA</title>
  <g style="opacity: 0.75">
    <path d="M0,6.38C0,2.86,3.36,0,7.51,0H330.59c4.15,0,7.52,2.86,7.52,6.38V51.07c0,3.52-3.37,6.38-7.52,6.38H7.51C3.36,57.45,0,54.59,0,51.07Z" style="fill: #fff"/>
  </g>
  <g>
    <path d="M134.21,48.7V42.62h2.42a1.64,1.64,0,0,1,1.26.46,2.08,2.08,0,0,1,0,2.56,1.64,1.64,0,0,1-1.26.46h-1.69v2.6Zm.73-3.24h1.69a1,1,0,0,0,.68-.23.83.83,0,0,0,.24-.64v-.46a.84.84,0,0,0-.24-.64,1,1,0,0,0-.68-.23h-1.69Z"/>
    <path d="M139.34,48.7V44.2H140V45h.05a1.3,1.3,0,0,1,1.3-.83h.27v.7h-.41a1.52,1.52,0,0,0-.89.22.63.63,0,0,0-.32.53V48.7Z"/>
    <path d="M144.18,48.81a2.05,2.05,0,0,1-.83-.17,1.87,1.87,0,0,1-.64-.47,2.52,2.52,0,0,1-.41-.74,3.31,3.31,0,0,1-.14-1,3.22,3.22,0,0,1,.14-1,2.46,2.46,0,0,1,.41-.75,1.75,1.75,0,0,1,.64-.47,2.05,2.05,0,0,1,.83-.17,1.86,1.86,0,0,1,.81.16,1.76,1.76,0,0,1,.61.46,2,2,0,0,1,.39.69,2.75,2.75,0,0,1,.14.88v.33h-3.24v.21a1.61,1.61,0,0,0,.09.54,1.48,1.48,0,0,0,.27.43,1.2,1.2,0,0,0,.41.28,1.48,1.48,0,0,0,.57.11A1.39,1.39,0,0,0,145,48a1.42,1.42,0,0,0,.5-.58l.49.36a1.69,1.69,0,0,1-.68.75A2,2,0,0,1,144.18,48.81Zm0-4.13a1.46,1.46,0,0,0-.52.1,1.18,1.18,0,0,0-.41.29,1.29,1.29,0,0,0-.26.42,1.4,1.4,0,0,0-.1.54v.07h2.49V46a1.37,1.37,0,0,0-.33-1A1.12,1.12,0,0,0,144.18,44.68Z"/>
    <path d="M149,48.81a2.07,2.07,0,0,1-.84-.17,1.74,1.74,0,0,1-.63-.47,2,2,0,0,1-.4-.74,3.32,3.32,0,0,1-.13-1,3.25,3.25,0,0,1,.13-1,2,2,0,0,1,.4-.74,1.63,1.63,0,0,1,.63-.47,2.07,2.07,0,0,1,.84-.17,1.84,1.84,0,0,1,1.08.29,1.89,1.89,0,0,1,.61.76l-.59.3a1,1,0,0,0-.4-.54,1.2,1.2,0,0,0-.7-.19,1.35,1.35,0,0,0-.55.1,1.21,1.21,0,0,0-.39.28,1.18,1.18,0,0,0-.23.43,1.53,1.53,0,0,0-.08.54v.77a1.42,1.42,0,0,0,.32,1,1.15,1.15,0,0,0,.93.38,1.25,1.25,0,0,0,1.22-.79l.51.34a1.78,1.78,0,0,1-.65.78A1.93,1.93,0,0,1,149,48.81Z"/>
    <path d="M152,43.15a.41.41,0,0,1-.32-.11.39.39,0,0,1-.1-.28v-.12a.39.39,0,0,1,.1-.28.41.41,0,0,1,.32-.11.45.45,0,0,1,.33.11.39.39,0,0,1,.1.28v.12a.39.39,0,0,1-.1.28A.45.45,0,0,1,152,43.15Zm-.35,1.05h.7v4.5h-.7Z"/>
    <path d="M153.84,44.2h.7v.73h0a1.24,1.24,0,0,1,.51-.63,1.56,1.56,0,0,1,.8-.2,1.73,1.73,0,0,1,.76.17,1.55,1.55,0,0,1,.58.47,2.23,2.23,0,0,1,.37.74,3.63,3.63,0,0,1,.12,1,3.7,3.7,0,0,1-.12,1,2.23,2.23,0,0,1-.37.74,1.65,1.65,0,0,1-.58.47,1.73,1.73,0,0,1-.76.17,1.35,1.35,0,0,1-1.31-.83h0v2.47h-.7Zm1.86,4a1.2,1.2,0,0,0,.93-.37,1.39,1.39,0,0,0,.34-1v-.77a1.38,1.38,0,0,0-.34-1,1.17,1.17,0,0,0-.93-.37,1.63,1.63,0,0,0-.45.06,1.82,1.82,0,0,0-.37.18,1,1,0,0,0-.25.28.7.7,0,0,0-.09.35v1.68a.86.86,0,0,0,.09.39,1,1,0,0,0,.25.29,1.16,1.16,0,0,0,.37.18A1.63,1.63,0,0,0,155.7,48.19Z"/>
    <path d="M159.25,43.15a.45.45,0,0,1-.33-.11.43.43,0,0,1-.1-.28v-.12a.43.43,0,0,1,.1-.28.55.55,0,0,1,.66,0,.43.43,0,0,1,.1.28v.12a.43.43,0,0,1-.1.28A.45.45,0,0,1,159.25,43.15Zm-.35,1.05h.7v4.5h-.7Z"/>
    <path d="M162.07,48.7a.74.74,0,0,1-.55-.2.81.81,0,0,1-.19-.54V44.82h-.74V44.2H161a.43.43,0,0,0,.31-.09.44.44,0,0,0,.08-.32V43H162V44.2h1v.62h-1v3.26H163v.62Z"/>
    <path d="M167.41,48.7a.68.68,0,0,1-.56-.21,1,1,0,0,1-.22-.52h0a1.16,1.16,0,0,1-.49.63,1.48,1.48,0,0,1-.81.21,1.54,1.54,0,0,1-1.11-.37,1.25,1.25,0,0,1-.4-1,1.14,1.14,0,0,1,.47-1,2.44,2.44,0,0,1,1.45-.34h.89v-.44a1,1,0,0,0-.26-.74,1.11,1.11,0,0,0-.8-.25,1.22,1.22,0,0,0-.69.18,1.8,1.8,0,0,0-.46.49L164,45a1.55,1.55,0,0,1,.58-.62,1.85,1.85,0,0,1,1-.26,1.83,1.83,0,0,1,1.27.4,1.39,1.39,0,0,1,.46,1.11v2.47h.51v.62Zm-2-.49a1.75,1.75,0,0,0,.48-.06,1.33,1.33,0,0,0,.38-.17,1,1,0,0,0,.24-.26.62.62,0,0,0,.09-.32v-.75h-.92a1.63,1.63,0,0,0-.88.18.56.56,0,0,0-.27.5v.19a.59.59,0,0,0,.23.51A1.07,1.07,0,0,0,165.4,48.21Z"/>
    <path d="M170.47,44.1a1.84,1.84,0,0,1,1.08.29,1.79,1.79,0,0,1,.6.76l-.58.3a1.1,1.1,0,0,0-.4-.54,1.2,1.2,0,0,0-.7-.19,1.35,1.35,0,0,0-.55.1,1,1,0,0,0-.39.28,1.24,1.24,0,0,0-.24.42,1.92,1.92,0,0,0-.08.55v.76a1.45,1.45,0,0,0,.32,1,1.17,1.17,0,0,0,.94.38,1.27,1.27,0,0,0,1.22-.78l.51.34a1.91,1.91,0,0,1-.59.73,1.77,1.77,0,0,1-1,.33l-.09.44,0,0a1.27,1.27,0,0,1,.34,0,.6.6,0,0,1,.42.15.51.51,0,0,1,.17.42.7.7,0,0,1-.07.33.66.66,0,0,1-.22.22.79.79,0,0,1-.31.13,1.42,1.42,0,0,1-.36,0,1.15,1.15,0,0,1-.57-.12,1.31,1.31,0,0,1-.3-.24l.33-.36a.87.87,0,0,0,.21.17.67.67,0,0,0,.33.08.45.45,0,0,0,.27-.07.22.22,0,0,0,.11-.2.29.29,0,0,0-.11-.22,1.09,1.09,0,0,0-.48-.14l-.25,0,.12-.57a1.77,1.77,0,0,1-1.31-.72,2.71,2.71,0,0,1-.46-1.63,3.24,3.24,0,0,1,.14-1,2.09,2.09,0,0,1,.39-.74,1.63,1.63,0,0,1,.63-.47A2.11,2.11,0,0,1,170.47,44.1Z"/>
    <path d="M176.45,48.7a.68.68,0,0,1-.56-.21,1,1,0,0,1-.22-.52h0a1.16,1.16,0,0,1-.49.63,1.48,1.48,0,0,1-.81.21,1.55,1.55,0,0,1-1.11-.37,1.29,1.29,0,0,1-.4-1,1.14,1.14,0,0,1,.47-1,2.46,2.46,0,0,1,1.45-.34h.89v-.44a1,1,0,0,0-.26-.74,1.1,1.1,0,0,0-.8-.25,1.24,1.24,0,0,0-.69.18,1.63,1.63,0,0,0-.45.49L173,45a1.55,1.55,0,0,1,.58-.62,2.18,2.18,0,0,1,2.29.14,1.42,1.42,0,0,1,.45,1.11v2.47h.51v.62Zm-1.17-5.33a.93.93,0,0,1-.39-.08l-.3-.15a2.53,2.53,0,0,0-.36-.16.85.85,0,0,0-.26,0,.58.58,0,0,0-.26.06,1.49,1.49,0,0,0-.24.18l-.29-.35a1.39,1.39,0,0,1,.32-.32.85.85,0,0,1,.51-.14.94.94,0,0,1,.39.07l.31.15a1.7,1.7,0,0,0,.35.16.66.66,0,0,0,.26,0,.55.55,0,0,0,.26-.06,1.54,1.54,0,0,0,.24-.17l.29.35a1.35,1.35,0,0,1-.32.31A.83.83,0,0,1,175.28,43.37Zm-.83,4.84a1.73,1.73,0,0,0,.47-.06,1.21,1.21,0,0,0,.38-.17.84.84,0,0,0,.24-.26.62.62,0,0,0,.09-.32v-.75h-.92a1.65,1.65,0,0,0-.88.18.56.56,0,0,0-.27.5v.19a.6.6,0,0,0,.24.51A1,1,0,0,0,174.45,48.21Z"/>
    <path d="M179.54,48.81a2,2,0,0,1-.83-.17,1.87,1.87,0,0,1-.64-.47,2.34,2.34,0,0,1-.42-.74,3,3,0,0,1-.14-1,2.93,2.93,0,0,1,.14-1,2.28,2.28,0,0,1,.42-.75,1.75,1.75,0,0,1,.64-.47,2.09,2.09,0,0,1,1.65,0,1.75,1.75,0,0,1,.64.47,2.28,2.28,0,0,1,.42.75,2.93,2.93,0,0,1,.15,1,3,3,0,0,1-.15,1,2.34,2.34,0,0,1-.42.74,1.87,1.87,0,0,1-.64.47A2,2,0,0,1,179.54,48.81Zm0-.62a1.27,1.27,0,0,0,.92-.35,1.42,1.42,0,0,0,.36-1.06v-.65a1.4,1.4,0,0,0-.36-1.06,1.23,1.23,0,0,0-.92-.35,1.25,1.25,0,0,0-.93.35,1.4,1.4,0,0,0-.36,1.06v.65a1.42,1.42,0,0,0,.36,1.06A1.29,1.29,0,0,0,179.54,48.19Z"/>
    <path d="M184.76,46a6,6,0,0,1,.12-1.21,5.69,5.69,0,0,1,.34-1.08,5,5,0,0,1,.5-.92,3.8,3.8,0,0,1,.62-.69H187a5.27,5.27,0,0,0-1.47,2.59,4,4,0,0,0-.12.95v.75a4.05,4.05,0,0,0,.12,1,5.15,5.15,0,0,0,.32,1,5.41,5.41,0,0,0,.5.88,4.25,4.25,0,0,0,.65.74h-.66a3.39,3.39,0,0,1-.61-.68,5,5,0,0,1-.5-.92,5.33,5.33,0,0,1-.34-1.09A5.46,5.46,0,0,1,184.76,46Z"/>
    <path d="M187.7,48.7V44.2h.7v.73h0a1.74,1.74,0,0,1,.18-.33,1.48,1.48,0,0,1,.24-.26,1.56,1.56,0,0,1,.34-.18,1.53,1.53,0,0,1,.45-.06,1.64,1.64,0,0,1,.82.21,1.25,1.25,0,0,1,.56.7h0a1.3,1.3,0,0,1,.46-.64,1.39,1.39,0,0,1,.91-.27,1.33,1.33,0,0,1,1.07.45,1.87,1.87,0,0,1,.39,1.27V48.7h-.7V45.93a1.55,1.55,0,0,0-.23-.91.9.9,0,0,0-.75-.3,1.75,1.75,0,0,0-.4.05,1.13,1.13,0,0,0-.33.16.78.78,0,0,0-.24.27.74.74,0,0,0-.09.38V48.7h-.69V45.93a1.47,1.47,0,0,0-.24-.91.87.87,0,0,0-.73-.3,1.68,1.68,0,0,0-.4.05,1.19,1.19,0,0,0-.34.16.78.78,0,0,0-.24.27.74.74,0,0,0-.09.38V48.7Z"/>
    <path d="M195.31,48.7V44.2h.7v.73h0a1.74,1.74,0,0,1,.18-.33,1.48,1.48,0,0,1,.24-.26,1.56,1.56,0,0,1,.34-.18,1.53,1.53,0,0,1,.45-.06,1.64,1.64,0,0,1,.82.21,1.25,1.25,0,0,1,.56.7h0a1.3,1.3,0,0,1,.46-.64,1.39,1.39,0,0,1,.91-.27,1.32,1.32,0,0,1,1.07.45,1.87,1.87,0,0,1,.39,1.27V48.7h-.69V45.93a1.47,1.47,0,0,0-.24-.91.9.9,0,0,0-.75-.3,1.75,1.75,0,0,0-.4.05,1.26,1.26,0,0,0-.33.16.78.78,0,0,0-.24.27.74.74,0,0,0-.08.38V48.7h-.7V45.93a1.47,1.47,0,0,0-.24-.91.86.86,0,0,0-.73-.3,1.75,1.75,0,0,0-.4.05,1.19,1.19,0,0,0-.34.16.78.78,0,0,0-.24.27.74.74,0,0,0-.09.38V48.7Z"/>
    <path d="M204.38,46a5.46,5.46,0,0,1-.13,1.23,6,6,0,0,1-.34,1.09,5,5,0,0,1-.5.92,3.72,3.72,0,0,1-.61.68h-.66a4.71,4.71,0,0,0,.65-.74,5.41,5.41,0,0,0,.5-.88,6,6,0,0,0,.32-1,4.62,4.62,0,0,0,.11-1v-.75a4.54,4.54,0,0,0-.11-.95,5.59,5.59,0,0,0-.32-1,4.84,4.84,0,0,0-.5-.89,4.27,4.27,0,0,0-.65-.75h.66a3.8,3.8,0,0,1,.62.69,5,5,0,0,1,.5.92,5.68,5.68,0,0,1,.33,1.08A5.34,5.34,0,0,1,204.38,46Z"/>
  </g>
  <path d="M171.58,23h-5.46a2,2,0,0,1-2.11-2V10.13a2,2,0,0,1,2.11-2h5.46a2,2,0,0,1,2.11,2V21.06A2,2,0,0,1,171.58,23Z" style="fill: #f9c64e"/>
  <path d="M291.85,23h-5.46a2,2,0,0,1-2.11-2V10.13a2,2,0,0,1,2.11-2h5.46a2,2,0,0,1,2.11,2V21.06A2,2,0,0,1,291.85,23Z" style="fill: #33fcfc"/>
  <path d="M308.91,23h-5.47a2,2,0,0,1-2.11-2V10.13a2,2,0,0,1,2.11-2h5.47a2,2,0,0,1,2.11,2V21.06A2,2,0,0,1,308.91,23Z" style="fill: #00bedc"/>
  <path d="M326,23h-5.46a2,2,0,0,1-2.11-2V10.13a2,2,0,0,1,2.11-2H326a2,2,0,0,1,2.11,2V21.06A2,2,0,0,1,326,23Z" style="fill: #017596"/>
  <path d="M52,23H46.53a2,2,0,0,1-2.1-2V10.13a2,2,0,0,1,2.1-2H52a2,2,0,0,1,2.11,2V21.06A2,2,0,0,1,52,23Z" style="fill: #a2dcf7"/>
  <path d="M34.92,23H29.45a2,2,0,0,1-2.11-2V10.13a2,2,0,0,1,2.11-2h5.47a2,2,0,0,1,2.11,2V21.06A2,2,0,0,1,34.92,23Z" style="fill: #c8f4fd"/>
  <path d="M69.08,23H63.62a2,2,0,0,1-2.11-2V10.13a2,2,0,0,1,2.11-2h5.46a2,2,0,0,1,2.11,2V21.06A2,2,0,0,1,69.08,23Z" style="fill: #5e9ad2"/>
  <path d="M86.17,23H80.7a2,2,0,0,1-2.11-2V10.13a2,2,0,0,1,2.11-2h5.47a2,2,0,0,1,2.11,2V21.06A2,2,0,0,1,86.17,23Z" style="fill: #0a6eff"/>
  <path d="M103.25,23H97.78a2,2,0,0,1-2.1-2V10.13a2,2,0,0,1,2.1-2h5.47a2,2,0,0,1,2.11,2V21.06A2,2,0,0,1,103.25,23Z" style="fill: #14ff64"/>
  <path d="M120.33,23h-5.46a2,2,0,0,1-2.11-2V10.13a2,2,0,0,1,2.11-2h5.46a2,2,0,0,1,2.11,2V21.06A2,2,0,0,1,120.33,23Z" style="fill: #49b34d"/>
  <path d="M137.42,23H132a2,2,0,0,1-2.11-2V10.13a2,2,0,0,1,2.11-2h5.47a2,2,0,0,1,2.11,2V21.06A2,2,0,0,1,137.42,23Z" style="fill: #016301"/>
  <path d="M154.5,23H149a2,2,0,0,1-2.1-2V10.13a2,2,0,0,1,2.1-2h5.47a2,2,0,0,1,2.11,2V21.06A2,2,0,0,1,154.5,23Z" style="fill: #ffff4b"/>
  <path d="M188.8,23h-5.47a2,2,0,0,1-2.11-2V10.13a2,2,0,0,1,2.11-2h5.47a2,2,0,0,1,2.11,2V21.06A2,2,0,0,1,188.8,23Z" style="fill: #f5742d"/>
  <path d="M206,23h-5.47a2,2,0,0,1-2.11-2V10.13a2,2,0,0,1,2.11-2H206a2,2,0,0,1,2.11,2V21.06A2,2,0,0,1,206,23Z" style="fill: #d62528"/>
  <path d="M223.21,23h-5.47a2,2,0,0,1-2.11-2V10.13a2,2,0,0,1,2.11-2h5.47a2,2,0,0,1,2.11,2V21.06A2,2,0,0,1,223.21,23Z" style="fill: #ecd0fc"/>
  <path d="M240.37,23H234.9a2,2,0,0,1-2.11-2V10.13a2,2,0,0,1,2.11-2h5.47a2,2,0,0,1,2.11,2V21.06A2,2,0,0,1,240.37,23Z" style="fill: #cb7ef6"/>
  <path d="M257.53,23h-5.47a2,2,0,0,1-2.11-2V10.13a2,2,0,0,1,2.11-2h5.47a2,2,0,0,1,2.11,2V21.06A2,2,0,0,1,257.53,23Z" style="fill: #950fdf"/>
  <path d="M274.69,23h-5.47a2,2,0,0,1-2.1-2V10.13a2,2,0,0,1,2.1-2h5.47a2,2,0,0,1,2.11,2V21.06A2,2,0,0,1,274.69,23Z" style="fill: #ccfcfc"/>
  <g>
    <path d="M17.83,23H12.37a2,2,0,0,1-2.11-2V10.13a2,2,0,0,1,2.11-2h5.46a2,2,0,0,1,2.11,2V21.06A2,2,0,0,1,17.83,23Z" style="fill: #fff"/>
    <path d="M17.84,23.28H12.37A2.3,2.3,0,0,1,10,21.06V10.12a2.29,2.29,0,0,1,2.36-2.21h5.47a2.28,2.28,0,0,1,2.35,2.21V21.06A2.29,2.29,0,0,1,17.84,23.28ZM12.37,8.41a1.79,1.79,0,0,0-1.86,1.71V21.06a1.8,1.8,0,0,0,1.86,1.72h5.47a1.8,1.8,0,0,0,1.85-1.72V10.12a1.79,1.79,0,0,0-1.85-1.71Z" style="fill: #939393"/>
  </g>
  <path d="M42.29,29.66H39.83l-.16,2.14h0a1.78,1.78,0,0,1,.46-.45,1.26,1.26,0,0,1,.69-.17,1.78,1.78,0,0,1,.67.12,1.61,1.61,0,0,1,.53.34,1.48,1.48,0,0,1,.35.55,1.86,1.86,0,0,1,.13.73,2,2,0,0,1-.13.75,1.69,1.69,0,0,1-.37.59,1.86,1.86,0,0,1-.6.38,2.18,2.18,0,0,1-.79.14A2.35,2.35,0,0,1,40,34.7a1.36,1.36,0,0,1-.47-.22,1.86,1.86,0,0,1-.37-.3,3.17,3.17,0,0,1-.29-.35l.51-.39a2.44,2.44,0,0,0,.22.31,1.38,1.38,0,0,0,.26.23.84.84,0,0,0,.33.15,1.44,1.44,0,0,0,.44,0,1.2,1.2,0,0,0,.88-.3,1.25,1.25,0,0,0,.29-.87v-.08a1.21,1.21,0,0,0-.29-.86,1.4,1.4,0,0,0-1.49-.17,1.85,1.85,0,0,0-.4.34l-.57-.09.2-3.09h3Z"/>
  <path d="M13.4,34.68v-.59H15V29.56h-.05L13.5,30.88l-.39-.42,1.48-1.4h1.06v5H17.1v.59Z"/>
  <g>
    <path d="M70.85,34.68v-.59h1.57V29.56h-.06L71,30.88l-.4-.42L72,29.06h1v5h1.45v.59Z"/>
    <path d="M79,29.66H76.51l-.16,2.14h.06a1.75,1.75,0,0,1,.45-.45,1.29,1.29,0,0,1,.7-.17,1.85,1.85,0,0,1,.67.12,1.72,1.72,0,0,1,.53.34,1.48,1.48,0,0,1,.35.55,2.07,2.07,0,0,1,.12.73,2.27,2.27,0,0,1-.12.75,1.58,1.58,0,0,1-.38.59,1.71,1.71,0,0,1-.59.38,2.24,2.24,0,0,1-.8.14,2.33,2.33,0,0,1-.62-.08,1.51,1.51,0,0,1-.48-.22,2.2,2.2,0,0,1-.37-.3,3.07,3.07,0,0,1-.28-.35l.51-.39a2.44,2.44,0,0,0,.22.31,1.09,1.09,0,0,0,.25.23,1,1,0,0,0,.33.15,1.44,1.44,0,0,0,.44,0,1.19,1.19,0,0,0,.88-.3,1.21,1.21,0,0,0,.3-.87v-.08a1.17,1.17,0,0,0-.3-.86,1.15,1.15,0,0,0-.88-.31,1.13,1.13,0,0,0-.6.14,1.85,1.85,0,0,0-.4.34l-.57-.09.2-3.09h3Z"/>
  </g>
  <g>
    <path d="M108.52,34.68h-3.68V34l1.83-1.69a3.61,3.61,0,0,0,.66-.77,1.48,1.48,0,0,0,.27-.82v-.1a1.13,1.13,0,0,0-.26-.76,1,1,0,0,0-.78-.29,1.25,1.25,0,0,0-.45.08.79.79,0,0,0-.33.2.89.89,0,0,0-.24.3,2,2,0,0,0-.15.37l-.6-.23a2.38,2.38,0,0,1,.22-.49,1.61,1.61,0,0,1,.36-.42,1.58,1.58,0,0,1,.51-.29,1.93,1.93,0,0,1,.71-.11,2.13,2.13,0,0,1,.74.12,1.52,1.52,0,0,1,.87.85,1.76,1.76,0,0,1,.12.66,2,2,0,0,1-.1.61,2.2,2.2,0,0,1-.25.54,4.18,4.18,0,0,1-.39.49c-.15.16-.32.32-.5.48l-1.51,1.37h3Z"/>
    <path d="M113.07,29.66h-2.46l-.16,2.14h0a1.78,1.78,0,0,1,.46-.45,1.26,1.26,0,0,1,.69-.17,1.78,1.78,0,0,1,.67.12,1.61,1.61,0,0,1,.53.34,1.48,1.48,0,0,1,.35.55,1.86,1.86,0,0,1,.13.73,2,2,0,0,1-.13.75,1.69,1.69,0,0,1-.37.59,1.86,1.86,0,0,1-.6.38,2.18,2.18,0,0,1-.79.14,2.35,2.35,0,0,1-.63-.08,1.51,1.51,0,0,1-.48-.22,2.12,2.12,0,0,1-.36-.3,3.17,3.17,0,0,1-.29-.35l.51-.39a2.44,2.44,0,0,0,.22.31,1.38,1.38,0,0,0,.26.23.84.84,0,0,0,.33.15,1.44,1.44,0,0,0,.44,0,1.16,1.16,0,0,0,.87-.3,1.21,1.21,0,0,0,.3-.87v-.08a1.17,1.17,0,0,0-.3-.86,1.13,1.13,0,0,0-.87-.31,1.17,1.17,0,0,0-.61.14,1.85,1.85,0,0,0-.4.34l-.57-.09.2-3.09h3Z"/>
  </g>
  <g>
    <path d="M141.35,34.68v-1.1h-2.72V33L141,29.06h1v4h.81v.56H142v1.1ZM139.27,33h2.08V29.59h0Z"/>
    <path d="M145.57,34.78A1.6,1.6,0,0,1,144.1,34a4.12,4.12,0,0,1-.46-2.14,4.15,4.15,0,0,1,.46-2.14,1.8,1.8,0,0,1,2.94,0,4.15,4.15,0,0,1,.46,2.14A4.12,4.12,0,0,1,147,34,1.6,1.6,0,0,1,145.57,34.78Zm0-.6a1.14,1.14,0,0,0,.57-.13,1,1,0,0,0,.37-.39,1.89,1.89,0,0,0,.22-.58,4.38,4.38,0,0,0,.06-.75v-.91a4.22,4.22,0,0,0-.06-.75,2.06,2.06,0,0,0-.22-.59,1,1,0,0,0-.37-.38,1.15,1.15,0,0,0-.57-.14,1.08,1.08,0,0,0-.56.14,1.06,1.06,0,0,0-.38.38,1.8,1.8,0,0,0-.21.59,3.42,3.42,0,0,0-.07.75v.91a3.54,3.54,0,0,0,.07.75,1.66,1.66,0,0,0,.21.58,1,1,0,0,0,.38.39A1.08,1.08,0,0,0,145.57,34.18Z"/>
  </g>
  <g>
    <path d="M166.42,34.78a2,2,0,0,1-.79-.15,1.58,1.58,0,0,1-.59-.43,1.8,1.8,0,0,1-.38-.68,3.15,3.15,0,0,1-.13-.9,3.79,3.79,0,0,1,.19-1.18,4.2,4.2,0,0,1,.48-1,4.75,4.75,0,0,1,1.34-1.38h.87c-.3.22-.57.44-.81.65a4.74,4.74,0,0,0-.62.65,4.93,4.93,0,0,0-.45.73,4.77,4.77,0,0,0-.3.88l0,0a1.94,1.94,0,0,1,.52-.58,1.44,1.44,0,0,1,.84-.23,1.76,1.76,0,0,1,.66.12,1.49,1.49,0,0,1,.53.35,1.6,1.6,0,0,1,.34.55,2,2,0,0,1,.12.71,2.06,2.06,0,0,1-.13.76,1.66,1.66,0,0,1-.38.59,1.71,1.71,0,0,1-.59.38A2.06,2.06,0,0,1,166.42,34.78Zm0-.6a1.17,1.17,0,0,0,.86-.3,1.18,1.18,0,0,0,.31-.88v-.06a1.15,1.15,0,0,0-.31-.88,1.13,1.13,0,0,0-.86-.31,1.17,1.17,0,0,0-.87.31,1.19,1.19,0,0,0-.31.88V33a1.22,1.22,0,0,0,.31.88A1.21,1.21,0,0,0,166.41,34.18Z"/>
    <path d="M171.24,34.78a1.6,1.6,0,0,1-1.47-.77,4.12,4.12,0,0,1-.46-2.14,4.15,4.15,0,0,1,.46-2.14,1.8,1.8,0,0,1,2.94,0,4.25,4.25,0,0,1,.46,2.14,4.23,4.23,0,0,1-.46,2.14A1.6,1.6,0,0,1,171.24,34.78Zm0-.6a1.08,1.08,0,0,0,.56-.13,1,1,0,0,0,.38-.39,1.66,1.66,0,0,0,.21-.58,3.54,3.54,0,0,0,.07-.75v-.91a3.42,3.42,0,0,0-.07-.75,1.8,1.8,0,0,0-.21-.59,1.06,1.06,0,0,0-.38-.38,1.08,1.08,0,0,0-.56-.14,1.15,1.15,0,0,0-.57.14,1,1,0,0,0-.37.38,2.06,2.06,0,0,0-.22.59,4.16,4.16,0,0,0-.07.75v.91a4.35,4.35,0,0,0,.07.75,1.89,1.89,0,0,0,.22.58,1,1,0,0,0,.37.39A1.14,1.14,0,0,0,171.24,34.18Z"/>
  </g>
  <g>
    <path d="M194.09,31.12a3.74,3.74,0,0,1-.19,1.18,4.09,4.09,0,0,1-.48,1,4.28,4.28,0,0,1-.65.8,3.47,3.47,0,0,1-.69.57h-.87c.3-.22.57-.43.81-.64a6.25,6.25,0,0,0,.62-.65,4.63,4.63,0,0,0,.45-.73,5,5,0,0,0,.3-.88l0,0a2.06,2.06,0,0,1-.52.58,1.42,1.42,0,0,1-.84.23,1.59,1.59,0,0,1-.66-.13,1.46,1.46,0,0,1-.53-.34,1.6,1.6,0,0,1-.34-.55,2,2,0,0,1-.12-.72,2,2,0,0,1,.13-.75,1.58,1.58,0,0,1,.38-.59,1.74,1.74,0,0,1,.59-.39,2,2,0,0,1,.76-.13,2,2,0,0,1,.79.15,1.67,1.67,0,0,1,.59.42,1.88,1.88,0,0,1,.38.68A3.15,3.15,0,0,1,194.09,31.12Zm-1.88.87a1.21,1.21,0,0,0,.87-.3,1.22,1.22,0,0,0,.31-.88v-.06a1.21,1.21,0,0,0-.31-.88,1.17,1.17,0,0,0-.87-.31,1.13,1.13,0,0,0-.86.31,1.17,1.17,0,0,0-.31.88v.06a1.18,1.18,0,0,0,.31.88A1.17,1.17,0,0,0,192.21,32Z"/>
    <path d="M197,34.78a1.6,1.6,0,0,1-1.47-.77,4.12,4.12,0,0,1-.46-2.14,4.15,4.15,0,0,1,.46-2.14,1.8,1.8,0,0,1,2.94,0,4.15,4.15,0,0,1,.46,2.14,4.12,4.12,0,0,1-.46,2.14A1.6,1.6,0,0,1,197,34.78Zm0-.6a1.08,1.08,0,0,0,.56-.13,1,1,0,0,0,.38-.39,1.89,1.89,0,0,0,.22-.58,4.38,4.38,0,0,0,.06-.75v-.91a4.22,4.22,0,0,0-.06-.75,2.06,2.06,0,0,0-.22-.59,1,1,0,0,0-.38-.38,1.19,1.19,0,0,0-1.12,0,1.06,1.06,0,0,0-.38.38,1.8,1.8,0,0,0-.21.59,3.42,3.42,0,0,0-.07.75v.91a3.54,3.54,0,0,0,.07.75,1.66,1.66,0,0,0,.21.58,1,1,0,0,0,.38.39A1.08,1.08,0,0,0,197,34.18Z"/>
  </g>
  <g>
    <path d="M222.51,34.68v-.59h1.57V29.56H224l-1.42,1.32-.39-.42,1.48-1.4h1.06v5h1.45v.59Z"/>
    <path d="M228.73,31.43a1.24,1.24,0,0,0,.86-.26.87.87,0,0,0,.29-.67v-.06a.82.82,0,0,0-.28-.66,1.2,1.2,0,0,0-.73-.22,1.29,1.29,0,0,0-.71.19,1.59,1.59,0,0,0-.45.51l-.5-.38a2,2,0,0,1,.26-.34,2.08,2.08,0,0,1,.35-.29,2,2,0,0,1,1.07-.28,2.46,2.46,0,0,1,.67.09,1.52,1.52,0,0,1,.54.27,1.33,1.33,0,0,1,.36.45,1.26,1.26,0,0,1,.13.6,1.29,1.29,0,0,1-.08.49,1.16,1.16,0,0,1-.23.37,1.27,1.27,0,0,1-.34.27,1.28,1.28,0,0,1-.42.17v0a1.69,1.69,0,0,1,.43.15,1.37,1.37,0,0,1,.38.29,1.27,1.27,0,0,1,.27.42,1.62,1.62,0,0,1,0,1.22,1.43,1.43,0,0,1-.38.52,1.89,1.89,0,0,1-.61.34,2.37,2.37,0,0,1-.78.12,2.49,2.49,0,0,1-.64-.08,1.52,1.52,0,0,1-.5-.22,1.94,1.94,0,0,1-.38-.3,3.27,3.27,0,0,1-.3-.35l.51-.39a2.49,2.49,0,0,0,.23.31A1,1,0,0,0,228,34a1,1,0,0,0,.34.15,1.55,1.55,0,0,0,.45,0,1.31,1.31,0,0,0,.9-.27,1,1,0,0,0,.31-.77v-.07a1,1,0,0,0-.31-.77,1.31,1.31,0,0,0-.9-.27h-.66v-.6Z"/>
    <path d="M233.88,34.78a1.6,1.6,0,0,1-1.47-.77,4.12,4.12,0,0,1-.46-2.14,4.15,4.15,0,0,1,.46-2.14,1.8,1.8,0,0,1,2.94,0,4.25,4.25,0,0,1,.46,2.14,4.23,4.23,0,0,1-.46,2.14A1.6,1.6,0,0,1,233.88,34.78Zm0-.6a1.08,1.08,0,0,0,.56-.13,1,1,0,0,0,.38-.39,1.66,1.66,0,0,0,.21-.58,3.54,3.54,0,0,0,.07-.75v-.91a3.42,3.42,0,0,0-.07-.75,1.8,1.8,0,0,0-.21-.59,1.06,1.06,0,0,0-.38-.38,1.08,1.08,0,0,0-.56-.14,1.15,1.15,0,0,0-.57.14,1,1,0,0,0-.37.38,2.06,2.06,0,0,0-.22.59,4.16,4.16,0,0,0-.07.75v.91a4.35,4.35,0,0,0,.07.75,1.89,1.89,0,0,0,.22.58,1,1,0,0,0,.37.39A1.14,1.14,0,0,0,233.88,34.18Z"/>
  </g>
  <g>
    <path d="M256.88,34.68v-.59h1.57V29.56h-.06L257,30.88l-.4-.42,1.49-1.4h1.06v5h1.44v.59Z"/>
    <path d="M265.29,31.12a3.48,3.48,0,0,1-.19,1.18,4.46,4.46,0,0,1-.47,1,5.26,5.26,0,0,1-.65.8,4.14,4.14,0,0,1-.69.57h-.87a9.73,9.73,0,0,0,.8-.64,5.35,5.35,0,0,0,.62-.65,4,4,0,0,0,.45-.73,4.33,4.33,0,0,0,.3-.88l0,0a1.92,1.92,0,0,1-.52.58,1.41,1.41,0,0,1-.83.23,1.63,1.63,0,0,1-.67-.13,1.42,1.42,0,0,1-.52-.34,1.62,1.62,0,0,1-.35-.55,2,2,0,0,1-.12-.72,2,2,0,0,1,.13-.75,1.71,1.71,0,0,1,.38-.59,1.74,1.74,0,0,1,.59-.39,2.07,2.07,0,0,1,.77-.13,1.94,1.94,0,0,1,.78.15,1.81,1.81,0,0,1,.6.42,1.86,1.86,0,0,1,.37.68A2.84,2.84,0,0,1,265.29,31.12Zm-1.88.87a1.21,1.21,0,0,0,.87-.3,1.18,1.18,0,0,0,.31-.88v-.06a1.08,1.08,0,0,0-1.18-1.19,1.15,1.15,0,0,0-.86.31,1.17,1.17,0,0,0-.31.88v.06A1.06,1.06,0,0,0,263.41,32Z"/>
    <path d="M268.24,34.78a1.6,1.6,0,0,1-1.47-.77,4.23,4.23,0,0,1-.46-2.14,4.25,4.25,0,0,1,.46-2.14,1.8,1.8,0,0,1,2.94,0,4.15,4.15,0,0,1,.46,2.14,4.12,4.12,0,0,1-.46,2.14A1.6,1.6,0,0,1,268.24,34.78Zm0-.6a1.14,1.14,0,0,0,.57-.13,1.09,1.09,0,0,0,.38-.39,2.19,2.19,0,0,0,.21-.58,4.35,4.35,0,0,0,.07-.75v-.91a4.16,4.16,0,0,0-.07-.75,2.41,2.41,0,0,0-.21-.59,1,1,0,0,0-.95-.52,1.11,1.11,0,0,0-.56.14,1.06,1.06,0,0,0-.38.38,2.06,2.06,0,0,0-.21.59,3.42,3.42,0,0,0-.07.75v.91a3.54,3.54,0,0,0,.07.75,1.89,1.89,0,0,0,.21.58,1,1,0,0,0,.38.39A1.1,1.1,0,0,0,268.24,34.18Z"/>
  </g>
  <g>
    <path d="M294.62,34.68h-3.69V34l1.84-1.69a4.28,4.28,0,0,0,.66-.77,1.55,1.55,0,0,0,.26-.82v-.1a1.12,1.12,0,0,0-.25-.76,1,1,0,0,0-.78-.29,1.26,1.26,0,0,0-.46.08.86.86,0,0,0-.33.2,1,1,0,0,0-.23.3,2,2,0,0,0-.15.37l-.61-.23a2.42,2.42,0,0,1,.23-.49,1.59,1.59,0,0,1,.86-.71,2,2,0,0,1,.72-.11,2.07,2.07,0,0,1,.73.12,1.5,1.5,0,0,1,.54.34,1.36,1.36,0,0,1,.33.51,1.76,1.76,0,0,1,.12.66,2,2,0,0,1-.09.61,2.24,2.24,0,0,1-.26.54,2.79,2.79,0,0,1-.39.49c-.15.16-.31.32-.49.48l-1.51,1.37h2.95Z"/>
    <path d="M299.17,29.66H296.7l-.16,2.14h.06a1.61,1.61,0,0,1,.45-.45,1.27,1.27,0,0,1,.7-.17,1.85,1.85,0,0,1,.67.12,1.72,1.72,0,0,1,.53.34,1.48,1.48,0,0,1,.35.55,2.07,2.07,0,0,1,.12.73,2.27,2.27,0,0,1-.12.75,1.66,1.66,0,0,1-1,1,2.24,2.24,0,0,1-.8.14,2.33,2.33,0,0,1-.62-.08,1.51,1.51,0,0,1-.48-.22,2.2,2.2,0,0,1-.37-.3,3.07,3.07,0,0,1-.28-.35l.51-.39a1.73,1.73,0,0,0,.22.31,1.09,1.09,0,0,0,.25.23,1,1,0,0,0,.33.15,1.44,1.44,0,0,0,.44,0,1.19,1.19,0,0,0,.88-.3,1.21,1.21,0,0,0,.3-.87v-.08a1.17,1.17,0,0,0-.3-.86,1.15,1.15,0,0,0-.88-.31,1.11,1.11,0,0,0-.6.14,1.64,1.64,0,0,0-.4.34l-.57-.09.2-3.09h3Z"/>
    <path d="M302.4,34.78a1.6,1.6,0,0,1-1.47-.77,4.12,4.12,0,0,1-.46-2.14,4.15,4.15,0,0,1,.46-2.14,1.8,1.8,0,0,1,2.94,0,4.15,4.15,0,0,1,.46,2.14,4.12,4.12,0,0,1-.46,2.14A1.6,1.6,0,0,1,302.4,34.78Zm0-.6a1.14,1.14,0,0,0,.57-.13,1,1,0,0,0,.37-.39,1.89,1.89,0,0,0,.22-.58,4.35,4.35,0,0,0,.07-.75v-.91a4.16,4.16,0,0,0-.07-.75,2.06,2.06,0,0,0-.22-.59,1,1,0,0,0-.37-.38,1.15,1.15,0,0,0-.57-.14,1.08,1.08,0,0,0-.56.14,1.06,1.06,0,0,0-.38.38,1.8,1.8,0,0,0-.21.59,3.42,3.42,0,0,0-.07.75v.91a3.54,3.54,0,0,0,.07.75,1.66,1.66,0,0,0,.21.58,1,1,0,0,0,.38.39A1.08,1.08,0,0,0,302.4,34.18Z"/>
  </g>
  <g>
    <path d="M320.27,34.68h-3.69V34l1.84-1.69a4.28,4.28,0,0,0,.66-.77,1.47,1.47,0,0,0,.26-.82v-.1a1.12,1.12,0,0,0-.25-.76,1,1,0,0,0-.78-.29,1.17,1.17,0,0,0-.45.08.83.83,0,0,0-.34.2,1,1,0,0,0-.23.3,2,2,0,0,0-.15.37l-.6-.23a1.94,1.94,0,0,1,.22-.49,1.57,1.57,0,0,1,.35-.42,1.53,1.53,0,0,1,.52-.29,1.89,1.89,0,0,1,.71-.11,2.07,2.07,0,0,1,.73.12,1.5,1.5,0,0,1,.54.34,1.36,1.36,0,0,1,.33.51,1.76,1.76,0,0,1,.12.66,2,2,0,0,1-.09.61,2.24,2.24,0,0,1-.26.54,2.79,2.79,0,0,1-.39.49c-.15.16-.31.32-.49.48l-1.51,1.37h2.95Z"/>
    <path d="M323.22,34.78a2.39,2.39,0,0,1-.84-.13,1.64,1.64,0,0,1-.61-.34,1.42,1.42,0,0,1-.37-.51,1.75,1.75,0,0,1-.12-.65,1.27,1.27,0,0,1,.31-.91,1.65,1.65,0,0,1,.82-.48V31.7a1.5,1.5,0,0,1-.7-.5,1.28,1.28,0,0,1-.27-.82,1.26,1.26,0,0,1,.47-1,2,2,0,0,1,1.31-.38,2.07,2.07,0,0,1,1.32.38,1.26,1.26,0,0,1,.46,1,1.34,1.34,0,0,1-.26.82,1.5,1.5,0,0,1-.7.5v.06a1.69,1.69,0,0,1,.82.48,1.27,1.27,0,0,1,.31.91,1.75,1.75,0,0,1-.12.65,1.55,1.55,0,0,1-.37.51,1.72,1.72,0,0,1-.61.34A2.41,2.41,0,0,1,323.22,34.78Zm0-.6a1.37,1.37,0,0,0,.91-.26.88.88,0,0,0,.32-.74V33a.88.88,0,0,0-.32-.74,1.43,1.43,0,0,0-.91-.26,1.45,1.45,0,0,0-.91.26A.9.9,0,0,0,322,33v.17a.9.9,0,0,0,.32.74A1.39,1.39,0,0,0,323.22,34.18Zm0-2.73a1.24,1.24,0,0,0,.81-.23.8.8,0,0,0,.27-.65v-.13a.8.8,0,0,0-.27-.65,1.52,1.52,0,0,0-1.61,0,.8.8,0,0,0-.27.65v.13a.8.8,0,0,0,.27.65A1.23,1.23,0,0,0,323.22,31.45Z"/>
    <path d="M328.05,34.78a1.6,1.6,0,0,1-1.47-.77,4.23,4.23,0,0,1-.46-2.14,4.25,4.25,0,0,1,.46-2.14,1.8,1.8,0,0,1,2.94,0,4.15,4.15,0,0,1,.46,2.14,4.12,4.12,0,0,1-.46,2.14A1.6,1.6,0,0,1,328.05,34.78Zm0-.6a1.14,1.14,0,0,0,.57-.13,1,1,0,0,0,.37-.39,1.89,1.89,0,0,0,.22-.58,4.35,4.35,0,0,0,.07-.75v-.91a4.16,4.16,0,0,0-.07-.75,2.06,2.06,0,0,0-.22-.59,1,1,0,0,0-.37-.38,1.15,1.15,0,0,0-.57-.14,1.11,1.11,0,0,0-.56.14,1.06,1.06,0,0,0-.38.38,1.8,1.8,0,0,0-.21.59,3.42,3.42,0,0,0-.07.75v.91a3.54,3.54,0,0,0,.07.75,1.66,1.66,0,0,0,.21.58,1,1,0,0,0,.38.39A1.1,1.1,0,0,0,328.05,34.18Z"/>
  </g>
</svg>
