<svg id="Camada_1" data-name="Camada 1" xmlns="http://www.w3.org/2000/svg" viewBox="0 0 338.21 57.45"><defs><style>.cls-1{opacity:0.75;}.cls-2{fill:#fff;}.cls-3{fill:#939393;}.cls-4{fill:#a50000;}.cls-5{fill:#830000;}.cls-6{fill:brown;}.cls-7{fill:#0048ab;}.cls-8{fill:#001476;}.cls-9{fill:#00074c;}.cls-10{fill:#0067c6;}.cls-11{fill:#0090d7;}.cls-12{fill:#00a0db;}.cls-13{fill:#00c4e1;}.cls-14{fill:#5ce1ee;}.cls-15{fill:#c0f6ff;}.cls-16{fill:#ffdcde;}.cls-17{fill:#ffb59e;}.cls-18{fill:#ff834b;}.cls-19{fill:#ff4100;}.cls-20{fill:red;}.cls-21{fill:#e30000;}</style></defs><title>LEGENDAS - ESCALA</title><g class="cls-1"><path class="cls-2" d="M0,6.38C0,2.86,3.36,0,7.52,0H330.7c4.15,0,7.51,2.86,7.51,6.38V51.07c0,3.52-3.36,6.38-7.51,6.38H7.52C3.36,57.45,0,54.59,0,51.07Z"/></g><path class="cls-2" d="M171.75,23h-5.47a2,2,0,0,1-2.11-2V10.13a2,2,0,0,1,2.11-2h5.47a2,2,0,0,1,2.11,2V21.06A2,2,0,0,1,171.75,23Z"/><path class="cls-3" d="M171.75,23.27h-5.47a2.29,2.29,0,0,1-2.36-2.21V10.13a2.29,2.29,0,0,1,2.36-2.22h5.47a2.29,2.29,0,0,1,2.36,2.22V21.06A2.29,2.29,0,0,1,171.75,23.27ZM166.28,8.41a1.79,1.79,0,0,0-1.86,1.72V21.06a1.79,1.79,0,0,0,1.86,1.71h5.47a1.8,1.8,0,0,0,1.86-1.71V10.13a1.8,1.8,0,0,0-1.86-1.72Z"/><path class="cls-4" d="M292,23h-5.47a2,2,0,0,1-2.11-2V10.13a2,2,0,0,1,2.11-2H292a2,2,0,0,1,2.11,2V21.06A2,2,0,0,1,292,23Z"/><path class="cls-5" d="M309,23h-5.47a2,2,0,0,1-2.11-2V10.13a2,2,0,0,1,2.11-2H309a2,2,0,0,1,2.11,2V21.06A2,2,0,0,1,309,23Z"/><path class="cls-6" d="M326.1,23h-5.47a2,2,0,0,1-2.11-2V10.13a2,2,0,0,1,2.11-2h5.47a2,2,0,0,1,2.11,2V21.06A2,2,0,0,1,326.1,23Z"/><path class="cls-7" d="M51.84,23H46.38a2,2,0,0,1-2.11-2V10.13a2,2,0,0,1,2.11-2h5.46a2,2,0,0,1,2.11,2V21.06A2,2,0,0,1,51.84,23Z"/><path class="cls-8" d="M34.76,23H29.29a2,2,0,0,1-2.11-2V10.13a2,2,0,0,1,2.11-2h5.47a2,2,0,0,1,2.11,2V21.06A2,2,0,0,1,34.76,23Z"/><path class="cls-9" d="M17.6,23H12.13a2,2,0,0,1-2.11-2V10.13a2,2,0,0,1,2.11-2H17.6a2,2,0,0,1,2.1,2V21.06A2,2,0,0,1,17.6,23Z"/><path class="cls-10" d="M68.93,23H63.47a2,2,0,0,1-2.11-2V10.13a2,2,0,0,1,2.11-2h5.46a2,2,0,0,1,2.11,2V21.06A2,2,0,0,1,68.93,23Z"/><path class="cls-11" d="M86,23H80.55a2,2,0,0,1-2.1-2V10.13a2,2,0,0,1,2.1-2H86a2,2,0,0,1,2.11,2V21.06A2,2,0,0,1,86,23Z"/><path class="cls-12" d="M103.1,23H97.63a2,2,0,0,1-2.1-2V10.13a2,2,0,0,1,2.1-2h5.47a2,2,0,0,1,2.11,2V21.06A2,2,0,0,1,103.1,23Z"/><path class="cls-13" d="M120.19,23h-5.47a2,2,0,0,1-2.11-2V10.13a2,2,0,0,1,2.11-2h5.47a2,2,0,0,1,2.11,2V21.06A2,2,0,0,1,120.19,23Z"/><path class="cls-14" d="M137.35,23h-5.47a2,2,0,0,1-2.11-2V10.13a2,2,0,0,1,2.11-2h5.47a2,2,0,0,1,2.11,2V21.06A2,2,0,0,1,137.35,23Z"/><path class="cls-15" d="M154.51,23H149a2,2,0,0,1-2.1-2V10.13a2,2,0,0,1,2.1-2h5.47a2,2,0,0,1,2.11,2V21.06A2,2,0,0,1,154.51,23Z"/><path class="cls-16" d="M188.91,23h-5.47a2,2,0,0,1-2.11-2V10.13a2,2,0,0,1,2.11-2h5.47a2,2,0,0,1,2.11,2V21.06A2,2,0,0,1,188.91,23Z"/><path class="cls-17" d="M206.07,23H200.6a2,2,0,0,1-2.11-2V10.13a2,2,0,0,1,2.11-2h5.47a2,2,0,0,1,2.11,2V21.06A2,2,0,0,1,206.07,23Z"/><path class="cls-18" d="M223.32,23h-5.47a2,2,0,0,1-2.11-2V10.13a2,2,0,0,1,2.11-2h5.47a2,2,0,0,1,2.11,2V21.06A2,2,0,0,1,223.32,23Z"/><path class="cls-19" d="M240.48,23H235a2,2,0,0,1-2.11-2V10.13a2,2,0,0,1,2.11-2h5.47a2,2,0,0,1,2.11,2V21.06A2,2,0,0,1,240.48,23Z"/><path class="cls-20" d="M257.64,23h-5.47a2,2,0,0,1-2.11-2V10.13a2,2,0,0,1,2.11-2h5.47a2,2,0,0,1,2.11,2V21.06A2,2,0,0,1,257.64,23Z"/><path class="cls-21" d="M274.8,23h-5.47a2,2,0,0,1-2.11-2V10.13a2,2,0,0,1,2.11-2h5.47a2,2,0,0,1,2.11,2V21.06A2,2,0,0,1,274.8,23Z"/><path d="M10,35.26V34H6.78v-.71l2.77-4.62h1.19v4.66h1V34h-1v1.3Zm-2.45-2H10v-4H9.93Z"/><path d="M15,35.37a3.31,3.31,0,0,1-1-.14,2.09,2.09,0,0,1-.72-.41,1.68,1.68,0,0,1-.44-.61,2.06,2.06,0,0,1-.14-.76A1.52,1.52,0,0,1,13,32.37a2,2,0,0,1,1-.56v-.08a1.67,1.67,0,0,1-.83-.58,1.52,1.52,0,0,1-.31-1A1.5,1.5,0,0,1,13.42,29,2.39,2.39,0,0,1,15,28.51a2.36,2.36,0,0,1,1.54.45,1.51,1.51,0,0,1,.56,1.22,1.58,1.58,0,0,1-.31,1,1.77,1.77,0,0,1-.83.58v.08a2,2,0,0,1,1,.56,1.53,1.53,0,0,1,.38,1.08,1.87,1.87,0,0,1-.15.76,1.68,1.68,0,0,1-.44.61,2.09,2.09,0,0,1-.72.41A3.24,3.24,0,0,1,15,35.37Zm0-.7A1.63,1.63,0,0,0,16,34.36a1.05,1.05,0,0,0,.38-.87v-.2a1.09,1.09,0,0,0-.38-.88A1.68,1.68,0,0,0,15,32.1a1.71,1.71,0,0,0-1.08.31,1.09,1.09,0,0,0-.38.88v.2a1.05,1.05,0,0,0,.38.87A1.65,1.65,0,0,0,15,34.67Zm0-3.23a1.47,1.47,0,0,0,.95-.27.94.94,0,0,0,.32-.77v-.14a1,1,0,0,0-.32-.78,1.47,1.47,0,0,0-.95-.26,1.44,1.44,0,0,0-1,.26,1,1,0,0,0-.33.78v.14a.92.92,0,0,0,.33.77A1.44,1.44,0,0,0,15,31.44Z"/><path d="M20.67,35.37a1.89,1.89,0,0,1-1.74-.9,4.93,4.93,0,0,1-.54-2.53,4.91,4.91,0,0,1,.54-2.52,1.87,1.87,0,0,1,1.74-.91,1.86,1.86,0,0,1,1.73.91A4.91,4.91,0,0,1,23,31.94a4.92,4.92,0,0,1-.55,2.53A1.87,1.87,0,0,1,20.67,35.37Zm0-.7a1.24,1.24,0,0,0,.66-.16,1.32,1.32,0,0,0,.45-.46,2.15,2.15,0,0,0,.25-.69,4.71,4.71,0,0,0,.08-.88V31.4a4.79,4.79,0,0,0-.08-.88,2.35,2.35,0,0,0-.25-.69,1.38,1.38,0,0,0-.45-.45,1.24,1.24,0,0,0-.66-.16,1.28,1.28,0,0,0-.67.16,1.38,1.38,0,0,0-.45.45,2.67,2.67,0,0,0-.25.69,4.79,4.79,0,0,0-.08.88v1.08a4.71,4.71,0,0,0,.08.88,2.42,2.42,0,0,0,.25.69,1.32,1.32,0,0,0,.45.46A1.28,1.28,0,0,0,20.67,34.67Z"/><path d="M35.68,35.26V34h-3.2v-.71l2.77-4.62h1.19v4.66h1V34h-1v1.3Zm-2.45-2h2.45v-4h0Z"/><path d="M42.88,31.06a4.22,4.22,0,0,1-.22,1.39,5,5,0,0,1-.56,1.19,5.6,5.6,0,0,1-.77,1,5.72,5.72,0,0,1-.81.67h-1a11.69,11.69,0,0,0,.95-.76,5.82,5.82,0,0,0,.73-.77,4.53,4.53,0,0,0,.53-.86,5.08,5.08,0,0,0,.36-1l-.05,0a2.21,2.21,0,0,1-.61.68,1.66,1.66,0,0,1-1,.27,2.26,2.26,0,0,1-.79-.14,1.73,1.73,0,0,1-.61-.41,2,2,0,0,1-.41-.64,2.35,2.35,0,0,1-.14-.86,2.56,2.56,0,0,1,.15-.89,1.92,1.92,0,0,1,.45-.69,1.8,1.8,0,0,1,.69-.45,2.38,2.38,0,0,1,.91-.17,2.34,2.34,0,0,1,.93.18,2,2,0,0,1,.7.5,2.25,2.25,0,0,1,.44.81A3.48,3.48,0,0,1,42.88,31.06Zm-2.21,1a1.35,1.35,0,0,0,1-.37,1.39,1.39,0,0,0,.37-1v-.08a1.45,1.45,0,0,0-2.41-1,1.35,1.35,0,0,0-.37,1v.08a1.28,1.28,0,0,0,1.39,1.4Z"/><path d="M48.58,35.26H44.23v-.82l2.17-2a5,5,0,0,0,.78-.91,1.85,1.85,0,0,0,.31-1v-.11a1.32,1.32,0,0,0-.3-.9,1.18,1.18,0,0,0-.93-.34,1.69,1.69,0,0,0-.53.08,1.28,1.28,0,0,0-.39.24,1.25,1.25,0,0,0-.28.36,1.92,1.92,0,0,0-.17.44l-.72-.28a2.69,2.69,0,0,1,.27-.57,2.19,2.19,0,0,1,.41-.5,2.12,2.12,0,0,1,.61-.35,2.65,2.65,0,0,1,.84-.13,2.41,2.41,0,0,1,.87.15,1.68,1.68,0,0,1,.63.39,1.9,1.9,0,0,1,.4.61,2.2,2.2,0,0,1,.13.78,2.37,2.37,0,0,1-.1.72,3.64,3.64,0,0,1-.3.63,4.1,4.1,0,0,1-.46.59c-.19.19-.38.38-.59.57L45.1,34.56h3.48Z"/><path d="M70.84,29.33H67.93l-.19,2.53h.07a2.08,2.08,0,0,1,.54-.53,1.4,1.4,0,0,1,.82-.2,2.05,2.05,0,0,1,.79.14,1.74,1.74,0,0,1,.62.4,1.87,1.87,0,0,1,.42.64,2.41,2.41,0,0,1,.14.87,2.56,2.56,0,0,1-.15.89,1.9,1.9,0,0,1-.44.69,2.11,2.11,0,0,1-.7.45,2.54,2.54,0,0,1-.94.16,2.65,2.65,0,0,1-.73-.09,2.13,2.13,0,0,1-.57-.25,2.56,2.56,0,0,1-.43-.36,2.72,2.72,0,0,1-.34-.42l.6-.45a3.32,3.32,0,0,0,.26.36,1.53,1.53,0,0,0,.3.27,1.27,1.27,0,0,0,.39.18,2,2,0,0,0,.52.06,1.4,1.4,0,0,0,1-.36,1.42,1.42,0,0,0,.35-1v-.1a1.42,1.42,0,0,0-.35-1,1.4,1.4,0,0,0-1-.36,1.37,1.37,0,0,0-.72.17,2.5,2.5,0,0,0-.47.39l-.67-.09.24-3.65h3.55Z"/><path d="M72.64,35.26v-.7H74.5V29.22h-.07l-1.67,1.55-.47-.5,1.76-1.64H75.3v5.93H77v.7Z"/><path d="M80.36,35.37a1.9,1.9,0,0,1-1.74-.9,4.93,4.93,0,0,1-.54-2.53,4.91,4.91,0,0,1,.54-2.52,1.88,1.88,0,0,1,1.74-.91,1.86,1.86,0,0,1,1.73.91,4.81,4.81,0,0,1,.55,2.52,4.82,4.82,0,0,1-.55,2.53A1.87,1.87,0,0,1,80.36,35.37Zm0-.7a1.24,1.24,0,0,0,.66-.16,1.17,1.17,0,0,0,.45-.46,2.15,2.15,0,0,0,.25-.69,4,4,0,0,0,.08-.88V31.4a4.06,4.06,0,0,0-.08-.88,2.35,2.35,0,0,0-.25-.69,1.21,1.21,0,0,0-.45-.45,1.24,1.24,0,0,0-.66-.16,1.3,1.3,0,0,0-.67.16,1.27,1.27,0,0,0-.44.45,2.1,2.1,0,0,0-.25.69,4,4,0,0,0-.09.88v1.08a4,4,0,0,0,.09.88,1.94,1.94,0,0,0,.25.69,1.22,1.22,0,0,0,.44.46A1.3,1.3,0,0,0,80.36,34.67Z"/><path d="M139.45,29.33h-2.91l-.19,2.53h.07a1.91,1.91,0,0,1,.53-.53,1.4,1.4,0,0,1,.82-.2,2,2,0,0,1,.79.14,1.88,1.88,0,0,1,.63.4,1.85,1.85,0,0,1,.41.64,2.41,2.41,0,0,1,.15.87,2.56,2.56,0,0,1-.15.89,1.9,1.9,0,0,1-.44.69,2.15,2.15,0,0,1-.71.45,2.45,2.45,0,0,1-.93.16,2.73,2.73,0,0,1-.74-.09,2.21,2.21,0,0,1-.56-.25,2.65,2.65,0,0,1-.44-.36,3.39,3.39,0,0,1-.33-.42l.59-.45a3.38,3.38,0,0,0,.27.36,1.53,1.53,0,0,0,.3.27,1.21,1.21,0,0,0,.38.18,2,2,0,0,0,.53.06,1.24,1.24,0,0,0,1.38-1.38v-.1a1.24,1.24,0,0,0-1.38-1.38,1.32,1.32,0,0,0-.72.17,2.5,2.5,0,0,0-.47.39l-.68-.09.24-3.65h3.56Z"/><path d="M144,35.26V34h-3.2v-.71l2.77-4.62h1.19v4.66h1V34h-1v1.3Zm-2.45-2H144v-4h0Z"/><path d="M149,35.37a2.43,2.43,0,0,1-.92-.17,2,2,0,0,1-.71-.51,2.21,2.21,0,0,1-.44-.8,3.53,3.53,0,0,1-.15-1.06,4.28,4.28,0,0,1,.22-1.4,5.13,5.13,0,0,1,.56-1.18,5.69,5.69,0,0,1,.77-.95,4.74,4.74,0,0,1,.82-.67h1c-.35.26-.67.51-.95.76a5.26,5.26,0,0,0-.73.77,4.24,4.24,0,0,0-.53.86,4.88,4.88,0,0,0-.35,1l0,0a2.13,2.13,0,0,1,.62-.68,1.65,1.65,0,0,1,1-.27,2,2,0,0,1,.79.14,1.64,1.64,0,0,1,.62.41,1.93,1.93,0,0,1,.4.65,2.24,2.24,0,0,1,.15.84,2.31,2.31,0,0,1-.16.89,1.84,1.84,0,0,1-.45.7,2.06,2.06,0,0,1-.69.45A2.45,2.45,0,0,1,149,35.37Zm0-.7a1.27,1.27,0,0,0,1.39-1.4V33.2A1.27,1.27,0,0,0,149,31.8a1.26,1.26,0,0,0-1.38,1.4v.07a1.26,1.26,0,0,0,1.38,1.4Z"/><path d="M105.09,29.33h-2.91L102,31.86h.07a1.91,1.91,0,0,1,.53-.53,1.42,1.42,0,0,1,.82-.2,2,2,0,0,1,.79.14,1.88,1.88,0,0,1,.63.4,1.72,1.72,0,0,1,.41.64,2.41,2.41,0,0,1,.15.87,2.56,2.56,0,0,1-.15.89,1.9,1.9,0,0,1-.44.69,2.15,2.15,0,0,1-.71.45,2.45,2.45,0,0,1-.93.16,2.73,2.73,0,0,1-.74-.09,2.21,2.21,0,0,1-.56-.25,2.65,2.65,0,0,1-.44-.36,3.39,3.39,0,0,1-.33-.42l.6-.45a3.32,3.32,0,0,0,.26.36,1.53,1.53,0,0,0,.3.27,1.17,1.17,0,0,0,.39.18,2,2,0,0,0,.52.06,1.25,1.25,0,0,0,1.39-1.38v-.1a1.25,1.25,0,0,0-1.39-1.38,1.32,1.32,0,0,0-.72.17,2.5,2.5,0,0,0-.47.39l-.67-.09.23-3.65h3.56Z"/><path d="M111.12,35.26h-4.35v-.82l2.16-2a5,5,0,0,0,.78-.91,1.78,1.78,0,0,0,.32-1v-.11a1.33,1.33,0,0,0-.31-.9,1.16,1.16,0,0,0-.92-.34,1.69,1.69,0,0,0-.53.08,1.47,1.47,0,0,0-.4.24,1.22,1.22,0,0,0-.27.36,2.53,2.53,0,0,0-.18.44l-.71-.28a2.64,2.64,0,0,1,.26-.57,2,2,0,0,1,.42-.5,2.12,2.12,0,0,1,.61-.35,2.65,2.65,0,0,1,.84-.13,2.31,2.31,0,0,1,.86.15,1.65,1.65,0,0,1,.64.39,1.87,1.87,0,0,1,.39.61,2,2,0,0,1,.14.78,2.09,2.09,0,0,1-.11.72,2.6,2.6,0,0,1-.3.63,3.5,3.5,0,0,1-.46.59c-.18.19-.37.38-.58.57l-1.79,1.61h3.49Z"/><path d="M116.82,35.26h-4.35v-.82l2.16-2a5,5,0,0,0,.78-.91,1.78,1.78,0,0,0,.32-1v-.11a1.33,1.33,0,0,0-.31-.9,1.16,1.16,0,0,0-.92-.34,1.69,1.69,0,0,0-.53.08,1.47,1.47,0,0,0-.4.24,1.22,1.22,0,0,0-.27.36,2.53,2.53,0,0,0-.18.44l-.71-.28a2.64,2.64,0,0,1,.26-.57,2,2,0,0,1,.42-.5,2.12,2.12,0,0,1,.61-.35,2.65,2.65,0,0,1,.84-.13,2.31,2.31,0,0,1,.86.15,1.65,1.65,0,0,1,.64.39,1.87,1.87,0,0,1,.39.61,2,2,0,0,1,.14.78,2.36,2.36,0,0,1-.11.72,2.6,2.6,0,0,1-.3.63,3.5,3.5,0,0,1-.46.59c-.18.19-.37.38-.58.57l-1.79,1.61h3.49Z"/><path d="M165.1,29.33h-2.9L162,31.86h.06a2.08,2.08,0,0,1,.54-.53,1.4,1.4,0,0,1,.82-.2,2,2,0,0,1,.79.14,1.88,1.88,0,0,1,.63.4,2,2,0,0,1,.41.64,2.41,2.41,0,0,1,.15.87,2.56,2.56,0,0,1-.15.89,1.92,1.92,0,0,1-.45.69,2,2,0,0,1-.7.45,2.49,2.49,0,0,1-.93.16,2.73,2.73,0,0,1-.74-.09,2.46,2.46,0,0,1-.57-.25,2.56,2.56,0,0,1-.43-.36,3.47,3.47,0,0,1-.34-.42l.6-.45a3.32,3.32,0,0,0,.26.36,1.93,1.93,0,0,0,.31.27,1.21,1.21,0,0,0,.38.18,2,2,0,0,0,.53.06,1.37,1.37,0,0,0,1-.36,1.42,1.42,0,0,0,.35-1v-.1a1.42,1.42,0,0,0-.35-1,1.37,1.37,0,0,0-1-.36,1.32,1.32,0,0,0-.72.17,2.22,2.22,0,0,0-.47.39l-.68-.09.24-3.65h3.55Z"/><path d="M170.8,29.33h-2.9l-.19,2.53h.06a2.08,2.08,0,0,1,.54-.53,1.4,1.4,0,0,1,.82-.2,2,2,0,0,1,.79.14,1.88,1.88,0,0,1,.63.4,2,2,0,0,1,.41.64,2.41,2.41,0,0,1,.15.87,2.35,2.35,0,0,1-.16.89,1.78,1.78,0,0,1-.44.69,2,2,0,0,1-.7.45,2.54,2.54,0,0,1-.94.16,2.7,2.7,0,0,1-.73-.09,2.46,2.46,0,0,1-.57-.25,2.56,2.56,0,0,1-.43-.36,3.47,3.47,0,0,1-.34-.42l.6-.45a3.32,3.32,0,0,0,.26.36,1.93,1.93,0,0,0,.31.27,1.21,1.21,0,0,0,.38.18,2,2,0,0,0,.52.06,1.38,1.38,0,0,0,1-.36,1.42,1.42,0,0,0,.35-1v-.1a1.42,1.42,0,0,0-.35-1,1.38,1.38,0,0,0-1-.36,1.31,1.31,0,0,0-.71.17,2.22,2.22,0,0,0-.47.39l-.68-.09.24-3.65h3.55Z"/><path d="M174.62,35.37a3.35,3.35,0,0,1-1-.14,2.14,2.14,0,0,1-.71-.41,1.57,1.57,0,0,1-.44-.61,1.87,1.87,0,0,1-.15-.76,1.57,1.57,0,0,1,.37-1.08,2,2,0,0,1,1-.56v-.08a1.72,1.72,0,0,1-.83-.58,1.58,1.58,0,0,1-.31-1,1.53,1.53,0,0,1,.55-1.22,2.89,2.89,0,0,1,3.1,0,1.5,1.5,0,0,1,.55,1.22,1.52,1.52,0,0,1-.31,1,1.67,1.67,0,0,1-.83.58v.08a2,2,0,0,1,1,.56,1.52,1.52,0,0,1,.37,1.08,1.87,1.87,0,0,1-.15.76,1.54,1.54,0,0,1-.43.61,2.3,2.3,0,0,1-.72.41A3.35,3.35,0,0,1,174.62,35.37Zm0-.7a1.67,1.67,0,0,0,1.08-.31,1.05,1.05,0,0,0,.38-.87v-.2a1.09,1.09,0,0,0-.38-.88,1.73,1.73,0,0,0-1.08-.31,1.68,1.68,0,0,0-1.07.31,1.06,1.06,0,0,0-.38.88v.2a1,1,0,0,0,.38.87A1.63,1.63,0,0,0,174.62,34.67Zm0-3.23a1.44,1.44,0,0,0,.95-.27.91.91,0,0,0,.32-.77v-.14a.94.94,0,0,0-.32-.78,1.44,1.44,0,0,0-.95-.26,1.45,1.45,0,0,0-1,.26,1,1,0,0,0-.32.78v.14a.94.94,0,0,0,.32.77A1.45,1.45,0,0,0,174.62,31.44Z"/><path d="M130.14,48.9h0a1.28,1.28,0,0,1-.6.77,2.21,2.21,0,0,1-1.24.31,2.69,2.69,0,0,1-1.11-.23,2.22,2.22,0,0,1-.87-.65,3.3,3.3,0,0,1-.57-1.07,5.54,5.54,0,0,1,0-3,2.88,2.88,0,0,1,.57-1.07,2.33,2.33,0,0,1,.89-.66,2.89,2.89,0,0,1,1.16-.23,2.5,2.5,0,0,1,2.41,1.44l-.65.4a1.92,1.92,0,0,0-.68-.83,1.83,1.83,0,0,0-1.08-.31,2.08,2.08,0,0,0-.8.16,1.71,1.71,0,0,0-.62.44,2,2,0,0,0-.41.69,2.77,2.77,0,0,0-.14.89v1.08a2.83,2.83,0,0,0,.14.9,2,2,0,0,0,.41.69,1.73,1.73,0,0,0,.64.45,2.3,2.3,0,0,0,.85.16,2,2,0,0,0,.65-.1,1.66,1.66,0,0,0,.55-.27,1.33,1.33,0,0,0,.36-.45,1.44,1.44,0,0,0,.14-.64v-.66h-1.47v-.71h2.24v3.41h-.74Z"/><path d="M134.22,50a2.21,2.21,0,0,1-.91-.18,2,2,0,0,1-.69-.52,2.27,2.27,0,0,1-.45-.81,3.42,3.42,0,0,1-.16-1.06,3.5,3.5,0,0,1,.16-1,2.27,2.27,0,0,1,.45-.81,1.86,1.86,0,0,1,.69-.52,2.21,2.21,0,0,1,.91-.18,2.07,2.07,0,0,1,.88.18,1.93,1.93,0,0,1,.67.5,2.28,2.28,0,0,1,.42.75,2.91,2.91,0,0,1,.15.95v.36h-3.53v.23a1.87,1.87,0,0,0,.1.59,1.42,1.42,0,0,0,.29.47,1.34,1.34,0,0,0,.45.31,1.52,1.52,0,0,0,.62.11,1.45,1.45,0,0,0,.81-.22,1.43,1.43,0,0,0,.54-.62l.54.39a2,2,0,0,1-.74.82A2.23,2.23,0,0,1,134.22,50Zm0-4.5a1.48,1.48,0,0,0-.57.11,1.4,1.4,0,0,0-.44.31,1.33,1.33,0,0,0-.29.47,1.59,1.59,0,0,0-.11.59V47h2.71v-.1a1.48,1.48,0,0,0-.36-1A1.21,1.21,0,0,0,134.22,45.48Z"/><path d="M139.44,50a2.19,2.19,0,0,1-.9-.18,2.1,2.1,0,0,1-.7-.52,2.43,2.43,0,0,1-.45-.81,3.15,3.15,0,0,1-.16-1.06,3.21,3.21,0,0,1,.16-1,2.43,2.43,0,0,1,.45-.81,2,2,0,0,1,.7-.52,2.34,2.34,0,0,1,1.8,0,2,2,0,0,1,.7.52,2.29,2.29,0,0,1,.46.81,3.5,3.5,0,0,1,.16,1,3.42,3.42,0,0,1-.16,1.06,2.29,2.29,0,0,1-.46.81,2.1,2.1,0,0,1-.7.52A2.19,2.19,0,0,1,139.44,50Zm0-.68a1.35,1.35,0,0,0,1-.38,1.55,1.55,0,0,0,.39-1.16v-.7a1.56,1.56,0,0,0-.39-1.16,1.52,1.52,0,0,0-2,0,1.56,1.56,0,0,0-.39,1.16v.7a1.55,1.55,0,0,0,.39,1.16A1.34,1.34,0,0,0,139.44,49.3Z"/><path d="M142.91,45h.76v.79h0a1.4,1.4,0,0,1,.55-.68,1.67,1.67,0,0,1,.88-.22A1.87,1.87,0,0,1,146,45a1.73,1.73,0,0,1,.63.51,2.2,2.2,0,0,1,.4.81,4.12,4.12,0,0,1,0,2.13,2.36,2.36,0,0,1-.4.81,1.73,1.73,0,0,1-.63.51,1.87,1.87,0,0,1-.83.18,1.48,1.48,0,0,1-1.43-.9h0v2.68h-.76Zm2,4.34a1.3,1.3,0,0,0,1-.4,1.52,1.52,0,0,0,.37-1.07V47a1.49,1.49,0,0,0-.37-1.06,1.31,1.31,0,0,0-1-.41,1.85,1.85,0,0,0-.48.07,1.56,1.56,0,0,0-.41.2,1,1,0,0,0-.27.3.72.72,0,0,0-.1.38V48.3a.88.88,0,0,0,.1.43A1,1,0,0,0,144,49a1.31,1.31,0,0,0,.41.2A1.86,1.86,0,0,0,144.93,49.3Z"/><path d="M150.27,50a2.19,2.19,0,0,1-.9-.18,2.1,2.1,0,0,1-.7-.52,2.43,2.43,0,0,1-.45-.81,3.15,3.15,0,0,1-.16-1.06,3.21,3.21,0,0,1,.16-1,2.43,2.43,0,0,1,.45-.81,2,2,0,0,1,.7-.52,2.34,2.34,0,0,1,1.8,0,2,2,0,0,1,.7.52,2.29,2.29,0,0,1,.46.81,3.5,3.5,0,0,1,.16,1,3.42,3.42,0,0,1-.16,1.06,2.29,2.29,0,0,1-.46.81,2.1,2.1,0,0,1-.7.52A2.19,2.19,0,0,1,150.27,50Zm0-.68a1.36,1.36,0,0,0,1-.38,1.55,1.55,0,0,0,.39-1.16v-.7a1.56,1.56,0,0,0-.39-1.16,1.41,1.41,0,0,0-1-.38,1.38,1.38,0,0,0-1,.38,1.56,1.56,0,0,0-.39,1.16v.7a1.55,1.55,0,0,0,.39,1.16A1.34,1.34,0,0,0,150.27,49.3Z"/><path d="M154.82,49.86a.78.78,0,0,1-.6-.22.8.8,0,0,1-.2-.58V45.64h-.81V45h.45a.43.43,0,0,0,.34-.1.5.5,0,0,0,.09-.34V43.6h.69V45h1.07v.68h-1.07v3.55h1v.67Z"/><path d="M158.88,50a2.21,2.21,0,0,1-.91-.18,2,2,0,0,1-.69-.52,2.43,2.43,0,0,1-.45-.81,3.43,3.43,0,0,1-.15-1.06,3.51,3.51,0,0,1,.15-1,2.43,2.43,0,0,1,.45-.81A1.86,1.86,0,0,1,158,45a2.21,2.21,0,0,1,.91-.18,2.07,2.07,0,0,1,.88.18,1.93,1.93,0,0,1,.67.5,2.28,2.28,0,0,1,.42.75,2.91,2.91,0,0,1,.15.95v.36h-3.53v.23a1.87,1.87,0,0,0,.1.59,1.61,1.61,0,0,0,.29.47,1.34,1.34,0,0,0,.45.31,1.56,1.56,0,0,0,.62.11,1.45,1.45,0,0,0,.81-.22,1.43,1.43,0,0,0,.54-.62l.54.39a2,2,0,0,1-.74.82A2.23,2.23,0,0,1,158.88,50Zm0-4.5a1.48,1.48,0,0,0-.57.11,1.4,1.4,0,0,0-.44.31,1.33,1.33,0,0,0-.29.47,1.59,1.59,0,0,0-.11.59V47h2.71v-.1a1.52,1.52,0,0,0-.35-1A1.24,1.24,0,0,0,158.88,45.48Z"/><path d="M162.25,49.86V45H163v.79h0a1.68,1.68,0,0,1,.51-.66,1.46,1.46,0,0,1,.88-.24,1.54,1.54,0,0,1,1.2.49,2,2,0,0,1,.44,1.38v3.14h-.76v-3c0-.89-.37-1.33-1.11-1.33a1.61,1.61,0,0,0-.44.06,1.25,1.25,0,0,0-.39.17.81.81,0,0,0-.37.71v3.4Z"/><path d="M169.47,50a2.25,2.25,0,0,1-.92-.18,1.94,1.94,0,0,1-.69-.51,2.61,2.61,0,0,1-.43-.81,4.12,4.12,0,0,1,0-2.13,2.4,2.4,0,0,1,.43-.81,1.94,1.94,0,0,1,.69-.51,2.25,2.25,0,0,1,.92-.18,1.94,1.94,0,0,1,1.18.32,2,2,0,0,1,.66.83l-.64.32a1.2,1.2,0,0,0-.44-.59,1.29,1.29,0,0,0-.76-.21,1.57,1.57,0,0,0-.6.11,1.21,1.21,0,0,0-.42.31,1.23,1.23,0,0,0-.26.46,1.89,1.89,0,0,0-.09.6v.83a1.59,1.59,0,0,0,.35,1.06,1.24,1.24,0,0,0,1,.41,1.37,1.37,0,0,0,1.33-.85l.55.37a2,2,0,0,1-.7.85A2.18,2.18,0,0,1,169.47,50Z"/><path d="M172.81,43.81a.46.46,0,0,1-.36-.12.42.42,0,0,1-.11-.3v-.13a.45.45,0,0,1,.11-.31.46.46,0,0,1,.36-.12.45.45,0,0,1,.35.12.41.41,0,0,1,.11.31v.13a.39.39,0,0,1-.11.3A.45.45,0,0,1,172.81,43.81ZM172.43,45h.76v4.9h-.76Z"/><path d="M178.36,49.86a.75.75,0,0,1-.61-.22,1.21,1.21,0,0,1-.23-.57h-.05a1.26,1.26,0,0,1-.53.68,1.67,1.67,0,0,1-.88.23,1.73,1.73,0,0,1-1.22-.4,1.44,1.44,0,0,1-.43-1.08,1.24,1.24,0,0,1,.51-1.07,2.77,2.77,0,0,1,1.58-.37h1v-.48a1.05,1.05,0,0,0-.28-.8,1.25,1.25,0,0,0-.88-.28,1.32,1.32,0,0,0-.74.2,1.63,1.63,0,0,0-.5.54l-.46-.43a1.8,1.8,0,0,1,.64-.68,2,2,0,0,1,1.1-.28,2,2,0,0,1,1.39.43,1.55,1.55,0,0,1,.49,1.22v2.69h.56v.67Zm-2.18-.53a2.12,2.12,0,0,0,.52-.06,1.42,1.42,0,0,0,.41-.19,1.23,1.23,0,0,0,.27-.29.7.7,0,0,0,.09-.35v-.81h-1a1.91,1.91,0,0,0-1,.19.62.62,0,0,0-.3.55v.2a.67.67,0,0,0,.26.56A1.11,1.11,0,0,0,176.18,49.33Z"/><path d="M180.68,49.86a.76.76,0,0,1-.6-.22.79.79,0,0,1-.21-.56V42.83h.76v6.36h.73v.67Z"/><path d="M184.68,46.9a6.28,6.28,0,0,1,.14-1.32,6,6,0,0,1,.36-1.18,5.61,5.61,0,0,1,.55-1,4.55,4.55,0,0,1,.67-.76h.72a5.1,5.1,0,0,0-.71.82,4.88,4.88,0,0,0-.54,1,5.63,5.63,0,0,0-.35,1,4.6,4.6,0,0,0-.13,1v.82a4.69,4.69,0,0,0,.13,1,5.63,5.63,0,0,0,.35,1,5.49,5.49,0,0,0,.55,1,4.51,4.51,0,0,0,.7.8h-.72a4.11,4.11,0,0,1-.66-.75,5.51,5.51,0,0,1-.55-1,7.19,7.19,0,0,1-.37-1.19A6.55,6.55,0,0,1,184.68,46.9Z"/><path d="M192.11,50.41a1.19,1.19,0,0,1-.59,1.11,3.51,3.51,0,0,1-1.78.36,3.4,3.4,0,0,1-1.66-.31,1,1,0,0,1-.5-.9.88.88,0,0,1,.21-.62,1.23,1.23,0,0,1,.57-.33v-.1a.71.71,0,0,1-.44-.68.67.67,0,0,1,.24-.56,1.51,1.51,0,0,1,.61-.29v0a1.59,1.59,0,0,1-.68-.6,1.69,1.69,0,0,1-.24-.91,1.72,1.72,0,0,1,.13-.68,1.58,1.58,0,0,1,.37-.54,1.8,1.8,0,0,1,.58-.35,2.29,2.29,0,0,1,.76-.12,2.12,2.12,0,0,1,.93.19V45a.77.77,0,0,1,.13-.47.5.5,0,0,1,.44-.19h.73V45H191v.32a1.55,1.55,0,0,1,.41.54,1.85,1.85,0,0,1,0,1.41,1.6,1.6,0,0,1-.38.54,1.76,1.76,0,0,1-.58.35,2.29,2.29,0,0,1-.76.12,2.61,2.61,0,0,1-.48-.05,1.6,1.6,0,0,0-.44.2.38.38,0,0,0-.2.35.29.29,0,0,0,.21.3,1.61,1.61,0,0,0,.54.07h1a2.08,2.08,0,0,1,1.33.35A1.19,1.19,0,0,1,192.11,50.41Zm-.71.05a.58.58,0,0,0-.23-.47,1.36,1.36,0,0,0-.79-.17h-1.63a.69.69,0,0,0-.46.66.72.72,0,0,0,.24.55,1.23,1.23,0,0,0,.83.23h.7a2.09,2.09,0,0,0,1-.2A.65.65,0,0,0,191.4,50.46Zm-1.7-2.83a1.22,1.22,0,0,0,.77-.23.89.89,0,0,0,.28-.72v-.27a.89.89,0,0,0-.28-.72,1.16,1.16,0,0,0-.77-.23,1.14,1.14,0,0,0-.77.23.89.89,0,0,0-.29.72v.27a.89.89,0,0,0,.29.72A1.2,1.2,0,0,0,189.7,47.63Z"/><path d="M193,45h.76v.79h0a1.37,1.37,0,0,1,.56-.68,1.62,1.62,0,0,1,.88-.22,1.83,1.83,0,0,1,.82.18,1.73,1.73,0,0,1,.63.51,2.2,2.2,0,0,1,.4.81,4.12,4.12,0,0,1,0,2.13,2.36,2.36,0,0,1-.4.81,1.73,1.73,0,0,1-.63.51,1.83,1.83,0,0,1-.82.18,1.49,1.49,0,0,1-1.44-.9h0v2.68H193Zm2,4.34a1.28,1.28,0,0,0,1-.4,1.52,1.52,0,0,0,.37-1.07V47a1.49,1.49,0,0,0-.37-1.06,1.29,1.29,0,0,0-1-.41,1.93,1.93,0,0,0-.49.07,1.56,1.56,0,0,0-.41.2,1,1,0,0,0-.27.3.83.83,0,0,0-.1.38V48.3a.88.88,0,0,0,.37.74,1.31,1.31,0,0,0,.41.2A1.93,1.93,0,0,0,195,49.3Z"/><path d="M198.5,49.86V45h.76v.79h0a2.43,2.43,0,0,1,.2-.35,1.2,1.2,0,0,1,.26-.29,1.38,1.38,0,0,1,.86-.26,1.75,1.75,0,0,1,.9.23,1.38,1.38,0,0,1,.6.76h0a1.55,1.55,0,0,1,.5-.7,1.58,1.58,0,0,1,1-.29,1.47,1.47,0,0,1,1.18.49,2.05,2.05,0,0,1,.42,1.38v3.14h-.76v-3a1.6,1.6,0,0,0-.26-1,.94.94,0,0,0-.81-.34,1.56,1.56,0,0,0-.44.06,1.19,1.19,0,0,0-.36.17.91.91,0,0,0-.26.29.93.93,0,0,0-.09.42v3.4h-.76v-3a1.6,1.6,0,0,0-.26-1,.93.93,0,0,0-.8-.34,1.49,1.49,0,0,0-.43.06,1.19,1.19,0,0,0-.38.17,1,1,0,0,0-.26.29.93.93,0,0,0-.1.42v3.4Z"/><path d="M208.38,46.9a6.55,6.55,0,0,1-.13,1.34,7.2,7.2,0,0,1-.38,1.19,4.93,4.93,0,0,1-.54,1,3.8,3.8,0,0,1-.67.75h-.72a4.51,4.51,0,0,0,.7-.8,7.12,7.12,0,0,0,.55-1,5.63,5.63,0,0,0,.35-1,4.15,4.15,0,0,0,.13-1V46.5a4.57,4.57,0,0,0-.12-1,6.47,6.47,0,0,0-.35-1,6.14,6.14,0,0,0-.54-1,4.7,4.7,0,0,0-.72-.82h.72a4.59,4.59,0,0,1,.68.76,5,5,0,0,1,.54,1,6,6,0,0,1,.37,1.18A6.29,6.29,0,0,1,208.38,46.9Z"/><path d="M191,29.33H188l-.19,2.53h.07a1.91,1.91,0,0,1,.53-.53,1.42,1.42,0,0,1,.82-.2,2,2,0,0,1,.79.14,1.88,1.88,0,0,1,.63.4,1.72,1.72,0,0,1,.41.64,2.41,2.41,0,0,1,.15.87,2.56,2.56,0,0,1-.15.89,1.9,1.9,0,0,1-.44.69,2.15,2.15,0,0,1-.71.45,2.45,2.45,0,0,1-.93.16,2.73,2.73,0,0,1-.74-.09,2.21,2.21,0,0,1-.56-.25,2.65,2.65,0,0,1-.44-.36,3.39,3.39,0,0,1-.33-.42l.6-.45a3.32,3.32,0,0,0,.26.36,1.53,1.53,0,0,0,.3.27,1.17,1.17,0,0,0,.39.18,2,2,0,0,0,.52.06,1.25,1.25,0,0,0,1.39-1.38v-.1A1.25,1.25,0,0,0,189,31.81a1.34,1.34,0,0,0-.72.17,2.5,2.5,0,0,0-.47.39l-.67-.09.23-3.65H191Z"/><path d="M194.78,35.37a2.49,2.49,0,0,1-.93-.17,1.89,1.89,0,0,1-.7-.51,2.22,2.22,0,0,1-.45-.8,3.53,3.53,0,0,1-.15-1.06,4.56,4.56,0,0,1,.22-1.4,5.6,5.6,0,0,1,.57-1.18,5.19,5.19,0,0,1,.76-.95,4.74,4.74,0,0,1,.82-.67h1c-.35.26-.67.51-.95.76a5.86,5.86,0,0,0-.73.77,4.73,4.73,0,0,0-.53.86,5.51,5.51,0,0,0-.35,1l.05,0a2.1,2.1,0,0,1,.61-.68,1.65,1.65,0,0,1,1-.27,2,2,0,0,1,.79.14,1.64,1.64,0,0,1,.62.41,1.93,1.93,0,0,1,.4.65,2.24,2.24,0,0,1,.15.84,2.31,2.31,0,0,1-.16.89,1.94,1.94,0,0,1-.44.7,2.21,2.21,0,0,1-.7.45A2.4,2.4,0,0,1,194.78,35.37Zm0-.7a1.26,1.26,0,0,0,1.38-1.4V33.2a1.26,1.26,0,0,0-1.38-1.4,1.27,1.27,0,0,0-1.39,1.4v.07a1.27,1.27,0,0,0,1.39,1.4Z"/><path d="M201.18,35.26V34H198v-.71l2.77-4.62h1.19v4.66h1V34h-1v1.3Zm-2.45-2h2.45v-4h-.05Z"/><path d="M225.29,29.33h-2.91l-.19,2.53h.07a2.22,2.22,0,0,1,.53-.53,1.44,1.44,0,0,1,.83-.2,2.09,2.09,0,0,1,.79.14,1.84,1.84,0,0,1,.62.4,1.87,1.87,0,0,1,.42.64,2.65,2.65,0,0,1,.14.87,2.56,2.56,0,0,1-.15.89,1.9,1.9,0,0,1-.44.69,2.11,2.11,0,0,1-.7.45,2.54,2.54,0,0,1-.94.16,2.78,2.78,0,0,1-.74-.09,2.13,2.13,0,0,1-1-.61,2.72,2.72,0,0,1-.34-.42l.6-.45a3.32,3.32,0,0,0,.26.36,1.53,1.53,0,0,0,.3.27,1.17,1.17,0,0,0,.39.18,2,2,0,0,0,.52.06,1.4,1.4,0,0,0,1-.36,1.42,1.42,0,0,0,.35-1v-.1a1.42,1.42,0,0,0-.35-1,1.4,1.4,0,0,0-1-.36,1.37,1.37,0,0,0-.72.17,2.5,2.5,0,0,0-.47.39l-.67-.09.24-3.65h3.55Z"/><path d="M227.92,35.26l2.54-5.95h-2.83v1.24h-.72V28.63h4.35v.7l-2.48,5.93Z"/><path d="M237,35.26h-4.35v-.82l2.17-2a5,5,0,0,0,.78-.91,1.85,1.85,0,0,0,.31-1v-.11a1.28,1.28,0,0,0-.31-.9,1.14,1.14,0,0,0-.92-.34,1.69,1.69,0,0,0-.53.08,1.28,1.28,0,0,0-.39.24,1.25,1.25,0,0,0-.28.36,1.92,1.92,0,0,0-.17.44l-.72-.28a3.23,3.23,0,0,1,.26-.57,2.23,2.23,0,0,1,.42-.5,2.12,2.12,0,0,1,.61-.35,2.65,2.65,0,0,1,.84-.13,2.41,2.41,0,0,1,.87.15,1.68,1.68,0,0,1,.63.39,2.08,2.08,0,0,1,.4.61,2.2,2.2,0,0,1,.13.78,2.37,2.37,0,0,1-.1.72,3.64,3.64,0,0,1-.3.63,4.1,4.1,0,0,1-.46.59c-.19.19-.38.38-.59.57l-1.78,1.61H237Z"/><path d="M259.51,29.33H256.6l-.19,2.53h.07a2.08,2.08,0,0,1,.54-.53,1.38,1.38,0,0,1,.82-.2,2.09,2.09,0,0,1,.79.14,1.84,1.84,0,0,1,.62.4,1.87,1.87,0,0,1,.42.64,2.65,2.65,0,0,1,.14.87,2.56,2.56,0,0,1-.15.89,1.9,1.9,0,0,1-.44.69,2.11,2.11,0,0,1-.7.45,2.54,2.54,0,0,1-.94.16,2.78,2.78,0,0,1-.74-.09,2.13,2.13,0,0,1-1-.61,2.72,2.72,0,0,1-.34-.42l.6-.45a3.32,3.32,0,0,0,.26.36,1.53,1.53,0,0,0,.3.27,1.17,1.17,0,0,0,.39.18,2,2,0,0,0,.52.06,1.4,1.4,0,0,0,1-.36,1.42,1.42,0,0,0,.35-1v-.1a1.42,1.42,0,0,0-.35-1,1.4,1.4,0,0,0-1-.36,1.37,1.37,0,0,0-.72.17,2.5,2.5,0,0,0-.47.39l-.67-.09.24-3.65h3.55Z"/><path d="M262.14,35.26l2.54-5.95h-2.83v1.24h-.72V28.63h4.35v.7L263,35.26Z"/><path d="M269.74,35.26V34h-3.2v-.71l2.77-4.62h1.19v4.66h1V34h-1v1.3Zm-2.45-2h2.45v-4h-.05Z"/><path d="M293.85,29.33h-2.91l-.19,2.53h.06a2.08,2.08,0,0,1,.54-.53,1.42,1.42,0,0,1,.82-.2,2,2,0,0,1,.79.14,1.88,1.88,0,0,1,.63.4,1.85,1.85,0,0,1,.41.64,2.41,2.41,0,0,1,.15.87,2.56,2.56,0,0,1-.15.89,1.9,1.9,0,0,1-.44.69,2.15,2.15,0,0,1-.71.45,2.49,2.49,0,0,1-.93.16,2.73,2.73,0,0,1-.74-.09,2.21,2.21,0,0,1-.56-.25,2.65,2.65,0,0,1-.44-.36,3.39,3.39,0,0,1-.33-.42l.59-.45a3.38,3.38,0,0,0,.27.36,1.53,1.53,0,0,0,.3.27,1.21,1.21,0,0,0,.38.18,2,2,0,0,0,.53.06,1.24,1.24,0,0,0,1.38-1.38v-.1a1.24,1.24,0,0,0-1.38-1.38,1.32,1.32,0,0,0-.72.17,2.5,2.5,0,0,0-.47.39l-.68-.09.24-3.65h3.56Z"/><path d="M296.48,35.26,299,29.31h-2.83v1.24h-.71V28.63h4.35v.7l-2.49,5.93Z"/><path d="M303.37,35.37a2.43,2.43,0,0,1-.92-.17,1.89,1.89,0,0,1-.7-.51,2.09,2.09,0,0,1-.45-.8,3.53,3.53,0,0,1-.15-1.06,4.28,4.28,0,0,1,.22-1.4,5.58,5.58,0,0,1,.56-1.18,5.69,5.69,0,0,1,.77-.95,4.74,4.74,0,0,1,.82-.67h1c-.35.26-.67.51-1,.76a5.26,5.26,0,0,0-.73.77,4.24,4.24,0,0,0-.53.86,4.88,4.88,0,0,0-.35,1l0,0a2,2,0,0,1,.61-.68,1.65,1.65,0,0,1,1-.27,2,2,0,0,1,.79.14,1.64,1.64,0,0,1,.62.41,1.93,1.93,0,0,1,.4.65,2.24,2.24,0,0,1,.15.84,2.31,2.31,0,0,1-.16.89,1.84,1.84,0,0,1-.45.7,2.06,2.06,0,0,1-.69.45A2.45,2.45,0,0,1,303.37,35.37Zm0-.7a1.26,1.26,0,0,0,1.39-1.4V33.2a1.39,1.39,0,1,0-2.77,0v.07a1.26,1.26,0,0,0,1.38,1.4Z"/><path d="M319.53,29.33h-2.91l-.19,2.53h.07a2.22,2.22,0,0,1,.53-.53,1.44,1.44,0,0,1,.83-.2,2.09,2.09,0,0,1,.79.14,1.84,1.84,0,0,1,.62.4,1.87,1.87,0,0,1,.42.64,2.65,2.65,0,0,1,.14.87,2.56,2.56,0,0,1-.15.89,1.9,1.9,0,0,1-.44.69,2.11,2.11,0,0,1-.7.45,2.54,2.54,0,0,1-.94.16,2.78,2.78,0,0,1-.74-.09,2.13,2.13,0,0,1-1-.61,2.72,2.72,0,0,1-.34-.42l.6-.45a3.32,3.32,0,0,0,.26.36,1.53,1.53,0,0,0,.3.27,1.17,1.17,0,0,0,.39.18,2,2,0,0,0,.52.06,1.4,1.4,0,0,0,1-.36,1.42,1.42,0,0,0,.35-1v-.1a1.42,1.42,0,0,0-.35-1,1.4,1.4,0,0,0-1-.36,1.37,1.37,0,0,0-.72.17,2.5,2.5,0,0,0-.47.39l-.67-.09.24-3.65h3.55Z"/><path d="M322.16,35.26l2.54-5.95h-2.83v1.24h-.72V28.63h4.35v.7L323,35.26Z"/><path d="M327.86,35.26l2.54-5.95h-2.83v1.24h-.72V28.63h4.35v.7l-2.48,5.93Z"/></svg>