<svg id="Camada_1" data-name="Camada 1" xmlns="http://www.w3.org/2000/svg" viewBox="0 0 338.39 57.45"><defs><style>.cls-1{opacity:0.75;}.cls-2{fill:#fff;}.cls-3{fill:#939393;}.cls-4{fill:#a50000;}.cls-5{fill:#830000;}.cls-6{fill:brown;}.cls-7{fill:#0048ab;}.cls-8{fill:#001476;}.cls-9{fill:#00074c;}.cls-10{fill:#0067c6;}.cls-11{fill:#0090d7;}.cls-12{fill:#00a0db;}.cls-13{fill:#00c4e1;}.cls-14{fill:#5ce1ee;}.cls-15{fill:#c0f6ff;}.cls-16{fill:#ffdcde;}.cls-17{fill:#ffb59e;}.cls-18{fill:#ff834b;}.cls-19{fill:#ff4100;}.cls-20{fill:red;}.cls-21{fill:#e30000;}</style></defs><title>LEGENDAS_PÁGINA_CLIMA_MAIORES</title><g class="cls-1"><path class="cls-2" d="M.07,6.67C.07,3.15,3.44.29,7.59.29H331c4.15,0,7.52,2.86,7.52,6.38V51.36c0,3.53-3.37,6.38-7.52,6.38H7.59c-4.15,0-7.52-2.85-7.52-6.38Z"/></g><path class="cls-2" d="M166.35,23.87h5.47a2,2,0,0,0,2.11-2V11a2,2,0,0,0-2.11-2h-5.47a2,2,0,0,0-2.11,2V21.91A2,2,0,0,0,166.35,23.87Z"/><path class="cls-3" d="M171.82,24.12h-5.47A2.29,2.29,0,0,1,164,21.91V11a2.29,2.29,0,0,1,2.36-2.21h5.47A2.29,2.29,0,0,1,174.18,11V21.91A2.29,2.29,0,0,1,171.82,24.12ZM166.35,9.26A1.8,1.8,0,0,0,164.49,11V21.91a1.8,1.8,0,0,0,1.86,1.71h5.47a1.8,1.8,0,0,0,1.86-1.71V11a1.8,1.8,0,0,0-1.86-1.71Z"/><path class="cls-4" d="M46.45,23.87h5.47a2,2,0,0,0,2.11-2V11a2,2,0,0,0-2.11-2H46.45a2,2,0,0,0-2.11,2V21.91A2,2,0,0,0,46.45,23.87Z"/><path class="cls-5" d="M29.36,23.87h5.47a2,2,0,0,0,2.11-2V11a2,2,0,0,0-2.11-2H29.36a2,2,0,0,0-2.11,2V21.91A2,2,0,0,0,29.36,23.87Z"/><path class="cls-6" d="M12.2,23.87h5.47a2,2,0,0,0,2.11-2V11a2,2,0,0,0-2.11-2H12.2a2,2,0,0,0-2.11,2V21.91A2,2,0,0,0,12.2,23.87Z"/><path class="cls-7" d="M286.56,23.87H292a2,2,0,0,0,2.11-2V11A2,2,0,0,0,292,9h-5.47a2,2,0,0,0-2.11,2V21.91A2,2,0,0,0,286.56,23.87Z"/><path class="cls-8" d="M303.72,23.87h5.47a2,2,0,0,0,2.11-2V11a2,2,0,0,0-2.11-2h-5.47a2,2,0,0,0-2.1,2V21.91A2,2,0,0,0,303.72,23.87Z"/><path class="cls-9" d="M320.89,23.87h5.46a2,2,0,0,0,2.11-2V11a2,2,0,0,0-2.11-2h-5.46a2,2,0,0,0-2.11,2V21.91A2,2,0,0,0,320.89,23.87Z"/><path class="cls-10" d="M269.4,23.87h5.47a2,2,0,0,0,2.11-2V11a2,2,0,0,0-2.11-2H269.4a2,2,0,0,0-2.11,2V21.91A2,2,0,0,0,269.4,23.87Z"/><path class="cls-11" d="M252.24,23.87h5.47a2,2,0,0,0,2.11-2V11a2,2,0,0,0-2.11-2h-5.47a2,2,0,0,0-2.11,2V21.91A2,2,0,0,0,252.24,23.87Z"/><path class="cls-12" d="M235.08,23.87h5.47a2,2,0,0,0,2.11-2V11a2,2,0,0,0-2.11-2h-5.47A2,2,0,0,0,233,11V21.91A2,2,0,0,0,235.08,23.87Z"/><path class="cls-13" d="M217.92,23.87h5.47a2,2,0,0,0,2.11-2V11a2,2,0,0,0-2.11-2h-5.47a2,2,0,0,0-2.11,2V21.91A2,2,0,0,0,217.92,23.87Z"/><path class="cls-14" d="M200.67,23.87h5.47a2,2,0,0,0,2.11-2V11a2,2,0,0,0-2.11-2h-5.47a2,2,0,0,0-2.11,2V21.91A2,2,0,0,0,200.67,23.87Z"/><path class="cls-15" d="M183.51,23.87H189a2,2,0,0,0,2.11-2V11A2,2,0,0,0,189,9h-5.47a2,2,0,0,0-2.11,2V21.91A2,2,0,0,0,183.51,23.87Z"/><path class="cls-16" d="M149.12,23.87h5.46a2,2,0,0,0,2.11-2V11a2,2,0,0,0-2.11-2h-5.46A2,2,0,0,0,147,11V21.91A2,2,0,0,0,149.12,23.87Z"/><path class="cls-17" d="M132,23.87h5.46a2,2,0,0,0,2.11-2V11a2,2,0,0,0-2.11-2H132a2,2,0,0,0-2.11,2V21.91A2,2,0,0,0,132,23.87Z"/><path class="cls-18" d="M114.8,23.87h5.46a2,2,0,0,0,2.11-2V11a2,2,0,0,0-2.11-2H114.8a2,2,0,0,0-2.11,2V21.91A2,2,0,0,0,114.8,23.87Z"/><path class="cls-19" d="M97.71,23.87h5.46a2,2,0,0,0,2.11-2V11a2,2,0,0,0-2.11-2H97.71a2,2,0,0,0-2.11,2V21.91A2,2,0,0,0,97.71,23.87Z"/><path class="cls-20" d="M80.63,23.87h5.46a2,2,0,0,0,2.11-2V11a2,2,0,0,0-2.11-2H80.63a2,2,0,0,0-2.11,2V21.91A2,2,0,0,0,80.63,23.87Z"/><path class="cls-21" d="M63.54,23.87H69a2,2,0,0,0,2.1-2V11A2,2,0,0,0,69,9H63.54a2,2,0,0,0-2.11,2V21.91A2,2,0,0,0,63.54,23.87Z"/><path d="M33.65,34.29v-.82h2.48v.82Z"/><path d="M41.85,36.77H37.5V36l2.17-2a4.43,4.43,0,0,0,.78-.91,1.73,1.73,0,0,0,.31-1V32a1.31,1.31,0,0,0-.3-.89,1.18,1.18,0,0,0-.93-.35,1.44,1.44,0,0,0-.53.09,1.28,1.28,0,0,0-.39.24,1.6,1.6,0,0,0-.28.35,2.2,2.2,0,0,0-.17.45l-.72-.28a2.48,2.48,0,0,1,.27-.57,2,2,0,0,1,.41-.5,2.12,2.12,0,0,1,.61-.35,2.65,2.65,0,0,1,.84-.13,2.6,2.6,0,0,1,.87.14,1.84,1.84,0,0,1,.63.4,1.8,1.8,0,0,1,.4.61,2.13,2.13,0,0,1,.14.78,2.36,2.36,0,0,1-.11.72,3.64,3.64,0,0,1-.3.63,4.1,4.1,0,0,1-.46.59,7.91,7.91,0,0,1-.59.56l-1.78,1.61h3.48Z"/><path d="M45.35,36.88a2.34,2.34,0,0,1-.93-.18,1.84,1.84,0,0,1-.7-.5,2.21,2.21,0,0,1-.44-.8,3.55,3.55,0,0,1-.15-1.07,4.54,4.54,0,0,1,.21-1.39,5.38,5.38,0,0,1,.57-1.18,5.19,5.19,0,0,1,.76-1,4.74,4.74,0,0,1,.82-.67h1a11.69,11.69,0,0,0-1,.75,5.29,5.29,0,0,0-.73.78,4.78,4.78,0,0,0-.54.86,5.28,5.28,0,0,0-.35,1l0,0a2.1,2.1,0,0,1,.61-.68,1.59,1.59,0,0,1,1-.28,2,2,0,0,1,.78.15,1.64,1.64,0,0,1,.62.41,1.74,1.74,0,0,1,.4.64,2.34,2.34,0,0,1,.15.85,2.52,2.52,0,0,1-.15.89,2.21,2.21,0,0,1-.45.7,2.11,2.11,0,0,1-.7.45A2.36,2.36,0,0,1,45.35,36.88Zm0-.7a1.38,1.38,0,0,0,1-.36,1.42,1.42,0,0,0,.37-1V34.7a1.41,1.41,0,0,0-.37-1,1.39,1.39,0,0,0-2.41,1v.08a1.27,1.27,0,0,0,1.39,1.4Z"/><path d="M7.88,34.29v-.82h2.47v.82Z"/><path d="M13.49,32.93a1.42,1.42,0,0,0,1-.31,1,1,0,0,0,.34-.79v-.06a.92.92,0,0,0-.33-.78,1.3,1.3,0,0,0-.86-.27,1.41,1.41,0,0,0-.83.23,1.74,1.74,0,0,0-.54.6l-.59-.45a3.79,3.79,0,0,1,.3-.4,2,2,0,0,1,.42-.34A2.2,2.2,0,0,1,13.67,30a2.9,2.9,0,0,1,.79.11,1.83,1.83,0,0,1,.64.32,1.5,1.5,0,0,1,.58,1.24,1.48,1.48,0,0,1-.1.57,1.29,1.29,0,0,1-.27.45,1.61,1.61,0,0,1-.4.32,2,2,0,0,1-.5.2v0a2,2,0,0,1,.52.18,1.87,1.87,0,0,1,.45.33,1.69,1.69,0,0,1,.31.5,1.76,1.76,0,0,1,.12.66,2,2,0,0,1-.16.79,1.73,1.73,0,0,1-.46.61,2.22,2.22,0,0,1-.71.4,3,3,0,0,1-.92.14,2.88,2.88,0,0,1-.76-.09,2.45,2.45,0,0,1-.59-.26,2.25,2.25,0,0,1-.45-.35,3.39,3.39,0,0,1-.35-.42l.6-.46a1.69,1.69,0,0,0,.27.36,1.75,1.75,0,0,0,.33.28,1.54,1.54,0,0,0,.41.18,2,2,0,0,0,.53.06,1.56,1.56,0,0,0,1.06-.32,1.18,1.18,0,0,0,.36-.92v-.07a1.18,1.18,0,0,0-.36-.92,1.56,1.56,0,0,0-1.06-.32h-.78v-.7Z"/><path d="M20.27,36.77v-1.3h-3.2v-.71l2.78-4.62H21V34.8h1v.67H21v1.3Zm-2.45-2h2.45v-4h0Z"/><path d="M67.82,34.29v-.82H70.3v.82Z"/><path d="M71.79,36.77v-.71h1.85V30.72h-.06l-1.67,1.56-.47-.5,1.76-1.64h1.24v5.92h1.71v.71Z"/><path d="M79.5,36.88a3,3,0,0,1-1-.15,1.93,1.93,0,0,1-.72-.4,1.68,1.68,0,0,1-.44-.61,1.9,1.9,0,0,1-.14-.76,1.51,1.51,0,0,1,.37-1.08,2,2,0,0,1,1-.56v-.08a1.75,1.75,0,0,1-.84-.58,1.61,1.61,0,0,1-.3-1A1.48,1.48,0,0,1,78,30.47a2.88,2.88,0,0,1,3.09,0,1.48,1.48,0,0,1,.55,1.21,1.61,1.61,0,0,1-.3,1,1.75,1.75,0,0,1-.84.58v.08a2,2,0,0,1,1,.56A1.51,1.51,0,0,1,81.8,35a2.1,2.1,0,0,1-.14.76,1.68,1.68,0,0,1-.44.61,1.93,1.93,0,0,1-.72.4A3,3,0,0,1,79.5,36.88Zm0-.7a1.65,1.65,0,0,0,1.08-.31A1.07,1.07,0,0,0,81,35V34.8a1.09,1.09,0,0,0-.38-.88,1.71,1.71,0,0,0-1.08-.31,1.68,1.68,0,0,0-1.07.31,1.09,1.09,0,0,0-.38.88V35a1.07,1.07,0,0,0,.38.88A1.63,1.63,0,0,0,79.5,36.18Zm0-3.23a1.44,1.44,0,0,0,1-.27.92.92,0,0,0,.33-.77v-.14a1,1,0,0,0-.33-.78,1.44,1.44,0,0,0-1-.27,1.47,1.47,0,0,0-1,.27,1,1,0,0,0-.32.78v.14a.94.94,0,0,0,.32.77A1.47,1.47,0,0,0,79.5,33Z"/><path d="M102,34.29v-.82h2.48v.82Z"/><path d="M106,36.77v-.71h1.85V30.72h-.07l-1.67,1.56-.47-.5,1.76-1.64h1.25v5.92h1.71v.71Z"/><path d="M113.69,36.88A1.87,1.87,0,0,1,112,36a4.85,4.85,0,0,1-.55-2.53,4.87,4.87,0,0,1,.55-2.53,2.11,2.11,0,0,1,3.46,0,4.87,4.87,0,0,1,.55,2.53,4.85,4.85,0,0,1-.55,2.53A1.87,1.87,0,0,1,113.69,36.88Zm0-.7a1.34,1.34,0,0,0,.66-.16,1.17,1.17,0,0,0,.45-.46,1.94,1.94,0,0,0,.25-.69,4,4,0,0,0,.08-.88V32.91a4.06,4.06,0,0,0-.08-.88,2.1,2.1,0,0,0-.25-.69,1.08,1.08,0,0,0-.45-.45,1.24,1.24,0,0,0-.66-.17,1.31,1.31,0,0,0-.67.17,1.12,1.12,0,0,0-.44.45,2.1,2.1,0,0,0-.25.69,4.06,4.06,0,0,0-.08.88V34a4,4,0,0,0,.08.88,1.94,1.94,0,0,0,.25.69A1.22,1.22,0,0,0,113,36,1.41,1.41,0,0,0,113.69,36.18Z"/><path d="M139.1,34.29v-.82h2.48v.82Z"/><path d="M145.8,36.77v-1.3h-3.2v-.71l2.77-4.62h1.19V34.8h1v.67h-1v1.3Zm-2.45-2h2.45v-4h-.05Z"/><path d="M169.09,36.88a1.89,1.89,0,0,1-1.74-.9,5,5,0,0,1-.55-2.53,5,5,0,0,1,.55-2.53,2.12,2.12,0,0,1,3.47,0,5,5,0,0,1,.54,2.53,5,5,0,0,1-.54,2.53A1.88,1.88,0,0,1,169.09,36.88Zm0-.7a1.37,1.37,0,0,0,.66-.16,1.32,1.32,0,0,0,.45-.46,2.42,2.42,0,0,0,.25-.69,4.71,4.71,0,0,0,.08-.88V32.91a4.79,4.79,0,0,0-.08-.88,2.67,2.67,0,0,0-.25-.69,1.21,1.21,0,0,0-.45-.45,1.39,1.39,0,0,0-1.33,0,1.21,1.21,0,0,0-.45.45,2.67,2.67,0,0,0-.25.69,4.79,4.79,0,0,0-.08.88V34a4.71,4.71,0,0,0,.08.88,2.42,2.42,0,0,0,.25.69,1.32,1.32,0,0,0,.45.46A1.38,1.38,0,0,0,169.09,36.18Z"/><path d="M195.58,36.77v-1.3h-3.2v-.71l2.77-4.62h1.19V34.8h1v.67h-1v1.3Zm-2.45-2h2.45v-4h-.05Z"/><path d="M224.34,36.77v-.71h1.85V30.72h-.06l-1.68,1.56-.46-.5,1.76-1.64H227v5.92h1.71v.71Z"/><path d="M232.05,36.88a1.87,1.87,0,0,1-1.73-.9,5,5,0,0,1-.55-2.53,5,5,0,0,1,.55-2.53,2.12,2.12,0,0,1,3.47,0,5,5,0,0,1,.54,2.53,5,5,0,0,1-.54,2.53A1.89,1.89,0,0,1,232.05,36.88Zm0-.7a1.38,1.38,0,0,0,.67-.16,1.32,1.32,0,0,0,.45-.46,2.42,2.42,0,0,0,.25-.69,4.71,4.71,0,0,0,.08-.88V32.91a4.79,4.79,0,0,0-.08-.88,2.67,2.67,0,0,0-.25-.69,1.21,1.21,0,0,0-.45-.45,1.28,1.28,0,0,0-.67-.17,1.24,1.24,0,0,0-.66.17,1.14,1.14,0,0,0-.45.45,2.35,2.35,0,0,0-.25.69,4.79,4.79,0,0,0-.08.88V34a4.71,4.71,0,0,0,.08.88,2.15,2.15,0,0,0,.25.69,1.24,1.24,0,0,0,.45.46A1.34,1.34,0,0,0,232.05,36.18Z"/><path d="M258.73,36.77v-.71h1.85V30.72h-.07l-1.67,1.56-.47-.5,1.76-1.64h1.25v5.92h1.71v.71Z"/><path d="M266.44,36.88a3,3,0,0,1-1-.15,2,2,0,0,1-.71-.4,1.57,1.57,0,0,1-.44-.61,1.91,1.91,0,0,1-.15-.76,1.55,1.55,0,0,1,.37-1.08,2,2,0,0,1,1-.56v-.08a1.67,1.67,0,0,1-.83-.58,1.55,1.55,0,0,1-.31-1,1.48,1.48,0,0,1,.55-1.21,2.89,2.89,0,0,1,3.1,0,1.48,1.48,0,0,1,.55,1.21,1.55,1.55,0,0,1-.31,1,1.72,1.72,0,0,1-.83.58v.08a2,2,0,0,1,1,.56,1.51,1.51,0,0,1,.37,1.08,1.91,1.91,0,0,1-.15.76,1.57,1.57,0,0,1-.44.61,2,2,0,0,1-.71.4A3,3,0,0,1,266.44,36.88Zm0-.7a1.63,1.63,0,0,0,1.07-.31,1,1,0,0,0,.38-.88V34.8a1.06,1.06,0,0,0-.38-.88,2,2,0,0,0-2.14,0,1.06,1.06,0,0,0-.38.88V35a1,1,0,0,0,.38.88A1.63,1.63,0,0,0,266.44,36.18Zm0-3.23a1.44,1.44,0,0,0,.95-.27.91.91,0,0,0,.32-.77v-.14a.94.94,0,0,0-.32-.78,1.44,1.44,0,0,0-.95-.27,1.45,1.45,0,0,0-.95.27.94.94,0,0,0-.32.78v.14a.91.91,0,0,0,.32.77A1.45,1.45,0,0,0,266.44,33Z"/><path d="M297.07,36.77h-4.35V36l2.17-2a4.43,4.43,0,0,0,.78-.91,1.81,1.81,0,0,0,.31-1V32a1.31,1.31,0,0,0-.3-.89,1.18,1.18,0,0,0-.93-.35,1.44,1.44,0,0,0-.53.09,1.28,1.28,0,0,0-.39.24,1.35,1.35,0,0,0-.28.35,2.2,2.2,0,0,0-.17.45l-.72-.28a2.48,2.48,0,0,1,.27-.57,2,2,0,0,1,.41-.5,2.12,2.12,0,0,1,.61-.35,2.78,2.78,0,0,1,1.71,0,1.84,1.84,0,0,1,.63.4,1.8,1.8,0,0,1,.4.61,2.13,2.13,0,0,1,.13.78,2.37,2.37,0,0,1-.1.72,3.64,3.64,0,0,1-.3.63,4.1,4.1,0,0,1-.46.59c-.19.19-.38.38-.59.56l-1.78,1.61h3.48Z"/><path d="M300.57,36.88a2.34,2.34,0,0,1-.93-.18,1.84,1.84,0,0,1-.7-.5,2.21,2.21,0,0,1-.44-.8,3.55,3.55,0,0,1-.15-1.07,4.54,4.54,0,0,1,.21-1.39,5.38,5.38,0,0,1,.57-1.18,5.19,5.19,0,0,1,.76-1,4.74,4.74,0,0,1,.82-.67h1a10.18,10.18,0,0,0-.95.75,5.29,5.29,0,0,0-.73.78,4.78,4.78,0,0,0-.54.86,5.28,5.28,0,0,0-.35,1l.05,0a2.1,2.1,0,0,1,.61-.68,1.58,1.58,0,0,1,1-.28,2,2,0,0,1,.79.15,1.64,1.64,0,0,1,.62.41,1.74,1.74,0,0,1,.4.64,2.34,2.34,0,0,1,.15.85,2.52,2.52,0,0,1-.15.89,2,2,0,0,1-1.15,1.15A2.36,2.36,0,0,1,300.57,36.88Zm0-.7a1.38,1.38,0,0,0,1-.36,1.42,1.42,0,0,0,.37-1V34.7a1.41,1.41,0,0,0-.37-1,1.39,1.39,0,0,0-2.41,1v.08a1.27,1.27,0,0,0,1.39,1.4Z"/><path d="M320.41,32.93a1.44,1.44,0,0,0,1-.31,1,1,0,0,0,.34-.79v-.06a.92.92,0,0,0-.33-.78,1.32,1.32,0,0,0-.86-.27,1.46,1.46,0,0,0-.84.23,1.82,1.82,0,0,0-.53.6l-.59-.45a2.2,2.2,0,0,1,.3-.4,2.25,2.25,0,0,1,.41-.34,2.63,2.63,0,0,1,.56-.25,2.5,2.5,0,0,1,.71-.09,2.9,2.9,0,0,1,.79.11,1.92,1.92,0,0,1,.64.32,1.5,1.5,0,0,1,.58,1.24,1.48,1.48,0,0,1-.1.57,1.29,1.29,0,0,1-.27.45,1.82,1.82,0,0,1-.4.32,2.18,2.18,0,0,1-.5.2v0a1.78,1.78,0,0,1,1,.51,1.71,1.71,0,0,1,.32.5,1.76,1.76,0,0,1,.12.66,1.86,1.86,0,0,1-.17.79,1.7,1.7,0,0,1-.45.61,2.34,2.34,0,0,1-.71.4,3,3,0,0,1-.93.14,3,3,0,0,1-.76-.09,2.37,2.37,0,0,1-.58-.26,2.07,2.07,0,0,1-.46-.35,3.29,3.29,0,0,1-.34-.42l.6-.46a1.69,1.69,0,0,0,.27.36,1.43,1.43,0,0,0,.32.28,1.7,1.7,0,0,0,.41.18,2.09,2.09,0,0,0,.53.06,1.59,1.59,0,0,0,1.07-.32,1.18,1.18,0,0,0,.36-.92v-.07a1.18,1.18,0,0,0-.36-.92,1.59,1.59,0,0,0-1.07-.32h-.77v-.7Z"/><path d="M327.19,36.77v-1.3H324v-.71l2.77-4.62H328V34.8h1v.67h-1v1.3Zm-2.45-2h2.45v-4h-.05Z"/><path d="M94.78,43.22H97a2.9,2.9,0,0,1,1.12.21,2.32,2.32,0,0,1,.86.62,2.86,2.86,0,0,1,.55,1,5.59,5.59,0,0,1,0,2.89A2.86,2.86,0,0,1,99,49a2.32,2.32,0,0,1-.86.62,2.9,2.9,0,0,1-1.12.21H94.78ZM97,49.15a2,2,0,0,0,.75-.14,1.71,1.71,0,0,0,.59-.4,2,2,0,0,0,.38-.65,2.66,2.66,0,0,0,.14-.88V46a2.66,2.66,0,0,0-.14-.88,2,2,0,0,0-.38-.65,1.71,1.71,0,0,0-.59-.4,2,2,0,0,0-.75-.14H95.57v5.23Z"/><path d="M101.45,43.8a.4.4,0,0,1-.46-.43v-.12a.4.4,0,0,1,.46-.43.46.46,0,0,1,.36.12.45.45,0,0,1,.11.31v.12a.45.45,0,0,1-.11.31A.46.46,0,0,1,101.45,43.8ZM101.07,45h.76v4.9h-.76Z"/><path d="M104.53,49.85,102.81,45h.76l.86,2.43.53,1.67H105l.53-1.67.87-2.43h.73l-1.72,4.9Z"/><path d="M109.89,50a2.21,2.21,0,0,1-.91-.18,1.94,1.94,0,0,1-.69-.51,2.65,2.65,0,0,1-.45-.81,3.48,3.48,0,0,1-.15-1.06,3.41,3.41,0,0,1,.15-1,2.59,2.59,0,0,1,.45-.82A1.94,1.94,0,0,1,109,45a2.21,2.21,0,0,1,.91-.19,1.93,1.93,0,0,1,.88.19,1.9,1.9,0,0,1,.67.49,2.28,2.28,0,0,1,.42.75,2.93,2.93,0,0,1,.15,1v.36h-3.53v.23a1.81,1.81,0,0,0,.1.58,1.49,1.49,0,0,0,.29.47,1.19,1.19,0,0,0,.46.32,1.66,1.66,0,0,0,.61.11,1.45,1.45,0,0,0,.81-.22,1.43,1.43,0,0,0,.54-.62l.54.39a1.92,1.92,0,0,1-.74.81A2.23,2.23,0,0,1,109.89,50Zm0-4.49a1.48,1.48,0,0,0-.57.11,1.14,1.14,0,0,0-.44.31,1.29,1.29,0,0,0-.29.46,1.63,1.63,0,0,0-.11.59V47h2.71v-.1a1.53,1.53,0,0,0-.35-1A1.24,1.24,0,0,0,109.89,45.47Z"/><path d="M113.26,49.85V45H114v.9h0a1.63,1.63,0,0,1,.47-.63,1.51,1.51,0,0,1,.95-.27h.29v.76h-.45a1.75,1.75,0,0,0-1,.23.7.7,0,0,0-.35.59v3.32Z"/><path d="M120.66,50.4a1.2,1.2,0,0,1-.59,1.11,3.52,3.52,0,0,1-1.78.35,3.22,3.22,0,0,1-1.65-.31,1,1,0,0,1-.51-.89.86.86,0,0,1,.21-.62,1.23,1.23,0,0,1,.57-.33v-.1a.71.71,0,0,1-.44-.68.69.69,0,0,1,.24-.57,1.65,1.65,0,0,1,.61-.29v0a1.59,1.59,0,0,1-.68-.6,1.72,1.72,0,0,1-.24-.91,1.65,1.65,0,0,1,.13-.68,1.39,1.39,0,0,1,.38-.54,1.61,1.61,0,0,1,.58-.35,2.18,2.18,0,0,1,.75-.13,2.12,2.12,0,0,1,.93.2v-.09a.9.9,0,0,1,.13-.48.52.52,0,0,1,.44-.19h.73V45h-.93v.31a1.72,1.72,0,0,1,.42.55,1.81,1.81,0,0,1,.14.72,1.73,1.73,0,0,1-.13.69,1.36,1.36,0,0,1-.38.53,1.61,1.61,0,0,1-.58.35,2.06,2.06,0,0,1-.76.13,2.61,2.61,0,0,1-.48,0,1.58,1.58,0,0,0-.44.19.42.42,0,0,0-.2.36.28.28,0,0,0,.21.29,1.62,1.62,0,0,0,.54.08h1a2.08,2.08,0,0,1,1.33.35A1.15,1.15,0,0,1,120.66,50.4Zm-.71.05a.56.56,0,0,0-.22-.47,1.33,1.33,0,0,0-.8-.18H117.3a.72.72,0,0,0-.21,1.22,1.18,1.18,0,0,0,.82.23h.7a2.09,2.09,0,0,0,1-.2A.67.67,0,0,0,120,50.45Zm-1.7-2.83a1.16,1.16,0,0,0,.77-.24.86.86,0,0,0,.28-.72V46.4a.86.86,0,0,0-.28-.72,1.36,1.36,0,0,0-1.54,0,.86.86,0,0,0-.28.72v.26a.86.86,0,0,0,.28.72A1.16,1.16,0,0,0,118.25,47.62Z"/><path d="M123.33,50a2.16,2.16,0,0,1-.9-.18,2,2,0,0,1-.7-.51,2.65,2.65,0,0,1-.45-.81,3.48,3.48,0,0,1-.15-1.06,3.41,3.41,0,0,1,.15-1,2.59,2.59,0,0,1,.45-.82,2,2,0,0,1,.7-.51,2.16,2.16,0,0,1,.9-.19,2,2,0,0,1,.89.19,1.78,1.78,0,0,1,.66.49,2.12,2.12,0,0,1,.42.75,2.93,2.93,0,0,1,.15,1v.36h-3.52v.23a1.57,1.57,0,0,0,.1.58,1.31,1.31,0,0,0,.28.47,1.27,1.27,0,0,0,.46.32,1.66,1.66,0,0,0,.61.11,1.45,1.45,0,0,0,.81-.22,1.43,1.43,0,0,0,.54-.62l.54.39a1.86,1.86,0,0,1-.74.81A2.23,2.23,0,0,1,123.33,50Zm.49-7.38,1.05,1.36-.42.3-1.11-1.12-1.11,1.12-.42-.3,1.06-1.36Zm-.49,2.89a1.48,1.48,0,0,0-.57.11,1.14,1.14,0,0,0-.44.31,1.44,1.44,0,0,0-.29.46,1.63,1.63,0,0,0-.1.59V47h2.7v-.1a1.53,1.53,0,0,0-.35-1A1.24,1.24,0,0,0,123.33,45.47Z"/><path d="M126.7,49.85V45h.76v.79h0a1.55,1.55,0,0,1,.51-.66,1.46,1.46,0,0,1,.88-.25,1.54,1.54,0,0,1,1.2.49,2,2,0,0,1,.44,1.39v3.14h-.76v-3q0-1.32-1.11-1.32a1.61,1.61,0,0,0-.44.06,1.19,1.19,0,0,0-.38.17.78.78,0,0,0-.28.29.89.89,0,0,0-.1.41v3.41Z"/><path d="M133.92,50a2.29,2.29,0,0,1-.92-.18,1.94,1.94,0,0,1-.69-.51,2.39,2.39,0,0,1-.42-.81,3.82,3.82,0,0,1,0-2.12,2.39,2.39,0,0,1,.42-.81A1.94,1.94,0,0,1,133,45a2.29,2.29,0,0,1,.92-.19A1.83,1.83,0,0,1,135.76,46l-.64.33a1.11,1.11,0,0,0-.44-.59,1.29,1.29,0,0,0-.76-.21,1.55,1.55,0,0,0-.59.11,1.11,1.11,0,0,0-.43.3,1.27,1.27,0,0,0-.26.47,2.21,2.21,0,0,0-.08.59v.84a1.61,1.61,0,0,0,.34,1.06,1.27,1.27,0,0,0,1,.41,1.37,1.37,0,0,0,1.33-.85l.56.37a2,2,0,0,1-.71.84A2.1,2.1,0,0,1,133.92,50Z"/><path d="M137.26,43.8a.47.47,0,0,1-.36-.12.45.45,0,0,1-.11-.31v-.12a.45.45,0,0,1,.11-.31.47.47,0,0,1,.36-.12.49.49,0,0,1,.36.12.45.45,0,0,1,.1.31v.12a.45.45,0,0,1-.1.31A.49.49,0,0,1,137.26,43.8ZM136.88,45h.76v4.9h-.76Z"/><path d="M142.82,49.85a.74.74,0,0,1-.62-.23,1.13,1.13,0,0,1-.23-.57h-.05a1.24,1.24,0,0,1-.53.69,1.67,1.67,0,0,1-.88.22,1.73,1.73,0,0,1-1.21-.39,1.42,1.42,0,0,1-.44-1.09,1.23,1.23,0,0,1,.51-1.06,2.69,2.69,0,0,1,1.58-.37h1v-.49a1,1,0,0,0-.28-.79,1.19,1.19,0,0,0-.88-.28,1.34,1.34,0,0,0-.74.2,1.59,1.59,0,0,0-.5.53l-.46-.43a1.88,1.88,0,0,1,.64-.68,2.06,2.06,0,0,1,1.1-.28,2,2,0,0,1,1.39.44,1.53,1.53,0,0,1,.49,1.21v2.7h.56v.67Zm-2.19-.53a1.68,1.68,0,0,0,.52-.07,1.2,1.2,0,0,0,.41-.19.89.89,0,0,0,.27-.28.73.73,0,0,0,.09-.35v-.81h-1a1.82,1.82,0,0,0-1,.19.62.62,0,0,0-.3.55v.2a.67.67,0,0,0,.26.56A1.17,1.17,0,0,0,140.63,49.32Z"/><path d="M149.7,49.06h0a1.51,1.51,0,0,1-1.44.9,1.79,1.79,0,0,1-1.46-.69,2.56,2.56,0,0,1-.4-.81,4.39,4.39,0,0,1,0-2.12,2.56,2.56,0,0,1,.4-.81,1.84,1.84,0,0,1,1.46-.7,1.65,1.65,0,0,1,.88.23,1.37,1.37,0,0,1,.56.68h0V42.82h.76v7h-.76Zm-1.26.23a1.61,1.61,0,0,0,.49-.07,1.24,1.24,0,0,0,.4-.19.83.83,0,0,0,.27-.32.82.82,0,0,0,.1-.42V46.45a.71.71,0,0,0-.1-.37.77.77,0,0,0-.27-.3,1.25,1.25,0,0,0-.4-.2,1.61,1.61,0,0,0-.49-.07,1.29,1.29,0,0,0-1,.41,1.54,1.54,0,0,0-.37,1.06v.84a1.54,1.54,0,0,0,.37,1.06A1.33,1.33,0,0,0,148.44,49.29Z"/><path d="M153.92,50a2.24,2.24,0,0,1-.91-.18,1.94,1.94,0,0,1-.69-.51,2.65,2.65,0,0,1-.45-.81,3.48,3.48,0,0,1-.15-1.06,3.41,3.41,0,0,1,.15-1,2.59,2.59,0,0,1,.45-.82A1.94,1.94,0,0,1,153,45a2.24,2.24,0,0,1,.91-.19,2,2,0,0,1,.89.19,1.87,1.87,0,0,1,.66.49,2.28,2.28,0,0,1,.42.75,2.93,2.93,0,0,1,.15,1v.36h-3.52v.23a1.57,1.57,0,0,0,.1.58,1.31,1.31,0,0,0,.28.47,1.27,1.27,0,0,0,.46.32,1.66,1.66,0,0,0,.61.11,1.45,1.45,0,0,0,.81-.22,1.43,1.43,0,0,0,.54-.62l.54.39a1.92,1.92,0,0,1-.74.81A2.23,2.23,0,0,1,153.92,50Zm0-4.49a1.48,1.48,0,0,0-.57.11,1.14,1.14,0,0,0-.44.31,1.44,1.44,0,0,0-.29.46,1.63,1.63,0,0,0-.1.59V47h2.7v-.1a1.53,1.53,0,0,0-.35-1A1.24,1.24,0,0,0,153.92,45.47Z"/><path d="M160.36,43.22v4.11a2.49,2.49,0,0,0,.35,1.44,1.43,1.43,0,0,0,1.24.49,1.39,1.39,0,0,0,1.23-.49,2.41,2.41,0,0,0,.35-1.44V43.22h.8v3.91a5.25,5.25,0,0,1-.13,1.26,2.11,2.11,0,0,1-.41.88,1.64,1.64,0,0,1-.74.52,3.16,3.16,0,0,1-1.13.17,3.07,3.07,0,0,1-1.12-.17,1.53,1.53,0,0,1-.72-.52,2.1,2.1,0,0,1-.4-.88,5.86,5.86,0,0,1-.12-1.26V43.22Z"/><path d="M166,49.85V45h.76v.79h0a3.07,3.07,0,0,1,.2-.36,1.19,1.19,0,0,1,.27-.28,1,1,0,0,1,.36-.19,1.44,1.44,0,0,1,.49-.08,1.73,1.73,0,0,1,.9.24,1.41,1.41,0,0,1,.61.75h0a1.57,1.57,0,0,1,.5-.69,1.55,1.55,0,0,1,1-.3,1.48,1.48,0,0,1,1.17.49,2.08,2.08,0,0,1,.42,1.39v3.14h-.76v-3a1.61,1.61,0,0,0-.25-1,1,1,0,0,0-.82-.33,1.49,1.49,0,0,0-.43.06,1.14,1.14,0,0,0-.37.17.81.81,0,0,0-.26.29.88.88,0,0,0-.09.41v3.41H169v-3a1.6,1.6,0,0,0-.26-1,.94.94,0,0,0-.8-.33,1.54,1.54,0,0,0-.43.06,1.05,1.05,0,0,0-.37.17.73.73,0,0,0-.26.29.78.78,0,0,0-.1.41v3.41Z"/><path d="M174.65,43.8a.49.49,0,0,1-.36-.12.45.45,0,0,1-.11-.31v-.12a.45.45,0,0,1,.11-.31.6.6,0,0,1,.72,0,.45.45,0,0,1,.11.31v.12a.45.45,0,0,1-.11.31A.49.49,0,0,1,174.65,43.8ZM174.27,45H175v4.9h-.76Z"/><path d="M179.78,49.06h0a1.49,1.49,0,0,1-1.43.9,1.87,1.87,0,0,1-.83-.18,1.73,1.73,0,0,1-.63-.51,2.2,2.2,0,0,1-.4-.81,4.08,4.08,0,0,1,0-2.12,2.2,2.2,0,0,1,.4-.81,1.73,1.73,0,0,1,.63-.51,1.88,1.88,0,0,1,.83-.19,1.67,1.67,0,0,1,.88.23,1.31,1.31,0,0,1,.55.68h0V42.82h.76v7h-.76Zm-1.26.23a1.61,1.61,0,0,0,.49-.07,1.24,1.24,0,0,0,.4-.19,1,1,0,0,0,.27-.32.82.82,0,0,0,.1-.42V46.45a.71.71,0,0,0-.1-.37,1,1,0,0,0-.27-.3,1.25,1.25,0,0,0-.4-.2,1.61,1.61,0,0,0-.49-.07,1.29,1.29,0,0,0-1,.41,1.49,1.49,0,0,0-.37,1.06v.84a1.49,1.49,0,0,0,.37,1.06A1.33,1.33,0,0,0,178.52,49.29Z"/><path d="M185.72,49.85a.74.74,0,0,1-.62-.23,1.13,1.13,0,0,1-.23-.57h-.05a1.24,1.24,0,0,1-.53.69,1.64,1.64,0,0,1-.88.22,1.74,1.74,0,0,1-1.21-.39,1.41,1.41,0,0,1-.43-1.09,1.23,1.23,0,0,1,.5-1.06,2.7,2.7,0,0,1,1.59-.37h1v-.49a1,1,0,0,0-.28-.79,1.18,1.18,0,0,0-.87-.28,1.35,1.35,0,0,0-.75.2,1.59,1.59,0,0,0-.5.53l-.46-.43a1.88,1.88,0,0,1,.64-.68,2.06,2.06,0,0,1,1.1-.28,2,2,0,0,1,1.39.44,1.53,1.53,0,0,1,.49,1.21v2.7h.57v.67Zm-2.19-.53a1.68,1.68,0,0,0,.52-.07,1.2,1.2,0,0,0,.41-.19.89.89,0,0,0,.27-.28.73.73,0,0,0,.09-.35v-.81h-1a1.82,1.82,0,0,0-1,.19.62.62,0,0,0-.3.55v.2a.65.65,0,0,0,.27.56A1.14,1.14,0,0,0,183.53,49.32Z"/><path d="M190.36,49.06h0a1.51,1.51,0,0,1-1.44.9,1.79,1.79,0,0,1-1.46-.69,2.36,2.36,0,0,1-.4-.81,4.39,4.39,0,0,1,0-2.12,2.36,2.36,0,0,1,.4-.81,1.84,1.84,0,0,1,1.46-.7,1.65,1.65,0,0,1,.88.23,1.37,1.37,0,0,1,.56.68h0V42.82h.76v7h-.76Zm-1.26.23a1.61,1.61,0,0,0,.49-.07A1.24,1.24,0,0,0,190,49a.83.83,0,0,0,.27-.32.82.82,0,0,0,.1-.42V46.45a.71.71,0,0,0-.1-.37.77.77,0,0,0-.27-.3,1.25,1.25,0,0,0-.4-.2,1.61,1.61,0,0,0-.49-.07,1.29,1.29,0,0,0-1,.41,1.54,1.54,0,0,0-.37,1.06v.84a1.54,1.54,0,0,0,.37,1.06A1.33,1.33,0,0,0,189.1,49.29Z"/><path d="M194.58,50a2.21,2.21,0,0,1-.91-.18,1.94,1.94,0,0,1-.69-.51,2.65,2.65,0,0,1-.45-.81,3.48,3.48,0,0,1-.15-1.06,3.41,3.41,0,0,1,.15-1,2.59,2.59,0,0,1,.45-.82,1.94,1.94,0,0,1,.69-.51,2.21,2.21,0,0,1,.91-.19,1.93,1.93,0,0,1,.88.19,1.82,1.82,0,0,1,.67.49,2.28,2.28,0,0,1,.42.75,2.93,2.93,0,0,1,.15,1v.36h-3.53v.23a1.58,1.58,0,0,0,.11.58,1.31,1.31,0,0,0,.28.47,1.19,1.19,0,0,0,.46.32,1.66,1.66,0,0,0,.61.11,1.45,1.45,0,0,0,.81-.22,1.43,1.43,0,0,0,.54-.62l.54.39a1.92,1.92,0,0,1-.74.81A2.23,2.23,0,0,1,194.58,50Zm0-4.49a1.48,1.48,0,0,0-.57.11,1.14,1.14,0,0,0-.44.31,1.44,1.44,0,0,0-.29.46,1.63,1.63,0,0,0-.11.59V47h2.71v-.1a1.53,1.53,0,0,0-.35-1A1.24,1.24,0,0,0,194.58,45.47Z"/><path d="M200.18,46.89a6.29,6.29,0,0,1,.13-1.32,6.13,6.13,0,0,1,.37-1.19,5.22,5.22,0,0,1,.54-1,4.22,4.22,0,0,1,.68-.76h.72a4.37,4.37,0,0,0-.72.82,5.37,5.37,0,0,0-.54,1,6.69,6.69,0,0,0-.35,1,4.73,4.73,0,0,0-.12,1v.81a4.68,4.68,0,0,0,.12,1,6.81,6.81,0,0,0,.35,1,6.46,6.46,0,0,0,.55,1,4.23,4.23,0,0,0,.71.8h-.72a3.47,3.47,0,0,1-.67-.74,5,5,0,0,1-.54-1,6.64,6.64,0,0,1-.38-1.19A6.45,6.45,0,0,1,200.18,46.89Z"/><path d="M203.41,49.85v-.7h1.85V43.81h-.07l-1.67,1.56-.46-.51,1.75-1.64h1.25v5.93h1.71v.7Z"/><path d="M211.12,50a1.87,1.87,0,0,1-1.73-.9,4.82,4.82,0,0,1-.55-2.53,4.81,4.81,0,0,1,.55-2.52,1.87,1.87,0,0,1,1.73-.9,1.9,1.9,0,0,1,1.74.9,4.91,4.91,0,0,1,.54,2.52,4.93,4.93,0,0,1-.54,2.53A1.9,1.9,0,0,1,211.12,50Zm0-.7a1.3,1.3,0,0,0,.67-.16,1.27,1.27,0,0,0,.44-.45,2.07,2.07,0,0,0,.25-.7,3.91,3.91,0,0,0,.09-.88V46a4.06,4.06,0,0,0-.09-.89,2.1,2.1,0,0,0-.25-.69,1.27,1.27,0,0,0-.44-.45,1.3,1.3,0,0,0-.67-.16,1.24,1.24,0,0,0-.66.16,1.21,1.21,0,0,0-.45.45,2.35,2.35,0,0,0-.25.69,4.09,4.09,0,0,0-.08.89v1.07a3.94,3.94,0,0,0,.08.88,2.31,2.31,0,0,0,.25.7,1.21,1.21,0,0,0,.45.45A1.24,1.24,0,0,0,211.12,49.26Z"/><path d="M214.63,45.37v-.82h2.48v.82Z"/><path d="M218.64,46.73l1.4-3h-1.47v.64h-.51V43.22h2.58v.49l-1.37,3Z"/><path d="M221.75,42.82h.76v4.46h0l.75-.84L224.69,45h.92l-1.82,1.94,2,3h-.92l-1.63-2.5-.73.75v1.75h-.76Z"/><path d="M230.8,50.4a1.2,1.2,0,0,1-.6,1.11,3.5,3.5,0,0,1-1.78.35,3.25,3.25,0,0,1-1.65-.31,1,1,0,0,1-.51-.89.86.86,0,0,1,.21-.62,1.23,1.23,0,0,1,.57-.33v-.1a.71.71,0,0,1-.43-.68.72.72,0,0,1,.23-.57,1.65,1.65,0,0,1,.61-.29v0a1.59,1.59,0,0,1-.68-.6,1.72,1.72,0,0,1-.24-.91,1.83,1.83,0,0,1,.13-.68,1.51,1.51,0,0,1,.38-.54,1.61,1.61,0,0,1,.58-.35,2.18,2.18,0,0,1,.75-.13,2.12,2.12,0,0,1,.93.2v-.09a.83.83,0,0,1,.14-.48.5.5,0,0,1,.43-.19h.74V45h-.93v.31a1.84,1.84,0,0,1,.41.55,1.66,1.66,0,0,1,.15.72,1.74,1.74,0,0,1-.14.69,1.45,1.45,0,0,1-.37.53,1.65,1.65,0,0,1-.59.35,2.06,2.06,0,0,1-.76.13,2.5,2.5,0,0,1-.47,0,1.53,1.53,0,0,0-.45.19.42.42,0,0,0-.2.36.28.28,0,0,0,.21.29,1.62,1.62,0,0,0,.54.08h1.05a2,2,0,0,1,1.32.35A1.15,1.15,0,0,1,230.8,50.4Zm-.72.05a.56.56,0,0,0-.22-.47,1.29,1.29,0,0,0-.79-.18h-1.64a.7.7,0,0,0-.45.67.74.74,0,0,0,.24.55,1.2,1.2,0,0,0,.82.23h.7a2,2,0,0,0,1-.2A.65.65,0,0,0,230.08,50.45Zm-1.7-2.83a1.15,1.15,0,0,0,.77-.24.86.86,0,0,0,.29-.72V46.4a.86.86,0,0,0-.29-.72,1.15,1.15,0,0,0-.77-.24,1.16,1.16,0,0,0-.77.24.86.86,0,0,0-.28.72v.26a.86.86,0,0,0,.28.72A1.16,1.16,0,0,0,228.38,47.62Z"/><path d="M233.15,50A2.21,2.21,0,0,1,232,49.7a2.63,2.63,0,0,1-.8-.69l.55-.44a2.15,2.15,0,0,0,.63.55,1.69,1.69,0,0,0,.82.2,1.19,1.19,0,0,0,.75-.21.72.72,0,0,0,.28-.59.73.73,0,0,0-.19-.49,1.16,1.16,0,0,0-.67-.28l-.39-.06a3.66,3.66,0,0,1-.63-.14,1.77,1.77,0,0,1-.49-.27,1.12,1.12,0,0,1-.34-.41,1.35,1.35,0,0,1-.12-.59,1.39,1.39,0,0,1,.14-.63,1.22,1.22,0,0,1,.36-.45,1.62,1.62,0,0,1,.56-.27,2.17,2.17,0,0,1,.69-.1,2.15,2.15,0,0,1,1,.21,2.32,2.32,0,0,1,.71.58l-.5.46a1.52,1.52,0,0,0-.48-.41,1.47,1.47,0,0,0-.79-.19,1.06,1.06,0,0,0-.71.21.68.68,0,0,0-.24.55.57.57,0,0,0,.24.52,1.73,1.73,0,0,0,.7.24l.38.06a2,2,0,0,1,1.15.47,1.23,1.23,0,0,1,.35.91,1.42,1.42,0,0,1-.49,1.12A2,2,0,0,1,233.15,50Z"/><path d="M236.06,45.37v-.82h2.48v.82Z"/><path d="M239.72,46.73v-.48h1V43.73l-1,.53-.23-.42,1.19-.62h.65v3h.93v.48Z"/><path d="M245,46.89a6.45,6.45,0,0,1-.14,1.33,5.92,5.92,0,0,1-.37,1.19,5.61,5.61,0,0,1-.55,1,3.44,3.44,0,0,1-.66.74h-.72a4.52,4.52,0,0,0,.69-.8,5.08,5.08,0,0,0,.55-1,6.86,6.86,0,0,0,.36-1,4.7,4.7,0,0,0,.13-1v-.81a4.76,4.76,0,0,0-.13-1,6.65,6.65,0,0,0-.34-1,4.86,4.86,0,0,0-.55-1,4.7,4.7,0,0,0-.71-.82h.72a4.18,4.18,0,0,1,.67.76,5.88,5.88,0,0,1,.55,1,6.13,6.13,0,0,1,.37,1.19A7,7,0,0,1,245,46.89Z"/></svg>