<svg id="Camada_1" data-name="Camada 1" xmlns="http://www.w3.org/2000/svg" viewBox="0 0 320.44 57.45"><defs><style>.cls-1{opacity:0.75;}.cls-2{fill:#fff;}.cls-3{fill:#7eb9e9;}.cls-4{fill:indigo;}.cls-5{fill:#6f38af;}.cls-6{fill:#3d068f;}.cls-7{fill:#1316b4;}.cls-8{fill:#2331c7;}.cls-9{fill:#365fc6;}.cls-10{fill:#466fcf;}.cls-11{fill:#629bd9;}.cls-12{fill:#b4dfa8;}.cls-13{fill:#b0d793;}.cls-14{fill:#debd50;}.cls-15{fill:#d9a449;}.cls-16{fill:#cc7139;}.cls-17{fill:#ca6232;}.cls-18{fill:#8c2918;}.cls-19{fill:#6e1c10;}.cls-20{fill:#7b4bbd;}</style></defs><title>LEGENDAS_PÁGINA_CLIMA_MAIORES</title><g class="cls-1"><path class="cls-2" d="M0,6.38C0,2.86,3.19,0,7.12,0h306.2c3.94,0,7.12,2.86,7.12,6.38V51.07c0,3.52-3.18,6.38-7.12,6.38H7.12C3.19,57.45,0,54.59,0,51.07Z"/></g><path class="cls-3" d="M171.38,23h-5.47a2,2,0,0,1-2.11-2V10.12a2,2,0,0,1,2.11-2h5.47a2,2,0,0,1,2.11,2V21.06A2,2,0,0,1,171.38,23Z"/><path class="cls-4" d="M51.79,23H46.33a2,2,0,0,1-2.11-2V10.12a2,2,0,0,1,2.11-2h5.46a2,2,0,0,1,2.11,2V21.06A2,2,0,0,1,51.79,23Z"/><path class="cls-5" d="M34.71,23H29.24a2,2,0,0,1-2.1-2V10.12a2,2,0,0,1,2.1-2h5.47a2,2,0,0,1,2.11,2V21.06A2,2,0,0,1,34.71,23Z"/><path class="cls-6" d="M68.88,23H63.41a2,2,0,0,1-2.11-2V10.12a2,2,0,0,1,2.11-2h5.47a2,2,0,0,1,2.11,2V21.06A2,2,0,0,1,68.88,23Z"/><path class="cls-7" d="M86,23H80.49a2,2,0,0,1-2.1-2V10.12a2,2,0,0,1,2.1-2H86a2,2,0,0,1,2.11,2V21.06A2,2,0,0,1,86,23Z"/><path class="cls-8" d="M103,23H97.58a2,2,0,0,1-2.11-2V10.12a2,2,0,0,1,2.11-2H103a2,2,0,0,1,2.11,2V21.06A2,2,0,0,1,103,23Z"/><path class="cls-9" d="M120.13,23h-5.47a2,2,0,0,1-2.11-2V10.12a2,2,0,0,1,2.11-2h5.47a2,2,0,0,1,2.11,2V21.06A2,2,0,0,1,120.13,23Z"/><path class="cls-10" d="M137.21,23h-5.47a2,2,0,0,1-2.1-2V10.12a2,2,0,0,1,2.1-2h5.47a2,2,0,0,1,2.11,2V21.06A2,2,0,0,1,137.21,23Z"/><path class="cls-11" d="M154.29,23h-5.46a2,2,0,0,1-2.11-2V10.12a2,2,0,0,1,2.11-2h5.46a2,2,0,0,1,2.11,2V21.06A2,2,0,0,1,154.29,23Z"/><path class="cls-12" d="M188.46,23H183a2,2,0,0,1-2.1-2V10.12a2,2,0,0,1,2.1-2h5.47a2,2,0,0,1,2.11,2V21.06A2,2,0,0,1,188.46,23Z"/><path class="cls-13" d="M205.54,23h-5.46a2,2,0,0,1-2.11-2V10.12a2,2,0,0,1,2.11-2h5.46a2,2,0,0,1,2.11,2V21.06A2,2,0,0,1,205.54,23Z"/><path class="cls-14" d="M222.63,23h-5.47a2,2,0,0,1-2.11-2V10.12a2,2,0,0,1,2.11-2h5.47a2,2,0,0,1,2.11,2V21.06A2,2,0,0,1,222.63,23Z"/><path class="cls-15" d="M239.79,23h-5.47a2,2,0,0,1-2.11-2V10.12a2,2,0,0,1,2.11-2h5.47a2,2,0,0,1,2.11,2V21.06A2,2,0,0,1,239.79,23Z"/><path class="cls-16" d="M257,23h-5.47a2,2,0,0,1-2.11-2V10.12a2,2,0,0,1,2.11-2H257a2,2,0,0,1,2.11,2V21.06A2,2,0,0,1,257,23Z"/><path class="cls-17" d="M274.11,23h-5.47a2,2,0,0,1-2.11-2V10.12a2,2,0,0,1,2.11-2h5.47a2,2,0,0,1,2.11,2V21.06A2,2,0,0,1,274.11,23Z"/><path class="cls-18" d="M291.2,22.91h-5.47a2,2,0,0,1-2.11-2V10a2,2,0,0,1,2.11-2h5.47a2,2,0,0,1,2.1,2V21A2,2,0,0,1,291.2,22.91Z"/><path class="cls-19" d="M308.28,22.91h-5.46a2,2,0,0,1-2.11-2V10a2,2,0,0,1,2.11-2h5.46a2,2,0,0,1,2.11,2V21A2,2,0,0,1,308.28,22.91Z"/><path class="cls-20" d="M17.63,23H12.16a2,2,0,0,1-2.11-2V10.12a2,2,0,0,1,2.11-2h5.47a2,2,0,0,1,2.11,2V21.06A2,2,0,0,1,17.63,23Z"/><path d="M16.4,33.48v-.82h2.48v.82Z"/><path d="M24.6,36H20.25v-.82l2.17-2a4.33,4.33,0,0,0,.77-.91,1.75,1.75,0,0,0,.32-1v-.12a1.25,1.25,0,0,0-.31-.89,1.16,1.16,0,0,0-.92-.35,1.44,1.44,0,0,0-.53.09,1.28,1.28,0,0,0-.39.24,1.35,1.35,0,0,0-.28.35,2.35,2.35,0,0,0-.17.44l-.72-.27a3.33,3.33,0,0,1,.26-.58,2,2,0,0,1,.42-.49,2.12,2.12,0,0,1,.61-.35,2.39,2.39,0,0,1,.84-.13,2.65,2.65,0,0,1,.87.14,1.84,1.84,0,0,1,.63.4,2,2,0,0,1,.4.61,2.13,2.13,0,0,1,.13.78,2.09,2.09,0,0,1-.11.72,3,3,0,0,1-.29.63,3.52,3.52,0,0,1-.47.58c-.18.19-.37.38-.58.57l-1.79,1.61H24.6Z"/><path d="M28.1,36.07a2.3,2.3,0,0,1-.93-.18,1.84,1.84,0,0,1-.7-.5,2.07,2.07,0,0,1-.44-.8,3.25,3.25,0,0,1-.16-1.07,4.55,4.55,0,0,1,.22-1.39,5.69,5.69,0,0,1,.57-1.19,6,6,0,0,1,.76-1,5.9,5.9,0,0,1,.82-.67h1a12.13,12.13,0,0,0-.95.76,6,6,0,0,0-.74.78,5,5,0,0,0-.53.86,5.4,5.4,0,0,0-.35,1l.05,0a2.33,2.33,0,0,1,.61-.68,1.65,1.65,0,0,1,1-.27,2,2,0,0,1,.79.15,1.64,1.64,0,0,1,.62.41,1.74,1.74,0,0,1,.4.64,2.52,2.52,0,0,1,0,1.74,2,2,0,0,1-.44.7,2.21,2.21,0,0,1-.7.45A2.36,2.36,0,0,1,28.1,36.07Zm0-.7A1.26,1.26,0,0,0,29.47,34v-.08a1.25,1.25,0,0,0-1.38-1.39,1.27,1.27,0,0,0-1.39,1.39V34a1.27,1.27,0,0,0,1.39,1.4Z"/><path d="M50.61,33.48v-.82h2.48v.82Z"/><path d="M54.58,36v-.71h1.85V29.91h-.06L54.7,31.47l-.47-.5L56,29.32h1.24v5.93h1.71V36Z"/><path d="M62.3,36.07a3,3,0,0,1-1-.15,2.08,2.08,0,0,1-.72-.4,1.68,1.68,0,0,1-.44-.61,2.1,2.1,0,0,1-.14-.76,1.51,1.51,0,0,1,.37-1.08,1.88,1.88,0,0,1,1-.56v-.08a1.67,1.67,0,0,1-.83-.58,1.55,1.55,0,0,1-.31-1,1.48,1.48,0,0,1,.55-1.21,2.88,2.88,0,0,1,3.09,0,1.48,1.48,0,0,1,.55,1.21,1.61,1.61,0,0,1-.3,1,1.77,1.77,0,0,1-.83.58v.08a1.89,1.89,0,0,1,1,.56,1.51,1.51,0,0,1,.38,1.08,1.91,1.91,0,0,1-.15.76,1.68,1.68,0,0,1-.44.61,2.08,2.08,0,0,1-.72.4A3,3,0,0,1,62.3,36.07Zm0-.7a1.68,1.68,0,0,0,1.07-.31,1.09,1.09,0,0,0,.38-.88V34a1.07,1.07,0,0,0-.38-.88,1.63,1.63,0,0,0-1.07-.31,1.65,1.65,0,0,0-1.08.31,1.07,1.07,0,0,0-.38.88v.19a1.09,1.09,0,0,0,.38.88A1.71,1.71,0,0,0,62.3,35.37Zm0-3.23a1.47,1.47,0,0,0,1-.27.94.94,0,0,0,.32-.77V31a1,1,0,0,0-.32-.77,1.47,1.47,0,0,0-1-.27,1.44,1.44,0,0,0-.95.27A.93.93,0,0,0,61,31v.15a.92.92,0,0,0,.33.77A1.44,1.44,0,0,0,62.3,32.14Z"/><path d="M87.63,33.48v-.82h2.48v.82Z"/><path d="M93.61,36.07a3,3,0,0,1-1-.15,2.12,2.12,0,0,1-.71-.4,1.57,1.57,0,0,1-.44-.61,1.91,1.91,0,0,1-.15-.76,1.55,1.55,0,0,1,.37-1.08,1.92,1.92,0,0,1,1-.56v-.08a1.72,1.72,0,0,1-.83-.58,1.61,1.61,0,0,1-.31-1,1.51,1.51,0,0,1,.55-1.21,2.89,2.89,0,0,1,3.1,0,1.48,1.48,0,0,1,.55,1.21,1.55,1.55,0,0,1-.31,1,1.67,1.67,0,0,1-.83.58v.08a1.92,1.92,0,0,1,1,.56,1.51,1.51,0,0,1,.37,1.08,1.91,1.91,0,0,1-.15.76,1.54,1.54,0,0,1-.43.61,2.17,2.17,0,0,1-.72.4A3,3,0,0,1,93.61,36.07Zm0-.7a1.73,1.73,0,0,0,1.08-.31,1.09,1.09,0,0,0,.38-.88V34a1.07,1.07,0,0,0-.38-.88,1.67,1.67,0,0,0-1.08-.31,1.63,1.63,0,0,0-1.07.31,1.07,1.07,0,0,0-.38.88v.19a1.09,1.09,0,0,0,.38.88A1.68,1.68,0,0,0,93.61,35.37Zm0-3.23a1.44,1.44,0,0,0,1-.27.92.92,0,0,0,.33-.77V31a.93.93,0,0,0-.33-.77,1.44,1.44,0,0,0-1-.27,1.45,1.45,0,0,0-1,.27,1,1,0,0,0-.32.77v.15a.94.94,0,0,0,.32.77A1.45,1.45,0,0,0,93.61,32.14Z"/><path d="M126.06,36.07a1.9,1.9,0,0,1-1.74-.9,5,5,0,0,1-.54-2.53,5,5,0,0,1,.54-2.53,1.9,1.9,0,0,1,1.74-.9,1.87,1.87,0,0,1,1.73.9,4.85,4.85,0,0,1,.55,2.53,4.85,4.85,0,0,1-.55,2.53A1.87,1.87,0,0,1,126.06,36.07Zm0-.7a1.34,1.34,0,0,0,.66-.16,1.17,1.17,0,0,0,.45-.46,2.15,2.15,0,0,0,.25-.69,4,4,0,0,0,.08-.88V32.1a4.06,4.06,0,0,0-.08-.88,2.25,2.25,0,0,0-.25-.69,1.17,1.17,0,0,0-.45-.46,1.34,1.34,0,0,0-.66-.16,1.41,1.41,0,0,0-.67.16,1.22,1.22,0,0,0-.44.46,2.25,2.25,0,0,0-.26.69,4.79,4.79,0,0,0-.08.88v1.08a4.71,4.71,0,0,0,.08.88,2.16,2.16,0,0,0,.26.69,1.22,1.22,0,0,0,.44.46A1.41,1.41,0,0,0,126.06,35.37Z"/><path d="M160.1,36.07a3,3,0,0,1-1-.15,2.08,2.08,0,0,1-.72-.4,1.68,1.68,0,0,1-.44-.61,1.91,1.91,0,0,1-.15-.76,1.55,1.55,0,0,1,.37-1.08,1.92,1.92,0,0,1,1-.56v-.08a1.72,1.72,0,0,1-.83-.58,1.61,1.61,0,0,1-.31-1,1.51,1.51,0,0,1,.55-1.21,2.89,2.89,0,0,1,3.1,0,1.48,1.48,0,0,1,.55,1.21,1.55,1.55,0,0,1-.31,1,1.67,1.67,0,0,1-.83.58v.08a1.92,1.92,0,0,1,1,.56,1.51,1.51,0,0,1,.37,1.08,1.91,1.91,0,0,1-.15.76,1.54,1.54,0,0,1-.43.61,2.17,2.17,0,0,1-.72.4A3,3,0,0,1,160.1,36.07Zm0-.7a1.71,1.71,0,0,0,1.08-.31,1.09,1.09,0,0,0,.38-.88V34a1.07,1.07,0,0,0-.38-.88,1.65,1.65,0,0,0-1.08-.31,1.63,1.63,0,0,0-1.07.31,1.07,1.07,0,0,0-.38.88v.19a1.09,1.09,0,0,0,.38.88A1.68,1.68,0,0,0,160.1,35.37Zm0-3.23a1.44,1.44,0,0,0,1-.27.92.92,0,0,0,.33-.77V31a.93.93,0,0,0-.33-.77,1.44,1.44,0,0,0-1-.27,1.45,1.45,0,0,0-.95.27,1,1,0,0,0-.32.77v.15a.94.94,0,0,0,.32.77A1.45,1.45,0,0,0,160.1,32.14Z"/><path d="M84.17,43.22v5.93h-.8V43.22H81.26v-.7h5v.7Z"/><path d="M88.52,49.26a2.21,2.21,0,0,1-.91-.18,1.86,1.86,0,0,1-.69-.52,2.49,2.49,0,0,1-.45-.8,3.82,3.82,0,0,1,0-2.12,2.43,2.43,0,0,1,.45-.81,1.86,1.86,0,0,1,.69-.52,2.21,2.21,0,0,1,.91-.18,2.07,2.07,0,0,1,.88.18,2,2,0,0,1,.67.5,2.28,2.28,0,0,1,.42.75,2.93,2.93,0,0,1,.15,1v.36H87.11v.22a1.87,1.87,0,0,0,.1.59,1.49,1.49,0,0,0,.29.47,1.17,1.17,0,0,0,.46.31,1.48,1.48,0,0,0,.61.12,1.42,1.42,0,0,0,1.35-.85l.54.39a2,2,0,0,1-.74.82A2.23,2.23,0,0,1,88.52,49.26Zm0-4.49a1.32,1.32,0,0,0-.57.11,1.23,1.23,0,0,0-.44.3,1.61,1.61,0,0,0-.29.47,1.63,1.63,0,0,0-.11.59v.07h2.71V46.2a1.52,1.52,0,0,0-.35-1A1.24,1.24,0,0,0,88.52,44.77Z"/><path d="M91.89,49.15V44.24h.76V45h0a2.43,2.43,0,0,1,.2-.35,1.11,1.11,0,0,1,.63-.48,1.75,1.75,0,0,1,.49-.07,1.85,1.85,0,0,1,.9.23,1.41,1.41,0,0,1,.6.76h0a1.57,1.57,0,0,1,.5-.69,1.52,1.52,0,0,1,1-.3,1.47,1.47,0,0,1,1.18.49A2.07,2.07,0,0,1,98.62,46v3.15h-.76v-3a1.6,1.6,0,0,0-.26-1,1,1,0,0,0-.81-.33,1.56,1.56,0,0,0-.44,0A1.49,1.49,0,0,0,96,45a.89.89,0,0,0-.26.29.93.93,0,0,0-.09.42v3.41h-.76v-3a1.6,1.6,0,0,0-.26-1,1,1,0,0,0-.8-.33,1.61,1.61,0,0,0-.44,0A1.56,1.56,0,0,0,93,45a1.2,1.2,0,0,0-.26.29.93.93,0,0,0-.1.42v3.41Z"/><path d="M100.19,44.24H101V45h0a1.47,1.47,0,0,1,.56-.68,1.64,1.64,0,0,1,.88-.22,1.79,1.79,0,0,1,1.46.69,2.79,2.79,0,0,1,.4.81,4.43,4.43,0,0,1,0,2.13,2.56,2.56,0,0,1-.4.81,1.79,1.79,0,0,1-1.46.69,1.5,1.5,0,0,1-1.44-.9h0v2.69h-.76Zm2,4.35a1.33,1.33,0,0,0,1-.41,1.54,1.54,0,0,0,.37-1.06v-.84a1.56,1.56,0,0,0-.37-1.07,1.32,1.32,0,0,0-1-.4,1.61,1.61,0,0,0-.49.07,1.48,1.48,0,0,0-.4.19,1,1,0,0,0-.27.3.75.75,0,0,0-.1.38v1.83a.85.85,0,0,0,.1.43.8.8,0,0,0,.27.31,1.08,1.08,0,0,0,.4.2A2,2,0,0,0,102.21,48.59Z"/><path d="M107.54,49.26a2.21,2.21,0,0,1-.91-.18,1.86,1.86,0,0,1-.69-.52,2.49,2.49,0,0,1-.45-.8,3.82,3.82,0,0,1,0-2.12,2.43,2.43,0,0,1,.45-.81,1.86,1.86,0,0,1,.69-.52,2.21,2.21,0,0,1,.91-.18,2,2,0,0,1,1.55.68,2.28,2.28,0,0,1,.42.75,2.93,2.93,0,0,1,.15,1v.36h-3.53v.22a1.87,1.87,0,0,0,.1.59,1.33,1.33,0,0,0,.29.47,1.21,1.21,0,0,0,.45.31,1.48,1.48,0,0,0,2-.73l.54.39a2,2,0,0,1-.74.82A2.23,2.23,0,0,1,107.54,49.26Zm0-4.49a1.32,1.32,0,0,0-.57.11,1.23,1.23,0,0,0-.44.3,1.42,1.42,0,0,0-.29.47,1.63,1.63,0,0,0-.11.59v.07h2.71V46.2a1.48,1.48,0,0,0-.36-1A1.2,1.2,0,0,0,107.54,44.77Z"/><path d="M110.91,49.15V44.24h.76v.91h0a1.4,1.4,0,0,1,1.41-.91h.3V45H113a1.66,1.66,0,0,0-1,.23.68.68,0,0,0-.35.58v3.33Z"/><path d="M117.92,49.15a.75.75,0,0,1-.61-.23,1.13,1.13,0,0,1-.23-.57h0a1.26,1.26,0,0,1-.53.68,1.6,1.6,0,0,1-.89.23,1.7,1.7,0,0,1-1.21-.4,1.37,1.37,0,0,1-.43-1.08,1.22,1.22,0,0,1,.51-1.06,2.66,2.66,0,0,1,1.58-.38h1v-.48a1.11,1.11,0,0,0-.28-.8,1.27,1.27,0,0,0-.88-.27,1.22,1.22,0,0,0-.74.2,1.59,1.59,0,0,0-.5.53l-.46-.43a1.73,1.73,0,0,1,.64-.68,2,2,0,0,1,1.1-.28,2.05,2.05,0,0,1,1.39.44,1.52,1.52,0,0,1,.49,1.21v2.69h.56v.68Zm-2.18-.54a2.12,2.12,0,0,0,.52-.06,1.55,1.55,0,0,0,.41-.19.89.89,0,0,0,.26-.29.6.6,0,0,0,.1-.35v-.81h-1a1.91,1.91,0,0,0-1,.19.62.62,0,0,0-.3.56v.2a.68.68,0,0,0,.26.56A1.15,1.15,0,0,0,115.74,48.61Z"/><path d="M120.52,49.15a.79.79,0,0,1-.61-.23.83.83,0,0,1-.2-.58V44.92h-.81v-.68h.46a.47.47,0,0,0,.33-.09.54.54,0,0,0,.1-.35v-.91h.68v1.35h1.07v.68h-1.07v3.55h1v.68Z"/><path d="M125.79,48.36h0a2.68,2.68,0,0,1-.18.33,1.28,1.28,0,0,1-.28.29,1.07,1.07,0,0,1-.38.21,1.77,1.77,0,0,1-.54.07,1.53,1.53,0,0,1-1.2-.49,1.94,1.94,0,0,1-.45-1.38V44.24h.76v3c0,.89.37,1.33,1.12,1.33a1.61,1.61,0,0,0,.44-.06,1.33,1.33,0,0,0,.38-.17.81.81,0,0,0,.37-.72v-3.4h.76v4.91h-.76Z"/><path d="M128.16,49.15V44.24h.76v.91H129a1.44,1.44,0,0,1,.48-.63,1.46,1.46,0,0,1,.94-.28h.29V45h-.45a1.66,1.66,0,0,0-1,.23.68.68,0,0,0-.35.58v3.33Z"/><path d="M135.17,49.15a.75.75,0,0,1-.61-.23,1.13,1.13,0,0,1-.23-.57h-.05a1.26,1.26,0,0,1-.53.68,1.58,1.58,0,0,1-.88.23,1.73,1.73,0,0,1-1.22-.4,1.41,1.41,0,0,1-.43-1.08,1.22,1.22,0,0,1,.51-1.06,2.68,2.68,0,0,1,1.58-.38h1v-.48a1.07,1.07,0,0,0-.28-.8,1.52,1.52,0,0,0-1.62-.07,1.59,1.59,0,0,0-.5.53l-.46-.43a1.73,1.73,0,0,1,.64-.68,2,2,0,0,1,1.1-.28,2.05,2.05,0,0,1,1.39.44,1.52,1.52,0,0,1,.49,1.21v2.69h.56v.68ZM133,48.61a2.12,2.12,0,0,0,.52-.06,1.42,1.42,0,0,0,.41-.19,1.06,1.06,0,0,0,.27-.29.68.68,0,0,0,.09-.35v-.81h-1a1.91,1.91,0,0,0-1,.19.62.62,0,0,0-.3.56v.2a.68.68,0,0,0,.26.56A1.17,1.17,0,0,0,133,48.61Z"/><path d="M142.06,48.36h0a1.48,1.48,0,0,1-1.43.9,1.9,1.9,0,0,1-.83-.18,1.82,1.82,0,0,1-.63-.51,2.36,2.36,0,0,1-.4-.81,4.12,4.12,0,0,1,0-2.13,2.56,2.56,0,0,1,.4-.81,1.82,1.82,0,0,1,.63-.51,1.9,1.9,0,0,1,.83-.18,1.67,1.67,0,0,1,.88.22A1.39,1.39,0,0,1,142,45h0V42.12h.76v7h-.76Zm-1.26.23a2,2,0,0,0,.49-.07,1.08,1.08,0,0,0,.4-.2A.89.89,0,0,0,142,48a.85.85,0,0,0,.1-.43V45.75a.75.75,0,0,0-.1-.38,1.08,1.08,0,0,0-.27-.3,1.48,1.48,0,0,0-.4-.19,1.61,1.61,0,0,0-.49-.07,1.32,1.32,0,0,0-1,.4,1.52,1.52,0,0,0-.37,1.07v.84a1.49,1.49,0,0,0,.37,1.06A1.33,1.33,0,0,0,140.8,48.59Z"/><path d="M146.29,49.26a2.19,2.19,0,0,1-.9-.18,1.81,1.81,0,0,1-.7-.52,2.31,2.31,0,0,1-.45-.8,3.59,3.59,0,0,1,0-2.12,2.27,2.27,0,0,1,.45-.81,1.81,1.81,0,0,1,.7-.52,2.34,2.34,0,0,1,1.8,0,1.86,1.86,0,0,1,.69.52,2.29,2.29,0,0,1,.46.81,3.59,3.59,0,0,1,0,2.12,2.33,2.33,0,0,1-.46.8,1.86,1.86,0,0,1-.69.52A2.19,2.19,0,0,1,146.29,49.26Zm0-.67a1.41,1.41,0,0,0,1-.38,1.56,1.56,0,0,0,.39-1.16v-.71a1.54,1.54,0,0,0-.39-1.15,1.53,1.53,0,0,0-2,0,1.54,1.54,0,0,0-.39,1.15v.71a1.56,1.56,0,0,0,.39,1.16A1.41,1.41,0,0,0,146.29,48.59Z"/><path d="M156.23,49.15l-.67-2h-2.68l-.66,2h-.81l2.32-6.63h1l2.32,6.63Zm-2-5.89h-.05l-1.12,3.23h2.29Z"/><path d="M158.09,49.15V44.24h.76v.91h.05a1.42,1.42,0,0,1,.47-.63,1.48,1.48,0,0,1,.94-.28h.3V45h-.45a1.66,1.66,0,0,0-1,.23.66.66,0,0,0-.35.58v3.33Z"/><path d="M165.66,49.26a2.21,2.21,0,0,1-.91-.18,1.86,1.86,0,0,1-.69-.52,2.49,2.49,0,0,1-.45-.8,3.82,3.82,0,0,1,0-2.12,2.43,2.43,0,0,1,.45-.81,1.86,1.86,0,0,1,.69-.52,2.21,2.21,0,0,1,.91-.18,2.07,2.07,0,0,1,.88.18,2,2,0,0,1,.67.5,2.28,2.28,0,0,1,.42.75,2.93,2.93,0,0,1,.15,1v.36h-3.53v.22a1.87,1.87,0,0,0,.1.59,1.49,1.49,0,0,0,.29.47,1.21,1.21,0,0,0,.45.31,1.56,1.56,0,0,0,.62.12,1.42,1.42,0,0,0,1.35-.85l.54.39a2,2,0,0,1-.74.82A2.23,2.23,0,0,1,165.66,49.26Zm0-4.49a1.32,1.32,0,0,0-.57.11,1.23,1.23,0,0,0-.44.3,1.61,1.61,0,0,0-.29.47,1.63,1.63,0,0,0-.11.59v.07H167V46.2a1.52,1.52,0,0,0-.35-1A1.24,1.24,0,0,0,165.66,44.77Z"/><path d="M169,49.15V44.24h.76V45h0a2.43,2.43,0,0,1,.2-.35,1.11,1.11,0,0,1,.63-.48,1.75,1.75,0,0,1,.49-.07,1.82,1.82,0,0,1,.89.23,1.38,1.38,0,0,1,.61.76h0a1.57,1.57,0,0,1,.5-.69,1.52,1.52,0,0,1,1-.3,1.48,1.48,0,0,1,1.18.49,2.07,2.07,0,0,1,.42,1.38v3.15H175v-3a1.6,1.6,0,0,0-.26-1,1,1,0,0,0-.81-.33,1.56,1.56,0,0,0-.44,0,1.49,1.49,0,0,0-.36.17.89.89,0,0,0-.26.29.93.93,0,0,0-.09.42v3.41H172v-3a1.6,1.6,0,0,0-.26-1,1,1,0,0,0-.8-.33,1.61,1.61,0,0,0-.44,0,1.4,1.4,0,0,0-.37.17,1.2,1.2,0,0,0-.26.29.93.93,0,0,0-.1.42v3.41Z"/><path d="M183.82,49.15h-4.35v-.82l2.17-2a5,5,0,0,0,.78-.91,1.79,1.79,0,0,0,.31-1v-.12a1.31,1.31,0,0,0-.3-.89,1.17,1.17,0,0,0-.92-.34,1.5,1.5,0,0,0-.54.08,1.28,1.28,0,0,0-.39.24,1.6,1.6,0,0,0-.28.35,2.2,2.2,0,0,0-.17.45l-.71-.28a2.44,2.44,0,0,1,.26-.57,1.83,1.83,0,0,1,.42-.5,2.06,2.06,0,0,1,.6-.35,2.65,2.65,0,0,1,.84-.13,2.56,2.56,0,0,1,.87.14,1.84,1.84,0,0,1,.63.4,1.66,1.66,0,0,1,.4.61,2.13,2.13,0,0,1,.14.78,2.36,2.36,0,0,1-.11.72,3,3,0,0,1-.3.63,4.1,4.1,0,0,1-.46.59,7.91,7.91,0,0,1-.59.56l-1.78,1.61h3.48Z"/><path d="M187.51,49.15V44.24h.76V45h0a3.9,3.9,0,0,1,.19-.35,1.86,1.86,0,0,1,.27-.29,1.37,1.37,0,0,1,.36-.19,1.83,1.83,0,0,1,1.39.16,1.43,1.43,0,0,1,.61.76h0a1.48,1.48,0,0,1,1.49-1,1.45,1.45,0,0,1,1.17.49,2,2,0,0,1,.43,1.38v3.15h-.76v-3a1.6,1.6,0,0,0-.26-1,1,1,0,0,0-.82-.33,1.54,1.54,0,0,0-.43,0,1.33,1.33,0,0,0-.36.17.89.89,0,0,0-.26.29.93.93,0,0,0-.1.42v3.41h-.76v-3a1.61,1.61,0,0,0-.25-1,1,1,0,0,0-.8-.33,1.61,1.61,0,0,0-.44,0,1.4,1.4,0,0,0-.37.17,1,1,0,0,0-.26.29.82.82,0,0,0-.1.42v3.41Z"/><path d="M197.65,49.26a2.21,2.21,0,0,1-.91-.18,1.86,1.86,0,0,1-.69-.52,2.16,2.16,0,0,1-.45-.8,3.59,3.59,0,0,1,0-2.12,2.13,2.13,0,0,1,.45-.81,1.86,1.86,0,0,1,.69-.52,2.21,2.21,0,0,1,.91-.18,2,2,0,0,1,1.55.68,2.28,2.28,0,0,1,.42.75,2.93,2.93,0,0,1,.14,1v.36h-3.52v.22a1.63,1.63,0,0,0,.1.59,1.33,1.33,0,0,0,.29.47,1.21,1.21,0,0,0,.45.31,1.51,1.51,0,0,0,.61.12,1.57,1.57,0,0,0,.82-.22,1.43,1.43,0,0,0,.53-.63l.55.39a1.91,1.91,0,0,1-.75.82A2.18,2.18,0,0,1,197.65,49.26Zm0-4.49a1.32,1.32,0,0,0-.57.11,1.37,1.37,0,0,0-.45.3,1.5,1.5,0,0,0-.39,1.06v.07H199V46.2a1.48,1.48,0,0,0-.36-1A1.21,1.21,0,0,0,197.65,44.77Z"/><path d="M202.1,49.15a.78.78,0,0,1-.6-.23.79.79,0,0,1-.21-.58V44.92h-.8v-.68h.45a.48.48,0,0,0,.34-.09.54.54,0,0,0,.09-.35v-.91h.68v1.35h1.08v.68h-1.08v3.55h1v.68Z"/><path d="M204.35,49.15V44.24h.76v.91h0a1.44,1.44,0,0,1,.48-.63,1.48,1.48,0,0,1,.94-.28h.29V45h-.44a1.68,1.68,0,0,0-1,.23.68.68,0,0,0-.35.58v3.33Z"/><path d="M209.65,49.26a2.27,2.27,0,0,1-.91-.18,1.86,1.86,0,0,1-.69-.52,2.33,2.33,0,0,1-.46-.8,3.59,3.59,0,0,1,0-2.12,2.29,2.29,0,0,1,.46-.81,1.86,1.86,0,0,1,.69-.52,2.27,2.27,0,0,1,.91-.18,2.14,2.14,0,0,1,.89.18,1.89,1.89,0,0,1,.7.52,2.29,2.29,0,0,1,.46.81,3.59,3.59,0,0,1,0,2.12,2.33,2.33,0,0,1-.46.8,1.89,1.89,0,0,1-.7.52A2.14,2.14,0,0,1,209.65,49.26Zm0-.67a1.38,1.38,0,0,0,1-.38,1.56,1.56,0,0,0,.39-1.16v-.71a1.54,1.54,0,0,0-.39-1.15,1.52,1.52,0,0,0-2,0,1.54,1.54,0,0,0-.39,1.15v.71a1.56,1.56,0,0,0,.39,1.16A1.39,1.39,0,0,0,209.65,48.59Z"/><path d="M214.59,49.26a2.36,2.36,0,0,1-1.15-.26,2.51,2.51,0,0,1-.79-.7l.54-.44a2,2,0,0,0,.64.56,1.62,1.62,0,0,0,.81.19,1.21,1.21,0,0,0,.76-.2.71.71,0,0,0,.27-.59.67.67,0,0,0-.19-.49,1.08,1.08,0,0,0-.67-.28l-.39-.06a3,3,0,0,1-.62-.15,1.58,1.58,0,0,1-.5-.26,1.14,1.14,0,0,1-.33-.42,1.32,1.32,0,0,1-.12-.59,1.39,1.39,0,0,1,.13-.63,1.24,1.24,0,0,1,.37-.45,1.57,1.57,0,0,1,.55-.27,2.63,2.63,0,0,1,.7-.09,2.15,2.15,0,0,1,1,.21,2.3,2.3,0,0,1,.71.58l-.51.46a1.39,1.39,0,0,0-.47-.42,1.57,1.57,0,0,0-.79-.18,1.12,1.12,0,0,0-.72.2.7.7,0,0,0-.24.56.58.58,0,0,0,.24.52,1.78,1.78,0,0,0,.7.24l.38.05a2.13,2.13,0,0,1,1.16.47,1.25,1.25,0,0,1,.34.91,1.38,1.38,0,0,1-.48,1.12A2,2,0,0,1,214.59,49.26Z"/><path d="M220,46.18a6.43,6.43,0,0,1,.14-1.32,6.78,6.78,0,0,1,.36-1.18,5.88,5.88,0,0,1,.55-1,4.18,4.18,0,0,1,.67-.76h.73a4.64,4.64,0,0,0-.72.81,6.14,6.14,0,0,0-.54,1,5.88,5.88,0,0,0-.35,1,4.57,4.57,0,0,0-.12,1v.82a4.75,4.75,0,0,0,.12,1,5.8,5.8,0,0,0,.9,2,4.56,4.56,0,0,0,.71.8h-.73a4,4,0,0,1-.66-.74,5.61,5.61,0,0,1-.55-1,6.9,6.9,0,0,1-.37-1.19A6.48,6.48,0,0,1,220,46.18Z"/><path d="M224.25,45.82a1.34,1.34,0,0,1-1.08-.45,2.23,2.23,0,0,1,0-2.52,1.34,1.34,0,0,1,1.08-.45,1.35,1.35,0,0,1,1.08.45,2.23,2.23,0,0,1,0,2.52A1.35,1.35,0,0,1,224.25,45.82Zm0-.49a.75.75,0,0,0,.62-.26,1,1,0,0,0,.2-.66v-.59a1,1,0,0,0-.2-.67.75.75,0,0,0-.62-.25.73.73,0,0,0-.62.25,1,1,0,0,0-.21.67v.59a1,1,0,0,0,.21.66A.74.74,0,0,0,224.25,45.33Z"/><path d="M229.36,49.26a2.42,2.42,0,0,1-2-.86,3.91,3.91,0,0,1-.7-2.53,4.08,4.08,0,0,1,.7-2.57,2.36,2.36,0,0,1,2-.9,2.48,2.48,0,0,1,1.4.38,2.41,2.41,0,0,1,.88,1.07l-.65.39a1.77,1.77,0,0,0-.61-.83,1.67,1.67,0,0,0-1-.3,1.74,1.74,0,0,0-.77.16,1.68,1.68,0,0,0-.57.46,2.2,2.2,0,0,0-.35.72,3.24,3.24,0,0,0-.13.92v1A2.47,2.47,0,0,0,228,48a1.65,1.65,0,0,0,1.34.58,1.68,1.68,0,0,0,1.06-.33,1.86,1.86,0,0,0,.63-.87l.64.4a2.48,2.48,0,0,1-.91,1.1A2.42,2.42,0,0,1,229.36,49.26Z"/><path d="M234.43,46.18a5.86,5.86,0,0,1-.14,1.34,6.13,6.13,0,0,1-.37,1.19,5,5,0,0,1-.54,1,3.73,3.73,0,0,1-.67.74H232a4.51,4.51,0,0,0,.7-.8,6.57,6.57,0,0,0,.55-1,5.78,5.78,0,0,0,.35-1,4.23,4.23,0,0,0,.13-1v-.82a4.57,4.57,0,0,0-.12-1,6.81,6.81,0,0,0-.35-1,6.14,6.14,0,0,0-.54-1,4.64,4.64,0,0,0-.72-.81h.72a4.22,4.22,0,0,1,.68.76,5.22,5.22,0,0,1,.54,1,6,6,0,0,1,.37,1.18A6.42,6.42,0,0,1,234.43,46.18Z"/><path d="M189.45,36v-.71h1.85V29.91h-.07l-1.67,1.56-.46-.5,1.75-1.65h1.25v5.93h1.71V36Z"/><path d="M197.17,36.07a2.25,2.25,0,0,1-.92-.18,1.87,1.87,0,0,1-.71-.5,2.21,2.21,0,0,1-.44-.8,3.55,3.55,0,0,1-.15-1.07,4.26,4.26,0,0,1,.22-1.39,5.2,5.2,0,0,1,.56-1.19,6,6,0,0,1,.77-1,6.5,6.5,0,0,1,.81-.67h1c-.35.26-.67.52-1,.76a5.88,5.88,0,0,0-.73.78,4,4,0,0,0-.53.86,4.3,4.3,0,0,0-.35,1l0,0a2.37,2.37,0,0,1,.62-.68,1.63,1.63,0,0,1,1-.27,2.06,2.06,0,0,1,.79.15,1.72,1.72,0,0,1,.62.41,1.88,1.88,0,0,1,.4.64,2.34,2.34,0,0,1,.15.85,2.56,2.56,0,0,1-.16.89,1.92,1.92,0,0,1-.45.7,2,2,0,0,1-.7.45A2.36,2.36,0,0,1,197.17,36.07Zm0-.7a1.27,1.27,0,0,0,1.39-1.4v-.08a1.27,1.27,0,0,0-1.39-1.39,1.25,1.25,0,0,0-1.38,1.39V34a1.41,1.41,0,0,0,.36,1A1.4,1.4,0,0,0,197.16,35.37Z"/><path d="M228,36h-4.35v-.82l2.17-2a4.33,4.33,0,0,0,.77-.91,1.75,1.75,0,0,0,.32-1v-.12a1.25,1.25,0,0,0-.31-.89,1.16,1.16,0,0,0-.92-.35,1.44,1.44,0,0,0-.53.09,1.28,1.28,0,0,0-.39.24,1.17,1.17,0,0,0-.28.35,3.38,3.38,0,0,0-.18.44l-.71-.27a3.33,3.33,0,0,1,.26-.58,2,2,0,0,1,.42-.49,2.12,2.12,0,0,1,.61-.35,2.39,2.39,0,0,1,.84-.13,2.65,2.65,0,0,1,.87.14,1.84,1.84,0,0,1,.63.4,2,2,0,0,1,.4.61,2.13,2.13,0,0,1,.13.78,2.09,2.09,0,0,1-.11.72,3,3,0,0,1-.29.63,4.12,4.12,0,0,1-.47.58c-.18.19-.37.38-.58.57l-1.79,1.61H228Z"/><path d="M231.12,32.12a1.44,1.44,0,0,0,1-.31,1,1,0,0,0,.34-.79V31a1,1,0,0,0-.33-.78,1.38,1.38,0,0,0-.86-.26,1.46,1.46,0,0,0-.84.23,1.82,1.82,0,0,0-.53.6l-.59-.46a2.55,2.55,0,0,1,.3-.39,2.25,2.25,0,0,1,.41-.34,2.78,2.78,0,0,1,.55-.25,2.63,2.63,0,0,1,.72-.09,2.9,2.9,0,0,1,.79.11,1.92,1.92,0,0,1,.64.32,1.58,1.58,0,0,1,.58,1.23,1.5,1.5,0,0,1-.1.58,1.68,1.68,0,0,1-.27.45,1.82,1.82,0,0,1-.4.32,2.18,2.18,0,0,1-.5.2v0a1.89,1.89,0,0,1,1,.52,1.71,1.71,0,0,1,.32.5,1.94,1.94,0,0,1,.11.66,1.86,1.86,0,0,1-.16.79,1.7,1.7,0,0,1-.45.61,2.28,2.28,0,0,1-.72.4,3.16,3.16,0,0,1-1.68,0,2.64,2.64,0,0,1-.59-.26,2,2,0,0,1-.45-.36A3.21,3.21,0,0,1,229,35l.59-.46a2.14,2.14,0,0,0,.28.36,1.43,1.43,0,0,0,.32.28,2.2,2.2,0,0,0,.41.18,2.09,2.09,0,0,0,.53.06,1.59,1.59,0,0,0,1.07-.32,1.18,1.18,0,0,0,.36-.92v-.07a1.18,1.18,0,0,0-.36-.92,1.59,1.59,0,0,0-1.07-.32h-.78v-.7Z"/><path d="M262.14,35.51h-4.35v-.82l2.17-2a4.6,4.6,0,0,0,.77-.91,1.8,1.8,0,0,0,.32-1V30.7a1.27,1.27,0,0,0-.31-.89,1.16,1.16,0,0,0-.92-.34,1.44,1.44,0,0,0-.53.08,1.28,1.28,0,0,0-.39.24,1.25,1.25,0,0,0-.28.36,1.92,1.92,0,0,0-.17.44l-.72-.28a2.94,2.94,0,0,1,.26-.57,1.83,1.83,0,0,1,.42-.5,2.12,2.12,0,0,1,.61-.35,2.65,2.65,0,0,1,.84-.13,2.41,2.41,0,0,1,.87.15,1.68,1.68,0,0,1,.63.39,2,2,0,0,1,.4.61,2.2,2.2,0,0,1,.13.78,2.09,2.09,0,0,1-.11.72,3,3,0,0,1-.29.63,3.57,3.57,0,0,1-.47.59c-.18.19-.37.38-.58.57l-1.79,1.6h3.49Z"/><path d="M264.44,35.51,267,29.56h-2.83V30.8h-.72V28.88h4.35v.7l-2.49,5.93Z"/><path d="M293.93,31.56a1.42,1.42,0,0,0,1-.31,1,1,0,0,0,.34-.79V30.4a1,1,0,0,0-.33-.79,1.35,1.35,0,0,0-.86-.25,1.4,1.4,0,0,0-.83.22,1.74,1.74,0,0,0-.54.6l-.58-.45a2.7,2.7,0,0,1,.29-.4,2,2,0,0,1,.42-.34,2.13,2.13,0,0,1,.55-.24,2.21,2.21,0,0,1,.71-.1,2.9,2.9,0,0,1,.79.11,1.83,1.83,0,0,1,.64.32,1.6,1.6,0,0,1,.43.53,1.61,1.61,0,0,1,.16.71,1.7,1.7,0,0,1-.1.57,1.68,1.68,0,0,1-.27.45,1.88,1.88,0,0,1-.41.32,2,2,0,0,1-.5.2v0a2,2,0,0,1,.52.18,1.67,1.67,0,0,1,.45.34,1.52,1.52,0,0,1,.31.49,1.76,1.76,0,0,1,.12.66,2,2,0,0,1-.16.79,1.73,1.73,0,0,1-.46.61,2.22,2.22,0,0,1-.71.4,3,3,0,0,1-.92.14,2.88,2.88,0,0,1-.76-.09,2.11,2.11,0,0,1-.59-.26,2.25,2.25,0,0,1-.45-.35,3.39,3.39,0,0,1-.35-.42l.6-.46a2.07,2.07,0,0,0,.27.37,2.16,2.16,0,0,0,.33.27,1.28,1.28,0,0,0,.41.18,2.09,2.09,0,0,0,.53.06,1.56,1.56,0,0,0,1.06-.32,1.18,1.18,0,0,0,.36-.92V33.5a1.18,1.18,0,0,0-.36-.92,1.56,1.56,0,0,0-1.06-.32h-.78v-.7Z"/><path d="M302.22,35.4h-4.36v-.82l2.17-2a5,5,0,0,0,.78-.91,1.79,1.79,0,0,0,.31-1v-.12a1.31,1.31,0,0,0-.3-.89,1.16,1.16,0,0,0-.92-.34,1.41,1.41,0,0,0-.53.08,1.22,1.22,0,0,0-.4.24,1.31,1.31,0,0,0-.27.35,1.77,1.77,0,0,0-.18.45l-.71-.28a2.44,2.44,0,0,1,.26-.57,1.83,1.83,0,0,1,.42-.5,2.06,2.06,0,0,1,.6-.35,2.65,2.65,0,0,1,.84-.13,2.56,2.56,0,0,1,.87.14,2,2,0,0,1,.64.4,1.77,1.77,0,0,1,.39.61,2.13,2.13,0,0,1,.14.78,2.36,2.36,0,0,1-.11.72,2.6,2.6,0,0,1-.3.63,4.1,4.1,0,0,1-.46.59,7.91,7.91,0,0,1-.59.56l-1.78,1.61h3.49Z"/></svg>