<svg id="Camada_1" data-name="Camada 1" xmlns="http://www.w3.org/2000/svg" viewBox="0 0 340.8 57.45"><defs><style>.cls-1{opacity:0.75;}.cls-2{fill:#fff;}.cls-3{fill:#939393;}.cls-4{fill:#a50000;}.cls-5{fill:#830000;}.cls-6{fill:brown;}.cls-7{fill:#0048ab;}.cls-8{fill:#001476;}.cls-9{fill:#00074c;}.cls-10{fill:#0067c6;}.cls-11{fill:#0090d7;}.cls-12{fill:#00a0db;}.cls-13{fill:#00c4e1;}.cls-14{fill:#5ce1ee;}.cls-15{fill:#c0f6ff;}.cls-16{fill:#ffdcde;}.cls-17{fill:#ffb59e;}.cls-18{fill:#ff834b;}.cls-19{fill:#ff4100;}.cls-20{fill:red;}.cls-21{fill:#e30000;}</style></defs><title>LEGENDAS_PÁGINA_CLIMA_MAIORES</title><g class="cls-1"><path class="cls-2" d="M0,6.38C0,2.86,3.39,0,7.57,0h325.6c4.18,0,7.57,2.86,7.57,6.38V51.07c0,3.52-3.39,6.38-7.57,6.38H7.57C3.39,57.45,0,54.59,0,51.07Z"/></g><path class="cls-2" d="M171.75,23h-5.47a2,2,0,0,1-2.11-2V10.13a2,2,0,0,1,2.11-2h5.47a2,2,0,0,1,2.11,2V21.06A2,2,0,0,1,171.75,23Z"/><path class="cls-3" d="M171.75,23.28h-5.47a2.3,2.3,0,0,1-2.36-2.22V10.12a2.29,2.29,0,0,1,2.36-2.21h5.47a2.29,2.29,0,0,1,2.36,2.21V21.06A2.3,2.3,0,0,1,171.75,23.28ZM166.28,8.41a1.79,1.79,0,0,0-1.86,1.71V21.06a1.8,1.8,0,0,0,1.86,1.72h5.47a1.81,1.81,0,0,0,1.86-1.72V10.12a1.8,1.8,0,0,0-1.86-1.71Z"/><path class="cls-4" d="M292,23h-5.47a2,2,0,0,1-2.11-2V10.13a2,2,0,0,1,2.11-2H292a2,2,0,0,1,2.11,2V21.06A2,2,0,0,1,292,23Z"/><path class="cls-5" d="M309,23h-5.47a2,2,0,0,1-2.11-2V10.13a2,2,0,0,1,2.11-2H309a2,2,0,0,1,2.11,2V21.06A2,2,0,0,1,309,23Z"/><path class="cls-6" d="M326.1,23h-5.47a2,2,0,0,1-2.11-2V10.13a2,2,0,0,1,2.11-2h5.47a2,2,0,0,1,2.11,2V21.06A2,2,0,0,1,326.1,23Z"/><path class="cls-7" d="M51.84,23H46.38a2,2,0,0,1-2.11-2V10.13a2,2,0,0,1,2.11-2h5.46a2,2,0,0,1,2.11,2V21.06A2,2,0,0,1,51.84,23Z"/><path class="cls-8" d="M34.76,23H29.29a2,2,0,0,1-2.11-2V10.13a2,2,0,0,1,2.11-2h5.47a2,2,0,0,1,2.11,2V21.06A2,2,0,0,1,34.76,23Z"/><path class="cls-9" d="M17.6,23H12.13a2,2,0,0,1-2.11-2V10.13a2,2,0,0,1,2.11-2H17.6a2,2,0,0,1,2.1,2V21.06A2,2,0,0,1,17.6,23Z"/><path class="cls-10" d="M68.93,23H63.47a2,2,0,0,1-2.11-2V10.13a2,2,0,0,1,2.11-2h5.46a2,2,0,0,1,2.11,2V21.06A2,2,0,0,1,68.93,23Z"/><path class="cls-11" d="M86,23H80.55a2,2,0,0,1-2.1-2V10.13a2,2,0,0,1,2.1-2H86a2,2,0,0,1,2.11,2V21.06A2,2,0,0,1,86,23Z"/><path class="cls-12" d="M103.1,23H97.63a2,2,0,0,1-2.1-2V10.13a2,2,0,0,1,2.1-2h5.47a2,2,0,0,1,2.11,2V21.06A2,2,0,0,1,103.1,23Z"/><path class="cls-13" d="M120.19,23h-5.47a2,2,0,0,1-2.11-2V10.13a2,2,0,0,1,2.11-2h5.47a2,2,0,0,1,2.11,2V21.06A2,2,0,0,1,120.19,23Z"/><path class="cls-14" d="M137.35,23h-5.47a2,2,0,0,1-2.11-2V10.13a2,2,0,0,1,2.11-2h5.47a2,2,0,0,1,2.11,2V21.06A2,2,0,0,1,137.35,23Z"/><path class="cls-15" d="M154.51,23H149a2,2,0,0,1-2.1-2V10.13a2,2,0,0,1,2.1-2h5.47a2,2,0,0,1,2.11,2V21.06A2,2,0,0,1,154.51,23Z"/><path class="cls-16" d="M188.91,23h-5.47a2,2,0,0,1-2.11-2V10.13a2,2,0,0,1,2.11-2h5.47a2,2,0,0,1,2.11,2V21.06A2,2,0,0,1,188.91,23Z"/><path class="cls-17" d="M206.07,23H200.6a2,2,0,0,1-2.11-2V10.13a2,2,0,0,1,2.11-2h5.47a2,2,0,0,1,2.11,2V21.06A2,2,0,0,1,206.07,23Z"/><path class="cls-18" d="M223.32,23h-5.47a2,2,0,0,1-2.11-2V10.13a2,2,0,0,1,2.11-2h5.47a2,2,0,0,1,2.11,2V21.06A2,2,0,0,1,223.32,23Z"/><path class="cls-19" d="M240.48,23H235a2,2,0,0,1-2.11-2V10.13a2,2,0,0,1,2.11-2h5.47a2,2,0,0,1,2.11,2V21.06A2,2,0,0,1,240.48,23Z"/><path class="cls-20" d="M257.64,23h-5.47a2,2,0,0,1-2.11-2V10.13a2,2,0,0,1,2.11-2h5.47a2,2,0,0,1,2.11,2V21.06A2,2,0,0,1,257.64,23Z"/><path class="cls-21" d="M274.8,23h-5.47a2,2,0,0,1-2.11-2V10.13a2,2,0,0,1,2.11-2h5.47a2,2,0,0,1,2.11,2V21.06A2,2,0,0,1,274.8,23Z"/><path d="M94.19,50.06V43.43h2.64a1.78,1.78,0,0,1,1.37.51,2.25,2.25,0,0,1,0,2.78,1.78,1.78,0,0,1-1.37.51H95v2.83Zm.8-3.53h1.84a1.07,1.07,0,0,0,.74-.25.93.93,0,0,0,.26-.7v-.5a.93.93,0,0,0-.26-.7,1.07,1.07,0,0,0-.74-.25H95Z"/><path d="M99.78,50.06v-4.9h.76v.9h0a1.56,1.56,0,0,1,.48-.63,1.48,1.48,0,0,1,.94-.27h.29v.76h-.44a1.81,1.81,0,0,0-1,.23.69.69,0,0,0-.34.59v3.32Z"/><path d="M105.06,50.18a2.21,2.21,0,0,1-.91-.19,1.94,1.94,0,0,1-.69-.51,2.46,2.46,0,0,1-.45-.81,3.47,3.47,0,0,1-.16-1.06,3.4,3.4,0,0,1,.16-1,2.41,2.41,0,0,1,.45-.82,1.94,1.94,0,0,1,.69-.51,2.21,2.21,0,0,1,.91-.18,2.07,2.07,0,0,1,.88.18,2,2,0,0,1,.67.49,2.23,2.23,0,0,1,.42.76,2.87,2.87,0,0,1,.15,1v.36h-3.53V48a1.81,1.81,0,0,0,.1.58,1.33,1.33,0,0,0,.29.47,1.23,1.23,0,0,0,.45.32,1.71,1.71,0,0,0,.62.11,1.45,1.45,0,0,0,.81-.22,1.33,1.33,0,0,0,.53-.63l.55.4a1.87,1.87,0,0,1-.74.81A2.24,2.24,0,0,1,105.06,50.18Zm0-4.5a1.48,1.48,0,0,0-.57.11,1.25,1.25,0,0,0-.44.31,1.38,1.38,0,0,0-.29.46,1.63,1.63,0,0,0-.11.59v.07h2.71v-.1a1.49,1.49,0,0,0-.36-1A1.2,1.2,0,0,0,105.06,45.68Z"/><path d="M109.9,50.18a2.24,2.24,0,0,1-1.14-.27,2.48,2.48,0,0,1-.79-.69l.54-.44a2.15,2.15,0,0,0,.63.55,1.69,1.69,0,0,0,.82.2,1.23,1.23,0,0,0,.76-.21.71.71,0,0,0,.27-.59.69.69,0,0,0-.19-.49,1.16,1.16,0,0,0-.67-.28l-.39-.06a3.54,3.54,0,0,1-.62-.14,1.83,1.83,0,0,1-.5-.27,1.12,1.12,0,0,1-.34-.41,1.35,1.35,0,0,1-.11-.59,1.39,1.39,0,0,1,.13-.63,1.33,1.33,0,0,1,.36-.45,1.62,1.62,0,0,1,.56-.27,2.21,2.21,0,0,1,.69-.09,2.19,2.19,0,0,1,1,.2,2.41,2.41,0,0,1,.7.58l-.5.46a1.52,1.52,0,0,0-.48-.41,1.43,1.43,0,0,0-.78-.19,1.07,1.07,0,0,0-.72.21.68.68,0,0,0-.24.55.57.57,0,0,0,.24.52,1.73,1.73,0,0,0,.7.24l.38.06a2.05,2.05,0,0,1,1.16.47,1.26,1.26,0,0,1,.34.91,1.39,1.39,0,0,1-.49,1.12A2,2,0,0,1,109.9,50.18Z"/><path d="M114.47,50.18a2.24,2.24,0,0,1-1.14-.27,2.48,2.48,0,0,1-.79-.69l.54-.44a2.15,2.15,0,0,0,.63.55,1.69,1.69,0,0,0,.82.2,1.25,1.25,0,0,0,.76-.21.71.71,0,0,0,.27-.59.73.73,0,0,0-.19-.49,1.16,1.16,0,0,0-.67-.28l-.39-.06a3.66,3.66,0,0,1-.63-.14,1.77,1.77,0,0,1-.49-.27,1.12,1.12,0,0,1-.34-.41,1.35,1.35,0,0,1-.12-.59,1.39,1.39,0,0,1,.14-.63,1.33,1.33,0,0,1,.36-.45,1.62,1.62,0,0,1,.56-.27,2.21,2.21,0,0,1,.69-.09,2.19,2.19,0,0,1,1,.2,2.41,2.41,0,0,1,.7.58l-.5.46a1.52,1.52,0,0,0-.48-.41,1.43,1.43,0,0,0-.78-.19,1.07,1.07,0,0,0-.72.21.68.68,0,0,0-.24.55.57.57,0,0,0,.24.52,1.73,1.73,0,0,0,.7.24l.38.06a2.05,2.05,0,0,1,1.16.47,1.26,1.26,0,0,1,.34.91,1.39,1.39,0,0,1-.49,1.12A2,2,0,0,1,114.47,50.18Z"/><path d="M121.19,50.06a.74.74,0,0,1-.61-.23,1.14,1.14,0,0,1-.24-.57h0a1.26,1.26,0,0,1-.54.69,1.65,1.65,0,0,1-.88.23,1.75,1.75,0,0,1-1.21-.4,1.41,1.41,0,0,1-.43-1.09,1.23,1.23,0,0,1,.51-1.06,2.65,2.65,0,0,1,1.58-.37h1v-.49A1,1,0,0,0,120,46a1.18,1.18,0,0,0-.87-.28,1.35,1.35,0,0,0-.75.2,1.7,1.7,0,0,0-.5.53l-.45-.43a1.67,1.67,0,0,1,.63-.67,2.39,2.39,0,0,1,2.49.15,1.54,1.54,0,0,1,.5,1.21v2.7h.56v.67Zm-1.27-5.81a.94.94,0,0,1-.43-.09l-.33-.16a4,4,0,0,0-.39-.18,1,1,0,0,0-.28,0,.51.51,0,0,0-.28.07,1.35,1.35,0,0,0-.27.19l-.31-.38a1.45,1.45,0,0,1,.35-.35.94.94,0,0,1,.55-.15,1,1,0,0,1,.43.08l.33.16.38.18a1.11,1.11,0,0,0,.28,0,.54.54,0,0,0,.29-.07,1.23,1.23,0,0,0,.27-.19l.31.38a1.45,1.45,0,0,1-.35.35A1,1,0,0,1,119.92,44.25ZM119,49.53a1.79,1.79,0,0,0,.53-.07,1.11,1.11,0,0,0,.41-.19.86.86,0,0,0,.26-.28.64.64,0,0,0,.1-.35v-.81h-1a1.82,1.82,0,0,0-1,.19.63.63,0,0,0-.29.55v.2a.65.65,0,0,0,.26.56A1.14,1.14,0,0,0,119,49.53Z"/><path d="M124.55,50.18a2.2,2.2,0,0,1-.9-.19,2,2,0,0,1-.7-.51,2.65,2.65,0,0,1-.45-.81,3.19,3.19,0,0,1-.16-1.06,3.13,3.13,0,0,1,.16-1,2.59,2.59,0,0,1,.45-.82,2,2,0,0,1,.7-.51,2.34,2.34,0,0,1,1.8,0,2.07,2.07,0,0,1,.7.51,2.41,2.41,0,0,1,.45.82,3.12,3.12,0,0,1,.17,1,3.18,3.18,0,0,1-.17,1.06,2.46,2.46,0,0,1-.45.81,2.07,2.07,0,0,1-.7.51A2.2,2.2,0,0,1,124.55,50.18Zm0-.68a1.41,1.41,0,0,0,1-.38A1.55,1.55,0,0,0,126,48v-.7a1.55,1.55,0,0,0-.39-1.16,1.41,1.41,0,0,0-1-.38,1.38,1.38,0,0,0-1,.38,1.55,1.55,0,0,0-.39,1.16V48a1.55,1.55,0,0,0,.39,1.16A1.38,1.38,0,0,0,124.55,49.5Z"/><path d="M133.82,50.06a.75.75,0,0,1-.61-.23,1.13,1.13,0,0,1-.23-.57h0a1.25,1.25,0,0,1-.53.69,1.67,1.67,0,0,1-.88.23,1.77,1.77,0,0,1-1.22-.4,1.45,1.45,0,0,1-.43-1.09,1.23,1.23,0,0,1,.51-1.06,2.69,2.69,0,0,1,1.58-.37h1v-.49a1,1,0,0,0-.28-.79,1.21,1.21,0,0,0-.88-.28,1.32,1.32,0,0,0-.74.2,1.59,1.59,0,0,0-.5.53l-.46-.43a1.7,1.7,0,0,1,.64-.67,2,2,0,0,1,1.1-.28,2,2,0,0,1,1.39.43,1.53,1.53,0,0,1,.49,1.21v2.7h.56v.67Zm-2.18-.53a1.72,1.72,0,0,0,.52-.07,1,1,0,0,0,.41-.19,1,1,0,0,0,.27-.28.73.73,0,0,0,.09-.35v-.81h-1A1.8,1.8,0,0,0,131,48a.62.62,0,0,0-.3.55v.2a.67.67,0,0,0,.26.56A1.17,1.17,0,0,0,131.64,49.53Z"/><path d="M137.19,50.18a2.28,2.28,0,0,1-.91-.19,1.94,1.94,0,0,1-.69-.51,2.48,2.48,0,0,1-.46-.81,3.47,3.47,0,0,1-.16-1.06,3.4,3.4,0,0,1,.16-1,2.43,2.43,0,0,1,.46-.82,1.94,1.94,0,0,1,.69-.51,2.27,2.27,0,0,1,.91-.18,2.11,2.11,0,0,1,.89.18,2,2,0,0,1,.7.51,2.43,2.43,0,0,1,.46.82,3.13,3.13,0,0,1,.16,1,3.19,3.19,0,0,1-.16,1.06,2.48,2.48,0,0,1-.46.81,2,2,0,0,1-.7.51A2.11,2.11,0,0,1,137.19,50.18Zm0-.68a1.38,1.38,0,0,0,1-.38,1.55,1.55,0,0,0,.39-1.16v-.7a1.55,1.55,0,0,0-.39-1.16,1.52,1.52,0,0,0-2,0,1.55,1.55,0,0,0-.39,1.16V48a1.55,1.55,0,0,0,.39,1.16A1.39,1.39,0,0,0,137.19,49.5Z"/><path d="M144.58,46l-.8-1.47h0v5.52H143V43.43h.92l2.43,4,.79,1.47h0V43.43h.78v6.63H147Z"/><path d="M150.07,44.5l-.5-.22.81-1.62.7.33Zm-.46,5.56v-4.9h.76v4.9Z"/><path d="M153.07,50.06l-1.72-4.9h.76l.86,2.43.53,1.67h.05l.53-1.67.87-2.43h.73L154,50.06Z"/><path d="M158.43,50.18a2.21,2.21,0,0,1-.91-.19,1.94,1.94,0,0,1-.69-.51,2.29,2.29,0,0,1-.45-.81,3.47,3.47,0,0,1-.16-1.06,3.4,3.4,0,0,1,.16-1,2.25,2.25,0,0,1,.45-.82,1.94,1.94,0,0,1,.69-.51,2.21,2.21,0,0,1,.91-.18,2.07,2.07,0,0,1,.88.18,2,2,0,0,1,.67.49,2.23,2.23,0,0,1,.42.76,2.87,2.87,0,0,1,.15,1v.36H157V48a1.81,1.81,0,0,0,.1.58,1.33,1.33,0,0,0,.29.47,1.23,1.23,0,0,0,.45.32,1.71,1.71,0,0,0,.62.11,1.45,1.45,0,0,0,.81-.22,1.33,1.33,0,0,0,.53-.63l.55.4a1.83,1.83,0,0,1-.75.81A2.18,2.18,0,0,1,158.43,50.18Zm0-4.5a1.48,1.48,0,0,0-.57.11,1.25,1.25,0,0,0-.44.31,1.38,1.38,0,0,0-.29.46,1.63,1.63,0,0,0-.11.59v.07h2.71v-.1a1.49,1.49,0,0,0-.36-1A1.2,1.2,0,0,0,158.43,45.68Z"/><path d="M162.61,50.06a.79.79,0,0,1-.61-.22.84.84,0,0,1-.2-.57V43h.76v6.36h.72v.67Z"/><path d="M171.87,44.48h-.05l-.56,1.11-1.58,2.88-1.59-2.88-.56-1.11h-.05v5.58h-.78V43.43h1.07l1.9,3.57h0l1.91-3.57h1v6.63h-.78Z"/><path d="M176.18,50.18a2.16,2.16,0,0,1-.9-.19,2,2,0,0,1-.7-.51,2.44,2.44,0,0,1-.44-.81,3.19,3.19,0,0,1-.16-1.06,3.13,3.13,0,0,1,.16-1,2.39,2.39,0,0,1,.44-.82,2,2,0,0,1,.7-.51,2.16,2.16,0,0,1,.9-.18,2.11,2.11,0,0,1,.89.18,1.9,1.9,0,0,1,.66.49,2.08,2.08,0,0,1,.42.76,2.87,2.87,0,0,1,.15,1v.36h-3.52V48a1.57,1.57,0,0,0,.1.58,1.31,1.31,0,0,0,.28.47,1.36,1.36,0,0,0,.46.32,1.66,1.66,0,0,0,.61.11,1.45,1.45,0,0,0,.81-.22,1.4,1.4,0,0,0,.54-.63l.54.4a1.81,1.81,0,0,1-.74.81A2.24,2.24,0,0,1,176.18,50.18Zm0-4.5a1.48,1.48,0,0,0-.57.11,1.25,1.25,0,0,0-.44.31,1.56,1.56,0,0,0-.29.46,1.63,1.63,0,0,0-.1.59v.07h2.7v-.1a1.48,1.48,0,0,0-.35-1A1.22,1.22,0,0,0,176.18,45.68Zm.08-1.18-.5-.22.81-1.62.7.33Z"/><path d="M182.69,49.27h0a1.5,1.5,0,0,1-1.43.91,1.88,1.88,0,0,1-.83-.19,1.73,1.73,0,0,1-.63-.51,2.2,2.2,0,0,1-.4-.81,4.08,4.08,0,0,1,0-2.12,2.2,2.2,0,0,1,.4-.81,1.73,1.73,0,0,1,.63-.51,1.87,1.87,0,0,1,.83-.18,1.67,1.67,0,0,1,.88.22,1.31,1.31,0,0,1,.55.68h0V43h.76v7h-.76Zm-1.26.23a1.61,1.61,0,0,0,.49-.07,1.24,1.24,0,0,0,.4-.19,1,1,0,0,0,.27-.32.82.82,0,0,0,.1-.42V46.66a.71.71,0,0,0-.1-.37,1,1,0,0,0-.27-.3,1.25,1.25,0,0,0-.4-.2,1.61,1.61,0,0,0-.49-.07,1.33,1.33,0,0,0-1,.41,1.49,1.49,0,0,0-.37,1.06V48a1.53,1.53,0,0,0,.37,1.07A1.32,1.32,0,0,0,181.43,49.5Z"/><path d="M185.45,44a.46.46,0,0,1-.36-.12.45.45,0,0,1-.11-.31v-.12a.45.45,0,0,1,.11-.31.46.46,0,0,1,.36-.12.4.4,0,0,1,.46.43v.12a.4.4,0,0,1-.46.43Zm-.38,1.15h.76v4.9h-.76Z"/><path d="M189.29,50.18a2.2,2.2,0,0,1-.9-.19,2,2,0,0,1-.7-.51,2.65,2.65,0,0,1-.45-.81,3.19,3.19,0,0,1-.16-1.06,3.13,3.13,0,0,1,.16-1,2.59,2.59,0,0,1,.45-.82,2,2,0,0,1,.7-.51,2.34,2.34,0,0,1,1.8,0,2.07,2.07,0,0,1,.7.51,2.41,2.41,0,0,1,.45.82,3.12,3.12,0,0,1,.17,1,3.18,3.18,0,0,1-.17,1.06,2.46,2.46,0,0,1-.45.81,2.07,2.07,0,0,1-.7.51A2.2,2.2,0,0,1,189.29,50.18Zm0-.68a1.41,1.41,0,0,0,1-.38,1.55,1.55,0,0,0,.39-1.16v-.7a1.55,1.55,0,0,0-.39-1.16,1.41,1.41,0,0,0-1-.38,1.38,1.38,0,0,0-1,.38,1.55,1.55,0,0,0-.39,1.16V48a1.55,1.55,0,0,0,.39,1.16A1.38,1.38,0,0,0,189.29,49.5Z"/><path d="M198.14,49.27h0a1.51,1.51,0,0,1-1.44.91,1.87,1.87,0,0,1-.82-.19,1.73,1.73,0,0,1-.63-.51,2.2,2.2,0,0,1-.4-.81,4.08,4.08,0,0,1,0-2.12,2.2,2.2,0,0,1,.4-.81,1.73,1.73,0,0,1,.63-.51,1.86,1.86,0,0,1,.82-.18,1.62,1.62,0,0,1,.88.22,1.32,1.32,0,0,1,.56.68h0V43h.76v7h-.76Zm-1.27.23a1.57,1.57,0,0,0,.49-.07,1.29,1.29,0,0,0,.41-.19,1,1,0,0,0,.27-.32.93.93,0,0,0,.1-.42V46.66a.82.82,0,0,0-.1-.37,1,1,0,0,0-.27-.3,1.31,1.31,0,0,0-.41-.2,1.57,1.57,0,0,0-.49-.07,1.29,1.29,0,0,0-1,.41,1.49,1.49,0,0,0-.37,1.06V48a1.53,1.53,0,0,0,.37,1.07A1.28,1.28,0,0,0,196.87,49.5Z"/><path d="M202.37,50.18a2.24,2.24,0,0,1-.91-.19,2.07,2.07,0,0,1-.7-.51,2.65,2.65,0,0,1-.45-.81,3.19,3.19,0,0,1-.16-1.06,3.13,3.13,0,0,1,.16-1,2.59,2.59,0,0,1,.45-.82,2.07,2.07,0,0,1,.7-.51,2.24,2.24,0,0,1,.91-.18,2.18,2.18,0,0,1,.89.18,2.07,2.07,0,0,1,.7.51,2.43,2.43,0,0,1,.46.82,3.4,3.4,0,0,1,.16,1,3.47,3.47,0,0,1-.16,1.06,2.48,2.48,0,0,1-.46.81,2.07,2.07,0,0,1-.7.51A2.18,2.18,0,0,1,202.37,50.18Zm0-.68a1.38,1.38,0,0,0,1-.38,1.55,1.55,0,0,0,.39-1.16v-.7a1.55,1.55,0,0,0-.39-1.16,1.52,1.52,0,0,0-2,0,1.55,1.55,0,0,0-.39,1.16V48a1.55,1.55,0,0,0,.39,1.16A1.39,1.39,0,0,0,202.37,49.5Z"/><path d="M213.32,44.48h0l-.56,1.11-1.59,2.88-1.58-2.88L209,44.48h0v5.58h-.78V43.43h1.06L211.12,47h0l1.91-3.57h1v6.63h-.78Z"/><path d="M219.35,50.06a.75.75,0,0,1-.61-.23,1.13,1.13,0,0,1-.23-.57h0a1.29,1.29,0,0,1-.53.69,1.71,1.71,0,0,1-.89.23,1.75,1.75,0,0,1-1.21-.4,1.41,1.41,0,0,1-.43-1.09,1.23,1.23,0,0,1,.51-1.06,2.67,2.67,0,0,1,1.58-.37h1v-.49a1,1,0,0,0-.29-.79,1.18,1.18,0,0,0-.87-.28,1.35,1.35,0,0,0-.75.2,1.7,1.7,0,0,0-.5.53L215.6,46a1.64,1.64,0,0,1,.64-.67,2,2,0,0,1,1.1-.28,2,2,0,0,1,1.38.43,1.54,1.54,0,0,1,.5,1.21v2.7h.56v.67Zm-2.18-.53a1.72,1.72,0,0,0,.52-.07,1.11,1.11,0,0,0,.41-.19.86.86,0,0,0,.26-.28.64.64,0,0,0,.1-.35v-.81h-1a1.78,1.78,0,0,0-.95.19.62.62,0,0,0-.3.55v.2a.65.65,0,0,0,.26.56A1.15,1.15,0,0,0,217.17,49.53Z"/><path d="M220.86,50.06v-4.9h.76v.9h0a1.63,1.63,0,0,1,.47-.63,1.5,1.5,0,0,1,.94-.27h.3v.76h-.45a1.75,1.75,0,0,0-1,.23.7.7,0,0,0-.35.59v3.32Z"/><path d="M226.57,47.1a7,7,0,0,1,.13-1.32,6.13,6.13,0,0,1,.37-1.19,5.88,5.88,0,0,1,.55-1,4.18,4.18,0,0,1,.67-.76H229a4.7,4.7,0,0,0-.71.82,4.86,4.86,0,0,0-.55,1,6.65,6.65,0,0,0-.34,1,4.76,4.76,0,0,0-.13,1v.82a4.69,4.69,0,0,0,.13,1,5.88,5.88,0,0,0,.35,1.05,5.08,5.08,0,0,0,.55,1,4.19,4.19,0,0,0,.7.8h-.72a3.44,3.44,0,0,1-.66-.74,5.61,5.61,0,0,1-.55-1,5.92,5.92,0,0,1-.37-1.19A6.45,6.45,0,0,1,226.57,47.1Z"/><path d="M229.77,43h.76V46h0a1.55,1.55,0,0,1,.51-.66,1.46,1.46,0,0,1,.88-.24,1.55,1.55,0,0,1,1.2.48,2,2,0,0,1,.44,1.39v3.14h-.76V47q0-1.32-1.11-1.32a1.61,1.61,0,0,0-.44.06,1.13,1.13,0,0,0-.39.17.84.84,0,0,0-.27.29.89.89,0,0,0-.1.41v3.41h-.76Z"/><path d="M235.25,50.06V43.43h2.64a1.8,1.8,0,0,1,1.37.51,2.25,2.25,0,0,1,0,2.78,1.8,1.8,0,0,1-1.37.51H236v2.83Zm.79-3.53h1.85a1,1,0,0,0,.73-.25.89.89,0,0,0,.26-.7v-.5a.89.89,0,0,0-.26-.7,1,1,0,0,0-.73-.25H236Z"/><path d="M244.39,50.06a.75.75,0,0,1-.61-.23,1.13,1.13,0,0,1-.23-.57h-.05A1.25,1.25,0,0,1,243,50a1.68,1.68,0,0,1-.89.23,1.76,1.76,0,0,1-1.21-.4,1.41,1.41,0,0,1-.43-1.09,1.23,1.23,0,0,1,.51-1.06,2.69,2.69,0,0,1,1.58-.37h1v-.49a1,1,0,0,0-.28-.79,1.21,1.21,0,0,0-.88-.28,1.29,1.29,0,0,0-.74.2,1.59,1.59,0,0,0-.5.53l-.46-.43a1.7,1.7,0,0,1,.64-.67,2,2,0,0,1,1.1-.28,2,2,0,0,1,1.39.43,1.53,1.53,0,0,1,.49,1.21v2.7h.56v.67Zm-2.18-.53a1.72,1.72,0,0,0,.52-.07,1,1,0,0,0,.41-.19,1,1,0,0,0,.27-.28.73.73,0,0,0,.09-.35v-.81h-1a1.8,1.8,0,0,0-1,.19.62.62,0,0,0-.3.55v.2a.67.67,0,0,0,.26.56A1.15,1.15,0,0,0,242.21,49.53Z"/><path d="M247.49,47.1a6.45,6.45,0,0,1-.14,1.33,5.92,5.92,0,0,1-.37,1.19,5,5,0,0,1-.54,1,3.47,3.47,0,0,1-.67.74h-.72a4.56,4.56,0,0,0,.7-.8,5.64,5.64,0,0,0,.54-1,5.93,5.93,0,0,0,.36-1.05,4.15,4.15,0,0,0,.13-1V46.7a4.21,4.21,0,0,0-.13-1,5.74,5.74,0,0,0-.34-1,5.37,5.37,0,0,0-.54-1,4.75,4.75,0,0,0-.72-.82h.72a4.22,4.22,0,0,1,.68.76,5.85,5.85,0,0,1,.54,1,6.13,6.13,0,0,1,.37,1.19A6.29,6.29,0,0,1,247.49,47.1Z"/><path d="M11.34,31.89a4.22,4.22,0,0,1-.22,1.39,5.2,5.2,0,0,1-.56,1.19,5.6,5.6,0,0,1-.77,1,5.21,5.21,0,0,1-.81.67H8a11.69,11.69,0,0,0,1-.76,5.82,5.82,0,0,0,.73-.77,4.31,4.31,0,0,0,.53-.87,4.79,4.79,0,0,0,.36-1l0,0a2.21,2.21,0,0,1-.61.68,1.66,1.66,0,0,1-1,.27,2.26,2.26,0,0,1-.79-.14A1.87,1.87,0,0,1,7.47,33a2,2,0,0,1-.41-.65,2.26,2.26,0,0,1-.14-.85,2.56,2.56,0,0,1,.15-.89A2.06,2.06,0,0,1,7.52,30a1.94,1.94,0,0,1,.69-.46,2.59,2.59,0,0,1,.91-.16,2.34,2.34,0,0,1,.93.18,2,2,0,0,1,.7.5,2.29,2.29,0,0,1,.44.8A3.59,3.59,0,0,1,11.34,31.89Zm-2.21,1a1.27,1.27,0,0,0,1.39-1.39v-.08a1.45,1.45,0,0,0-2.41-1,1.35,1.35,0,0,0-.37,1v.08a1.35,1.35,0,0,0,.37,1A1.38,1.38,0,0,0,9.13,32.91Z"/><path d="M14.83,36.2a3,3,0,0,1-1-.15,2.1,2.1,0,0,1-.72-.4,1.54,1.54,0,0,1-.43-.61,1.87,1.87,0,0,1-.15-.76,1.52,1.52,0,0,1,.37-1.08,2,2,0,0,1,1-.56v-.08A1.67,1.67,0,0,1,13,32a1.52,1.52,0,0,1-.31-1,1.49,1.49,0,0,1,.55-1.22,2.39,2.39,0,0,1,1.55-.45,2.4,2.4,0,0,1,1.55.45A1.65,1.65,0,0,1,16.62,32a1.72,1.72,0,0,1-.83.58v.08a2,2,0,0,1,1,.56,1.57,1.57,0,0,1,.37,1.08A1.87,1.87,0,0,1,17,35a1.57,1.57,0,0,1-.44.61,2,2,0,0,1-.71.4A3,3,0,0,1,14.83,36.2Zm0-.7a1.63,1.63,0,0,0,1.07-.31,1,1,0,0,0,.38-.88v-.19a1.06,1.06,0,0,0-.38-.88,1.68,1.68,0,0,0-1.07-.31,1.73,1.73,0,0,0-1.08.31,1.09,1.09,0,0,0-.38.88v.19a1.07,1.07,0,0,0,.38.88A1.67,1.67,0,0,0,14.83,35.5Zm0-3.23a1.45,1.45,0,0,0,.95-.27.94.94,0,0,0,.32-.77v-.14a1,1,0,0,0-.32-.78,1.45,1.45,0,0,0-.95-.26,1.44,1.44,0,0,0-.95.26.94.94,0,0,0-.32.78v.14a.91.91,0,0,0,.32.77A1.44,1.44,0,0,0,14.83,32.27Z"/><path d="M20.53,36.2a1.9,1.9,0,0,1-1.74-.9,4.93,4.93,0,0,1-.54-2.53,5,5,0,0,1,.54-2.53,1.9,1.9,0,0,1,1.74-.9,1.87,1.87,0,0,1,1.73.9,4.87,4.87,0,0,1,.55,2.53,4.82,4.82,0,0,1-.55,2.53A1.87,1.87,0,0,1,20.53,36.2Zm0-.7a1.34,1.34,0,0,0,.66-.16,1.17,1.17,0,0,0,.45-.46,2.15,2.15,0,0,0,.25-.69,4,4,0,0,0,.08-.88V32.23a4.06,4.06,0,0,0-.08-.88,2.35,2.35,0,0,0-.25-.69,1.15,1.15,0,0,0-.45-.45,1.24,1.24,0,0,0-.66-.16,1.3,1.3,0,0,0-.67.16,1.19,1.19,0,0,0-.44.45,2.1,2.1,0,0,0-.25.69,4,4,0,0,0-.09.88v1.08a4,4,0,0,0,.09.88,1.94,1.94,0,0,0,.25.69,1.22,1.22,0,0,0,.44.46A1.41,1.41,0,0,0,20.53,35.5Z"/><path d="M71.08,31.89a4.22,4.22,0,0,1-.22,1.39,5.23,5.23,0,0,1-.57,1.19,5.56,5.56,0,0,1-.76,1,5.26,5.26,0,0,1-.82.67h-1c.35-.26.67-.51,1-.76a5.82,5.82,0,0,0,.73-.77,4.81,4.81,0,0,0,.88-1.9l0,0a2.09,2.09,0,0,1-.61.68,1.65,1.65,0,0,1-1,.27,2.22,2.22,0,0,1-.79-.14,1.75,1.75,0,0,1-1-1.06,2.26,2.26,0,0,1-.15-.85,2.35,2.35,0,0,1,.16-.89,1.9,1.9,0,0,1,.44-.69,2.08,2.08,0,0,1,.7-.46,2.59,2.59,0,0,1,.91-.16,2.25,2.25,0,0,1,.92.18,1.87,1.87,0,0,1,.7.5,2.16,2.16,0,0,1,.45.8A3.59,3.59,0,0,1,71.08,31.89Zm-2.21,1a1.41,1.41,0,0,0,1-.36,1.39,1.39,0,0,0,.36-1v-.08a1.39,1.39,0,0,0-.36-1,1.64,1.64,0,0,0-2,0,1.39,1.39,0,0,0-.36,1v.08a1.39,1.39,0,0,0,.36,1A1.42,1.42,0,0,0,68.87,32.91Z"/><path d="M76.78,31.89a4.22,4.22,0,0,1-.22,1.39A5.23,5.23,0,0,1,76,34.47a5.56,5.56,0,0,1-.76,1,5.26,5.26,0,0,1-.82.67h-1c.35-.26.67-.51,1-.76a5.82,5.82,0,0,0,.73-.77,4.81,4.81,0,0,0,.88-1.9l0,0a2.09,2.09,0,0,1-.61.68,1.65,1.65,0,0,1-1,.27,2.22,2.22,0,0,1-.79-.14,1.75,1.75,0,0,1-1-1.06,2.26,2.26,0,0,1-.15-.85,2.35,2.35,0,0,1,.16-.89A1.9,1.9,0,0,1,73,30a2.08,2.08,0,0,1,.7-.46,2.59,2.59,0,0,1,.91-.16,2.25,2.25,0,0,1,.92.18,1.87,1.87,0,0,1,.7.5,2.31,2.31,0,0,1,.45.8A3.59,3.59,0,0,1,76.78,31.89Zm-2.22,1a1.42,1.42,0,0,0,1-.36,1.39,1.39,0,0,0,.36-1v-.08a1.39,1.39,0,0,0-.36-1,1.64,1.64,0,0,0-2,0,1.39,1.39,0,0,0-.36,1v.08a1.39,1.39,0,0,0,.36,1A1.41,1.41,0,0,0,74.56,32.91Z"/><path d="M82.48,36.09H78.13v-.82l2.16-2a5,5,0,0,0,.78-.91,1.8,1.8,0,0,0,.32-1v-.12a1.32,1.32,0,0,0-.31-.89,1.16,1.16,0,0,0-.92-.34,1.44,1.44,0,0,0-.53.08,1.33,1.33,0,0,0-.4.24,1.22,1.22,0,0,0-.27.36,2.53,2.53,0,0,0-.18.44l-.71-.28a2.44,2.44,0,0,1,.26-.57,1.83,1.83,0,0,1,.42-.5,2.12,2.12,0,0,1,.61-.35,2.74,2.74,0,0,1,1.7,0,1.79,1.79,0,0,1,.64.4,1.77,1.77,0,0,1,.39.61,2.16,2.16,0,0,1,.14.78,2.36,2.36,0,0,1-.11.72,2.6,2.6,0,0,1-.3.63,3.5,3.5,0,0,1-.46.59,7.73,7.73,0,0,1-.58.56L79,35.38h3.49Z"/><path d="M132.38,36.09v-.71h1.85V30.05h-.06L132.5,31.6l-.47-.5,1.76-1.64H135v5.92h1.71v.71Z"/><path d="M140.09,36.2a1.88,1.88,0,0,1-1.73-.9,4.92,4.92,0,0,1-.55-2.53,5,5,0,0,1,.55-2.53,2.12,2.12,0,0,1,3.47,0,5,5,0,0,1,.54,2.53,4.93,4.93,0,0,1-.54,2.53A1.89,1.89,0,0,1,140.09,36.2Zm0-.7a1.38,1.38,0,0,0,.67-.16,1.32,1.32,0,0,0,.45-.46,2.42,2.42,0,0,0,.25-.69,4.71,4.71,0,0,0,.08-.88V32.23a4.79,4.79,0,0,0-.08-.88,2.67,2.67,0,0,0-.25-.69,1.22,1.22,0,0,0-1.12-.61,1.24,1.24,0,0,0-.66.16,1.29,1.29,0,0,0-.45.45,2.67,2.67,0,0,0-.25.69,4.79,4.79,0,0,0-.08.88v1.08a4.71,4.71,0,0,0,.08.88,2.42,2.42,0,0,0,.25.69,1.32,1.32,0,0,0,.45.46A1.34,1.34,0,0,0,140.09,35.5Z"/><path d="M145.79,36.2a1.87,1.87,0,0,1-1.73-.9,4.92,4.92,0,0,1-.55-2.53,5,5,0,0,1,.55-2.53,2.12,2.12,0,0,1,3.47,0,5,5,0,0,1,.54,2.53,4.93,4.93,0,0,1-.54,2.53A1.89,1.89,0,0,1,145.79,36.2Zm0-.7a1.38,1.38,0,0,0,.67-.16,1.32,1.32,0,0,0,.45-.46,2.42,2.42,0,0,0,.25-.69,4.71,4.71,0,0,0,.08-.88V32.23a4.79,4.79,0,0,0-.08-.88,2.67,2.67,0,0,0-.25-.69,1.22,1.22,0,0,0-1.12-.61,1.24,1.24,0,0,0-.66.16,1.29,1.29,0,0,0-.45.45,2.35,2.35,0,0,0-.25.69,4.79,4.79,0,0,0-.08.88v1.08a4.71,4.71,0,0,0,.08.88,2.15,2.15,0,0,0,.25.69,1.32,1.32,0,0,0,.45.46A1.34,1.34,0,0,0,145.79,35.5Z"/><path d="M151.49,36.2a3,3,0,0,1-1-.15,1.93,1.93,0,0,1-.72-.4,1.68,1.68,0,0,1-.44-.61,1.87,1.87,0,0,1-.15-.76,1.53,1.53,0,0,1,.38-1.08,2,2,0,0,1,1-.56v-.08a1.77,1.77,0,0,1-.83-.58,1.58,1.58,0,0,1-.31-1,1.5,1.5,0,0,1,.56-1.22,2.88,2.88,0,0,1,3.09,0,1.49,1.49,0,0,1,.55,1.22,1.52,1.52,0,0,1-.31,1,1.67,1.67,0,0,1-.83.58v.08a2,2,0,0,1,1,.56,1.52,1.52,0,0,1,.37,1.08,2.06,2.06,0,0,1-.14.76,1.68,1.68,0,0,1-.44.61,1.93,1.93,0,0,1-.72.4A3,3,0,0,1,151.49,36.2Zm0-.7a1.65,1.65,0,0,0,1.08-.31,1.07,1.07,0,0,0,.38-.88v-.19a1.09,1.09,0,0,0-.38-.88,1.71,1.71,0,0,0-1.08-.31,1.68,1.68,0,0,0-1.07.31,1.09,1.09,0,0,0-.38.88v.19a1.07,1.07,0,0,0,.38.88A1.63,1.63,0,0,0,151.49,35.5Zm0-3.23a1.44,1.44,0,0,0,.95-.27.92.92,0,0,0,.33-.77v-.14a1,1,0,0,0-.33-.78,1.44,1.44,0,0,0-.95-.26,1.47,1.47,0,0,0-1,.26,1,1,0,0,0-.32.78v.14a.94.94,0,0,0,.32.77A1.47,1.47,0,0,0,151.49,32.27Z"/><path d="M184.33,36.09v-.71h1.85V30.05h-.07l-1.67,1.55-.47-.5,1.76-1.64H187v5.92h1.71v.71Z"/><path d="M192,36.2a1.87,1.87,0,0,1-1.73-.9,4.82,4.82,0,0,1-.55-2.53,4.87,4.87,0,0,1,.55-2.53,2.11,2.11,0,0,1,3.46,0,4.87,4.87,0,0,1,.55,2.53,4.82,4.82,0,0,1-.55,2.53A1.87,1.87,0,0,1,192,36.2Zm0-.7a1.34,1.34,0,0,0,.66-.16,1.17,1.17,0,0,0,.45-.46,2.15,2.15,0,0,0,.25-.69,4,4,0,0,0,.08-.88V32.23a4.06,4.06,0,0,0-.08-.88,2.35,2.35,0,0,0-.25-.69,1.15,1.15,0,0,0-.45-.45,1.24,1.24,0,0,0-.66-.16,1.3,1.3,0,0,0-.67.16,1.19,1.19,0,0,0-.44.45,2.1,2.1,0,0,0-.25.69,4.06,4.06,0,0,0-.08.88v1.08a4,4,0,0,0,.08.88,1.94,1.94,0,0,0,.25.69,1.22,1.22,0,0,0,.44.46A1.41,1.41,0,0,0,192,35.5Z"/><path d="M195.73,36.09v-.71h1.85V30.05h-.07l-1.67,1.55-.47-.5,1.76-1.64h1.25v5.92h1.71v.71Z"/><path d="M204.15,36.09v-1.3H201v-.71l2.77-4.62h1.19v4.66h1v.67h-1v1.3Zm-2.45-2h2.45v-4h-.05Z"/><path d="M253,36.09v-.71h1.86V30.05h-.07l-1.67,1.55-.47-.5,1.76-1.64h1.24v5.92h1.71v.71Z"/><path d="M260.67,36.2a1.9,1.9,0,0,1-1.74-.9,4.93,4.93,0,0,1-.54-2.53,5,5,0,0,1,.54-2.53,1.9,1.9,0,0,1,1.74-.9,1.87,1.87,0,0,1,1.73.9,4.87,4.87,0,0,1,.55,2.53,4.82,4.82,0,0,1-.55,2.53A1.87,1.87,0,0,1,260.67,36.2Zm0-.7a1.34,1.34,0,0,0,.66-.16,1.17,1.17,0,0,0,.45-.46,2.15,2.15,0,0,0,.25-.69,4.71,4.71,0,0,0,.08-.88V32.23a4.79,4.79,0,0,0-.08-.88,2.35,2.35,0,0,0-.25-.69,1.15,1.15,0,0,0-.45-.45,1.24,1.24,0,0,0-.66-.16,1.3,1.3,0,0,0-.67.16,1.19,1.19,0,0,0-.44.45,2.36,2.36,0,0,0-.26.69,4.79,4.79,0,0,0-.08.88v1.08a4.71,4.71,0,0,0,.08.88,2.16,2.16,0,0,0,.26.69,1.22,1.22,0,0,0,.44.46A1.41,1.41,0,0,0,260.67,35.5Z"/><path d="M268.58,36.09h-4.35v-.82l2.17-2a5,5,0,0,0,.78-.91,1.87,1.87,0,0,0,.31-1v-.12a1.31,1.31,0,0,0-.3-.89,1.18,1.18,0,0,0-.93-.34,1.44,1.44,0,0,0-.53.08,1.28,1.28,0,0,0-.39.24,1.25,1.25,0,0,0-.28.36,1.92,1.92,0,0,0-.17.44l-.72-.28a2.48,2.48,0,0,1,.27-.57,2,2,0,0,1,.41-.5,2.12,2.12,0,0,1,.61-.35,2.78,2.78,0,0,1,1.71,0,1.84,1.84,0,0,1,.63.4,1.8,1.8,0,0,1,.4.61,2.16,2.16,0,0,1,.13.78,2.37,2.37,0,0,1-.1.72,3.64,3.64,0,0,1-.3.63,4.1,4.1,0,0,1-.46.59c-.19.19-.38.38-.59.56l-1.78,1.61h3.48Z"/><path d="M272.07,36.2a3,3,0,0,1-1-.15,2.1,2.1,0,0,1-.72-.4,1.54,1.54,0,0,1-.43-.61,1.87,1.87,0,0,1-.15-.76,1.52,1.52,0,0,1,.37-1.08,2,2,0,0,1,1-.56v-.08a1.67,1.67,0,0,1-.83-.58,1.52,1.52,0,0,1-.31-1,1.49,1.49,0,0,1,.55-1.22,2.89,2.89,0,0,1,3.1,0,1.52,1.52,0,0,1,.55,1.22,1.58,1.58,0,0,1-.31,1,1.72,1.72,0,0,1-.83.58v.08a2,2,0,0,1,1,.56,1.57,1.57,0,0,1,.37,1.08,1.87,1.87,0,0,1-.15.76,1.57,1.57,0,0,1-.44.61,2,2,0,0,1-.71.4A3,3,0,0,1,272.07,36.2Zm0-.7a1.63,1.63,0,0,0,1.07-.31,1,1,0,0,0,.38-.88v-.19a1.06,1.06,0,0,0-.38-.88,1.68,1.68,0,0,0-1.07-.31,1.73,1.73,0,0,0-1.08.31,1.09,1.09,0,0,0-.38.88v.19a1.07,1.07,0,0,0,.38.88A1.67,1.67,0,0,0,272.07,35.5Zm0-3.23A1.45,1.45,0,0,0,273,32a.94.94,0,0,0,.32-.77v-.14a1,1,0,0,0-.32-.78,1.45,1.45,0,0,0-.95-.26,1.44,1.44,0,0,0-.95.26.94.94,0,0,0-.32.78v.14a.91.91,0,0,0,.32.77A1.44,1.44,0,0,0,272.07,32.27Z"/><path d="M312.67,36.09v-.71h1.85V30.05h-.07l-1.67,1.55-.47-.5,1.76-1.64h1.25v5.92H317v.71Z"/><path d="M320.38,36.2a1.87,1.87,0,0,1-1.73-.9,4.82,4.82,0,0,1-.55-2.53,4.87,4.87,0,0,1,.55-2.53,2.11,2.11,0,0,1,3.46,0,4.87,4.87,0,0,1,.55,2.53,4.82,4.82,0,0,1-.55,2.53A1.87,1.87,0,0,1,320.38,36.2Zm0-.7a1.34,1.34,0,0,0,.66-.16,1.17,1.17,0,0,0,.45-.46,1.94,1.94,0,0,0,.25-.69,4,4,0,0,0,.08-.88V32.23a4.06,4.06,0,0,0-.08-.88,2.1,2.1,0,0,0-.25-.69,1.15,1.15,0,0,0-.45-.45,1.24,1.24,0,0,0-.66-.16,1.3,1.3,0,0,0-.67.16,1.19,1.19,0,0,0-.44.45,2.1,2.1,0,0,0-.25.69,4.06,4.06,0,0,0-.08.88v1.08a4,4,0,0,0,.08.88,1.94,1.94,0,0,0,.25.69,1.22,1.22,0,0,0,.44.46A1.41,1.41,0,0,0,320.38,35.5Z"/><path d="M326.79,36.09v-1.3h-3.2v-.71l2.78-4.62h1.18v4.66h1v.67h-1v1.3Zm-2.45-2h2.45v-4h0Z"/><path d="M331.78,36.2a1.87,1.87,0,0,1-1.73-.9,4.82,4.82,0,0,1-.55-2.53,4.87,4.87,0,0,1,.55-2.53,2.11,2.11,0,0,1,3.46,0,4.87,4.87,0,0,1,.55,2.53,4.82,4.82,0,0,1-.55,2.53A1.87,1.87,0,0,1,331.78,36.2Zm0-.7a1.41,1.41,0,0,0,.67-.16,1.22,1.22,0,0,0,.44-.46,1.94,1.94,0,0,0,.25-.69,4,4,0,0,0,.08-.88V32.23a4.06,4.06,0,0,0-.08-.88,2.1,2.1,0,0,0-.25-.69,1.19,1.19,0,0,0-.44-.45,1.3,1.3,0,0,0-.67-.16,1.24,1.24,0,0,0-.66.16,1.15,1.15,0,0,0-.45.45,2.1,2.1,0,0,0-.25.69,4.06,4.06,0,0,0-.08.88v1.08a4,4,0,0,0,.08.88,1.94,1.94,0,0,0,.25.69,1.17,1.17,0,0,0,.45.46A1.34,1.34,0,0,0,331.78,35.5Z"/></svg>