<svg id="Camada_1" data-name="Camada 1" xmlns="http://www.w3.org/2000/svg" viewBox="0 0 320.4 57.45">
  <title>LEGENDAS_PÁGINA_CLIMA</title>
  <g style="opacity: 0.75">
    <path d="M0,6.38C0,2.86,3.19,0,7.12,0H313.28c3.94,0,7.12,2.86,7.12,6.38V51.07c0,3.52-3.18,6.38-7.12,6.38H7.12C3.19,57.45,0,54.59,0,51.07Z" style="fill: #fff"/>
  </g>
  <g>
    <path d="M54.15,33.14v-.69h2.1v.69Z"/>
    <path d="M59.23,35.34a1.94,1.94,0,0,1-.78-.15,1.54,1.54,0,0,1-.6-.43,1.78,1.78,0,0,1-.37-.68,2.84,2.84,0,0,1-.13-.9A3.79,3.79,0,0,1,57.53,32,4.27,4.27,0,0,1,58,31a4.72,4.72,0,0,1,.65-.8,4.33,4.33,0,0,1,.69-.57h.87c-.3.22-.57.44-.81.64a5.46,5.46,0,0,0-.62.66,4.93,4.93,0,0,0-.45.73,4.13,4.13,0,0,0-.29.88h0a1.67,1.67,0,0,1,.52-.57,1.41,1.41,0,0,1,.83-.23,1.85,1.85,0,0,1,.67.12,1.45,1.45,0,0,1,.52.35,1.46,1.46,0,0,1,.34.55,1.8,1.8,0,0,1,.13.71,2.06,2.06,0,0,1-.14.76,1.64,1.64,0,0,1-.37.59,1.86,1.86,0,0,1-.6.38A2.06,2.06,0,0,1,59.23,35.34Zm0-.6a1.21,1.21,0,0,0,.87-.3,1.22,1.22,0,0,0,.31-.88v-.07a1.08,1.08,0,0,0-1.18-1.18,1.08,1.08,0,0,0-1.17,1.18v.07a1.18,1.18,0,0,0,.31.88A1.17,1.17,0,0,0,59.22,34.74Z"/>
  </g>
  <g>
    <path d="M20,33.14v-.69h2.1v.69Z"/>
    <path d="M25,35.34a2.39,2.39,0,0,1-.84-.13,1.79,1.79,0,0,1-.61-.34,1.42,1.42,0,0,1-.37-.51,1.75,1.75,0,0,1-.12-.65,1.31,1.31,0,0,1,.31-.92,1.71,1.71,0,0,1,.82-.47v-.07a1.38,1.38,0,0,1-.7-.49,1.29,1.29,0,0,1-.27-.83,1.26,1.26,0,0,1,.47-1A2,2,0,0,1,25,29.53a2,2,0,0,1,1.31.38,1.23,1.23,0,0,1,.47,1,1.35,1.35,0,0,1-.26.83,1.42,1.42,0,0,1-.7.49v.07a1.76,1.76,0,0,1,.82.47,1.31,1.31,0,0,1,.31.92,1.75,1.75,0,0,1-.12.65,1.55,1.55,0,0,1-.37.51,1.89,1.89,0,0,1-.61.34A2.45,2.45,0,0,1,25,35.34Zm0-.6a1.43,1.43,0,0,0,.91-.26.88.88,0,0,0,.32-.74v-.17a.88.88,0,0,0-.32-.74,1.43,1.43,0,0,0-.91-.26,1.45,1.45,0,0,0-.91.26.9.9,0,0,0-.32.74v.17a.9.9,0,0,0,.32.74A1.45,1.45,0,0,0,25,34.74ZM25,32a1.24,1.24,0,0,0,.81-.22.81.81,0,0,0,.27-.66V31a.79.79,0,0,0-.27-.65,1.52,1.52,0,0,0-1.61,0A.8.8,0,0,0,24,31v.12a.82.82,0,0,0,.28.66A1.23,1.23,0,0,0,25,32Z"/>
  </g>
  <g>
    <path d="M88.27,33.14v-.69h2.1v.69Z"/>
    <path d="M93.94,35.24v-1.1H91.23v-.6l2.35-3.92h1v3.95h.81v.57h-.81v1.1Zm-2.07-1.67h2.07V30.15h0Z"/>
  </g>
  <g>
    <path d="M122.46,33.14v-.69h2.1v.69Z"/>
    <path d="M129.4,35.24h-3.68v-.69l1.83-1.69a3.61,3.61,0,0,0,.66-.77,1.48,1.48,0,0,0,.27-.82v-.1a1.13,1.13,0,0,0-.26-.76,1,1,0,0,0-.78-.29,1.52,1.52,0,0,0-.45.07.93.93,0,0,0-.33.21.89.89,0,0,0-.24.3,2,2,0,0,0-.15.37l-.6-.23a2.38,2.38,0,0,1,.22-.49,1.44,1.44,0,0,1,.36-.42,1.58,1.58,0,0,1,.51-.29,1.93,1.93,0,0,1,.71-.11,2,2,0,0,1,.73.12,1.45,1.45,0,0,1,.54.33,1.51,1.51,0,0,1,.34.52,1.76,1.76,0,0,1,.11.66,2.05,2.05,0,0,1-.34,1.14,3.56,3.56,0,0,1-.39.5c-.16.16-.32.32-.5.48l-1.51,1.36h3Z"/>
  </g>
  <path d="M160.23,35.34a1.6,1.6,0,0,1-1.47-.77,4.12,4.12,0,0,1-.46-2.14,4.12,4.12,0,0,1,.46-2.14,1.8,1.8,0,0,1,2.94,0,4.23,4.23,0,0,1,.46,2.14,4.23,4.23,0,0,1-.46,2.14A1.6,1.6,0,0,1,160.23,35.34Zm0-.6a1,1,0,0,0,.94-.52,1.72,1.72,0,0,0,.21-.59,3.38,3.38,0,0,0,.07-.74V32a3.38,3.38,0,0,0-.07-.74,1.72,1.72,0,0,0-.21-.59,1.06,1.06,0,0,0-.38-.38,1.08,1.08,0,0,0-.56-.14,1.15,1.15,0,0,0-.57.14,1,1,0,0,0-.37.38,2,2,0,0,0-.22.59A4.14,4.14,0,0,0,159,32v.92a4.14,4.14,0,0,0,.07.74,2,2,0,0,0,.22.59,1,1,0,0,0,.37.38A1,1,0,0,0,160.23,34.74Z"/>
  <path d="M196.26,35.24h-3.68v-.69l1.83-1.69a4.28,4.28,0,0,0,.66-.77,1.48,1.48,0,0,0,.27-.82v-.1a1.13,1.13,0,0,0-.26-.76,1,1,0,0,0-.78-.29,1.52,1.52,0,0,0-.45.07,1.08,1.08,0,0,0-.34.21,1,1,0,0,0-.23.3,2,2,0,0,0-.15.37l-.6-.23a2.38,2.38,0,0,1,.22-.49,1.57,1.57,0,0,1,.35-.42,1.75,1.75,0,0,1,.52-.29,1.93,1.93,0,0,1,.71-.11,2.07,2.07,0,0,1,.73.12,1.45,1.45,0,0,1,.54.33,1.51,1.51,0,0,1,.34.52,2.07,2.07,0,0,1,0,1.27,2.35,2.35,0,0,1-.25.53,3.56,3.56,0,0,1-.39.5c-.16.16-.32.32-.5.48l-1.51,1.36h2.95Z"/>
  <path d="M229.19,35.24v-1.1h-2.71v-.6l2.35-3.92h1v3.95h.81v.57h-.81v1.1Zm-2.08-1.67h2.08V30.15h0Z"/>
  <path d="M262.75,35.34a1.94,1.94,0,0,1-.78-.15,1.54,1.54,0,0,1-.6-.43,1.78,1.78,0,0,1-.37-.68,2.84,2.84,0,0,1-.13-.9,3.79,3.79,0,0,1,.18-1.18,4.27,4.27,0,0,1,.48-1,4.72,4.72,0,0,1,.65-.8,4.33,4.33,0,0,1,.69-.57h.87c-.3.22-.57.44-.81.64a4.68,4.68,0,0,0-.61.66,4.27,4.27,0,0,0-.46.73,4.13,4.13,0,0,0-.29.88h0a1.67,1.67,0,0,1,.52-.57,1.41,1.41,0,0,1,.83-.23,1.85,1.85,0,0,1,.67.12,1.45,1.45,0,0,1,.52.35,1.46,1.46,0,0,1,.34.55,1.8,1.8,0,0,1,.13.71,2.06,2.06,0,0,1-.14.76,1.64,1.64,0,0,1-.37.59,1.76,1.76,0,0,1-.6.38A2.06,2.06,0,0,1,262.75,35.34Zm0-.6a1.21,1.21,0,0,0,.87-.3,1.22,1.22,0,0,0,.31-.88v-.07a1.08,1.08,0,0,0-1.18-1.18,1.08,1.08,0,0,0-1.17,1.18v.07a1.18,1.18,0,0,0,.31.88A1.17,1.17,0,0,0,262.74,34.74Z"/>
  <path d="M296.92,35.34a2.49,2.49,0,0,1-.85-.13,1.74,1.74,0,0,1-.6-.34,1.31,1.31,0,0,1-.37-.51,1.57,1.57,0,0,1-.13-.65,1.36,1.36,0,0,1,.31-.92,1.74,1.74,0,0,1,.83-.47v-.07a1.45,1.45,0,0,1-.71-.49,1.35,1.35,0,0,1-.26-.83,1.26,1.26,0,0,1,.47-1,2.45,2.45,0,0,1,2.62,0,1.26,1.26,0,0,1,.47,1,1.35,1.35,0,0,1-.26.83,1.45,1.45,0,0,1-.71.49v.07a1.71,1.71,0,0,1,.82.47,1.32,1.32,0,0,1,.32.92,1.75,1.75,0,0,1-.13.65,1.42,1.42,0,0,1-.37.51,1.7,1.7,0,0,1-.61.34A2.39,2.39,0,0,1,296.92,35.34Zm0-.6a1.45,1.45,0,0,0,.91-.26.9.9,0,0,0,.32-.74v-.17a.9.9,0,0,0-.32-.74,1.45,1.45,0,0,0-.91-.26,1.43,1.43,0,0,0-.91.26.88.88,0,0,0-.32.74v.17a.88.88,0,0,0,.32.74A1.43,1.43,0,0,0,296.92,34.74Zm0-2.74a1.23,1.23,0,0,0,.8-.22.79.79,0,0,0,.28-.66V31a.77.77,0,0,0-.28-.65,1.23,1.23,0,0,0-.8-.23,1.28,1.28,0,0,0-.81.23.79.79,0,0,0-.27.65v.12a.81.81,0,0,0,.27.66A1.28,1.28,0,0,0,296.92,32Z"/>
  <g>
    <g>
      <path d="M154.42,23.58H149a2,2,0,0,1-2.11-2V10.68a2,2,0,0,1,2.11-2h5.46a2,2,0,0,1,2.11,2V21.61A2,2,0,0,1,154.42,23.58Z" style="fill: #fff"/>
      <path d="M154.42,23.83H149a2.29,2.29,0,0,1-2.36-2.22V10.68A2.29,2.29,0,0,1,149,8.46h5.46a2.3,2.3,0,0,1,2.36,2.22V21.61A2.29,2.29,0,0,1,154.42,23.83ZM149,9a1.8,1.8,0,0,0-1.86,1.72V21.61A1.79,1.79,0,0,0,149,23.33h5.46a1.79,1.79,0,0,0,1.86-1.72V10.68A1.8,1.8,0,0,0,154.42,9Z" style="fill: #939393"/>
    </g>
    <path d="M274,23.58h-5.47a2,2,0,0,1-2.11-2V10.68a2,2,0,0,1,2.11-2H274a2,2,0,0,1,2.11,2V21.61A2.05,2.05,0,0,1,274,23.58Z" style="fill: #eb2b20"/>
    <path d="M291.11,23.58h-5.46a2,2,0,0,1-2.11-2V10.68a2,2,0,0,1,2.11-2h5.46a2,2,0,0,1,2.11,2V21.61A2,2,0,0,1,291.11,23.58Z" style="fill: #d6111f"/>
    <path d="M308.2,23.58h-5.46a2,2,0,0,1-2.11-2V10.68a2,2,0,0,1,2.11-2h5.46a2,2,0,0,1,2.11,2V21.61A2,2,0,0,1,308.2,23.58Z" style="fill: #bd0026"/>
    <path d="M51.82,23.58H46.35a2,2,0,0,1-2.11-2V10.68a2,2,0,0,1,2.11-2h5.47a2,2,0,0,1,2.11,2V21.61A2,2,0,0,1,51.82,23.58Z" style="fill: #0868ac"/>
    <path d="M34.74,23.58H29.28a2,2,0,0,1-2.11-2V10.68a2,2,0,0,1,2.11-2h5.46a2,2,0,0,1,2.11,2V21.61A2,2,0,0,1,34.74,23.58Z" style="fill: #001476"/>
    <path d="M17.67,23.58H12.2a2,2,0,0,1-2.11-2V10.68a2,2,0,0,1,2.11-2h5.47a2,2,0,0,1,2.11,2V21.61A2,2,0,0,1,17.67,23.58Z" style="fill: #081d58"/>
    <path d="M68.91,23.58H63.44a2,2,0,0,1-2.11-2V10.68a2,2,0,0,1,2.11-2h5.47a2,2,0,0,1,2.11,2V21.61A2.05,2.05,0,0,1,68.91,23.58Z" style="fill: #2b8cbe"/>
    <path d="M86,23.58H80.53a2,2,0,0,1-2.11-2V10.68a2,2,0,0,1,2.11-2H86a2,2,0,0,1,2.11,2V21.61A2.05,2.05,0,0,1,86,23.58Z" style="fill: #7bccc4"/>
    <path d="M103.08,23.58H97.61a2,2,0,0,1-2.11-2V10.68a2,2,0,0,1,2.11-2h5.47a2,2,0,0,1,2.11,2V21.61A2.05,2.05,0,0,1,103.08,23.58Z" style="fill: #a8ddb5"/>
    <path d="M120.17,23.58H114.7a2,2,0,0,1-2.11-2V10.68a2,2,0,0,1,2.11-2h5.47a2,2,0,0,1,2.1,2V21.61A2,2,0,0,1,120.17,23.58Z" style="fill: #ccebc5"/>
    <path d="M137.25,23.58h-5.46a2,2,0,0,1-2.11-2V10.68a2,2,0,0,1,2.11-2h5.46a2,2,0,0,1,2.11,2V21.61A2,2,0,0,1,137.25,23.58Z" style="fill: #e0f3db"/>
    <g>
      <path d="M171.51,23.58H166a2,2,0,0,1-2.11-2V10.68a2,2,0,0,1,2.11-2h5.47a2,2,0,0,1,2.11,2V21.61A2,2,0,0,1,171.51,23.58Z" style="fill: #fff"/>
      <path d="M171.51,23.83H166a2.29,2.29,0,0,1-2.36-2.22V10.68A2.3,2.3,0,0,1,166,8.46h5.47a2.3,2.3,0,0,1,2.36,2.22V21.61A2.29,2.29,0,0,1,171.51,23.83ZM166,9a1.81,1.81,0,0,0-1.86,1.72V21.61A1.8,1.8,0,0,0,166,23.33h5.47a1.79,1.79,0,0,0,1.86-1.72V10.68A1.8,1.8,0,0,0,171.51,9Z" style="fill: #939393"/>
    </g>
    <path d="M188.59,23.58h-5.47a2,2,0,0,1-2.1-2V10.68a2,2,0,0,1,2.1-2h5.47a2,2,0,0,1,2.11,2V21.61A2,2,0,0,1,188.59,23.58Z" style="fill: #ffc"/>
    <path d="M205.68,23.58h-5.47a2,2,0,0,1-2.11-2V10.68a2,2,0,0,1,2.11-2h5.47a2,2,0,0,1,2.11,2V21.61A2,2,0,0,1,205.68,23.58Z" style="fill: #ffeda0"/>
    <path d="M222.77,23.58H217.3a2,2,0,0,1-2.11-2V10.68a2,2,0,0,1,2.11-2h5.47a2,2,0,0,1,2.11,2V21.61A2.05,2.05,0,0,1,222.77,23.58Z" style="fill: #fed976"/>
    <path d="M239.85,23.58h-5.47a2,2,0,0,1-2.11-2V10.68a2,2,0,0,1,2.11-2h5.47a2,2,0,0,1,2.11,2V21.61A2,2,0,0,1,239.85,23.58Z" style="fill: #feb24c"/>
    <path d="M256.94,23.58h-5.47a2,2,0,0,1-2.11-2V10.68a2,2,0,0,1,2.11-2h5.47a2,2,0,0,1,2.11,2V21.61A2.05,2.05,0,0,1,256.94,23.58Z" style="fill: #fc4e2a"/>
  </g>
  <g>
    <path d="M92.58,44.38v5.44h-.73V44.38H89.92v-.65h4.6v.65Z"/>
    <path d="M96.58,49.92a2,2,0,0,1-.83-.16,1.77,1.77,0,0,1-.64-.48,2,2,0,0,1-.41-.74,3,3,0,0,1-.15-1,3,3,0,0,1,.15-1,2,2,0,0,1,.41-.74,1.77,1.77,0,0,1,.64-.48,2,2,0,0,1,.83-.16,1.92,1.92,0,0,1,.81.16,1.73,1.73,0,0,1,.61.46,1.94,1.94,0,0,1,.39.69,2.71,2.71,0,0,1,.13.88v.33H95.29V48a1.51,1.51,0,0,0,.09.53,1.24,1.24,0,0,0,.26.43,1.17,1.17,0,0,0,.42.29,1.4,1.4,0,0,0,.56.11,1.42,1.42,0,0,0,.75-.2,1.4,1.4,0,0,0,.49-.58l.5.36a1.82,1.82,0,0,1-.68.75A2.07,2.07,0,0,1,96.58,49.92Zm0-4.12a1.32,1.32,0,0,0-.53.1,1.26,1.26,0,0,0-.4.28,1.57,1.57,0,0,0-.27.43,1.61,1.61,0,0,0-.09.54v.06h2.48v-.09a1.41,1.41,0,0,0-.32-1A1.12,1.12,0,0,0,96.58,45.8Z"/>
    <path d="M99.67,49.82v-4.5h.7V46h0a3.24,3.24,0,0,1,.17-.32,1,1,0,0,1,.25-.26,1,1,0,0,1,.33-.18,1.56,1.56,0,0,1,.46-.06,1.67,1.67,0,0,1,.82.21,1.31,1.31,0,0,1,.56.69h0a1.39,1.39,0,0,1,.46-.63,1.41,1.41,0,0,1,.91-.27,1.35,1.35,0,0,1,1.08.45,1.85,1.85,0,0,1,.39,1.26v2.89h-.7V47.05a1.47,1.47,0,0,0-.24-.91.88.88,0,0,0-.75-.3,1.23,1.23,0,0,0-.39,0,1.17,1.17,0,0,0-.34.15.74.74,0,0,0-.23.27.79.79,0,0,0-.09.38v3.13h-.7V47.05a1.47,1.47,0,0,0-.24-.91.86.86,0,0,0-.73-.3,1.33,1.33,0,0,0-.4,0,1.17,1.17,0,0,0-.34.15.88.88,0,0,0-.24.27.79.79,0,0,0-.09.38v3.13Z"/>
    <path d="M107.28,45.32h.7V46h0a1.18,1.18,0,0,1,.51-.62,1.46,1.46,0,0,1,.8-.2,1.7,1.7,0,0,1,.76.16,1.65,1.65,0,0,1,.58.47,2.33,2.33,0,0,1,.37.74,4.06,4.06,0,0,1,0,2,2.33,2.33,0,0,1-.37.74,1.65,1.65,0,0,1-.58.47,1.7,1.7,0,0,1-.76.16A1.34,1.34,0,0,1,108,49.1h0v2.46h-.7Zm1.86,4a1.18,1.18,0,0,0,.93-.38,1.35,1.35,0,0,0,.34-1v-.77a1.38,1.38,0,0,0-.34-1,1.17,1.17,0,0,0-.93-.37,1.68,1.68,0,0,0-.45.06,1.41,1.41,0,0,0-.37.18,1,1,0,0,0-.25.28.67.67,0,0,0-.09.34v1.69a.86.86,0,0,0,.09.39.84.84,0,0,0,.25.28,1.16,1.16,0,0,0,.37.18A1.69,1.69,0,0,0,109.14,49.31Z"/>
    <path d="M114,49.92a2,2,0,0,1-.83-.16,1.77,1.77,0,0,1-.64-.48,2.29,2.29,0,0,1-.41-.74,3.24,3.24,0,0,1-.14-1,3.29,3.29,0,0,1,.14-1,2.29,2.29,0,0,1,.41-.74,1.77,1.77,0,0,1,.64-.48,2,2,0,0,1,.83-.16,1.89,1.89,0,0,1,.81.16,1.64,1.64,0,0,1,.61.46,1.94,1.94,0,0,1,.39.69,2.71,2.71,0,0,1,.14.88v.33h-3.24V48a1.51,1.51,0,0,0,.09.53,1.24,1.24,0,0,0,.26.43,1.37,1.37,0,0,0,.42.29,1.48,1.48,0,0,0,.57.11,1.39,1.39,0,0,0,.74-.2,1.33,1.33,0,0,0,.49-.58l.5.36a1.69,1.69,0,0,1-.68.75A2,2,0,0,1,114,49.92Zm0-4.12a1.27,1.27,0,0,0-.52.1,1.3,1.3,0,0,0-.41.28,1.34,1.34,0,0,0-.26.43,1.4,1.4,0,0,0-.1.54v.06h2.49v-.09a1.37,1.37,0,0,0-.33-1A1.12,1.12,0,0,0,114,45.8Z"/>
    <path d="M117.13,49.82v-4.5h.7v.83h0a1.27,1.27,0,0,1,1.3-.83h.27V46H119a1.63,1.63,0,0,0-.89.21.62.62,0,0,0-.31.54v3Z"/>
    <path d="M123.56,49.82a.68.68,0,0,1-.56-.21,1,1,0,0,1-.21-.52h-.05a1.16,1.16,0,0,1-.49.63,1.57,1.57,0,0,1-.81.2,1.61,1.61,0,0,1-1.11-.36,1.32,1.32,0,0,1-.4-1,1.13,1.13,0,0,1,.47-1,2.46,2.46,0,0,1,1.45-.34h.89V46.8a1,1,0,0,0-.26-.73,1.1,1.1,0,0,0-.8-.25A1.27,1.27,0,0,0,121,46a1.52,1.52,0,0,0-.45.49l-.42-.39a1.58,1.58,0,0,1,.58-.63,2.21,2.21,0,0,1,2.29.15,1.39,1.39,0,0,1,.45,1.11V49.2H124v.62Zm-2-.49a1.86,1.86,0,0,0,.48-.06,1.26,1.26,0,0,0,.37-.17.91.91,0,0,0,.25-.27.66.66,0,0,0,.08-.32v-.74h-.92a1.68,1.68,0,0,0-.88.18.55.55,0,0,0-.27.5v.18a.61.61,0,0,0,.24.52A1,1,0,0,0,121.56,49.33Z"/>
    <path d="M125.94,49.82a.73.73,0,0,1-.55-.2.76.76,0,0,1-.19-.54V45.94h-.74v-.62h.42a.43.43,0,0,0,.31-.09.51.51,0,0,0,.08-.32v-.84h.63v1.25h1v.62h-1V49.2h.91v.62Z"/>
    <path d="M130.78,49.1h0c-.05.1-.11.2-.17.3a1.27,1.27,0,0,1-.25.27,1.23,1.23,0,0,1-.36.19,1.77,1.77,0,0,1-.49.06,1.44,1.44,0,0,1-1.11-.44,1.85,1.85,0,0,1-.41-1.27V45.32h.7v2.77c0,.81.34,1.22,1,1.22a1.45,1.45,0,0,0,.41-.06,1.09,1.09,0,0,0,.35-.15.78.78,0,0,0,.24-.27.8.8,0,0,0,.09-.39V45.32h.7v4.5h-.7Z"/>
    <path d="M133,49.82v-4.5h.7v.83h0a1.34,1.34,0,0,1,.44-.58,1.37,1.37,0,0,1,.86-.25h.27V46h-.41a1.57,1.57,0,0,0-.88.21.61.61,0,0,0-.32.54v3Z"/>
    <path d="M139.39,49.82a.69.69,0,0,1-.56-.21,1.06,1.06,0,0,1-.21-.52h0a1.21,1.21,0,0,1-.49.63,1.84,1.84,0,0,1-1.93-.16,1.32,1.32,0,0,1-.39-1,1.12,1.12,0,0,1,.46-1,2.48,2.48,0,0,1,1.46-.34h.89V46.8a1,1,0,0,0-.27-.73,1.1,1.1,0,0,0-.8-.25,1.21,1.21,0,0,0-.68.18,1.44,1.44,0,0,0-.46.49L136,46.1a1.6,1.6,0,0,1,.59-.63,1.82,1.82,0,0,1,1-.25,1.84,1.84,0,0,1,1.27.4,1.39,1.39,0,0,1,.45,1.11V49.2h.52v.62Zm-2-.49a1.86,1.86,0,0,0,.48-.06,1.26,1.26,0,0,0,.37-.17.91.91,0,0,0,.25-.27.57.57,0,0,0,.09-.32v-.74h-.93a1.68,1.68,0,0,0-.88.18.55.55,0,0,0-.27.5v.18a.61.61,0,0,0,.24.52A1.07,1.07,0,0,0,137.39,49.33Z"/>
    <path d="M145.72,49.1h0a1.37,1.37,0,0,1-1.32.82,1.68,1.68,0,0,1-.75-.16,1.65,1.65,0,0,1-.58-.47,2.14,2.14,0,0,1-.37-.74,3.76,3.76,0,0,1,0-2,2.14,2.14,0,0,1,.37-.74,1.65,1.65,0,0,1,.58-.47,1.68,1.68,0,0,1,.75-.16,1.48,1.48,0,0,1,.81.2,1.27,1.27,0,0,1,.51.62h0V43.37h.69v6.45h-.69Zm-1.16.21a1.62,1.62,0,0,0,.44-.07,1.11,1.11,0,0,0,.38-.18.81.81,0,0,0,.24-.28.76.76,0,0,0,.1-.39V46.7a.59.59,0,0,0-.1-.34.92.92,0,0,0-.24-.28,1.34,1.34,0,0,0-.38-.18,1.61,1.61,0,0,0-.44-.06,1.21,1.21,0,0,0-.94.37,1.42,1.42,0,0,0-.34,1V48a1.4,1.4,0,0,0,.34,1A1.21,1.21,0,0,0,144.56,49.31Z"/>
    <path d="M149.6,49.92a2,2,0,0,1-.83-.16,1.69,1.69,0,0,1-.64-.48,2.14,2.14,0,0,1-.42-.74,3,3,0,0,1-.15-1,3,3,0,0,1,.15-1,2.14,2.14,0,0,1,.42-.74,1.69,1.69,0,0,1,.64-.48,2.21,2.21,0,0,1,1.65,0,1.77,1.77,0,0,1,.64.48,2.14,2.14,0,0,1,.42.74,3,3,0,0,1,.15,1,3,3,0,0,1-.15,1,2.14,2.14,0,0,1-.42.74,1.77,1.77,0,0,1-.64.48A2,2,0,0,1,149.6,49.92Zm0-.61a1.28,1.28,0,0,0,.92-.35,1.44,1.44,0,0,0,.36-1.07v-.64a1.44,1.44,0,0,0-.36-1.07,1.43,1.43,0,0,0-1.85,0,1.44,1.44,0,0,0-.36,1.07v.64a1.44,1.44,0,0,0,.36,1.07A1.29,1.29,0,0,0,149.6,49.31Z"/>
    <path d="M158.71,49.82,158.1,48h-2.45l-.61,1.8h-.75l2.13-6.09h.93l2.13,6.09Zm-1.82-5.41h0l-1,3h2.1Z"/>
    <path d="M160.42,49.82v-4.5h.7v.83h0a1.32,1.32,0,0,1,.43-.58,1.4,1.4,0,0,1,.86-.25h.27V46h-.41a1.59,1.59,0,0,0-.88.21.63.63,0,0,0-.32.54v3Z"/>
    <path d="M167.37,49.92a2,2,0,0,1-.83-.16,1.77,1.77,0,0,1-.64-.48,2.29,2.29,0,0,1-.41-.74,3.24,3.24,0,0,1-.14-1,3.29,3.29,0,0,1,.14-1,2.29,2.29,0,0,1,.41-.74,1.77,1.77,0,0,1,.64-.48,2,2,0,0,1,.83-.16,1.89,1.89,0,0,1,.81.16,1.64,1.64,0,0,1,.61.46,1.94,1.94,0,0,1,.39.69,2.71,2.71,0,0,1,.14.88v.33h-3.24V48a1.51,1.51,0,0,0,.09.53,1.26,1.26,0,0,0,.27.43,1.22,1.22,0,0,0,.41.29,1.48,1.48,0,0,0,.57.11,1.39,1.39,0,0,0,.74-.2,1.33,1.33,0,0,0,.49-.58l.5.36a1.69,1.69,0,0,1-.68.75A2,2,0,0,1,167.37,49.92Zm0-4.12a1.27,1.27,0,0,0-.52.1,1.3,1.3,0,0,0-.41.28,1.34,1.34,0,0,0-.26.43,1.4,1.4,0,0,0-.1.54v.06h2.49v-.09a1.37,1.37,0,0,0-.33-1A1.12,1.12,0,0,0,167.37,45.8Z"/>
    <path d="M170.47,49.82v-4.5h.7V46h0a2,2,0,0,1,.18-.32,1.2,1.2,0,0,1,.24-.26,1,1,0,0,1,.34-.18,1.53,1.53,0,0,1,.45-.06,1.64,1.64,0,0,1,.82.21,1.27,1.27,0,0,1,.56.69h0a1.37,1.37,0,0,1,.45-.63,1.44,1.44,0,0,1,.92-.27,1.35,1.35,0,0,1,1.07.45,1.85,1.85,0,0,1,.39,1.26v2.89h-.7V47.05a1.48,1.48,0,0,0-.23-.91.9.9,0,0,0-.75-.3,1.33,1.33,0,0,0-.4,0,1.11,1.11,0,0,0-.33.15.88.88,0,0,0-.24.27.79.79,0,0,0-.09.38v3.13h-.69V47.05a1.47,1.47,0,0,0-.24-.91.87.87,0,0,0-.73-.3,1.29,1.29,0,0,0-.4,0,1.17,1.17,0,0,0-.34.15.88.88,0,0,0-.24.27.79.79,0,0,0-.09.38v3.13Z"/>
    <path d="M184,49.82h-4v-.75l2-1.83a4.28,4.28,0,0,0,.71-.84,1.62,1.62,0,0,0,.29-.88v-.11a1.17,1.17,0,0,0-.28-.82,1.06,1.06,0,0,0-.84-.31,1.45,1.45,0,0,0-.49.07,1.28,1.28,0,0,0-.36.22,1.06,1.06,0,0,0-.26.33,2.38,2.38,0,0,0-.16.4l-.65-.25a3.1,3.1,0,0,1,.24-.53,1.82,1.82,0,0,1,.38-.45,1.79,1.79,0,0,1,.56-.32,2.22,2.22,0,0,1,.77-.12,2.15,2.15,0,0,1,.79.13,1.61,1.61,0,0,1,.59.37,1.46,1.46,0,0,1,.36.55,2.09,2.09,0,0,1,.13.72,2.28,2.28,0,0,1-.1.66,2.58,2.58,0,0,1-.28.58,4,4,0,0,1-.42.54l-.54.52-1.64,1.47H184Z"/>
    <path d="M187.43,49.82v-4.5h.69V46h0a2,2,0,0,1,.18-.32,1,1,0,0,1,.24-.26,1,1,0,0,1,.34-.18,1.49,1.49,0,0,1,.45-.06,1.64,1.64,0,0,1,.82.21,1.27,1.27,0,0,1,.56.69h0a1.47,1.47,0,0,1,.46-.63,1.43,1.43,0,0,1,.91-.27,1.35,1.35,0,0,1,1.08.45,1.85,1.85,0,0,1,.39,1.26v2.89h-.7V47.05a1.55,1.55,0,0,0-.23-.91.9.9,0,0,0-.75-.3,1.29,1.29,0,0,0-.4,0,1.17,1.17,0,0,0-.34.15,1,1,0,0,0-.23.27.79.79,0,0,0-.09.38v3.13h-.7V47.05a1.48,1.48,0,0,0-.23-.91.87.87,0,0,0-.73-.3,1.4,1.4,0,0,0-.41,0,1.3,1.3,0,0,0-.34.15,1.25,1.25,0,0,0-.24.27.79.79,0,0,0-.09.38v3.13Z"/>
    <path d="M196.73,49.92a2,2,0,0,1-.83-.16,1.77,1.77,0,0,1-.64-.48,2.12,2.12,0,0,1-.41-.74,3,3,0,0,1-.14-1,3,3,0,0,1,.14-1,2.12,2.12,0,0,1,.41-.74,1.77,1.77,0,0,1,.64-.48,2,2,0,0,1,.83-.16,1.92,1.92,0,0,1,.81.16,1.73,1.73,0,0,1,.61.46,1.94,1.94,0,0,1,.39.69,2.71,2.71,0,0,1,.13.88v.33h-3.23V48a1.51,1.51,0,0,0,.09.53,1.24,1.24,0,0,0,.26.43,1.17,1.17,0,0,0,.42.29,1.43,1.43,0,0,0,.56.11,1.28,1.28,0,0,0,1.24-.78l.5.36a1.82,1.82,0,0,1-.68.75A2.07,2.07,0,0,1,196.73,49.92Zm0-4.12a1.24,1.24,0,0,0-.52.1,1.2,1.2,0,0,0-.41.28,1.57,1.57,0,0,0-.27.43,1.61,1.61,0,0,0-.09.54v.06h2.48v-.09a1.41,1.41,0,0,0-.32-1A1.12,1.12,0,0,0,196.73,45.8Z"/>
    <path d="M200.82,49.82a.75.75,0,0,1-.56-.2.8.8,0,0,1-.18-.54V45.94h-.74v-.62h.41a.41.41,0,0,0,.31-.09.45.45,0,0,0,.09-.32v-.84h.62v1.25h1v.62h-1V49.2h.92v.62Z"/>
    <path d="M202.88,49.82v-4.5h.7v.83h0a1.32,1.32,0,0,1,.43-.58,1.4,1.4,0,0,1,.86-.25h.27V46h-.41a1.59,1.59,0,0,0-.88.21.63.63,0,0,0-.32.54v3Z"/>
    <path d="M207.74,49.92a2,2,0,0,1-.83-.16,1.77,1.77,0,0,1-.64-.48,2.12,2.12,0,0,1-.41-.74,3,3,0,0,1-.15-1,3,3,0,0,1,.15-1,2.12,2.12,0,0,1,.41-.74,1.77,1.77,0,0,1,.64-.48,2,2,0,0,1,.83-.16,2,2,0,0,1,.82.16,1.9,1.9,0,0,1,.65.48,2.29,2.29,0,0,1,.41.74,3,3,0,0,1,.15,1,3,3,0,0,1-.15,1,2.29,2.29,0,0,1-.41.74,1.9,1.9,0,0,1-.65.48A2,2,0,0,1,207.74,49.92Zm0-.61a1.25,1.25,0,0,0,.92-.35,1.44,1.44,0,0,0,.36-1.07v-.64a1.44,1.44,0,0,0-.36-1.07,1.41,1.41,0,0,0-1.84,0,1.44,1.44,0,0,0-.36,1.07v.64a1.44,1.44,0,0,0,.36,1.07A1.25,1.25,0,0,0,207.74,49.31Z"/>
    <path d="M212.27,49.92a2.14,2.14,0,0,1-1.05-.24,2.19,2.19,0,0,1-.72-.64l.49-.4a2,2,0,0,0,.59.51,1.49,1.49,0,0,0,.75.18,1.11,1.11,0,0,0,.69-.19.64.64,0,0,0,.25-.54.66.66,0,0,0-.17-.45,1.12,1.12,0,0,0-.62-.26l-.35,0a3.1,3.1,0,0,1-.58-.13,2,2,0,0,1-.46-.25,1,1,0,0,1-.3-.38,1.13,1.13,0,0,1-.11-.54,1.34,1.34,0,0,1,.12-.58,1.12,1.12,0,0,1,.34-.41,1.35,1.35,0,0,1,.51-.25,2.13,2.13,0,0,1,.63-.08,1.87,1.87,0,0,1,1.57.72l-.46.42A1.29,1.29,0,0,0,213,46a1.42,1.42,0,0,0-.72-.17,1,1,0,0,0-.66.19.61.61,0,0,0-.22.51.53.53,0,0,0,.22.48,1.71,1.71,0,0,0,.64.21l.35.06a1.87,1.87,0,0,1,1.07.43,1.12,1.12,0,0,1,.31.83,1.29,1.29,0,0,1-.44,1A1.86,1.86,0,0,1,212.27,49.92Z"/>
    <path d="M217.21,47.1a6,6,0,0,1,.12-1.21,5.33,5.33,0,0,1,.34-1.09,5,5,0,0,1,.5-.91,4.24,4.24,0,0,1,.62-.7h.66a4.79,4.79,0,0,0-.66.75,5.1,5.1,0,0,0-.81,1.85,4,4,0,0,0-.12.94v.75a3.93,3.93,0,0,0,.12,1,4.71,4.71,0,0,0,.32,1,5.51,5.51,0,0,0,.5.89,3.85,3.85,0,0,0,.65.73h-.66a3.13,3.13,0,0,1-.61-.68,4.65,4.65,0,0,1-.5-.91,5.33,5.33,0,0,1-.34-1.09A5.58,5.58,0,0,1,217.21,47.1Z"/>
    <path d="M221.14,46.82a1.26,1.26,0,0,1-1-.41,1.73,1.73,0,0,1-.36-1.16,1.69,1.69,0,0,1,.36-1.15,1.23,1.23,0,0,1,1-.42,1.21,1.21,0,0,1,1,.42,1.69,1.69,0,0,1,.36,1.15,1.73,1.73,0,0,1-.36,1.16A1.23,1.23,0,0,1,221.14,46.82Zm0-.45a.67.67,0,0,0,.57-.24.93.93,0,0,0,.19-.61V45a.93.93,0,0,0-.19-.61.66.66,0,0,0-.57-.23.69.69,0,0,0-.57.23,1,1,0,0,0-.19.61v.54a1,1,0,0,0,.19.61A.69.69,0,0,0,221.14,46.37Z"/>
    <path d="M225.83,49.92a2.21,2.21,0,0,1-1.8-.78,3.63,3.63,0,0,1-.65-2.33,3.77,3.77,0,0,1,.65-2.36,2.15,2.15,0,0,1,1.8-.82A2.1,2.1,0,0,1,227.92,45l-.59.36a1.69,1.69,0,0,0-.56-.75,1.5,1.5,0,0,0-.94-.28,1.59,1.59,0,0,0-.7.14,1.35,1.35,0,0,0-.52.43,1.9,1.9,0,0,0-.33.65,2.89,2.89,0,0,0-.11.86v.91a2.29,2.29,0,0,0,.43,1.48,1.51,1.51,0,0,0,1.23.53,1.57,1.57,0,0,0,1-.3,1.73,1.73,0,0,0,.57-.8l.59.37a2.36,2.36,0,0,1-.83,1A2.32,2.32,0,0,1,225.83,49.92Z"/>
    <path d="M230.49,47.1a5.58,5.58,0,0,1-.13,1.23,6,6,0,0,1-.34,1.09,4.65,4.65,0,0,1-.5.91,3.41,3.41,0,0,1-.61.68h-.66a4.22,4.22,0,0,0,.65-.73,5.51,5.51,0,0,0,.5-.89,5.41,5.41,0,0,0,.32-1,4.47,4.47,0,0,0,.11-1v-.75a4.53,4.53,0,0,0-.11-.94,6,6,0,0,0-.32-1,5.2,5.2,0,0,0-.5-.89,4.27,4.27,0,0,0-.65-.75h.66a4.24,4.24,0,0,1,.62.7,5,5,0,0,1,.5.91,7,7,0,0,1,.34,1.09A6,6,0,0,1,230.49,47.1Z"/>
  </g>
</svg>
