<svg id="Camada_1" data-name="Camada 1" xmlns="http://www.w3.org/2000/svg" viewBox="0 0 320.4 57.45"><defs><style>.cls-1{opacity:0.75;}.cls-2{fill:#fff;}.cls-3{fill:#939393;}.cls-4{fill:#eb2b20;}.cls-5{fill:#d6111f;}.cls-6{fill:#bd0026;}.cls-7{fill:#0868ac;}.cls-8{fill:#001476;}.cls-9{fill:#081d58;}.cls-10{fill:#2b8cbe;}.cls-11{fill:#7bccc4;}.cls-12{fill:#a8ddb5;}.cls-13{fill:#ccebc5;}.cls-14{fill:#e0f3db;}.cls-15{fill:#ffc;}.cls-16{fill:#ffeda0;}.cls-17{fill:#fed976;}.cls-18{fill:#feb24c;}.cls-19{fill:#fc4e2a;}</style></defs><title>LEGENDAS - ESCALA</title><g class="cls-1"><path class="cls-2" d="M0,6.38C0,2.86,3.19,0,7.12,0H313.28c3.94,0,7.12,2.86,7.12,6.38V51.07c0,3.52-3.18,6.38-7.12,6.38H7.12C3.19,57.45,0,54.59,0,51.07Z"/></g><path class="cls-2" d="M154.42,23.58H149a2,2,0,0,1-2.11-2V10.68a2,2,0,0,1,2.11-2h5.46a2,2,0,0,1,2.11,2V21.61A2,2,0,0,1,154.42,23.58Z"/><path class="cls-3" d="M154.42,23.83H149a2.29,2.29,0,0,1-2.36-2.22V10.68A2.29,2.29,0,0,1,149,8.46h5.46a2.3,2.3,0,0,1,2.36,2.22V21.61A2.29,2.29,0,0,1,154.42,23.83ZM149,9a1.79,1.79,0,0,0-1.86,1.72V21.61A1.79,1.79,0,0,0,149,23.33h5.46a1.79,1.79,0,0,0,1.86-1.72V10.68A1.79,1.79,0,0,0,154.42,9Z"/><path class="cls-4" d="M274,23.58h-5.47a2,2,0,0,1-2.11-2V10.68a2,2,0,0,1,2.11-2H274a2,2,0,0,1,2.11,2V21.61A2.05,2.05,0,0,1,274,23.58Z"/><path class="cls-5" d="M291.11,23.58h-5.46a2,2,0,0,1-2.11-2V10.68a2,2,0,0,1,2.11-2h5.46a2,2,0,0,1,2.11,2V21.61A2,2,0,0,1,291.11,23.58Z"/><path class="cls-6" d="M308.2,23.58h-5.46a2,2,0,0,1-2.11-2V10.68a2,2,0,0,1,2.11-2h5.46a2,2,0,0,1,2.11,2V21.61A2,2,0,0,1,308.2,23.58Z"/><path class="cls-7" d="M51.82,23.58H46.35a2,2,0,0,1-2.11-2V10.68a2,2,0,0,1,2.11-2h5.47a2,2,0,0,1,2.11,2V21.61A2,2,0,0,1,51.82,23.58Z"/><path class="cls-8" d="M34.74,23.58H29.28a2,2,0,0,1-2.11-2V10.68a2,2,0,0,1,2.11-2h5.46a2,2,0,0,1,2.11,2V21.61A2,2,0,0,1,34.74,23.58Z"/><path class="cls-9" d="M17.67,23.58H12.2a2,2,0,0,1-2.11-2V10.68a2,2,0,0,1,2.11-2h5.47a2,2,0,0,1,2.11,2V21.61A2,2,0,0,1,17.67,23.58Z"/><path class="cls-10" d="M68.91,23.58H63.44a2,2,0,0,1-2.11-2V10.68a2,2,0,0,1,2.11-2h5.47a2,2,0,0,1,2.11,2V21.61A2.05,2.05,0,0,1,68.91,23.58Z"/><path class="cls-11" d="M86,23.58H80.53a2,2,0,0,1-2.11-2V10.68a2,2,0,0,1,2.11-2H86a2,2,0,0,1,2.11,2V21.61A2.05,2.05,0,0,1,86,23.58Z"/><path class="cls-12" d="M103.08,23.58H97.61a2,2,0,0,1-2.11-2V10.68a2,2,0,0,1,2.11-2h5.47a2,2,0,0,1,2.11,2V21.61A2.05,2.05,0,0,1,103.08,23.58Z"/><path class="cls-13" d="M120.17,23.58H114.7a2,2,0,0,1-2.11-2V10.68a2,2,0,0,1,2.11-2h5.47a2,2,0,0,1,2.1,2V21.61A2,2,0,0,1,120.17,23.58Z"/><path class="cls-14" d="M137.25,23.58h-5.46a2,2,0,0,1-2.11-2V10.68a2,2,0,0,1,2.11-2h5.46a2,2,0,0,1,2.11,2V21.61A2,2,0,0,1,137.25,23.58Z"/><path class="cls-2" d="M171.51,23.58H166a2,2,0,0,1-2.11-2V10.68a2,2,0,0,1,2.11-2h5.47a2,2,0,0,1,2.11,2V21.61A2,2,0,0,1,171.51,23.58Z"/><path class="cls-3" d="M171.51,23.83H166a2.29,2.29,0,0,1-2.36-2.22V10.68A2.3,2.3,0,0,1,166,8.46h5.47a2.3,2.3,0,0,1,2.36,2.22V21.61A2.29,2.29,0,0,1,171.51,23.83ZM166,9a1.8,1.8,0,0,0-1.86,1.72V21.61A1.8,1.8,0,0,0,166,23.33h5.47a1.79,1.79,0,0,0,1.86-1.72V10.68A1.79,1.79,0,0,0,171.51,9Z"/><path class="cls-15" d="M188.59,23.58h-5.47a2,2,0,0,1-2.1-2V10.68a2,2,0,0,1,2.1-2h5.47a2,2,0,0,1,2.11,2V21.61A2,2,0,0,1,188.59,23.58Z"/><path class="cls-16" d="M205.68,23.58h-5.47a2,2,0,0,1-2.11-2V10.68a2,2,0,0,1,2.11-2h5.47a2,2,0,0,1,2.11,2V21.61A2,2,0,0,1,205.68,23.58Z"/><path class="cls-17" d="M222.77,23.58H217.3a2,2,0,0,1-2.11-2V10.68a2,2,0,0,1,2.11-2h5.47a2,2,0,0,1,2.11,2V21.61A2.05,2.05,0,0,1,222.77,23.58Z"/><path class="cls-18" d="M239.85,23.58h-5.47a2,2,0,0,1-2.11-2V10.68a2,2,0,0,1,2.11-2h5.47a2,2,0,0,1,2.11,2V21.61A2,2,0,0,1,239.85,23.58Z"/><path class="cls-19" d="M256.94,23.58h-5.47a2,2,0,0,1-2.11-2V10.68a2,2,0,0,1,2.11-2h5.47a2,2,0,0,1,2.11,2V21.61A2.05,2.05,0,0,1,256.94,23.58Z"/><path d="M53.69,33.8V33h2.48v.82Z"/><path d="M59.31,32.44a1.49,1.49,0,0,0,1-.3,1,1,0,0,0,.33-.79v-.07a.92.92,0,0,0-.32-.78,1.38,1.38,0,0,0-.86-.26,1.44,1.44,0,0,0-.84.22,1.76,1.76,0,0,0-.53.61l-.59-.46a2.55,2.55,0,0,1,.3-.39,2,2,0,0,1,.41-.35,2.13,2.13,0,0,1,.55-.24,2.63,2.63,0,0,1,.72-.09,3,3,0,0,1,.79.1,2,2,0,0,1,.64.33,1.42,1.42,0,0,1,.42.52,1.69,1.69,0,0,1,.06,1.29,1.48,1.48,0,0,1-.27.44,1.38,1.38,0,0,1-.4.32,1.94,1.94,0,0,1-.5.2v0a2,2,0,0,1,.51.19,1.45,1.45,0,0,1,.45.33,1.41,1.41,0,0,1,.31.5,1.69,1.69,0,0,1,.12.66,1.86,1.86,0,0,1-.16.79,1.93,1.93,0,0,1-.45.61,2.26,2.26,0,0,1-.72.39,2.65,2.65,0,0,1-.92.14,2.93,2.93,0,0,1-.76-.09,2.44,2.44,0,0,1-.59-.25,2.6,2.6,0,0,1-.79-.78l.59-.45q.13.2.27.36a1.4,1.4,0,0,0,.33.27,1.38,1.38,0,0,0,.41.18,2.09,2.09,0,0,0,.53.06,1.59,1.59,0,0,0,1.07-.32,1.15,1.15,0,0,0,.36-.91v-.08a1.15,1.15,0,0,0-.36-.91,1.54,1.54,0,0,0-1.07-.32h-.78v-.71Z"/><path d="M19.35,33.8V33h2.48v.82Z"/><path d="M26.05,36.28V35H22.84v-.7l2.78-4.63H26.8v4.66h1V35h-1v1.3Zm-2.46-2h2.46v-4H26Z"/><path d="M87.73,33.8V33h2.48v.82Z"/><path d="M95.93,36.28H91.58v-.82l2.17-2a5,5,0,0,0,.78-.91,1.74,1.74,0,0,0,.31-1v-.11a1.32,1.32,0,0,0-.3-.9,1.17,1.17,0,0,0-.92-.34,1.75,1.75,0,0,0-.54.08,1.28,1.28,0,0,0-.39.24,1.45,1.45,0,0,0-.28.36,1.92,1.92,0,0,0-.17.44l-.71-.28a2.88,2.88,0,0,1,.26-.57,2,2,0,0,1,.42-.5,1.84,1.84,0,0,1,.6-.34,2.39,2.39,0,0,1,.84-.13,2.34,2.34,0,0,1,.87.14,1.7,1.7,0,0,1,.63.4,1.62,1.62,0,0,1,.4.6,2.21,2.21,0,0,1,.14.78,2.36,2.36,0,0,1-.11.72,3.41,3.41,0,0,1-.3.64,4.67,4.67,0,0,1-.46.58c-.18.19-.38.38-.59.57l-1.78,1.61h3.48Z"/><path d="M121.72,33.8V33h2.48v.82Z"/><path d="M125.69,36.28v-.7h1.85V30.24h-.07L125.8,31.8l-.46-.51,1.75-1.64h1.25v5.93h1.71v.7Z"/><path d="M160.2,36.39a1.87,1.87,0,0,1-1.73-.9,4.81,4.81,0,0,1-.55-2.52,4.82,4.82,0,0,1,.55-2.53,1.87,1.87,0,0,1,1.73-.9,1.9,1.9,0,0,1,1.74.9,4.93,4.93,0,0,1,.54,2.53,4.91,4.91,0,0,1-.54,2.52A1.9,1.9,0,0,1,160.2,36.39Zm0-.7a1.3,1.3,0,0,0,.67-.16,1.27,1.27,0,0,0,.44-.45,2.36,2.36,0,0,0,.26-.69,4.82,4.82,0,0,0,.08-.89V32.43a4.63,4.63,0,0,0-.08-.88,2.32,2.32,0,0,0-.26-.7,1.27,1.27,0,0,0-.44-.45,1.3,1.3,0,0,0-.67-.16,1.24,1.24,0,0,0-.66.16,1.21,1.21,0,0,0-.45.45,2.31,2.31,0,0,0-.25.7,4.63,4.63,0,0,0-.08.88V33.5a4.82,4.82,0,0,0,.08.89,2.35,2.35,0,0,0,.25.69,1.21,1.21,0,0,0,.45.45A1.24,1.24,0,0,0,160.2,35.69Z"/><path d="M192.43,36.28v-.7h1.85V30.24h-.07l-1.67,1.56-.47-.51,1.76-1.64h1.25v5.93h1.71v.7Z"/><path d="M230.81,36.28h-4.35v-.82l2.17-2a4.6,4.6,0,0,0,.77-.91,1.75,1.75,0,0,0,.32-1v-.11a1.28,1.28,0,0,0-.31-.9,1.16,1.16,0,0,0-.92-.34,1.69,1.69,0,0,0-.53.08,1.28,1.28,0,0,0-.39.24,1.25,1.25,0,0,0-.28.36,1.92,1.92,0,0,0-.17.44l-.72-.28a3.6,3.6,0,0,1,.26-.57,2,2,0,0,1,.42-.5,1.89,1.89,0,0,1,.61-.34,2.78,2.78,0,0,1,1.71,0,1.7,1.7,0,0,1,.63.4,1.91,1.91,0,0,1,.4.6,2.2,2.2,0,0,1,.13.78,2.09,2.09,0,0,1-.11.72,2.85,2.85,0,0,1-.29.64,4,4,0,0,1-.47.58c-.18.19-.37.38-.58.57l-1.79,1.61h3.49Z"/><path d="M262.66,32.44a1.49,1.49,0,0,0,1-.3,1,1,0,0,0,.33-.79v-.07a.92.92,0,0,0-.32-.78,1.38,1.38,0,0,0-.86-.26,1.46,1.46,0,0,0-.84.22,1.76,1.76,0,0,0-.53.61l-.59-.46a2.55,2.55,0,0,1,.3-.39,1.94,1.94,0,0,1,1-.59,2.63,2.63,0,0,1,.72-.09,2.9,2.9,0,0,1,.79.1,1.94,1.94,0,0,1,.64.33,1.42,1.42,0,0,1,.42.52,1.69,1.69,0,0,1,.06,1.29,1.48,1.48,0,0,1-.27.44,1.38,1.38,0,0,1-.4.32,1.94,1.94,0,0,1-.5.2v0a2.18,2.18,0,0,1,.52.19,1.54,1.54,0,0,1,.44.33,1.59,1.59,0,0,1,.32.5,1.9,1.9,0,0,1,.11.66,1.86,1.86,0,0,1-.16.79,1.79,1.79,0,0,1-.45.61,2.26,2.26,0,0,1-.72.39,2.65,2.65,0,0,1-.92.14,2.93,2.93,0,0,1-.76-.09,2.62,2.62,0,0,1-.59-.25,2.6,2.6,0,0,1-.79-.78l.59-.45a3.44,3.44,0,0,0,.28.36,1.18,1.18,0,0,0,.32.27,1.38,1.38,0,0,0,.41.18,2.09,2.09,0,0,0,.53.06,1.59,1.59,0,0,0,1.07-.32,1.15,1.15,0,0,0,.36-.91v-.08a1.15,1.15,0,0,0-.36-.91,1.54,1.54,0,0,0-1.07-.32h-.78v-.71Z"/><path d="M297.69,36.28V35h-3.2v-.7l2.78-4.63h1.18v4.66h1V35h-1v1.3Zm-2.45-2h2.45v-4h0Z"/><path d="M109.37,44.44v5.93h-.79V44.44h-2.11v-.71h5v.71Z"/><path d="M113.73,50.48a2.21,2.21,0,0,1-.91-.18,2,2,0,0,1-.7-.52,2.25,2.25,0,0,1-.44-.81,3.15,3.15,0,0,1-.16-1.06,3.21,3.21,0,0,1,.16-1,2.25,2.25,0,0,1,.44-.81,2,2,0,0,1,.7-.52,2.21,2.21,0,0,1,.91-.18,2.1,2.1,0,0,1,.88.18,1.81,1.81,0,0,1,.66.5,2.13,2.13,0,0,1,.43.75,3.21,3.21,0,0,1,.14.95v.36h-3.52v.23a1.63,1.63,0,0,0,.1.59,1.58,1.58,0,0,0,.28.47,1.43,1.43,0,0,0,1.07.42,1.53,1.53,0,0,0,.81-.21,1.45,1.45,0,0,0,.54-.63l.54.39a1.88,1.88,0,0,1-.74.82A2.18,2.18,0,0,1,113.73,50.48Zm0-4.49a1.57,1.57,0,0,0-.58.1,1.52,1.52,0,0,0-.44.31,1.49,1.49,0,0,0-.29.47,1.59,1.59,0,0,0-.1.59v.06H115v-.1a1.48,1.48,0,0,0-.36-1A1.21,1.21,0,0,0,113.73,46Z"/><path d="M117.1,50.37V45.46h.76v.79h0a2.37,2.37,0,0,1,.19-.35,1.06,1.06,0,0,1,.27-.29,1.23,1.23,0,0,1,.36-.19,1.51,1.51,0,0,1,.5-.07,1.82,1.82,0,0,1,.89.23,1.44,1.44,0,0,1,.61.76h0a1.34,1.34,0,0,1,.5-.69,1.5,1.5,0,0,1,1-.3,1.45,1.45,0,0,1,1.17.49,2.05,2.05,0,0,1,.42,1.38v3.15h-.76v-3a1.61,1.61,0,0,0-.25-1A1,1,0,0,0,122,46a1.49,1.49,0,0,0-.43.06,1.4,1.4,0,0,0-.37.17.78.78,0,0,0-.25.29.82.82,0,0,0-.1.42v3.41h-.76v-3a1.6,1.6,0,0,0-.26-1A.91.91,0,0,0,119,46a1.56,1.56,0,0,0-.44.06,1.4,1.4,0,0,0-.37.17.8.8,0,0,0-.26.29.82.82,0,0,0-.1.42v3.41Z"/><path d="M125.39,45.46h.76v.79h0a1.4,1.4,0,0,1,.55-.68,1.67,1.67,0,0,1,.88-.22,1.87,1.87,0,0,1,.83.18,1.73,1.73,0,0,1,.63.51,2.2,2.2,0,0,1,.4.81,4.12,4.12,0,0,1,0,2.13,2.36,2.36,0,0,1-.4.81,1.73,1.73,0,0,1-.63.51,1.87,1.87,0,0,1-.83.18,1.48,1.48,0,0,1-1.43-.9h0v2.68h-.76Zm2,4.34a1.3,1.3,0,0,0,1-.4,1.52,1.52,0,0,0,.37-1.07v-.84a1.49,1.49,0,0,0-.37-1.06,1.31,1.31,0,0,0-1-.41,1.85,1.85,0,0,0-.48.07,1.56,1.56,0,0,0-.41.2,1,1,0,0,0-.27.3.72.72,0,0,0-.1.38V48.8a.88.88,0,0,0,.1.43,1,1,0,0,0,.27.31,1.31,1.31,0,0,0,.41.2A1.86,1.86,0,0,0,127.41,49.8Z"/><path d="M132.74,50.48a2.19,2.19,0,0,1-.9-.18,2,2,0,0,1-.7-.52,2.25,2.25,0,0,1-.44-.81,3.15,3.15,0,0,1-.16-1.06,3.21,3.21,0,0,1,.16-1,2.25,2.25,0,0,1,.44-.81,2,2,0,0,1,.7-.52,2.19,2.19,0,0,1,.9-.18,2.11,2.11,0,0,1,.89.18,1.81,1.81,0,0,1,.66.5,2,2,0,0,1,.42.75,2.91,2.91,0,0,1,.15.95v.36h-3.52v.23a1.63,1.63,0,0,0,.1.59,1.4,1.4,0,0,0,.28.47,1.43,1.43,0,0,0,1.07.42,1.39,1.39,0,0,0,1.35-.84l.54.39a1.88,1.88,0,0,1-.74.82A2.19,2.19,0,0,1,132.74,50.48Zm0-4.49a1.48,1.48,0,0,0-.57.1,1.52,1.52,0,0,0-.44.31,1.49,1.49,0,0,0-.29.47,1.59,1.59,0,0,0-.1.59v.06h2.71v-.1a1.48,1.48,0,0,0-.36-1A1.22,1.22,0,0,0,132.74,46Z"/><path d="M136.12,50.37V45.46h.76v.91h0a1.44,1.44,0,0,1,.48-.63,1.42,1.42,0,0,1,.94-.28h.29v.76h-.44a1.7,1.7,0,0,0-1,.24.67.67,0,0,0-.34.58v3.33Z"/><path d="M143.13,50.37a.77.77,0,0,1-.62-.23,1.17,1.17,0,0,1-.23-.57h-.05a1.22,1.22,0,0,1-.53.68,1.67,1.67,0,0,1-.88.23,1.7,1.7,0,0,1-1.21-.4,1.41,1.41,0,0,1-.44-1.08,1.25,1.25,0,0,1,.51-1.07,2.77,2.77,0,0,1,1.58-.37h1v-.48a1.05,1.05,0,0,0-.28-.8,1.24,1.24,0,0,0-.88-.28,1.34,1.34,0,0,0-.74.2,1.63,1.63,0,0,0-.5.54l-.46-.43a1.8,1.8,0,0,1,.64-.68,2.36,2.36,0,0,1,2.49.16A1.52,1.52,0,0,1,143,47v2.69h.56v.68Zm-2.19-.54a2.06,2.06,0,0,0,.52-.06,1.42,1.42,0,0,0,.41-.19.92.92,0,0,0,.27-.29.7.7,0,0,0,.09-.35v-.81h-1a1.92,1.92,0,0,0-1,.19.62.62,0,0,0-.3.55v.2a.67.67,0,0,0,.26.56A1.11,1.11,0,0,0,140.94,49.83Z"/><path d="M145.72,50.37a.75.75,0,0,1-.6-.23.81.81,0,0,1-.21-.58V46.14h-.8v-.68h.45a.43.43,0,0,0,.34-.1A.5.5,0,0,0,145,45V44.1h.68v1.36h1.08v.68h-1.08v3.55h1v.68Z"/><path d="M151,49.58h0a2.68,2.68,0,0,1-.18.33,1.06,1.06,0,0,1-.27.29,1.2,1.2,0,0,1-.39.2,1.69,1.69,0,0,1-.53.08,1.55,1.55,0,0,1-1.21-.49,2,2,0,0,1-.45-1.38V45.46h.76v3c0,.88.38,1.32,1.13,1.32a1.65,1.65,0,0,0,.44,0,1.46,1.46,0,0,0,.38-.17.89.89,0,0,0,.26-.29.83.83,0,0,0,.1-.43v-3.4h.76v4.91H151Z"/><path d="M153.37,50.37V45.46h.76v.91h.05a1.35,1.35,0,0,1,.47-.63,1.42,1.42,0,0,1,.94-.28h.3v.76h-.45a1.72,1.72,0,0,0-1,.24.67.67,0,0,0-.34.58v3.33Z"/><path d="M160.38,50.37a.74.74,0,0,1-.61-.23,1.09,1.09,0,0,1-.24-.57h0a1.28,1.28,0,0,1-.54.68,1.65,1.65,0,0,1-.88.23,1.7,1.7,0,0,1-1.21-.4,1.4,1.4,0,0,1-.43-1.08,1.27,1.27,0,0,1,.5-1.07,2.78,2.78,0,0,1,1.59-.37h1v-.48a1.06,1.06,0,0,0-.29-.8,1.23,1.23,0,0,0-.87-.28,1.35,1.35,0,0,0-.75.2,1.63,1.63,0,0,0-.5.54l-.45-.43a1.7,1.7,0,0,1,.63-.68,2.36,2.36,0,0,1,2.49.16,1.52,1.52,0,0,1,.49,1.21v2.69h.57v.68Zm-2.19-.54a2.2,2.2,0,0,0,.53-.06,1.48,1.48,0,0,0,.4-.19.92.92,0,0,0,.27-.29.71.71,0,0,0,.1-.35v-.81h-1a1.92,1.92,0,0,0-1,.19.62.62,0,0,0-.3.55v.2a.65.65,0,0,0,.27.56A1.08,1.08,0,0,0,158.19,49.83Z"/><path d="M167.27,49.58h0a1.51,1.51,0,0,1-1.44.9,1.83,1.83,0,0,1-.82-.18,1.86,1.86,0,0,1-.64-.51,2.54,2.54,0,0,1-.39-.81,4.12,4.12,0,0,1,0-2.13,2.35,2.35,0,0,1,.39-.81,1.86,1.86,0,0,1,.64-.51,1.83,1.83,0,0,1,.82-.18,1.64,1.64,0,0,1,.88.22,1.42,1.42,0,0,1,.56.68h0V43.33H168v7h-.76ZM166,49.8a1.93,1.93,0,0,0,.49-.06,1.16,1.16,0,0,0,.4-.2.92.92,0,0,0,.28-.31,1,1,0,0,0,.1-.43V47a.83.83,0,0,0-.1-.38.89.89,0,0,0-.28-.3,1.36,1.36,0,0,0-.4-.2A1.93,1.93,0,0,0,166,46a1.29,1.29,0,0,0-1,.41,1.5,1.5,0,0,0-.38,1.06v.84A1.52,1.52,0,0,0,165,49.4,1.28,1.28,0,0,0,166,49.8Z"/><path d="M173.2,50.37a.75.75,0,0,1-.61-.23,1.17,1.17,0,0,1-.23-.57h-.05a1.31,1.31,0,0,1-.53.68,1.68,1.68,0,0,1-.89.23,1.7,1.7,0,0,1-1.21-.4,1.4,1.4,0,0,1-.43-1.08,1.25,1.25,0,0,1,.51-1.07,2.74,2.74,0,0,1,1.58-.37h1v-.48a1.06,1.06,0,0,0-.29-.8,1.23,1.23,0,0,0-.87-.28,1.35,1.35,0,0,0-.75.2,1.6,1.6,0,0,0-.49.54l-.46-.43a1.66,1.66,0,0,1,.64-.68,2,2,0,0,1,1.1-.28,2,2,0,0,1,1.39.44,1.55,1.55,0,0,1,.49,1.21v2.69h.56v.68ZM171,49.83a2.12,2.12,0,0,0,.52-.06,1.55,1.55,0,0,0,.41-.19,1,1,0,0,0,.26-.29.62.62,0,0,0,.1-.35v-.81h-1a1.91,1.91,0,0,0-1,.19.62.62,0,0,0-.3.55v.2a.67.67,0,0,0,.26.56A1.09,1.09,0,0,0,171,49.83Z"/><path d="M178.89,50.48a2.77,2.77,0,0,1-1.37-.31,2.83,2.83,0,0,1-1-.85l.58-.49a2.67,2.67,0,0,0,.78.7,1.94,1.94,0,0,0,1,.25,1.55,1.55,0,0,0,1.09-.35,1.16,1.16,0,0,0,.37-.91.94.94,0,0,0-.28-.73,2.12,2.12,0,0,0-.94-.41l-.54-.12a3.1,3.1,0,0,1-1.39-.63,1.49,1.49,0,0,1-.48-1.2,1.71,1.71,0,0,1,.16-.77,1.4,1.4,0,0,1,.45-.57,1.87,1.87,0,0,1,.69-.35,3.14,3.14,0,0,1,.89-.12,2.73,2.73,0,0,1,1.29.28,2.45,2.45,0,0,1,.9.8l-.59.44a2.25,2.25,0,0,0-.67-.6,2,2,0,0,0-1-.22,1.65,1.65,0,0,0-1,.27,1,1,0,0,0-.37.82.87.87,0,0,0,.31.71,2.37,2.37,0,0,0,.94.39l.54.12a2.9,2.9,0,0,1,1.42.67,1.6,1.6,0,0,1,.43,1.18,2.19,2.19,0,0,1-.15.83,1.71,1.71,0,0,1-.46.63,2.12,2.12,0,0,1-.71.4A3.13,3.13,0,0,1,178.89,50.48Z"/><path d="M185.49,49.58h0a2.79,2.79,0,0,1-.19.33,1.06,1.06,0,0,1-.27.29,1.2,1.2,0,0,1-.39.2,1.69,1.69,0,0,1-.53.08,1.55,1.55,0,0,1-1.21-.49,2,2,0,0,1-.44-1.38V45.46h.76v3c0,.88.37,1.32,1.12,1.32a1.61,1.61,0,0,0,.44,0,1.46,1.46,0,0,0,.38-.17,1.06,1.06,0,0,0,.27-.29.94.94,0,0,0,.09-.43v-3.4h.76v4.91h-.76Z"/><path d="M187.87,45.46h.76v.79h0a1.35,1.35,0,0,1,.55-.68,1.67,1.67,0,0,1,.88-.22,1.87,1.87,0,0,1,.83.18,1.73,1.73,0,0,1,.63.51,2.2,2.2,0,0,1,.4.81A4.12,4.12,0,0,1,192,49a2.36,2.36,0,0,1-.4.81,1.73,1.73,0,0,1-.63.51,1.87,1.87,0,0,1-.83.18,1.48,1.48,0,0,1-1.43-.9h0v2.68h-.76Zm2,4.34a1.32,1.32,0,0,0,1-.4,1.52,1.52,0,0,0,.37-1.07v-.84a1.49,1.49,0,0,0-.37-1.06,1.33,1.33,0,0,0-1-.41,2,2,0,0,0-.49.07,1.5,1.5,0,0,0-.4.2,1,1,0,0,0-.27.3.72.72,0,0,0-.1.38V48.8a.88.88,0,0,0,.1.43,1,1,0,0,0,.27.31,1.25,1.25,0,0,0,.4.2A2,2,0,0,0,189.89,49.8Z"/><path d="M195.22,50.48a2.16,2.16,0,0,1-.9-.18,2,2,0,0,1-.7-.52,2.25,2.25,0,0,1-.44-.81,3.15,3.15,0,0,1-.16-1.06,3.21,3.21,0,0,1,.16-1,2.25,2.25,0,0,1,.44-.81,2,2,0,0,1,.7-.52,2.16,2.16,0,0,1,.9-.18,2.11,2.11,0,0,1,.89.18,1.81,1.81,0,0,1,.66.5,2.12,2.12,0,0,1,.42.75,2.91,2.91,0,0,1,.15.95v.36h-3.52v.23a1.63,1.63,0,0,0,.1.59,1.4,1.4,0,0,0,.28.47,1.38,1.38,0,0,0,.46.31,1.48,1.48,0,0,0,.61.11,1.39,1.39,0,0,0,1.35-.84l.54.39a1.88,1.88,0,0,1-.74.82A2.21,2.21,0,0,1,195.22,50.48Zm0-4.49a1.48,1.48,0,0,0-.57.1,1.4,1.4,0,0,0-.44.31,1.49,1.49,0,0,0-.29.47,1.59,1.59,0,0,0-.1.59v.06h2.7v-.1a1.52,1.52,0,0,0-.35-1A1.24,1.24,0,0,0,195.22,46Z"/><path d="M198.6,50.37V45.46h.76v.91h0a1.44,1.44,0,0,1,.48-.63,1.42,1.42,0,0,1,.94-.28h.29v.76h-.44a1.67,1.67,0,0,0-1,.24.67.67,0,0,0-.34.58v3.33Z"/><path d="M202.39,46.14h-.8v-.68h.8v-1a1.21,1.21,0,0,1,.26-.82,1,1,0,0,1,.81-.32h.74V44h-1v1.45h1v.68h-1v4.23h-.76Z"/><path d="M205.65,44.81l-.49-.23L206,43l.69.34Zm-.45,5.56V45.46H206v4.91Z"/><path d="M209.4,50.48a2.22,2.22,0,0,1-.92-.18,1.78,1.78,0,0,1-.69-.51,2.42,2.42,0,0,1-.43-.81,3.86,3.86,0,0,1,0-2.13,2.24,2.24,0,0,1,.43-.81,1.78,1.78,0,0,1,.69-.51,2.22,2.22,0,0,1,.92-.18,2,2,0,0,1,1.17.32,2,2,0,0,1,.66.83l-.64.32a1.18,1.18,0,0,0-.43-.59,1.33,1.33,0,0,0-.76-.21,1.57,1.57,0,0,0-.6.11,1.35,1.35,0,0,0-.43.31,1.38,1.38,0,0,0-.26.46,2.23,2.23,0,0,0-.08.6v.83a1.54,1.54,0,0,0,.35,1.06,1.24,1.24,0,0,0,1,.41,1.39,1.39,0,0,0,1.33-.85l.55.37a2,2,0,0,1-.71.85A2.12,2.12,0,0,1,209.4,50.48Z"/><path d="M212.73,44.31a.49.49,0,0,1-.36-.12.42.42,0,0,1-.1-.3v-.13a.46.46,0,0,1,.1-.31.54.54,0,0,1,.36-.12.52.52,0,0,1,.36.12.47.47,0,0,1,.11.31v.13a.42.42,0,0,1-.11.3A.47.47,0,0,1,212.73,44.31Zm-.38,1.15h.76v4.91h-.76Z"/><path d="M216.57,50.48a2.21,2.21,0,0,1-.91-.18,1.86,1.86,0,0,1-.69-.52,2.43,2.43,0,0,1-.45-.81,3.42,3.42,0,0,1-.16-1.06,3.5,3.5,0,0,1,.16-1,2.43,2.43,0,0,1,.45-.81,1.86,1.86,0,0,1,.69-.52,2.21,2.21,0,0,1,.91-.18,2.07,2.07,0,0,1,.88.18,1.93,1.93,0,0,1,.67.5,2.28,2.28,0,0,1,.42.75,2.91,2.91,0,0,1,.15.95v.36h-3.53v.23a1.87,1.87,0,0,0,.1.59,1.42,1.42,0,0,0,.29.47,1.34,1.34,0,0,0,.45.31,1.48,1.48,0,0,0,2-.73l.54.39a2,2,0,0,1-.74.82A2.23,2.23,0,0,1,216.57,50.48Zm0-4.49a1.48,1.48,0,0,0-.57.1,1.4,1.4,0,0,0-.44.31,1.33,1.33,0,0,0-.29.47,1.59,1.59,0,0,0-.11.59v.06h2.71v-.1a1.48,1.48,0,0,0-.36-1A1.2,1.2,0,0,0,216.57,46Z"/><path d="M225.32,49.58h0a1.49,1.49,0,0,1-1.43.9,1.87,1.87,0,0,1-.83-.18,1.73,1.73,0,0,1-.63-.51A2.36,2.36,0,0,1,222,49a4.12,4.12,0,0,1,0-2.13,2.2,2.2,0,0,1,.4-.81,1.73,1.73,0,0,1,.63-.51,1.87,1.87,0,0,1,.83-.18,1.67,1.67,0,0,1,.88.22,1.4,1.4,0,0,1,.55.68h0V43.33h.76v7h-.76Zm-1.26.22a1.86,1.86,0,0,0,.48-.06,1.31,1.31,0,0,0,.41-.2,1,1,0,0,0,.27-.31.88.88,0,0,0,.1-.43V47a.72.72,0,0,0-.1-.38,1,1,0,0,0-.27-.3,1.56,1.56,0,0,0-.41-.2,1.85,1.85,0,0,0-.48-.07,1.31,1.31,0,0,0-1,.41,1.49,1.49,0,0,0-.37,1.06v.84A1.52,1.52,0,0,0,223,49.4,1.3,1.3,0,0,0,224.06,49.8Z"/><path d="M229.55,50.48a2.27,2.27,0,0,1-.91-.18,1.86,1.86,0,0,1-.69-.52,2.29,2.29,0,0,1-.46-.81,3.42,3.42,0,0,1-.16-1.06,3.5,3.5,0,0,1,.16-1,2.29,2.29,0,0,1,.46-.81,1.86,1.86,0,0,1,.69-.52,2.27,2.27,0,0,1,.91-.18,2.14,2.14,0,0,1,.89.18,1.89,1.89,0,0,1,.7.52,2.29,2.29,0,0,1,.46.81,3.21,3.21,0,0,1,.16,1A3.15,3.15,0,0,1,231.6,49a2.29,2.29,0,0,1-.46.81,1.89,1.89,0,0,1-.7.52A2.14,2.14,0,0,1,229.55,50.48Zm0-.68a1.34,1.34,0,0,0,1-.38,1.52,1.52,0,0,0,.39-1.15v-.71a1.56,1.56,0,0,0-.39-1.16,1.52,1.52,0,0,0-2,0,1.56,1.56,0,0,0-.39,1.16v.71a1.52,1.52,0,0,0,.39,1.15A1.35,1.35,0,0,0,229.55,49.8Z"/><path d="M240.5,44.78h-.05l-.56,1.11-1.58,2.89-1.59-2.89-.56-1.11h0v5.59h-.78V43.73h1.07l1.9,3.58h0l1.91-3.58h1v6.64h-.78Z"/><path d="M246.53,50.37a.75.75,0,0,1-.61-.23,1.17,1.17,0,0,1-.23-.57h-.05a1.26,1.26,0,0,1-.53.68,1.68,1.68,0,0,1-.89.23,1.7,1.7,0,0,1-1.21-.4,1.4,1.4,0,0,1-.43-1.08,1.25,1.25,0,0,1,.51-1.07,2.74,2.74,0,0,1,1.58-.37h1v-.48a1.09,1.09,0,0,0-.28-.8,1.27,1.27,0,0,0-.88-.28,1.29,1.29,0,0,0-.74.2,1.63,1.63,0,0,0-.5.54l-.46-.43a1.73,1.73,0,0,1,.64-.68,2,2,0,0,1,1.1-.28,2,2,0,0,1,1.39.44A1.52,1.52,0,0,1,246.4,47v2.69H247v.68Zm-2.18-.54a2.12,2.12,0,0,0,.52-.06,1.55,1.55,0,0,0,.41-.19,1,1,0,0,0,.26-.29.62.62,0,0,0,.1-.35v-.81h-1a1.91,1.91,0,0,0-.95.19.62.62,0,0,0-.3.55v.2a.67.67,0,0,0,.26.56A1.09,1.09,0,0,0,244.35,49.83Z"/><path d="M248,50.37V45.46h.76v.91h0a1.44,1.44,0,0,1,.48-.63,1.41,1.41,0,0,1,.94-.28h.29v.76h-.45a1.66,1.66,0,0,0-1,.24.68.68,0,0,0-.35.58v3.33Z"/><path d="M255,47.4a6.35,6.35,0,0,1,.14-1.32,6.78,6.78,0,0,1,.36-1.18,5.19,5.19,0,0,1,.55-1,4.26,4.26,0,0,1,.67-.77h.73a5.1,5.1,0,0,0-.72.82,6.14,6.14,0,0,0-.54,1,5.63,5.63,0,0,0-.35,1,4.57,4.57,0,0,0-.12,1v.82a4.66,4.66,0,0,0,.12,1,5.63,5.63,0,0,0,.35,1,6.2,6.2,0,0,0,.55,1,4.56,4.56,0,0,0,.71.8h-.73a4.39,4.39,0,0,1-.66-.74,6,6,0,0,1-.55-1,7.19,7.19,0,0,1-.37-1.19A6.55,6.55,0,0,1,255,47.4Z"/><path d="M259.28,47a1.35,1.35,0,0,1-1.08-.45,2.23,2.23,0,0,1,0-2.52,1.52,1.52,0,0,1,2.16,0,2.23,2.23,0,0,1,0,2.52A1.35,1.35,0,0,1,259.28,47Zm0-.49a.74.74,0,0,0,.62-.26,1,1,0,0,0,.21-.67V45a1,1,0,0,0-.21-.67.87.87,0,0,0-1.24,0,1,1,0,0,0-.21.67v.58a1,1,0,0,0,.21.67A.74.74,0,0,0,259.28,46.55Z"/><path d="M264.39,50.48a2.42,2.42,0,0,1-2-.86,4,4,0,0,1-.7-2.53,4.14,4.14,0,0,1,.7-2.57,2.36,2.36,0,0,1,2-.9,2.34,2.34,0,0,1,2.28,1.44l-.64.39a2,2,0,0,0-.61-.82,1.72,1.72,0,0,0-1-.31,1.7,1.7,0,0,0-.76.17,1.42,1.42,0,0,0-.57.46,2.07,2.07,0,0,0-.36.71,3.38,3.38,0,0,0-.12.93v1a2.49,2.49,0,0,0,.47,1.61,1.84,1.84,0,0,0,2.4.26,1.86,1.86,0,0,0,.63-.87l.64.4a2.58,2.58,0,0,1-.9,1.1A2.48,2.48,0,0,1,264.39,50.48Z"/><path d="M269.46,47.4a6.55,6.55,0,0,1-.13,1.34,8.28,8.28,0,0,1-.37,1.19,6,6,0,0,1-.55,1,4,4,0,0,1-.67.74H267a4.51,4.51,0,0,0,.7-.8,7.12,7.12,0,0,0,.55-1,5.63,5.63,0,0,0,.35-1,4.15,4.15,0,0,0,.13-1V47a4.57,4.57,0,0,0-.12-1,5.63,5.63,0,0,0-.35-1,6.14,6.14,0,0,0-.54-1,5.1,5.1,0,0,0-.72-.82h.72a3.94,3.94,0,0,1,.68.77,5.19,5.19,0,0,1,.55,1,6.78,6.78,0,0,1,.36,1.18A6.36,6.36,0,0,1,269.46,47.4Z"/><path d="M55.76,50.25l-.67-2H52.41l-.66,2h-.81l2.32-6.63h1l2.32,6.63Zm-2-5.89h-.05L52.6,47.59h2.29Z"/><path d="M57.62,50.25v-4.9h.76v.79h0a1.55,1.55,0,0,1,.51-.66,1.43,1.43,0,0,1,.87-.24,1.57,1.57,0,0,1,1.21.48,2,2,0,0,1,.44,1.39v3.14h-.76v-3q0-1.32-1.11-1.32a1.68,1.68,0,0,0-.45.06,1,1,0,0,0-.38.17.84.84,0,0,0-.27.29.78.78,0,0,0-.1.41v3.41Z"/><path d="M64.87,50.37a2.28,2.28,0,0,1-.91-.19,1.94,1.94,0,0,1-.69-.51,2.48,2.48,0,0,1-.46-.81,3.47,3.47,0,0,1-.16-1.06,3.4,3.4,0,0,1,.16-1,2.43,2.43,0,0,1,.46-.82,1.94,1.94,0,0,1,.69-.51,2.27,2.27,0,0,1,.91-.18,2.19,2.19,0,0,1,.9.18,2,2,0,0,1,.69.51,2.43,2.43,0,0,1,.46.82,3.13,3.13,0,0,1,.16,1,3.19,3.19,0,0,1-.16,1.06,2.48,2.48,0,0,1-.46.81,2,2,0,0,1-.69.51A2.2,2.2,0,0,1,64.87,50.37Zm0-.68a1.38,1.38,0,0,0,1-.38,1.55,1.55,0,0,0,.39-1.16v-.7a1.55,1.55,0,0,0-.39-1.16,1.38,1.38,0,0,0-1-.38,1.41,1.41,0,0,0-1,.38,1.55,1.55,0,0,0-.39,1.16v.7a1.55,1.55,0,0,0,.39,1.16A1.41,1.41,0,0,0,64.87,49.69Z"/><path d="M68.33,50.25v-4.9h.76v.79h0a2,2,0,0,1,.2-.35,1.2,1.2,0,0,1,.26-.29,1.18,1.18,0,0,1,.37-.19,1.45,1.45,0,0,1,.49-.07,1.75,1.75,0,0,1,.9.23,1.35,1.35,0,0,1,.6.75h0a1.57,1.57,0,0,1,.5-.69,1.53,1.53,0,0,1,1-.29,1.49,1.49,0,0,1,1.18.48,2.08,2.08,0,0,1,.42,1.39v3.14H74.3v-3a1.54,1.54,0,0,0-.26-1,1,1,0,0,0-.81-.33,1.56,1.56,0,0,0-.44.06,1,1,0,0,0-.36.17.81.81,0,0,0-.26.29.88.88,0,0,0-.09.41v3.41h-.76v-3a1.6,1.6,0,0,0-.26-1,1,1,0,0,0-.8-.33,1.54,1.54,0,0,0-.43.06.9.9,0,0,0-.37.17.84.84,0,0,0-.27.29.89.89,0,0,0-.1.41v3.41Z"/><path d="M80.19,50.25a.75.75,0,0,1-.61-.23,1,1,0,0,1-.23-.57h0a1.29,1.29,0,0,1-.53.69,1.71,1.71,0,0,1-.89.23,1.75,1.75,0,0,1-1.21-.4,1.41,1.41,0,0,1-.43-1.09,1.23,1.23,0,0,1,.51-1.06,2.67,2.67,0,0,1,1.58-.37h1V47a1,1,0,0,0-.29-.79,1.18,1.18,0,0,0-.87-.28,1.35,1.35,0,0,0-.75.2,1.7,1.7,0,0,0-.5.53l-.45-.43a1.67,1.67,0,0,1,.63-.67,2.39,2.39,0,0,1,2.49.15,1.54,1.54,0,0,1,.5,1.21v2.7h.56v.67ZM78,49.72a1.72,1.72,0,0,0,.52-.07,1.29,1.29,0,0,0,.41-.19.86.86,0,0,0,.26-.28.64.64,0,0,0,.1-.35V48h-1a1.78,1.78,0,0,0-1,.19.62.62,0,0,0-.3.55V49a.65.65,0,0,0,.26.56A1.15,1.15,0,0,0,78,49.72Z"/><path d="M82.51,50.25A.79.79,0,0,1,81.9,50a.84.84,0,0,1-.2-.57V43.22h.76v6.36h.72v.67Z"/><path d="M84.66,44.2a.4.4,0,0,1-.46-.43v-.12a.4.4,0,0,1,.46-.43.46.46,0,0,1,.36.12.45.45,0,0,1,.11.31v.12a.45.45,0,0,1-.11.31A.46.46,0,0,1,84.66,44.2Zm-.38,1.15H85v4.9h-.76Z"/><path d="M90.22,50.25a.75.75,0,0,1-.61-.23,1.13,1.13,0,0,1-.23-.57h0a1.29,1.29,0,0,1-.53.69,1.68,1.68,0,0,1-.89.23A1.75,1.75,0,0,1,86.7,50a1.41,1.41,0,0,1-.43-1.09,1.23,1.23,0,0,1,.51-1.06,2.67,2.67,0,0,1,1.58-.37h1V47a1,1,0,0,0-.29-.79,1.18,1.18,0,0,0-.87-.28,1.35,1.35,0,0,0-.75.2,1.67,1.67,0,0,0-.49.53l-.46-.43a1.64,1.64,0,0,1,.64-.67,2,2,0,0,1,1.1-.28,2,2,0,0,1,1.39.43,1.57,1.57,0,0,1,.49,1.21v2.7h.56v.67ZM88,49.72a1.72,1.72,0,0,0,.52-.07,1.29,1.29,0,0,0,.41-.19.86.86,0,0,0,.26-.28.64.64,0,0,0,.1-.35V48h-1a1.8,1.8,0,0,0-.95.19.62.62,0,0,0-.3.55V49a.67.67,0,0,0,.26.56A1.15,1.15,0,0,0,88,49.72Z"/><path d="M97.11,49.46h0a1.5,1.5,0,0,1-1.43.91,1.88,1.88,0,0,1-.83-.19,1.73,1.73,0,0,1-.63-.51,2.2,2.2,0,0,1-.4-.81,4.08,4.08,0,0,1,0-2.12,2.2,2.2,0,0,1,.4-.81,1.73,1.73,0,0,1,.63-.51,1.87,1.87,0,0,1,.83-.18,1.67,1.67,0,0,1,.88.22,1.36,1.36,0,0,1,.55.68h0V43.22h.76v7h-.76Zm-1.26.23a1.61,1.61,0,0,0,.49-.07,1.34,1.34,0,0,0,.4-.19,1,1,0,0,0,.27-.32.82.82,0,0,0,.1-.42V46.85a.71.71,0,0,0-.1-.37,1,1,0,0,0-.27-.3,1.36,1.36,0,0,0-.4-.2,1.61,1.61,0,0,0-.49-.07,1.28,1.28,0,0,0-1,.41,1.49,1.49,0,0,0-.37,1.06v.84a1.53,1.53,0,0,0,.37,1.07A1.3,1.3,0,0,0,95.85,49.69Z"/><path d="M101.33,50.37a2.21,2.21,0,0,1-.91-.19,1.94,1.94,0,0,1-.69-.51,2.46,2.46,0,0,1-.45-.81,3.47,3.47,0,0,1-.16-1.06,3.4,3.4,0,0,1,.16-1,2.41,2.41,0,0,1,.45-.82,1.94,1.94,0,0,1,.69-.51,2.21,2.21,0,0,1,.91-.18,1.93,1.93,0,0,1,.88.18,2,2,0,0,1,.67.49,2.23,2.23,0,0,1,.42.76,2.87,2.87,0,0,1,.15.95V48H99.92v.23a1.57,1.57,0,0,0,.1.58,1.33,1.33,0,0,0,.29.47,1.23,1.23,0,0,0,.45.32,1.71,1.71,0,0,0,.62.11,1.47,1.47,0,0,0,.81-.22,1.35,1.35,0,0,0,.53-.62l.55.39a1.83,1.83,0,0,1-.75.81A2.18,2.18,0,0,1,101.33,50.37Zm0-4.5a1.48,1.48,0,0,0-.57.11,1.25,1.25,0,0,0-.44.31,1.38,1.38,0,0,0-.29.46,1.63,1.63,0,0,0-.11.59v.07h2.71v-.1a1.49,1.49,0,0,0-.36-1.05A1.2,1.2,0,0,0,101.33,45.87Z"/></svg>