<svg id="Camada_1" data-name="Camada 1" xmlns="http://www.w3.org/2000/svg" viewBox="0 0 320.4 57.45"><defs><style>.cls-1{opacity:0.75;}.cls-2{fill:#fff;}.cls-3{fill:#939393;}.cls-4{fill:#eb2b20;}.cls-5{fill:#d6111f;}.cls-6{fill:#bd0026;}.cls-7{fill:#0868ac;}.cls-8{fill:#001476;}.cls-9{fill:#081d58;}.cls-10{fill:#2b8cbe;}.cls-11{fill:#7bccc4;}.cls-12{fill:#a8ddb5;}.cls-13{fill:#ccebc5;}.cls-14{fill:#e0f3db;}.cls-15{fill:#ffc;}.cls-16{fill:#ffeda0;}.cls-17{fill:#fed976;}.cls-18{fill:#feb24c;}.cls-19{fill:#fc4e2a;}</style></defs><title>LEGENDAS_PÁGINA_CLIMA_MAIORES</title><g class="cls-1"><path class="cls-2" d="M0,6.38C0,2.86,3.19,0,7.12,0H313.28c3.94,0,7.12,2.86,7.12,6.38V51.07c0,3.52-3.18,6.38-7.12,6.38H7.12C3.19,57.45,0,54.59,0,51.07Z"/></g><path class="cls-2" d="M154.42,23.58H149a2,2,0,0,1-2.11-2V10.68a2,2,0,0,1,2.11-2h5.46a2,2,0,0,1,2.11,2V21.61A2,2,0,0,1,154.42,23.58Z"/><path class="cls-3" d="M154.42,23.83H149a2.29,2.29,0,0,1-2.36-2.22V10.68A2.29,2.29,0,0,1,149,8.46h5.46a2.3,2.3,0,0,1,2.36,2.22V21.61A2.29,2.29,0,0,1,154.42,23.83ZM149,9a1.79,1.79,0,0,0-1.86,1.72V21.61A1.79,1.79,0,0,0,149,23.33h5.46a1.79,1.79,0,0,0,1.86-1.72V10.68A1.79,1.79,0,0,0,154.42,9Z"/><path class="cls-4" d="M274,23.58h-5.47a2,2,0,0,1-2.11-2V10.68a2,2,0,0,1,2.11-2H274a2,2,0,0,1,2.11,2V21.61A2.05,2.05,0,0,1,274,23.58Z"/><path class="cls-5" d="M291.11,23.58h-5.46a2,2,0,0,1-2.11-2V10.68a2,2,0,0,1,2.11-2h5.46a2,2,0,0,1,2.11,2V21.61A2,2,0,0,1,291.11,23.58Z"/><path class="cls-6" d="M308.2,23.58h-5.46a2,2,0,0,1-2.11-2V10.68a2,2,0,0,1,2.11-2h5.46a2,2,0,0,1,2.11,2V21.61A2,2,0,0,1,308.2,23.58Z"/><path class="cls-7" d="M51.82,23.58H46.35a2,2,0,0,1-2.11-2V10.68a2,2,0,0,1,2.11-2h5.47a2,2,0,0,1,2.11,2V21.61A2,2,0,0,1,51.82,23.58Z"/><path class="cls-8" d="M34.74,23.58H29.28a2,2,0,0,1-2.11-2V10.68a2,2,0,0,1,2.11-2h5.46a2,2,0,0,1,2.11,2V21.61A2,2,0,0,1,34.74,23.58Z"/><path class="cls-9" d="M17.67,23.58H12.2a2,2,0,0,1-2.11-2V10.68a2,2,0,0,1,2.11-2h5.47a2,2,0,0,1,2.11,2V21.61A2,2,0,0,1,17.67,23.58Z"/><path class="cls-10" d="M68.91,23.58H63.44a2,2,0,0,1-2.11-2V10.68a2,2,0,0,1,2.11-2h5.47a2,2,0,0,1,2.11,2V21.61A2.05,2.05,0,0,1,68.91,23.58Z"/><path class="cls-11" d="M86,23.58H80.53a2,2,0,0,1-2.11-2V10.68a2,2,0,0,1,2.11-2H86a2,2,0,0,1,2.11,2V21.61A2.05,2.05,0,0,1,86,23.58Z"/><path class="cls-12" d="M103.08,23.58H97.61a2,2,0,0,1-2.11-2V10.68a2,2,0,0,1,2.11-2h5.47a2,2,0,0,1,2.11,2V21.61A2.05,2.05,0,0,1,103.08,23.58Z"/><path class="cls-13" d="M120.17,23.58H114.7a2,2,0,0,1-2.11-2V10.68a2,2,0,0,1,2.11-2h5.47a2,2,0,0,1,2.1,2V21.61A2,2,0,0,1,120.17,23.58Z"/><path class="cls-14" d="M137.25,23.58h-5.46a2,2,0,0,1-2.11-2V10.68a2,2,0,0,1,2.11-2h5.46a2,2,0,0,1,2.11,2V21.61A2,2,0,0,1,137.25,23.58Z"/><path class="cls-2" d="M171.51,23.58H166a2,2,0,0,1-2.11-2V10.68a2,2,0,0,1,2.11-2h5.47a2,2,0,0,1,2.11,2V21.61A2,2,0,0,1,171.51,23.58Z"/><path class="cls-3" d="M171.51,23.83H166a2.29,2.29,0,0,1-2.36-2.22V10.68A2.3,2.3,0,0,1,166,8.46h5.47a2.3,2.3,0,0,1,2.36,2.22V21.61A2.29,2.29,0,0,1,171.51,23.83ZM166,9a1.8,1.8,0,0,0-1.86,1.72V21.61A1.8,1.8,0,0,0,166,23.33h5.47a1.79,1.79,0,0,0,1.86-1.72V10.68A1.79,1.79,0,0,0,171.51,9Z"/><path class="cls-15" d="M188.59,23.58h-5.47a2,2,0,0,1-2.1-2V10.68a2,2,0,0,1,2.1-2h5.47a2,2,0,0,1,2.11,2V21.61A2,2,0,0,1,188.59,23.58Z"/><path class="cls-16" d="M205.68,23.58h-5.47a2,2,0,0,1-2.11-2V10.68a2,2,0,0,1,2.11-2h5.47a2,2,0,0,1,2.11,2V21.61A2,2,0,0,1,205.68,23.58Z"/><path class="cls-17" d="M222.77,23.58H217.3a2,2,0,0,1-2.11-2V10.68a2,2,0,0,1,2.11-2h5.47a2,2,0,0,1,2.11,2V21.61A2.05,2.05,0,0,1,222.77,23.58Z"/><path class="cls-18" d="M239.85,23.58h-5.47a2,2,0,0,1-2.11-2V10.68a2,2,0,0,1,2.11-2h5.47a2,2,0,0,1,2.11,2V21.61A2,2,0,0,1,239.85,23.58Z"/><path class="cls-19" d="M256.94,23.58h-5.47a2,2,0,0,1-2.11-2V10.68a2,2,0,0,1,2.11-2h5.47a2,2,0,0,1,2.11,2V21.61A2.05,2.05,0,0,1,256.94,23.58Z"/><path d="M50.6,33.67v-.82h2.48v.82Z"/><path d="M54.57,36.15v-.7h1.85V30.11h-.06l-1.68,1.56-.46-.51L56,29.52h1.24v5.93h1.71v.7Z"/><path d="M63,36.15v-1.3H59.79v-.7l2.78-4.63h1.19v4.66h1v.67h-1v1.3Zm-2.45-2H63v-4h0Z"/><path d="M16.51,33.67v-.82H19v.82Z"/><path d="M20.48,36.15v-.7h1.86V30.11h-.07L20.6,31.67l-.47-.51,1.76-1.64h1.25v5.93h1.71v.7Z"/><path d="M28.2,36.26a3.06,3.06,0,0,1-1-.14,2.3,2.3,0,0,1-.72-.41,1.7,1.7,0,0,1-.43-.6,2,2,0,0,1-.15-.77,1.52,1.52,0,0,1,.37-1.08,2.08,2.08,0,0,1,1-.56v-.07a1.69,1.69,0,0,1-.83-.59,1.52,1.52,0,0,1-.31-1,1.47,1.47,0,0,1,.55-1.21,2.39,2.39,0,0,1,1.55-.45,2.4,2.4,0,0,1,1.55.45,1.5,1.5,0,0,1,.55,1.21A1.58,1.58,0,0,1,30,32a1.74,1.74,0,0,1-.83.59v.07a2.08,2.08,0,0,1,1,.56,1.57,1.57,0,0,1,.37,1.08,2,2,0,0,1-.15.77,1.61,1.61,0,0,1-.44.6,2.14,2.14,0,0,1-.71.41A3.06,3.06,0,0,1,28.2,36.26Zm0-.7a1.63,1.63,0,0,0,1.07-.31,1.05,1.05,0,0,0,.38-.87v-.2a1.09,1.09,0,0,0-.38-.88A1.68,1.68,0,0,0,28.2,33a1.73,1.73,0,0,0-1.08.3,1.09,1.09,0,0,0-.38.88v.2a1.05,1.05,0,0,0,.38.87A1.67,1.67,0,0,0,28.2,35.56Zm0-3.23a1.51,1.51,0,0,0,.95-.26,1,1,0,0,0,.32-.78v-.14a1,1,0,0,0-.32-.78,1.51,1.51,0,0,0-.95-.26,1.49,1.49,0,0,0-.95.26.94.94,0,0,0-.32.78v.14a.94.94,0,0,0,.32.78A1.49,1.49,0,0,0,28.2,32.33Z"/><path d="M84.85,33.67v-.82h2.48v.82Z"/><path d="M88.82,36.15v-.7h1.86V30.11h-.07l-1.67,1.56-.47-.51,1.76-1.64h1.24v5.93h1.71v.7Z"/><path d="M96.54,36.26a1.9,1.9,0,0,1-1.74-.9,4.91,4.91,0,0,1-.54-2.52,4.93,4.93,0,0,1,.54-2.53,1.9,1.9,0,0,1,1.74-.9,1.87,1.87,0,0,1,1.73.9,4.82,4.82,0,0,1,.55,2.53,4.81,4.81,0,0,1-.55,2.52A1.87,1.87,0,0,1,96.54,36.26Zm0-.7a1.24,1.24,0,0,0,.66-.16,1.29,1.29,0,0,0,.45-.45,2.35,2.35,0,0,0,.25-.69,4.82,4.82,0,0,0,.08-.89V32.3a4.63,4.63,0,0,0-.08-.88,2.31,2.31,0,0,0-.25-.7,1.29,1.29,0,0,0-.45-.45,1.24,1.24,0,0,0-.66-.16,1.3,1.3,0,0,0-.67.16,1.27,1.27,0,0,0-.44.45,2.32,2.32,0,0,0-.26.7,4.63,4.63,0,0,0-.08.88v1.07a4.82,4.82,0,0,0,.08.89,2.36,2.36,0,0,0,.26.69,1.27,1.27,0,0,0,.44.45A1.3,1.3,0,0,0,96.54,35.56Z"/><path d="M121.9,33.67v-.82h2.48v.82Z"/><path d="M127.9,36.26a2.33,2.33,0,0,1-.93-.17,2.08,2.08,0,0,1-.7-.5,2.25,2.25,0,0,1-.44-.81,3.48,3.48,0,0,1-.15-1.06,4.45,4.45,0,0,1,.21-1.39,5.46,5.46,0,0,1,.57-1.19,6.09,6.09,0,0,1,.76-.95,4.74,4.74,0,0,1,.82-.67h1a11.69,11.69,0,0,0-.95.76,5.26,5.26,0,0,0-.73.77,5.16,5.16,0,0,0-.54.86,5.51,5.51,0,0,0-.35,1l0,0a2.21,2.21,0,0,1,.61-.68,1.66,1.66,0,0,1,1-.27,2.21,2.21,0,0,1,.78.14,1.68,1.68,0,0,1,.62.41,2,2,0,0,1,.41.65,2.47,2.47,0,0,1,.14.84,2.57,2.57,0,0,1-.15.9,2.17,2.17,0,0,1-.45.69,2.11,2.11,0,0,1-.7.45A2.36,2.36,0,0,1,127.9,36.26Zm0-.7a1.38,1.38,0,0,0,1-.36,1.41,1.41,0,0,0,.37-1v-.08a1.42,1.42,0,0,0-.37-1,1.39,1.39,0,0,0-2.41,1v.08a1.27,1.27,0,0,0,1.39,1.39Z"/><path d="M160.22,36.26a1.9,1.9,0,0,1-1.74-.9,4.93,4.93,0,0,1-.54-2.53,4.91,4.91,0,0,1,.54-2.52,1.9,1.9,0,0,1,1.74-.91,1.88,1.88,0,0,1,1.73.91,4.81,4.81,0,0,1,.55,2.52,4.82,4.82,0,0,1-.55,2.53A1.87,1.87,0,0,1,160.22,36.26Zm0-.7a1.24,1.24,0,0,0,.66-.16,1.21,1.21,0,0,0,.45-.45,2.31,2.31,0,0,0,.25-.7,3.94,3.94,0,0,0,.08-.88V32.3a4.09,4.09,0,0,0-.08-.89,2.35,2.35,0,0,0-.25-.69,1.21,1.21,0,0,0-.45-.45,1.24,1.24,0,0,0-.66-.16,1.3,1.3,0,0,0-.67.16,1.27,1.27,0,0,0-.44.45,2.1,2.1,0,0,0-.25.69,4.06,4.06,0,0,0-.09.89v1.07a3.91,3.91,0,0,0,.09.88,2.07,2.07,0,0,0,.25.7,1.27,1.27,0,0,0,.44.45A1.3,1.3,0,0,0,160.22,35.56Z"/><path d="M194.35,36.26a2.33,2.33,0,0,1-.93-.17,2.08,2.08,0,0,1-.7-.5,2.25,2.25,0,0,1-.44-.81,3.48,3.48,0,0,1-.15-1.06,4.18,4.18,0,0,1,.22-1.39,5,5,0,0,1,.56-1.19,6.09,6.09,0,0,1,.76-.95,5.15,5.15,0,0,1,.82-.67h1a11.69,11.69,0,0,0-1,.76,5.26,5.26,0,0,0-.73.77,5.16,5.16,0,0,0-.54.86,5.51,5.51,0,0,0-.35,1l.05,0a2.21,2.21,0,0,1,.61-.68,1.66,1.66,0,0,1,1-.27,2.21,2.21,0,0,1,.78.14,1.68,1.68,0,0,1,.62.41,2,2,0,0,1,.41.65,2.47,2.47,0,0,1,.14.84,2.57,2.57,0,0,1-.15.9,2.17,2.17,0,0,1-.45.69,2.11,2.11,0,0,1-.7.45A2.36,2.36,0,0,1,194.35,36.26Zm0-.7a1.27,1.27,0,0,0,1.39-1.39v-.08a1.39,1.39,0,1,0-2.78,0v.08a1.27,1.27,0,0,0,1.39,1.39Z"/><path d="M223.79,36.15v-.7h1.85V30.11h-.07l-1.67,1.56-.47-.51,1.76-1.64h1.25v5.93h1.71v.7Z"/><path d="M231.5,36.26a1.87,1.87,0,0,1-1.73-.9,4.81,4.81,0,0,1-.55-2.52,4.82,4.82,0,0,1,.55-2.53,2.11,2.11,0,0,1,3.46,0,4.82,4.82,0,0,1,.55,2.53,4.81,4.81,0,0,1-.55,2.52A1.87,1.87,0,0,1,231.5,36.26Zm0-.7a1.24,1.24,0,0,0,.66-.16,1.21,1.21,0,0,0,.45-.45,2.35,2.35,0,0,0,.25-.69,4.09,4.09,0,0,0,.08-.89V32.3a3.94,3.94,0,0,0-.08-.88,2.31,2.31,0,0,0-.25-.7,1.21,1.21,0,0,0-.45-.45,1.24,1.24,0,0,0-.66-.16,1.3,1.3,0,0,0-.67.16,1.27,1.27,0,0,0-.44.45,2.07,2.07,0,0,0-.25.7,3.94,3.94,0,0,0-.08.88v1.07a4.09,4.09,0,0,0,.08.89,2.1,2.1,0,0,0,.25.69,1.27,1.27,0,0,0,.44.45A1.3,1.3,0,0,0,231.5,35.56Z"/><path d="M257.88,36.15v-.7h1.85V30.11h-.07L258,31.67l-.46-.51,1.75-1.64h1.25v5.93h1.71v.7Z"/><path d="M266.3,36.15v-1.3h-3.2v-.7l2.78-4.63h1.18v4.66h1v.67h-1v1.3Zm-2.45-2h2.45v-4h0Z"/><path d="M292.12,36.15v-.7H294V30.11h-.06l-1.67,1.56-.47-.51,1.76-1.64h1.24v5.93h1.71v.7Z"/><path d="M299.84,36.26a3,3,0,0,1-1-.14,2.09,2.09,0,0,1-.72-.41,1.73,1.73,0,0,1-.44-.6,2.15,2.15,0,0,1-.14-.77,1.52,1.52,0,0,1,.37-1.08,2,2,0,0,1,1-.56v-.07a1.69,1.69,0,0,1-.83-.59,1.52,1.52,0,0,1-.31-1,1.47,1.47,0,0,1,.55-1.21,2.88,2.88,0,0,1,3.09,0,1.48,1.48,0,0,1,.56,1.21,1.58,1.58,0,0,1-.31,1,1.79,1.79,0,0,1-.83.59v.07a2,2,0,0,1,1,.56,1.53,1.53,0,0,1,.38,1.08,2,2,0,0,1-.15.77,1.73,1.73,0,0,1-.44.6,2.09,2.09,0,0,1-.72.41A3,3,0,0,1,299.84,36.26Zm0-.7a1.63,1.63,0,0,0,1.07-.31,1.05,1.05,0,0,0,.38-.87v-.2a1.09,1.09,0,0,0-.38-.88,1.68,1.68,0,0,0-1.07-.3,1.71,1.71,0,0,0-1.08.3,1.09,1.09,0,0,0-.38.88v.2a1.05,1.05,0,0,0,.38.87A1.65,1.65,0,0,0,299.84,35.56Zm0-3.23a1.53,1.53,0,0,0,1-.26,1,1,0,0,0,.32-.78v-.14a1,1,0,0,0-.32-.78,1.53,1.53,0,0,0-1-.26,1.49,1.49,0,0,0-.95.26,1,1,0,0,0-.33.78v.14a1,1,0,0,0,.33.78A1.49,1.49,0,0,0,299.84,32.33Z"/><path d="M93.81,50.23H93V43.6h2.64a1.85,1.85,0,0,1,1.37.49,1.89,1.89,0,0,1,.48,1.39,2.08,2.08,0,0,1-.33,1.21,1.65,1.65,0,0,1-1,.62l1.52,2.92h-.9l-1.43-2.85H93.81Zm1.84-3.53a1,1,0,0,0,.74-.25.93.93,0,0,0,.26-.7v-.49a1,1,0,0,0-.26-.71,1.06,1.06,0,0,0-.74-.24H93.81V46.7Z"/><path d="M102.48,50.23a.75.75,0,0,1-.61-.22,1.21,1.21,0,0,1-.23-.57h0a1.31,1.31,0,0,1-.53.68,1.68,1.68,0,0,1-.89.23A1.7,1.7,0,0,1,99,50a1.4,1.4,0,0,1-.43-1.08A1.24,1.24,0,0,1,99,47.8a2.67,2.67,0,0,1,1.58-.37h1V47a1.06,1.06,0,0,0-.29-.8,1.23,1.23,0,0,0-.87-.28,1.29,1.29,0,0,0-.74.2,1.53,1.53,0,0,0-.5.54l-.46-.43a1.66,1.66,0,0,1,.64-.68,2,2,0,0,1,1.1-.28,2,2,0,0,1,1.39.43,1.55,1.55,0,0,1,.49,1.22v2.69h.56v.67Zm-2.18-.53a2.12,2.12,0,0,0,.52-.06,1.55,1.55,0,0,0,.41-.19,1,1,0,0,0,.26-.29.62.62,0,0,0,.1-.35V48h-1a1.91,1.91,0,0,0-1,.19.62.62,0,0,0-.3.55v.2a.67.67,0,0,0,.26.56A1.09,1.09,0,0,0,100.3,49.7Z"/><path d="M107.13,49.45h0a1.5,1.5,0,0,1-1.43.9,1.87,1.87,0,0,1-.83-.18,1.66,1.66,0,0,1-.63-.52,2.23,2.23,0,0,1-.4-.8,4.12,4.12,0,0,1,0-2.13,2.2,2.2,0,0,1,.4-.81,1.73,1.73,0,0,1,.63-.51,1.87,1.87,0,0,1,.83-.18,1.61,1.61,0,0,1,.87.22,1.37,1.37,0,0,1,.56.68h0V43.2h.76v7h-.76Zm-1.27.22a1.88,1.88,0,0,0,.49-.06,1.31,1.31,0,0,0,.41-.2.88.88,0,0,0,.37-.74V46.84a.83.83,0,0,0-.1-.38,1,1,0,0,0-.27-.3,1.56,1.56,0,0,0-.41-.2,1.87,1.87,0,0,0-.49-.07,1.3,1.3,0,0,0-1,.41,1.49,1.49,0,0,0-.37,1.06v.84a1.52,1.52,0,0,0,.37,1.07A1.3,1.3,0,0,0,105.86,49.67Z"/><path d="M109.88,44.18a.45.45,0,0,1-.35-.12.4.4,0,0,1-.11-.3v-.13a.42.42,0,0,1,.11-.31.45.45,0,0,1,.35-.12.46.46,0,0,1,.36.12.47.47,0,0,1,.11.31v.13a.44.44,0,0,1-.11.3A.46.46,0,0,1,109.88,44.18Zm-.38,1.15h.76v4.9h-.76Z"/><path d="M115.44,50.23a.73.73,0,0,1-.61-.22,1.22,1.22,0,0,1-.24-.57h0a1.31,1.31,0,0,1-.53.68,1.95,1.95,0,0,1-2.1-.17,1.4,1.4,0,0,1-.43-1.08A1.24,1.24,0,0,1,112,47.8a2.67,2.67,0,0,1,1.58-.37h1V47a1.06,1.06,0,0,0-.29-.8,1.23,1.23,0,0,0-.87-.28,1.35,1.35,0,0,0-.75.2,1.74,1.74,0,0,0-.5.54l-.45-.43a1.7,1.7,0,0,1,.63-.68,2.39,2.39,0,0,1,2.49.15,1.56,1.56,0,0,1,.5,1.22v2.69h.56v.67Zm-2.18-.53a2.18,2.18,0,0,0,.52-.06,1.55,1.55,0,0,0,.41-.19,1,1,0,0,0,.26-.29.62.62,0,0,0,.1-.35V48h-1a1.85,1.85,0,0,0-1,.19.62.62,0,0,0-.3.55v.2a.65.65,0,0,0,.26.56A1.09,1.09,0,0,0,113.26,49.7Z"/><path d="M118.77,45.22a1.94,1.94,0,0,1,1.18.32,2,2,0,0,1,.66.82l-.64.33a1.14,1.14,0,0,0-.44-.59,1.29,1.29,0,0,0-.76-.21,1.55,1.55,0,0,0-.59.11,1.14,1.14,0,0,0-.43.3,1.27,1.27,0,0,0-.26.47,2.21,2.21,0,0,0-.08.59v.84a1.56,1.56,0,0,0,.34,1,1.24,1.24,0,0,0,1,.41,1.37,1.37,0,0,0,1.33-.85l.56.37a2.09,2.09,0,0,1-.64.8,1.91,1.91,0,0,1-1,.36l-.09.47,0,0a1.14,1.14,0,0,1,.37-.05.68.68,0,0,1,.46.16.57.57,0,0,1,.18.46.75.75,0,0,1-.08.35.64.64,0,0,1-.24.25,1.1,1.1,0,0,1-.33.14,1.75,1.75,0,0,1-.4.05,1.15,1.15,0,0,1-.61-.13,1,1,0,0,1-.33-.26l.36-.39a.9.9,0,0,0,.23.19.72.72,0,0,0,.35.08.66.66,0,0,0,.3-.07.26.26,0,0,0,.12-.23.28.28,0,0,0-.13-.23,1.12,1.12,0,0,0-.52-.16l-.26,0,.12-.63a1.88,1.88,0,0,1-1.42-.78,3,3,0,0,1-.5-1.78,3.53,3.53,0,0,1,.15-1.06,2.22,2.22,0,0,1,.42-.81,1.94,1.94,0,0,1,.69-.51A2.29,2.29,0,0,1,118.77,45.22Z"/><path d="M125.29,50.23a.75.75,0,0,1-.61-.22,1.21,1.21,0,0,1-.23-.57h0a1.31,1.31,0,0,1-.53.68,1.95,1.95,0,0,1-2.1-.17,1.4,1.4,0,0,1-.43-1.08,1.24,1.24,0,0,1,.51-1.07,2.67,2.67,0,0,1,1.58-.37h1V47a1.06,1.06,0,0,0-.29-.8,1.23,1.23,0,0,0-.87-.28,1.35,1.35,0,0,0-.75.2,1.74,1.74,0,0,0-.5.54l-.45-.43a1.66,1.66,0,0,1,.64-.68,2,2,0,0,1,1.1-.28,2,2,0,0,1,1.38.43,1.56,1.56,0,0,1,.5,1.22v2.69h.56v.67ZM124,44.42a1.1,1.1,0,0,1-.43-.08l-.33-.17a2,2,0,0,0-.39-.17.72.72,0,0,0-.28,0,.64.64,0,0,0-.28.06l-.27.19-.31-.38a1.65,1.65,0,0,1,.35-.35,1,1,0,0,1,.55-.15,1.1,1.1,0,0,1,.43.08l.33.17a2,2,0,0,0,.39.17.72.72,0,0,0,.28,0,.64.64,0,0,0,.28-.06l.27-.19.31.38a1.62,1.62,0,0,1-.35.34A.9.9,0,0,1,124,44.42Zm-.91,5.28a2.12,2.12,0,0,0,.52-.06,1.55,1.55,0,0,0,.41-.19,1,1,0,0,0,.26-.29.62.62,0,0,0,.1-.35V48h-1a1.88,1.88,0,0,0-1,.19.62.62,0,0,0-.3.55v.2a.65.65,0,0,0,.26.56A1.09,1.09,0,0,0,123.11,49.7Z"/><path d="M128.65,50.35a2.19,2.19,0,0,1-.9-.18,2,2,0,0,1-.7-.52,2.43,2.43,0,0,1-.45-.81,3.15,3.15,0,0,1-.16-1.06,3.21,3.21,0,0,1,.16-1.05,2.43,2.43,0,0,1,.45-.81,2,2,0,0,1,.7-.52,2.34,2.34,0,0,1,1.8,0,2,2,0,0,1,.7.52,2.29,2.29,0,0,1,.46.81,3.5,3.5,0,0,1,.16,1.05,3.42,3.42,0,0,1-.16,1.06,2.29,2.29,0,0,1-.46.81,2,2,0,0,1-.7.52A2.19,2.19,0,0,1,128.65,50.35Zm0-.68a1.35,1.35,0,0,0,1-.38,1.55,1.55,0,0,0,.39-1.16v-.7a1.56,1.56,0,0,0-.39-1.16,1.52,1.52,0,0,0-2,0,1.56,1.56,0,0,0-.39,1.16v.7a1.55,1.55,0,0,0,.39,1.16A1.34,1.34,0,0,0,128.65,49.67Z"/><path d="M137.5,49.45h0a1.5,1.5,0,0,1-1.43.9,1.87,1.87,0,0,1-.83-.18,1.66,1.66,0,0,1-.63-.52,2.23,2.23,0,0,1-.4-.8,4.12,4.12,0,0,1,0-2.13,2.2,2.2,0,0,1,.4-.81,1.73,1.73,0,0,1,.63-.51,1.87,1.87,0,0,1,.83-.18,1.61,1.61,0,0,1,.87.22,1.37,1.37,0,0,1,.56.68h0V43.2h.76v7h-.76Zm-1.27.22a1.88,1.88,0,0,0,.49-.06,1.31,1.31,0,0,0,.41-.2.88.88,0,0,0,.37-.74V46.84a.83.83,0,0,0-.1-.38,1,1,0,0,0-.27-.3,1.56,1.56,0,0,0-.41-.2,1.87,1.87,0,0,0-.49-.07,1.3,1.3,0,0,0-1,.41,1.49,1.49,0,0,0-.37,1.06v.84a1.52,1.52,0,0,0,.37,1.07A1.3,1.3,0,0,0,136.23,49.67Z"/><path d="M141.72,50.35a2.21,2.21,0,0,1-.91-.18,2,2,0,0,1-.7-.52,2.25,2.25,0,0,1-.44-.81,3.15,3.15,0,0,1-.16-1.06,3.21,3.21,0,0,1,.16-1.05,2.25,2.25,0,0,1,.44-.81,2,2,0,0,1,.7-.52,2.21,2.21,0,0,1,.91-.18,2.1,2.1,0,0,1,.88.18,1.81,1.81,0,0,1,.66.5,2.13,2.13,0,0,1,.43.75,3.21,3.21,0,0,1,.14,1V48h-3.52v.23a1.63,1.63,0,0,0,.1.59,1.58,1.58,0,0,0,.28.47,1.49,1.49,0,0,0,.46.31,1.51,1.51,0,0,0,.61.11,1.59,1.59,0,0,0,.82-.21,1.43,1.43,0,0,0,.53-.63l.54.39a1.82,1.82,0,0,1-.74.82A2.27,2.27,0,0,1,141.72,50.35Zm0-4.5a1.48,1.48,0,0,0-.57.11,1.57,1.57,0,0,0-.45.31,1.49,1.49,0,0,0-.29.47,1.59,1.59,0,0,0-.1.59v.06H143v-.1a1.48,1.48,0,0,0-.36-1A1.22,1.22,0,0,0,141.72,45.85Z"/><path d="M149.89,50.35a3.09,3.09,0,0,1-1.17-.22,2.38,2.38,0,0,1-.88-.66,3.12,3.12,0,0,1-.57-1.07,5.1,5.1,0,0,1-.2-1.48,5,5,0,0,1,.2-1.47,3.08,3.08,0,0,1,.57-1.08,2.38,2.38,0,0,1,.88-.66,2.91,2.91,0,0,1,1.17-.22,2.84,2.84,0,0,1,1.15.22,2.33,2.33,0,0,1,.89.66,3.08,3.08,0,0,1,.57,1.08,5,5,0,0,1,.2,1.47,5.1,5.1,0,0,1-.2,1.48,3.12,3.12,0,0,1-.57,1.07,2.33,2.33,0,0,1-.89.66A3,3,0,0,1,149.89,50.35Zm0-.7a2,2,0,0,0,.78-.16,1.71,1.71,0,0,0,.63-.44,2,2,0,0,0,.4-.68,2.83,2.83,0,0,0,.14-.9v-1.1a2.83,2.83,0,0,0-.14-.9,2,2,0,0,0-.4-.69,1.88,1.88,0,0,0-1.41-.59,2,2,0,0,0-.79.15,2,2,0,0,0-.63.44,2.12,2.12,0,0,0-.4.69,2.83,2.83,0,0,0-.14.9v1.1a2.83,2.83,0,0,0,.14.9,2.18,2.18,0,0,0,.4.68,1.71,1.71,0,0,0,.63.44A2,2,0,0,0,149.89,49.65Z"/><path d="M154.06,50.23v-4.9h.76v.79h0a1.68,1.68,0,0,1,.51-.66,1.46,1.46,0,0,1,.88-.24,1.51,1.51,0,0,1,1.2.49,1.94,1.94,0,0,1,.44,1.38v3.14h-.76v-3c0-.89-.37-1.33-1.11-1.33a1.61,1.61,0,0,0-.44.06,1.46,1.46,0,0,0-.38.17.75.75,0,0,0-.27.29.82.82,0,0,0-.1.42v3.4Z"/><path d="M162.59,49.45h0a1.51,1.51,0,0,1-1.44.9,1.83,1.83,0,0,1-.82-.18,1.66,1.66,0,0,1-.63-.52,2.23,2.23,0,0,1-.4-.8,4.12,4.12,0,0,1,0-2.13,2.2,2.2,0,0,1,.4-.81,1.73,1.73,0,0,1,.63-.51,1.83,1.83,0,0,1,.82-.18,1.62,1.62,0,0,1,.88.22,1.37,1.37,0,0,1,.56.68h0V43.2h.76v7h-.76Zm-1.27.22a1.93,1.93,0,0,0,.49-.06,1.31,1.31,0,0,0,.41-.2.88.88,0,0,0,.37-.74V46.84a.83.83,0,0,0-.1-.38,1,1,0,0,0-.27-.3,1.56,1.56,0,0,0-.41-.2,1.93,1.93,0,0,0-.49-.07,1.29,1.29,0,0,0-1,.41,1.49,1.49,0,0,0-.37,1.06v.84a1.52,1.52,0,0,0,.37,1.07A1.28,1.28,0,0,0,161.32,49.67Z"/><path d="M168.52,50.23a.75.75,0,0,1-.61-.22,1.21,1.21,0,0,1-.23-.57h-.05a1.26,1.26,0,0,1-.53.68,1.67,1.67,0,0,1-.88.23A1.73,1.73,0,0,1,165,50a1.44,1.44,0,0,1-.43-1.08,1.24,1.24,0,0,1,.51-1.07,2.69,2.69,0,0,1,1.58-.37h1V47a1.05,1.05,0,0,0-.28-.8,1.25,1.25,0,0,0-.88-.28,1.32,1.32,0,0,0-.74.2,1.63,1.63,0,0,0-.5.54l-.46-.43a1.73,1.73,0,0,1,.64-.68,2,2,0,0,1,1.1-.28,2,2,0,0,1,1.39.43,1.55,1.55,0,0,1,.49,1.22v2.69H169v.67Zm-2.18-.53a2.12,2.12,0,0,0,.52-.06,1.42,1.42,0,0,0,.41-.19,1.23,1.23,0,0,0,.27-.29.7.7,0,0,0,.09-.35V48h-1a1.91,1.91,0,0,0-1,.19.62.62,0,0,0-.3.55v.2a.67.67,0,0,0,.26.56A1.11,1.11,0,0,0,166.34,49.7Z"/><path d="M172.35,50.23V43.6h.8v5.93H176v.7Z"/><path d="M178.79,50.35a2.19,2.19,0,0,1-.9-.18,2,2,0,0,1-.7-.52,2.43,2.43,0,0,1-.45-.81,3.15,3.15,0,0,1-.16-1.06,3.21,3.21,0,0,1,.16-1.05,2.43,2.43,0,0,1,.45-.81,2,2,0,0,1,.7-.52,2.34,2.34,0,0,1,1.8,0,2,2,0,0,1,.7.52,2.27,2.27,0,0,1,.45.81,3.21,3.21,0,0,1,.17,1.05,3.14,3.14,0,0,1-.17,1.06,2.27,2.27,0,0,1-.45.81,2,2,0,0,1-.7.52A2.19,2.19,0,0,1,178.79,50.35Zm0-.68a1.36,1.36,0,0,0,1-.38,1.55,1.55,0,0,0,.39-1.16v-.7a1.56,1.56,0,0,0-.39-1.16,1.41,1.41,0,0,0-1-.38,1.38,1.38,0,0,0-1,.38,1.56,1.56,0,0,0-.39,1.16v.7a1.55,1.55,0,0,0,.39,1.16A1.34,1.34,0,0,0,178.79,49.67Z"/><path d="M182.26,50.23v-4.9H183v.79h0a1.68,1.68,0,0,1,.51-.66,1.46,1.46,0,0,1,.88-.24,1.54,1.54,0,0,1,1.2.49,2,2,0,0,1,.44,1.38v3.14h-.76v-3c0-.89-.37-1.33-1.11-1.33a1.61,1.61,0,0,0-.44.06,1.53,1.53,0,0,0-.39.17.94.94,0,0,0-.27.29.82.82,0,0,0-.1.42v3.4Z"/><path d="M191.79,50.78a1.19,1.19,0,0,1-.59,1.11,3.53,3.53,0,0,1-1.79.36,3.39,3.39,0,0,1-1.65-.31,1,1,0,0,1-.5-.9.88.88,0,0,1,.21-.62,1.23,1.23,0,0,1,.57-.33V50a.71.71,0,0,1-.44-.68.67.67,0,0,1,.24-.56,1.53,1.53,0,0,1,.6-.29v0a1.56,1.56,0,0,1-.67-.6,1.61,1.61,0,0,1-.25-.91,1.72,1.72,0,0,1,.14-.68,1.58,1.58,0,0,1,.37-.54,1.87,1.87,0,0,1,.58-.35,2.29,2.29,0,0,1,.76-.12,2.15,2.15,0,0,1,.93.19v-.09a.77.77,0,0,1,.13-.47.49.49,0,0,1,.44-.19h.73v.67h-.93v.32a1.55,1.55,0,0,1,.41.54,1.72,1.72,0,0,1,.15.72,1.93,1.93,0,0,1-.13.69,1.6,1.6,0,0,1-.38.54,1.87,1.87,0,0,1-.58.35,2.33,2.33,0,0,1-.76.12,2.61,2.61,0,0,1-.48,0,1.82,1.82,0,0,0-.45.2.39.39,0,0,0-.19.35.28.28,0,0,0,.2.3,1.67,1.67,0,0,0,.55.07h1a2.08,2.08,0,0,1,1.33.35A1.19,1.19,0,0,1,191.79,50.78Zm-.71,0a.58.58,0,0,0-.23-.47,1.38,1.38,0,0,0-.79-.17h-1.63a.69.69,0,0,0-.46.66.72.72,0,0,0,.24.55,1.2,1.2,0,0,0,.82.23h.71a2.09,2.09,0,0,0,1-.2A.65.65,0,0,0,191.08,50.83ZM189.38,48a1.22,1.22,0,0,0,.77-.23.89.89,0,0,0,.28-.72v-.27a.89.89,0,0,0-.28-.72,1.16,1.16,0,0,0-.77-.23,1.14,1.14,0,0,0-.77.23.89.89,0,0,0-.29.72v.27a.89.89,0,0,0,.29.72A1.2,1.2,0,0,0,189.38,48Z"/><path d="M196.21,50.23a.77.77,0,0,1-.62-.22,1.21,1.21,0,0,1-.23-.57h-.05a1.26,1.26,0,0,1-.53.68,1.93,1.93,0,0,1-2.09-.17,1.41,1.41,0,0,1-.44-1.08,1.24,1.24,0,0,1,.51-1.07,2.69,2.69,0,0,1,1.58-.37h1V47a1.05,1.05,0,0,0-.28-.8,1.24,1.24,0,0,0-.88-.28,1.34,1.34,0,0,0-.74.2,1.63,1.63,0,0,0-.5.54l-.46-.43a1.8,1.8,0,0,1,.64-.68,2,2,0,0,1,1.1-.28,2,2,0,0,1,1.39.43,1.55,1.55,0,0,1,.49,1.22v2.69h.56v.67ZM194,49.7a2.12,2.12,0,0,0,.52-.06,1.42,1.42,0,0,0,.41-.19,1.05,1.05,0,0,0,.27-.29.7.7,0,0,0,.09-.35V48h-1a1.92,1.92,0,0,0-1,.19.62.62,0,0,0-.3.55v.2a.67.67,0,0,0,.26.56A1.11,1.11,0,0,0,194,49.7Z"/><path d="M199.94,47.27a6.29,6.29,0,0,1,.13-1.32,6,6,0,0,1,.37-1.18,5,5,0,0,1,.54-1,4.59,4.59,0,0,1,.68-.76h.72a5.64,5.64,0,0,0-.72.82,5.73,5.73,0,0,0-.54,1,6.69,6.69,0,0,0-.35,1,4.73,4.73,0,0,0-.12,1v.82a4.66,4.66,0,0,0,.12,1,6.51,6.51,0,0,0,.36,1.05,6.14,6.14,0,0,0,.54,1,5,5,0,0,0,.71.8h-.72a4,4,0,0,1-.67-.74,5.31,5.31,0,0,1-.54-1,6.23,6.23,0,0,1-.37-1.2A5.77,5.77,0,0,1,199.94,47.27Z"/><path d="M202.63,45.33h.74l.52,2.12.52,2.15h0l.6-2.15.62-2.12h.67l.64,2.12.61,2.15h0l.5-2.15.53-2.12h.72L208,50.23h-.94l-.68-2.35L206,46.39h0l-.42,1.49-.68,2.35h-.92Z"/><path d="M210.44,50.23v-4.9h.76v.79h0a4,4,0,0,1,.2-.35,1.06,1.06,0,0,1,.27-.29,1.23,1.23,0,0,1,.36-.19,1.51,1.51,0,0,1,.5-.07,1.82,1.82,0,0,1,.89.23,1.44,1.44,0,0,1,.61.76h0a1.45,1.45,0,0,1,.49-.7,1.61,1.61,0,0,1,1-.29,1.45,1.45,0,0,1,1.17.49,2,2,0,0,1,.42,1.38v3.14h-.76v-3a1.61,1.61,0,0,0-.25-1,1,1,0,0,0-.82-.34,1.49,1.49,0,0,0-.43.06,1.4,1.4,0,0,0-.37.17.91.91,0,0,0-.26.29.93.93,0,0,0-.09.42v3.4h-.76v-3a1.6,1.6,0,0,0-.26-1,.91.91,0,0,0-.79-.34,1.56,1.56,0,0,0-.44.06,1.4,1.4,0,0,0-.37.17.8.8,0,0,0-.26.29.82.82,0,0,0-.1.42v3.4Z"/><path d="M218.58,45.76v-.82h2.48v.82Z"/><path d="M224.67,47.11h-2.59v-.54l1.24-1a2.23,2.23,0,0,0,.43-.45.79.79,0,0,0,.16-.48v-.06a.5.5,0,0,0-.16-.39.64.64,0,0,0-.46-.15.68.68,0,0,0-.5.16,1,1,0,0,0-.24.39L222,44.4a1.33,1.33,0,0,1,.15-.32,1.1,1.1,0,0,1,.26-.27,1.29,1.29,0,0,1,.37-.19,1.61,1.61,0,0,1,.51-.07,1.25,1.25,0,0,1,.9.29,1,1,0,0,1,.31.74,1.12,1.12,0,0,1-.25.73,3.87,3.87,0,0,1-.65.61l-.92.71h1.95Z"/><path d="M227.39,47.27a6.38,6.38,0,0,1-.13,1.33,8,8,0,0,1-.37,1.2,6,6,0,0,1-.55,1,4,4,0,0,1-.67.74H225a4.51,4.51,0,0,0,.7-.8,7.12,7.12,0,0,0,.55-1,5.63,5.63,0,0,0,.35-1.05,4.15,4.15,0,0,0,.13-1v-.82a4.73,4.73,0,0,0-.12-1,6,6,0,0,0-.89-2A5.1,5.1,0,0,0,225,43h.72a4.59,4.59,0,0,1,.68.76,5.61,5.61,0,0,1,.55,1,6.78,6.78,0,0,1,.36,1.18A6.29,6.29,0,0,1,227.39,47.27Z"/></svg>