<svg id="Camada_1" data-name="Camada 1" xmlns="http://www.w3.org/2000/svg" viewBox="0 0 320.4 57.45">
  <title>LEGENDAS_PÁGINA_CLIMA</title>
  <g style="opacity: 0.75">
    <path d="M0,6.38C0,2.86,3.19,0,7.12,0H313.28c3.94,0,7.12,2.86,7.12,6.38V51.07c0,3.52-3.18,6.38-7.12,6.38H7.12C3.19,57.45,0,54.59,0,51.07Z" style="fill: #fff"/>
  </g>
  <g>
    <path d="M54.26,33.14v-.69h2.1v.69Z"/>
    <path d="M59,32a1.26,1.26,0,0,0,.86-.26.88.88,0,0,0,.28-.67V31a.81.81,0,0,0-.27-.66,1.37,1.37,0,0,0-1.44,0,1.59,1.59,0,0,0-.45.51l-.5-.38a2,2,0,0,1,.25-.34,1.67,1.67,0,0,1,.82-.49,1.9,1.9,0,0,1,.6-.08,2.41,2.41,0,0,1,.67.09,1.52,1.52,0,0,1,.54.27,1.3,1.3,0,0,1,.37.44,1.48,1.48,0,0,1,.13.61,1.21,1.21,0,0,1-.09.48,1.19,1.19,0,0,1-.22.38,1.31,1.31,0,0,1-.35.27,1.54,1.54,0,0,1-.42.17v0a2.32,2.32,0,0,1,.44.16,1.49,1.49,0,0,1,.38.28,1.29,1.29,0,0,1,.26.42,1.48,1.48,0,0,1,.1.57,1.59,1.59,0,0,1-.13.66,1.43,1.43,0,0,1-.39.52,2.18,2.18,0,0,1-.6.34,2.45,2.45,0,0,1-.78.12,2.51,2.51,0,0,1-.65-.08,2,2,0,0,1-.88-.52,2.34,2.34,0,0,1-.29-.35l.5-.39a3.55,3.55,0,0,0,.23.31,1.49,1.49,0,0,0,.28.23,1.6,1.6,0,0,0,.35.15,2,2,0,0,0,.45.05,1.31,1.31,0,0,0,.9-.27,1,1,0,0,0,.31-.77v-.07a1,1,0,0,0-.31-.77,1.26,1.26,0,0,0-.9-.28h-.66V32Z"/>
  </g>
  <g>
    <path d="M19.91,33.14v-.69H22v.69Z"/>
    <path d="M25.58,35.24v-1.1H22.87v-.6l2.35-3.92h1v3.95H27v.57h-.82v1.1ZM23.5,33.57h2.08V30.15h0Z"/>
  </g>
  <g>
    <path d="M88.33,33.14v-.69h2.1v.69Z"/>
    <path d="M95.27,35.24H91.59v-.69l1.83-1.69a3.61,3.61,0,0,0,.66-.77,1.48,1.48,0,0,0,.27-.82v-.1a1.13,1.13,0,0,0-.26-.76,1,1,0,0,0-.78-.29,1.52,1.52,0,0,0-.45.07.93.93,0,0,0-.33.21.89.89,0,0,0-.24.3,2,2,0,0,0-.15.37l-.6-.23a2.38,2.38,0,0,1,.22-.49,1.44,1.44,0,0,1,.36-.42,1.58,1.58,0,0,1,.51-.29,1.93,1.93,0,0,1,.71-.11,2,2,0,0,1,.73.12,1.45,1.45,0,0,1,.54.33,1.51,1.51,0,0,1,.34.52,1.76,1.76,0,0,1,.11.66,2.05,2.05,0,0,1-.34,1.14,3.56,3.56,0,0,1-.39.5c-.16.16-.32.32-.5.48l-1.51,1.36h3Z"/>
  </g>
  <g>
    <path d="M122.44,33.14v-.69h2.1v.69Z"/>
    <path d="M125.8,35.24v-.6h1.57V30.12h-.05l-1.42,1.32-.39-.43L127,29.62h1.05v5h1.45v.6Z"/>
  </g>
  <path d="M160.23,35.34a1.6,1.6,0,0,1-1.47-.77,4.12,4.12,0,0,1-.46-2.14,4.12,4.12,0,0,1,.46-2.14,1.8,1.8,0,0,1,2.94,0,4.23,4.23,0,0,1,.46,2.14,4.23,4.23,0,0,1-.46,2.14A1.6,1.6,0,0,1,160.23,35.34Zm0-.6a1,1,0,0,0,.94-.52,1.72,1.72,0,0,0,.21-.59,3.38,3.38,0,0,0,.07-.74V32a3.38,3.38,0,0,0-.07-.74,1.72,1.72,0,0,0-.21-.59,1.06,1.06,0,0,0-.38-.38,1.08,1.08,0,0,0-.56-.14,1.15,1.15,0,0,0-.57.14,1,1,0,0,0-.37.38,2,2,0,0,0-.22.59A4.14,4.14,0,0,0,159,32v.92a4.14,4.14,0,0,0,.07.74,2,2,0,0,0,.22.59,1,1,0,0,0,.37.38A1,1,0,0,0,160.23,34.74Z"/>
  <path d="M192.7,35.24v-.6h1.57V30.12h-.06l-1.42,1.32L192.4,31l1.49-1.39h1.05v5h1.45v.6Z"/>
  <path d="M230.44,35.24h-3.69v-.69l1.84-1.69a4.28,4.28,0,0,0,.66-.77,1.47,1.47,0,0,0,.26-.82v-.1a1.12,1.12,0,0,0-.25-.76,1,1,0,0,0-.78-.29,1.42,1.42,0,0,0-.45.07,1,1,0,0,0-.34.21,1,1,0,0,0-.23.3,2,2,0,0,0-.15.37l-.6-.23a1.94,1.94,0,0,1,.22-.49,1.57,1.57,0,0,1,.35-.42,1.53,1.53,0,0,1,.52-.29,1.89,1.89,0,0,1,.71-.11,2.07,2.07,0,0,1,.73.12,1.63,1.63,0,0,1,.54.33,1.49,1.49,0,0,1,.33.52,1.76,1.76,0,0,1,.12.66,2,2,0,0,1-.35,1.14,2.51,2.51,0,0,1-.39.5c-.15.16-.31.32-.49.48l-1.51,1.36h2.95Z"/>
  <path d="M262.64,32a1.26,1.26,0,0,0,.86-.26.88.88,0,0,0,.28-.67V31a.81.81,0,0,0-.27-.66,1.37,1.37,0,0,0-1.44,0,1.59,1.59,0,0,0-.45.51l-.5-.38a2,2,0,0,1,.25-.34,1.67,1.67,0,0,1,.82-.49,1.9,1.9,0,0,1,.6-.08,2.41,2.41,0,0,1,.67.09,1.66,1.66,0,0,1,.55.27,1.39,1.39,0,0,1,.36.44,1.33,1.33,0,0,1,.13.61,1.23,1.23,0,0,1-.31.86,1.17,1.17,0,0,1-.35.27,1.54,1.54,0,0,1-.42.17v0a2.32,2.32,0,0,1,.44.16,1.49,1.49,0,0,1,.38.28,1.29,1.29,0,0,1,.26.42,1.48,1.48,0,0,1,.11.57,1.59,1.59,0,0,1-.14.66,1.43,1.43,0,0,1-.39.52,2,2,0,0,1-.6.34,2.45,2.45,0,0,1-.78.12,2.57,2.57,0,0,1-.65-.08,2.52,2.52,0,0,1-.5-.22,2.28,2.28,0,0,1-.38-.3,2.34,2.34,0,0,1-.29-.35l.51-.39a3.46,3.46,0,0,0,.22.31,1.49,1.49,0,0,0,.28.23,1.6,1.6,0,0,0,.35.15,2,2,0,0,0,.45.05,1.31,1.31,0,0,0,.9-.27,1,1,0,0,0,.31-.77v-.07a1,1,0,0,0-.31-.77,1.26,1.26,0,0,0-.9-.28H262V32Z"/>
  <path d="M297.55,35.24v-1.1h-2.72v-.6l2.36-3.92h1v3.95H299v.57h-.81v1.1Zm-2.08-1.67h2.08V30.15h0Z"/>
  <g>
    <path d="M87.62,44.38v5.44h-.74V44.38H85v-.65h4.6v.65Z"/>
    <path d="M91.61,49.92a2,2,0,0,1-.83-.16,1.77,1.77,0,0,1-.64-.48,2.12,2.12,0,0,1-.41-.74,3,3,0,0,1-.14-1,3,3,0,0,1,.14-1,2.12,2.12,0,0,1,.41-.74,1.77,1.77,0,0,1,.64-.48,2,2,0,0,1,.83-.16,1.92,1.92,0,0,1,.81.16,1.73,1.73,0,0,1,.61.46,1.94,1.94,0,0,1,.39.69,2.71,2.71,0,0,1,.13.88v.33H90.32V48a1.51,1.51,0,0,0,.09.53,1.24,1.24,0,0,0,.26.43,1.06,1.06,0,0,0,.42.29,1.4,1.4,0,0,0,.56.11,1.42,1.42,0,0,0,.75-.2,1.4,1.4,0,0,0,.49-.58l.5.36a1.82,1.82,0,0,1-.68.75A2.07,2.07,0,0,1,91.61,49.92Zm0-4.12a1.24,1.24,0,0,0-.52.1,1.2,1.2,0,0,0-.41.28,1.57,1.57,0,0,0-.27.43,1.61,1.61,0,0,0-.09.54v.06H92.8v-.09a1.41,1.41,0,0,0-.32-1A1.12,1.12,0,0,0,91.61,45.8Z"/>
    <path d="M94.7,49.82v-4.5h.7V46h0a3.24,3.24,0,0,1,.17-.32,1,1,0,0,1,.25-.26,1,1,0,0,1,.33-.18,1.56,1.56,0,0,1,.46-.06,1.67,1.67,0,0,1,.82.21,1.31,1.31,0,0,1,.56.69h0a1.39,1.39,0,0,1,.46-.63,1.41,1.41,0,0,1,.91-.27,1.35,1.35,0,0,1,1.08.45,1.85,1.85,0,0,1,.39,1.26v2.89h-.7V47.05a1.47,1.47,0,0,0-.24-.91.88.88,0,0,0-.75-.3,1.23,1.23,0,0,0-.39,0,1.17,1.17,0,0,0-.34.15.74.74,0,0,0-.23.27.79.79,0,0,0-.09.38v3.13h-.7V47.05a1.55,1.55,0,0,0-.23-.91.89.89,0,0,0-.74-.3,1.33,1.33,0,0,0-.4,0,1.17,1.17,0,0,0-.34.15.88.88,0,0,0-.24.27.79.79,0,0,0-.09.38v3.13Z"/>
    <path d="M102.31,45.32h.7V46h0a1.18,1.18,0,0,1,.51-.62,1.46,1.46,0,0,1,.8-.2,1.7,1.7,0,0,1,.76.16,1.65,1.65,0,0,1,.58.47,2.33,2.33,0,0,1,.37.74,4.06,4.06,0,0,1,0,2,2.33,2.33,0,0,1-.37.74,1.65,1.65,0,0,1-.58.47,1.7,1.7,0,0,1-.76.16,1.34,1.34,0,0,1-1.31-.82h0v2.46h-.7Zm1.86,4a1.18,1.18,0,0,0,.93-.38,1.35,1.35,0,0,0,.34-1v-.77a1.38,1.38,0,0,0-.34-1,1.17,1.17,0,0,0-.93-.37,1.68,1.68,0,0,0-.45.06,1.41,1.41,0,0,0-.37.18,1.12,1.12,0,0,0-.25.28.67.67,0,0,0-.09.34v1.69a.86.86,0,0,0,.09.39,1,1,0,0,0,.25.28,1.16,1.16,0,0,0,.37.18A1.37,1.37,0,0,0,104.17,49.31Z"/>
    <path d="M109.06,49.92a2,2,0,0,1-.83-.16,1.77,1.77,0,0,1-.64-.48,2.29,2.29,0,0,1-.41-.74,3.24,3.24,0,0,1-.14-1,3.29,3.29,0,0,1,.14-1,2.29,2.29,0,0,1,.41-.74,1.77,1.77,0,0,1,.64-.48,2,2,0,0,1,.83-.16,1.89,1.89,0,0,1,.81.16,1.64,1.64,0,0,1,.61.46,1.94,1.94,0,0,1,.39.69,2.71,2.71,0,0,1,.14.88v.33h-3.24V48a1.51,1.51,0,0,0,.09.53,1.12,1.12,0,0,0,.27.43,1.09,1.09,0,0,0,.41.29,1.48,1.48,0,0,0,.57.11,1.39,1.39,0,0,0,.74-.2,1.33,1.33,0,0,0,.49-.58l.5.36a1.69,1.69,0,0,1-.68.75A2,2,0,0,1,109.06,49.92Zm0-4.12a1.27,1.27,0,0,0-.52.1,1.3,1.3,0,0,0-.41.28,1.34,1.34,0,0,0-.26.43,1.4,1.4,0,0,0-.1.54v.06h2.49v-.09a1.37,1.37,0,0,0-.33-1A1.12,1.12,0,0,0,109.06,45.8Z"/>
    <path d="M112.16,49.82v-4.5h.7v.83h0a1.29,1.29,0,0,1,1.3-.83h.27V46h-.41a1.63,1.63,0,0,0-.89.21.63.63,0,0,0-.31.54v3Z"/>
    <path d="M118.59,49.82a.68.68,0,0,1-.56-.21,1,1,0,0,1-.21-.52h0a1.16,1.16,0,0,1-.49.63,1.57,1.57,0,0,1-.81.2,1.61,1.61,0,0,1-1.11-.36,1.32,1.32,0,0,1-.4-1,1.13,1.13,0,0,1,.47-1,2.46,2.46,0,0,1,1.45-.34h.89V46.8a1,1,0,0,0-.26-.73,1.1,1.1,0,0,0-.8-.25A1.27,1.27,0,0,0,116,46a1.52,1.52,0,0,0-.45.49l-.42-.39a1.58,1.58,0,0,1,.58-.63,2.21,2.21,0,0,1,2.29.15,1.39,1.39,0,0,1,.45,1.11V49.2H119v.62Zm-2-.49a1.86,1.86,0,0,0,.48-.06,1.26,1.26,0,0,0,.37-.17.91.91,0,0,0,.25-.27.66.66,0,0,0,.08-.32v-.74h-.92A1.68,1.68,0,0,0,116,48a.55.55,0,0,0-.27.5v.18a.61.61,0,0,0,.24.52A1,1,0,0,0,116.59,49.33Z"/>
    <path d="M121,49.82a.73.73,0,0,1-.55-.2.76.76,0,0,1-.19-.54V45.94h-.74v-.62h.42a.43.43,0,0,0,.31-.09.51.51,0,0,0,.08-.32v-.84h.63v1.25h1v.62h-1V49.2h.91v.62Z"/>
    <path d="M125.81,49.1h0c0,.1-.11.2-.17.3a1.27,1.27,0,0,1-.25.27,1.23,1.23,0,0,1-.36.19,1.77,1.77,0,0,1-.49.06,1.44,1.44,0,0,1-1.11-.44,1.85,1.85,0,0,1-.41-1.27V45.32h.7v2.77c0,.81.35,1.22,1,1.22a1.4,1.4,0,0,0,.41-.06,1.09,1.09,0,0,0,.35-.15.78.78,0,0,0,.24-.27.8.8,0,0,0,.09-.39V45.32h.7v4.5h-.7Z"/>
    <path d="M128,49.82v-4.5h.7v.83h0a1.34,1.34,0,0,1,.44-.58,1.37,1.37,0,0,1,.86-.25h.27V46h-.41a1.57,1.57,0,0,0-.88.21.62.62,0,0,0-.32.54v3Z"/>
    <path d="M134.42,49.82a.69.69,0,0,1-.56-.21,1.06,1.06,0,0,1-.21-.52h0a1.21,1.21,0,0,1-.49.63,1.84,1.84,0,0,1-1.93-.16,1.32,1.32,0,0,1-.39-1,1.12,1.12,0,0,1,.46-1,2.5,2.5,0,0,1,1.46-.34h.89V46.8a1,1,0,0,0-.27-.73,1.1,1.1,0,0,0-.8-.25,1.21,1.21,0,0,0-.68.18,1.44,1.44,0,0,0-.46.49L131,46.1a1.6,1.6,0,0,1,.59-.63,1.82,1.82,0,0,1,1-.25,1.84,1.84,0,0,1,1.27.4,1.39,1.39,0,0,1,.45,1.11V49.2h.52v.62Zm-2-.49a1.86,1.86,0,0,0,.48-.06,1.26,1.26,0,0,0,.37-.17.91.91,0,0,0,.25-.27.57.57,0,0,0,.09-.32v-.74h-.93a1.68,1.68,0,0,0-.88.18.55.55,0,0,0-.27.5v.18a.61.61,0,0,0,.24.52A1.07,1.07,0,0,0,132.42,49.33Z"/>
    <path d="M140.75,49.1h0a1.37,1.37,0,0,1-1.32.82,1.68,1.68,0,0,1-.75-.16,1.65,1.65,0,0,1-.58-.47,2.14,2.14,0,0,1-.37-.74,3.76,3.76,0,0,1,0-2,2.14,2.14,0,0,1,.37-.74,1.65,1.65,0,0,1,.58-.47,1.68,1.68,0,0,1,.75-.16,1.48,1.48,0,0,1,.81.2,1.27,1.27,0,0,1,.51.62h0V43.37h.69v6.45h-.69Zm-1.16.21a1.41,1.41,0,0,0,.45-.07,1.16,1.16,0,0,0,.37-.18.81.81,0,0,0,.24-.28.76.76,0,0,0,.1-.39V46.7a.59.59,0,0,0-.1-.34.92.92,0,0,0-.24-.28,1.41,1.41,0,0,0-.37-.18,1.74,1.74,0,0,0-.45-.06,1.21,1.21,0,0,0-.94.37,1.42,1.42,0,0,0-.34,1V48a1.4,1.4,0,0,0,.34,1A1.21,1.21,0,0,0,139.59,49.31Z"/>
    <path d="M146.2,49.82a.7.7,0,0,1-.57-.21,1.06,1.06,0,0,1-.21-.52h0a1.21,1.21,0,0,1-.49.63,1.84,1.84,0,0,1-1.93-.16,1.32,1.32,0,0,1-.39-1,1.12,1.12,0,0,1,.46-1,2.5,2.5,0,0,1,1.46-.34h.89V46.8a1,1,0,0,0-.27-.73,1.1,1.1,0,0,0-.8-.25,1.21,1.21,0,0,0-.68.18,1.44,1.44,0,0,0-.46.49l-.42-.39a1.6,1.6,0,0,1,.59-.63,1.82,1.82,0,0,1,1-.25,1.84,1.84,0,0,1,1.27.4,1.39,1.39,0,0,1,.45,1.11V49.2h.52v.62Zm-2-.49a1.86,1.86,0,0,0,.48-.06,1.26,1.26,0,0,0,.37-.17.91.91,0,0,0,.25-.27.57.57,0,0,0,.09-.32v-.74h-.93a1.61,1.61,0,0,0-.87.18.54.54,0,0,0-.28.5v.18a.61.61,0,0,0,.24.52A1.07,1.07,0,0,0,144.19,49.33Z"/>
    <path d="M151.42,49.92a2.62,2.62,0,0,1-1.27-.28,2.76,2.76,0,0,1-.89-.78l.54-.45a2.56,2.56,0,0,0,.72.65,1.82,1.82,0,0,0,.92.22,1.48,1.48,0,0,0,1-.31,1.09,1.09,0,0,0,.35-.84.83.83,0,0,0-.27-.67,2,2,0,0,0-.86-.38l-.49-.11a2.88,2.88,0,0,1-1.28-.58,1.36,1.36,0,0,1-.44-1.1,1.8,1.8,0,0,1,.14-.71,1.42,1.42,0,0,1,.42-.52,1.83,1.83,0,0,1,.64-.32,2.94,2.94,0,0,1,.81-.11,2.54,2.54,0,0,1,1.18.25,2.26,2.26,0,0,1,.83.74l-.54.4a2,2,0,0,0-.61-.54,1.75,1.75,0,0,0-.89-.2,1.55,1.55,0,0,0-.92.24.87.87,0,0,0-.34.75.79.79,0,0,0,.28.66,2.25,2.25,0,0,0,.86.35l.5.11a2.67,2.67,0,0,1,1.3.61,1.5,1.5,0,0,1,.4,1.09,2,2,0,0,1-.14.76,1.63,1.63,0,0,1-.42.58,1.9,1.9,0,0,1-.66.36A2.61,2.61,0,0,1,151.42,49.92Z"/>
    <path d="M157.48,49.1h0a1.52,1.52,0,0,1-.17.3,1.06,1.06,0,0,1-.25.27,1.17,1.17,0,0,1-.35.19,1.83,1.83,0,0,1-.49.06,1.41,1.41,0,0,1-1.11-.44,1.85,1.85,0,0,1-.41-1.27V45.32h.7v2.77c0,.81.34,1.22,1,1.22a1.34,1.34,0,0,0,.4-.06,1,1,0,0,0,.35-.15.93.93,0,0,0,.25-.27.8.8,0,0,0,.09-.39V45.32h.69v4.5h-.69Z"/>
    <path d="M159.66,45.32h.69V46h0a1.18,1.18,0,0,1,.51-.62,1.48,1.48,0,0,1,.81-.2,1.68,1.68,0,0,1,.75.16,1.65,1.65,0,0,1,.58.47,2.14,2.14,0,0,1,.37.74,3.76,3.76,0,0,1,0,2,2.14,2.14,0,0,1-.37.74,1.65,1.65,0,0,1-.58.47,1.68,1.68,0,0,1-.75.16,1.36,1.36,0,0,1-1.32-.82h0v2.46h-.69Zm1.85,4a1.21,1.21,0,0,0,.94-.38,1.4,1.4,0,0,0,.34-1v-.77a1.42,1.42,0,0,0-.34-1,1.21,1.21,0,0,0-.94-.37,1.74,1.74,0,0,0-.45.06,1.41,1.41,0,0,0-.37.18.92.92,0,0,0-.24.28.59.59,0,0,0-.1.34v1.69a.76.76,0,0,0,.1.39.81.81,0,0,0,.24.28,1.16,1.16,0,0,0,.37.18A1.41,1.41,0,0,0,161.51,49.31Z"/>
    <path d="M166.4,49.92a2,2,0,0,1-.83-.16,1.66,1.66,0,0,1-.63-.48,2,2,0,0,1-.41-.74,3,3,0,0,1-.15-1,3,3,0,0,1,.15-1,2,2,0,0,1,.41-.74,1.66,1.66,0,0,1,.63-.48,2,2,0,0,1,.83-.16,1.86,1.86,0,0,1,.81.16,1.76,1.76,0,0,1,.62.46,2.09,2.09,0,0,1,.38.69,2.71,2.71,0,0,1,.14.88v.33h-3.24V48a1.32,1.32,0,0,0,.1.53,1.1,1.1,0,0,0,.26.43,1.06,1.06,0,0,0,.42.29,1.47,1.47,0,0,0,1.3-.09,1.35,1.35,0,0,0,.5-.58l.49.36a1.69,1.69,0,0,1-.68.75A2,2,0,0,1,166.4,49.92Zm0-4.12a1.27,1.27,0,0,0-.52.1,1.15,1.15,0,0,0-.4.28,1.21,1.21,0,0,0-.27.43,1.62,1.62,0,0,0-.1.54v.06h2.49v-.09a1.37,1.37,0,0,0-.33-1A1.12,1.12,0,0,0,166.4,45.8Z"/>
    <path d="M169.5,49.82v-4.5h.7v.83h0a1.34,1.34,0,0,1,.44-.58,1.37,1.37,0,0,1,.86-.25h.27V46h-.41a1.57,1.57,0,0,0-.88.21.62.62,0,0,0-.32.54v3Z"/>
    <path d="M173,45.94h-.73v-.62H173v-.91a1.13,1.13,0,0,1,.24-.75.89.89,0,0,1,.74-.29h.68V44h-1v1.33h1v.62h-1v3.88H173Z"/>
    <path d="M176,44.72l-.46-.21.74-1.48.64.3Zm-.42,5.1v-4.5h.7v4.5Z"/>
    <path d="M179.41,49.92a2.06,2.06,0,0,1-.84-.16,1.87,1.87,0,0,1-.64-.47,2.18,2.18,0,0,1-.39-.74,3.76,3.76,0,0,1,0-2,2.18,2.18,0,0,1,.39-.74,1.87,1.87,0,0,1,.64-.47,2.06,2.06,0,0,1,.84-.16,1.77,1.77,0,0,1,1.08.29,1.83,1.83,0,0,1,.61.76l-.59.3a1,1,0,0,0-.4-.54,1.2,1.2,0,0,0-.7-.19,1.35,1.35,0,0,0-.55.1,1.19,1.19,0,0,0-.39.27,1.27,1.27,0,0,0-.23.43,1.63,1.63,0,0,0-.08.55V48a1.45,1.45,0,0,0,.32,1,1.15,1.15,0,0,0,.93.38,1.27,1.27,0,0,0,1.22-.79l.51.34a1.78,1.78,0,0,1-.65.78A1.93,1.93,0,0,1,179.41,49.92Z"/>
    <path d="M182.47,44.27a.37.37,0,0,1-.42-.4v-.11a.37.37,0,0,1,.1-.28.38.38,0,0,1,.32-.11.41.41,0,0,1,.33.11.37.37,0,0,1,.1.28v.11a.41.41,0,0,1-.1.29A.45.45,0,0,1,182.47,44.27Zm-.35,1h.7v4.5h-.7Z"/>
    <path d="M186,49.92a2.06,2.06,0,0,1-.84-.16,1.74,1.74,0,0,1-.63-.48,2,2,0,0,1-.41-.74,3,3,0,0,1-.15-1,3,3,0,0,1,.15-1,2,2,0,0,1,.41-.74,1.74,1.74,0,0,1,.63-.48,2.06,2.06,0,0,1,.84-.16,1.92,1.92,0,0,1,.81.16,1.82,1.82,0,0,1,.61.46,1.92,1.92,0,0,1,.38.69,2.71,2.71,0,0,1,.14.88v.33h-3.23V48a1.51,1.51,0,0,0,.09.53,1.1,1.1,0,0,0,.26.43,1.06,1.06,0,0,0,.42.29,1.47,1.47,0,0,0,1.3-.09,1.35,1.35,0,0,0,.5-.58l.49.36a1.69,1.69,0,0,1-.68.75A2,2,0,0,1,186,49.92Zm0-4.12a1.29,1.29,0,0,0-.53.1,1.26,1.26,0,0,0-.4.28,1.21,1.21,0,0,0-.27.43,1.61,1.61,0,0,0-.09.54v.06h2.48v-.09a1.37,1.37,0,0,0-.33-1A1.1,1.1,0,0,0,186,45.8Z"/>
    <path d="M194,49.1h0a1.37,1.37,0,0,1-1.32.82,1.65,1.65,0,0,1-.75-.16,1.57,1.57,0,0,1-.58-.47,2,2,0,0,1-.37-.74,3.76,3.76,0,0,1,0-2,2,2,0,0,1,.37-.74,1.57,1.57,0,0,1,.58-.47,1.65,1.65,0,0,1,.75-.16,1.48,1.48,0,0,1,.81.2A1.27,1.27,0,0,1,194,46h0V43.37h.7v6.45H194Zm-1.15.21a1.31,1.31,0,0,0,.44-.07,1,1,0,0,0,.37-.18.75.75,0,0,0,.25-.28.86.86,0,0,0,.09-.39V46.7a.67.67,0,0,0-.09-.34.83.83,0,0,0-.25-.28,1.16,1.16,0,0,0-.37-.18,1.61,1.61,0,0,0-.44-.06,1.21,1.21,0,0,0-.94.37,1.42,1.42,0,0,0-.34,1V48a1.4,1.4,0,0,0,.34,1A1.21,1.21,0,0,0,192.87,49.31Z"/>
    <path d="M197.9,49.92a2,2,0,0,1-.82-.16,1.81,1.81,0,0,1-.65-.48,2.29,2.29,0,0,1-.41-.74,3,3,0,0,1-.15-1,3,3,0,0,1,.15-1,2.29,2.29,0,0,1,.41-.74,1.81,1.81,0,0,1,.65-.48,2.21,2.21,0,0,1,1.65,0,1.86,1.86,0,0,1,.64.48,2.14,2.14,0,0,1,.42.74,3,3,0,0,1,.15,1,3,3,0,0,1-.15,1,2.14,2.14,0,0,1-.42.74,1.86,1.86,0,0,1-.64.48A2,2,0,0,1,197.9,49.92Zm0-.61a1.29,1.29,0,0,0,.93-.35,1.44,1.44,0,0,0,.36-1.07v-.64a1.44,1.44,0,0,0-.36-1.07,1.43,1.43,0,0,0-1.85,0,1.44,1.44,0,0,0-.36,1.07v.64A1.44,1.44,0,0,0,197,49,1.28,1.28,0,0,0,197.9,49.31Z"/>
    <path d="M208,44.69h-.05l-.51,1-1.46,2.65-1.45-2.65-.52-1h0v5.13h-.72V43.73h1L205.93,47h0l1.75-3.28h.94v6.09H208Z"/>
    <path d="M213.49,49.82a.68.68,0,0,1-.56-.21,1.06,1.06,0,0,1-.21-.52h-.05a1.15,1.15,0,0,1-.48.63,1.84,1.84,0,0,1-1.93-.16,1.32,1.32,0,0,1-.39-1,1.12,1.12,0,0,1,.46-1,2.48,2.48,0,0,1,1.46-.34h.88V46.8a1,1,0,0,0-.26-.73,1.1,1.1,0,0,0-.8-.25,1.21,1.21,0,0,0-.68.18,1.44,1.44,0,0,0-.46.49l-.42-.39a1.65,1.65,0,0,1,.58-.63,1.88,1.88,0,0,1,1-.25,1.84,1.84,0,0,1,1.27.4,1.39,1.39,0,0,1,.45,1.11V49.2h.52v.62Zm-2-.49a1.86,1.86,0,0,0,.48-.06,1.26,1.26,0,0,0,.37-.17.91.91,0,0,0,.25-.27.57.57,0,0,0,.08-.32v-.74h-.92a1.68,1.68,0,0,0-.88.18.55.55,0,0,0-.27.5v.18a.61.61,0,0,0,.24.52A1.07,1.07,0,0,0,211.49,49.33Z"/>
    <path d="M214.88,49.82v-4.5h.7v.83h0a1.34,1.34,0,0,1,.44-.58,1.37,1.37,0,0,1,.86-.25h.27V46h-.41a1.57,1.57,0,0,0-.88.21.62.62,0,0,0-.32.54v3Z"/>
    <path d="M222.18,47.1a6,6,0,0,1,.12-1.21,5.46,5.46,0,0,1,.84-2,4.24,4.24,0,0,1,.62-.7h.66a5.21,5.21,0,0,0-.66.75,5.1,5.1,0,0,0-.81,1.85,4,4,0,0,0-.12.94v.75a3.93,3.93,0,0,0,.12,1,4.71,4.71,0,0,0,.32,1,4.84,4.84,0,0,0,.5.89,3.53,3.53,0,0,0,.65.73h-.66a3.13,3.13,0,0,1-.61-.68,4.67,4.67,0,0,1-.51-.91,7,7,0,0,1-.34-1.09A6.26,6.26,0,0,1,222.18,47.1Z"/>
    <path d="M226.11,46.82a1.25,1.25,0,0,1-1-.41,1.71,1.71,0,0,1-.36-1.16,1.69,1.69,0,0,1,.36-1.15,1.38,1.38,0,0,1,2,0,1.69,1.69,0,0,1,.36,1.15,1.71,1.71,0,0,1-.36,1.16A1.25,1.25,0,0,1,226.11,46.82Zm0-.45a.67.67,0,0,0,.57-.24.93.93,0,0,0,.19-.61V45a.93.93,0,0,0-.19-.61.82.82,0,0,0-1.14,0,.93.93,0,0,0-.19.61v.54a.93.93,0,0,0,.19.61A.67.67,0,0,0,226.11,46.37Z"/>
    <path d="M230.8,49.92a2.21,2.21,0,0,1-1.8-.78,3.63,3.63,0,0,1-.65-2.33,3.77,3.77,0,0,1,.65-2.36,2.15,2.15,0,0,1,1.8-.82,2.3,2.3,0,0,1,1.29.34,2.27,2.27,0,0,1,.8,1l-.59.35a1.69,1.69,0,0,0-.56-.75,1.5,1.5,0,0,0-.94-.28,1.56,1.56,0,0,0-.7.14,1.35,1.35,0,0,0-.52.43,1.74,1.74,0,0,0-.33.65,2.88,2.88,0,0,0-.12.86v.91a2.29,2.29,0,0,0,.44,1.48,1.51,1.51,0,0,0,1.23.53,1.57,1.57,0,0,0,1-.3,1.73,1.73,0,0,0,.57-.8l.59.37a2.36,2.36,0,0,1-.83,1A2.32,2.32,0,0,1,230.8,49.92Z"/>
    <path d="M235.46,47.1a6.26,6.26,0,0,1-.13,1.23,6,6,0,0,1-.34,1.09,4.65,4.65,0,0,1-.5.91,3.41,3.41,0,0,1-.61.68h-.67a3.53,3.53,0,0,0,.65-.73,4.89,4.89,0,0,0,.51-.89,5.41,5.41,0,0,0,.32-1,4.47,4.47,0,0,0,.11-1v-.75a4.53,4.53,0,0,0-.11-.94,6,6,0,0,0-.32-1,5.2,5.2,0,0,0-.5-.89,4.67,4.67,0,0,0-.66-.75h.67a4.76,4.76,0,0,1,.62.7,5.3,5.3,0,0,1,.5.91,6,6,0,0,1,.33,1.09A5.34,5.34,0,0,1,235.46,47.1Z"/>
  </g>
  <g>
    <g>
      <path d="M154.42,23.58H149a2,2,0,0,1-2.11-2V10.68a2,2,0,0,1,2.11-2h5.46a2,2,0,0,1,2.11,2V21.61A2,2,0,0,1,154.42,23.58Z" style="fill: #fff"/>
      <path d="M154.42,23.83H149a2.29,2.29,0,0,1-2.36-2.22V10.68A2.29,2.29,0,0,1,149,8.46h5.46a2.3,2.3,0,0,1,2.36,2.22V21.61A2.29,2.29,0,0,1,154.42,23.83ZM149,9a1.79,1.79,0,0,0-1.86,1.72V21.61A1.79,1.79,0,0,0,149,23.33h5.46a1.79,1.79,0,0,0,1.86-1.72V10.68A1.79,1.79,0,0,0,154.42,9Z" style="fill: #939393"/>
    </g>
    <path d="M274,23.58h-5.47a2,2,0,0,1-2.11-2V10.68a2,2,0,0,1,2.11-2H274a2,2,0,0,1,2.11,2V21.61A2.05,2.05,0,0,1,274,23.58Z" style="fill: #eb2b20"/>
    <path d="M291.11,23.58h-5.46a2,2,0,0,1-2.11-2V10.68a2,2,0,0,1,2.11-2h5.46a2,2,0,0,1,2.11,2V21.61A2,2,0,0,1,291.11,23.58Z" style="fill: #d6111f"/>
    <path d="M308.2,23.58h-5.46a2,2,0,0,1-2.11-2V10.68a2,2,0,0,1,2.11-2h5.46a2,2,0,0,1,2.11,2V21.61A2,2,0,0,1,308.2,23.58Z" style="fill: #bd0026"/>
    <path d="M51.82,23.58H46.35a2,2,0,0,1-2.11-2V10.68a2,2,0,0,1,2.11-2h5.47a2,2,0,0,1,2.11,2V21.61A2,2,0,0,1,51.82,23.58Z" style="fill: #0868ac"/>
    <path d="M34.74,23.58H29.28a2,2,0,0,1-2.11-2V10.68a2,2,0,0,1,2.11-2h5.46a2,2,0,0,1,2.11,2V21.61A2,2,0,0,1,34.74,23.58Z" style="fill: #001476"/>
    <path d="M17.67,23.58H12.2a2,2,0,0,1-2.11-2V10.68a2,2,0,0,1,2.11-2h5.47a2,2,0,0,1,2.11,2V21.61A2,2,0,0,1,17.67,23.58Z" style="fill: #081d58"/>
    <path d="M68.91,23.58H63.44a2,2,0,0,1-2.11-2V10.68a2,2,0,0,1,2.11-2h5.47a2,2,0,0,1,2.11,2V21.61A2.05,2.05,0,0,1,68.91,23.58Z" style="fill: #2b8cbe"/>
    <path d="M86,23.58H80.53a2,2,0,0,1-2.11-2V10.68a2,2,0,0,1,2.11-2H86a2,2,0,0,1,2.11,2V21.61A2.05,2.05,0,0,1,86,23.58Z" style="fill: #7bccc4"/>
    <path d="M103.08,23.58H97.61a2,2,0,0,1-2.11-2V10.68a2,2,0,0,1,2.11-2h5.47a2,2,0,0,1,2.11,2V21.61A2.05,2.05,0,0,1,103.08,23.58Z" style="fill: #a8ddb5"/>
    <path d="M120.17,23.58H114.7a2,2,0,0,1-2.11-2V10.68a2,2,0,0,1,2.11-2h5.47a2,2,0,0,1,2.1,2V21.61A2,2,0,0,1,120.17,23.58Z" style="fill: #ccebc5"/>
    <path d="M137.25,23.58h-5.46a2,2,0,0,1-2.11-2V10.68a2,2,0,0,1,2.11-2h5.46a2,2,0,0,1,2.11,2V21.61A2,2,0,0,1,137.25,23.58Z" style="fill: #e0f3db"/>
    <g>
      <path d="M171.51,23.58H166a2,2,0,0,1-2.11-2V10.68a2,2,0,0,1,2.11-2h5.47a2,2,0,0,1,2.11,2V21.61A2,2,0,0,1,171.51,23.58Z" style="fill: #fff"/>
      <path d="M171.51,23.83H166a2.29,2.29,0,0,1-2.36-2.22V10.68A2.3,2.3,0,0,1,166,8.46h5.47a2.3,2.3,0,0,1,2.36,2.22V21.61A2.29,2.29,0,0,1,171.51,23.83ZM166,9a1.8,1.8,0,0,0-1.86,1.72V21.61A1.8,1.8,0,0,0,166,23.33h5.47a1.79,1.79,0,0,0,1.86-1.72V10.68A1.79,1.79,0,0,0,171.51,9Z" style="fill: #939393"/>
    </g>
    <path d="M188.59,23.58h-5.47a2,2,0,0,1-2.1-2V10.68a2,2,0,0,1,2.1-2h5.47a2,2,0,0,1,2.11,2V21.61A2,2,0,0,1,188.59,23.58Z" style="fill: #ffc"/>
    <path d="M205.68,23.58h-5.47a2,2,0,0,1-2.11-2V10.68a2,2,0,0,1,2.11-2h5.47a2,2,0,0,1,2.11,2V21.61A2,2,0,0,1,205.68,23.58Z" style="fill: #ffeda0"/>
    <path d="M222.77,23.58H217.3a2,2,0,0,1-2.11-2V10.68a2,2,0,0,1,2.11-2h5.47a2,2,0,0,1,2.11,2V21.61A2.05,2.05,0,0,1,222.77,23.58Z" style="fill: #fed976"/>
    <path d="M239.85,23.58h-5.47a2,2,0,0,1-2.11-2V10.68a2,2,0,0,1,2.11-2h5.47a2,2,0,0,1,2.11,2V21.61A2,2,0,0,1,239.85,23.58Z" style="fill: #feb24c"/>
    <path d="M256.94,23.58h-5.47a2,2,0,0,1-2.11-2V10.68a2,2,0,0,1,2.11-2h5.47a2,2,0,0,1,2.11,2V21.61A2.05,2.05,0,0,1,256.94,23.58Z" style="fill: #fc4e2a"/>
  </g>
</svg>
