<svg id="Camada_1" data-name="Camada 1" xmlns="http://www.w3.org/2000/svg" viewBox="0 0 320.4 57.45">
  <title>LEGENDAS_PÁGINA_CLIMA</title>
  <g style="opacity: 0.75">
    <path d="M0,6.38C0,2.86,3.19,0,7.12,0H313.28c3.94,0,7.12,2.86,7.12,6.38V51.07c0,3.52-3.18,6.38-7.12,6.38H7.12C3.19,57.45,0,54.59,0,51.07Z" style="fill: #fff"/>
  </g>
  <g>
    <path d="M49.32,33.14v-.69h2.1v.69Z"/>
    <path d="M52.68,35.24v-.6h1.57V30.12h0l-1.42,1.32L52.39,31l1.48-1.39h1.06v5h1.45v.6Z"/>
    <path d="M59.22,35.34a1.6,1.6,0,0,1-1.47-.77,4.12,4.12,0,0,1-.46-2.14,4.12,4.12,0,0,1,.46-2.14,1.8,1.8,0,0,1,2.94,0,4.12,4.12,0,0,1,.46,2.14,4.12,4.12,0,0,1-.46,2.14A1.6,1.6,0,0,1,59.22,35.34Zm0-.6a1,1,0,0,0,.94-.52,1.72,1.72,0,0,0,.21-.59,3.38,3.38,0,0,0,.07-.74V32a3.38,3.38,0,0,0-.07-.74,1.72,1.72,0,0,0-.21-.59,1.06,1.06,0,0,0-.38-.38,1.08,1.08,0,0,0-.56-.14,1.15,1.15,0,0,0-.57.14,1,1,0,0,0-.37.38,2,2,0,0,0-.22.59A4.14,4.14,0,0,0,58,32v.92a4.14,4.14,0,0,0,.07.74,2,2,0,0,0,.22.59,1,1,0,0,0,.37.38A1,1,0,0,0,59.22,34.74Z"/>
    <path d="M64.05,35.34a1.6,1.6,0,0,1-1.47-.77,4.12,4.12,0,0,1-.46-2.14,4.12,4.12,0,0,1,.46-2.14,1.8,1.8,0,0,1,2.94,0A4.23,4.23,0,0,1,66,32.43a4.23,4.23,0,0,1-.46,2.14A1.6,1.6,0,0,1,64.05,35.34Zm0-.6a1,1,0,0,0,.56-.14,1,1,0,0,0,.38-.38,2,2,0,0,0,.21-.59,3.38,3.38,0,0,0,.07-.74V32a3.38,3.38,0,0,0-.07-.74,2,2,0,0,0-.21-.59,1.06,1.06,0,0,0-.38-.38,1.11,1.11,0,0,0-.56-.14,1,1,0,0,0-.95.52,2.27,2.27,0,0,0-.21.59,4.14,4.14,0,0,0-.07.74v.92a4.14,4.14,0,0,0,.07.74,2.27,2.27,0,0,0,.21.59,1.06,1.06,0,0,0,.38.38A1,1,0,0,0,64.05,34.74Z"/>
  </g>
  <g>
    <path d="M15.14,33.14v-.69h2.1v.69Z"/>
    <path d="M18.51,35.24v-.6h1.57V30.12H20L18.6,31.44,18.21,31l1.49-1.39h1.05v5H22.2v.6Z"/>
    <path d="M26.63,30.22H24.17L24,32.36h.06a1.61,1.61,0,0,1,.45-.45,1.27,1.27,0,0,1,.7-.17,1.85,1.85,0,0,1,.67.12,1.55,1.55,0,0,1,.53.34,1.62,1.62,0,0,1,.35.55,2.25,2.25,0,0,1,0,1.48,1.64,1.64,0,0,1-.37.59,1.67,1.67,0,0,1-.6.38,2.14,2.14,0,0,1-.79.14,2.28,2.28,0,0,1-.62-.08A2.12,2.12,0,0,1,23.9,35a2.2,2.2,0,0,1-.37-.3,3.07,3.07,0,0,1-.28-.35l.5-.39c.07.11.15.22.22.31a1.38,1.38,0,0,0,.26.23,1.43,1.43,0,0,0,.33.15,1.84,1.84,0,0,0,.44.05,1.15,1.15,0,0,0,.88-.31,1.17,1.17,0,0,0,.3-.86v-.08a1.17,1.17,0,0,0-.3-.86,1.15,1.15,0,0,0-.88-.31,1.17,1.17,0,0,0-.61.14,2.51,2.51,0,0,0-.4.33l-.57-.08.2-3.09h3Z"/>
    <path d="M29.87,35.34a1.6,1.6,0,0,1-1.47-.77,4.12,4.12,0,0,1-.46-2.14,4.12,4.12,0,0,1,.46-2.14,1.8,1.8,0,0,1,2.94,0,4.12,4.12,0,0,1,.46,2.14,4.12,4.12,0,0,1-.46,2.14A1.6,1.6,0,0,1,29.87,35.34Zm0-.6a1,1,0,0,0,.94-.52,1.72,1.72,0,0,0,.21-.59,3.38,3.38,0,0,0,.07-.74V32a3.38,3.38,0,0,0-.07-.74,1.72,1.72,0,0,0-.21-.59,1.06,1.06,0,0,0-.38-.38,1.19,1.19,0,0,0-1.12,0,1,1,0,0,0-.38.38,2,2,0,0,0-.22.59,4.18,4.18,0,0,0-.06.74v.92a4.18,4.18,0,0,0,.06.74,2,2,0,0,0,.22.59.93.93,0,0,0,.38.38A1,1,0,0,0,29.87,34.74Z"/>
  </g>
  <g>
    <path d="M85.91,33.14v-.69H88v.69Z"/>
    <path d="M91,35.34a2,2,0,0,1-.79-.15,1.58,1.58,0,0,1-.59-.43,1.94,1.94,0,0,1-.38-.68,3.16,3.16,0,0,1-.12-.9A3.79,3.79,0,0,1,89.29,32a4.27,4.27,0,0,1,.48-1,4.72,4.72,0,0,1,.65-.8,4.33,4.33,0,0,1,.69-.57H92c-.3.22-.57.44-.81.64a5.46,5.46,0,0,0-.62.66,4.93,4.93,0,0,0-.45.73,4.13,4.13,0,0,0-.29.88h0a1.67,1.67,0,0,1,.52-.57,1.38,1.38,0,0,1,.83-.23,1.85,1.85,0,0,1,.67.12,1.54,1.54,0,0,1,.52.35,1.6,1.6,0,0,1,.34.55,2,2,0,0,1,.13.71,2.06,2.06,0,0,1-.14.76,1.79,1.79,0,0,1-.37.59,1.86,1.86,0,0,1-.6.38A2.06,2.06,0,0,1,91,35.34Zm0-.6a1.08,1.08,0,0,0,1.18-1.18v-.07A1.08,1.08,0,0,0,91,32.31a1.08,1.08,0,0,0-1.17,1.18v.07A1.08,1.08,0,0,0,91,34.74Z"/>
    <path d="M95.81,35.34a1.6,1.6,0,0,1-1.47-.77,4.12,4.12,0,0,1-.46-2.14,4.12,4.12,0,0,1,.46-2.14,1.8,1.8,0,0,1,2.94,0,4.12,4.12,0,0,1,.46,2.14,4.12,4.12,0,0,1-.46,2.14A1.6,1.6,0,0,1,95.81,35.34Zm0-.6a1,1,0,0,0,.56-.14,1.06,1.06,0,0,0,.38-.38,1.72,1.72,0,0,0,.21-.59,3.38,3.38,0,0,0,.07-.74V32a3.38,3.38,0,0,0-.07-.74,1.72,1.72,0,0,0-.21-.59,1.06,1.06,0,0,0-.38-.38,1.19,1.19,0,0,0-1.12,0,1,1,0,0,0-.38.38,2,2,0,0,0-.22.59,4.18,4.18,0,0,0-.06.74v.92a4.18,4.18,0,0,0,.06.74,2,2,0,0,0,.22.59,1,1,0,0,0,.94.52Z"/>
  </g>
  <g>
    <path d="M120,33.14v-.69h2.1v.69Z"/>
    <path d="M127,35.24H123.3v-.69l1.84-1.69a4.28,4.28,0,0,0,.66-.77,1.49,1.49,0,0,0,.26-.82v-.1a1.12,1.12,0,0,0-.25-.76,1,1,0,0,0-.78-.29,1.53,1.53,0,0,0-.46.07,1.21,1.21,0,0,0-.33.2,1.19,1.19,0,0,0-.23.31,2,2,0,0,0-.15.37l-.61-.23a2.42,2.42,0,0,1,.23-.49,1.57,1.57,0,0,1,.35-.42,1.53,1.53,0,0,1,.52-.29,1.89,1.89,0,0,1,.71-.11,2.07,2.07,0,0,1,.73.12,1.63,1.63,0,0,1,.54.33,1.49,1.49,0,0,1,.33.52,1.76,1.76,0,0,1,.12.66,2,2,0,0,1-.09.61,2.17,2.17,0,0,1-.26.53,2.51,2.51,0,0,1-.39.5c-.15.16-.31.32-.49.48L124,34.64H127Z"/>
    <path d="M129.94,35.34a1.6,1.6,0,0,1-1.47-.77,4.23,4.23,0,0,1-.46-2.14,4.23,4.23,0,0,1,.46-2.14,1.8,1.8,0,0,1,2.94,0,4.12,4.12,0,0,1,.46,2.14,4.12,4.12,0,0,1-.46,2.14A1.6,1.6,0,0,1,129.94,35.34Zm0-.6a1,1,0,0,0,.57-.14,1,1,0,0,0,.37-.38,2,2,0,0,0,.22-.59,4.14,4.14,0,0,0,.07-.74V32a4.14,4.14,0,0,0-.07-.74,2,2,0,0,0-.22-.59,1,1,0,0,0-.37-.38,1.15,1.15,0,0,0-.57-.14,1.11,1.11,0,0,0-.56.14,1.06,1.06,0,0,0-.38.38,1.72,1.72,0,0,0-.21.59,3.38,3.38,0,0,0-.07.74v.92a3.38,3.38,0,0,0,.07.74,1.72,1.72,0,0,0,.21.59,1.06,1.06,0,0,0,.38.38A1,1,0,0,0,129.94,34.74Z"/>
  </g>
  <path d="M160.2,35.34a1.6,1.6,0,0,1-1.47-.77,4.12,4.12,0,0,1-.46-2.14,4.12,4.12,0,0,1,.46-2.14,1.8,1.8,0,0,1,2.94,0,4.12,4.12,0,0,1,.46,2.14,4.12,4.12,0,0,1-.46,2.14A1.6,1.6,0,0,1,160.2,35.34Zm0-.6a1,1,0,0,0,.57-.14,1,1,0,0,0,.37-.38,2,2,0,0,0,.22-.59,4.18,4.18,0,0,0,.06-.74V32a4.18,4.18,0,0,0-.06-.74,2,2,0,0,0-.22-.59,1,1,0,0,0-.37-.38,1.15,1.15,0,0,0-.57-.14,1.08,1.08,0,0,0-.56.14,1.06,1.06,0,0,0-.38.38,1.72,1.72,0,0,0-.21.59A3.38,3.38,0,0,0,159,32v.92a3.38,3.38,0,0,0,.07.74,1.72,1.72,0,0,0,.21.59,1.06,1.06,0,0,0,.38.38A1,1,0,0,0,160.2,34.74Z"/>
  <g>
    <path d="M193.85,35.24h-3.69v-.69L192,32.86a3.61,3.61,0,0,0,.66-.77,1.51,1.51,0,0,0,.27-.82v-.1a1.13,1.13,0,0,0-.26-.76,1,1,0,0,0-.78-.29,1.52,1.52,0,0,0-.45.07,1.08,1.08,0,0,0-.33.2,1.23,1.23,0,0,0-.24.31,1.49,1.49,0,0,0-.14.37l-.61-.23a3.06,3.06,0,0,1,.22-.49,1.61,1.61,0,0,1,.36-.42,1.58,1.58,0,0,1,.51-.29,1.93,1.93,0,0,1,.71-.11,2.13,2.13,0,0,1,.74.12,1.38,1.38,0,0,1,.87.85,1.76,1.76,0,0,1,.12.66,1.74,1.74,0,0,1-.1.61,2.14,2.14,0,0,1-.25.53,3.56,3.56,0,0,1-.39.5c-.15.16-.32.32-.5.48l-1.51,1.36h3Z"/>
    <path d="M196.8,35.34a1.6,1.6,0,0,1-1.47-.77,4.12,4.12,0,0,1-.46-2.14,4.12,4.12,0,0,1,.46-2.14,1.8,1.8,0,0,1,2.94,0,4.12,4.12,0,0,1,.46,2.14,4.12,4.12,0,0,1-.46,2.14A1.6,1.6,0,0,1,196.8,35.34Zm0-.6a1,1,0,0,0,.56-.14,1.06,1.06,0,0,0,.38-.38,1.72,1.72,0,0,0,.21-.59,3.38,3.38,0,0,0,.07-.74V32a3.38,3.38,0,0,0-.07-.74,1.72,1.72,0,0,0-.21-.59,1.06,1.06,0,0,0-.38-.38,1.19,1.19,0,0,0-1.12,0,1,1,0,0,0-.38.38,2,2,0,0,0-.22.59,4.18,4.18,0,0,0-.06.74v.92a4.18,4.18,0,0,0,.06.74,2,2,0,0,0,.22.59,1,1,0,0,0,.94.52Z"/>
  </g>
  <g>
    <path d="M226.16,35.34a1.94,1.94,0,0,1-.78-.15,1.7,1.7,0,0,1-.6-.43,1.93,1.93,0,0,1-.37-.68,2.84,2.84,0,0,1-.13-.9,3.52,3.52,0,0,1,.19-1.18,4.67,4.67,0,0,1,.47-1,5.26,5.26,0,0,1,.65-.8,5.45,5.45,0,0,1,.69-.57h.87c-.3.22-.56.44-.8.64a4.77,4.77,0,0,0-.62.66,3.68,3.68,0,0,0-.45.73,4.77,4.77,0,0,0-.3.88h0a1.9,1.9,0,0,1,.52-.57,1.41,1.41,0,0,1,.83-.23,1.81,1.81,0,0,1,.67.12,1.37,1.37,0,0,1,.52.35,1.62,1.62,0,0,1,.35.55,2,2,0,0,1,.12.71,2.06,2.06,0,0,1-.13.76,1.81,1.81,0,0,1-.38.59,1.71,1.71,0,0,1-.59.38A2.11,2.11,0,0,1,226.16,35.34Zm0-.6a1.08,1.08,0,0,0,1.17-1.18v-.07a1.08,1.08,0,0,0-1.17-1.18,1.17,1.17,0,0,0-.87.31,1.14,1.14,0,0,0-.31.87v.07a1.14,1.14,0,0,0,.31.87A1.17,1.17,0,0,0,226.16,34.74Z"/>
    <path d="M231,35.34a1.57,1.57,0,0,1-1.46-.77,4.12,4.12,0,0,1-.47-2.14,4.12,4.12,0,0,1,.47-2.14,1.56,1.56,0,0,1,1.46-.76,1.58,1.58,0,0,1,1.47.76,4.12,4.12,0,0,1,.47,2.14,4.12,4.12,0,0,1-.47,2.14A1.59,1.59,0,0,1,231,35.34Zm0-.6a1,1,0,0,0,.57-.14,1.15,1.15,0,0,0,.38-.38,2.27,2.27,0,0,0,.21-.59,3.38,3.38,0,0,0,.07-.74V32a3.38,3.38,0,0,0-.07-.74,2.27,2.27,0,0,0-.21-.59,1.15,1.15,0,0,0-.38-.38,1.12,1.12,0,0,0-.57-.14,1.11,1.11,0,0,0-.56.14,1.15,1.15,0,0,0-.38.38,2.27,2.27,0,0,0-.21.59,3.38,3.38,0,0,0-.07.74v.92a3.38,3.38,0,0,0,.07.74,2.27,2.27,0,0,0,.21.59,1.15,1.15,0,0,0,.38.38A1,1,0,0,0,231,34.74Z"/>
  </g>
  <g>
    <path d="M256.27,35.24v-.6h1.57V30.12h-.06l-1.42,1.32L256,31l1.49-1.39h1.05v5H260v.6Z"/>
    <path d="M262.8,35.34a1.6,1.6,0,0,1-1.47-.77,4.23,4.23,0,0,1-.46-2.14,4.23,4.23,0,0,1,.46-2.14,1.8,1.8,0,0,1,2.94,0,4.12,4.12,0,0,1,.46,2.14,4.12,4.12,0,0,1-.46,2.14A1.6,1.6,0,0,1,262.8,35.34Zm0-.6a1,1,0,0,0,.57-.14,1.06,1.06,0,0,0,.38-.38,2.27,2.27,0,0,0,.21-.59,4.14,4.14,0,0,0,.07-.74V32a4.14,4.14,0,0,0-.07-.74,2.27,2.27,0,0,0-.21-.59,1,1,0,0,0-.95-.52,1.11,1.11,0,0,0-.56.14,1.06,1.06,0,0,0-.38.38,2,2,0,0,0-.21.59,3.38,3.38,0,0,0-.07.74v.92a3.38,3.38,0,0,0,.07.74,2,2,0,0,0,.21.59,1,1,0,0,0,.38.38A1,1,0,0,0,262.8,34.74Z"/>
    <path d="M267.63,35.34a1.6,1.6,0,0,1-1.47-.77,4.12,4.12,0,0,1-.46-2.14,4.12,4.12,0,0,1,.46-2.14,1.8,1.8,0,0,1,2.94,0,4.12,4.12,0,0,1,.46,2.14,4.12,4.12,0,0,1-.46,2.14A1.6,1.6,0,0,1,267.63,35.34Zm0-.6a1,1,0,0,0,.57-.14,1,1,0,0,0,.37-.38,2,2,0,0,0,.22-.59,4.14,4.14,0,0,0,.07-.74V32a4.14,4.14,0,0,0-.07-.74,2,2,0,0,0-.22-.59,1,1,0,0,0-.37-.38,1.15,1.15,0,0,0-.57-.14,1.11,1.11,0,0,0-.56.14,1.06,1.06,0,0,0-.38.38,1.72,1.72,0,0,0-.21.59,3.38,3.38,0,0,0-.07.74v.92a3.38,3.38,0,0,0,.07.74,1.72,1.72,0,0,0,.21.59,1,1,0,0,0,.38.38A1,1,0,0,0,267.63,34.74Z"/>
  </g>
  <g>
    <path d="M290.43,35.24v-.6H292V30.12H292l-1.42,1.32-.4-.43,1.49-1.39h1.06v5h1.45v.6Z"/>
    <path d="M298.56,30.22H296.1l-.16,2.14H296a1.78,1.78,0,0,1,.46-.45,1.27,1.27,0,0,1,.7-.17,1.76,1.76,0,0,1,.66.12,1.46,1.46,0,0,1,.53.34,1.48,1.48,0,0,1,.35.55,1.83,1.83,0,0,1,.13.73,2,2,0,0,1-.13.75,1.79,1.79,0,0,1-.37.59,1.86,1.86,0,0,1-.6.38,2.18,2.18,0,0,1-.79.14,2.35,2.35,0,0,1-.63-.08,2,2,0,0,1-.84-.52,3.17,3.17,0,0,1-.29-.35l.51-.39a2.44,2.44,0,0,0,.22.31,1.38,1.38,0,0,0,.26.23,1.26,1.26,0,0,0,.33.15,1.84,1.84,0,0,0,.44.05,1.13,1.13,0,0,0,.87-.31,1.17,1.17,0,0,0,.3-.86v-.08a1.17,1.17,0,0,0-.3-.86,1.13,1.13,0,0,0-.87-.31,1.17,1.17,0,0,0-.61.14,2.13,2.13,0,0,0-.4.33l-.57-.08.2-3.09h3Z"/>
    <path d="M301.8,35.34a1.6,1.6,0,0,1-1.47-.77,4.12,4.12,0,0,1-.46-2.14,4.12,4.12,0,0,1,.46-2.14,1.8,1.8,0,0,1,2.94,0,4.23,4.23,0,0,1,.46,2.14,4.23,4.23,0,0,1-.46,2.14A1.6,1.6,0,0,1,301.8,35.34Zm0-.6a1,1,0,0,0,.94-.52,1.72,1.72,0,0,0,.21-.59,3.38,3.38,0,0,0,.07-.74V32a3.38,3.38,0,0,0-.07-.74,1.72,1.72,0,0,0-.21-.59,1.06,1.06,0,0,0-.38-.38,1.08,1.08,0,0,0-.56-.14,1.15,1.15,0,0,0-.57.14,1,1,0,0,0-.37.38,2,2,0,0,0-.22.59,4.14,4.14,0,0,0-.07.74v.92a4.14,4.14,0,0,0,.07.74,2,2,0,0,0,.22.59,1,1,0,0,0,.37.38A1,1,0,0,0,301.8,34.74Z"/>
  </g>
  <g>
    <path d="M125.09,49.82V43.73h2.42a1.64,1.64,0,0,1,1.26.47,2.08,2.08,0,0,1,0,2.56,1.64,1.64,0,0,1-1.26.46h-1.69v2.6Zm.73-3.24h1.69a1,1,0,0,0,.68-.23.85.85,0,0,0,.24-.65v-.45a.83.83,0,0,0-.24-.64,1,1,0,0,0-.68-.23h-1.69Z"/>
    <path d="M130.22,49.82v-4.5h.69v.83H131a1.32,1.32,0,0,1,.43-.58,1.41,1.41,0,0,1,.87-.25h.27V46h-.41a1.6,1.6,0,0,0-.89.21.63.63,0,0,0-.32.54v3Z"/>
    <path d="M135.06,49.92a2,2,0,0,1-.83-.16,1.77,1.77,0,0,1-.64-.48,2.29,2.29,0,0,1-.41-.74,3.2,3.2,0,0,1-.14-1,3.29,3.29,0,0,1,.14-1,2.29,2.29,0,0,1,.41-.74,1.77,1.77,0,0,1,.64-.48,2,2,0,0,1,.83-.16,1.86,1.86,0,0,1,.81.16,1.64,1.64,0,0,1,.61.46,1.94,1.94,0,0,1,.39.69,2.75,2.75,0,0,1,.14.88v.33h-3.24V48a1.32,1.32,0,0,0,.1.53,1.23,1.23,0,0,0,.67.72,1.48,1.48,0,0,0,.57.1,1.3,1.3,0,0,0,.74-.2,1.33,1.33,0,0,0,.5-.57l.49.36a1.69,1.69,0,0,1-.68.75A2,2,0,0,1,135.06,49.92Zm0-4.12a1.27,1.27,0,0,0-.52.1,1.15,1.15,0,0,0-.4.28,1.21,1.21,0,0,0-.27.43,1.4,1.4,0,0,0-.1.54v.06h2.49v-.09a1.37,1.37,0,0,0-.33-1A1.12,1.12,0,0,0,135.06,45.8Z"/>
    <path d="M139.83,49.92a2.06,2.06,0,0,1-.84-.16,1.74,1.74,0,0,1-.63-.47,2,2,0,0,1-.4-.74,3.76,3.76,0,0,1,0-2,2,2,0,0,1,.4-.74,1.74,1.74,0,0,1,.63-.47,2.06,2.06,0,0,1,.84-.16,1.77,1.77,0,0,1,1.08.29,1.83,1.83,0,0,1,.61.76l-.59.3a1,1,0,0,0-.4-.54,1.2,1.2,0,0,0-.7-.19,1.35,1.35,0,0,0-.55.1,1.08,1.08,0,0,0-.39.28,1.14,1.14,0,0,0-.23.42,1.63,1.63,0,0,0-.08.55V48a1.45,1.45,0,0,0,.32,1,1.14,1.14,0,0,0,.93.37,1.26,1.26,0,0,0,1.22-.78l.51.34a1.84,1.84,0,0,1-.65.78A1.93,1.93,0,0,1,139.83,49.92Z"/>
    <path d="M142.89,44.27a.37.37,0,0,1-.42-.4v-.11a.37.37,0,0,1,.1-.28.38.38,0,0,1,.32-.11.41.41,0,0,1,.33.11.37.37,0,0,1,.1.28v.11a.41.41,0,0,1-.1.29A.45.45,0,0,1,142.89,44.27Zm-.35,1h.7v4.5h-.7Z"/>
    <path d="M144.72,45.32h.7v.73h0a1.16,1.16,0,0,1,.51-.63,1.46,1.46,0,0,1,.8-.2,1.73,1.73,0,0,1,.76.16,1.65,1.65,0,0,1,.58.47,2.33,2.33,0,0,1,.37.74,4.06,4.06,0,0,1,0,2,2.33,2.33,0,0,1-.37.74,1.65,1.65,0,0,1-.58.47,1.73,1.73,0,0,1-.76.16,1.34,1.34,0,0,1-1.31-.82h0v2.46h-.7Zm1.86,4a1.17,1.17,0,0,0,.93-.37,1.37,1.37,0,0,0,.34-1v-.78a1.37,1.37,0,0,0-.34-1,1.17,1.17,0,0,0-.93-.37,1.63,1.63,0,0,0-.45.06,1.41,1.41,0,0,0-.37.18,1,1,0,0,0-.25.28.69.69,0,0,0-.09.34v1.68a.87.87,0,0,0,.09.4.84.84,0,0,0,.25.28,1.16,1.16,0,0,0,.37.18A1.33,1.33,0,0,0,146.58,49.3Z"/>
    <path d="M150.13,44.27a.45.45,0,0,1-.33-.11.46.46,0,0,1-.1-.29v-.11a.43.43,0,1,1,.86,0v.11a.46.46,0,0,1-.1.29A.45.45,0,0,1,150.13,44.27Zm-.35,1h.7v4.5h-.7Z"/>
    <path d="M153,49.82a.74.74,0,0,1-.55-.2.81.81,0,0,1-.19-.54V45.94h-.74v-.62h.42a.43.43,0,0,0,.31-.09.46.46,0,0,0,.08-.32v-.84h.63v1.25h1v.62h-1V49.2h.92v.62Z"/>
    <path d="M158.29,49.82a.68.68,0,0,1-.56-.21,1,1,0,0,1-.22-.52h0a1.16,1.16,0,0,1-.49.63,1.83,1.83,0,0,1-1.92-.16,1.29,1.29,0,0,1-.4-1,1.13,1.13,0,0,1,.47-1,2.44,2.44,0,0,1,1.45-.34h.89V46.8a1,1,0,0,0-.26-.73,1.11,1.11,0,0,0-.8-.25,1.24,1.24,0,0,0-.69.18,1.67,1.67,0,0,0-.46.49l-.41-.39a1.51,1.51,0,0,1,.58-.63,1.85,1.85,0,0,1,1-.25,1.83,1.83,0,0,1,1.27.4,1.36,1.36,0,0,1,.46,1.11V49.2h.51v.62Zm-2-.49a1.75,1.75,0,0,0,.48-.06,1.33,1.33,0,0,0,.38-.17.87.87,0,0,0,.24-.27.57.57,0,0,0,.09-.32v-.74h-.92a1.63,1.63,0,0,0-.88.18.55.55,0,0,0-.27.5v.18a.59.59,0,0,0,.24.52A1,1,0,0,0,156.28,49.33Z"/>
    <path d="M161.35,45.22a1.77,1.77,0,0,1,1.08.29,1.7,1.7,0,0,1,.6.75l-.58.31a1.1,1.1,0,0,0-.4-.54,1.2,1.2,0,0,0-.7-.19,1.35,1.35,0,0,0-.55.1.91.91,0,0,0-.39.27,1.2,1.2,0,0,0-.24.43,1.85,1.85,0,0,0-.08.54V48a1.47,1.47,0,0,0,.32,1,1.17,1.17,0,0,0,.94.38,1.26,1.26,0,0,0,1.22-.79l.51.34a1.84,1.84,0,0,1-.59.73,1.7,1.7,0,0,1-1,.34l-.09.43,0,0a1,1,0,0,1,.34-.05.64.64,0,0,1,.42.14.53.53,0,0,1,.17.43.66.66,0,0,1-.07.32.69.69,0,0,1-.22.23,1,1,0,0,1-.31.13,1.42,1.42,0,0,1-.36,0,1.16,1.16,0,0,1-.57-.11,1.31,1.31,0,0,1-.3-.24l.33-.36a1.2,1.2,0,0,0,.21.17.67.67,0,0,0,.33.07.54.54,0,0,0,.27-.06.22.22,0,0,0,.11-.21.28.28,0,0,0-.11-.21,1.09,1.09,0,0,0-.48-.14l-.25,0,.12-.57a1.77,1.77,0,0,1-1.31-.72,2.74,2.74,0,0,1-.46-1.63,3.31,3.31,0,0,1,.14-1,2.18,2.18,0,0,1,.39-.74,1.74,1.74,0,0,1,.63-.47A2.11,2.11,0,0,1,161.35,45.22Z"/>
    <path d="M167.33,49.82a.68.68,0,0,1-.56-.21,1.07,1.07,0,0,1-.22-.52h0a1.16,1.16,0,0,1-.49.63,1.57,1.57,0,0,1-.81.2,1.61,1.61,0,0,1-1.11-.36,1.32,1.32,0,0,1-.4-1,1.13,1.13,0,0,1,.47-1,2.46,2.46,0,0,1,1.45-.34h.89V46.8a1,1,0,0,0-.26-.73,1.1,1.1,0,0,0-.8-.25,1.24,1.24,0,0,0-.69.18,1.52,1.52,0,0,0-.45.49l-.42-.39a1.51,1.51,0,0,1,.58-.63,2.21,2.21,0,0,1,2.29.15,1.39,1.39,0,0,1,.45,1.11V49.2h.51v.62Zm-1.17-5.34a.94.94,0,0,1-.39-.07l-.3-.15a1.74,1.74,0,0,0-.36-.16.63.63,0,0,0-.26-.05.58.58,0,0,0-.26.06l-.24.17-.29-.35a1.35,1.35,0,0,1,.32-.31.85.85,0,0,1,.51-.15.93.93,0,0,1,.39.08l.31.15a2.48,2.48,0,0,0,.35.16.91.91,0,0,0,.26,0,.55.55,0,0,0,.26-.06,1.15,1.15,0,0,0,.24-.18L167,44a1.39,1.39,0,0,1-.32.32A.83.83,0,0,1,166.16,44.48Zm-.83,4.85a1.73,1.73,0,0,0,.47-.06,1.21,1.21,0,0,0,.38-.17.87.87,0,0,0,.24-.27.57.57,0,0,0,.09-.32v-.74h-.92a1.65,1.65,0,0,0-.88.18.55.55,0,0,0-.27.5v.18a.62.62,0,0,0,.24.52A1,1,0,0,0,165.33,49.33Z"/>
    <path d="M170.42,49.92a2,2,0,0,1-.83-.16,1.77,1.77,0,0,1-.64-.48,2.14,2.14,0,0,1-.42-.74,2.91,2.91,0,0,1-.14-1,3,3,0,0,1,.14-1,2.14,2.14,0,0,1,.42-.74,1.77,1.77,0,0,1,.64-.48,2,2,0,0,1,.83-.16,2,2,0,0,1,.82.16,1.77,1.77,0,0,1,.64.48,2.14,2.14,0,0,1,.42.74,3,3,0,0,1,.15,1,2.91,2.91,0,0,1-.15,1,2.14,2.14,0,0,1-.42.74,1.77,1.77,0,0,1-.64.48A2,2,0,0,1,170.42,49.92Zm0-.62a1.28,1.28,0,0,0,.92-.34,1.44,1.44,0,0,0,.36-1.07v-.64a1.44,1.44,0,0,0-.36-1.07,1.43,1.43,0,0,0-1.85,0,1.44,1.44,0,0,0-.35,1.07v.64a1.44,1.44,0,0,0,.35,1.07A1.29,1.29,0,0,0,170.42,49.3Z"/>
    <path d="M175.64,47.1a6,6,0,0,1,.12-1.21,5.33,5.33,0,0,1,.34-1.09,5,5,0,0,1,.5-.91,3.87,3.87,0,0,1,.62-.7h.66a4.79,4.79,0,0,0-.66.75,5.1,5.1,0,0,0-.81,1.85,4,4,0,0,0-.12.94v.75a3.93,3.93,0,0,0,.12,1,4.71,4.71,0,0,0,.32,1,5.51,5.51,0,0,0,.5.89,4.18,4.18,0,0,0,.65.73h-.66a3.13,3.13,0,0,1-.61-.68,4.65,4.65,0,0,1-.5-.91,5.24,5.24,0,0,1-.34-1.1A5.43,5.43,0,0,1,175.64,47.1Z"/>
    <path d="M178.58,49.82v-4.5h.7v.73h0a1.74,1.74,0,0,1,.18-.33,1.2,1.2,0,0,1,.24-.26,1,1,0,0,1,.34-.18,1.53,1.53,0,0,1,.45-.06,1.64,1.64,0,0,1,.82.21,1.27,1.27,0,0,1,.56.69h0a1.32,1.32,0,0,1,.46-.63,1.39,1.39,0,0,1,.91-.27,1.35,1.35,0,0,1,1.07.45,1.86,1.86,0,0,1,.39,1.26v2.89h-.7V47.05a1.52,1.52,0,0,0-.23-.91.9.9,0,0,0-.75-.3,1.33,1.33,0,0,0-.4,0,.78.78,0,0,0-.33.16.75.75,0,0,0-.24.26.79.79,0,0,0-.09.38v3.13h-.69V47.05a1.45,1.45,0,0,0-.24-.91.87.87,0,0,0-.73-.3,1.29,1.29,0,0,0-.4,0,.82.82,0,0,0-.34.16.75.75,0,0,0-.24.26.79.79,0,0,0-.09.38v3.13Z"/>
    <path d="M186.25,49.82v-4.5h.69v.73h0a1.74,1.74,0,0,1,.18-.33,1,1,0,0,1,.24-.26,1,1,0,0,1,.34-.18,1.49,1.49,0,0,1,.45-.06,1.64,1.64,0,0,1,.82.21,1.27,1.27,0,0,1,.56.69h0a1.37,1.37,0,0,1,.45-.63,1.43,1.43,0,0,1,.91-.27,1.35,1.35,0,0,1,1.08.45,1.86,1.86,0,0,1,.39,1.26v2.89h-.7V47.05a1.52,1.52,0,0,0-.23-.91.9.9,0,0,0-.75-.3,1.33,1.33,0,0,0-.4,0,.89.89,0,0,0-.34.16.83.83,0,0,0-.23.26.79.79,0,0,0-.09.38v3.13H189V47.05a1.46,1.46,0,0,0-.23-.91.87.87,0,0,0-.73-.3,1.29,1.29,0,0,0-.4,0,.86.86,0,0,0-.35.16.83.83,0,0,0-.23.26.7.7,0,0,0-.1.38v3.13Z"/>
    <path d="M195.31,47.1a6.08,6.08,0,0,1-.12,1.22,6.75,6.75,0,0,1-.34,1.1,5.23,5.23,0,0,1-.5.91,3.75,3.75,0,0,1-.61.68h-.67a3.81,3.81,0,0,0,.65-.73,4.84,4.84,0,0,0,.5-.89,5.44,5.44,0,0,0,.33-1,4.47,4.47,0,0,0,.11-1v-.75a4.53,4.53,0,0,0-.11-.94,7.2,7.2,0,0,0-.32-1,5.2,5.2,0,0,0-.5-.89,3.94,3.94,0,0,0-.66-.75h.67a3.83,3.83,0,0,1,.61.7,5,5,0,0,1,.51.91,6,6,0,0,1,.45,2.3Z"/>
  </g>
  <g>
    <g>
      <path d="M166,23.58h5.47a2,2,0,0,0,2.11-2V10.68a2,2,0,0,0-2.11-2H166a2,2,0,0,0-2.11,2V21.61A2,2,0,0,0,166,23.58Z" style="fill: #fff"/>
      <path d="M171.45,23.83H166a2.29,2.29,0,0,1-2.36-2.22V10.68A2.3,2.3,0,0,1,166,8.46h5.47a2.3,2.3,0,0,1,2.36,2.22V21.61A2.29,2.29,0,0,1,171.45,23.83ZM166,9a1.8,1.8,0,0,0-1.86,1.72V21.61A1.8,1.8,0,0,0,166,23.33h5.47a1.8,1.8,0,0,0,1.86-1.72V10.68A1.8,1.8,0,0,0,171.45,9Z" style="fill: #939393"/>
    </g>
    <path d="M46.38,23.58h5.46a2,2,0,0,0,2.11-2V10.68a2,2,0,0,0-2.11-2H46.38a2,2,0,0,0-2.11,2V21.61A2,2,0,0,0,46.38,23.58Z" style="fill: #eb2b20"/>
    <path d="M29.29,23.58h5.47a2,2,0,0,0,2.11-2V10.68a2,2,0,0,0-2.11-2H29.29a2,2,0,0,0-2.11,2V21.61A2,2,0,0,0,29.29,23.58Z" style="fill: #d6111f"/>
    <path d="M12.2,23.58h5.47a2,2,0,0,0,2.11-2V10.68a2,2,0,0,0-2.11-2H12.2a2,2,0,0,0-2.11,2V21.61A2,2,0,0,0,12.2,23.58Z" style="fill: #bd0026"/>
    <path d="M268.58,23.58h5.47a2,2,0,0,0,2.11-2V10.68a2,2,0,0,0-2.11-2h-5.47a2,2,0,0,0-2.11,2V21.61A2.05,2.05,0,0,0,268.58,23.58Z" style="fill: #0868ac"/>
    <path d="M285.66,23.58h5.47a2,2,0,0,0,2.11-2V10.68a2,2,0,0,0-2.11-2h-5.47a2,2,0,0,0-2.11,2V21.61A2,2,0,0,0,285.66,23.58Z" style="fill: #001476"/>
    <path d="M302.74,23.58h5.46a2,2,0,0,0,2.11-2V10.68a2,2,0,0,0-2.11-2h-5.46a2,2,0,0,0-2.11,2V21.61A2,2,0,0,0,302.74,23.58Z" style="fill: #081d58"/>
    <path d="M251.5,23.58H257a2,2,0,0,0,2.11-2V10.68a2,2,0,0,0-2.11-2H251.5a2,2,0,0,0-2.11,2V21.61A2,2,0,0,0,251.5,23.58Z" style="fill: #2b8cbe"/>
    <path d="M234.41,23.58h5.46a2,2,0,0,0,2.11-2V10.68a2,2,0,0,0-2.11-2h-5.46a2,2,0,0,0-2.11,2V21.61A2,2,0,0,0,234.41,23.58Z" style="fill: #7bccc4"/>
    <path d="M217.33,23.58h5.46a2,2,0,0,0,2.11-2V10.68a2,2,0,0,0-2.11-2h-5.46a2,2,0,0,0-2.11,2V21.61A2,2,0,0,0,217.33,23.58Z" style="fill: #a8ddb5"/>
    <path d="M200.24,23.58h5.47a2,2,0,0,0,2.1-2V10.68a2,2,0,0,0-2.1-2h-5.47a2,2,0,0,0-2.11,2V21.61A2,2,0,0,0,200.24,23.58Z" style="fill: #ccebc5"/>
    <path d="M183.15,23.58h5.47a2,2,0,0,0,2.11-2V10.68a2,2,0,0,0-2.11-2h-5.47a2,2,0,0,0-2.11,2V21.61A2,2,0,0,0,183.15,23.58Z" style="fill: #e0f3db"/>
    <g>
      <path d="M148.89,23.58h5.47a2,2,0,0,0,2.11-2V10.68a2,2,0,0,0-2.11-2h-5.47a2,2,0,0,0-2.11,2V21.61A2.05,2.05,0,0,0,148.89,23.58Z" style="fill: #fff"/>
      <path d="M154.36,23.83h-5.47a2.29,2.29,0,0,1-2.36-2.22V10.68a2.3,2.3,0,0,1,2.36-2.22h5.47a2.3,2.3,0,0,1,2.36,2.22V21.61A2.29,2.29,0,0,1,154.36,23.83ZM148.89,9A1.8,1.8,0,0,0,147,10.68V21.61a1.8,1.8,0,0,0,1.86,1.72h5.47a1.8,1.8,0,0,0,1.86-1.72V10.68A1.8,1.8,0,0,0,154.36,9Z" style="fill: #939393"/>
    </g>
    <path d="M131.81,23.58h5.47a2,2,0,0,0,2.11-2V10.68a2,2,0,0,0-2.11-2h-5.47a2,2,0,0,0-2.11,2V21.61A2,2,0,0,0,131.81,23.58Z" style="fill: #ffc"/>
    <path d="M114.72,23.58h5.47a2,2,0,0,0,2.11-2V10.68a2,2,0,0,0-2.11-2h-5.47a2,2,0,0,0-2.11,2V21.61A2.05,2.05,0,0,0,114.72,23.58Z" style="fill: #ffeda0"/>
    <path d="M97.63,23.58h5.47a2,2,0,0,0,2.11-2V10.68a2,2,0,0,0-2.11-2H97.63a2,2,0,0,0-2.1,2V21.61A2,2,0,0,0,97.63,23.58Z" style="fill: #fed976"/>
    <path d="M80.55,23.58H86a2,2,0,0,0,2.11-2V10.68a2,2,0,0,0-2.11-2H80.55a2,2,0,0,0-2.1,2V21.61A2,2,0,0,0,80.55,23.58Z" style="fill: #feb24c"/>
    <path d="M63.47,23.58h5.46a2,2,0,0,0,2.11-2V10.68a2,2,0,0,0-2.11-2H63.47a2,2,0,0,0-2.11,2V21.61A2,2,0,0,0,63.47,23.58Z" style="fill: #fc4e2a"/>
  </g>
</svg>
