<svg id="Camada_1" data-name="Camada 1" xmlns="http://www.w3.org/2000/svg" viewBox="0 0 320.4 57.45"><defs><style>.cls-1{opacity:0.75;}.cls-2{fill:#fff;}.cls-3{fill:#939393;}.cls-4{fill:#eb2b20;}.cls-5{fill:#d6111f;}.cls-6{fill:#bd0026;}.cls-7{fill:#0868ac;}.cls-8{fill:#001476;}.cls-9{fill:#081d58;}.cls-10{fill:#2b8cbe;}.cls-11{fill:#7bccc4;}.cls-12{fill:#a8ddb5;}.cls-13{fill:#ccebc5;}.cls-14{fill:#e0f3db;}.cls-15{fill:#ffc;}.cls-16{fill:#ffeda0;}.cls-17{fill:#fed976;}.cls-18{fill:#feb24c;}.cls-19{fill:#fc4e2a;}</style></defs><title>LEGENDAS - ESCALA</title><g class="cls-1"><path class="cls-2" d="M0,6.38C0,2.86,3.19,0,7.12,0H313.28c3.94,0,7.12,2.86,7.12,6.38V51.07c0,3.52-3.18,6.38-7.12,6.38H7.12C3.19,57.45,0,54.59,0,51.07Z"/></g><path class="cls-2" d="M154.42,23.58H149a2,2,0,0,1-2.11-2V10.68a2,2,0,0,1,2.11-2h5.46a2,2,0,0,1,2.11,2V21.61A2,2,0,0,1,154.42,23.58Z"/><path class="cls-3" d="M154.42,23.83H149a2.29,2.29,0,0,1-2.36-2.22V10.68A2.29,2.29,0,0,1,149,8.46h5.46a2.3,2.3,0,0,1,2.36,2.22V21.61A2.29,2.29,0,0,1,154.42,23.83ZM149,9a1.79,1.79,0,0,0-1.86,1.72V21.61A1.79,1.79,0,0,0,149,23.33h5.46a1.79,1.79,0,0,0,1.86-1.72V10.68A1.79,1.79,0,0,0,154.42,9Z"/><path class="cls-4" d="M274,23.58h-5.47a2,2,0,0,1-2.11-2V10.68a2,2,0,0,1,2.11-2H274a2,2,0,0,1,2.11,2V21.61A2.05,2.05,0,0,1,274,23.58Z"/><path class="cls-5" d="M291.11,23.58h-5.46a2,2,0,0,1-2.11-2V10.68a2,2,0,0,1,2.11-2h5.46a2,2,0,0,1,2.11,2V21.61A2,2,0,0,1,291.11,23.58Z"/><path class="cls-6" d="M308.2,23.58h-5.46a2,2,0,0,1-2.11-2V10.68a2,2,0,0,1,2.11-2h5.46a2,2,0,0,1,2.11,2V21.61A2,2,0,0,1,308.2,23.58Z"/><path class="cls-7" d="M51.82,23.58H46.35a2,2,0,0,1-2.11-2V10.68a2,2,0,0,1,2.11-2h5.47a2,2,0,0,1,2.11,2V21.61A2,2,0,0,1,51.82,23.58Z"/><path class="cls-8" d="M34.74,23.58H29.28a2,2,0,0,1-2.11-2V10.68a2,2,0,0,1,2.11-2h5.46a2,2,0,0,1,2.11,2V21.61A2,2,0,0,1,34.74,23.58Z"/><path class="cls-9" d="M17.67,23.58H12.2a2,2,0,0,1-2.11-2V10.68a2,2,0,0,1,2.11-2h5.47a2,2,0,0,1,2.11,2V21.61A2,2,0,0,1,17.67,23.58Z"/><path class="cls-10" d="M68.91,23.58H63.44a2,2,0,0,1-2.11-2V10.68a2,2,0,0,1,2.11-2h5.47a2,2,0,0,1,2.11,2V21.61A2.05,2.05,0,0,1,68.91,23.58Z"/><path class="cls-11" d="M86,23.58H80.53a2,2,0,0,1-2.11-2V10.68a2,2,0,0,1,2.11-2H86a2,2,0,0,1,2.11,2V21.61A2.05,2.05,0,0,1,86,23.58Z"/><path class="cls-12" d="M103.08,23.58H97.61a2,2,0,0,1-2.11-2V10.68a2,2,0,0,1,2.11-2h5.47a2,2,0,0,1,2.11,2V21.61A2.05,2.05,0,0,1,103.08,23.58Z"/><path class="cls-13" d="M120.17,23.58H114.7a2,2,0,0,1-2.11-2V10.68a2,2,0,0,1,2.11-2h5.47a2,2,0,0,1,2.1,2V21.61A2,2,0,0,1,120.17,23.58Z"/><path class="cls-14" d="M137.25,23.58h-5.46a2,2,0,0,1-2.11-2V10.68a2,2,0,0,1,2.11-2h5.46a2,2,0,0,1,2.11,2V21.61A2,2,0,0,1,137.25,23.58Z"/><path class="cls-2" d="M171.51,23.58H166a2,2,0,0,1-2.11-2V10.68a2,2,0,0,1,2.11-2h5.47a2,2,0,0,1,2.11,2V21.61A2,2,0,0,1,171.51,23.58Z"/><path class="cls-3" d="M171.51,23.83H166a2.29,2.29,0,0,1-2.36-2.22V10.68A2.3,2.3,0,0,1,166,8.46h5.47a2.3,2.3,0,0,1,2.36,2.22V21.61A2.29,2.29,0,0,1,171.51,23.83ZM166,9a1.8,1.8,0,0,0-1.86,1.72V21.61A1.8,1.8,0,0,0,166,23.33h5.47a1.79,1.79,0,0,0,1.86-1.72V10.68A1.79,1.79,0,0,0,171.51,9Z"/><path class="cls-15" d="M188.59,23.58h-5.47a2,2,0,0,1-2.1-2V10.68a2,2,0,0,1,2.1-2h5.47a2,2,0,0,1,2.11,2V21.61A2,2,0,0,1,188.59,23.58Z"/><path class="cls-16" d="M205.68,23.58h-5.47a2,2,0,0,1-2.11-2V10.68a2,2,0,0,1,2.11-2h5.47a2,2,0,0,1,2.11,2V21.61A2,2,0,0,1,205.68,23.58Z"/><path class="cls-17" d="M222.77,23.58H217.3a2,2,0,0,1-2.11-2V10.68a2,2,0,0,1,2.11-2h5.47a2,2,0,0,1,2.11,2V21.61A2.05,2.05,0,0,1,222.77,23.58Z"/><path class="cls-18" d="M239.85,23.58h-5.47a2,2,0,0,1-2.11-2V10.68a2,2,0,0,1,2.11-2h5.47a2,2,0,0,1,2.11,2V21.61A2,2,0,0,1,239.85,23.58Z"/><path class="cls-19" d="M256.94,23.58h-5.47a2,2,0,0,1-2.11-2V10.68a2,2,0,0,1,2.11-2h5.47a2,2,0,0,1,2.11,2V21.61A2.05,2.05,0,0,1,256.94,23.58Z"/><path d="M50.71,33.78V33h2.48v.81Z"/><path d="M54.68,36.26v-.7h1.85V30.22h-.06l-1.68,1.56-.46-.5,1.76-1.65h1.24v5.93H59v.7Z"/><path d="M64.61,36.26H60.26v-.81l2.16-2a4.71,4.71,0,0,0,.78-.91,1.74,1.74,0,0,0,.31-1v-.11a1.32,1.32,0,0,0-.3-.9,1.19,1.19,0,0,0-.92-.34,1.44,1.44,0,0,0-.53.09,1.05,1.05,0,0,0-.4.23,1.22,1.22,0,0,0-.27.36,2.14,2.14,0,0,0-.18.44l-.71-.27a2.72,2.72,0,0,1,.26-.58,1.79,1.79,0,0,1,.42-.49,1.91,1.91,0,0,1,.61-.35,2.32,2.32,0,0,1,.84-.13,2.54,2.54,0,0,1,.86.14,1.88,1.88,0,0,1,.64.4,1.68,1.68,0,0,1,.39.61,2.13,2.13,0,0,1,.14.78,2.41,2.41,0,0,1-.11.72,2.6,2.6,0,0,1-.3.63,4,4,0,0,1-.46.58c-.18.19-.38.38-.58.57l-1.79,1.61h3.49Z"/><path d="M16.56,33.78V33H19v.81Z"/><path d="M20.53,36.26v-.7h1.85V30.22h-.07l-1.67,1.56-.46-.5,1.75-1.65h1.25v5.93h1.71v.7Z"/><path d="M28.25,36.38a2.34,2.34,0,0,1-.93-.18,2,2,0,0,1-.7-.5,2.25,2.25,0,0,1-.44-.81A3.48,3.48,0,0,1,26,33.83a4.22,4.22,0,0,1,.22-1.39,5.2,5.2,0,0,1,.56-1.19,5.6,5.6,0,0,1,.77-.95,5.21,5.21,0,0,1,.81-.67h1a11.69,11.69,0,0,0-1,.76,5.82,5.82,0,0,0-.73.77,4.53,4.53,0,0,0-.53.86,5.08,5.08,0,0,0-.36,1l0,0a2.21,2.21,0,0,1,.61-.68,1.66,1.66,0,0,1,1-.27,2.26,2.26,0,0,1,.79.14,1.87,1.87,0,0,1,.61.41,2.06,2.06,0,0,1,.41.65,2.3,2.3,0,0,1,.14.85,2.56,2.56,0,0,1-.15.89,2.06,2.06,0,0,1-.45.69,1.9,1.9,0,0,1-.7.46A2.57,2.57,0,0,1,28.25,36.38Zm0-.71a1.38,1.38,0,0,0,1-.36,1.35,1.35,0,0,0,.37-1V34.2a1.35,1.35,0,0,0-.37-1,1.39,1.39,0,0,0-2.41,1v.08a1.27,1.27,0,0,0,1.39,1.39Z"/><path d="M87.69,33.78V33h2.48v.81Z"/><path d="M93.68,36.38a3,3,0,0,1-1-.15,2.28,2.28,0,0,1-.72-.4,1.7,1.7,0,0,1-.43-.61,1.94,1.94,0,0,1-.15-.76,1.53,1.53,0,0,1,.37-1.09,2.08,2.08,0,0,1,1-.56v-.07a1.69,1.69,0,0,1-.83-.59,1.52,1.52,0,0,1-.31-1A1.47,1.47,0,0,1,92.13,30a2.89,2.89,0,0,1,3.1,0,1.5,1.5,0,0,1,.55,1.21,1.58,1.58,0,0,1-.31,1,1.74,1.74,0,0,1-.83.59v.07a2.08,2.08,0,0,1,1,.56A1.58,1.58,0,0,1,96,34.46a1.94,1.94,0,0,1-.15.76,1.73,1.73,0,0,1-.44.61,2.12,2.12,0,0,1-.71.4A3,3,0,0,1,93.68,36.38Zm0-.71a1.68,1.68,0,0,0,1.07-.3,1.09,1.09,0,0,0,.38-.88v-.2a1.05,1.05,0,0,0-.38-.87,1.63,1.63,0,0,0-1.07-.31,1.67,1.67,0,0,0-1.08.31,1.05,1.05,0,0,0-.38.87v.2a1.09,1.09,0,0,0,.38.88A1.73,1.73,0,0,0,93.68,35.67Zm0-3.23a1.45,1.45,0,0,0,.95-.26A1,1,0,0,0,95,31.4v-.14a.94.94,0,0,0-.32-.77,1.45,1.45,0,0,0-.95-.27,1.44,1.44,0,0,0-1,.27.92.92,0,0,0-.33.77v.14a1,1,0,0,0,.33.78A1.44,1.44,0,0,0,93.68,32.44Z"/><path d="M121.79,33.78V33h2.48v.81Z"/><path d="M128.49,36.26V35h-3.2v-.7l2.77-4.63h1.19V34.3h1V35h-1v1.3Zm-2.45-2h2.45v-4h-.05Z"/><path d="M160.2,36.38a1.86,1.86,0,0,1-1.73-.91,4.81,4.81,0,0,1-.55-2.52,4.82,4.82,0,0,1,.55-2.53,1.87,1.87,0,0,1,1.73-.9,1.9,1.9,0,0,1,1.74.9,4.93,4.93,0,0,1,.54,2.53,4.91,4.91,0,0,1-.54,2.52A1.88,1.88,0,0,1,160.2,36.38Zm0-.71a1.3,1.3,0,0,0,.67-.16,1.27,1.27,0,0,0,.44-.45,2.36,2.36,0,0,0,.26-.69,4.79,4.79,0,0,0,.08-.88V32.41a4.71,4.71,0,0,0-.08-.88,2.16,2.16,0,0,0-.26-.69,1.22,1.22,0,0,0-.44-.46,1.3,1.3,0,0,0-.67-.16,1.24,1.24,0,0,0-.66.16,1.17,1.17,0,0,0-.45.46,2.15,2.15,0,0,0-.25.69,4,4,0,0,0-.08.88v1.08a4.06,4.06,0,0,0,.08.88,2.35,2.35,0,0,0,.25.69,1.21,1.21,0,0,0,.45.45A1.24,1.24,0,0,0,160.2,35.67Z"/><path d="M195.17,36.26V35H192v-.7l2.77-4.63h1.19V34.3h1V35h-1v1.3Zm-2.45-2h2.45v-4h0Z"/><path d="M228.61,36.38a3,3,0,0,1-1-.15,2.08,2.08,0,0,1-.72-.4,1.86,1.86,0,0,1-.44-.61,2.14,2.14,0,0,1-.14-.76,1.53,1.53,0,0,1,.37-1.09,2.08,2.08,0,0,1,1-.56v-.07a1.69,1.69,0,0,1-.83-.59,1.52,1.52,0,0,1-.31-1,1.47,1.47,0,0,1,.55-1.21,2.39,2.39,0,0,1,1.55-.45,2.36,2.36,0,0,1,1.54.45,1.48,1.48,0,0,1,.56,1.21,1.58,1.58,0,0,1-.31,1,1.79,1.79,0,0,1-.83.59v.07a2,2,0,0,1,1,.56,1.54,1.54,0,0,1,.38,1.09,1.94,1.94,0,0,1-.15.76,1.86,1.86,0,0,1-.44.61,2.08,2.08,0,0,1-.72.4A3,3,0,0,1,228.61,36.38Zm0-.71a1.68,1.68,0,0,0,1.07-.3,1.09,1.09,0,0,0,.38-.88v-.2a1.05,1.05,0,0,0-.38-.87,1.63,1.63,0,0,0-1.07-.31,1.65,1.65,0,0,0-1.08.31,1.05,1.05,0,0,0-.38.87v.2a1.09,1.09,0,0,0,.38.88A1.71,1.71,0,0,0,228.61,35.67Zm0-3.23a1.47,1.47,0,0,0,.95-.26,1,1,0,0,0,.32-.78v-.14a.94.94,0,0,0-.32-.77,1.47,1.47,0,0,0-.95-.27,1.44,1.44,0,0,0-1,.27.92.92,0,0,0-.33.77v.14a1,1,0,0,0,.33.78A1.44,1.44,0,0,0,228.61,32.44Z"/><path d="M258,36.26v-.7h1.85V30.22h-.07l-1.67,1.56-.46-.5,1.75-1.65h1.25v5.93h1.71v.7Z"/><path d="M267.92,36.26h-4.36v-.81l2.17-2a4.71,4.71,0,0,0,.78-.91,1.74,1.74,0,0,0,.31-1v-.11a1.32,1.32,0,0,0-.3-.9,1.19,1.19,0,0,0-.92-.34,1.4,1.4,0,0,0-.53.09,1.05,1.05,0,0,0-.4.23,1.22,1.22,0,0,0-.27.36,1.7,1.7,0,0,0-.18.44l-.71-.27a2.72,2.72,0,0,1,.26-.58,1.79,1.79,0,0,1,.42-.49,1.86,1.86,0,0,1,.6-.35,2.39,2.39,0,0,1,.84-.13,2.56,2.56,0,0,1,.87.14,2,2,0,0,1,.64.4,1.68,1.68,0,0,1,.39.61,2.13,2.13,0,0,1,.14.78,2.41,2.41,0,0,1-.11.72,2.6,2.6,0,0,1-.3.63,4,4,0,0,1-.46.58c-.18.19-.38.38-.59.57l-1.78,1.61h3.49Z"/><path d="M292.16,36.26v-.7H294V30.22H294l-1.67,1.56-.47-.5,1.76-1.65h1.24v5.93h1.71v.7Z"/><path d="M299.89,36.38a2.34,2.34,0,0,1-.93-.18,2,2,0,0,1-.7-.5,2.25,2.25,0,0,1-.44-.81,3.48,3.48,0,0,1-.15-1.06,4.5,4.5,0,0,1,.21-1.39,5.69,5.69,0,0,1,.57-1.19,6.09,6.09,0,0,1,.76-.95,5.76,5.76,0,0,1,.82-.67h1a11.69,11.69,0,0,0-.95.76,5.23,5.23,0,0,0-.73.77,5.16,5.16,0,0,0-.54.86,5.76,5.76,0,0,0-.35,1l.05,0a2.21,2.21,0,0,1,.61-.68,1.66,1.66,0,0,1,1-.27,2.21,2.21,0,0,1,.78.14,1.92,1.92,0,0,1,.62.41,1.87,1.87,0,0,1,.4.65,2.3,2.3,0,0,1,.15.85,2.56,2.56,0,0,1-.15.89,2.06,2.06,0,0,1-.45.69,2,2,0,0,1-.7.46A2.57,2.57,0,0,1,299.89,36.38Zm0-.71a1.27,1.27,0,0,0,1.39-1.39V34.2a1.44,1.44,0,0,0-2.41-1,1.35,1.35,0,0,0-.37,1v.08a1.35,1.35,0,0,0,.37,1A1.38,1.38,0,0,0,299.88,35.67Z"/><path d="M111.6,50.35V43.72h2.64a1.81,1.81,0,0,1,1.38.5,2.31,2.31,0,0,1,0,2.79,1.82,1.82,0,0,1-1.38.51H112.4v2.83Zm.8-3.54h1.84a1.06,1.06,0,0,0,.74-.24,1,1,0,0,0,.26-.71v-.49a.91.91,0,0,0-.26-.7,1,1,0,0,0-.74-.25H112.4Z"/><path d="M117.19,50.35V45.44H118v.91h0a1.44,1.44,0,0,1,.48-.63,1.48,1.48,0,0,1,.94-.28h.29v.76h-.44a1.72,1.72,0,0,0-1,.24A.67.67,0,0,0,118,47v3.33Z"/><path d="M122.47,50.46a2.21,2.21,0,0,1-.91-.18,1.86,1.86,0,0,1-.69-.52,2.49,2.49,0,0,1-.45-.8,3.54,3.54,0,0,1-.16-1.07,3.5,3.5,0,0,1,.16-1,2.43,2.43,0,0,1,.45-.81,1.86,1.86,0,0,1,.69-.52,2.21,2.21,0,0,1,.91-.18A2,2,0,0,1,124,46a2.28,2.28,0,0,1,.42.75,2.93,2.93,0,0,1,.15,1v.36h-3.53v.22a1.87,1.87,0,0,0,.1.59,1.42,1.42,0,0,0,.29.47,1.21,1.21,0,0,0,.45.31,1.48,1.48,0,0,0,2-.73l.54.39a2,2,0,0,1-.74.82A2.23,2.23,0,0,1,122.47,50.46Zm0-4.49a1.32,1.32,0,0,0-.57.11,1.23,1.23,0,0,0-.44.3,1.33,1.33,0,0,0-.29.47,1.63,1.63,0,0,0-.11.59v.07h2.71V47.4a1.48,1.48,0,0,0-.36-1A1.2,1.2,0,0,0,122.47,46Z"/><path d="M127.31,50.46a2.34,2.34,0,0,1-1.14-.26,2.51,2.51,0,0,1-.79-.7l.54-.44a2.19,2.19,0,0,0,.63.56,1.68,1.68,0,0,0,.82.19,1.29,1.29,0,0,0,.76-.2.76.76,0,0,0,.08-1.08,1.1,1.1,0,0,0-.67-.28l-.39-.06a2.81,2.81,0,0,1-.62-.15,1.48,1.48,0,0,1-.5-.26,1.07,1.07,0,0,1-.34-.42,1.32,1.32,0,0,1-.12-.59,1.39,1.39,0,0,1,.14-.63,1.33,1.33,0,0,1,.36-.45,1.62,1.62,0,0,1,.56-.27,2.56,2.56,0,0,1,.69-.09,2.19,2.19,0,0,1,1,.21,2.26,2.26,0,0,1,.7.58l-.5.45a1.66,1.66,0,0,0-.48-.41,1.53,1.53,0,0,0-.78-.18,1.12,1.12,0,0,0-.72.2.7.7,0,0,0-.24.56.58.58,0,0,0,.24.52,1.73,1.73,0,0,0,.7.24l.38,0a2.13,2.13,0,0,1,1.16.47,1.3,1.3,0,0,1,.34.91,1.36,1.36,0,0,1-.49,1.12A2,2,0,0,1,127.31,50.46Z"/><path d="M131.88,50.46a2.34,2.34,0,0,1-1.14-.26,2.51,2.51,0,0,1-.79-.7l.54-.44a2.19,2.19,0,0,0,.63.56,1.68,1.68,0,0,0,.82.19,1.32,1.32,0,0,0,.76-.2.76.76,0,0,0,.08-1.08,1.1,1.1,0,0,0-.67-.28l-.39-.06a2.91,2.91,0,0,1-.63-.15,1.53,1.53,0,0,1-.49-.26,1.07,1.07,0,0,1-.34-.42,1.32,1.32,0,0,1-.12-.59,1.39,1.39,0,0,1,.14-.63,1.33,1.33,0,0,1,.36-.45,1.62,1.62,0,0,1,.56-.27,2.56,2.56,0,0,1,.69-.09,2.19,2.19,0,0,1,1,.21,2.26,2.26,0,0,1,.7.58l-.5.45a1.66,1.66,0,0,0-.48-.41,1.53,1.53,0,0,0-.78-.18,1.12,1.12,0,0,0-.72.2.7.7,0,0,0-.24.56.58.58,0,0,0,.24.52,1.73,1.73,0,0,0,.7.24l.38,0a2.13,2.13,0,0,1,1.16.47,1.3,1.3,0,0,1,.34.91,1.36,1.36,0,0,1-.49,1.12A2,2,0,0,1,131.88,50.46Z"/><path d="M138.6,50.35a.74.74,0,0,1-.61-.23,1.14,1.14,0,0,1-.24-.57h0a1.28,1.28,0,0,1-.54.68,1.65,1.65,0,0,1-.88.23,1.7,1.7,0,0,1-1.21-.4,1.39,1.39,0,0,1-.43-1.08,1.25,1.25,0,0,1,.51-1.07,2.72,2.72,0,0,1,1.58-.37h1v-.48a1.07,1.07,0,0,0-.29-.8,1.23,1.23,0,0,0-.87-.27,1.27,1.27,0,0,0-.75.2,1.7,1.7,0,0,0-.5.53l-.45-.43a1.7,1.7,0,0,1,.63-.68,2.36,2.36,0,0,1,2.49.16,1.52,1.52,0,0,1,.5,1.21v2.69H139v.68Zm-1.27-5.82a1.1,1.1,0,0,1-.43-.08l-.33-.16a1.81,1.81,0,0,0-.39-.18.76.76,0,0,0-.28,0,.61.61,0,0,0-.28.06,1.93,1.93,0,0,0-.27.19l-.31-.38a1.42,1.42,0,0,1,.35-.34.88.88,0,0,1,.55-.16,1,1,0,0,1,.43.09l.33.16a2.26,2.26,0,0,0,.38.17.83.83,0,0,0,.28.06.65.65,0,0,0,.29-.07,1.7,1.7,0,0,0,.27-.19l.31.38a1.66,1.66,0,0,1-.35.35A1,1,0,0,1,137.33,44.53Zm-.92,5.28a2.2,2.2,0,0,0,.53-.06,1.55,1.55,0,0,0,.41-.19.89.89,0,0,0,.26-.29.6.6,0,0,0,.1-.35v-.81h-1a1.92,1.92,0,0,0-1,.19.63.63,0,0,0-.29.55v.2a.66.66,0,0,0,.26.57A1.14,1.14,0,0,0,136.41,49.81Z"/><path d="M142,50.46a2.19,2.19,0,0,1-.9-.18,1.89,1.89,0,0,1-.7-.52,2.49,2.49,0,0,1-.45-.8,3.25,3.25,0,0,1-.16-1.07,3.21,3.21,0,0,1,.16-1,2.43,2.43,0,0,1,.45-.81,1.89,1.89,0,0,1,.7-.52,2.34,2.34,0,0,1,1.8,0,2,2,0,0,1,.7.52,2.27,2.27,0,0,1,.45.81,3.21,3.21,0,0,1,.17,1A3.25,3.25,0,0,1,144,49a2.31,2.31,0,0,1-.45.8,2,2,0,0,1-.7.52A2.19,2.19,0,0,1,142,50.46Zm0-.67a1.41,1.41,0,0,0,1-.38,1.56,1.56,0,0,0,.39-1.16v-.71a1.56,1.56,0,0,0-.39-1.16,1.4,1.4,0,0,0-1-.37,1.37,1.37,0,0,0-1,.37,1.56,1.56,0,0,0-.39,1.16v.71a1.56,1.56,0,0,0,.39,1.16A1.38,1.38,0,0,0,142,49.79Z"/><path d="M151.23,50.35a.75.75,0,0,1-.61-.23,1.13,1.13,0,0,1-.23-.57h0a1.26,1.26,0,0,1-.53.68,1.67,1.67,0,0,1-.88.23,1.73,1.73,0,0,1-1.22-.4,1.42,1.42,0,0,1-.43-1.08,1.25,1.25,0,0,1,.51-1.07,2.77,2.77,0,0,1,1.58-.37h1v-.48a1.07,1.07,0,0,0-.28-.8,1.52,1.52,0,0,0-1.62-.07,1.59,1.59,0,0,0-.5.53l-.46-.43a1.73,1.73,0,0,1,.64-.68,2,2,0,0,1,1.1-.28,2,2,0,0,1,1.39.44A1.52,1.52,0,0,1,151.1,47v2.69h.56v.68Zm-2.18-.54a2.12,2.12,0,0,0,.52-.06,1.42,1.42,0,0,0,.41-.19,1.06,1.06,0,0,0,.27-.29.68.68,0,0,0,.09-.35v-.81h-1a1.91,1.91,0,0,0-1,.19.62.62,0,0,0-.3.55v.2a.69.69,0,0,0,.26.57A1.17,1.17,0,0,0,149.05,49.81Z"/><path d="M154.6,50.46a2.27,2.27,0,0,1-.91-.18,1.86,1.86,0,0,1-.69-.52,2.33,2.33,0,0,1-.46-.8,3.54,3.54,0,0,1-.16-1.07,3.5,3.5,0,0,1,.16-1A2.29,2.29,0,0,1,153,46a1.86,1.86,0,0,1,.69-.52,2.27,2.27,0,0,1,.91-.18,2.11,2.11,0,0,1,.89.18,1.89,1.89,0,0,1,.7.52,2.29,2.29,0,0,1,.46.81,3.21,3.21,0,0,1,.16,1,3.25,3.25,0,0,1-.16,1.07,2.33,2.33,0,0,1-.46.8,1.89,1.89,0,0,1-.7.52A2.11,2.11,0,0,1,154.6,50.46Zm0-.67a1.38,1.38,0,0,0,1-.38,1.56,1.56,0,0,0,.39-1.16v-.71a1.56,1.56,0,0,0-.39-1.16,1.55,1.55,0,0,0-2,0,1.56,1.56,0,0,0-.39,1.16v.71a1.56,1.56,0,0,0,.39,1.16A1.39,1.39,0,0,0,154.6,49.79Z"/><path d="M162,46.3l-.8-1.47h0v5.52h-.78V43.72h.92l2.43,4,.79,1.47h0V43.72h.78v6.63h-.92Z"/><path d="M167.48,44.79l-.5-.23.81-1.61.7.33ZM167,50.35V45.44h.76v4.91Z"/><path d="M170.48,50.35l-1.72-4.91h.76l.86,2.44.53,1.67H171l.53-1.67.87-2.44h.73l-1.73,4.91Z"/><path d="M175.84,50.46a2.21,2.21,0,0,1-.91-.18,1.86,1.86,0,0,1-.69-.52,2.16,2.16,0,0,1-.45-.8,3.54,3.54,0,0,1-.16-1.07,3.5,3.5,0,0,1,.16-1,2.13,2.13,0,0,1,.45-.81,1.86,1.86,0,0,1,.69-.52,2.21,2.21,0,0,1,.91-.18,2,2,0,0,1,1.55.68,2.28,2.28,0,0,1,.42.75,2.93,2.93,0,0,1,.15,1v.36h-3.53v.22a1.87,1.87,0,0,0,.1.59,1.42,1.42,0,0,0,.29.47,1.21,1.21,0,0,0,.45.31,1.63,1.63,0,0,0,1.43-.1,1.43,1.43,0,0,0,.53-.63l.55.39a1.91,1.91,0,0,1-.75.82A2.18,2.18,0,0,1,175.84,50.46Zm0-4.49a1.32,1.32,0,0,0-.57.11,1.23,1.23,0,0,0-.44.3,1.33,1.33,0,0,0-.29.47,1.63,1.63,0,0,0-.11.59v.07h2.71V47.4a1.48,1.48,0,0,0-.36-1A1.2,1.2,0,0,0,175.84,46Z"/><path d="M180,50.35a.79.79,0,0,1-.61-.23.82.82,0,0,1-.2-.56V43.32H180v6.35h.72v.68Z"/><path d="M189.28,44.76h-.05l-.56,1.11-1.58,2.89-1.59-2.89-.56-1.11h-.05v5.59h-.78V43.72h1.07l1.9,3.57h0L189,43.72h1v6.63h-.78Z"/><path d="M193.59,50.46a2.16,2.16,0,0,1-.9-.18,1.89,1.89,0,0,1-.7-.52,2.29,2.29,0,0,1-.44-.8,3.25,3.25,0,0,1-.16-1.07,3.21,3.21,0,0,1,.16-1A2.25,2.25,0,0,1,192,46a1.89,1.89,0,0,1,.7-.52,2.16,2.16,0,0,1,.9-.18,2.11,2.11,0,0,1,.89.18,1.93,1.93,0,0,1,.66.5,2.12,2.12,0,0,1,.42.75,2.93,2.93,0,0,1,.15,1v.36h-3.52v.22a1.63,1.63,0,0,0,.1.59,1.4,1.4,0,0,0,.28.47,1.33,1.33,0,0,0,.46.31,1.48,1.48,0,0,0,.61.12,1.42,1.42,0,0,0,1.35-.85l.54.39a1.88,1.88,0,0,1-.74.82A2.23,2.23,0,0,1,193.59,50.46Zm0-4.49a1.32,1.32,0,0,0-.57.11,1.23,1.23,0,0,0-.44.3,1.49,1.49,0,0,0-.29.47,1.63,1.63,0,0,0-.1.59v.07h2.7V47.4a1.47,1.47,0,0,0-.35-1A1.22,1.22,0,0,0,193.59,46Zm.08-1.18-.5-.23L194,43l.7.33Z"/><path d="M200.1,49.56h0a1.49,1.49,0,0,1-1.43.9,1.87,1.87,0,0,1-.83-.18,1.73,1.73,0,0,1-.63-.51,2.2,2.2,0,0,1-.4-.81,4.12,4.12,0,0,1,0-2.13,2.28,2.28,0,0,1,.4-.81,1.73,1.73,0,0,1,.63-.51,1.87,1.87,0,0,1,.83-.18,1.67,1.67,0,0,1,.88.22,1.39,1.39,0,0,1,.55.68h0V43.32h.76v7h-.76Zm-1.26.23a2,2,0,0,0,.49-.07,1.25,1.25,0,0,0,.4-.2,1,1,0,0,0,.27-.31.88.88,0,0,0,.1-.43V47a.75.75,0,0,0-.1-.38,1.27,1.27,0,0,0-.27-.3,1.24,1.24,0,0,0-.4-.19,1.61,1.61,0,0,0-.49-.07,1.32,1.32,0,0,0-1,.4,1.51,1.51,0,0,0-.37,1.06v.85a1.49,1.49,0,0,0,.37,1.06A1.33,1.33,0,0,0,198.84,49.79Z"/><path d="M202.85,44.3a.45.45,0,0,1-.35-.12.47.47,0,0,1-.11-.31v-.13a.42.42,0,0,1,.11-.3.45.45,0,0,1,.35-.12.46.46,0,0,1,.36.12.42.42,0,0,1,.11.3v.13a.47.47,0,0,1-.11.31A.46.46,0,0,1,202.85,44.3Zm-.38,1.14h.76v4.91h-.76Z"/><path d="M206.7,50.46a2.19,2.19,0,0,1-.9-.18,1.89,1.89,0,0,1-.7-.52,2.49,2.49,0,0,1-.45-.8,3.25,3.25,0,0,1-.16-1.07,3.21,3.21,0,0,1,.16-1,2.43,2.43,0,0,1,.45-.81,1.89,1.89,0,0,1,.7-.52,2.34,2.34,0,0,1,1.8,0,2,2,0,0,1,.7.52,2.27,2.27,0,0,1,.45.81,3.21,3.21,0,0,1,.17,1,3.25,3.25,0,0,1-.17,1.07,2.31,2.31,0,0,1-.45.8,2,2,0,0,1-.7.52A2.19,2.19,0,0,1,206.7,50.46Zm0-.67a1.41,1.41,0,0,0,1-.38,1.56,1.56,0,0,0,.39-1.16v-.71a1.56,1.56,0,0,0-.39-1.16,1.4,1.4,0,0,0-1-.37,1.36,1.36,0,0,0-1,.37,1.56,1.56,0,0,0-.39,1.16v.71a1.56,1.56,0,0,0,.39,1.16A1.37,1.37,0,0,0,206.7,49.79Z"/><path d="M215.55,49.56h0a1.51,1.51,0,0,1-1.44.9,1.86,1.86,0,0,1-.82-.18,1.73,1.73,0,0,1-.63-.51,2.2,2.2,0,0,1-.4-.81,4.12,4.12,0,0,1,0-2.13,2.28,2.28,0,0,1,.4-.81,1.73,1.73,0,0,1,.63-.51,1.86,1.86,0,0,1,.82-.18,1.62,1.62,0,0,1,.88.22,1.41,1.41,0,0,1,.56.68h0V43.32h.76v7h-.76Zm-1.27.23a1.93,1.93,0,0,0,.49-.07,1.31,1.31,0,0,0,.41-.2.88.88,0,0,0,.37-.74V47a.86.86,0,0,0-.1-.38,1.27,1.27,0,0,0-.27-.3,1.29,1.29,0,0,0-.41-.19,1.57,1.57,0,0,0-.49-.07,1.28,1.28,0,0,0-1,.4,1.51,1.51,0,0,0-.37,1.06v.85a1.49,1.49,0,0,0,.37,1.06A1.29,1.29,0,0,0,214.28,49.79Z"/><path d="M219.77,50.46a2.23,2.23,0,0,1-.9-.18,2,2,0,0,1-.7-.52,2.49,2.49,0,0,1-.45-.8,3.25,3.25,0,0,1-.16-1.07,3.21,3.21,0,0,1,.16-1,2.43,2.43,0,0,1,.45-.81,2,2,0,0,1,.7-.52,2.23,2.23,0,0,1,.9-.18,2.19,2.19,0,0,1,.9.18,2,2,0,0,1,.7.52,2.29,2.29,0,0,1,.46.81,3.5,3.5,0,0,1,.16,1,3.54,3.54,0,0,1-.16,1.07,2.33,2.33,0,0,1-.46.8,2,2,0,0,1-.7.52A2.19,2.19,0,0,1,219.77,50.46Zm0-.67a1.39,1.39,0,0,0,1-.38,1.56,1.56,0,0,0,.39-1.16v-.71a1.56,1.56,0,0,0-.39-1.16,1.55,1.55,0,0,0-2,0,1.56,1.56,0,0,0-.39,1.16v.71a1.56,1.56,0,0,0,.39,1.16A1.38,1.38,0,0,0,219.77,49.79Z"/><path d="M230.73,44.76h0l-.56,1.11-1.59,2.89L227,45.87l-.56-1.11h0v5.59h-.78V43.72h1.06l1.9,3.57h0l1.91-3.57h1v6.63h-.78Z"/><path d="M236.76,50.35a.75.75,0,0,1-.61-.23,1,1,0,0,1-.23-.57h0a1.31,1.31,0,0,1-.53.68,1.95,1.95,0,0,1-2.1-.17,1.39,1.39,0,0,1-.43-1.08,1.25,1.25,0,0,1,.51-1.07,2.74,2.74,0,0,1,1.58-.37h1v-.48a1.07,1.07,0,0,0-.29-.8,1.23,1.23,0,0,0-.87-.27,1.27,1.27,0,0,0-.75.2,1.7,1.7,0,0,0-.5.53l-.45-.43a1.7,1.7,0,0,1,.63-.68,2.36,2.36,0,0,1,2.49.16,1.52,1.52,0,0,1,.5,1.21v2.69h.56v.68Zm-2.18-.54a2.12,2.12,0,0,0,.52-.06,1.55,1.55,0,0,0,.41-.19.89.89,0,0,0,.26-.29.6.6,0,0,0,.1-.35v-.81h-1a1.88,1.88,0,0,0-1,.19.62.62,0,0,0-.3.55v.2a.66.66,0,0,0,.26.57A1.15,1.15,0,0,0,234.58,49.81Z"/><path d="M238.27,50.35V45.44H239v.91h.05a1.4,1.4,0,0,1,1.41-.91h.3v.76h-.45a1.66,1.66,0,0,0-1,.24A.68.68,0,0,0,239,47v3.33Z"/><path d="M244,47.38a7.2,7.2,0,0,1,.13-1.32,6,6,0,0,1,.37-1.18,5.19,5.19,0,0,1,.55-1,4.18,4.18,0,0,1,.67-.76h.72a5,5,0,0,0-.71.81,5.49,5.49,0,0,0-.55,1,5.59,5.59,0,0,0-.34,1.05,4.08,4.08,0,0,0-.13,1v.82a4.23,4.23,0,0,0,.13,1,5.78,5.78,0,0,0,.35,1,5.16,5.16,0,0,0,.55,1,4.51,4.51,0,0,0,.7.8h-.72a4,4,0,0,1-.66-.74,5,5,0,0,1-.55-1,6.35,6.35,0,0,1-.37-1.19A6.55,6.55,0,0,1,244,47.38Z"/><path d="M247.18,43.32h.76v2.91h0a1.68,1.68,0,0,1,.51-.66,1.46,1.46,0,0,1,.88-.24,1.54,1.54,0,0,1,1.2.49A2,2,0,0,1,251,47.2v3.15h-.76v-3q0-1.32-1.11-1.32a1.61,1.61,0,0,0-.44.05,1.71,1.71,0,0,0-.39.17,1.06,1.06,0,0,0-.27.29.93.93,0,0,0-.1.42v3.41h-.76Z"/><path d="M252.65,50.35V43.72h2.65a1.79,1.79,0,0,1,1.37.5,2.27,2.27,0,0,1,0,2.79,1.8,1.8,0,0,1-1.37.51h-1.85v2.83Zm.8-3.54h1.85a1,1,0,0,0,.73-.24.91.91,0,0,0,.26-.71v-.49a.88.88,0,0,0-.26-.7,1,1,0,0,0-.73-.25h-1.85Z"/><path d="M261.8,50.35a.75.75,0,0,1-.61-.23,1.13,1.13,0,0,1-.23-.57h0a1.26,1.26,0,0,1-.53.68,1.68,1.68,0,0,1-.89.23,1.7,1.7,0,0,1-1.21-.4,1.39,1.39,0,0,1-.43-1.08,1.25,1.25,0,0,1,.51-1.07,2.74,2.74,0,0,1,1.58-.37h1v-.48a1.11,1.11,0,0,0-.28-.8,1.27,1.27,0,0,0-.88-.27,1.22,1.22,0,0,0-.74.2,1.59,1.59,0,0,0-.5.53l-.46-.43a1.73,1.73,0,0,1,.64-.68,2,2,0,0,1,1.1-.28,2.05,2.05,0,0,1,1.39.44,1.52,1.52,0,0,1,.49,1.21v2.69h.56v.68Zm-2.18-.54a2.12,2.12,0,0,0,.52-.06,1.55,1.55,0,0,0,.41-.19.89.89,0,0,0,.26-.29.6.6,0,0,0,.1-.35v-.81h-1a1.91,1.91,0,0,0-.95.19.62.62,0,0,0-.3.55v.2a.69.69,0,0,0,.26.57A1.15,1.15,0,0,0,259.62,49.81Z"/><path d="M264.9,47.38a6.55,6.55,0,0,1-.14,1.34,6.35,6.35,0,0,1-.37,1.19,5.58,5.58,0,0,1-.54,1,4,4,0,0,1-.67.74h-.72a5.49,5.49,0,0,0,.7-.8,5.73,5.73,0,0,0,.54-1,6.74,6.74,0,0,0,.36-1,4.77,4.77,0,0,0,.13-1V47a4.08,4.08,0,0,0-.13-1,5.59,5.59,0,0,0-.34-1.05,6.14,6.14,0,0,0-.54-1,5.62,5.62,0,0,0-.72-.81h.72a3.84,3.84,0,0,1,.67.76,4.7,4.7,0,0,1,.55,1,6,6,0,0,1,.37,1.18A6.42,6.42,0,0,1,264.9,47.38Z"/><path d="M60.32,50.23l-.66-2H57l-.67,2H55.5l2.32-6.63h1l2.32,6.63Zm-2-5.89h0l-1.12,3.23h2.29Z"/><path d="M62.18,50.23v-4.9h.76v.79h0a1.55,1.55,0,0,1,.51-.66,1.46,1.46,0,0,1,.88-.24,1.53,1.53,0,0,1,1.2.49A2,2,0,0,1,66,47.09v3.14h-.76v-3q0-1.32-1.11-1.32a1.61,1.61,0,0,0-.44.06,1.36,1.36,0,0,0-.39.17.94.94,0,0,0-.27.29.92.92,0,0,0-.1.41v3.41Z"/><path d="M69.43,50.35a2.19,2.19,0,0,1-.9-.18,2,2,0,0,1-.7-.52,2.65,2.65,0,0,1-.45-.81,3.19,3.19,0,0,1-.16-1.06,3.13,3.13,0,0,1,.16-1.05,2.59,2.59,0,0,1,.45-.82,2,2,0,0,1,.7-.51,2.34,2.34,0,0,1,1.8,0,2.07,2.07,0,0,1,.7.51,2.59,2.59,0,0,1,.45.82,3.13,3.13,0,0,1,.16,1.05,3.19,3.19,0,0,1-.16,1.06,2.65,2.65,0,0,1-.45.81,2.1,2.1,0,0,1-.7.52A2.19,2.19,0,0,1,69.43,50.35Zm0-.68a1.36,1.36,0,0,0,1-.38,1.55,1.55,0,0,0,.39-1.16v-.7a1.55,1.55,0,0,0-.39-1.16,1.53,1.53,0,0,0-2,0A1.55,1.55,0,0,0,68,47.43v.7a1.55,1.55,0,0,0,.38,1.16A1.36,1.36,0,0,0,69.43,49.67Z"/><path d="M72.9,50.23v-4.9h.76v.79h0a2,2,0,0,1,.19-.35,1.06,1.06,0,0,1,.27-.29,1,1,0,0,1,.36-.19,1.51,1.51,0,0,1,.5-.07,1.71,1.71,0,0,1,.89.23,1.41,1.41,0,0,1,.61.75h0a1.46,1.46,0,0,1,1.49-1,1.45,1.45,0,0,1,1.17.49,2,2,0,0,1,.42,1.38v3.14h-.76v-3a1.65,1.65,0,0,0-.25-1,1,1,0,0,0-.82-.33,1.49,1.49,0,0,0-.43.06,1.14,1.14,0,0,0-.37.17.88.88,0,0,0-.25.29.8.8,0,0,0-.1.41v3.41h-.76v-3a1.58,1.58,0,0,0-.26-1,.93.93,0,0,0-.79-.33,1.56,1.56,0,0,0-.44.06,1.14,1.14,0,0,0-.37.17.91.91,0,0,0-.26.29.8.8,0,0,0-.1.41v3.41Z"/><path d="M84.75,50.23a.73.73,0,0,1-.61-.23,1.13,1.13,0,0,1-.23-.57h0a1.25,1.25,0,0,1-.53.69,1.67,1.67,0,0,1-.88.23,1.77,1.77,0,0,1-1.22-.4,1.45,1.45,0,0,1-.43-1.09,1.23,1.23,0,0,1,.51-1.06,2.69,2.69,0,0,1,1.58-.37h1v-.49a1,1,0,0,0-.28-.79,1.21,1.21,0,0,0-.88-.28,1.32,1.32,0,0,0-.74.2,1.59,1.59,0,0,0-.5.53L81,46.18a1.66,1.66,0,0,1,.64-.68,2,2,0,0,1,1.1-.28,2,2,0,0,1,1.39.43,1.54,1.54,0,0,1,.49,1.22v2.69h.56v.67Zm-2.18-.53a1.72,1.72,0,0,0,.52-.07,1,1,0,0,0,.41-.19,1,1,0,0,0,.27-.28.73.73,0,0,0,.09-.35V48h-1a1.8,1.8,0,0,0-.95.19.62.62,0,0,0-.3.55v.2a.67.67,0,0,0,.26.56A1.17,1.17,0,0,0,82.57,49.7Z"/><path d="M87.07,50.23a.78.78,0,0,1-.6-.22.8.8,0,0,1-.21-.57V43.2H87v6.36h.73v.67Z"/><path d="M89.23,44.18a.47.47,0,0,1-.36-.12.45.45,0,0,1-.11-.31v-.12a.45.45,0,0,1,.11-.31.47.47,0,0,1,.36-.12.45.45,0,0,1,.35.12.41.41,0,0,1,.11.31v.12a.41.41,0,0,1-.11.31A.45.45,0,0,1,89.23,44.18Zm-.38,1.15h.76v4.9h-.76Z"/><path d="M94.79,50.23a.74.74,0,0,1-.62-.23,1.13,1.13,0,0,1-.23-.57h0a1.21,1.21,0,0,1-.53.69,1.67,1.67,0,0,1-.88.23,1.73,1.73,0,0,1-1.21-.4,1.42,1.42,0,0,1-.44-1.09,1.23,1.23,0,0,1,.51-1.06,2.69,2.69,0,0,1,1.58-.37h1v-.49a1,1,0,0,0-.28-.79,1.19,1.19,0,0,0-.88-.28,1.34,1.34,0,0,0-.74.2,1.59,1.59,0,0,0-.5.53L91,46.18a1.73,1.73,0,0,1,.64-.68,2,2,0,0,1,1.1-.28,2,2,0,0,1,1.39.43,1.54,1.54,0,0,1,.49,1.22v2.69h.56v.67ZM92.6,49.7a1.68,1.68,0,0,0,.52-.07,1,1,0,0,0,.41-.19.8.8,0,0,0,.27-.28.73.73,0,0,0,.09-.35V48h-1a1.82,1.82,0,0,0-1,.19.62.62,0,0,0-.3.55v.2a.67.67,0,0,0,.26.56A1.17,1.17,0,0,0,92.6,49.7Z"/><path d="M101.67,49.44h0a1.5,1.5,0,0,1-1.44.91,1.9,1.9,0,0,1-.83-.18,2,2,0,0,1-.63-.52,2.56,2.56,0,0,1-.4-.81,4.39,4.39,0,0,1,0-2.12,2.56,2.56,0,0,1,.4-.81,1.79,1.79,0,0,1,1.46-.69,1.64,1.64,0,0,1,.88.22,1.37,1.37,0,0,1,.56.68h0V43.2h.76v7h-.76Zm-1.26.23a1.61,1.61,0,0,0,.49-.07,1.24,1.24,0,0,0,.4-.19.83.83,0,0,0,.27-.32.82.82,0,0,0,.1-.42V46.84a.72.72,0,0,0-.1-.38.77.77,0,0,0-.27-.3,1.5,1.5,0,0,0-.4-.2,1.61,1.61,0,0,0-.49-.07,1.33,1.33,0,0,0-1,.41A1.54,1.54,0,0,0,99,47.36v.84a1.56,1.56,0,0,0,.37,1.07A1.32,1.32,0,0,0,100.41,49.67Z"/><path d="M105.89,50.35a2.24,2.24,0,0,1-.91-.18,2,2,0,0,1-.69-.52,2.65,2.65,0,0,1-.45-.81,3.48,3.48,0,0,1-.15-1.06,3.41,3.41,0,0,1,.15-1.05,2.59,2.59,0,0,1,.45-.82,1.94,1.94,0,0,1,.69-.51,2.24,2.24,0,0,1,.91-.18,2.11,2.11,0,0,1,.89.18,1.9,1.9,0,0,1,.66.49,2.23,2.23,0,0,1,.42.76,2.87,2.87,0,0,1,.15,1V48h-3.52v.23a1.57,1.57,0,0,0,.1.58,1.31,1.31,0,0,0,.28.47,1.27,1.27,0,0,0,.46.32,1.66,1.66,0,0,0,.61.11,1.45,1.45,0,0,0,.81-.22,1.43,1.43,0,0,0,.54-.62l.54.39a2,2,0,0,1-.74.82A2.33,2.33,0,0,1,105.89,50.35Zm0-4.5a1.48,1.48,0,0,0-.57.11,1.25,1.25,0,0,0-.44.31,1.49,1.49,0,0,0-.29.47,1.55,1.55,0,0,0-.1.59v.06h2.7v-.1a1.55,1.55,0,0,0-.35-1A1.24,1.24,0,0,0,105.89,45.85Z"/></svg>