<svg id="Camada_1" data-name="Camada 1" xmlns="http://www.w3.org/2000/svg" viewBox="0 0 320.4 57.45">
  <title>LEGENDAS_PÁGINA_CLIMA</title>
  <g style="opacity: 0.75">
    <path d="M0,6.38C0,2.86,3.19,0,7.12,0H313.28c3.94,0,7.12,2.86,7.12,6.38V51.07c0,3.52-3.18,6.38-7.12,6.38H7.12C3.19,57.45,0,54.59,0,51.07Z" style="fill: #fff"/>
  </g>
  <g>
    <path d="M51.68,33.14v-.69h2.1v.69Z"/>
    <path d="M55.05,35.24v-.6h1.57V30.12h-.06l-1.42,1.32L54.75,31l1.49-1.39h1v5h1.45v.6Z"/>
    <path d="M62.19,35.24v-1.1H59.47v-.6l2.35-3.92h1v3.95h.81v.57h-.81v1.1Zm-2.08-1.67h2.08V30.15h0Z"/>
  </g>
  <g>
    <path d="M17.55,33.14v-.69h2.1v.69Z"/>
    <path d="M20.91,35.24v-.6h1.57V30.12h-.05L21,31.44l-.4-.43,1.49-1.39h1.06v5h1.45v.6Z"/>
    <path d="M27.45,35.34a2.45,2.45,0,0,1-.85-.13,1.89,1.89,0,0,1-.61-.34,1.59,1.59,0,0,1-.37-.52,1.66,1.66,0,0,1-.12-.64,1.3,1.3,0,0,1,.31-.92,1.76,1.76,0,0,1,.82-.47v-.07a1.47,1.47,0,0,1-.7-.49,1.35,1.35,0,0,1-.26-.83,1.23,1.23,0,0,1,.47-1,2,2,0,0,1,1.31-.38,2,2,0,0,1,1.31.38,1.26,1.26,0,0,1,.47,1,1.29,1.29,0,0,1-.27.83,1.38,1.38,0,0,1-.7.49v.07a1.71,1.71,0,0,1,.82.47,1.3,1.3,0,0,1,.32.92,1.66,1.66,0,0,1-.13.64,1.46,1.46,0,0,1-.37.52,1.79,1.79,0,0,1-.61.34A2.39,2.39,0,0,1,27.45,35.34Zm0-.6a1.45,1.45,0,0,0,.91-.26.9.9,0,0,0,.32-.74v-.17a.9.9,0,0,0-.32-.74,1.45,1.45,0,0,0-.91-.26,1.43,1.43,0,0,0-.91.26.88.88,0,0,0-.32.74v.17a.88.88,0,0,0,.32.74A1.43,1.43,0,0,0,27.45,34.74Zm0-2.73a1.23,1.23,0,0,0,.8-.23.82.82,0,0,0,.28-.66V31a.81.81,0,0,0-.28-.65,1.52,1.52,0,0,0-1.61,0,.8.8,0,0,0-.27.65v.12a.81.81,0,0,0,.27.66A1.24,1.24,0,0,0,27.45,32Z"/>
  </g>
  <g>
    <path d="M85.89,33.14v-.69H88v.69Z"/>
    <path d="M89.25,35.24v-.6h1.57V30.12h-.06l-1.41,1.32L89,31l1.49-1.39h1v5h1.45v.6Z"/>
    <path d="M95.78,35.34a1.57,1.57,0,0,1-1.46-.77,4.12,4.12,0,0,1-.47-2.14,4.12,4.12,0,0,1,.47-2.14,1.56,1.56,0,0,1,1.46-.76,1.59,1.59,0,0,1,1.47.76,4.12,4.12,0,0,1,.47,2.14,4.12,4.12,0,0,1-.47,2.14A1.6,1.6,0,0,1,95.78,35.34Zm0-.6a1,1,0,0,0,.57-.14,1.06,1.06,0,0,0,.38-.38,2.27,2.27,0,0,0,.21-.59,4.14,4.14,0,0,0,.07-.74V32a4.14,4.14,0,0,0-.07-.74,2.27,2.27,0,0,0-.21-.59,1,1,0,0,0-1-.52,1.11,1.11,0,0,0-.56.14,1.15,1.15,0,0,0-.38.38,2.27,2.27,0,0,0-.21.59,3.38,3.38,0,0,0-.07.74v.92a3.38,3.38,0,0,0,.07.74,2.27,2.27,0,0,0,.21.59,1.06,1.06,0,0,0,.38.38A1,1,0,0,0,95.78,34.74Z"/>
  </g>
  <g>
    <path d="M122.5,33.14v-.69h2.1v.69Z"/>
    <path d="M127.58,35.34a2,2,0,0,1-.79-.15,1.58,1.58,0,0,1-.59-.43,1.8,1.8,0,0,1-.38-.68,3.15,3.15,0,0,1-.13-.9,3.52,3.52,0,0,1,.19-1.18,4.27,4.27,0,0,1,.48-1,4.68,4.68,0,0,1,.64-.8,4.87,4.87,0,0,1,.7-.57h.87c-.31.22-.57.44-.81.64a4.77,4.77,0,0,0-.62.66,3.68,3.68,0,0,0-.45.73,4.77,4.77,0,0,0-.3.88l0,0A1.82,1.82,0,0,1,127,32a1.42,1.42,0,0,1,.84-.23,1.76,1.76,0,0,1,.66.12,1.49,1.49,0,0,1,.53.35,1.77,1.77,0,0,1,.34.55,2,2,0,0,1,.12.71,2.06,2.06,0,0,1-.13.76,1.66,1.66,0,0,1-.38.59,1.71,1.71,0,0,1-.59.38A2.1,2.1,0,0,1,127.58,35.34Zm0-.6a1.17,1.17,0,0,0,.86-.3,1.18,1.18,0,0,0,.31-.88v-.07a1.08,1.08,0,0,0-1.17-1.18,1.08,1.08,0,0,0-1.18,1.18v.07a1.22,1.22,0,0,0,.31.88A1.21,1.21,0,0,0,127.57,34.74Z"/>
  </g>
  <path d="M160.23,35.34a1.6,1.6,0,0,1-1.47-.77,4.12,4.12,0,0,1-.46-2.14,4.12,4.12,0,0,1,.46-2.14,1.8,1.8,0,0,1,2.94,0,4.23,4.23,0,0,1,.46,2.14,4.23,4.23,0,0,1-.46,2.14A1.6,1.6,0,0,1,160.23,35.34Zm0-.6a1,1,0,0,0,.94-.52,1.72,1.72,0,0,0,.21-.59,3.38,3.38,0,0,0,.07-.74V32a3.38,3.38,0,0,0-.07-.74,1.72,1.72,0,0,0-.21-.59,1.06,1.06,0,0,0-.38-.38,1.08,1.08,0,0,0-.56-.14,1.15,1.15,0,0,0-.57.14,1,1,0,0,0-.37.38,2,2,0,0,0-.22.59A4.14,4.14,0,0,0,159,32v.92a4.14,4.14,0,0,0,.07.74,2,2,0,0,0,.22.59,1,1,0,0,0,.37.38A1,1,0,0,0,160.23,34.74Z"/>
  <path d="M194.4,35.34a1.94,1.94,0,0,1-.78-.15,1.7,1.7,0,0,1-.6-.43,1.93,1.93,0,0,1-.37-.68,2.84,2.84,0,0,1-.13-.9,3.52,3.52,0,0,1,.19-1.18,4.67,4.67,0,0,1,.47-1,5.26,5.26,0,0,1,.65-.8,5.45,5.45,0,0,1,.69-.57h.87c-.3.22-.56.44-.8.64a4.77,4.77,0,0,0-.62.66,3.68,3.68,0,0,0-.45.73,4.77,4.77,0,0,0-.3.88l0,0a1.82,1.82,0,0,1,.52-.58,1.41,1.41,0,0,1,.83-.23,1.81,1.81,0,0,1,.67.12,1.37,1.37,0,0,1,.52.35,1.62,1.62,0,0,1,.35.55,2,2,0,0,1,.12.71,2.06,2.06,0,0,1-.13.76,1.81,1.81,0,0,1-.38.59,1.71,1.71,0,0,1-.59.38A2.11,2.11,0,0,1,194.4,35.34Zm0-.6a1.06,1.06,0,0,0,1.17-1.18v-.07a1.08,1.08,0,0,0-1.17-1.18,1.17,1.17,0,0,0-.87.31,1.14,1.14,0,0,0-.31.87v.07a1.18,1.18,0,0,0,.31.88A1.21,1.21,0,0,0,194.4,34.74Z"/>
  <g>
    <path d="M224.49,35.24v-.6h1.57V30.12H226l-1.41,1.32-.4-.43,1.49-1.39h1v5h1.45v.6Z"/>
    <path d="M231,35.34a1.6,1.6,0,0,1-1.47-.77,4.23,4.23,0,0,1-.46-2.14,4.23,4.23,0,0,1,.46-2.14,1.8,1.8,0,0,1,2.94,0,4.12,4.12,0,0,1,.47,2.14,4.12,4.12,0,0,1-.47,2.14A1.6,1.6,0,0,1,231,35.34Zm0-.6a1,1,0,0,0,.57-.14,1.06,1.06,0,0,0,.38-.38,2.27,2.27,0,0,0,.21-.59,4.14,4.14,0,0,0,.07-.74V32a4.14,4.14,0,0,0-.07-.74,2.27,2.27,0,0,0-.21-.59,1,1,0,0,0-.95-.52,1.11,1.11,0,0,0-.56.14,1.06,1.06,0,0,0-.38.38,2,2,0,0,0-.21.59,3.38,3.38,0,0,0-.07.74v.92a3.38,3.38,0,0,0,.07.74,2,2,0,0,0,.21.59,1,1,0,0,0,.38.38A1,1,0,0,0,231,34.74Z"/>
  </g>
  <g>
    <path d="M258.59,35.24v-.6h1.57V30.12h-.05l-1.42,1.32L258.3,31l1.48-1.39h1.06v5h1.45v.6Z"/>
    <path d="M265.73,35.24v-1.1H263v-.6l2.35-3.92h1v3.95h.81v.57h-.81v1.1Zm-2.07-1.67h2.07V30.15h0Z"/>
  </g>
  <g>
    <path d="M292.83,35.24v-.6h1.57V30.12h-.06l-1.42,1.32-.39-.43L294,29.62h1.05v5h1.45v.6Z"/>
    <path d="M299.36,35.34a2.39,2.39,0,0,1-.84-.13,1.79,1.79,0,0,1-.61-.34,1.46,1.46,0,0,1-.37-.52,1.66,1.66,0,0,1-.13-.64,1.3,1.3,0,0,1,.32-.92,1.71,1.71,0,0,1,.82-.47v-.07a1.45,1.45,0,0,1-.71-.49,1.35,1.35,0,0,1-.26-.83,1.26,1.26,0,0,1,.47-1,2.45,2.45,0,0,1,2.62,0,1.26,1.26,0,0,1,.47,1,1.35,1.35,0,0,1-.26.83,1.45,1.45,0,0,1-.71.49v.07a1.74,1.74,0,0,1,.83.47,1.3,1.3,0,0,1,.31.92,1.5,1.5,0,0,1-.13.64,1.35,1.35,0,0,1-.37.52,1.74,1.74,0,0,1-.6.34A2.49,2.49,0,0,1,299.36,35.34Zm0-.6a1.43,1.43,0,0,0,.91-.26.88.88,0,0,0,.32-.74v-.17a.88.88,0,0,0-.32-.74,1.43,1.43,0,0,0-.91-.26,1.45,1.45,0,0,0-.91.26.9.9,0,0,0-.32.74v.17a.9.9,0,0,0,.32.74A1.45,1.45,0,0,0,299.36,34.74Zm0-2.73a1.26,1.26,0,0,0,.81-.23.81.81,0,0,0,.27-.66V31a.8.8,0,0,0-.27-.65,1.26,1.26,0,0,0-.81-.23,1.23,1.23,0,0,0-.8.23.78.78,0,0,0-.28.65v.12a.79.79,0,0,0,.28.66A1.23,1.23,0,0,0,299.36,32Z"/>
  </g>
  <g>
    <path d="M96.27,49.82h-.74V43.73H98a1.69,1.69,0,0,1,1.25.45,1.72,1.72,0,0,1,.45,1.28,1.86,1.86,0,0,1-.31,1.1,1.47,1.47,0,0,1-.91.57l1.39,2.69H99L97.69,47.2H96.27ZM98,46.58a.94.94,0,0,0,.67-.23.84.84,0,0,0,.24-.64v-.46a.83.83,0,0,0-.24-.64.94.94,0,0,0-.67-.23H96.27v2.2Z"/>
    <path d="M104.23,49.82a.7.7,0,0,1-.57-.21,1.06,1.06,0,0,1-.21-.52h0a1.16,1.16,0,0,1-.49.63,1.62,1.62,0,0,1-.81.21,1.58,1.58,0,0,1-1.11-.37,1.29,1.29,0,0,1-.4-1,1.1,1.1,0,0,1,.47-1,2.44,2.44,0,0,1,1.45-.34h.89V46.8a1,1,0,0,0-.26-.73,1.14,1.14,0,0,0-.81-.25,1.21,1.21,0,0,0-.68.18,1.55,1.55,0,0,0-.46.49l-.42-.39a1.68,1.68,0,0,1,.59-.63,1.82,1.82,0,0,1,1-.25,1.84,1.84,0,0,1,1.27.4,1.4,1.4,0,0,1,.45,1.11V49.2h.52v.62Zm-2-.49a1.75,1.75,0,0,0,.48-.06,1.33,1.33,0,0,0,.38-.17,1.16,1.16,0,0,0,.24-.26.63.63,0,0,0,.09-.33v-.74h-.93a1.61,1.61,0,0,0-.87.18.54.54,0,0,0-.28.5v.18a.61.61,0,0,0,.24.52A1.07,1.07,0,0,0,102.22,49.33Z"/>
    <path d="M108.49,49.1h0a1.39,1.39,0,0,1-1.32.83,1.73,1.73,0,0,1-.76-.17,1.65,1.65,0,0,1-.58-.47,2.23,2.23,0,0,1-.37-.74,4.06,4.06,0,0,1,0-2,2.33,2.33,0,0,1,.37-.74,1.65,1.65,0,0,1,.58-.47,1.73,1.73,0,0,1,.76-.16,1.52,1.52,0,0,1,.81.2,1.26,1.26,0,0,1,.51.63h0V43.37h.7v6.45h-.7Zm-1.16.21a1.33,1.33,0,0,0,.45-.07,1.06,1.06,0,0,0,.37-.18.84.84,0,0,0,.25-.28.86.86,0,0,0,.09-.39V46.7a.69.69,0,0,0-.09-.34,1,1,0,0,0-.25-.28,1.59,1.59,0,0,0-.37-.18,1.63,1.63,0,0,0-.45-.06,1.18,1.18,0,0,0-.93.37,1.38,1.38,0,0,0-.34,1V48a1.35,1.35,0,0,0,.34,1A1.19,1.19,0,0,0,107.33,49.31Z"/>
    <path d="M111,44.27a.45.45,0,0,1-.33-.11.39.39,0,0,1-.1-.29v-.11a.37.37,0,0,1,.1-.28.43.43,0,0,1,.76.28v.11a.44.44,0,0,1-.1.29A.45.45,0,0,1,111,44.27Zm-.35,1h.7v4.5h-.7Z"/>
    <path d="M116.12,49.82a.68.68,0,0,1-.56-.21,1,1,0,0,1-.22-.52h0a1.16,1.16,0,0,1-.49.63,1.62,1.62,0,0,1-.81.21,1.58,1.58,0,0,1-1.11-.37,1.29,1.29,0,0,1-.4-1,1.13,1.13,0,0,1,.47-1,2.44,2.44,0,0,1,1.45-.34h.89V46.8a1,1,0,0,0-.26-.73,1.11,1.11,0,0,0-.8-.25,1.22,1.22,0,0,0-.69.18,1.67,1.67,0,0,0-.46.49l-.42-.39a1.68,1.68,0,0,1,.59-.63,1.85,1.85,0,0,1,1-.25,1.83,1.83,0,0,1,1.27.4,1.38,1.38,0,0,1,.46,1.11V49.2h.51v.62Zm-2-.49a1.75,1.75,0,0,0,.48-.06,1.33,1.33,0,0,0,.38-.17,1.16,1.16,0,0,0,.24-.26.63.63,0,0,0,.09-.33v-.74h-.92a1.63,1.63,0,0,0-.88.18.56.56,0,0,0-.28.5v.18a.61.61,0,0,0,.24.52A1.07,1.07,0,0,0,114.11,49.33Z"/>
    <path d="M119.18,45.22a1.67,1.67,0,0,1,1.68,1l-.58.31a1.1,1.1,0,0,0-.4-.54,1.2,1.2,0,0,0-.7-.19,1.35,1.35,0,0,0-.55.1.91.91,0,0,0-.39.27,1.07,1.07,0,0,0-.24.43,1.91,1.91,0,0,0-.08.54V48a1.47,1.47,0,0,0,.32,1,1.17,1.17,0,0,0,.94.38,1.26,1.26,0,0,0,1.22-.79l.51.34a1.84,1.84,0,0,1-.59.73,1.7,1.7,0,0,1-.95.34l-.09.43,0,0a1,1,0,0,1,.34-.05.64.64,0,0,1,.42.14.53.53,0,0,1,.17.43.57.57,0,0,1-.08.32.58.58,0,0,1-.21.23,1,1,0,0,1-.31.13,1.49,1.49,0,0,1-.36.05,1.15,1.15,0,0,1-.57-.12,1.31,1.31,0,0,1-.3-.24l.33-.36a.92.92,0,0,0,.21.17.67.67,0,0,0,.33.07.54.54,0,0,0,.27-.06.22.22,0,0,0,.11-.21.26.26,0,0,0-.12-.21,1,1,0,0,0-.47-.14l-.25,0,.11-.57a1.77,1.77,0,0,1-1.3-.72,2.74,2.74,0,0,1-.46-1.63,3.31,3.31,0,0,1,.14-1,2.18,2.18,0,0,1,.39-.74,1.74,1.74,0,0,1,.63-.47A2.11,2.11,0,0,1,119.18,45.22Z"/>
    <path d="M125.16,49.82a.68.68,0,0,1-.56-.21,1,1,0,0,1-.22-.52h0a1.16,1.16,0,0,1-.49.63,1.77,1.77,0,0,1-1.92-.16,1.32,1.32,0,0,1-.4-1,1.13,1.13,0,0,1,.47-1,2.44,2.44,0,0,1,1.45-.34h.89V46.8a1,1,0,0,0-.26-.73,1.11,1.11,0,0,0-.8-.25,1.24,1.24,0,0,0-.69.18,1.67,1.67,0,0,0-.46.49l-.41-.39a1.58,1.58,0,0,1,.58-.63,1.85,1.85,0,0,1,1-.25,1.83,1.83,0,0,1,1.27.4,1.38,1.38,0,0,1,.46,1.11V49.2h.51v.62ZM124,44.48a.94.94,0,0,1-.39-.07l-.31-.15a1.7,1.7,0,0,0-.35-.16.66.66,0,0,0-.26-.05.58.58,0,0,0-.26.06l-.24.17-.29-.35a1.35,1.35,0,0,1,.32-.31.83.83,0,0,1,.51-.15.93.93,0,0,1,.39.08l.31.15a1.7,1.7,0,0,0,.35.16.91.91,0,0,0,.26,0,.55.55,0,0,0,.26-.06,1.15,1.15,0,0,0,.24-.18l.29.35a1.39,1.39,0,0,1-.32.32A.83.83,0,0,1,124,44.48Zm-.84,4.85a1.75,1.75,0,0,0,.48-.06,1.33,1.33,0,0,0,.38-.17,1,1,0,0,0,.24-.26.63.63,0,0,0,.09-.33v-.74h-.92a1.63,1.63,0,0,0-.88.18.55.55,0,0,0-.27.5v.18a.6.6,0,0,0,.23.52A1.09,1.09,0,0,0,123.15,49.33Z"/>
    <path d="M128.25,49.93a2,2,0,0,1-.83-.17,1.69,1.69,0,0,1-.64-.48,2.14,2.14,0,0,1-.42-.74,2.91,2.91,0,0,1-.15-1,3,3,0,0,1,.15-1,2.14,2.14,0,0,1,.42-.74,1.69,1.69,0,0,1,.64-.48,2.21,2.21,0,0,1,1.65,0,1.77,1.77,0,0,1,.64.48,2.14,2.14,0,0,1,.42.74,3,3,0,0,1,.15,1,2.91,2.91,0,0,1-.15,1,2.14,2.14,0,0,1-.42.74,1.77,1.77,0,0,1-.64.48A2,2,0,0,1,128.25,49.93Zm0-.62a1.28,1.28,0,0,0,.92-.35,1.44,1.44,0,0,0,.36-1.07v-.64a1.44,1.44,0,0,0-.36-1.07,1.43,1.43,0,0,0-1.85,0,1.44,1.44,0,0,0-.36,1.07v.64a1.44,1.44,0,0,0,.36,1.07A1.29,1.29,0,0,0,128.25,49.31Z"/>
    <path d="M136.36,49.1h0a1.38,1.38,0,0,1-1.32.83,1.67,1.67,0,0,1-1.34-.64,2,2,0,0,1-.36-.74,3.76,3.76,0,0,1,0-2,2.13,2.13,0,0,1,.36-.74,1.74,1.74,0,0,1,.58-.47,1.73,1.73,0,0,1,.76-.16,1.5,1.5,0,0,1,.81.2,1.26,1.26,0,0,1,.51.63h0V43.37h.7v6.45h-.7Zm-1.16.21a1.33,1.33,0,0,0,.45-.07,1.06,1.06,0,0,0,.37-.18.75.75,0,0,0,.25-.28.86.86,0,0,0,.09-.39V46.7a.69.69,0,0,0-.09-.34.83.83,0,0,0-.25-.28,1.59,1.59,0,0,0-.37-.18,1.63,1.63,0,0,0-.45-.06,1.2,1.2,0,0,0-.93.37,1.38,1.38,0,0,0-.34,1V48a1.35,1.35,0,0,0,.34,1A1.21,1.21,0,0,0,135.2,49.31Z"/>
    <path d="M140.23,49.93a2.05,2.05,0,0,1-.83-.17,1.77,1.77,0,0,1-.64-.48,2.1,2.1,0,0,1-.4-.74,2.91,2.91,0,0,1-.15-1,3,3,0,0,1,.15-1,2.1,2.1,0,0,1,.4-.74,1.77,1.77,0,0,1,.64-.48,2,2,0,0,1,.83-.16,1.86,1.86,0,0,1,.81.16,1.76,1.76,0,0,1,.62.46,2.09,2.09,0,0,1,.38.69,2.75,2.75,0,0,1,.14.88v.33h-3.24V48a1.32,1.32,0,0,0,.1.53,1.23,1.23,0,0,0,.67.72,1.48,1.48,0,0,0,.57.11,1.39,1.39,0,0,0,.74-.2,1.35,1.35,0,0,0,.5-.58l.49.36a1.69,1.69,0,0,1-.68.75A2,2,0,0,1,140.23,49.93Zm0-4.13a1.27,1.27,0,0,0-.52.1,1.15,1.15,0,0,0-.4.28,1.21,1.21,0,0,0-.27.43,1.62,1.62,0,0,0-.1.54v.06h2.49v-.09a1.37,1.37,0,0,0-.33-1A1.12,1.12,0,0,0,140.23,45.8Z"/>
    <path d="M147.73,49.93a2.65,2.65,0,0,1-1.07-.21,2.38,2.38,0,0,1-.81-.6,2.81,2.81,0,0,1-.51-1,4.89,4.89,0,0,1,0-2.7,2.9,2.9,0,0,1,.51-1,2.14,2.14,0,0,1,.81-.6,2.83,2.83,0,0,1,2.14,0,2,2,0,0,1,.81.6,2.75,2.75,0,0,1,.52,1,5.15,5.15,0,0,1,0,2.7,2.67,2.67,0,0,1-.52,1,2.2,2.2,0,0,1-.81.6A2.65,2.65,0,0,1,147.73,49.93Zm0-.65a1.94,1.94,0,0,0,.73-.14,1.64,1.64,0,0,0,.57-.4,2,2,0,0,0,.37-.63,2.66,2.66,0,0,0,.13-.82v-1a2.61,2.61,0,0,0-.13-.82,1.78,1.78,0,0,0-.37-.63,1.51,1.51,0,0,0-.57-.4,1.76,1.76,0,0,0-.73-.14,1.71,1.71,0,0,0-.72.14,1.51,1.51,0,0,0-.57.4,1.64,1.64,0,0,0-.37.63,2.35,2.35,0,0,0-.13.82v1a2.39,2.39,0,0,0,.13.82,1.81,1.81,0,0,0,.37.63,1.64,1.64,0,0,0,.57.4A1.89,1.89,0,0,0,147.73,49.28Z"/>
    <path d="M151.56,49.82v-4.5h.7v.73h0a1.45,1.45,0,0,1,.47-.61,1.32,1.32,0,0,1,.81-.22,1.41,1.41,0,0,1,1.1.45,1.82,1.82,0,0,1,.4,1.26v2.89h-.69V47.05c0-.81-.34-1.21-1-1.21a1.4,1.4,0,0,0-.41,0,1,1,0,0,0-.35.16.69.69,0,0,0-.25.26.79.79,0,0,0-.09.38v3.13Z"/>
    <path d="M159.39,49.1h0a1.37,1.37,0,0,1-1.31.83,1.73,1.73,0,0,1-.76-.17,1.65,1.65,0,0,1-.58-.47,2.23,2.23,0,0,1-.37-.74,4.06,4.06,0,0,1,0-2,2.33,2.33,0,0,1,.37-.74,1.65,1.65,0,0,1,.58-.47,1.73,1.73,0,0,1,.76-.16,1.46,1.46,0,0,1,.8.2,1.16,1.16,0,0,1,.51.63h0V43.37h.7v6.45h-.7Zm-1.16.21a1.33,1.33,0,0,0,.45-.07,1.16,1.16,0,0,0,.37-.18.84.84,0,0,0,.25-.28.86.86,0,0,0,.09-.39V46.7a.69.69,0,0,0-.09-.34,1,1,0,0,0-.25-.28,1.82,1.82,0,0,0-.37-.18,1.63,1.63,0,0,0-.45-.06,1.17,1.17,0,0,0-.93.37,1.38,1.38,0,0,0-.34,1V48a1.35,1.35,0,0,0,.34,1A1.18,1.18,0,0,0,158.23,49.31Z"/>
    <path d="M164.84,49.82a.68.68,0,0,1-.56-.21,1,1,0,0,1-.22-.52h0a1.16,1.16,0,0,1-.49.63,1.62,1.62,0,0,1-.81.21,1.58,1.58,0,0,1-1.11-.37,1.29,1.29,0,0,1-.4-1,1.13,1.13,0,0,1,.47-1,2.44,2.44,0,0,1,1.45-.34H164V46.8a1,1,0,0,0-.26-.73,1.11,1.11,0,0,0-.8-.25,1.22,1.22,0,0,0-.69.18,1.55,1.55,0,0,0-.46.49l-.42-.39a1.68,1.68,0,0,1,.59-.63,1.85,1.85,0,0,1,1-.25,1.83,1.83,0,0,1,1.27.4,1.41,1.41,0,0,1,.46,1.11V49.2h.51v.62Zm-2-.49a1.75,1.75,0,0,0,.48-.06,1.33,1.33,0,0,0,.38-.17,1.16,1.16,0,0,0,.24-.26.63.63,0,0,0,.09-.33v-.74h-.93a1.61,1.61,0,0,0-.87.18.56.56,0,0,0-.28.5v.18a.61.61,0,0,0,.24.52A1.07,1.07,0,0,0,162.83,49.33Z"/>
    <path d="M168.35,49.82V43.73h.73v5.45h2.59v.64Z"/>
    <path d="M174.26,49.93a2.05,2.05,0,0,1-.83-.17,1.77,1.77,0,0,1-.64-.48,2.29,2.29,0,0,1-.41-.74,2.91,2.91,0,0,1-.15-1,3,3,0,0,1,.15-1,2.29,2.29,0,0,1,.41-.74,1.77,1.77,0,0,1,.64-.48,2,2,0,0,1,.83-.16,2,2,0,0,1,.83.16,1.86,1.86,0,0,1,.64.48,2.14,2.14,0,0,1,.42.74,3,3,0,0,1,.14,1,2.91,2.91,0,0,1-.14,1,2.14,2.14,0,0,1-.42.74,1.86,1.86,0,0,1-.64.48A2,2,0,0,1,174.26,49.93Zm0-.62a1.29,1.29,0,0,0,.93-.35,1.48,1.48,0,0,0,.35-1.07v-.64a1.48,1.48,0,0,0-.35-1.07,1.29,1.29,0,0,0-.93-.34,1.26,1.26,0,0,0-.92.34,1.44,1.44,0,0,0-.36,1.07v.64a1.44,1.44,0,0,0,.36,1.07A1.27,1.27,0,0,0,174.26,49.31Z"/>
    <path d="M177.45,49.82v-4.5h.69v.73h0a1.43,1.43,0,0,1,.46-.61,1.34,1.34,0,0,1,.81-.22,1.4,1.4,0,0,1,1.1.45,1.82,1.82,0,0,1,.41,1.26v2.89h-.7V47.05c0-.81-.34-1.21-1-1.21a1.33,1.33,0,0,0-.4,0,1.17,1.17,0,0,0-.36.16.75.75,0,0,0-.24.26.7.7,0,0,0-.1.38v3.13Z"/>
    <path d="M186.19,50.32a1.09,1.09,0,0,1-.54,1,3.25,3.25,0,0,1-1.64.33,3,3,0,0,1-1.52-.29.92.92,0,0,1-.46-.82.85.85,0,0,1,.19-.57,1.29,1.29,0,0,1,.53-.3V49.6a.72.72,0,0,1-.19-1.15,1.71,1.71,0,0,1,.56-.26v0a1.38,1.38,0,0,1-.62-.55,1.49,1.49,0,0,1-.22-.83,1.68,1.68,0,0,1,.12-.63,1.39,1.39,0,0,1,.34-.49,1.67,1.67,0,0,1,.53-.32,2.19,2.19,0,0,1,.7-.11,1.93,1.93,0,0,1,.85.17v-.08a.73.73,0,0,1,.12-.43.47.47,0,0,1,.41-.18H186v.62h-.86v.29a1.42,1.42,0,0,1,.38.5,1.59,1.59,0,0,1,.14.66,1.45,1.45,0,0,1-.13.63,1.43,1.43,0,0,1-.34.5,1.8,1.8,0,0,1-.54.32,2.17,2.17,0,0,1-.69.11,3.27,3.27,0,0,1-.44,0,1.68,1.68,0,0,0-.41.17.38.38,0,0,0-.18.33.26.26,0,0,0,.19.27,1.4,1.4,0,0,0,.5.07h1a1.88,1.88,0,0,1,1.21.32A1.08,1.08,0,0,1,186.19,50.32Zm-.65,0a.52.52,0,0,0-.21-.43,1.19,1.19,0,0,0-.73-.16h-1.5a.63.63,0,0,0-.41.61.66.66,0,0,0,.22.5,1.08,1.08,0,0,0,.75.21h.65a1.84,1.84,0,0,0,.9-.18A.59.59,0,0,0,185.54,50.37ZM184,47.77a1.08,1.08,0,0,0,.7-.21.8.8,0,0,0,.26-.66v-.25a.78.78,0,0,0-.26-.66,1.24,1.24,0,0,0-1.41,0,.81.81,0,0,0-.26.66v.25a.84.84,0,0,0,.26.66A1.09,1.09,0,0,0,184,47.77Z"/>
    <path d="M190.25,49.82a.7.7,0,0,1-.57-.21,1.06,1.06,0,0,1-.21-.52h0a1.21,1.21,0,0,1-.49.63,1.79,1.79,0,0,1-1.93-.16,1.32,1.32,0,0,1-.39-1,1.12,1.12,0,0,1,.46-1,2.5,2.5,0,0,1,1.46-.34h.89V46.8a1,1,0,0,0-.27-.73,1.1,1.1,0,0,0-.8-.25,1.21,1.21,0,0,0-.68.18,1.44,1.44,0,0,0-.46.49l-.42-.39a1.6,1.6,0,0,1,.59-.63,1.82,1.82,0,0,1,1-.25,1.84,1.84,0,0,1,1.27.4,1.4,1.4,0,0,1,.45,1.11V49.2h.52v.62Zm-2-.49a1.86,1.86,0,0,0,.48-.06,1.26,1.26,0,0,0,.37-.17,1,1,0,0,0,.25-.26.63.63,0,0,0,.09-.33v-.74h-.93a1.61,1.61,0,0,0-.87.18.54.54,0,0,0-.28.5v.18a.61.61,0,0,0,.24.52A1.07,1.07,0,0,0,188.24,49.33Z"/>
    <path d="M193.67,47.1a6,6,0,0,1,.12-1.21,7,7,0,0,1,.34-1.09,5.3,5.3,0,0,1,.5-.91,4.24,4.24,0,0,1,.62-.7h.66a5.9,5.9,0,0,0-.66.75,5.59,5.59,0,0,0-.81,1.85,3.94,3.94,0,0,0-.11.94v.75a3.91,3.91,0,0,0,.11,1,4.71,4.71,0,0,0,.32,1,5.51,5.51,0,0,0,.5.89,3.85,3.85,0,0,0,.65.73h-.66a3.64,3.64,0,0,1-.61-.67,5,5,0,0,1-.5-.92,6,6,0,0,1-.34-1.09A5.58,5.58,0,0,1,193.67,47.1Z"/>
    <path d="M196.67,43.71h.92l.66,2.64L198.9,49h0l.75-2.68.77-2.64h.84l.79,2.64.76,2.68h0l.63-2.68.66-2.64H205l-1.62,6.11h-1.18l-.85-2.93L200.85,45h0l-.52,1.86-.86,2.93h-1.14Z"/>
    <path d="M209.31,49.82v-4.5H210v.73h0a1.74,1.74,0,0,1,.18-.33,1,1,0,0,1,.24-.26,1,1,0,0,1,.34-.18,1.49,1.49,0,0,1,.45-.06,1.64,1.64,0,0,1,.82.21,1.27,1.27,0,0,1,.56.69h0a1.37,1.37,0,0,1,.45-.63,1.43,1.43,0,0,1,.91-.27,1.35,1.35,0,0,1,1.08.45,1.86,1.86,0,0,1,.39,1.26v2.89h-.7V47.05a1.55,1.55,0,0,0-.23-.91.9.9,0,0,0-.75-.3,1.33,1.33,0,0,0-.4,0,1.06,1.06,0,0,0-.34.16.83.83,0,0,0-.23.26.79.79,0,0,0-.09.38v3.13H212V47.05a1.48,1.48,0,0,0-.23-.91.87.87,0,0,0-.73-.3,1.29,1.29,0,0,0-.4,0,.89.89,0,0,0-.34.16.75.75,0,0,0-.24.26.7.7,0,0,0-.1.38v3.13Z"/>
    <path d="M216.78,45.69v-.75h2.27v.75Z"/>
    <path d="M222.37,47H220v-.49l1.13-.92a2.53,2.53,0,0,0,.4-.41.82.82,0,0,0,.14-.45v0a.49.49,0,0,0-.14-.36.61.61,0,0,0-.43-.13.65.65,0,0,0-.46.14,1,1,0,0,0-.22.36l-.47-.17a1.05,1.05,0,0,1,.15-.3,1.09,1.09,0,0,1,.23-.25,1.14,1.14,0,0,1,.35-.17,1.27,1.27,0,0,1,.46-.07A1.18,1.18,0,0,1,222,44a.88.88,0,0,1,.28.68,1,1,0,0,1-.23.67,3,3,0,0,1-.6.56l-.84.66h1.79Z"/>
    <path d="M224.87,47.1a5.58,5.58,0,0,1-.13,1.23,6,6,0,0,1-.34,1.09,5,5,0,0,1-.5.92,3.32,3.32,0,0,1-.61.67h-.66a3.85,3.85,0,0,0,.65-.73,5.51,5.51,0,0,0,.5-.89,4.71,4.71,0,0,0,.32-1,3.91,3.91,0,0,0,.11-1v-.75a3.94,3.94,0,0,0-.11-.94,5.59,5.59,0,0,0-.81-1.85,5.9,5.9,0,0,0-.66-.75h.66a4.24,4.24,0,0,1,.62.7,5.3,5.3,0,0,1,.5.91,5.8,5.8,0,0,1,.46,2.3Z"/>
  </g>
  <g>
    <g>
      <path d="M154.42,23.58H149a2,2,0,0,1-2.11-2V10.68a2,2,0,0,1,2.11-2h5.46a2,2,0,0,1,2.11,2V21.61A2,2,0,0,1,154.42,23.58Z" style="fill: #fff"/>
      <path d="M154.42,23.83H149a2.29,2.29,0,0,1-2.36-2.22V10.68A2.29,2.29,0,0,1,149,8.46h5.46a2.3,2.3,0,0,1,2.36,2.22V21.61A2.29,2.29,0,0,1,154.42,23.83ZM149,9a1.79,1.79,0,0,0-1.86,1.72V21.61A1.79,1.79,0,0,0,149,23.33h5.46a1.79,1.79,0,0,0,1.86-1.72V10.68A1.79,1.79,0,0,0,154.42,9Z" style="fill: #939393"/>
    </g>
    <path d="M274,23.58h-5.47a2,2,0,0,1-2.11-2V10.68a2,2,0,0,1,2.11-2H274a2,2,0,0,1,2.11,2V21.61A2.05,2.05,0,0,1,274,23.58Z" style="fill: #eb2b20"/>
    <path d="M291.11,23.58h-5.46a2,2,0,0,1-2.11-2V10.68a2,2,0,0,1,2.11-2h5.46a2,2,0,0,1,2.11,2V21.61A2,2,0,0,1,291.11,23.58Z" style="fill: #d6111f"/>
    <path d="M308.2,23.58h-5.46a2,2,0,0,1-2.11-2V10.68a2,2,0,0,1,2.11-2h5.46a2,2,0,0,1,2.11,2V21.61A2,2,0,0,1,308.2,23.58Z" style="fill: #bd0026"/>
    <path d="M51.82,23.58H46.35a2,2,0,0,1-2.11-2V10.68a2,2,0,0,1,2.11-2h5.47a2,2,0,0,1,2.11,2V21.61A2,2,0,0,1,51.82,23.58Z" style="fill: #0868ac"/>
    <path d="M34.74,23.58H29.28a2,2,0,0,1-2.11-2V10.68a2,2,0,0,1,2.11-2h5.46a2,2,0,0,1,2.11,2V21.61A2,2,0,0,1,34.74,23.58Z" style="fill: #001476"/>
    <path d="M17.67,23.58H12.2a2,2,0,0,1-2.11-2V10.68a2,2,0,0,1,2.11-2h5.47a2,2,0,0,1,2.11,2V21.61A2,2,0,0,1,17.67,23.58Z" style="fill: #081d58"/>
    <path d="M68.91,23.58H63.44a2,2,0,0,1-2.11-2V10.68a2,2,0,0,1,2.11-2h5.47a2,2,0,0,1,2.11,2V21.61A2.05,2.05,0,0,1,68.91,23.58Z" style="fill: #2b8cbe"/>
    <path d="M86,23.58H80.53a2,2,0,0,1-2.11-2V10.68a2,2,0,0,1,2.11-2H86a2,2,0,0,1,2.11,2V21.61A2.05,2.05,0,0,1,86,23.58Z" style="fill: #7bccc4"/>
    <path d="M103.08,23.58H97.61a2,2,0,0,1-2.11-2V10.68a2,2,0,0,1,2.11-2h5.47a2,2,0,0,1,2.11,2V21.61A2.05,2.05,0,0,1,103.08,23.58Z" style="fill: #a8ddb5"/>
    <path d="M120.17,23.58H114.7a2,2,0,0,1-2.11-2V10.68a2,2,0,0,1,2.11-2h5.47a2,2,0,0,1,2.1,2V21.61A2,2,0,0,1,120.17,23.58Z" style="fill: #ccebc5"/>
    <path d="M137.25,23.58h-5.46a2,2,0,0,1-2.11-2V10.68a2,2,0,0,1,2.11-2h5.46a2,2,0,0,1,2.11,2V21.61A2,2,0,0,1,137.25,23.58Z" style="fill: #e0f3db"/>
    <g>
      <path d="M171.51,23.58H166a2,2,0,0,1-2.11-2V10.68a2,2,0,0,1,2.11-2h5.47a2,2,0,0,1,2.11,2V21.61A2,2,0,0,1,171.51,23.58Z" style="fill: #fff"/>
      <path d="M171.51,23.83H166a2.29,2.29,0,0,1-2.36-2.22V10.68A2.3,2.3,0,0,1,166,8.46h5.47a2.3,2.3,0,0,1,2.36,2.22V21.61A2.29,2.29,0,0,1,171.51,23.83ZM166,9a1.8,1.8,0,0,0-1.86,1.72V21.61A1.8,1.8,0,0,0,166,23.33h5.47a1.79,1.79,0,0,0,1.86-1.72V10.68A1.79,1.79,0,0,0,171.51,9Z" style="fill: #939393"/>
    </g>
    <path d="M188.59,23.58h-5.47a2,2,0,0,1-2.1-2V10.68a2,2,0,0,1,2.1-2h5.47a2,2,0,0,1,2.11,2V21.61A2,2,0,0,1,188.59,23.58Z" style="fill: #ffc"/>
    <path d="M205.68,23.58h-5.47a2,2,0,0,1-2.11-2V10.68a2,2,0,0,1,2.11-2h5.47a2,2,0,0,1,2.11,2V21.61A2,2,0,0,1,205.68,23.58Z" style="fill: #ffeda0"/>
    <path d="M222.77,23.58H217.3a2,2,0,0,1-2.11-2V10.68a2,2,0,0,1,2.11-2h5.47a2,2,0,0,1,2.11,2V21.61A2.05,2.05,0,0,1,222.77,23.58Z" style="fill: #fed976"/>
    <path d="M239.85,23.58h-5.47a2,2,0,0,1-2.11-2V10.68a2,2,0,0,1,2.11-2h5.47a2,2,0,0,1,2.11,2V21.61A2,2,0,0,1,239.85,23.58Z" style="fill: #feb24c"/>
    <path d="M256.94,23.58h-5.47a2,2,0,0,1-2.11-2V10.68a2,2,0,0,1,2.11-2h5.47a2,2,0,0,1,2.11,2V21.61A2.05,2.05,0,0,1,256.94,23.58Z" style="fill: #fc4e2a"/>
  </g>
</svg>
