<svg id="Camada_1" data-name="Camada 1" xmlns="http://www.w3.org/2000/svg" viewBox="0 0 320.4 57.45"><defs><style>.cls-1{opacity:0.75;}.cls-2{fill:#fff;}.cls-3{fill:#939393;}.cls-4{fill:#eb2b20;}.cls-5{fill:#d6111f;}.cls-6{fill:#bd0026;}.cls-7{fill:#0868ac;}.cls-8{fill:#001476;}.cls-9{fill:#081d58;}.cls-10{fill:#2b8cbe;}.cls-11{fill:#7bccc4;}.cls-12{fill:#a8ddb5;}.cls-13{fill:#ccebc5;}.cls-14{fill:#e0f3db;}.cls-15{fill:#ffc;}.cls-16{fill:#ffeda0;}.cls-17{fill:#fed976;}.cls-18{fill:#feb24c;}.cls-19{fill:#fc4e2a;}</style></defs><title>LEGENDAS_PÁGINA_CLIMA_MAIORES</title><g class="cls-1"><path class="cls-2" d="M0,6.38C0,2.86,3.19,0,7.12,0H313.28c3.94,0,7.12,2.86,7.12,6.38V51.07c0,3.52-3.18,6.38-7.12,6.38H7.12C3.19,57.45,0,54.59,0,51.07Z"/></g><path class="cls-2" d="M154.42,23.58H149a2,2,0,0,1-2.11-2V10.68a2,2,0,0,1,2.11-2h5.46a2,2,0,0,1,2.11,2V21.61A2,2,0,0,1,154.42,23.58Z"/><path class="cls-3" d="M154.42,23.83H149a2.29,2.29,0,0,1-2.36-2.22V10.68A2.29,2.29,0,0,1,149,8.46h5.46a2.3,2.3,0,0,1,2.36,2.22V21.61A2.29,2.29,0,0,1,154.42,23.83ZM149,9a1.79,1.79,0,0,0-1.86,1.72V21.61A1.79,1.79,0,0,0,149,23.33h5.46a1.79,1.79,0,0,0,1.86-1.72V10.68A1.79,1.79,0,0,0,154.42,9Z"/><path class="cls-4" d="M274,23.58h-5.47a2,2,0,0,1-2.11-2V10.68a2,2,0,0,1,2.11-2H274a2,2,0,0,1,2.11,2V21.61A2.05,2.05,0,0,1,274,23.58Z"/><path class="cls-5" d="M291.11,23.58h-5.46a2,2,0,0,1-2.11-2V10.68a2,2,0,0,1,2.11-2h5.46a2,2,0,0,1,2.11,2V21.61A2,2,0,0,1,291.11,23.58Z"/><path class="cls-6" d="M308.2,23.58h-5.46a2,2,0,0,1-2.11-2V10.68a2,2,0,0,1,2.11-2h5.46a2,2,0,0,1,2.11,2V21.61A2,2,0,0,1,308.2,23.58Z"/><path class="cls-7" d="M51.82,23.58H46.35a2,2,0,0,1-2.11-2V10.68a2,2,0,0,1,2.11-2h5.47a2,2,0,0,1,2.11,2V21.61A2,2,0,0,1,51.82,23.58Z"/><path class="cls-8" d="M34.74,23.58H29.28a2,2,0,0,1-2.11-2V10.68a2,2,0,0,1,2.11-2h5.46a2,2,0,0,1,2.11,2V21.61A2,2,0,0,1,34.74,23.58Z"/><path class="cls-9" d="M17.67,23.58H12.2a2,2,0,0,1-2.11-2V10.68a2,2,0,0,1,2.11-2h5.47a2,2,0,0,1,2.11,2V21.61A2,2,0,0,1,17.67,23.58Z"/><path class="cls-10" d="M68.91,23.58H63.44a2,2,0,0,1-2.11-2V10.68a2,2,0,0,1,2.11-2h5.47a2,2,0,0,1,2.11,2V21.61A2.05,2.05,0,0,1,68.91,23.58Z"/><path class="cls-11" d="M86,23.58H80.53a2,2,0,0,1-2.11-2V10.68a2,2,0,0,1,2.11-2H86a2,2,0,0,1,2.11,2V21.61A2.05,2.05,0,0,1,86,23.58Z"/><path class="cls-12" d="M103.08,23.58H97.61a2,2,0,0,1-2.11-2V10.68a2,2,0,0,1,2.11-2h5.47a2,2,0,0,1,2.11,2V21.61A2.05,2.05,0,0,1,103.08,23.58Z"/><path class="cls-13" d="M120.17,23.58H114.7a2,2,0,0,1-2.11-2V10.68a2,2,0,0,1,2.11-2h5.47a2,2,0,0,1,2.1,2V21.61A2,2,0,0,1,120.17,23.58Z"/><path class="cls-14" d="M137.25,23.58h-5.46a2,2,0,0,1-2.11-2V10.68a2,2,0,0,1,2.11-2h5.46a2,2,0,0,1,2.11,2V21.61A2,2,0,0,1,137.25,23.58Z"/><path class="cls-2" d="M171.51,23.58H166a2,2,0,0,1-2.11-2V10.68a2,2,0,0,1,2.11-2h5.47a2,2,0,0,1,2.11,2V21.61A2,2,0,0,1,171.51,23.58Z"/><path class="cls-3" d="M171.51,23.83H166a2.29,2.29,0,0,1-2.36-2.22V10.68A2.3,2.3,0,0,1,166,8.46h5.47a2.3,2.3,0,0,1,2.36,2.22V21.61A2.29,2.29,0,0,1,171.51,23.83ZM166,9a1.8,1.8,0,0,0-1.86,1.72V21.61A1.8,1.8,0,0,0,166,23.33h5.47a1.79,1.79,0,0,0,1.86-1.72V10.68A1.79,1.79,0,0,0,171.51,9Z"/><path class="cls-15" d="M188.59,23.58h-5.47a2,2,0,0,1-2.1-2V10.68a2,2,0,0,1,2.1-2h5.47a2,2,0,0,1,2.11,2V21.61A2,2,0,0,1,188.59,23.58Z"/><path class="cls-16" d="M205.68,23.58h-5.47a2,2,0,0,1-2.11-2V10.68a2,2,0,0,1,2.11-2h5.47a2,2,0,0,1,2.11,2V21.61A2,2,0,0,1,205.68,23.58Z"/><path class="cls-17" d="M222.77,23.58H217.3a2,2,0,0,1-2.11-2V10.68a2,2,0,0,1,2.11-2h5.47a2,2,0,0,1,2.11,2V21.61A2.05,2.05,0,0,1,222.77,23.58Z"/><path class="cls-18" d="M239.85,23.58h-5.47a2,2,0,0,1-2.11-2V10.68a2,2,0,0,1,2.11-2h5.47a2,2,0,0,1,2.11,2V21.61A2,2,0,0,1,239.85,23.58Z"/><path class="cls-19" d="M256.94,23.58h-5.47a2,2,0,0,1-2.11-2V10.68a2,2,0,0,1,2.11-2h5.47a2,2,0,0,1,2.11,2V21.61A2.05,2.05,0,0,1,256.94,23.58Z"/><path d="M53.69,33.8V33h2.48v.82Z"/><path d="M59.31,32.44a1.49,1.49,0,0,0,1-.3,1,1,0,0,0,.33-.79v-.07a.92.92,0,0,0-.32-.78,1.38,1.38,0,0,0-.86-.26,1.44,1.44,0,0,0-.84.22,1.76,1.76,0,0,0-.53.61l-.59-.46a2.55,2.55,0,0,1,.3-.39,2,2,0,0,1,.41-.35,2.13,2.13,0,0,1,.55-.24,2.63,2.63,0,0,1,.72-.09,3,3,0,0,1,.79.1,2,2,0,0,1,.64.33,1.42,1.42,0,0,1,.42.52,1.69,1.69,0,0,1,.06,1.29,1.48,1.48,0,0,1-.27.44,1.38,1.38,0,0,1-.4.32,1.94,1.94,0,0,1-.5.2v0a2,2,0,0,1,.51.19,1.45,1.45,0,0,1,.45.33,1.41,1.41,0,0,1,.31.5,1.69,1.69,0,0,1,.12.66,1.86,1.86,0,0,1-.16.79,1.93,1.93,0,0,1-.45.61,2.26,2.26,0,0,1-.72.39,2.65,2.65,0,0,1-.92.14,2.93,2.93,0,0,1-.76-.09,2.44,2.44,0,0,1-.59-.25,2.6,2.6,0,0,1-.79-.78l.59-.45q.13.2.27.36a1.4,1.4,0,0,0,.33.27,1.38,1.38,0,0,0,.41.18,2.09,2.09,0,0,0,.53.06,1.59,1.59,0,0,0,1.07-.32,1.15,1.15,0,0,0,.36-.91v-.08a1.15,1.15,0,0,0-.36-.91,1.54,1.54,0,0,0-1.07-.32h-.78v-.71Z"/><path d="M19.35,33.8V33h2.48v.82Z"/><path d="M26.05,36.28V35H22.84v-.7l2.78-4.63H26.8v4.66h1V35h-1v1.3Zm-2.46-2h2.46v-4H26Z"/><path d="M87.73,33.8V33h2.48v.82Z"/><path d="M95.93,36.28H91.58v-.82l2.17-2a5,5,0,0,0,.78-.91,1.74,1.74,0,0,0,.31-1v-.11a1.32,1.32,0,0,0-.3-.9,1.17,1.17,0,0,0-.92-.34,1.75,1.75,0,0,0-.54.08,1.28,1.28,0,0,0-.39.24,1.45,1.45,0,0,0-.28.36,1.92,1.92,0,0,0-.17.44l-.71-.28a2.88,2.88,0,0,1,.26-.57,2,2,0,0,1,.42-.5,1.84,1.84,0,0,1,.6-.34,2.39,2.39,0,0,1,.84-.13,2.34,2.34,0,0,1,.87.14,1.7,1.7,0,0,1,.63.4,1.62,1.62,0,0,1,.4.6,2.21,2.21,0,0,1,.14.78,2.36,2.36,0,0,1-.11.72,3.41,3.41,0,0,1-.3.64,4.67,4.67,0,0,1-.46.58c-.18.19-.38.38-.59.57l-1.78,1.61h3.48Z"/><path d="M121.72,33.8V33h2.48v.82Z"/><path d="M125.69,36.28v-.7h1.85V30.24h-.07L125.8,31.8l-.46-.51,1.75-1.64h1.25v5.93h1.71v.7Z"/><path d="M160.2,36.39a1.87,1.87,0,0,1-1.73-.9,4.81,4.81,0,0,1-.55-2.52,4.82,4.82,0,0,1,.55-2.53,1.87,1.87,0,0,1,1.73-.9,1.9,1.9,0,0,1,1.74.9,4.93,4.93,0,0,1,.54,2.53,4.91,4.91,0,0,1-.54,2.52A1.9,1.9,0,0,1,160.2,36.39Zm0-.7a1.3,1.3,0,0,0,.67-.16,1.27,1.27,0,0,0,.44-.45,2.36,2.36,0,0,0,.26-.69,4.82,4.82,0,0,0,.08-.89V32.43a4.63,4.63,0,0,0-.08-.88,2.32,2.32,0,0,0-.26-.7,1.27,1.27,0,0,0-.44-.45,1.3,1.3,0,0,0-.67-.16,1.24,1.24,0,0,0-.66.16,1.21,1.21,0,0,0-.45.45,2.31,2.31,0,0,0-.25.7,4.63,4.63,0,0,0-.08.88V33.5a4.82,4.82,0,0,0,.08.89,2.35,2.35,0,0,0,.25.69,1.21,1.21,0,0,0,.45.45A1.24,1.24,0,0,0,160.2,35.69Z"/><path d="M192.43,36.28v-.7h1.85V30.24h-.07l-1.67,1.56-.47-.51,1.76-1.64h1.25v5.93h1.71v.7Z"/><path d="M230.81,36.28h-4.35v-.82l2.17-2a4.6,4.6,0,0,0,.77-.91,1.75,1.75,0,0,0,.32-1v-.11a1.28,1.28,0,0,0-.31-.9,1.16,1.16,0,0,0-.92-.34,1.69,1.69,0,0,0-.53.08,1.28,1.28,0,0,0-.39.24,1.25,1.25,0,0,0-.28.36,1.92,1.92,0,0,0-.17.44l-.72-.28a3.6,3.6,0,0,1,.26-.57,2,2,0,0,1,.42-.5,1.89,1.89,0,0,1,.61-.34,2.78,2.78,0,0,1,1.71,0,1.7,1.7,0,0,1,.63.4,1.91,1.91,0,0,1,.4.6,2.2,2.2,0,0,1,.13.78,2.09,2.09,0,0,1-.11.72,2.85,2.85,0,0,1-.29.64,4,4,0,0,1-.47.58c-.18.19-.37.38-.58.57l-1.79,1.61h3.49Z"/><path d="M262.66,32.44a1.49,1.49,0,0,0,1-.3,1,1,0,0,0,.33-.79v-.07a.92.92,0,0,0-.32-.78,1.38,1.38,0,0,0-.86-.26,1.46,1.46,0,0,0-.84.22,1.76,1.76,0,0,0-.53.61l-.59-.46a2.55,2.55,0,0,1,.3-.39,1.94,1.94,0,0,1,1-.59,2.63,2.63,0,0,1,.72-.09,2.9,2.9,0,0,1,.79.1,1.94,1.94,0,0,1,.64.33,1.42,1.42,0,0,1,.42.52,1.69,1.69,0,0,1,.06,1.29,1.48,1.48,0,0,1-.27.44,1.38,1.38,0,0,1-.4.32,1.94,1.94,0,0,1-.5.2v0a2.18,2.18,0,0,1,.52.19,1.54,1.54,0,0,1,.44.33,1.59,1.59,0,0,1,.32.5,1.9,1.9,0,0,1,.11.66,1.86,1.86,0,0,1-.16.79,1.79,1.79,0,0,1-.45.61,2.26,2.26,0,0,1-.72.39,2.65,2.65,0,0,1-.92.14,2.93,2.93,0,0,1-.76-.09,2.62,2.62,0,0,1-.59-.25,2.6,2.6,0,0,1-.79-.78l.59-.45a3.44,3.44,0,0,0,.28.36,1.18,1.18,0,0,0,.32.27,1.38,1.38,0,0,0,.41.18,2.09,2.09,0,0,0,.53.06,1.59,1.59,0,0,0,1.07-.32,1.15,1.15,0,0,0,.36-.91v-.08a1.15,1.15,0,0,0-.36-.91,1.54,1.54,0,0,0-1.07-.32h-.78v-.71Z"/><path d="M297.69,36.28V35h-3.2v-.7l2.78-4.63h1.18v4.66h1V35h-1v1.3Zm-2.45-2h2.45v-4h0Z"/><path d="M81.11,44.44v5.93h-.8V44.44H78.2v-.71h5v.71Z"/><path d="M85.46,50.48a2.24,2.24,0,0,1-.91-.18,1.94,1.94,0,0,1-.69-.52,2.43,2.43,0,0,1-.45-.81,3.43,3.43,0,0,1-.15-1.06,3.51,3.51,0,0,1,.15-1,2.43,2.43,0,0,1,.45-.81,1.94,1.94,0,0,1,.69-.52,2.24,2.24,0,0,1,.91-.18,2.11,2.11,0,0,1,.89.18A1.9,1.9,0,0,1,87,46a2.12,2.12,0,0,1,.42.75,2.91,2.91,0,0,1,.15.95v.36H84.06v.23a1.63,1.63,0,0,0,.1.59,1.4,1.4,0,0,0,.28.47,1.38,1.38,0,0,0,.46.31,1.48,1.48,0,0,0,.61.11A1.39,1.39,0,0,0,86.86,49l.54.39a2,2,0,0,1-.74.82A2.23,2.23,0,0,1,85.46,50.48Zm0-4.49a1.48,1.48,0,0,0-.57.1,1.4,1.4,0,0,0-.44.31,1.49,1.49,0,0,0-.29.47,1.59,1.59,0,0,0-.1.59v.06h2.7v-.1a1.52,1.52,0,0,0-.35-1A1.24,1.24,0,0,0,85.46,46Z"/><path d="M88.83,50.37V45.46h.76v.79h0a2.43,2.43,0,0,1,.2-.35,1.2,1.2,0,0,1,.26-.29,1.38,1.38,0,0,1,.86-.26,1.85,1.85,0,0,1,.9.23,1.38,1.38,0,0,1,.6.76h0a1.47,1.47,0,0,1,.5-.69,1.52,1.52,0,0,1,1-.3,1.47,1.47,0,0,1,1.18.49,2.05,2.05,0,0,1,.42,1.38v3.15H94.8v-3a1.6,1.6,0,0,0-.26-1,.94.94,0,0,0-.81-.34,1.56,1.56,0,0,0-.44.06,1.49,1.49,0,0,0-.36.17.91.91,0,0,0-.26.29.93.93,0,0,0-.09.42v3.41h-.76v-3a1.6,1.6,0,0,0-.26-1,.93.93,0,0,0-.8-.34,1.49,1.49,0,0,0-.43.06,1.26,1.26,0,0,0-.37.17.81.81,0,0,0-.37.71v3.41Z"/><path d="M97.13,45.46h.76v.79h0a1.35,1.35,0,0,1,.55-.68,1.64,1.64,0,0,1,.88-.22,1.79,1.79,0,0,1,1.46.69,2.36,2.36,0,0,1,.4.81,4.12,4.12,0,0,1,0,2.13,2.56,2.56,0,0,1-.4.81,1.79,1.79,0,0,1-1.46.69,1.48,1.48,0,0,1-1.43-.9h0v2.68h-.76Zm2,4.34a1.32,1.32,0,0,0,1-.4,1.52,1.52,0,0,0,.37-1.07v-.84a1.49,1.49,0,0,0-.37-1.06,1.33,1.33,0,0,0-1-.41,2,2,0,0,0-.49.07,1.5,1.5,0,0,0-.4.2.77.77,0,0,0-.27.3.72.72,0,0,0-.1.38V48.8a.88.88,0,0,0,.1.43.8.8,0,0,0,.27.31,1.25,1.25,0,0,0,.4.2A2,2,0,0,0,99.15,49.8Z"/><path d="M104.48,50.48a2.21,2.21,0,0,1-.91-.18,1.86,1.86,0,0,1-.69-.52,2.43,2.43,0,0,1-.45-.81,3.43,3.43,0,0,1-.15-1.06,3.51,3.51,0,0,1,.15-1,2.43,2.43,0,0,1,.45-.81,1.86,1.86,0,0,1,.69-.52,2.21,2.21,0,0,1,.91-.18,2.07,2.07,0,0,1,.88.18,1.93,1.93,0,0,1,.67.5,2.28,2.28,0,0,1,.42.75,2.91,2.91,0,0,1,.15.95v.36h-3.53v.23a1.87,1.87,0,0,0,.1.59,1.61,1.61,0,0,0,.29.47,1.29,1.29,0,0,0,.46.31,1.48,1.48,0,0,0,.61.11,1.39,1.39,0,0,0,1.35-.84l.54.39a2,2,0,0,1-.74.82A2.23,2.23,0,0,1,104.48,50.48Zm0-4.49a1.48,1.48,0,0,0-.57.1,1.4,1.4,0,0,0-.44.31,1.33,1.33,0,0,0-.29.47,1.59,1.59,0,0,0-.11.59v.06h2.71v-.1a1.52,1.52,0,0,0-.35-1A1.24,1.24,0,0,0,104.48,46Z"/><path d="M107.85,50.37V45.46h.76v.91h0a1.5,1.5,0,0,1,.47-.63,1.45,1.45,0,0,1,1-.28h.29v.76h-.45a1.66,1.66,0,0,0-1,.24.68.68,0,0,0-.35.58v3.33Z"/><path d="M114.86,50.37a.75.75,0,0,1-.61-.23,1.17,1.17,0,0,1-.23-.57h0a1.26,1.26,0,0,1-.53.68,1.68,1.68,0,0,1-.89.23,1.72,1.72,0,0,1-1.21-.4,1.44,1.44,0,0,1-.43-1.08,1.25,1.25,0,0,1,.51-1.07,2.77,2.77,0,0,1,1.58-.37h1v-.48a1.05,1.05,0,0,0-.28-.8,1.25,1.25,0,0,0-.88-.28,1.32,1.32,0,0,0-.74.2,1.63,1.63,0,0,0-.5.54l-.46-.43a1.73,1.73,0,0,1,.64-.68,2,2,0,0,1,1.1-.28,2,2,0,0,1,1.39.44,1.52,1.52,0,0,1,.49,1.21v2.69h.56v.68Zm-2.18-.54a2.12,2.12,0,0,0,.52-.06,1.42,1.42,0,0,0,.41-.19,1.23,1.23,0,0,0,.27-.29.7.7,0,0,0,.09-.35v-.81h-1a1.91,1.91,0,0,0-.95.19.62.62,0,0,0-.3.55v.2a.67.67,0,0,0,.26.56A1.09,1.09,0,0,0,112.68,49.83Z"/><path d="M117.46,50.37a.79.79,0,0,1-.61-.23.85.85,0,0,1-.2-.58V46.14h-.81v-.68h.46a.42.42,0,0,0,.33-.1.45.45,0,0,0,.1-.34V44.1h.68v1.36h1.07v.68h-1.07v3.55h1v.68Z"/><path d="M122.73,49.58h0a2.68,2.68,0,0,1-.18.33,1.5,1.5,0,0,1-.27.29,1.2,1.2,0,0,1-.39.2,1.75,1.75,0,0,1-.54.08,1.53,1.53,0,0,1-1.2-.49,2,2,0,0,1-.45-1.38V45.46h.76v3c0,.88.37,1.32,1.12,1.32a1.61,1.61,0,0,0,.44,0,1.33,1.33,0,0,0,.38-.17,1.06,1.06,0,0,0,.27-.29.83.83,0,0,0,.1-.43v-3.4h.76v4.91h-.76Z"/><path d="M125.1,50.37V45.46h.76v.91h0a1.44,1.44,0,0,1,.48-.63,1.41,1.41,0,0,1,.94-.28h.29v.76h-.45a1.66,1.66,0,0,0-1,.24.68.68,0,0,0-.35.58v3.33Z"/><path d="M132.12,50.37a.77.77,0,0,1-.62-.23,1.17,1.17,0,0,1-.23-.57h-.05a1.26,1.26,0,0,1-.53.68,1.67,1.67,0,0,1-.88.23,1.73,1.73,0,0,1-1.22-.4,1.44,1.44,0,0,1-.43-1.08,1.25,1.25,0,0,1,.51-1.07,2.77,2.77,0,0,1,1.58-.37h1v-.48a1.05,1.05,0,0,0-.28-.8,1.24,1.24,0,0,0-.88-.28,1.32,1.32,0,0,0-.74.2,1.63,1.63,0,0,0-.5.54l-.46-.43a1.8,1.8,0,0,1,.64-.68,2.36,2.36,0,0,1,2.49.16A1.52,1.52,0,0,1,132,47v2.69h.56v.68Zm-2.19-.54a2.12,2.12,0,0,0,.52-.06,1.42,1.42,0,0,0,.41-.19,1.23,1.23,0,0,0,.27-.29.7.7,0,0,0,.09-.35v-.81h-1a1.91,1.91,0,0,0-1,.19.62.62,0,0,0-.3.55v.2a.67.67,0,0,0,.26.56A1.11,1.11,0,0,0,129.93,49.83Z"/><path d="M139,49.58h0a1.48,1.48,0,0,1-1.43.9,1.79,1.79,0,0,1-1.46-.69,2.56,2.56,0,0,1-.4-.81,4.12,4.12,0,0,1,0-2.13,2.36,2.36,0,0,1,.4-.81,1.79,1.79,0,0,1,1.46-.69,1.67,1.67,0,0,1,.88.22,1.35,1.35,0,0,1,.55.68h0V43.33h.76v7H139Zm-1.26.22a2,2,0,0,0,.49-.06,1.25,1.25,0,0,0,.4-.2.8.8,0,0,0,.27-.31.88.88,0,0,0,.1-.43V47a.72.72,0,0,0-.1-.38.77.77,0,0,0-.27-.3,1.5,1.5,0,0,0-.4-.2,2,2,0,0,0-.49-.07,1.33,1.33,0,0,0-1,.41,1.49,1.49,0,0,0-.37,1.06v.84a1.52,1.52,0,0,0,.37,1.07A1.32,1.32,0,0,0,137.74,49.8Z"/><path d="M144.94,50.37a.74.74,0,0,1-.61-.23,1.18,1.18,0,0,1-.24-.57h0a1.28,1.28,0,0,1-.54.68,1.65,1.65,0,0,1-.88.23,1.7,1.7,0,0,1-1.21-.4A1.4,1.4,0,0,1,141,49a1.25,1.25,0,0,1,.51-1.07,2.72,2.72,0,0,1,1.58-.37h1v-.48a1.06,1.06,0,0,0-.29-.8,1.23,1.23,0,0,0-.87-.28,1.35,1.35,0,0,0-.75.2,1.74,1.74,0,0,0-.5.54l-.45-.43a1.7,1.7,0,0,1,.63-.68,2.36,2.36,0,0,1,2.49.16,1.52,1.52,0,0,1,.5,1.21v2.69h.56v.68Zm-2.19-.54a2.2,2.2,0,0,0,.53-.06,1.72,1.72,0,0,0,.41-.19,1,1,0,0,0,.26-.29.71.71,0,0,0,.1-.35v-.81h-1a1.92,1.92,0,0,0-1,.19.61.61,0,0,0-.29.55v.2a.65.65,0,0,0,.26.56A1.08,1.08,0,0,0,142.75,49.83Z"/><path d="M150.63,50.48a2.81,2.81,0,0,1-1.38-.31,3,3,0,0,1-1-.85l.59-.49a2.67,2.67,0,0,0,.78.7,1.94,1.94,0,0,0,1,.25,1.57,1.57,0,0,0,1.09-.35,1.16,1.16,0,0,0,.37-.91.94.94,0,0,0-.28-.73,2.18,2.18,0,0,0-.94-.41l-.55-.12a3.21,3.21,0,0,1-1.39-.63,1.52,1.52,0,0,1-.48-1.2,1.86,1.86,0,0,1,.16-.77,1.59,1.59,0,0,1,.45-.57,2,2,0,0,1,.7-.35,3.09,3.09,0,0,1,.89-.12,2.66,2.66,0,0,1,1.28.28,2.48,2.48,0,0,1,.91.8l-.6.44a2.1,2.1,0,0,0-.66-.6,2,2,0,0,0-1-.22,1.63,1.63,0,0,0-1,.27.94.94,0,0,0-.37.82.84.84,0,0,0,.31.71,2.38,2.38,0,0,0,.93.39l.55.12a2.81,2.81,0,0,1,1.41.67,1.61,1.61,0,0,1,.44,1.18,2,2,0,0,1-.16.83,1.59,1.59,0,0,1-.45.63,2.17,2.17,0,0,1-.72.4A3.11,3.11,0,0,1,150.63,50.48Z"/><path d="M157.23,49.58h0a2.68,2.68,0,0,1-.18.33,1.24,1.24,0,0,1-.27.29,1.2,1.2,0,0,1-.39.2,1.69,1.69,0,0,1-.53.08,1.55,1.55,0,0,1-1.21-.49,2,2,0,0,1-.45-1.38V45.46h.76v3c0,.88.38,1.32,1.12,1.32a1.68,1.68,0,0,0,.45,0,1.63,1.63,0,0,0,.38-.17.89.89,0,0,0,.26-.29.83.83,0,0,0,.1-.43v-3.4H158v4.91h-.76Z"/><path d="M159.61,45.46h.76v.79h0a1.42,1.42,0,0,1,.56-.68,1.64,1.64,0,0,1,.88-.22,1.79,1.79,0,0,1,1.46.69,2.56,2.56,0,0,1,.4.81,4.43,4.43,0,0,1,0,2.13,2.79,2.79,0,0,1-.4.81,1.79,1.79,0,0,1-1.46.69,1.5,1.5,0,0,1-1.44-.9h0v2.68h-.76Zm2,4.34a1.32,1.32,0,0,0,1-.4,1.56,1.56,0,0,0,.37-1.07v-.84a1.54,1.54,0,0,0-.37-1.06,1.33,1.33,0,0,0-1-.41,2,2,0,0,0-.49.07,1.5,1.5,0,0,0-.4.2.77.77,0,0,0-.27.3.72.72,0,0,0-.1.38V48.8a.88.88,0,0,0,.1.43.8.8,0,0,0,.27.31,1.25,1.25,0,0,0,.4.2A2,2,0,0,0,161.63,49.8Z"/><path d="M167,50.48a2.21,2.21,0,0,1-.91-.18,1.86,1.86,0,0,1-.69-.52,2.43,2.43,0,0,1-.45-.81,3.42,3.42,0,0,1-.16-1.06,3.5,3.5,0,0,1,.16-1,2.43,2.43,0,0,1,.45-.81,1.86,1.86,0,0,1,.69-.52,2.21,2.21,0,0,1,.91-.18,2.07,2.07,0,0,1,.88.18,1.93,1.93,0,0,1,.67.5,2.28,2.28,0,0,1,.42.75,2.91,2.91,0,0,1,.15.95v.36h-3.53v.23a1.87,1.87,0,0,0,.1.59,1.42,1.42,0,0,0,.29.47,1.34,1.34,0,0,0,.45.31,1.48,1.48,0,0,0,2-.73l.54.39a2,2,0,0,1-.74.82A2.23,2.23,0,0,1,167,50.48ZM167,46a1.48,1.48,0,0,0-.57.1,1.4,1.4,0,0,0-.44.31,1.33,1.33,0,0,0-.29.47,1.59,1.59,0,0,0-.11.59v.06h2.71v-.1a1.48,1.48,0,0,0-.36-1A1.2,1.2,0,0,0,167,46Z"/><path d="M170.33,50.37V45.46h.76v.91h0a1.5,1.5,0,0,1,.47-.63,1.44,1.44,0,0,1,.94-.28h.3v.76h-.45a1.66,1.66,0,0,0-1,.24.68.68,0,0,0-.35.58v3.33Z"/><path d="M174.12,46.14h-.8v-.68h.8v-1a1.21,1.21,0,0,1,.27-.82,1,1,0,0,1,.81-.32h.74V44h-1.06v1.45h1.06v.68h-1.06v4.23h-.76Z"/><path d="M177.39,44.81l-.49-.23.8-1.62.7.34Zm-.46,5.56V45.46h.76v4.91Z"/><path d="M181.13,50.48a2.25,2.25,0,0,1-.92-.18,1.94,1.94,0,0,1-.69-.51,2.4,2.4,0,0,1-.42-.81,3.86,3.86,0,0,1,0-2.13,2.22,2.22,0,0,1,.42-.81,1.94,1.94,0,0,1,.69-.51,2.25,2.25,0,0,1,.92-.18A1.83,1.83,0,0,1,183,46.5l-.64.32a1.14,1.14,0,0,0-.44-.59,1.29,1.29,0,0,0-.76-.21,1.55,1.55,0,0,0-.59.11,1.16,1.16,0,0,0-.43.31,1.23,1.23,0,0,0-.26.46,1.9,1.9,0,0,0-.08.6v.83a1.59,1.59,0,0,0,.34,1.06,1.24,1.24,0,0,0,1,.41,1.37,1.37,0,0,0,1.33-.85l.55.37a1.94,1.94,0,0,1-.7.85A2.18,2.18,0,0,1,181.13,50.48Z"/><path d="M184.47,44.31a.46.46,0,0,1-.36-.12.42.42,0,0,1-.11-.3v-.13a.47.47,0,0,1,.11-.31.5.5,0,0,1,.36-.12.49.49,0,0,1,.35.12.42.42,0,0,1,.11.31v.13a.39.39,0,0,1-.11.3A.45.45,0,0,1,184.47,44.31Zm-.38,1.15h.76v4.91h-.76Z"/><path d="M188.31,50.48a2.21,2.21,0,0,1-.91-.18,1.86,1.86,0,0,1-.69-.52,2.13,2.13,0,0,1-.45-.81,3.15,3.15,0,0,1-.16-1.06,3.21,3.21,0,0,1,.16-1,2.13,2.13,0,0,1,.45-.81,1.86,1.86,0,0,1,.69-.52,2.21,2.21,0,0,1,.91-.18,2.1,2.1,0,0,1,.88.18,1.81,1.81,0,0,1,.66.5,2.13,2.13,0,0,1,.43.75,2.91,2.91,0,0,1,.14.95v.36H186.9v.23a1.63,1.63,0,0,0,.1.59,1.58,1.58,0,0,0,.28.47,1.49,1.49,0,0,0,.46.31,1.51,1.51,0,0,0,.61.11,1.59,1.59,0,0,0,.82-.21,1.43,1.43,0,0,0,.53-.63l.54.39a1.82,1.82,0,0,1-.74.82A2.18,2.18,0,0,1,188.31,50.48Zm0-4.49a1.48,1.48,0,0,0-.57.1,1.44,1.44,0,0,0-.45.31,1.49,1.49,0,0,0-.29.47,1.59,1.59,0,0,0-.1.59v.06h2.71v-.1a1.48,1.48,0,0,0-.36-1A1.21,1.21,0,0,0,188.31,46Z"/><path d="M197.06,49.58h0a1.51,1.51,0,0,1-1.44.9,1.83,1.83,0,0,1-.82-.18,1.73,1.73,0,0,1-.63-.51,2.36,2.36,0,0,1-.4-.81,4.12,4.12,0,0,1,0-2.13,2.2,2.2,0,0,1,.4-.81,1.73,1.73,0,0,1,.63-.51,1.83,1.83,0,0,1,.82-.18,1.64,1.64,0,0,1,.88.22,1.37,1.37,0,0,1,.56.68h0V43.33h.76v7h-.76Zm-1.27.22a1.93,1.93,0,0,0,.49-.06,1.31,1.31,0,0,0,.41-.2.88.88,0,0,0,.37-.74V47a.83.83,0,0,0-.1-.38,1,1,0,0,0-.27-.3,1.56,1.56,0,0,0-.41-.2,1.93,1.93,0,0,0-.49-.07,1.29,1.29,0,0,0-1,.41,1.49,1.49,0,0,0-.37,1.06v.84a1.52,1.52,0,0,0,.37,1.07A1.28,1.28,0,0,0,195.79,49.8Z"/><path d="M201.28,50.48a2.19,2.19,0,0,1-.9-.18,2,2,0,0,1-.7-.52,2.43,2.43,0,0,1-.45-.81,3.15,3.15,0,0,1-.16-1.06,3.21,3.21,0,0,1,.16-1,2.43,2.43,0,0,1,.45-.81,2,2,0,0,1,.7-.52,2.34,2.34,0,0,1,1.8,0,2,2,0,0,1,.7.52,2.29,2.29,0,0,1,.46.81,3.5,3.5,0,0,1,.16,1,3.42,3.42,0,0,1-.16,1.06,2.29,2.29,0,0,1-.46.81,2,2,0,0,1-.7.52A2.19,2.19,0,0,1,201.28,50.48Zm0-.68a1.36,1.36,0,0,0,1-.38,1.52,1.52,0,0,0,.39-1.15v-.71a1.56,1.56,0,0,0-.39-1.16,1.41,1.41,0,0,0-1-.38,1.38,1.38,0,0,0-1,.38,1.56,1.56,0,0,0-.39,1.16v.71a1.52,1.52,0,0,0,.39,1.15A1.34,1.34,0,0,0,201.28,49.8Z"/><path d="M212.24,44.78h-.05l-.56,1.11L210,48.78l-1.58-2.89-.56-1.11h-.05v5.59h-.78V43.73h1.06l1.9,3.58h.05L212,43.73h1v6.64h-.78Z"/><path d="M218.27,50.37a.74.74,0,0,1-.61-.23,1.18,1.18,0,0,1-.24-.57h0a1.28,1.28,0,0,1-.54.68,1.65,1.65,0,0,1-.88.23,1.7,1.7,0,0,1-1.21-.4,1.4,1.4,0,0,1-.43-1.08,1.25,1.25,0,0,1,.51-1.07,2.72,2.72,0,0,1,1.58-.37h1v-.48a1.06,1.06,0,0,0-.29-.8,1.23,1.23,0,0,0-.87-.28,1.35,1.35,0,0,0-.75.2,1.74,1.74,0,0,0-.5.54l-.45-.43a1.7,1.7,0,0,1,.63-.68,2.36,2.36,0,0,1,2.49.16,1.52,1.52,0,0,1,.5,1.21v2.69h.56v.68Zm-2.19-.54a2.2,2.2,0,0,0,.53-.06,1.55,1.55,0,0,0,.41-.19,1,1,0,0,0,.26-.29.71.71,0,0,0,.1-.35v-.81h-1a1.85,1.85,0,0,0-1,.19.6.6,0,0,0-.3.55v.2a.65.65,0,0,0,.26.56A1.08,1.08,0,0,0,216.08,49.83Z"/><path d="M219.78,50.37V45.46h.76v.91h.05a1.5,1.5,0,0,1,.47-.63,1.42,1.42,0,0,1,.94-.28h.3v.76h-.45a1.66,1.66,0,0,0-1,.24.68.68,0,0,0-.35.58v3.33Z"/><path d="M227.73,47.4a6.35,6.35,0,0,1,.14-1.32,6,6,0,0,1,.36-1.18,5.19,5.19,0,0,1,.55-1,4.26,4.26,0,0,1,.67-.77h.72a5.57,5.57,0,0,0-.71.82,4.88,4.88,0,0,0-.54,1,5.63,5.63,0,0,0-.35,1,4.6,4.6,0,0,0-.13,1v.82a4.69,4.69,0,0,0,.13,1,5.63,5.63,0,0,0,.35,1,5.49,5.49,0,0,0,.55,1,4.51,4.51,0,0,0,.7.8h-.72a4.39,4.39,0,0,1-.66-.74,6,6,0,0,1-.55-1,7.19,7.19,0,0,1-.37-1.19A6.55,6.55,0,0,1,227.73,47.4Z"/><path d="M232,47a1.36,1.36,0,0,1-1.09-.45,2.23,2.23,0,0,1,0-2.52,1.53,1.53,0,0,1,2.17,0,2.23,2.23,0,0,1,0,2.52A1.35,1.35,0,0,1,232,47Zm0-.49a.76.76,0,0,0,.62-.26,1.07,1.07,0,0,0,.2-.67V45a1.07,1.07,0,0,0-.2-.67.88.88,0,0,0-1.25,0,1.07,1.07,0,0,0-.2.67v.58a1.07,1.07,0,0,0,.2.67A.77.77,0,0,0,232,46.55Z"/><path d="M237.13,50.48a2.42,2.42,0,0,1-2-.86,3.91,3.91,0,0,1-.7-2.53,4.08,4.08,0,0,1,.7-2.57,2.36,2.36,0,0,1,2-.9,2.5,2.5,0,0,1,1.4.38,2.44,2.44,0,0,1,.88,1.06l-.65.39a1.8,1.8,0,0,0-.61-.82,1.67,1.67,0,0,0-1-.31,1.74,1.74,0,0,0-.77.17,1.57,1.57,0,0,0-.57.46,2.24,2.24,0,0,0-.35.71,3,3,0,0,0-.13.93v1a2.44,2.44,0,0,0,.48,1.61,1.62,1.62,0,0,0,1.34.59,1.68,1.68,0,0,0,1.06-.33,1.86,1.86,0,0,0,.63-.87l.64.4a2.53,2.53,0,0,1-.91,1.1A2.45,2.45,0,0,1,237.13,50.48Z"/><path d="M242.2,47.4a6.55,6.55,0,0,1-.14,1.34,6.35,6.35,0,0,1-.37,1.19,5.31,5.31,0,0,1-.54,1,4,4,0,0,1-.67.74h-.72a5,5,0,0,0,.7-.8,6.14,6.14,0,0,0,.54-1,5.66,5.66,0,0,0,.36-1,4.15,4.15,0,0,0,.13-1V47a4.08,4.08,0,0,0-.13-1,5.59,5.59,0,0,0-.34-1,6.14,6.14,0,0,0-.54-1,5.64,5.64,0,0,0-.72-.82h.72a4.3,4.3,0,0,1,.68.77,5.17,5.17,0,0,1,.54,1,6,6,0,0,1,.37,1.18A6.36,6.36,0,0,1,242.2,47.4Z"/></svg>