<svg id="Camada_1" data-name="Camada 1" xmlns="http://www.w3.org/2000/svg" viewBox="0 0 320.28 57.45"><defs><style>.cls-1{opacity:0.75;}.cls-2{fill:#fff;}.cls-3{fill:#939393;}.cls-4{fill:#eb2b20;}.cls-5{fill:#d6111f;}.cls-6{fill:#bd0026;}.cls-7{fill:#0868ac;}.cls-8{fill:#001476;}.cls-9{fill:#081d58;}.cls-10{fill:#2b8cbe;}.cls-11{fill:#7bccc4;}.cls-12{fill:#a8ddb5;}.cls-13{fill:#ccebc5;}.cls-14{fill:#e0f3db;}.cls-15{fill:#ffc;}.cls-16{fill:#ffeda0;}.cls-17{fill:#fed976;}.cls-18{fill:#feb24c;}.cls-19{fill:#fc4e2a;}</style></defs><title>LEGENDAS - ESCALA</title><g class="cls-1"><path class="cls-2" d="M0,6.38C0,2.86,3.19,0,7.12,0h306c3.93,0,7.12,2.86,7.12,6.38V51.07c0,3.52-3.19,6.38-7.12,6.38H7.12C3.19,57.45,0,54.59,0,51.07Z"/></g><path class="cls-2" d="M166,23.58h5.47a2,2,0,0,0,2.11-2V10.68a2,2,0,0,0-2.11-2H166a2,2,0,0,0-2.11,2V21.61A2,2,0,0,0,166,23.58Z"/><path class="cls-3" d="M163.62,21.61V10.68A2.3,2.3,0,0,1,166,8.46h5.47a2.3,2.3,0,0,1,2.36,2.22V21.61a2.29,2.29,0,0,1-2.36,2.22H166A2.29,2.29,0,0,1,163.62,21.61ZM166,9a1.8,1.8,0,0,0-1.86,1.72V21.61A1.8,1.8,0,0,0,166,23.33h5.47a1.8,1.8,0,0,0,1.86-1.72V10.68A1.8,1.8,0,0,0,171.45,9Z"/><path class="cls-4" d="M46.38,23.58h5.46a2,2,0,0,0,2.11-2V10.68a2,2,0,0,0-2.11-2H46.38a2,2,0,0,0-2.11,2V21.61A2,2,0,0,0,46.38,23.58Z"/><path class="cls-5" d="M29.29,23.58h5.47a2,2,0,0,0,2.11-2V10.68a2,2,0,0,0-2.11-2H29.29a2,2,0,0,0-2.11,2V21.61A2,2,0,0,0,29.29,23.58Z"/><path class="cls-6" d="M12.2,23.58h5.47a2,2,0,0,0,2.11-2V10.68a2,2,0,0,0-2.11-2H12.2a2,2,0,0,0-2.11,2V21.61A2,2,0,0,0,12.2,23.58Z"/><path class="cls-7" d="M268.58,23.58h5.47a2,2,0,0,0,2.11-2V10.68a2,2,0,0,0-2.11-2h-5.47a2,2,0,0,0-2.11,2V21.61A2.05,2.05,0,0,0,268.58,23.58Z"/><path class="cls-8" d="M285.53,23.58H291a2,2,0,0,0,2.11-2V10.68a2,2,0,0,0-2.11-2h-5.47a2,2,0,0,0-2.11,2V21.61A2,2,0,0,0,285.53,23.58Z"/><path class="cls-9" d="M302.61,23.58h5.47a2,2,0,0,0,2.11-2V10.68a2,2,0,0,0-2.11-2h-5.47a2,2,0,0,0-2.11,2V21.61A2,2,0,0,0,302.61,23.58Z"/><path class="cls-10" d="M251.5,23.58H257a2,2,0,0,0,2.11-2V10.68a2,2,0,0,0-2.11-2H251.5a2,2,0,0,0-2.11,2V21.61A2,2,0,0,0,251.5,23.58Z"/><path class="cls-11" d="M234.41,23.58h5.46a2,2,0,0,0,2.11-2V10.68a2,2,0,0,0-2.11-2h-5.46a2,2,0,0,0-2.11,2V21.61A2,2,0,0,0,234.41,23.58Z"/><path class="cls-12" d="M217.33,23.58h5.46a2,2,0,0,0,2.11-2V10.68a2,2,0,0,0-2.11-2h-5.46a2,2,0,0,0-2.11,2V21.61A2,2,0,0,0,217.33,23.58Z"/><path class="cls-13" d="M200.24,23.58h5.47a2,2,0,0,0,2.1-2V10.68a2,2,0,0,0-2.1-2h-5.47a2,2,0,0,0-2.11,2V21.61A2,2,0,0,0,200.24,23.58Z"/><path class="cls-14" d="M183.15,23.58h5.47a2,2,0,0,0,2.11-2V10.68a2,2,0,0,0-2.11-2h-5.47a2,2,0,0,0-2.11,2V21.61A2,2,0,0,0,183.15,23.58Z"/><path class="cls-2" d="M148.89,23.58h5.47a2,2,0,0,0,2.11-2V10.68a2,2,0,0,0-2.11-2h-5.47a2,2,0,0,0-2.11,2V21.61A2.05,2.05,0,0,0,148.89,23.58Z"/><path class="cls-3" d="M146.53,21.61V10.68a2.3,2.3,0,0,1,2.36-2.22h5.47a2.3,2.3,0,0,1,2.36,2.22V21.61a2.29,2.29,0,0,1-2.36,2.22h-5.47A2.29,2.29,0,0,1,146.53,21.61ZM148.89,9A1.8,1.8,0,0,0,147,10.68V21.61a1.8,1.8,0,0,0,1.86,1.72h5.47a1.8,1.8,0,0,0,1.86-1.72V10.68A1.8,1.8,0,0,0,154.36,9Z"/><path class="cls-15" d="M131.81,23.58h5.47a2,2,0,0,0,2.11-2V10.68a2,2,0,0,0-2.11-2h-5.47a2,2,0,0,0-2.11,2V21.61A2,2,0,0,0,131.81,23.58Z"/><path class="cls-16" d="M114.72,23.58h5.47a2,2,0,0,0,2.11-2V10.68a2,2,0,0,0-2.11-2h-5.47a2,2,0,0,0-2.11,2V21.61A2.05,2.05,0,0,0,114.72,23.58Z"/><path class="cls-17" d="M97.63,23.58h5.47a2,2,0,0,0,2.11-2V10.68a2,2,0,0,0-2.11-2H97.63a2,2,0,0,0-2.1,2V21.61A2,2,0,0,0,97.63,23.58Z"/><path class="cls-18" d="M80.55,23.58H86a2,2,0,0,0,2.11-2V10.68a2,2,0,0,0-2.11-2H80.55a2,2,0,0,0-2.1,2V21.61A2,2,0,0,0,80.55,23.58Z"/><path class="cls-19" d="M63.47,23.58h5.46a2,2,0,0,0,2.11-2V10.68a2,2,0,0,0-2.11-2H63.47a2,2,0,0,0-2.11,2V21.61A2,2,0,0,0,63.47,23.58Z"/><path d="M53.72,34.08v-.81H56.2v.81Z"/><path d="M59.33,32.72a1.47,1.47,0,0,0,1-.3,1,1,0,0,0,.34-.79v-.07a.92.92,0,0,0-.33-.78,1.36,1.36,0,0,0-.86-.26,1.4,1.4,0,0,0-.83.22,1.69,1.69,0,0,0-.54.61l-.58-.46a2.55,2.55,0,0,1,.3-.39,1.73,1.73,0,0,1,.41-.34,1.85,1.85,0,0,1,.55-.25,2.6,2.6,0,0,1,.71-.09,2.56,2.56,0,0,1,.79.11,1.83,1.83,0,0,1,.64.32,1.56,1.56,0,0,1,.43.52,1.65,1.65,0,0,1,.16.71,1.72,1.72,0,0,1-.1.58,1.48,1.48,0,0,1-.27.44,1.42,1.42,0,0,1-.41.32,1.69,1.69,0,0,1-.5.2v0a2,2,0,0,1,.52.19,1.45,1.45,0,0,1,.45.33,1.57,1.57,0,0,1,.31.5,1.69,1.69,0,0,1,.12.66,1.86,1.86,0,0,1-.16.79,1.73,1.73,0,0,1-.46.61,2,2,0,0,1-.71.39,2.73,2.73,0,0,1-.92.15,2.86,2.86,0,0,1-.76-.1,2.1,2.1,0,0,1-.59-.25A2.73,2.73,0,0,1,57.6,36a3.31,3.31,0,0,1-.35-.41l.6-.46a2.42,2.42,0,0,0,.27.36,1.75,1.75,0,0,0,.33.28,1.53,1.53,0,0,0,.41.17,2,2,0,0,0,.53.06,1.51,1.51,0,0,0,1.06-.32,1.14,1.14,0,0,0,.36-.91v-.08a1.15,1.15,0,0,0-.36-.91,1.51,1.51,0,0,0-1.06-.32h-.78v-.71Z"/><path d="M19.3,34.08v-.81h2.48v.81Z"/><path d="M26,36.56v-1.3h-3.2v-.7l2.78-4.63h1.18V34.6h1v.66h-1v1.3Zm-2.45-2H26V30.55h0Z"/><path d="M87.76,34.08v-.81h2.48v.81Z"/><path d="M96,36.56H91.61v-.81l2.16-2a4.71,4.71,0,0,0,.78-.91,1.75,1.75,0,0,0,.32-1v-.11a1.28,1.28,0,0,0-.31-.9,1.19,1.19,0,0,0-.92-.34,1.44,1.44,0,0,0-.53.09,1.23,1.23,0,0,0-.4.23,1.22,1.22,0,0,0-.27.36,2.89,2.89,0,0,0-.18.44l-.71-.27a2.72,2.72,0,0,1,.26-.58,1.79,1.79,0,0,1,.42-.49,1.91,1.91,0,0,1,.61-.35,2.39,2.39,0,0,1,.84-.13,2.54,2.54,0,0,1,.86.14,1.66,1.66,0,0,1,.64.4,1.68,1.68,0,0,1,.39.61,1.92,1.92,0,0,1,.14.77,2.19,2.19,0,0,1-.11.73,2.6,2.6,0,0,1-.3.63,3.44,3.44,0,0,1-.46.58c-.18.19-.37.38-.58.57l-1.79,1.61H96Z"/><path d="M121.8,34.08v-.81h2.48v.81Z"/><path d="M125.77,36.56v-.7h1.85V30.52h-.07l-1.67,1.56-.46-.5,1.75-1.65h1.25v5.93h1.71v.7Z"/><path d="M160.14,36.68a1.88,1.88,0,0,1-1.74-.91,4.91,4.91,0,0,1-.54-2.52,4.93,4.93,0,0,1,.54-2.53,1.9,1.9,0,0,1,1.74-.9,1.87,1.87,0,0,1,1.73.9,4.82,4.82,0,0,1,.55,2.53,4.81,4.81,0,0,1-.55,2.52A1.86,1.86,0,0,1,160.14,36.68Zm0-.71a1.24,1.24,0,0,0,.66-.16,1.15,1.15,0,0,0,.45-.45,2.35,2.35,0,0,0,.25-.69,4.06,4.06,0,0,0,.08-.88V32.71a4,4,0,0,0-.08-.88,2.15,2.15,0,0,0-.25-.69,1.17,1.17,0,0,0-.45-.46,1.24,1.24,0,0,0-.66-.16,1.3,1.3,0,0,0-.67.16,1.22,1.22,0,0,0-.44.46,2.16,2.16,0,0,0-.26.69,4.71,4.71,0,0,0-.08.88v1.08a4.79,4.79,0,0,0,.08.88,2.36,2.36,0,0,0,.26.69,1.19,1.19,0,0,0,.44.45A1.3,1.3,0,0,0,160.14,36Z"/><path d="M192.45,36.56v-.7h1.85V30.52h-.06l-1.68,1.56-.46-.5,1.76-1.65h1.24v5.93h1.71v.7Z"/><path d="M230.84,36.56h-4.35v-.81l2.16-2a4.71,4.71,0,0,0,.78-.91,1.74,1.74,0,0,0,.31-1v-.11a1.32,1.32,0,0,0-.3-.9,1.19,1.19,0,0,0-.92-.34,1.44,1.44,0,0,0-.53.09,1.05,1.05,0,0,0-.4.23,1.22,1.22,0,0,0-.27.36,1.7,1.7,0,0,0-.18.44l-.71-.27a2.72,2.72,0,0,1,.26-.58,1.79,1.79,0,0,1,.42-.49,2,2,0,0,1,.6-.35,2.41,2.41,0,0,1,.85-.13,2.54,2.54,0,0,1,.86.14,1.74,1.74,0,0,1,.64.4,1.68,1.68,0,0,1,.39.61,2.11,2.11,0,0,1,.14.77,2.48,2.48,0,0,1-.11.73,2.6,2.6,0,0,1-.3.63,4,4,0,0,1-.46.58c-.18.19-.38.38-.58.57l-1.79,1.61h3.49Z"/><path d="M262.68,32.72a1.47,1.47,0,0,0,1-.3,1,1,0,0,0,.34-.79v-.07a.92.92,0,0,0-.33-.78,1.36,1.36,0,0,0-.86-.26,1.4,1.4,0,0,0-.83.22,1.58,1.58,0,0,0-.53.61l-.59-.46a2.55,2.55,0,0,1,.3-.39,1.73,1.73,0,0,1,.41-.34,1.85,1.85,0,0,1,.55-.25,2.6,2.6,0,0,1,.71-.09,2.56,2.56,0,0,1,.79.11,1.83,1.83,0,0,1,.64.32,1.45,1.45,0,0,1,.43.52,1.65,1.65,0,0,1,.16.71,1.72,1.72,0,0,1-.1.58,1.48,1.48,0,0,1-.27.44,1.42,1.42,0,0,1-.41.32,1.69,1.69,0,0,1-.5.2v0a2,2,0,0,1,.52.19,1.45,1.45,0,0,1,.45.33,1.57,1.57,0,0,1,.31.5,1.69,1.69,0,0,1,.12.66,1.86,1.86,0,0,1-.16.79,1.73,1.73,0,0,1-.46.61,2,2,0,0,1-.71.39,2.73,2.73,0,0,1-.92.15,2.86,2.86,0,0,1-.76-.1,2.1,2.1,0,0,1-.59-.25A2.73,2.73,0,0,1,261,36a3.31,3.31,0,0,1-.35-.41l.6-.46a2.42,2.42,0,0,0,.27.36,1.75,1.75,0,0,0,.33.28,1.53,1.53,0,0,0,.41.17,2.09,2.09,0,0,0,.53.06,1.51,1.51,0,0,0,1.06-.32,1.14,1.14,0,0,0,.36-.91v-.08a1.15,1.15,0,0,0-.36-.91,1.51,1.51,0,0,0-1.06-.32H262v-.71Z"/><path d="M297.58,36.56v-1.3h-3.2v-.7l2.77-4.63h1.19V34.6h1v.66h-1v1.3Zm-2.45-2h2.45V30.55h-.05Z"/><path d="M112.71,50.65l-.66-2h-2.68l-.67,2h-.8L110.21,44h1l2.32,6.63Zm-2-5.89h0L109.56,48h2.29Z"/><path d="M114.57,50.65V45.74h.76v.79h0a1.58,1.58,0,0,1,.51-.65,1.39,1.39,0,0,1,.88-.25,1.51,1.51,0,0,1,1.2.49,2,2,0,0,1,.44,1.38v3.15h-.76v-3c0-.88-.37-1.33-1.11-1.33a1.61,1.61,0,0,0-.44.06,1.46,1.46,0,0,0-.38.17,1,1,0,0,0-.28.29.93.93,0,0,0-.1.42v3.41Z"/><path d="M121.82,50.76a2.19,2.19,0,0,1-.9-.18,2,2,0,0,1-.7-.52,2.49,2.49,0,0,1-.45-.8,3.59,3.59,0,0,1,0-2.12,2.43,2.43,0,0,1,.45-.81,2,2,0,0,1,.7-.52,2.34,2.34,0,0,1,1.8,0,2,2,0,0,1,.7.52,2.29,2.29,0,0,1,.46.81,3.59,3.59,0,0,1,0,2.12,2.33,2.33,0,0,1-.46.8,2,2,0,0,1-.7.52A2.19,2.19,0,0,1,121.82,50.76Zm0-.67a1.41,1.41,0,0,0,1-.38,1.56,1.56,0,0,0,.39-1.16v-.71a1.56,1.56,0,0,0-.39-1.16,1.41,1.41,0,0,0-1-.38,1.38,1.38,0,0,0-1,.38,1.56,1.56,0,0,0-.39,1.16v.71a1.56,1.56,0,0,0,.39,1.16A1.38,1.38,0,0,0,121.82,50.09Z"/><path d="M125.29,50.65V45.74h.76v.79h0a3.9,3.9,0,0,1,.19-.35,1.48,1.48,0,0,1,.27-.29,1.29,1.29,0,0,1,.37-.19,1.41,1.41,0,0,1,.49-.07,1.82,1.82,0,0,1,.89.23,1.39,1.39,0,0,1,.61.76h0a1.48,1.48,0,0,1,1.49-1,1.45,1.45,0,0,1,1.17.49A2,2,0,0,1,132,47.5v3.15h-.76v-3a1.6,1.6,0,0,0-.26-1,1,1,0,0,0-.82-.34,1.54,1.54,0,0,0-.43.06,1.4,1.4,0,0,0-.37.17,1,1,0,0,0-.25.29.82.82,0,0,0-.1.42v3.41h-.76v-3a1.61,1.61,0,0,0-.25-1,1,1,0,0,0-.8-.34,1.61,1.61,0,0,0-.44.06,1.4,1.4,0,0,0-.37.17,1,1,0,0,0-.26.29.82.82,0,0,0-.1.42v3.41Z"/><path d="M137.15,50.65a.77.77,0,0,1-.62-.23,1.13,1.13,0,0,1-.23-.57h-.05a1.22,1.22,0,0,1-.53.68,1.93,1.93,0,0,1-2.09-.17,1.39,1.39,0,0,1-.44-1.08,1.25,1.25,0,0,1,.51-1.07,2.77,2.77,0,0,1,1.58-.37h1v-.48a1.07,1.07,0,0,0-.28-.8,1.24,1.24,0,0,0-.88-.27,1.26,1.26,0,0,0-.74.2,1.59,1.59,0,0,0-.5.53l-.46-.43a1.8,1.8,0,0,1,.64-.68,2,2,0,0,1,1.1-.28,2,2,0,0,1,1.39.44,1.52,1.52,0,0,1,.49,1.21V50h.56v.68ZM135,50.11a2.06,2.06,0,0,0,.52-.06,1.42,1.42,0,0,0,.41-.19.93.93,0,0,0,.27-.29.68.68,0,0,0,.09-.35v-.81h-1a1.92,1.92,0,0,0-1,.19.62.62,0,0,0-.3.55v.2a.7.7,0,0,0,.26.57A1.17,1.17,0,0,0,135,50.11Z"/><path d="M139.46,50.65a.78.78,0,0,1-.6-.23.77.77,0,0,1-.2-.56V43.62h.76V50h.72v.68Z"/><path d="M141.62,44.59a.49.49,0,0,1-.36-.11.46.46,0,0,1-.1-.31V44a.42.42,0,0,1,.1-.3.49.49,0,0,1,.36-.12.47.47,0,0,1,.36.12.42.42,0,0,1,.11.3v.13a.39.39,0,0,1-.47.42Zm-.38,1.15H142v4.91h-.76Z"/><path d="M147.18,50.65a.74.74,0,0,1-.61-.23,1.06,1.06,0,0,1-.24-.57h0a1.28,1.28,0,0,1-.54.68,1.65,1.65,0,0,1-.88.23,1.7,1.7,0,0,1-1.21-.4,1.39,1.39,0,0,1-.43-1.08,1.27,1.27,0,0,1,.5-1.07,2.78,2.78,0,0,1,1.59-.37h1v-.48a1.07,1.07,0,0,0-.29-.8,1.23,1.23,0,0,0-.87-.27,1.27,1.27,0,0,0-.75.2,1.59,1.59,0,0,0-.5.53l-.45-.43a1.7,1.7,0,0,1,.63-.68,2,2,0,0,1,1.1-.28,2,2,0,0,1,1.39.44,1.52,1.52,0,0,1,.5,1.21V50h.56v.68ZM145,50.11a2.2,2.2,0,0,0,.53-.06,1.48,1.48,0,0,0,.4-.19.82.82,0,0,0,.27-.29.68.68,0,0,0,.1-.35v-.81h-1a1.92,1.92,0,0,0-1,.19.62.62,0,0,0-.3.55v.2a.68.68,0,0,0,.27.57A1.14,1.14,0,0,0,145,50.11Z"/><path d="M154.06,49.86h0a1.51,1.51,0,0,1-1.44.9,1.83,1.83,0,0,1-.82-.18,1.86,1.86,0,0,1-.64-.51,2.44,2.44,0,0,1-.39-.81,4.12,4.12,0,0,1,0-2.13,2.44,2.44,0,0,1,.39-.81,1.86,1.86,0,0,1,.64-.51,1.83,1.83,0,0,1,.82-.18,1.64,1.64,0,0,1,.88.22,1.41,1.41,0,0,1,.56.68h0V43.62h.77v7h-.77Zm-1.26.23a1.93,1.93,0,0,0,.49-.07,1.16,1.16,0,0,0,.4-.2.92.92,0,0,0,.28-.31,1,1,0,0,0,.09-.43V47.25a.85.85,0,0,0-.09-.38,1.13,1.13,0,0,0-.28-.3,1.14,1.14,0,0,0-.4-.19,1.57,1.57,0,0,0-.49-.08,1.29,1.29,0,0,0-1,.41,1.52,1.52,0,0,0-.38,1.07v.84a1.51,1.51,0,0,0,.38,1.06A1.29,1.29,0,0,0,152.8,50.09Z"/><path d="M158.29,50.76a2.19,2.19,0,0,1-.9-.18,1.89,1.89,0,0,1-.7-.52,2.49,2.49,0,0,1-.45-.8,3.59,3.59,0,0,1,0-2.12,2.43,2.43,0,0,1,.45-.81,1.89,1.89,0,0,1,.7-.52,2.34,2.34,0,0,1,1.8,0,2,2,0,0,1,.7.52,2.27,2.27,0,0,1,.45.81,3.39,3.39,0,0,1,0,2.12,2.31,2.31,0,0,1-.45.8,2,2,0,0,1-.7.52A2.19,2.19,0,0,1,158.29,50.76Zm0-.67a1.41,1.41,0,0,0,1-.38,1.56,1.56,0,0,0,.39-1.16v-.71a1.56,1.56,0,0,0-.39-1.16,1.41,1.41,0,0,0-1-.38,1.38,1.38,0,0,0-1,.38,1.56,1.56,0,0,0-.39,1.16v.71a1.56,1.56,0,0,0,.39,1.16A1.38,1.38,0,0,0,158.29,50.09Z"/><path d="M165.59,50.65,163.38,44h.86l1.09,3.34.73,2.49h.05l.75-2.49L168,44h.83l-2.23,6.63Z"/><path d="M171.34,50.76a2.19,2.19,0,0,1-.9-.18,2,2,0,0,1-.7-.52,2.29,2.29,0,0,1-.44-.8,3.59,3.59,0,0,1,0-2.12,2.25,2.25,0,0,1,.44-.81,2,2,0,0,1,.7-.52,2.19,2.19,0,0,1,.9-.18,2.11,2.11,0,0,1,.89.18,1.93,1.93,0,0,1,.66.5,2.13,2.13,0,0,1,.43.75,3.22,3.22,0,0,1,.14,1v.36h-3.52v.22a1.63,1.63,0,0,0,.1.59,1.31,1.31,0,0,0,.28.47,1.33,1.33,0,0,0,.46.31,1.48,1.48,0,0,0,.61.12,1.53,1.53,0,0,0,.81-.22,1.45,1.45,0,0,0,.54-.63l.54.39a1.88,1.88,0,0,1-.74.82A2.19,2.19,0,0,1,171.34,50.76Zm0-4.49a1.38,1.38,0,0,0-.57.11,1.32,1.32,0,0,0-.44.3,1.49,1.49,0,0,0-.29.47,1.63,1.63,0,0,0-.1.59v.07h2.71V47.7a1.48,1.48,0,0,0-.36-1A1.22,1.22,0,0,0,171.34,46.27Z"/><path d="M174.72,50.65V45.74h.76v.79h0a1.58,1.58,0,0,1,.51-.65,1.39,1.39,0,0,1,.88-.25,1.51,1.51,0,0,1,1.2.49,2,2,0,0,1,.45,1.38v3.15h-.76v-3c0-.88-.37-1.33-1.12-1.33a1.67,1.67,0,0,0-.44.06,1.46,1.46,0,0,0-.38.17.81.81,0,0,0-.37.71v3.41Z"/><path d="M181.2,50.65a.79.79,0,0,1-.61-.23.83.83,0,0,1-.2-.58V46.42h-.81v-.68H180a.42.42,0,0,0,.33-.1.49.49,0,0,0,.1-.34v-.91h.68v1.35h1.07v.68h-1.07V50h1v.68Z"/><path d="M185.26,50.76a2.19,2.19,0,0,1-.9-.18,1.89,1.89,0,0,1-.7-.52,2.49,2.49,0,0,1-.45-.8,3.59,3.59,0,0,1,0-2.12,2.43,2.43,0,0,1,.45-.81,1.89,1.89,0,0,1,.7-.52,2.34,2.34,0,0,1,1.8,0,2,2,0,0,1,.7.52,2.27,2.27,0,0,1,.45.81,3.59,3.59,0,0,1,0,2.12,2.31,2.31,0,0,1-.45.8,2,2,0,0,1-.7.52A2.19,2.19,0,0,1,185.26,50.76Zm0-.67a1.41,1.41,0,0,0,1-.38,1.56,1.56,0,0,0,.39-1.16v-.71a1.56,1.56,0,0,0-.39-1.16,1.41,1.41,0,0,0-1-.38,1.37,1.37,0,0,0-1,.38,1.56,1.56,0,0,0-.39,1.16v.71a1.56,1.56,0,0,0,.39,1.16A1.37,1.37,0,0,0,185.26,50.09Z"/><path d="M191,47.68a6.43,6.43,0,0,1,.14-1.32,6,6,0,0,1,.36-1.18,5.19,5.19,0,0,1,.55-1,4.18,4.18,0,0,1,.67-.76h.72a5,5,0,0,0-.71.81,5.44,5.44,0,0,0-.54,1,5.63,5.63,0,0,0-.35,1,4.57,4.57,0,0,0-.12,1v.82a4.75,4.75,0,0,0,.12,1,5.78,5.78,0,0,0,.35,1,5.16,5.16,0,0,0,.55,1,4.51,4.51,0,0,0,.7.8h-.72a4.39,4.39,0,0,1-.66-.74,5.61,5.61,0,0,1-.55-1,7.19,7.19,0,0,1-.37-1.19A6.55,6.55,0,0,1,191,47.68Z"/><path d="M194.15,50.65V45.74h.76v.79h0a2.43,2.43,0,0,1,.2-.35,1.11,1.11,0,0,1,.63-.48,1.45,1.45,0,0,1,.49-.07,1.85,1.85,0,0,1,.9.23,1.38,1.38,0,0,1,.6.76h0a1.57,1.57,0,0,1,.5-.69,1.54,1.54,0,0,1,1-.3,1.47,1.47,0,0,1,1.18.49,2.07,2.07,0,0,1,.42,1.38v3.15h-.76v-3a1.54,1.54,0,0,0-.26-1,1,1,0,0,0-.81-.34,1.56,1.56,0,0,0-.44.06,1.49,1.49,0,0,0-.36.17,1,1,0,0,0-.26.29.93.93,0,0,0-.09.42v3.41h-.76v-3a1.6,1.6,0,0,0-.26-1,1,1,0,0,0-.8-.34,1.54,1.54,0,0,0-.43.06,1.26,1.26,0,0,0-.37.17,1.06,1.06,0,0,0-.27.29.93.93,0,0,0-.1.42v3.41Z"/><path d="M201.7,52.37l2.48-8.46h.68l-2.47,8.46Z"/><path d="M207.53,50.7a2.24,2.24,0,0,1-1.14-.26,2.39,2.39,0,0,1-.79-.7l.54-.43a2.15,2.15,0,0,0,.63.55,1.69,1.69,0,0,0,.82.2,1.23,1.23,0,0,0,.76-.21.71.71,0,0,0,.27-.59.69.69,0,0,0-.19-.49,1.08,1.08,0,0,0-.67-.28l-.39-.06a3.76,3.76,0,0,1-.62-.14,1.83,1.83,0,0,1-.5-.27,1.23,1.23,0,0,1-.34-.41,1.51,1.51,0,0,1-.11-.59,1.39,1.39,0,0,1,.13-.63,1.37,1.37,0,0,1,.36-.46,1.71,1.71,0,0,1,.56-.27,2.61,2.61,0,0,1,.69-.09,2.19,2.19,0,0,1,1,.21,2.15,2.15,0,0,1,.7.58l-.5.46a1.63,1.63,0,0,0-.47-.42,1.59,1.59,0,0,0-.79-.18,1.12,1.12,0,0,0-.72.2.71.71,0,0,0-.24.56.58.58,0,0,0,.24.52,1.73,1.73,0,0,0,.7.24l.38.06a2.05,2.05,0,0,1,1.16.47,1.21,1.21,0,0,1,.34.9,1.36,1.36,0,0,1-.49,1.12A1.94,1.94,0,0,1,207.53,50.7Z"/><path d="M212.38,47.68a6.55,6.55,0,0,1-.14,1.34,6.35,6.35,0,0,1-.37,1.19,5,5,0,0,1-.54,1,4,4,0,0,1-.67.74h-.72a5,5,0,0,0,.7-.8,6.14,6.14,0,0,0,.54-1,5.83,5.83,0,0,0,.36-1,4.23,4.23,0,0,0,.13-1v-.82a4.08,4.08,0,0,0-.13-1,5.59,5.59,0,0,0-.34-1,6.14,6.14,0,0,0-.54-1,5.08,5.08,0,0,0-.72-.81h.72a4.22,4.22,0,0,1,.68.76,5.17,5.17,0,0,1,.54,1,6,6,0,0,1,.37,1.18A6.42,6.42,0,0,1,212.38,47.68Z"/></svg>