<svg id="Camada_1" data-name="Camada 1" xmlns="http://www.w3.org/2000/svg" viewBox="0 0 320.4 57.45">
  <title>LEGENDAS_PÁGINA_CLIMA</title>
  <g style="opacity: 0.75">
    <path d="M0,6.38C0,2.86,3.19,0,7.12,0H313.28c3.94,0,7.12,2.86,7.12,6.38V51.07c0,3.52-3.18,6.38-7.12,6.38H7.12C3.19,57.45,0,54.59,0,51.07Z" style="fill: #fff"/>
  </g>
  <g>
    <path d="M49.33,33.14v-.69h2.11v.69Z"/>
    <path d="M52.7,35.24v-.6h1.57V30.12h-.06l-1.42,1.32L52.4,31l1.49-1.39h1v5h1.45v.6Z"/>
    <path d="M59.23,35.34a1.6,1.6,0,0,1-1.47-.77,4.23,4.23,0,0,1-.46-2.14,4.23,4.23,0,0,1,.46-2.14,1.8,1.8,0,0,1,2.94,0,4.12,4.12,0,0,1,.47,2.14,4.12,4.12,0,0,1-.47,2.14A1.6,1.6,0,0,1,59.23,35.34Zm0-.6a1,1,0,0,0,.57-.14,1,1,0,0,0,.37-.38,2,2,0,0,0,.22-.59,4.14,4.14,0,0,0,.07-.74V32a4.14,4.14,0,0,0-.07-.74,2,2,0,0,0-.22-.59,1,1,0,0,0-.37-.38,1.15,1.15,0,0,0-.57-.14,1.11,1.11,0,0,0-.56.14,1.06,1.06,0,0,0-.38.38,2,2,0,0,0-.21.59A3.38,3.38,0,0,0,58,32v.92a3.38,3.38,0,0,0,.07.74,2,2,0,0,0,.21.59,1,1,0,0,0,.38.38A1,1,0,0,0,59.23,34.74Z"/>
    <path d="M65.66,30.22H63.19L63,32.36h.06a1.61,1.61,0,0,1,.45-.45,1.27,1.27,0,0,1,.7-.17,1.85,1.85,0,0,1,.67.12,1.55,1.55,0,0,1,.53.34,1.48,1.48,0,0,1,.35.55,2.25,2.25,0,0,1,0,1.48,1.64,1.64,0,0,1-.37.59,1.67,1.67,0,0,1-.6.38,2.14,2.14,0,0,1-.79.14,2.33,2.33,0,0,1-.62-.08,2.12,2.12,0,0,1-.48-.22,2.2,2.2,0,0,1-.37-.3,3.07,3.07,0,0,1-.28-.35l.5-.39a2.49,2.49,0,0,0,.23.31,1.09,1.09,0,0,0,.25.23,1.66,1.66,0,0,0,.33.15,1.84,1.84,0,0,0,.44.05,1.15,1.15,0,0,0,.88-.31,1.17,1.17,0,0,0,.3-.86v-.08a1.17,1.17,0,0,0-.3-.86,1.15,1.15,0,0,0-.88-.31,1.17,1.17,0,0,0-.61.14,2.07,2.07,0,0,0-.39.33l-.58-.08.21-3.09h3Z"/>
  </g>
  <g>
    <path d="M15.14,33.14v-.69h2.1v.69Z"/>
    <path d="M18.51,35.24v-.6h1.57V30.12H20L18.6,31.44,18.21,31l1.49-1.39h1.05v5H22.2v.6Z"/>
    <path d="M26.63,30.22H24.17L24,32.36h.06a1.61,1.61,0,0,1,.45-.45,1.27,1.27,0,0,1,.7-.17,1.85,1.85,0,0,1,.67.12,1.55,1.55,0,0,1,.53.34,1.62,1.62,0,0,1,.35.55,2.25,2.25,0,0,1,0,1.48,1.64,1.64,0,0,1-.37.59,1.67,1.67,0,0,1-.6.38,2.14,2.14,0,0,1-.79.14,2.28,2.28,0,0,1-.62-.08A2.12,2.12,0,0,1,23.9,35a2.2,2.2,0,0,1-.37-.3,3.07,3.07,0,0,1-.28-.35l.5-.39c.07.11.15.22.22.31a1.38,1.38,0,0,0,.26.23,1.43,1.43,0,0,0,.33.15,1.84,1.84,0,0,0,.44.05,1.15,1.15,0,0,0,.88-.31,1.17,1.17,0,0,0,.3-.86v-.08a1.17,1.17,0,0,0-.3-.86,1.15,1.15,0,0,0-.88-.31,1.17,1.17,0,0,0-.61.14,2.51,2.51,0,0,0-.4.33l-.57-.08.2-3.09h3Z"/>
    <path d="M29.87,35.34a1.6,1.6,0,0,1-1.47-.77,4.12,4.12,0,0,1-.46-2.14,4.12,4.12,0,0,1,.46-2.14,1.8,1.8,0,0,1,2.94,0,4.12,4.12,0,0,1,.46,2.14,4.12,4.12,0,0,1-.46,2.14A1.6,1.6,0,0,1,29.87,35.34Zm0-.6a1,1,0,0,0,.94-.52,1.72,1.72,0,0,0,.21-.59,3.38,3.38,0,0,0,.07-.74V32a3.38,3.38,0,0,0-.07-.74,1.72,1.72,0,0,0-.21-.59,1.06,1.06,0,0,0-.38-.38,1.19,1.19,0,0,0-1.12,0,1,1,0,0,0-.38.38,2,2,0,0,0-.22.59,4.18,4.18,0,0,0-.06.74v.92a4.18,4.18,0,0,0,.06.74,2,2,0,0,0,.22.59.93.93,0,0,0,.38.38A1,1,0,0,0,29.87,34.74Z"/>
  </g>
  <g>
    <path d="M85.87,33.14v-.69H88v.69Z"/>
    <path d="M91,35.34a1.94,1.94,0,0,1-.78-.15,1.62,1.62,0,0,1-.6-.43,1.78,1.78,0,0,1-.37-.68,2.84,2.84,0,0,1-.13-.9A3.79,3.79,0,0,1,89.25,32a5.23,5.23,0,0,1,.48-1,4.72,4.72,0,0,1,.65-.8,5.45,5.45,0,0,1,.69-.57h.87c-.3.22-.57.44-.8.64a4.23,4.23,0,0,0-.62.66,3.68,3.68,0,0,0-.45.73,3.64,3.64,0,0,0-.3.88h0a1.78,1.78,0,0,1,.52-.57,1.41,1.41,0,0,1,.83-.23,1.81,1.81,0,0,1,.67.12,1.45,1.45,0,0,1,.52.35,1.46,1.46,0,0,1,.34.55,1.8,1.8,0,0,1,.13.71,2.06,2.06,0,0,1-.13.76,1.66,1.66,0,0,1-1,1A2.11,2.11,0,0,1,91,35.34Zm0-.6a1.17,1.17,0,0,0,.87-.31,1.14,1.14,0,0,0,.31-.87v-.07a1.14,1.14,0,0,0-.31-.87,1.17,1.17,0,0,0-.87-.31,1.08,1.08,0,0,0-1.17,1.18v.07a1.08,1.08,0,0,0,1.17,1.18Z"/>
    <path d="M97.37,30.22H94.9l-.16,2.14h.06a1.61,1.61,0,0,1,.45-.45,1.27,1.27,0,0,1,.7-.17,1.85,1.85,0,0,1,.67.12,1.55,1.55,0,0,1,.53.34,1.53,1.53,0,0,1,.35.54,2.13,2.13,0,0,1,.12.74,2,2,0,0,1-.13.75,1.64,1.64,0,0,1-.37.59,1.71,1.71,0,0,1-.59.38,2.24,2.24,0,0,1-.8.14,2.33,2.33,0,0,1-.62-.08,2.12,2.12,0,0,1-.48-.22,2.2,2.2,0,0,1-.37-.3,3.07,3.07,0,0,1-.28-.35l.51-.39a1.73,1.73,0,0,0,.22.31,1.37,1.37,0,0,0,.25.23,1.66,1.66,0,0,0,.33.15,1.84,1.84,0,0,0,.44.05,1.15,1.15,0,0,0,.88-.31,1.17,1.17,0,0,0,.3-.86v-.08a1.17,1.17,0,0,0-.3-.86,1.15,1.15,0,0,0-.88-.31,1.17,1.17,0,0,0-.61.14,1.75,1.75,0,0,0-.39.33l-.58-.08.21-3.09h3Z"/>
  </g>
  <g>
    <path d="M120.09,33.14v-.69h2.11v.69Z"/>
    <path d="M127,35.24h-3.69v-.69l1.84-1.69a4.28,4.28,0,0,0,.66-.77,1.49,1.49,0,0,0,.26-.82v-.1a1.12,1.12,0,0,0-.25-.76,1,1,0,0,0-.78-.29,1.42,1.42,0,0,0-.45.07,1.27,1.27,0,0,0-.34.2,1.19,1.19,0,0,0-.23.31,2,2,0,0,0-.15.37l-.6-.23a1.94,1.94,0,0,1,.22-.49,1.57,1.57,0,0,1,.35-.42,1.63,1.63,0,0,1,.52-.29,1.89,1.89,0,0,1,.71-.11,2.07,2.07,0,0,1,.73.12,1.45,1.45,0,0,1,.54.33,1.49,1.49,0,0,1,.33.52,1.76,1.76,0,0,1,.12.66,2,2,0,0,1-.09.61,2.17,2.17,0,0,1-.26.53,2.51,2.51,0,0,1-.39.5c-.15.16-.31.32-.49.48l-1.51,1.36h3Z"/>
    <path d="M131.59,30.22h-2.47L129,32.36H129a1.75,1.75,0,0,1,.45-.45,1.29,1.29,0,0,1,.7-.17,1.85,1.85,0,0,1,.67.12,1.55,1.55,0,0,1,.53.34,1.53,1.53,0,0,1,.35.54,2.13,2.13,0,0,1,.12.74,2.27,2.27,0,0,1-.12.75,1.66,1.66,0,0,1-.38.59,1.71,1.71,0,0,1-.59.38,2.24,2.24,0,0,1-.8.14,2.33,2.33,0,0,1-.62-.08,2.12,2.12,0,0,1-.48-.22,2.2,2.2,0,0,1-.37-.3,3.07,3.07,0,0,1-.28-.35l.51-.39a2.44,2.44,0,0,0,.22.31,1.37,1.37,0,0,0,.25.23,1.66,1.66,0,0,0,.33.15,1.84,1.84,0,0,0,.44.05,1.15,1.15,0,0,0,.88-.31,1.17,1.17,0,0,0,.3-.86v-.08a1.17,1.17,0,0,0-.3-.86,1.15,1.15,0,0,0-.88-.31,1.13,1.13,0,0,0-.6.14,1.8,1.8,0,0,0-.4.33l-.57-.08.2-3.09h3Z"/>
  </g>
  <path d="M160.21,35.34a1.57,1.57,0,0,1-1.46-.77,4.12,4.12,0,0,1-.47-2.14,4.12,4.12,0,0,1,.47-2.14,1.56,1.56,0,0,1,1.46-.76,1.59,1.59,0,0,1,1.47.76,4.12,4.12,0,0,1,.47,2.14,4.12,4.12,0,0,1-.47,2.14A1.6,1.6,0,0,1,160.21,35.34Zm0-.6a1,1,0,0,0,.57-.14,1.15,1.15,0,0,0,.38-.38,2.27,2.27,0,0,0,.21-.59,4.14,4.14,0,0,0,.07-.74V32a4.14,4.14,0,0,0-.07-.74,2.27,2.27,0,0,0-.21-.59,1,1,0,0,0-.95-.52,1.11,1.11,0,0,0-.56.14,1.15,1.15,0,0,0-.38.38,2,2,0,0,0-.21.59A3.38,3.38,0,0,0,159,32v.92a3.38,3.38,0,0,0,.07.74,2,2,0,0,0,.21.59,1.15,1.15,0,0,0,.38.38A1,1,0,0,0,160.21,34.74Z"/>
  <g>
    <path d="M193.85,35.24h-3.68v-.69L192,32.86a4.28,4.28,0,0,0,.66-.77,1.51,1.51,0,0,0,.27-.82v-.1a1.13,1.13,0,0,0-.26-.76,1,1,0,0,0-.78-.29,1.52,1.52,0,0,0-.45.07,1.27,1.27,0,0,0-.34.2,1.19,1.19,0,0,0-.23.31,2,2,0,0,0-.15.37l-.6-.23a1.94,1.94,0,0,1,.22-.49,1.57,1.57,0,0,1,.35-.42,1.63,1.63,0,0,1,.52-.29,1.93,1.93,0,0,1,.71-.11,2.07,2.07,0,0,1,.73.12,1.45,1.45,0,0,1,.54.33,1.51,1.51,0,0,1,.34.52,2.07,2.07,0,0,1,0,1.27,2.57,2.57,0,0,1-.25.53,3.56,3.56,0,0,1-.39.5c-.16.16-.32.32-.5.48l-1.51,1.36h2.95Z"/>
    <path d="M198.4,30.22h-2.46l-.17,2.14h.06a1.78,1.78,0,0,1,.46-.45,1.26,1.26,0,0,1,.69-.17,1.81,1.81,0,0,1,.67.12,1.55,1.55,0,0,1,.53.34,1.53,1.53,0,0,1,.35.54,2.12,2.12,0,0,1,.13.74,2.27,2.27,0,0,1-.13.75,1.66,1.66,0,0,1-.38.59,1.71,1.71,0,0,1-.59.38,2.22,2.22,0,0,1-.79.14,2.35,2.35,0,0,1-.63-.08,2.12,2.12,0,0,1-.48-.22,1.79,1.79,0,0,1-.36-.3,3.17,3.17,0,0,1-.29-.35l.51-.39a2.44,2.44,0,0,0,.22.31,1.43,1.43,0,0,0,.26.23,1.35,1.35,0,0,0,.32.15,1.93,1.93,0,0,0,.45.05,1.14,1.14,0,0,0,.87-.31,1.17,1.17,0,0,0,.3-.86v-.08a1.17,1.17,0,0,0-.3-.86,1.14,1.14,0,0,0-.87-.31,1.17,1.17,0,0,0-.61.14,1.8,1.8,0,0,0-.4.33l-.57-.08.2-3.09h3Z"/>
  </g>
  <g>
    <path d="M226.21,35.34a2,2,0,0,1-.79-.15,1.58,1.58,0,0,1-.59-.43,1.8,1.8,0,0,1-.38-.68,3.15,3.15,0,0,1-.13-.9,3.52,3.52,0,0,1,.19-1.18,4.27,4.27,0,0,1,.48-1,4.68,4.68,0,0,1,.64-.8,4.87,4.87,0,0,1,.7-.57h.87c-.3.22-.57.44-.81.64a4.77,4.77,0,0,0-.62.66,3.68,3.68,0,0,0-.45.73,4.77,4.77,0,0,0-.3.88h0a1.9,1.9,0,0,1,.52-.57,1.42,1.42,0,0,1,.84-.23,1.76,1.76,0,0,1,.66.12,1.49,1.49,0,0,1,.53.35,1.6,1.6,0,0,1,.34.55,2,2,0,0,1,.12.71,2.06,2.06,0,0,1-.13.76,1.66,1.66,0,0,1-.38.59,1.71,1.71,0,0,1-.59.38A2.1,2.1,0,0,1,226.21,35.34Zm0-.6a1.08,1.08,0,0,0,1.17-1.18v-.07a1.08,1.08,0,0,0-1.17-1.18A1.08,1.08,0,0,0,225,33.49v.07a1.08,1.08,0,0,0,1.18,1.18Z"/>
    <path d="M232.62,30.22h-2.46L230,32.36h.05a1.78,1.78,0,0,1,.46-.45,1.26,1.26,0,0,1,.69-.17,1.78,1.78,0,0,1,.67.12,1.46,1.46,0,0,1,.53.34,1.53,1.53,0,0,1,.35.54,1.92,1.92,0,0,1,.13.74,2,2,0,0,1-.13.75,1.79,1.79,0,0,1-.37.59,1.86,1.86,0,0,1-.6.38,2.18,2.18,0,0,1-.79.14,2.35,2.35,0,0,1-.63-.08,2.12,2.12,0,0,1-.48-.22,1.79,1.79,0,0,1-.36-.3,3.17,3.17,0,0,1-.29-.35l.51-.39a2.44,2.44,0,0,0,.22.31,1.43,1.43,0,0,0,.26.23,1.35,1.35,0,0,0,.32.15,1.93,1.93,0,0,0,.45.05,1.13,1.13,0,0,0,.87-.31,1.17,1.17,0,0,0,.3-.86v-.08a1.17,1.17,0,0,0-.3-.86,1.13,1.13,0,0,0-.87-.31,1.17,1.17,0,0,0-.61.14,1.8,1.8,0,0,0-.4.33l-.57-.08.2-3.09h3Z"/>
  </g>
  <g>
    <path d="M256.28,35.24v-.6h1.57V30.12h-.05l-1.42,1.32L256,31l1.48-1.39h1.06v5H260v.6Z"/>
    <path d="M262.82,35.34a1.6,1.6,0,0,1-1.47-.77,4.12,4.12,0,0,1-.46-2.14,4.12,4.12,0,0,1,.46-2.14,1.8,1.8,0,0,1,2.94,0,4.12,4.12,0,0,1,.46,2.14,4.12,4.12,0,0,1-.46,2.14A1.6,1.6,0,0,1,262.82,35.34Zm0-.6a1,1,0,0,0,.94-.52,1.72,1.72,0,0,0,.21-.59,3.38,3.38,0,0,0,.07-.74V32a3.38,3.38,0,0,0-.07-.74,1.72,1.72,0,0,0-.21-.59,1.06,1.06,0,0,0-.38-.38,1.08,1.08,0,0,0-.56-.14,1.15,1.15,0,0,0-.57.14,1,1,0,0,0-.37.38,2,2,0,0,0-.22.59,4.18,4.18,0,0,0-.06.74v.92a4.18,4.18,0,0,0,.06.74,2,2,0,0,0,.22.59,1,1,0,0,0,.37.38A1,1,0,0,0,262.82,34.74Z"/>
    <path d="M269.24,30.22h-2.46l-.16,2.14h.05a1.78,1.78,0,0,1,.46-.45,1.26,1.26,0,0,1,.69-.17,1.78,1.78,0,0,1,.67.12,1.46,1.46,0,0,1,.53.34,1.48,1.48,0,0,1,.35.55,1.83,1.83,0,0,1,.13.73,2,2,0,0,1-.13.75,1.79,1.79,0,0,1-.37.59,1.86,1.86,0,0,1-.6.38,2.18,2.18,0,0,1-.79.14,2.35,2.35,0,0,1-.63-.08,2.12,2.12,0,0,1-.48-.22,1.79,1.79,0,0,1-.36-.3,3.17,3.17,0,0,1-.29-.35l.51-.39a2.44,2.44,0,0,0,.22.31,1.13,1.13,0,0,0,.26.23,1.35,1.35,0,0,0,.32.15,2,2,0,0,0,.45.05,1.13,1.13,0,0,0,.87-.31,1.17,1.17,0,0,0,.3-.86v-.08a1.17,1.17,0,0,0-.3-.86,1.13,1.13,0,0,0-.87-.31,1.17,1.17,0,0,0-.61.14,2.13,2.13,0,0,0-.4.33l-.57-.08.2-3.09h3Z"/>
  </g>
  <g>
    <path d="M290.42,35.24v-.6H292V30.12h-.06l-1.41,1.32-.4-.43,1.49-1.39h1.06v5h1.44v.6Z"/>
    <path d="M298.55,30.22h-2.46l-.17,2.14H296a1.78,1.78,0,0,1,.46-.45,1.26,1.26,0,0,1,.69-.17,1.81,1.81,0,0,1,.67.12,1.55,1.55,0,0,1,.53.34,1.48,1.48,0,0,1,.35.55,2,2,0,0,1,.13.73,2.27,2.27,0,0,1-.13.75,1.66,1.66,0,0,1-.38.59,1.71,1.71,0,0,1-.59.38,2.22,2.22,0,0,1-.79.14,2.35,2.35,0,0,1-.63-.08,2.12,2.12,0,0,1-.48-.22,1.79,1.79,0,0,1-.36-.3,3.17,3.17,0,0,1-.29-.35l.51-.39a2.44,2.44,0,0,0,.22.31,1.13,1.13,0,0,0,.26.23,1.35,1.35,0,0,0,.32.15,1.93,1.93,0,0,0,.45.05,1.14,1.14,0,0,0,.87-.31,1.17,1.17,0,0,0,.3-.86v-.08a1.17,1.17,0,0,0-.3-.86,1.14,1.14,0,0,0-.87-.31,1.17,1.17,0,0,0-.61.14,2.13,2.13,0,0,0-.4.33l-.57-.08.2-3.09h3Z"/>
    <path d="M301.78,35.34a1.57,1.57,0,0,1-1.46-.77,4.12,4.12,0,0,1-.47-2.14,4.12,4.12,0,0,1,.47-2.14,1.56,1.56,0,0,1,1.46-.76,1.58,1.58,0,0,1,1.47.76,4.12,4.12,0,0,1,.47,2.14,4.12,4.12,0,0,1-.47,2.14A1.59,1.59,0,0,1,301.78,35.34Zm0-.6a1,1,0,0,0,.57-.14,1.06,1.06,0,0,0,.38-.38,2.27,2.27,0,0,0,.21-.59,3.38,3.38,0,0,0,.07-.74V32a3.38,3.38,0,0,0-.07-.74,2.27,2.27,0,0,0-.21-.59,1.15,1.15,0,0,0-.38-.38,1.12,1.12,0,0,0-.57-.14,1.11,1.11,0,0,0-.56.14,1.15,1.15,0,0,0-.38.38,2,2,0,0,0-.21.59,3.38,3.38,0,0,0-.07.74v.92a3.38,3.38,0,0,0,.07.74,2,2,0,0,0,.21.59,1.06,1.06,0,0,0,.38.38A1,1,0,0,0,301.78,34.74Z"/>
  </g>
  <g>
    <path d="M101,49.82,100.4,48H98l-.61,1.8h-.75l2.13-6.09h.93l2.13,6.09Zm-1.82-5.41h0l-1,3h2.1Z"/>
    <path d="M102.72,49.82v-4.5h.7v.73h0a1.43,1.43,0,0,1,.46-.61,1.32,1.32,0,0,1,.81-.22,1.41,1.41,0,0,1,1.1.45,1.82,1.82,0,0,1,.41,1.26v2.89h-.7V47.05c0-.81-.34-1.21-1-1.21a1.44,1.44,0,0,0-.41,0,.93.93,0,0,0-.35.16.78.78,0,0,0-.25.26.79.79,0,0,0-.09.38v3.13Z"/>
    <path d="M109.38,49.92a2,2,0,0,1-.83-.16,1.69,1.69,0,0,1-.64-.48,2.14,2.14,0,0,1-.42-.74,2.91,2.91,0,0,1-.15-1,3,3,0,0,1,.15-1,2.14,2.14,0,0,1,.42-.74,1.69,1.69,0,0,1,.64-.48,2.21,2.21,0,0,1,1.65,0,1.77,1.77,0,0,1,.64.48,2.14,2.14,0,0,1,.42.74,3,3,0,0,1,.15,1,2.91,2.91,0,0,1-.15,1,2.14,2.14,0,0,1-.42.74,1.77,1.77,0,0,1-.64.48A2,2,0,0,1,109.38,49.92Zm0-.62a1.28,1.28,0,0,0,.92-.34,1.44,1.44,0,0,0,.36-1.07v-.64a1.44,1.44,0,0,0-.36-1.07,1.43,1.43,0,0,0-1.85,0,1.44,1.44,0,0,0-.36,1.07v.64a1.44,1.44,0,0,0,.36,1.07A1.29,1.29,0,0,0,109.38,49.3Z"/>
    <path d="M112.56,49.82v-4.5h.7v.73h0a1.74,1.74,0,0,1,.18-.33,1.2,1.2,0,0,1,.24-.26,1,1,0,0,1,.34-.18,1.53,1.53,0,0,1,.45-.06,1.64,1.64,0,0,1,.82.21,1.27,1.27,0,0,1,.56.69h0a1.32,1.32,0,0,1,.46-.63,1.39,1.39,0,0,1,.91-.27,1.33,1.33,0,0,1,1.07.45,1.86,1.86,0,0,1,.39,1.26v2.89H118V47.05a1.46,1.46,0,0,0-.23-.91.9.9,0,0,0-.75-.3,1.33,1.33,0,0,0-.4,0,.78.78,0,0,0-.33.16.75.75,0,0,0-.24.26.79.79,0,0,0-.09.38v3.13h-.69V47.05a1.45,1.45,0,0,0-.24-.91.87.87,0,0,0-.73-.3,1.29,1.29,0,0,0-.4,0,.82.82,0,0,0-.34.16.75.75,0,0,0-.24.26.79.79,0,0,0-.09.38v3.13Z"/>
    <path d="M123.44,49.82a.68.68,0,0,1-.56-.21,1,1,0,0,1-.22-.52h0a1.16,1.16,0,0,1-.49.63,1.62,1.62,0,0,1-.81.2,1.58,1.58,0,0,1-1.11-.36,1.29,1.29,0,0,1-.4-1,1.13,1.13,0,0,1,.47-1,2.44,2.44,0,0,1,1.45-.34h.89V46.8a1,1,0,0,0-.26-.73,1.11,1.11,0,0,0-.8-.25,1.22,1.22,0,0,0-.69.18,1.67,1.67,0,0,0-.46.49L120,46.1a1.51,1.51,0,0,1,.58-.63,1.85,1.85,0,0,1,1-.25,1.83,1.83,0,0,1,1.27.4,1.36,1.36,0,0,1,.46,1.11V49.2h.51v.62Zm-2-.49a1.75,1.75,0,0,0,.48-.06,1.33,1.33,0,0,0,.38-.17,1,1,0,0,0,.24-.27.57.57,0,0,0,.09-.32v-.74h-.92a1.63,1.63,0,0,0-.88.18.56.56,0,0,0-.28.5v.18a.62.62,0,0,0,.24.52A1.07,1.07,0,0,0,121.43,49.33Z"/>
    <path d="M125.57,49.82a.72.72,0,0,1-.56-.21.74.74,0,0,1-.18-.51V43.37h.69V49.2h.67v.62Z"/>
    <path d="M127.55,44.27a.44.44,0,0,1-.33-.11.41.41,0,0,1-.1-.29v-.11a.37.37,0,0,1,.1-.28.4.4,0,0,1,.33-.11.38.38,0,0,1,.32.11.37.37,0,0,1,.1.28v.11a.37.37,0,0,1-.42.4Zm-.35,1h.69v4.5h-.69Z"/>
    <path d="M132.65,49.82a.7.7,0,0,1-.57-.21,1.06,1.06,0,0,1-.21-.52h0a1.16,1.16,0,0,1-.49.63,1.62,1.62,0,0,1-.81.2,1.58,1.58,0,0,1-1.11-.36,1.29,1.29,0,0,1-.4-1,1.1,1.1,0,0,1,.47-1,2.44,2.44,0,0,1,1.45-.34h.89V46.8a1,1,0,0,0-.26-.73,1.14,1.14,0,0,0-.81-.25,1.21,1.21,0,0,0-.68.18,1.55,1.55,0,0,0-.46.49l-.42-.39a1.54,1.54,0,0,1,.59-.63,1.82,1.82,0,0,1,1-.25,1.84,1.84,0,0,1,1.27.4,1.39,1.39,0,0,1,.45,1.11V49.2H133v.62Zm-2-.49a1.8,1.8,0,0,0,.48-.06,1.33,1.33,0,0,0,.38-.17,1,1,0,0,0,.24-.27.57.57,0,0,0,.09-.32v-.74h-.93A1.61,1.61,0,0,0,130,48a.54.54,0,0,0-.28.5v.18a.62.62,0,0,0,.24.52A1.07,1.07,0,0,0,130.64,49.33Z"/>
    <path d="M139,49.1h0a1.36,1.36,0,0,1-1.31.82,1.7,1.7,0,0,1-.76-.16,1.65,1.65,0,0,1-.58-.47,2.33,2.33,0,0,1-.37-.74,3.76,3.76,0,0,1,0-2,2.33,2.33,0,0,1,.37-.74,1.65,1.65,0,0,1,.58-.47,1.7,1.7,0,0,1,.76-.16,1.46,1.46,0,0,1,.8.2,1.16,1.16,0,0,1,.51.63h0V43.37h.69v6.45H139Zm-1.16.2a1.4,1.4,0,0,0,.45-.06,1.16,1.16,0,0,0,.37-.18,1,1,0,0,0,.25-.28.87.87,0,0,0,.09-.4V46.7a.69.69,0,0,0-.09-.34,1.12,1.12,0,0,0-.25-.28,1.41,1.41,0,0,0-.37-.18,1.74,1.74,0,0,0-.45-.06,1.21,1.21,0,0,0-.94.37,1.41,1.41,0,0,0-.34,1V48a1.41,1.41,0,0,0,.34,1A1.21,1.21,0,0,0,137.81,49.3Z"/>
    <path d="M142.84,49.92a2,2,0,0,1-.83-.16,1.77,1.77,0,0,1-.64-.48,2,2,0,0,1-.41-.74,2.91,2.91,0,0,1-.14-1,3,3,0,0,1,.14-1,2,2,0,0,1,.41-.74,1.77,1.77,0,0,1,.64-.48,2,2,0,0,1,.83-.16,1.92,1.92,0,0,1,.81.16,1.73,1.73,0,0,1,.61.46,1.94,1.94,0,0,1,.39.69,2.75,2.75,0,0,1,.13.88v.33h-3.23V48a1.51,1.51,0,0,0,.09.53,1.24,1.24,0,0,0,.26.43,1.06,1.06,0,0,0,.42.29,1.43,1.43,0,0,0,.56.1,1.34,1.34,0,0,0,.75-.2,1.31,1.31,0,0,0,.49-.57l.5.36a1.82,1.82,0,0,1-.68.75A2.07,2.07,0,0,1,142.84,49.92Zm0-4.12a1.32,1.32,0,0,0-.53.1,1.26,1.26,0,0,0-.4.28,1.57,1.57,0,0,0-.27.43,1.61,1.61,0,0,0-.09.54v.06H144v-.09a1.41,1.41,0,0,0-.32-1A1.12,1.12,0,0,0,142.84,45.8Z"/>
    <path d="M152,48.94h0a1.18,1.18,0,0,1-.56.7,2,2,0,0,1-1.14.28,2.44,2.44,0,0,1-1-.2,2.25,2.25,0,0,1-.8-.6,3.1,3.1,0,0,1-.52-1,5.15,5.15,0,0,1,0-2.7,2.91,2.91,0,0,1,.52-1,2.32,2.32,0,0,1,.82-.6,2.65,2.65,0,0,1,1.07-.21,2.42,2.42,0,0,1,1.36.36,2.39,2.39,0,0,1,.85,1l-.6.37a1.77,1.77,0,0,0-.63-.77,1.74,1.74,0,0,0-1-.28,1.78,1.78,0,0,0-.74.15,1.54,1.54,0,0,0-.57.41,1.78,1.78,0,0,0-.37.63,2.31,2.31,0,0,0-.13.82v1a2.35,2.35,0,0,0,.13.82,1.92,1.92,0,0,0,.37.64,1.62,1.62,0,0,0,.59.4,1.94,1.94,0,0,0,.78.15,2.35,2.35,0,0,0,.6-.08,1.56,1.56,0,0,0,.5-.25,1.14,1.14,0,0,0,.33-.42,1.22,1.22,0,0,0,.13-.59v-.6h-1.35v-.65h2.06v3.13H152Z"/>
    <path d="M155.74,49.92a2,2,0,0,1-.83-.16,1.77,1.77,0,0,1-.64-.48,2.29,2.29,0,0,1-.41-.74,3.2,3.2,0,0,1-.14-1,3.29,3.29,0,0,1,.14-1,2.29,2.29,0,0,1,.41-.74,1.77,1.77,0,0,1,.64-.48,2,2,0,0,1,.83-.16,1.92,1.92,0,0,1,.81.16,1.73,1.73,0,0,1,.61.46,1.94,1.94,0,0,1,.39.69,2.75,2.75,0,0,1,.14.88v.33h-3.24V48a1.51,1.51,0,0,0,.09.53,1.24,1.24,0,0,0,.26.43,1.22,1.22,0,0,0,.42.29,1.48,1.48,0,0,0,.57.1,1.3,1.3,0,0,0,.74-.2,1.25,1.25,0,0,0,.49-.57l.5.36a1.69,1.69,0,0,1-.68.75A2,2,0,0,1,155.74,49.92Zm0-4.12a1.27,1.27,0,0,0-.52.1,1.3,1.3,0,0,0-.41.28,1.34,1.34,0,0,0-.26.43,1.4,1.4,0,0,0-.1.54v.06h2.49v-.09a1.37,1.37,0,0,0-.33-1A1.12,1.12,0,0,0,155.74,45.8Z"/>
    <path d="M160.54,49.92a2,2,0,0,1-.83-.16,1.77,1.77,0,0,1-.64-.48,2.14,2.14,0,0,1-.42-.74,2.91,2.91,0,0,1-.14-1,3,3,0,0,1,.14-1,2.14,2.14,0,0,1,.42-.74,1.77,1.77,0,0,1,.64-.48,2,2,0,0,1,.83-.16,2,2,0,0,1,.82.16,1.77,1.77,0,0,1,.64.48,2.14,2.14,0,0,1,.42.74,3,3,0,0,1,.15,1,2.91,2.91,0,0,1-.15,1,2.14,2.14,0,0,1-.42.74,1.77,1.77,0,0,1-.64.48A2,2,0,0,1,160.54,49.92Zm0-.62a1.28,1.28,0,0,0,.92-.34,1.44,1.44,0,0,0,.36-1.07v-.64a1.44,1.44,0,0,0-.36-1.07,1.43,1.43,0,0,0-1.85,0,1.44,1.44,0,0,0-.35,1.07v.64a1.44,1.44,0,0,0,.35,1.07A1.29,1.29,0,0,0,160.54,49.3Z"/>
    <path d="M163.72,45.32h.7v.73h0a1.26,1.26,0,0,1,.51-.63,1.5,1.5,0,0,1,.81-.2,1.73,1.73,0,0,1,.76.16,1.74,1.74,0,0,1,.58.47,2.13,2.13,0,0,1,.36.74,3.76,3.76,0,0,1,0,2,2.13,2.13,0,0,1-.36.74,1.74,1.74,0,0,1-.58.47,1.73,1.73,0,0,1-.76.16,1.37,1.37,0,0,1-1.32-.82h0v2.46h-.7Zm1.86,4a1.2,1.2,0,0,0,.93-.37,1.37,1.37,0,0,0,.34-1v-.78a1.37,1.37,0,0,0-.34-1,1.2,1.2,0,0,0-.93-.37,1.63,1.63,0,0,0-.45.06,1.28,1.28,0,0,0-.37.18.83.83,0,0,0-.25.28.69.69,0,0,0-.09.34v1.68a.87.87,0,0,0,.09.4.75.75,0,0,0,.25.28,1.06,1.06,0,0,0,.37.18A1.33,1.33,0,0,0,165.58,49.3Z"/>
    <path d="M170.48,49.92a2,2,0,0,1-.83-.16,1.69,1.69,0,0,1-.64-.48,2.14,2.14,0,0,1-.42-.74,2.91,2.91,0,0,1-.15-1,3,3,0,0,1,.15-1,2.14,2.14,0,0,1,.42-.74,1.69,1.69,0,0,1,.64-.48,2.21,2.21,0,0,1,1.65,0,1.77,1.77,0,0,1,.64.48,2.14,2.14,0,0,1,.42.74,3,3,0,0,1,.15,1,2.91,2.91,0,0,1-.15,1,2.14,2.14,0,0,1-.42.74,1.77,1.77,0,0,1-.64.48A2,2,0,0,1,170.48,49.92Zm0-.62a1.28,1.28,0,0,0,.92-.34,1.44,1.44,0,0,0,.36-1.07v-.64a1.44,1.44,0,0,0-.36-1.07,1.43,1.43,0,0,0-1.85,0,1.44,1.44,0,0,0-.36,1.07v.64a1.44,1.44,0,0,0,.36,1.07A1.29,1.29,0,0,0,170.48,49.3Z"/>
    <path d="M174.65,49.82a.73.73,0,0,1-.55-.2.76.76,0,0,1-.19-.54V45.94h-.74v-.62h.42a.43.43,0,0,0,.31-.09.51.51,0,0,0,.08-.32v-.84h.63v1.25h1v.62h-1V49.2h.91v.62Z"/>
    <path d="M178.38,49.92a2.06,2.06,0,0,1-.84-.16,1.74,1.74,0,0,1-.63-.48,2,2,0,0,1-.41-.74,2.91,2.91,0,0,1-.15-1,3,3,0,0,1,.15-1,2,2,0,0,1,.41-.74,1.74,1.74,0,0,1,.63-.48,2.06,2.06,0,0,1,.84-.16,1.92,1.92,0,0,1,.81.16,1.82,1.82,0,0,1,.61.46,1.92,1.92,0,0,1,.38.69,2.75,2.75,0,0,1,.14.88v.33h-3.24V48a1.51,1.51,0,0,0,.1.53,1.1,1.1,0,0,0,.26.43,1.06,1.06,0,0,0,.42.29,1.4,1.4,0,0,0,.56.1,1.3,1.3,0,0,0,.74-.2,1.27,1.27,0,0,0,.5-.57l.49.36a1.69,1.69,0,0,1-.68.75A2,2,0,0,1,178.38,49.92Zm0-4.12a1.29,1.29,0,0,0-.53.1,1.26,1.26,0,0,0-.4.28,1.21,1.21,0,0,0-.27.43,1.62,1.62,0,0,0-.1.54v.06h2.49v-.09a1.37,1.37,0,0,0-.33-1A1.1,1.1,0,0,0,178.38,45.8Z"/>
    <path d="M181.47,49.82v-4.5h.7v.73h0a1.45,1.45,0,0,1,.47-.61,1.31,1.31,0,0,1,.8-.22,1.42,1.42,0,0,1,1.11.45,1.82,1.82,0,0,1,.4,1.26v2.89h-.69V47.05c0-.81-.34-1.21-1-1.21a1.4,1.4,0,0,0-.41,0,.86.86,0,0,0-.35.16.69.69,0,0,0-.25.26.79.79,0,0,0-.09.38v3.13Z"/>
    <path d="M188.1,49.92a2.08,2.08,0,0,1-.85-.16,1.74,1.74,0,0,1-.63-.47,2.18,2.18,0,0,1-.39-.74,3.5,3.5,0,0,1,0-2,2.18,2.18,0,0,1,.39-.74,1.74,1.74,0,0,1,.63-.47,2.08,2.08,0,0,1,.85-.16,1.76,1.76,0,0,1,1.07.29,1.83,1.83,0,0,1,.61.76l-.59.3a1,1,0,0,0-.4-.54,1.15,1.15,0,0,0-.69-.19,1.32,1.32,0,0,0-.55.1,1,1,0,0,0-.4.28,1.14,1.14,0,0,0-.23.42,1.92,1.92,0,0,0-.08.55V48a1.5,1.5,0,0,0,.32,1,1.15,1.15,0,0,0,.94.37,1.27,1.27,0,0,0,1.22-.78l.5.34a1.77,1.77,0,0,1-.65.78A1.87,1.87,0,0,1,188.1,49.92Z"/>
    <path d="M191.16,44.27a.45.45,0,0,1-.33-.11.41.41,0,0,1-.1-.29v-.11a.37.37,0,0,1,.1-.28.41.41,0,0,1,.33-.11.38.38,0,0,1,.32.11.37.37,0,0,1,.1.28v.11a.37.37,0,0,1-.42.4Zm-.35,1h.7v4.5h-.7Z"/>
    <path d="M196.26,49.82a.71.71,0,0,1-.57-.21,1.06,1.06,0,0,1-.21-.52h0a1.16,1.16,0,0,1-.49.63,1.62,1.62,0,0,1-.81.2,1.58,1.58,0,0,1-1.11-.36,1.29,1.29,0,0,1-.4-1,1.13,1.13,0,0,1,.47-1,2.44,2.44,0,0,1,1.45-.34h.89V46.8a1,1,0,0,0-.26-.73,1.14,1.14,0,0,0-.81-.25,1.21,1.21,0,0,0-.68.18,1.55,1.55,0,0,0-.46.49l-.42-.39a1.54,1.54,0,0,1,.59-.63,2.19,2.19,0,0,1,2.28.15,1.4,1.4,0,0,1,.46,1.11V49.2h.51v.62Zm-2-.49a1.75,1.75,0,0,0,.48-.06,1.33,1.33,0,0,0,.38-.17,1,1,0,0,0,.24-.27.57.57,0,0,0,.09-.32v-.74h-.93a1.61,1.61,0,0,0-.87.18.54.54,0,0,0-.28.5v.18a.62.62,0,0,0,.24.52A1.07,1.07,0,0,0,194.25,49.33Z"/>
    <path d="M198.39,49.82a.72.72,0,0,1-.56-.21.75.75,0,0,1-.19-.51V43.37h.7V49.2H199v.62Z"/>
    <path d="M202.05,47.1a6.31,6.31,0,0,1,.46-2.3,5.63,5.63,0,0,1,.5-.91,4.29,4.29,0,0,1,.62-.7h.67a3.94,3.94,0,0,0-.66.75,5.2,5.2,0,0,0-.5.89,6,6,0,0,0-.32,1,4.53,4.53,0,0,0-.11.94v.75a4.47,4.47,0,0,0,.11,1,6.36,6.36,0,0,0,.32,1,4.89,4.89,0,0,0,.51.89,3.81,3.81,0,0,0,.65.73h-.67a3.41,3.41,0,0,1-.61-.68,4.65,4.65,0,0,1-.5-.91,6.75,6.75,0,0,1-.34-1.1A6.08,6.08,0,0,1,202.05,47.1Z"/>
    <path d="M208.87,50.32a1.1,1.1,0,0,1-.54,1,3.22,3.22,0,0,1-1.64.33,3,3,0,0,1-1.51-.29.9.9,0,0,1-.46-.82.8.8,0,0,1,.19-.57,1.19,1.19,0,0,1,.52-.3V49.6A.65.65,0,0,1,205,49a.63.63,0,0,1,.22-.52,1.56,1.56,0,0,1,.55-.26v0a1.44,1.44,0,0,1-.62-.55,1.51,1.51,0,0,1-.22-.83,1.68,1.68,0,0,1,.12-.63,1.42,1.42,0,0,1,.35-.49,1.47,1.47,0,0,1,.53-.32,1.85,1.85,0,0,1,.69-.11,2,2,0,0,1,.86.17v-.08a.73.73,0,0,1,.12-.43.44.44,0,0,1,.4-.18h.67v.62h-.85v.29a1.52,1.52,0,0,1,.37.5,1.67,1.67,0,0,1,0,1.29,1.46,1.46,0,0,1-.35.5,1.74,1.74,0,0,1-.53.32,2.19,2.19,0,0,1-.7.11,3.27,3.27,0,0,1-.44,0,1.86,1.86,0,0,0-.41.17.38.38,0,0,0-.18.33.26.26,0,0,0,.19.27,1.43,1.43,0,0,0,.5.07h1a1.86,1.86,0,0,1,1.21.32A1,1,0,0,1,208.87,50.32Zm-.65,0a.52.52,0,0,0-.21-.43,1.16,1.16,0,0,0-.72-.16h-1.5a.63.63,0,0,0-.42.61.66.66,0,0,0,.22.5,1.1,1.1,0,0,0,.76.21H207a1.91,1.91,0,0,0,.91-.18A.6.6,0,0,0,208.22,50.37Zm-1.56-2.6a1.11,1.11,0,0,0,.71-.21.84.84,0,0,0,.26-.67v-.24a.81.81,0,0,0-.26-.66A1.26,1.26,0,0,0,206,46a.81.81,0,0,0-.26.66v.24a.84.84,0,0,0,.26.67A1.11,1.11,0,0,0,206.66,47.77Z"/>
    <path d="M209.68,45.32h.7v.73h0a1.16,1.16,0,0,1,.51-.63,1.46,1.46,0,0,1,.8-.2,1.7,1.7,0,0,1,.76.16,1.65,1.65,0,0,1,.58.47,2.33,2.33,0,0,1,.37.74,4.06,4.06,0,0,1,0,2,2.33,2.33,0,0,1-.37.74,1.65,1.65,0,0,1-.58.47,1.7,1.7,0,0,1-.76.16,1.34,1.34,0,0,1-1.31-.82h0v2.46h-.7Zm1.86,4a1.17,1.17,0,0,0,.93-.37,1.37,1.37,0,0,0,.34-1v-.78a1.37,1.37,0,0,0-.34-1,1.17,1.17,0,0,0-.93-.37,1.74,1.74,0,0,0-.45.06,1.41,1.41,0,0,0-.37.18,1,1,0,0,0-.25.28.69.69,0,0,0-.09.34v1.68a.87.87,0,0,0,.09.4.84.84,0,0,0,.25.28,1.16,1.16,0,0,0,.37.18A1.4,1.4,0,0,0,211.54,49.3Z"/>
    <path d="M214.74,49.82v-4.5h.7v.73h0l.18-.33a1,1,0,0,1,.25-.26.88.88,0,0,1,.33-.18,1.56,1.56,0,0,1,.46-.06,1.67,1.67,0,0,1,.82.21,1.25,1.25,0,0,1,.55.69h0a1.32,1.32,0,0,1,.46-.63,1.41,1.41,0,0,1,.91-.27,1.35,1.35,0,0,1,1.08.45,1.91,1.91,0,0,1,.38,1.26v2.89h-.69V47.05a1.45,1.45,0,0,0-.24-.91.9.9,0,0,0-.75-.3,1.23,1.23,0,0,0-.39,0,.82.82,0,0,0-.34.16.75.75,0,0,0-.24.26.92.92,0,0,0-.08.38v3.13h-.7V47.05a1.45,1.45,0,0,0-.24-.91.86.86,0,0,0-.73-.3,1.33,1.33,0,0,0-.4,0,.82.82,0,0,0-.34.16.75.75,0,0,0-.24.26.79.79,0,0,0-.09.38v3.13Z"/>
    <path d="M223.81,47.1a5.43,5.43,0,0,1-.13,1.22,5.9,5.9,0,0,1-.34,1.1,4.65,4.65,0,0,1-.5.91,3.13,3.13,0,0,1-.61.68h-.66a4.18,4.18,0,0,0,.65-.73,5.51,5.51,0,0,0,.5-.89,4.71,4.71,0,0,0,.32-1,3.91,3.91,0,0,0,.11-1v-.75a3.94,3.94,0,0,0-.11-.94,5.59,5.59,0,0,0-.81-1.85,4.79,4.79,0,0,0-.66-.75h.66a3.87,3.87,0,0,1,.62.7,5,5,0,0,1,.5.91,7,7,0,0,1,.34,1.09A6,6,0,0,1,223.81,47.1Z"/>
  </g>
  <g>
    <g>
      <path d="M154.42,23.58H149a2,2,0,0,1-2.11-2V10.68a2,2,0,0,1,2.11-2h5.46a2,2,0,0,1,2.11,2V21.61A2,2,0,0,1,154.42,23.58Z" style="fill: #fff"/>
      <path d="M154.42,23.83H149a2.29,2.29,0,0,1-2.36-2.22V10.68A2.29,2.29,0,0,1,149,8.46h5.46a2.3,2.3,0,0,1,2.36,2.22V21.61A2.29,2.29,0,0,1,154.42,23.83ZM149,9a1.79,1.79,0,0,0-1.86,1.72V21.61A1.79,1.79,0,0,0,149,23.33h5.46a1.79,1.79,0,0,0,1.86-1.72V10.68A1.79,1.79,0,0,0,154.42,9Z" style="fill: #939393"/>
    </g>
    <path d="M274,23.58h-5.47a2,2,0,0,1-2.11-2V10.68a2,2,0,0,1,2.11-2H274a2,2,0,0,1,2.11,2V21.61A2.05,2.05,0,0,1,274,23.58Z" style="fill: #eb2b20"/>
    <path d="M291.11,23.58h-5.46a2,2,0,0,1-2.11-2V10.68a2,2,0,0,1,2.11-2h5.46a2,2,0,0,1,2.11,2V21.61A2,2,0,0,1,291.11,23.58Z" style="fill: #d6111f"/>
    <path d="M308.2,23.58h-5.46a2,2,0,0,1-2.11-2V10.68a2,2,0,0,1,2.11-2h5.46a2,2,0,0,1,2.11,2V21.61A2,2,0,0,1,308.2,23.58Z" style="fill: #bd0026"/>
    <path d="M51.82,23.58H46.35a2,2,0,0,1-2.11-2V10.68a2,2,0,0,1,2.11-2h5.47a2,2,0,0,1,2.11,2V21.61A2,2,0,0,1,51.82,23.58Z" style="fill: #0868ac"/>
    <path d="M34.74,23.58H29.28a2,2,0,0,1-2.11-2V10.68a2,2,0,0,1,2.11-2h5.46a2,2,0,0,1,2.11,2V21.61A2,2,0,0,1,34.74,23.58Z" style="fill: #001476"/>
    <path d="M17.67,23.58H12.2a2,2,0,0,1-2.11-2V10.68a2,2,0,0,1,2.11-2h5.47a2,2,0,0,1,2.11,2V21.61A2,2,0,0,1,17.67,23.58Z" style="fill: #081d58"/>
    <path d="M68.91,23.58H63.44a2,2,0,0,1-2.11-2V10.68a2,2,0,0,1,2.11-2h5.47a2,2,0,0,1,2.11,2V21.61A2.05,2.05,0,0,1,68.91,23.58Z" style="fill: #2b8cbe"/>
    <path d="M86,23.58H80.53a2,2,0,0,1-2.11-2V10.68a2,2,0,0,1,2.11-2H86a2,2,0,0,1,2.11,2V21.61A2.05,2.05,0,0,1,86,23.58Z" style="fill: #7bccc4"/>
    <path d="M103.08,23.58H97.61a2,2,0,0,1-2.11-2V10.68a2,2,0,0,1,2.11-2h5.47a2,2,0,0,1,2.11,2V21.61A2.05,2.05,0,0,1,103.08,23.58Z" style="fill: #a8ddb5"/>
    <path d="M120.17,23.58H114.7a2,2,0,0,1-2.11-2V10.68a2,2,0,0,1,2.11-2h5.47a2,2,0,0,1,2.1,2V21.61A2,2,0,0,1,120.17,23.58Z" style="fill: #ccebc5"/>
    <path d="M137.25,23.58h-5.46a2,2,0,0,1-2.11-2V10.68a2,2,0,0,1,2.11-2h5.46a2,2,0,0,1,2.11,2V21.61A2,2,0,0,1,137.25,23.58Z" style="fill: #e0f3db"/>
    <g>
      <path d="M171.51,23.58H166a2,2,0,0,1-2.11-2V10.68a2,2,0,0,1,2.11-2h5.47a2,2,0,0,1,2.11,2V21.61A2,2,0,0,1,171.51,23.58Z" style="fill: #fff"/>
      <path d="M171.51,23.83H166a2.29,2.29,0,0,1-2.36-2.22V10.68A2.3,2.3,0,0,1,166,8.46h5.47a2.3,2.3,0,0,1,2.36,2.22V21.61A2.29,2.29,0,0,1,171.51,23.83ZM166,9a1.8,1.8,0,0,0-1.86,1.72V21.61A1.8,1.8,0,0,0,166,23.33h5.47a1.79,1.79,0,0,0,1.86-1.72V10.68A1.79,1.79,0,0,0,171.51,9Z" style="fill: #939393"/>
    </g>
    <path d="M188.59,23.58h-5.47a2,2,0,0,1-2.1-2V10.68a2,2,0,0,1,2.1-2h5.47a2,2,0,0,1,2.11,2V21.61A2,2,0,0,1,188.59,23.58Z" style="fill: #ffc"/>
    <path d="M205.68,23.58h-5.47a2,2,0,0,1-2.11-2V10.68a2,2,0,0,1,2.11-2h5.47a2,2,0,0,1,2.11,2V21.61A2,2,0,0,1,205.68,23.58Z" style="fill: #ffeda0"/>
    <path d="M222.77,23.58H217.3a2,2,0,0,1-2.11-2V10.68a2,2,0,0,1,2.11-2h5.47a2,2,0,0,1,2.11,2V21.61A2.05,2.05,0,0,1,222.77,23.58Z" style="fill: #fed976"/>
    <path d="M239.85,23.58h-5.47a2,2,0,0,1-2.11-2V10.68a2,2,0,0,1,2.11-2h5.47a2,2,0,0,1,2.11,2V21.61A2,2,0,0,1,239.85,23.58Z" style="fill: #feb24c"/>
    <path d="M256.94,23.58h-5.47a2,2,0,0,1-2.11-2V10.68a2,2,0,0,1,2.11-2h5.47a2,2,0,0,1,2.11,2V21.61A2.05,2.05,0,0,1,256.94,23.58Z" style="fill: #fc4e2a"/>
  </g>
</svg>
