<svg id="Camada_1" data-name="Camada 1" xmlns="http://www.w3.org/2000/svg" viewBox="0 0 320.4 57.45"><defs><style>.cls-1{opacity:0.75;}.cls-2{fill:#fff;}.cls-3{fill:#939393;}.cls-4{fill:#eb2b20;}.cls-5{fill:#d6111f;}.cls-6{fill:#bd0026;}.cls-7{fill:#0868ac;}.cls-8{fill:#001476;}.cls-9{fill:#081d58;}.cls-10{fill:#2b8cbe;}.cls-11{fill:#7bccc4;}.cls-12{fill:#a8ddb5;}.cls-13{fill:#ccebc5;}.cls-14{fill:#e0f3db;}.cls-15{fill:#ffc;}.cls-16{fill:#ffeda0;}.cls-17{fill:#fed976;}.cls-18{fill:#feb24c;}.cls-19{fill:#fc4e2a;}</style></defs><title>LEGENDAS - ESCALA</title><g class="cls-1"><path class="cls-2" d="M0,6.38C0,2.86,3.19,0,7.12,0H313.28c3.94,0,7.12,2.86,7.12,6.38V51.07c0,3.52-3.18,6.38-7.12,6.38H7.12C3.19,57.45,0,54.59,0,51.07Z"/></g><path class="cls-2" d="M154.42,23.58H149a2,2,0,0,1-2.11-2V10.68a2,2,0,0,1,2.11-2h5.46a2,2,0,0,1,2.11,2V21.61A2,2,0,0,1,154.42,23.58Z"/><path class="cls-3" d="M146.6,21.61V10.68A2.29,2.29,0,0,1,149,8.46h5.46a2.3,2.3,0,0,1,2.36,2.22V21.61a2.29,2.29,0,0,1-2.36,2.22H149A2.29,2.29,0,0,1,146.6,21.61ZM149,9a1.8,1.8,0,0,0-1.86,1.72V21.61A1.79,1.79,0,0,0,149,23.33h5.46a1.79,1.79,0,0,0,1.86-1.72V10.68A1.8,1.8,0,0,0,154.42,9Z"/><path class="cls-4" d="M274,23.58h-5.47a2,2,0,0,1-2.11-2V10.68a2,2,0,0,1,2.11-2H274a2,2,0,0,1,2.11,2V21.61A2.05,2.05,0,0,1,274,23.58Z"/><path class="cls-5" d="M291.11,23.58h-5.46a2,2,0,0,1-2.11-2V10.68a2,2,0,0,1,2.11-2h5.46a2,2,0,0,1,2.11,2V21.61A2,2,0,0,1,291.11,23.58Z"/><path class="cls-6" d="M308.2,23.58h-5.46a2,2,0,0,1-2.11-2V10.68a2,2,0,0,1,2.11-2h5.46a2,2,0,0,1,2.11,2V21.61A2,2,0,0,1,308.2,23.58Z"/><path class="cls-7" d="M51.82,23.58H46.35a2,2,0,0,1-2.11-2V10.68a2,2,0,0,1,2.11-2h5.47a2,2,0,0,1,2.11,2V21.61A2,2,0,0,1,51.82,23.58Z"/><path class="cls-8" d="M34.74,23.58H29.28a2,2,0,0,1-2.11-2V10.68a2,2,0,0,1,2.11-2h5.46a2,2,0,0,1,2.11,2V21.61A2,2,0,0,1,34.74,23.58Z"/><path class="cls-9" d="M17.67,23.58H12.2a2,2,0,0,1-2.11-2V10.68a2,2,0,0,1,2.11-2h5.47a2,2,0,0,1,2.11,2V21.61A2,2,0,0,1,17.67,23.58Z"/><path class="cls-10" d="M68.91,23.58H63.44a2,2,0,0,1-2.11-2V10.68a2,2,0,0,1,2.11-2h5.47a2,2,0,0,1,2.11,2V21.61A2.05,2.05,0,0,1,68.91,23.58Z"/><path class="cls-11" d="M86,23.58H80.53a2,2,0,0,1-2.11-2V10.68a2,2,0,0,1,2.11-2H86a2,2,0,0,1,2.11,2V21.61A2.05,2.05,0,0,1,86,23.58Z"/><path class="cls-12" d="M103.08,23.58H97.61a2,2,0,0,1-2.11-2V10.68a2,2,0,0,1,2.11-2h5.47a2,2,0,0,1,2.11,2V21.61A2.05,2.05,0,0,1,103.08,23.58Z"/><path class="cls-13" d="M120.17,23.58H114.7a2,2,0,0,1-2.11-2V10.68a2,2,0,0,1,2.11-2h5.47a2,2,0,0,1,2.1,2V21.61A2,2,0,0,1,120.17,23.58Z"/><path class="cls-14" d="M137.25,23.58h-5.46a2,2,0,0,1-2.11-2V10.68a2,2,0,0,1,2.11-2h5.46a2,2,0,0,1,2.11,2V21.61A2,2,0,0,1,137.25,23.58Z"/><path class="cls-2" d="M171.51,23.58H166a2,2,0,0,1-2.11-2V10.68a2,2,0,0,1,2.11-2h5.47a2,2,0,0,1,2.11,2V21.61A2,2,0,0,1,171.51,23.58Z"/><path class="cls-3" d="M163.68,21.61V10.68A2.3,2.3,0,0,1,166,8.46h5.47a2.3,2.3,0,0,1,2.36,2.22V21.61a2.29,2.29,0,0,1-2.36,2.22H166A2.29,2.29,0,0,1,163.68,21.61ZM166,9a1.81,1.81,0,0,0-1.86,1.72V21.61A1.8,1.8,0,0,0,166,23.33h5.47a1.79,1.79,0,0,0,1.86-1.72V10.68A1.8,1.8,0,0,0,171.51,9Z"/><path class="cls-15" d="M188.59,23.58h-5.47a2,2,0,0,1-2.1-2V10.68a2,2,0,0,1,2.1-2h5.47a2,2,0,0,1,2.11,2V21.61A2,2,0,0,1,188.59,23.58Z"/><path class="cls-16" d="M205.68,23.58h-5.47a2,2,0,0,1-2.11-2V10.68a2,2,0,0,1,2.11-2h5.47a2,2,0,0,1,2.11,2V21.61A2,2,0,0,1,205.68,23.58Z"/><path class="cls-17" d="M222.77,23.58H217.3a2,2,0,0,1-2.11-2V10.68a2,2,0,0,1,2.11-2h5.47a2,2,0,0,1,2.11,2V21.61A2.05,2.05,0,0,1,222.77,23.58Z"/><path class="cls-18" d="M239.85,23.58h-5.47a2,2,0,0,1-2.11-2V10.68a2,2,0,0,1,2.11-2h5.47a2,2,0,0,1,2.11,2V21.61A2,2,0,0,1,239.85,23.58Z"/><path class="cls-19" d="M256.94,23.58h-5.47a2,2,0,0,1-2.11-2V10.68a2,2,0,0,1,2.11-2h5.47a2,2,0,0,1,2.11,2V21.61A2.05,2.05,0,0,1,256.94,23.58Z"/><path d="M53.57,33.9v-.82h2.48v.82Z"/><path d="M59.18,32.54a1.42,1.42,0,0,0,1-.31,1,1,0,0,0,.34-.79v-.07a1,1,0,0,0-.33-.78,1.34,1.34,0,0,0-.86-.26,1.41,1.41,0,0,0-.83.23,1.72,1.72,0,0,0-.53.6l-.59-.46a2.55,2.55,0,0,1,.3-.39A1.73,1.73,0,0,1,58.1,30a2.13,2.13,0,0,1,.55-.24,2.26,2.26,0,0,1,.71-.1,2.9,2.9,0,0,1,.79.11,1.83,1.83,0,0,1,.64.32,1.48,1.48,0,0,1,.43.53,1.58,1.58,0,0,1,.16.71,1.7,1.7,0,0,1-.1.57,1.68,1.68,0,0,1-.27.45,1.88,1.88,0,0,1-.41.32,2,2,0,0,1-.5.2v0a2.5,2.5,0,0,1,.52.19,1.67,1.67,0,0,1,.45.34,1.52,1.52,0,0,1,.31.49,1.73,1.73,0,0,1,.12.66,1.86,1.86,0,0,1-.16.79,1.73,1.73,0,0,1-.46.61,2.12,2.12,0,0,1-.71.4,3,3,0,0,1-.92.14,2.88,2.88,0,0,1-.76-.09,2.45,2.45,0,0,1-.59-.26,2.25,2.25,0,0,1-.45-.35,3.39,3.39,0,0,1-.35-.42l.6-.46a1.69,1.69,0,0,0,.27.36,1.75,1.75,0,0,0,.33.28,1.7,1.7,0,0,0,.41.18,2.09,2.09,0,0,0,.53.06,1.56,1.56,0,0,0,1.06-.32,1.18,1.18,0,0,0,.36-.92v-.07a1.18,1.18,0,0,0-.36-.92,1.56,1.56,0,0,0-1.06-.32h-.78v-.7Z"/><path d="M19.3,33.9v-.82h2.48v.82Z"/><path d="M26,36.38v-1.3h-3.2v-.71l2.78-4.62h1.18v4.66h1v.67h-1v1.3Zm-2.45-2H26v-4h0Z"/><path d="M87.74,33.9v-.82h2.47v.82Z"/><path d="M95.93,36.38H91.58v-.82l2.17-2a4.66,4.66,0,0,0,.78-.9,1.79,1.79,0,0,0,.31-1v-.12a1.3,1.3,0,0,0-.3-.89,1.18,1.18,0,0,0-.92-.35,1.49,1.49,0,0,0-.54.09,1.28,1.28,0,0,0-.39.24,1.6,1.6,0,0,0-.28.35,2.2,2.2,0,0,0-.17.45l-.71-.28a2.44,2.44,0,0,1,.26-.57,1.83,1.83,0,0,1,.42-.5,2.06,2.06,0,0,1,.6-.35,2.65,2.65,0,0,1,.84-.13,2.6,2.6,0,0,1,.87.14,2,2,0,0,1,.64.4,1.77,1.77,0,0,1,.39.61,2.13,2.13,0,0,1,.14.78,2.36,2.36,0,0,1-.11.72,3,3,0,0,1-.3.63,3.55,3.55,0,0,1-.46.58,8,8,0,0,1-.59.57l-1.78,1.61h3.48Z"/><path d="M121.81,33.9v-.82h2.48v.82Z"/><path d="M125.78,36.38v-.71h1.85V30.33h-.06l-1.68,1.56-.46-.5,1.76-1.64h1.24v5.92h1.71v.71Z"/><path d="M160.2,36.49a1.87,1.87,0,0,1-1.73-.9,4.85,4.85,0,0,1-.55-2.53,4.81,4.81,0,0,1,.55-2.52,1.86,1.86,0,0,1,1.73-.91,1.88,1.88,0,0,1,1.74.91,4.91,4.91,0,0,1,.54,2.52,5,5,0,0,1-.54,2.53A1.9,1.9,0,0,1,160.2,36.49Zm0-.7a1.41,1.41,0,0,0,.67-.16,1.22,1.22,0,0,0,.44-.46,2.16,2.16,0,0,0,.26-.69,4.71,4.71,0,0,0,.08-.88V32.52a4.79,4.79,0,0,0-.08-.88,2.36,2.36,0,0,0-.26-.69,1.12,1.12,0,0,0-.44-.45,1.31,1.31,0,0,0-.67-.17,1.24,1.24,0,0,0-.66.17,1.08,1.08,0,0,0-.45.45,2.35,2.35,0,0,0-.25.69,4.06,4.06,0,0,0-.08.88V33.6a4,4,0,0,0,.08.88,2.15,2.15,0,0,0,.25.69,1.17,1.17,0,0,0,.45.46A1.34,1.34,0,0,0,160.2,35.79Z"/><path d="M192.37,36.38v-.71h1.85V30.33h-.06l-1.68,1.56-.46-.5,1.76-1.64H195v5.92h1.71v.71Z"/><path d="M230.81,36.38h-4.35v-.82l2.17-2a4.28,4.28,0,0,0,.77-.9,1.8,1.8,0,0,0,.32-1v-.12a1.25,1.25,0,0,0-.31-.89,1.16,1.16,0,0,0-.92-.35,1.44,1.44,0,0,0-.53.09,1.28,1.28,0,0,0-.39.24,1.35,1.35,0,0,0-.28.35,2.2,2.2,0,0,0-.17.45l-.72-.28a2.94,2.94,0,0,1,.26-.57,1.83,1.83,0,0,1,.42-.5,2.12,2.12,0,0,1,.61-.35,2.78,2.78,0,0,1,1.71,0,1.84,1.84,0,0,1,.63.4,2,2,0,0,1,.4.61,2.13,2.13,0,0,1,.13.78,2.09,2.09,0,0,1-.11.72,3,3,0,0,1-.29.63,3.15,3.15,0,0,1-.47.58,7.83,7.83,0,0,1-.58.57l-1.79,1.61h3.49Z"/><path d="M262.66,32.54a1.44,1.44,0,0,0,1-.31,1,1,0,0,0,.33-.79v-.07a.94.94,0,0,0-.32-.78,1.38,1.38,0,0,0-.86-.26,1.46,1.46,0,0,0-.84.23,1.82,1.82,0,0,0-.53.6l-.59-.46a2.55,2.55,0,0,1,.3-.39,2.25,2.25,0,0,1,.41-.34,2.43,2.43,0,0,1,1.27-.34,2.9,2.9,0,0,1,.79.11,1.92,1.92,0,0,1,.64.32,1.58,1.58,0,0,1,.58,1.24,1.48,1.48,0,0,1-.1.57,1.68,1.68,0,0,1-.27.45,1.82,1.82,0,0,1-.4.32,2.37,2.37,0,0,1-.5.2v0a2.73,2.73,0,0,1,.52.19,1.79,1.79,0,0,1,.44.34,1.54,1.54,0,0,1,.32.49,1.94,1.94,0,0,1,.11.66,1.86,1.86,0,0,1-.16.79,1.7,1.7,0,0,1-.45.61,2.28,2.28,0,0,1-.72.4,3.16,3.16,0,0,1-1.68,0,2.64,2.64,0,0,1-.59-.26,2.25,2.25,0,0,1-.45-.35,3.29,3.29,0,0,1-.34-.42l.59-.46a2.14,2.14,0,0,0,.28.36,1.43,1.43,0,0,0,.32.28,1.7,1.7,0,0,0,.41.18,2.09,2.09,0,0,0,.53.06,1.59,1.59,0,0,0,1.07-.32,1.18,1.18,0,0,0,.36-.92v-.07a1.18,1.18,0,0,0-.36-.92,1.59,1.59,0,0,0-1.07-.32h-.78v-.7Z"/><path d="M297.71,36.38v-1.3H294.5v-.71l2.78-4.62h1.19v4.66h1v.67h-1v1.3Zm-2.46-2h2.46v-4h0Z"/><path d="M61.87,50.46l-.67-2H58.53l-.67,2h-.81l2.32-6.63h1l2.32,6.63Zm-2-5.89h0L58.72,47.8H61Z"/><path d="M63.73,50.46v-4.9h.76v.79h0a1.55,1.55,0,0,1,.51-.66,1.46,1.46,0,0,1,.88-.25,1.57,1.57,0,0,1,1.2.49,2,2,0,0,1,.44,1.39v3.14H66.8v-3q0-1.32-1.11-1.32a1.61,1.61,0,0,0-.44.06,1.05,1.05,0,0,0-.39.17.84.84,0,0,0-.27.29.78.78,0,0,0-.1.41v3.41Z"/><path d="M71,50.57a2.19,2.19,0,0,1-.9-.18,1.89,1.89,0,0,1-.7-.51,2.65,2.65,0,0,1-.45-.81A3.19,3.19,0,0,1,68.77,48,3.23,3.23,0,0,1,68.93,47a2.65,2.65,0,0,1,.45-.81,1.92,1.92,0,0,1,.7-.52,2.34,2.34,0,0,1,1.8,0,2.1,2.1,0,0,1,.7.52A2.65,2.65,0,0,1,73,47,3.23,3.23,0,0,1,73.19,48,3.19,3.19,0,0,1,73,49.07a2.65,2.65,0,0,1-.45.81,2.07,2.07,0,0,1-.7.51A2.19,2.19,0,0,1,71,50.57Zm0-.67a1.41,1.41,0,0,0,1-.38,1.55,1.55,0,0,0,.39-1.16v-.7A1.55,1.55,0,0,0,72,46.5a1.53,1.53,0,0,0-2,0,1.55,1.55,0,0,0-.39,1.16v.7A1.55,1.55,0,0,0,70,49.52,1.41,1.41,0,0,0,71,49.9Z"/><path d="M74.45,50.46v-4.9h.76v.79h0a3.07,3.07,0,0,1,.2-.36,1.19,1.19,0,0,1,.27-.28,1,1,0,0,1,.36-.19,1.5,1.5,0,0,1,.5-.08,1.72,1.72,0,0,1,.89.24,1.41,1.41,0,0,1,.61.75h0a1.47,1.47,0,0,1,.49-.69,1.55,1.55,0,0,1,1-.3,1.48,1.48,0,0,1,1.17.49,2.08,2.08,0,0,1,.42,1.39v3.14h-.76v-3a1.61,1.61,0,0,0-.25-1,1,1,0,0,0-.82-.33,1.49,1.49,0,0,0-.43.06,1,1,0,0,0-.37.17.81.81,0,0,0-.26.29.88.88,0,0,0-.09.41v3.41h-.76v-3a1.6,1.6,0,0,0-.26-1,.93.93,0,0,0-.79-.33,1.56,1.56,0,0,0-.44.06,1,1,0,0,0-.37.17.73.73,0,0,0-.26.29.78.78,0,0,0-.1.41v3.41Z"/><path d="M86.3,50.46a.75.75,0,0,1-.61-.23,1.13,1.13,0,0,1-.23-.57h0a1.33,1.33,0,0,1-.53.69,1.68,1.68,0,0,1-.89.22,1.74,1.74,0,0,1-1.21-.39,1.41,1.41,0,0,1-.43-1.09A1.23,1.23,0,0,1,82.86,48a2.67,2.67,0,0,1,1.58-.37h1v-.49a1,1,0,0,0-.29-.79,1.18,1.18,0,0,0-.87-.28,1.29,1.29,0,0,0-.74.2,1.59,1.59,0,0,0-.5.53l-.46-.43a1.79,1.79,0,0,1,.64-.68,2.36,2.36,0,0,1,2.49.16,1.53,1.53,0,0,1,.49,1.21v2.7h.56v.67Zm-2.18-.53a1.72,1.72,0,0,0,.52-.07,1.29,1.29,0,0,0,.41-.19,1,1,0,0,0,.26-.28.64.64,0,0,0,.1-.35v-.81h-1a1.8,1.8,0,0,0-1,.19.61.61,0,0,0-.3.55v.2a.67.67,0,0,0,.26.56A1.15,1.15,0,0,0,84.12,49.93Z"/><path d="M88.62,50.46a.75.75,0,0,1-.6-.22.8.8,0,0,1-.21-.57V43.43h.76v6.36h.73v.67Z"/><path d="M90.78,44.41a.46.46,0,0,1-.36-.12.45.45,0,0,1-.11-.31v-.12a.45.45,0,0,1,.11-.31.46.46,0,0,1,.36-.12.45.45,0,0,1,.35.12.41.41,0,0,1,.11.31V44a.41.41,0,0,1-.11.31A.45.45,0,0,1,90.78,44.41Zm-.38,1.15h.76v4.9H90.4Z"/><path d="M96.33,50.46a.76.76,0,0,1-.61-.23,1.13,1.13,0,0,1-.23-.57h0a1.28,1.28,0,0,1-.53.69,1.67,1.67,0,0,1-.88.22,1.77,1.77,0,0,1-1.22-.39,1.45,1.45,0,0,1-.43-1.09A1.23,1.23,0,0,1,92.89,48a2.69,2.69,0,0,1,1.58-.37h1v-.49a1,1,0,0,0-.28-.79,1.19,1.19,0,0,0-.88-.28,1.32,1.32,0,0,0-.74.2,1.59,1.59,0,0,0-.5.53l-.46-.43a1.88,1.88,0,0,1,.64-.68,2.06,2.06,0,0,1,1.1-.28,2,2,0,0,1,1.39.44,1.53,1.53,0,0,1,.49,1.21v2.7h.56v.67Zm-2.18-.53a1.72,1.72,0,0,0,.52-.07,1.14,1.14,0,0,0,.68-.47.73.73,0,0,0,.09-.35v-.81h-1a1.8,1.8,0,0,0-1,.19.61.61,0,0,0-.3.55v.2a.67.67,0,0,0,.26.56A1.17,1.17,0,0,0,94.15,49.93Z"/><path d="M103.22,49.67h0a1.48,1.48,0,0,1-1.43.9,1.79,1.79,0,0,1-1.46-.69,2.36,2.36,0,0,1-.4-.81,4.08,4.08,0,0,1,0-2.12,2.36,2.36,0,0,1,.4-.81,2,2,0,0,1,.63-.52,1.9,1.9,0,0,1,.83-.18,1.67,1.67,0,0,1,.88.23,1.31,1.31,0,0,1,.55.68h0V43.43H104v7h-.76ZM102,49.9a1.61,1.61,0,0,0,.49-.07,1.24,1.24,0,0,0,.4-.19.83.83,0,0,0,.27-.32.82.82,0,0,0,.1-.42V47.06a.69.69,0,0,0-.1-.37.77.77,0,0,0-.27-.3,1.25,1.25,0,0,0-.4-.2,1.61,1.61,0,0,0-.49-.07,1.29,1.29,0,0,0-1,.41,1.49,1.49,0,0,0-.37,1.06v.84a1.49,1.49,0,0,0,.37,1.06A1.33,1.33,0,0,0,102,49.9Z"/><path d="M107.44,50.57a2.21,2.21,0,0,1-.91-.18,1.94,1.94,0,0,1-.69-.51,2.65,2.65,0,0,1-.45-.81,3.48,3.48,0,0,1-.15-1.06,3.53,3.53,0,0,1,.15-1.06,2.65,2.65,0,0,1,.45-.81,2,2,0,0,1,.69-.52,2.21,2.21,0,0,1,.91-.18,2,2,0,0,1,1.55.68,2.28,2.28,0,0,1,.42.75,2.93,2.93,0,0,1,.15,1v.36H106v.23a1.81,1.81,0,0,0,.1.58,1.33,1.33,0,0,0,.29.47,1.23,1.23,0,0,0,.45.32,1.71,1.71,0,0,0,.62.11,1.45,1.45,0,0,0,.81-.22,1.4,1.4,0,0,0,.54-.63l.54.4a1.92,1.92,0,0,1-.74.81A2.23,2.23,0,0,1,107.44,50.57Zm0-4.49a1.48,1.48,0,0,0-.57.11,1.14,1.14,0,0,0-.44.31,1.29,1.29,0,0,0-.29.46,1.63,1.63,0,0,0-.11.59v.07h2.71v-.1a1.49,1.49,0,0,0-.36-1.05A1.2,1.2,0,0,0,107.44,46.08Z"/><path d="M113.13,43.83h2.22a2.87,2.87,0,0,1,1.12.21,2.24,2.24,0,0,1,.86.62,2.86,2.86,0,0,1,.55,1,5.59,5.59,0,0,1,0,2.89,2.86,2.86,0,0,1-.55,1,2.14,2.14,0,0,1-.86.62,2.87,2.87,0,0,1-1.12.21h-2.22Zm2.22,5.93a2,2,0,0,0,.75-.14,1.62,1.62,0,0,0,.59-.4,2,2,0,0,0,.39-.65,2.67,2.67,0,0,0,.13-.88V46.6a2.67,2.67,0,0,0-.13-.88,2,2,0,0,0-.39-.65,1.62,1.62,0,0,0-.59-.4,2,2,0,0,0-.75-.14h-1.42v5.23Z"/><path d="M119.81,44.41a.46.46,0,0,1-.36-.12.45.45,0,0,1-.11-.31v-.12a.45.45,0,0,1,.11-.31.46.46,0,0,1,.36-.12.45.45,0,0,1,.35.12.41.41,0,0,1,.11.31V44a.41.41,0,0,1-.11.31A.45.45,0,0,1,119.81,44.41Zm-.38,1.15h.76v4.9h-.76Z"/><path d="M122.89,50.46l-1.72-4.9h.76l.85,2.43.53,1.67h0l.53-1.67.88-2.43h.73l-1.73,4.9Z"/><path d="M128.24,50.57a2.19,2.19,0,0,1-.9-.18,2.07,2.07,0,0,1-.7-.51,2.44,2.44,0,0,1-.44-.81A3.19,3.19,0,0,1,126,48,3.23,3.23,0,0,1,126.2,47a2.44,2.44,0,0,1,.44-.81,2.1,2.1,0,0,1,.7-.52,2.19,2.19,0,0,1,.9-.18,2.11,2.11,0,0,1,.89.18,1.93,1.93,0,0,1,.66.5,2,2,0,0,1,.42.75,2.93,2.93,0,0,1,.15,1v.36h-3.52v.23a1.57,1.57,0,0,0,.1.58,1.31,1.31,0,0,0,.28.47,1.36,1.36,0,0,0,.46.32,1.66,1.66,0,0,0,.61.11,1.45,1.45,0,0,0,.81-.22,1.4,1.4,0,0,0,.54-.63l.54.4a1.86,1.86,0,0,1-.74.81A2.21,2.21,0,0,1,128.24,50.57Zm0-4.49a1.48,1.48,0,0,0-.57.11,1.22,1.22,0,0,0-.44.31,1.44,1.44,0,0,0-.29.46,1.63,1.63,0,0,0-.1.59v.07h2.71v-.1a1.49,1.49,0,0,0-.36-1.05A1.22,1.22,0,0,0,128.24,46.08Z"/><path d="M131.62,50.46v-4.9h.76v.9h0a1.56,1.56,0,0,1,.48-.63,1.48,1.48,0,0,1,.94-.27h.29v.76h-.44a1.78,1.78,0,0,0-1,.23.69.69,0,0,0-.34.59v3.32Z"/><path d="M139,51a1.2,1.2,0,0,1-.6,1.11,3.5,3.5,0,0,1-1.78.35,3.25,3.25,0,0,1-1.65-.31,1,1,0,0,1-.5-.89.86.86,0,0,1,.2-.62,1.23,1.23,0,0,1,.57-.33v-.1a.71.71,0,0,1-.43-.68.72.72,0,0,1,.23-.57,1.73,1.73,0,0,1,.61-.29v0a1.59,1.59,0,0,1-.68-.6,1.72,1.72,0,0,1-.24-.91,1.93,1.93,0,0,1,.13-.69,1.56,1.56,0,0,1,.38-.53,1.61,1.61,0,0,1,.58-.35,2.22,2.22,0,0,1,.75-.13,2.35,2.35,0,0,1,.94.19v-.08a.82.82,0,0,1,.13-.48.51.51,0,0,1,.44-.19h.73v.68h-.93v.31a1.84,1.84,0,0,1,.41.55,1.66,1.66,0,0,1,.15.72,1.74,1.74,0,0,1-.14.69,1.54,1.54,0,0,1-.37.53,1.65,1.65,0,0,1-.59.35,2.24,2.24,0,0,1-.76.13,2.59,2.59,0,0,1-.47-.05,1.53,1.53,0,0,0-.45.19.42.42,0,0,0-.2.36.28.28,0,0,0,.21.29,1.62,1.62,0,0,0,.54.08h1.05a2,2,0,0,1,1.32.35A1.15,1.15,0,0,1,139,51Zm-.72.05a.56.56,0,0,0-.22-.47,1.29,1.29,0,0,0-.79-.18h-1.64a.7.7,0,0,0-.45.67.74.74,0,0,0,.24.55,1.2,1.2,0,0,0,.82.23h.7a2,2,0,0,0,1-.2A.64.64,0,0,0,138.3,51.06Zm-1.7-2.83a1.15,1.15,0,0,0,.77-.24.86.86,0,0,0,.29-.72V47a.86.86,0,0,0-.29-.72,1.15,1.15,0,0,0-.77-.24,1.16,1.16,0,0,0-.77.24.86.86,0,0,0-.28.72v.26a.86.86,0,0,0,.28.72A1.16,1.16,0,0,0,136.6,48.23Z"/><path d="M141.69,50.57a2.21,2.21,0,0,1-.91-.18,1.94,1.94,0,0,1-.69-.51,2.29,2.29,0,0,1-.45-.81,3.19,3.19,0,0,1-.16-1.06,3.23,3.23,0,0,1,.16-1.06,2.29,2.29,0,0,1,.45-.81,2,2,0,0,1,.69-.52,2.21,2.21,0,0,1,.91-.18,2.1,2.1,0,0,1,.88.18,1.93,1.93,0,0,1,.66.5,2.13,2.13,0,0,1,.43.75,2.93,2.93,0,0,1,.14,1v.36h-3.52v.23a1.57,1.57,0,0,0,.1.58,1.47,1.47,0,0,0,.28.47,1.36,1.36,0,0,0,.46.32,1.7,1.7,0,0,0,.61.11,1.5,1.5,0,0,0,.82-.22,1.33,1.33,0,0,0,.53-.63l.54.4a1.8,1.8,0,0,1-.74.81A2.18,2.18,0,0,1,141.69,50.57Zm.48-7.38,1.05,1.36-.41.3-1.11-1.12-1.12,1.12-.41-.3,1.05-1.36Zm-.48,2.89a1.48,1.48,0,0,0-.57.11,1.25,1.25,0,0,0-.45.31,1.44,1.44,0,0,0-.29.46,1.63,1.63,0,0,0-.1.59v.07H143v-.1a1.49,1.49,0,0,0-.36-1.05A1.21,1.21,0,0,0,141.69,46.08Z"/><path d="M145.06,50.46v-4.9h.76v.79h0a1.61,1.61,0,0,1,.5-.66,1.48,1.48,0,0,1,.88-.25,1.58,1.58,0,0,1,1.21.49,2,2,0,0,1,.44,1.39v3.14h-.76v-3q0-1.32-1.11-1.32a1.68,1.68,0,0,0-.45.06,1,1,0,0,0-.38.17.75.75,0,0,0-.27.29.78.78,0,0,0-.1.41v3.41Z"/><path d="M152.28,50.57a2.25,2.25,0,0,1-.92-.18,1.78,1.78,0,0,1-.69-.51,2.24,2.24,0,0,1-.43-.81,3.82,3.82,0,0,1,0-2.12,2.24,2.24,0,0,1,.43-.81,1.8,1.8,0,0,1,.69-.52,2.25,2.25,0,0,1,.92-.18,2,2,0,0,1,1.17.32,1.91,1.91,0,0,1,.66.83l-.63.33a1.16,1.16,0,0,0-.44-.59,1.31,1.31,0,0,0-.76-.21,1.57,1.57,0,0,0-.6.11,1.19,1.19,0,0,0-.43.3A1.25,1.25,0,0,0,151,47a1.87,1.87,0,0,0-.09.59v.84a1.61,1.61,0,0,0,.35,1.06,1.27,1.27,0,0,0,1,.41,1.37,1.37,0,0,0,1.33-.86l.55.38a2,2,0,0,1-.71.84A2,2,0,0,1,152.28,50.57Z"/><path d="M155.61,44.41a.45.45,0,0,1-.35-.12.41.41,0,0,1-.11-.31v-.12a.41.41,0,0,1,.11-.31.45.45,0,0,1,.35-.12.46.46,0,0,1,.36.12.45.45,0,0,1,.11.31V44a.45.45,0,0,1-.11.31A.46.46,0,0,1,155.61,44.41Zm-.38,1.15H156v4.9h-.76Z"/><path d="M161.17,50.46a.75.75,0,0,1-.61-.23,1.14,1.14,0,0,1-.24-.57h0a1.3,1.3,0,0,1-.54.69,1.64,1.64,0,0,1-.88.22,1.74,1.74,0,0,1-1.21-.39,1.41,1.41,0,0,1-.43-1.09,1.23,1.23,0,0,1,.51-1.06,2.67,2.67,0,0,1,1.58-.37h1v-.49a1,1,0,0,0-.29-.79,1.18,1.18,0,0,0-.87-.28,1.35,1.35,0,0,0-.75.2,1.7,1.7,0,0,0-.5.53l-.45-.43a1.76,1.76,0,0,1,.63-.68,2.1,2.1,0,0,1,1.11-.28,2,2,0,0,1,1.38.44,1.54,1.54,0,0,1,.5,1.21v2.7h.56v.67ZM159,49.93a1.72,1.72,0,0,0,.52-.07,1.29,1.29,0,0,0,.41-.19,1,1,0,0,0,.26-.28.64.64,0,0,0,.1-.35v-.81h-1a1.76,1.76,0,0,0-1,.19.61.61,0,0,0-.3.55v.2a.65.65,0,0,0,.26.56A1.15,1.15,0,0,0,159,49.93Z"/><path d="M168.06,49.67h0a1.51,1.51,0,0,1-1.44.9,1.86,1.86,0,0,1-.82-.18,1.73,1.73,0,0,1-.63-.51,2.2,2.2,0,0,1-.4-.81,4.08,4.08,0,0,1,0-2.12,2.2,2.2,0,0,1,.4-.81,1.76,1.76,0,0,1,.63-.52,1.86,1.86,0,0,1,.82-.18,1.62,1.62,0,0,1,.88.23,1.32,1.32,0,0,1,.56.68h0V43.43h.76v7h-.76Zm-1.27.23a1.57,1.57,0,0,0,.49-.07,1.29,1.29,0,0,0,.41-.19,1,1,0,0,0,.27-.32.93.93,0,0,0,.1-.42V47.06a.79.79,0,0,0-.1-.37,1,1,0,0,0-.27-.3,1.31,1.31,0,0,0-.41-.2,1.57,1.57,0,0,0-.49-.07,1.26,1.26,0,0,0-1,.41,1.49,1.49,0,0,0-.37,1.06v.84a1.49,1.49,0,0,0,.37,1.06A1.29,1.29,0,0,0,166.79,49.9Z"/><path d="M172.27,50.57a2.19,2.19,0,0,1-.9-.18,2.07,2.07,0,0,1-.7-.51,2.44,2.44,0,0,1-.44-.81,3.19,3.19,0,0,1-.16-1.06,3.23,3.23,0,0,1,.16-1.06,2.44,2.44,0,0,1,.44-.81,2.1,2.1,0,0,1,.7-.52,2.19,2.19,0,0,1,.9-.18,2.11,2.11,0,0,1,.89.18,1.93,1.93,0,0,1,.66.5,2.13,2.13,0,0,1,.43.75,3.22,3.22,0,0,1,.14,1v.36h-3.52v.23a1.57,1.57,0,0,0,.1.58,1.31,1.31,0,0,0,.28.47,1.36,1.36,0,0,0,.46.32,1.66,1.66,0,0,0,.61.11,1.45,1.45,0,0,0,.81-.22,1.35,1.35,0,0,0,.54-.63l.54.4a1.86,1.86,0,0,1-.74.81A2.19,2.19,0,0,1,172.27,50.57Zm0-4.49a1.56,1.56,0,0,0-.57.11,1.22,1.22,0,0,0-.44.31A1.44,1.44,0,0,0,171,47a1.63,1.63,0,0,0-.1.59v.07h2.71v-.1a1.49,1.49,0,0,0-.36-1.05A1.22,1.22,0,0,0,172.27,46.08Z"/><path d="M178.72,43.83v4.11a2.43,2.43,0,0,0,.35,1.44,1.39,1.39,0,0,0,1.23.49,1.43,1.43,0,0,0,1.24-.49,2.51,2.51,0,0,0,.35-1.44V43.83h.8v3.91a5.81,5.81,0,0,1-.13,1.26,2.12,2.12,0,0,1-.42.88,1.59,1.59,0,0,1-.74.52,3.13,3.13,0,0,1-1.13.17,3,3,0,0,1-1.11-.17,1.56,1.56,0,0,1-.73-.52A2.23,2.23,0,0,1,178,49a5.86,5.86,0,0,1-.12-1.26V43.83Z"/><path d="M184.33,50.46v-4.9h.76v.79h0a2,2,0,0,1,.19-.36,1.43,1.43,0,0,1,.27-.28,1.13,1.13,0,0,1,.36-.19,1.5,1.5,0,0,1,.5-.08,1.72,1.72,0,0,1,.89.24,1.37,1.37,0,0,1,.61.75h0a1.48,1.48,0,0,1,1.49-1,1.48,1.48,0,0,1,1.17.49,2,2,0,0,1,.43,1.39v3.14h-.76v-3a1.6,1.6,0,0,0-.26-1,1,1,0,0,0-.82-.33,1.54,1.54,0,0,0-.43.06.86.86,0,0,0-.36.17.73.73,0,0,0-.26.29.78.78,0,0,0-.1.41v3.41h-.76v-3a1.61,1.61,0,0,0-.25-1,1,1,0,0,0-.8-.33,1.61,1.61,0,0,0-.44.06,1,1,0,0,0-.37.17.81.81,0,0,0-.26.29.78.78,0,0,0-.1.41v3.41Z"/><path d="M193,44.41a.45.45,0,0,1-.35-.12.41.41,0,0,1-.11-.31v-.12a.41.41,0,0,1,.11-.31.45.45,0,0,1,.35-.12.46.46,0,0,1,.36.12.45.45,0,0,1,.11.31V44a.45.45,0,0,1-.11.31A.46.46,0,0,1,193,44.41Zm-.38,1.15h.76v4.9h-.76Z"/><path d="M198.13,49.67h0a1.51,1.51,0,0,1-1.44.9,1.79,1.79,0,0,1-1.46-.69,2.36,2.36,0,0,1-.4-.81,4.39,4.39,0,0,1,0-2.12,2.36,2.36,0,0,1,.4-.81,2,2,0,0,1,.63-.52,1.9,1.9,0,0,1,.83-.18,1.65,1.65,0,0,1,.88.23,1.37,1.37,0,0,1,.56.68h0V43.43h.76v7h-.76Zm-1.26.23a1.61,1.61,0,0,0,.49-.07,1.24,1.24,0,0,0,.4-.19.83.83,0,0,0,.27-.32.82.82,0,0,0,.1-.42V47.06a.69.69,0,0,0-.1-.37.77.77,0,0,0-.27-.3,1.25,1.25,0,0,0-.4-.2,1.61,1.61,0,0,0-.49-.07,1.29,1.29,0,0,0-1,.41,1.54,1.54,0,0,0-.37,1.06v.84a1.54,1.54,0,0,0,.37,1.06A1.33,1.33,0,0,0,196.87,49.9Z"/><path d="M204.07,50.46a.75.75,0,0,1-.61-.23,1.14,1.14,0,0,1-.24-.57h0a1.33,1.33,0,0,1-.53.69,1.7,1.7,0,0,1-.89.22,1.74,1.74,0,0,1-1.21-.39,1.41,1.41,0,0,1-.43-1.09,1.23,1.23,0,0,1,.51-1.06,2.67,2.67,0,0,1,1.58-.37h1v-.49a1,1,0,0,0-.29-.79,1.18,1.18,0,0,0-.87-.28,1.35,1.35,0,0,0-.75.2,1.7,1.7,0,0,0-.5.53l-.45-.43a1.76,1.76,0,0,1,.63-.68,2.1,2.1,0,0,1,1.11-.28,2,2,0,0,1,1.38.44,1.54,1.54,0,0,1,.5,1.21v2.7h.56v.67Zm-2.18-.53a1.72,1.72,0,0,0,.52-.07,1.29,1.29,0,0,0,.41-.19,1,1,0,0,0,.26-.28.64.64,0,0,0,.1-.35v-.81h-1a1.78,1.78,0,0,0-.95.19.61.61,0,0,0-.3.55v.2a.65.65,0,0,0,.26.56A1.15,1.15,0,0,0,201.89,49.93Z"/><path d="M208.72,49.67h0a1.51,1.51,0,0,1-1.44.9,1.83,1.83,0,0,1-.82-.18,1.73,1.73,0,0,1-.63-.51,2.2,2.2,0,0,1-.4-.81,4.08,4.08,0,0,1,0-2.12,2.2,2.2,0,0,1,.4-.81,1.76,1.76,0,0,1,.63-.52,1.83,1.83,0,0,1,.82-.18,1.62,1.62,0,0,1,.88.23,1.32,1.32,0,0,1,.56.68h0V43.43h.76v7h-.76Zm-1.27.23a1.57,1.57,0,0,0,.49-.07,1.29,1.29,0,0,0,.41-.19,1,1,0,0,0,.27-.32.93.93,0,0,0,.1-.42V47.06a.79.79,0,0,0-.1-.37,1,1,0,0,0-.27-.3,1.31,1.31,0,0,0-.41-.2,1.57,1.57,0,0,0-.49-.07,1.26,1.26,0,0,0-1,.41,1.49,1.49,0,0,0-.37,1.06v.84a1.49,1.49,0,0,0,.37,1.06A1.29,1.29,0,0,0,207.45,49.9Z"/><path d="M212.93,50.57a2.19,2.19,0,0,1-.9-.18,2.07,2.07,0,0,1-.7-.51,2.44,2.44,0,0,1-.44-.81,3.19,3.19,0,0,1-.16-1.06,3.23,3.23,0,0,1,.16-1.06,2.44,2.44,0,0,1,.44-.81,2.1,2.1,0,0,1,.7-.52,2.19,2.19,0,0,1,.9-.18,2.11,2.11,0,0,1,.89.18,1.93,1.93,0,0,1,.66.5,2.13,2.13,0,0,1,.43.75,3.22,3.22,0,0,1,.14,1v.36h-3.52v.23a1.57,1.57,0,0,0,.1.58,1.31,1.31,0,0,0,.28.47,1.36,1.36,0,0,0,.46.32,1.66,1.66,0,0,0,.61.11,1.45,1.45,0,0,0,.81-.22,1.4,1.4,0,0,0,.54-.63l.54.4a1.86,1.86,0,0,1-.74.81A2.19,2.19,0,0,1,212.93,50.57Zm0-4.49a1.52,1.52,0,0,0-.57.11,1.22,1.22,0,0,0-.44.31,1.44,1.44,0,0,0-.29.46,1.63,1.63,0,0,0-.1.59v.07h2.71v-.1a1.49,1.49,0,0,0-.36-1.05A1.22,1.22,0,0,0,212.93,46.08Z"/><path d="M218.53,47.5a6.29,6.29,0,0,1,.13-1.32A6.13,6.13,0,0,1,219,45a5.25,5.25,0,0,1,.55-1,3.84,3.84,0,0,1,.67-.76H221a5.22,5.22,0,0,0-.72.82,5.37,5.37,0,0,0-.54,1,5.74,5.74,0,0,0-.34,1,4.21,4.21,0,0,0-.13,1v.81a4.17,4.17,0,0,0,.13,1,5.78,5.78,0,0,0,.35,1,5.37,5.37,0,0,0,.54,1,4.61,4.61,0,0,0,.71.8h-.72a3.47,3.47,0,0,1-.67-.74,5.58,5.58,0,0,1-.54-1,5.92,5.92,0,0,1-.37-1.19A6.45,6.45,0,0,1,218.53,47.5Z"/><path d="M221.76,50.46v-.7h1.85V44.42h-.06L221.87,46l-.46-.51,1.76-1.64h1.24v5.93h1.71v.7Z"/><path d="M229.47,50.57a1.87,1.87,0,0,1-1.73-.9,4.91,4.91,0,0,1-.55-2.52,4.92,4.92,0,0,1,.55-2.53,2.12,2.12,0,0,1,3.47,0,4.93,4.93,0,0,1,.54,2.53,4.91,4.91,0,0,1-.54,2.52A1.89,1.89,0,0,1,229.47,50.57Zm0-.7a1.28,1.28,0,0,0,.67-.16,1.38,1.38,0,0,0,.45-.45,2.67,2.67,0,0,0,.25-.69,4.82,4.82,0,0,0,.08-.89V46.61a4.63,4.63,0,0,0-.08-.88,2.61,2.61,0,0,0-.25-.7,1.38,1.38,0,0,0-.45-.45,1.28,1.28,0,0,0-.67-.16,1.24,1.24,0,0,0-.66.16,1.38,1.38,0,0,0-.45.45,2.31,2.31,0,0,0-.25.7,4.63,4.63,0,0,0-.08.88v1.07a4.82,4.82,0,0,0,.08.89,2.35,2.35,0,0,0,.25.69,1.38,1.38,0,0,0,.45.45A1.24,1.24,0,0,0,229.47,49.87Z"/><path d="M233,46v-.82h2.48V46Z"/><path d="M237,47.33l1.4-3h-1.47V45h-.51V43.83H239v.49l-1.36,3Z"/><path d="M240.1,43.43h.76v4.46h0l.75-.84L243,45.56H244l-1.81,1.94,2,3h-.92L241.6,48l-.74.75v1.75h-.76Z"/><path d="M249.15,51a1.22,1.22,0,0,1-.59,1.11,3.54,3.54,0,0,1-1.79.35,3.27,3.27,0,0,1-1.65-.31,1,1,0,0,1-.5-.89.86.86,0,0,1,.21-.62,1.23,1.23,0,0,1,.57-.33v-.1a.71.71,0,0,1-.44-.68.69.69,0,0,1,.24-.57,1.68,1.68,0,0,1,.6-.29v0a1.56,1.56,0,0,1-.67-.6,1.64,1.64,0,0,1-.25-.91,1.74,1.74,0,0,1,.14-.69,1.54,1.54,0,0,1,.37-.53,1.7,1.7,0,0,1,.58-.35,2.33,2.33,0,0,1,1.69.06v-.08a.82.82,0,0,1,.13-.48.51.51,0,0,1,.44-.19H249v.68H248v.31a1.69,1.69,0,0,1,.41.55,1.66,1.66,0,0,1,.15.72,1.93,1.93,0,0,1-.13.69,1.56,1.56,0,0,1-.38.53,1.7,1.7,0,0,1-.58.35,2.33,2.33,0,0,1-.76.13,2.61,2.61,0,0,1-.48-.05,1.79,1.79,0,0,0-.45.19.41.41,0,0,0-.19.36.27.27,0,0,0,.2.29,1.64,1.64,0,0,0,.55.08h1a2.08,2.08,0,0,1,1.33.35A1.18,1.18,0,0,1,249.15,51Zm-.71.05a.57.57,0,0,0-.23-.47,1.29,1.29,0,0,0-.79-.18h-1.63a.69.69,0,0,0-.46.67.74.74,0,0,0,.24.55,1.2,1.2,0,0,0,.82.23h.71a2.09,2.09,0,0,0,1-.2A.66.66,0,0,0,248.44,51.06Zm-1.7-2.83a1.16,1.16,0,0,0,.77-.24.86.86,0,0,0,.28-.72V47a.86.86,0,0,0-.28-.72,1.16,1.16,0,0,0-.77-.24,1.15,1.15,0,0,0-.77.24.86.86,0,0,0-.29.72v.26A.86.86,0,0,0,246,48,1.15,1.15,0,0,0,246.74,48.23Z"/><path d="M251.51,50.57a2.25,2.25,0,0,1-1.15-.26,2.48,2.48,0,0,1-.79-.69l.54-.44a2.15,2.15,0,0,0,.63.55,1.69,1.69,0,0,0,.82.2,1.21,1.21,0,0,0,.76-.21.71.71,0,0,0,.27-.59.69.69,0,0,0-.19-.49,1.08,1.08,0,0,0-.67-.28l-.39-.06a3.76,3.76,0,0,1-.62-.14,1.83,1.83,0,0,1-.5-.27,1.09,1.09,0,0,1-.33-.41,1.35,1.35,0,0,1-.12-.59,1.39,1.39,0,0,1,.13-.63,1.33,1.33,0,0,1,.36-.45,1.54,1.54,0,0,1,.56-.27,2.26,2.26,0,0,1,.69-.1,2.19,2.19,0,0,1,1,.21,2.29,2.29,0,0,1,.7.58l-.5.46a1.51,1.51,0,0,0-1.26-.6,1.12,1.12,0,0,0-.72.2.71.71,0,0,0-.24.56.57.57,0,0,0,.24.52,1.73,1.73,0,0,0,.7.24l.38.06a2.05,2.05,0,0,1,1.16.47,1.21,1.21,0,0,1,.34.9,1.42,1.42,0,0,1-.48,1.13A2,2,0,0,1,251.51,50.57Z"/><path d="M254.41,46v-.82h2.48V46Z"/><path d="M258.07,47.33v-.47h1V44.34l-1,.53-.24-.42,1.2-.62h.64v3h.94v.47Z"/><path d="M263.35,47.5a6.45,6.45,0,0,1-.14,1.33,5.92,5.92,0,0,1-.37,1.19,5,5,0,0,1-.54,1,3.47,3.47,0,0,1-.67.74h-.72a4.56,4.56,0,0,0,.7-.8,5.37,5.37,0,0,0,.54-1,5.13,5.13,0,0,0,.36-1,4.17,4.17,0,0,0,.13-1V47.1a4.21,4.21,0,0,0-.13-1,5.74,5.74,0,0,0-.34-1,5.37,5.37,0,0,0-.54-1,4.75,4.75,0,0,0-.72-.82h.72a4.22,4.22,0,0,1,.68.76,5.85,5.85,0,0,1,.54,1,6.13,6.13,0,0,1,.37,1.19A6.29,6.29,0,0,1,263.35,47.5Z"/></svg>