<svg id="Camada_1" data-name="Camada 1" xmlns="http://www.w3.org/2000/svg" viewBox="0 0 320.4 57.45"><defs><style>.cls-1{opacity:0.75;}.cls-2{fill:#fff;}.cls-3{fill:#939393;}.cls-4{fill:#eb2b20;}.cls-5{fill:#d6111f;}.cls-6{fill:#bd0026;}.cls-7{fill:#0868ac;}.cls-8{fill:#001476;}.cls-9{fill:#081d58;}.cls-10{fill:#2b8cbe;}.cls-11{fill:#7bccc4;}.cls-12{fill:#a8ddb5;}.cls-13{fill:#ccebc5;}.cls-14{fill:#e0f3db;}.cls-15{fill:#ffc;}.cls-16{fill:#ffeda0;}.cls-17{fill:#fed976;}.cls-18{fill:#feb24c;}.cls-19{fill:#fc4e2a;}</style></defs><title>LEGENDAS - ESCALA</title><g class="cls-1"><path class="cls-2" d="M0,6.38C0,2.86,3.19,0,7.12,0H313.28c3.94,0,7.12,2.86,7.12,6.38V51.07c0,3.52-3.18,6.38-7.12,6.38H7.12C3.19,57.45,0,54.59,0,51.07Z"/></g><path class="cls-2" d="M154.42,23.58H149a2,2,0,0,1-2.11-2V10.68a2,2,0,0,1,2.11-2h5.46a2,2,0,0,1,2.11,2V21.61A2,2,0,0,1,154.42,23.58Z"/><path class="cls-3" d="M154.42,23.83H149a2.29,2.29,0,0,1-2.36-2.22V10.68A2.29,2.29,0,0,1,149,8.46h5.46a2.3,2.3,0,0,1,2.36,2.22V21.61A2.29,2.29,0,0,1,154.42,23.83ZM149,9a1.79,1.79,0,0,0-1.86,1.72V21.61A1.79,1.79,0,0,0,149,23.33h5.46a1.79,1.79,0,0,0,1.86-1.72V10.68A1.79,1.79,0,0,0,154.42,9Z"/><path class="cls-4" d="M274,23.58h-5.47a2,2,0,0,1-2.11-2V10.68a2,2,0,0,1,2.11-2H274a2,2,0,0,1,2.11,2V21.61A2.05,2.05,0,0,1,274,23.58Z"/><path class="cls-5" d="M291.11,23.58h-5.46a2,2,0,0,1-2.11-2V10.68a2,2,0,0,1,2.11-2h5.46a2,2,0,0,1,2.11,2V21.61A2,2,0,0,1,291.11,23.58Z"/><path class="cls-6" d="M308.2,23.58h-5.46a2,2,0,0,1-2.11-2V10.68a2,2,0,0,1,2.11-2h5.46a2,2,0,0,1,2.11,2V21.61A2,2,0,0,1,308.2,23.58Z"/><path class="cls-7" d="M51.82,23.58H46.35a2,2,0,0,1-2.11-2V10.68a2,2,0,0,1,2.11-2h5.47a2,2,0,0,1,2.11,2V21.61A2,2,0,0,1,51.82,23.58Z"/><path class="cls-8" d="M34.74,23.58H29.28a2,2,0,0,1-2.11-2V10.68a2,2,0,0,1,2.11-2h5.46a2,2,0,0,1,2.11,2V21.61A2,2,0,0,1,34.74,23.58Z"/><path class="cls-9" d="M17.67,23.58H12.2a2,2,0,0,1-2.11-2V10.68a2,2,0,0,1,2.11-2h5.47a2,2,0,0,1,2.11,2V21.61A2,2,0,0,1,17.67,23.58Z"/><path class="cls-10" d="M68.91,23.58H63.44a2,2,0,0,1-2.11-2V10.68a2,2,0,0,1,2.11-2h5.47a2,2,0,0,1,2.11,2V21.61A2.05,2.05,0,0,1,68.91,23.58Z"/><path class="cls-11" d="M86,23.58H80.53a2,2,0,0,1-2.11-2V10.68a2,2,0,0,1,2.11-2H86a2,2,0,0,1,2.11,2V21.61A2.05,2.05,0,0,1,86,23.58Z"/><path class="cls-12" d="M103.08,23.58H97.61a2,2,0,0,1-2.11-2V10.68a2,2,0,0,1,2.11-2h5.47a2,2,0,0,1,2.11,2V21.61A2.05,2.05,0,0,1,103.08,23.58Z"/><path class="cls-13" d="M120.17,23.58H114.7a2,2,0,0,1-2.11-2V10.68a2,2,0,0,1,2.11-2h5.47a2,2,0,0,1,2.1,2V21.61A2,2,0,0,1,120.17,23.58Z"/><path class="cls-14" d="M137.25,23.58h-5.46a2,2,0,0,1-2.11-2V10.68a2,2,0,0,1,2.11-2h5.46a2,2,0,0,1,2.11,2V21.61A2,2,0,0,1,137.25,23.58Z"/><path class="cls-2" d="M171.51,23.58H166a2,2,0,0,1-2.11-2V10.68a2,2,0,0,1,2.11-2h5.47a2,2,0,0,1,2.11,2V21.61A2,2,0,0,1,171.51,23.58Z"/><path class="cls-3" d="M171.51,23.83H166a2.29,2.29,0,0,1-2.36-2.22V10.68A2.3,2.3,0,0,1,166,8.46h5.47a2.3,2.3,0,0,1,2.36,2.22V21.61A2.29,2.29,0,0,1,171.51,23.83ZM166,9a1.8,1.8,0,0,0-1.86,1.72V21.61A1.8,1.8,0,0,0,166,23.33h5.47a1.79,1.79,0,0,0,1.86-1.72V10.68A1.79,1.79,0,0,0,171.51,9Z"/><path class="cls-15" d="M188.59,23.58h-5.47a2,2,0,0,1-2.1-2V10.68a2,2,0,0,1,2.1-2h5.47a2,2,0,0,1,2.11,2V21.61A2,2,0,0,1,188.59,23.58Z"/><path class="cls-16" d="M205.68,23.58h-5.47a2,2,0,0,1-2.11-2V10.68a2,2,0,0,1,2.11-2h5.47a2,2,0,0,1,2.11,2V21.61A2,2,0,0,1,205.68,23.58Z"/><path class="cls-17" d="M222.77,23.58H217.3a2,2,0,0,1-2.11-2V10.68a2,2,0,0,1,2.11-2h5.47a2,2,0,0,1,2.11,2V21.61A2.05,2.05,0,0,1,222.77,23.58Z"/><path class="cls-18" d="M239.85,23.58h-5.47a2,2,0,0,1-2.11-2V10.68a2,2,0,0,1,2.11-2h5.47a2,2,0,0,1,2.11,2V21.61A2,2,0,0,1,239.85,23.58Z"/><path class="cls-19" d="M256.94,23.58h-5.47a2,2,0,0,1-2.11-2V10.68a2,2,0,0,1,2.11-2h5.47a2,2,0,0,1,2.11,2V21.61A2.05,2.05,0,0,1,256.94,23.58Z"/><path d="M50.6,33.67v-.82h2.48v.82Z"/><path d="M54.57,36.15v-.7h1.85V30.11h-.06l-1.68,1.56-.46-.51L56,29.52h1.24v5.93h1.71v.7Z"/><path d="M63,36.15v-1.3H59.79v-.7l2.78-4.63h1.19v4.66h1v.67h-1v1.3Zm-2.45-2H63v-4h0Z"/><path d="M16.51,33.67v-.82H19v.82Z"/><path d="M20.48,36.15v-.7h1.86V30.11h-.07L20.6,31.67l-.47-.51,1.76-1.64h1.25v5.93h1.71v.7Z"/><path d="M28.2,36.26a3.06,3.06,0,0,1-1-.14,2.3,2.3,0,0,1-.72-.41,1.7,1.7,0,0,1-.43-.6,2,2,0,0,1-.15-.77,1.52,1.52,0,0,1,.37-1.08,2.08,2.08,0,0,1,1-.56v-.07a1.69,1.69,0,0,1-.83-.59,1.52,1.52,0,0,1-.31-1,1.47,1.47,0,0,1,.55-1.21,2.39,2.39,0,0,1,1.55-.45,2.4,2.4,0,0,1,1.55.45,1.5,1.5,0,0,1,.55,1.21A1.58,1.58,0,0,1,30,32a1.74,1.74,0,0,1-.83.59v.07a2.08,2.08,0,0,1,1,.56,1.57,1.57,0,0,1,.37,1.08,2,2,0,0,1-.15.77,1.61,1.61,0,0,1-.44.6,2.14,2.14,0,0,1-.71.41A3.06,3.06,0,0,1,28.2,36.26Zm0-.7a1.63,1.63,0,0,0,1.07-.31,1.05,1.05,0,0,0,.38-.87v-.2a1.09,1.09,0,0,0-.38-.88A1.68,1.68,0,0,0,28.2,33a1.73,1.73,0,0,0-1.08.3,1.09,1.09,0,0,0-.38.88v.2a1.05,1.05,0,0,0,.38.87A1.67,1.67,0,0,0,28.2,35.56Zm0-3.23a1.51,1.51,0,0,0,.95-.26,1,1,0,0,0,.32-.78v-.14a1,1,0,0,0-.32-.78,1.51,1.51,0,0,0-.95-.26,1.49,1.49,0,0,0-.95.26.94.94,0,0,0-.32.78v.14a.94.94,0,0,0,.32.78A1.49,1.49,0,0,0,28.2,32.33Z"/><path d="M84.85,33.67v-.82h2.48v.82Z"/><path d="M88.82,36.15v-.7h1.86V30.11h-.07l-1.67,1.56-.47-.51,1.76-1.64h1.24v5.93h1.71v.7Z"/><path d="M96.54,36.26a1.9,1.9,0,0,1-1.74-.9,4.91,4.91,0,0,1-.54-2.52,4.93,4.93,0,0,1,.54-2.53,1.9,1.9,0,0,1,1.74-.9,1.87,1.87,0,0,1,1.73.9,4.82,4.82,0,0,1,.55,2.53,4.81,4.81,0,0,1-.55,2.52A1.87,1.87,0,0,1,96.54,36.26Zm0-.7a1.24,1.24,0,0,0,.66-.16,1.29,1.29,0,0,0,.45-.45,2.35,2.35,0,0,0,.25-.69,4.82,4.82,0,0,0,.08-.89V32.3a4.63,4.63,0,0,0-.08-.88,2.31,2.31,0,0,0-.25-.7,1.29,1.29,0,0,0-.45-.45,1.24,1.24,0,0,0-.66-.16,1.3,1.3,0,0,0-.67.16,1.27,1.27,0,0,0-.44.45,2.32,2.32,0,0,0-.26.7,4.63,4.63,0,0,0-.08.88v1.07a4.82,4.82,0,0,0,.08.89,2.36,2.36,0,0,0,.26.69,1.27,1.27,0,0,0,.44.45A1.3,1.3,0,0,0,96.54,35.56Z"/><path d="M121.9,33.67v-.82h2.48v.82Z"/><path d="M127.9,36.26a2.33,2.33,0,0,1-.93-.17,2.08,2.08,0,0,1-.7-.5,2.25,2.25,0,0,1-.44-.81,3.48,3.48,0,0,1-.15-1.06,4.45,4.45,0,0,1,.21-1.39,5.46,5.46,0,0,1,.57-1.19,6.09,6.09,0,0,1,.76-.95,4.74,4.74,0,0,1,.82-.67h1a11.69,11.69,0,0,0-.95.76,5.26,5.26,0,0,0-.73.77,5.16,5.16,0,0,0-.54.86,5.51,5.51,0,0,0-.35,1l0,0a2.21,2.21,0,0,1,.61-.68,1.66,1.66,0,0,1,1-.27,2.21,2.21,0,0,1,.78.14,1.68,1.68,0,0,1,.62.41,2,2,0,0,1,.41.65,2.47,2.47,0,0,1,.14.84,2.57,2.57,0,0,1-.15.9,2.17,2.17,0,0,1-.45.69,2.11,2.11,0,0,1-.7.45A2.36,2.36,0,0,1,127.9,36.26Zm0-.7a1.38,1.38,0,0,0,1-.36,1.41,1.41,0,0,0,.37-1v-.08a1.42,1.42,0,0,0-.37-1,1.39,1.39,0,0,0-2.41,1v.08a1.27,1.27,0,0,0,1.39,1.39Z"/><path d="M160.22,36.26a1.9,1.9,0,0,1-1.74-.9,4.93,4.93,0,0,1-.54-2.53,4.91,4.91,0,0,1,.54-2.52,1.9,1.9,0,0,1,1.74-.91,1.88,1.88,0,0,1,1.73.91,4.81,4.81,0,0,1,.55,2.52,4.82,4.82,0,0,1-.55,2.53A1.87,1.87,0,0,1,160.22,36.26Zm0-.7a1.24,1.24,0,0,0,.66-.16,1.21,1.21,0,0,0,.45-.45,2.31,2.31,0,0,0,.25-.7,3.94,3.94,0,0,0,.08-.88V32.3a4.09,4.09,0,0,0-.08-.89,2.35,2.35,0,0,0-.25-.69,1.21,1.21,0,0,0-.45-.45,1.24,1.24,0,0,0-.66-.16,1.3,1.3,0,0,0-.67.16,1.27,1.27,0,0,0-.44.45,2.1,2.1,0,0,0-.25.69,4.06,4.06,0,0,0-.09.89v1.07a3.91,3.91,0,0,0,.09.88,2.07,2.07,0,0,0,.25.7,1.27,1.27,0,0,0,.44.45A1.3,1.3,0,0,0,160.22,35.56Z"/><path d="M194.35,36.26a2.33,2.33,0,0,1-.93-.17,2.08,2.08,0,0,1-.7-.5,2.25,2.25,0,0,1-.44-.81,3.48,3.48,0,0,1-.15-1.06,4.18,4.18,0,0,1,.22-1.39,5,5,0,0,1,.56-1.19,6.09,6.09,0,0,1,.76-.95,5.15,5.15,0,0,1,.82-.67h1a11.69,11.69,0,0,0-1,.76,5.26,5.26,0,0,0-.73.77,5.16,5.16,0,0,0-.54.86,5.51,5.51,0,0,0-.35,1l.05,0a2.21,2.21,0,0,1,.61-.68,1.66,1.66,0,0,1,1-.27,2.21,2.21,0,0,1,.78.14,1.68,1.68,0,0,1,.62.41,2,2,0,0,1,.41.65,2.47,2.47,0,0,1,.14.84,2.57,2.57,0,0,1-.15.9,2.17,2.17,0,0,1-.45.69,2.11,2.11,0,0,1-.7.45A2.36,2.36,0,0,1,194.35,36.26Zm0-.7a1.27,1.27,0,0,0,1.39-1.39v-.08a1.39,1.39,0,1,0-2.78,0v.08a1.27,1.27,0,0,0,1.39,1.39Z"/><path d="M223.79,36.15v-.7h1.85V30.11h-.07l-1.67,1.56-.47-.51,1.76-1.64h1.25v5.93h1.71v.7Z"/><path d="M231.5,36.26a1.87,1.87,0,0,1-1.73-.9,4.81,4.81,0,0,1-.55-2.52,4.82,4.82,0,0,1,.55-2.53,2.11,2.11,0,0,1,3.46,0,4.82,4.82,0,0,1,.55,2.53,4.81,4.81,0,0,1-.55,2.52A1.87,1.87,0,0,1,231.5,36.26Zm0-.7a1.24,1.24,0,0,0,.66-.16,1.21,1.21,0,0,0,.45-.45,2.35,2.35,0,0,0,.25-.69,4.09,4.09,0,0,0,.08-.89V32.3a3.94,3.94,0,0,0-.08-.88,2.31,2.31,0,0,0-.25-.7,1.21,1.21,0,0,0-.45-.45,1.24,1.24,0,0,0-.66-.16,1.3,1.3,0,0,0-.67.16,1.27,1.27,0,0,0-.44.45,2.07,2.07,0,0,0-.25.7,3.94,3.94,0,0,0-.08.88v1.07a4.09,4.09,0,0,0,.08.89,2.1,2.1,0,0,0,.25.69,1.27,1.27,0,0,0,.44.45A1.3,1.3,0,0,0,231.5,35.56Z"/><path d="M257.88,36.15v-.7h1.85V30.11h-.07L258,31.67l-.46-.51,1.75-1.64h1.25v5.93h1.71v.7Z"/><path d="M266.3,36.15v-1.3h-3.2v-.7l2.78-4.63h1.18v4.66h1v.67h-1v1.3Zm-2.45-2h2.45v-4h0Z"/><path d="M292.12,36.15v-.7H294V30.11h-.06l-1.67,1.56-.47-.51,1.76-1.64h1.24v5.93h1.71v.7Z"/><path d="M299.84,36.26a3,3,0,0,1-1-.14,2.09,2.09,0,0,1-.72-.41,1.73,1.73,0,0,1-.44-.6,2.15,2.15,0,0,1-.14-.77,1.52,1.52,0,0,1,.37-1.08,2,2,0,0,1,1-.56v-.07a1.69,1.69,0,0,1-.83-.59,1.52,1.52,0,0,1-.31-1,1.47,1.47,0,0,1,.55-1.21,2.88,2.88,0,0,1,3.09,0,1.48,1.48,0,0,1,.56,1.21,1.58,1.58,0,0,1-.31,1,1.79,1.79,0,0,1-.83.59v.07a2,2,0,0,1,1,.56,1.53,1.53,0,0,1,.38,1.08,2,2,0,0,1-.15.77,1.73,1.73,0,0,1-.44.6,2.09,2.09,0,0,1-.72.41A3,3,0,0,1,299.84,36.26Zm0-.7a1.63,1.63,0,0,0,1.07-.31,1.05,1.05,0,0,0,.38-.87v-.2a1.09,1.09,0,0,0-.38-.88,1.68,1.68,0,0,0-1.07-.3,1.71,1.71,0,0,0-1.08.3,1.09,1.09,0,0,0-.38.88v.2a1.05,1.05,0,0,0,.38.87A1.65,1.65,0,0,0,299.84,35.56Zm0-3.23a1.53,1.53,0,0,0,1-.26,1,1,0,0,0,.32-.78v-.14a1,1,0,0,0-.32-.78,1.53,1.53,0,0,0-1-.26,1.49,1.49,0,0,0-.95.26,1,1,0,0,0-.33.78v.14a1,1,0,0,0,.33.78A1.49,1.49,0,0,0,299.84,32.33Z"/><path d="M67.34,50.16l-.67-1.95H64l-.66,1.95h-.81l2.32-6.63h1l2.32,6.63Zm-2-5.89h0L64.18,47.5h2.29Z"/><path d="M69.2,50.16v-4.9H70v.79h0a1.61,1.61,0,0,1,.5-.66,1.48,1.48,0,0,1,.88-.24,1.57,1.57,0,0,1,1.21.48A2,2,0,0,1,73,47v3.14h-.76v-3q0-1.32-1.11-1.32a1.68,1.68,0,0,0-.45.06,1.19,1.19,0,0,0-.38.17.83.83,0,0,0-.27.29.78.78,0,0,0-.1.41v3.41Z"/><path d="M76.45,50.28a2.27,2.27,0,0,1-.91-.18,2.1,2.1,0,0,1-.69-.52,2.48,2.48,0,0,1-.46-.81,3.47,3.47,0,0,1-.16-1.06,3.4,3.4,0,0,1,.16-1.05,2.43,2.43,0,0,1,.46-.82,1.94,1.94,0,0,1,.69-.51,2.27,2.27,0,0,1,.91-.18,2.11,2.11,0,0,1,.89.18,2,2,0,0,1,.7.51,2.43,2.43,0,0,1,.46.82,3.13,3.13,0,0,1,.16,1.05,3.19,3.19,0,0,1-.16,1.06,2.48,2.48,0,0,1-.46.81,2.14,2.14,0,0,1-.7.52A2.11,2.11,0,0,1,76.45,50.28Zm0-.68a1.38,1.38,0,0,0,1-.38,1.55,1.55,0,0,0,.39-1.16v-.7a1.55,1.55,0,0,0-.39-1.16,1.38,1.38,0,0,0-1-.38,1.41,1.41,0,0,0-1,.38,1.55,1.55,0,0,0-.39,1.16v.7a1.55,1.55,0,0,0,.39,1.16A1.41,1.41,0,0,0,76.45,49.6Z"/><path d="M79.91,50.16v-4.9h.76v.79h0a2,2,0,0,1,.2-.35,1.2,1.2,0,0,1,.26-.29,1.18,1.18,0,0,1,.37-.19,1.45,1.45,0,0,1,.49-.07,1.75,1.75,0,0,1,.9.23,1.35,1.35,0,0,1,.6.75h0a1.57,1.57,0,0,1,.5-.69,1.52,1.52,0,0,1,1-.29,1.49,1.49,0,0,1,1.18.48A2.08,2.08,0,0,1,86.64,47v3.14h-.76v-3a1.64,1.64,0,0,0-.26-1,1,1,0,0,0-.81-.33,1.56,1.56,0,0,0-.44.06,1.19,1.19,0,0,0-.36.17.91.91,0,0,0-.26.29.88.88,0,0,0-.09.41v3.41H82.9v-3a1.64,1.64,0,0,0-.26-1,1,1,0,0,0-.8-.33,1.49,1.49,0,0,0-.43.06,1.05,1.05,0,0,0-.37.17.94.94,0,0,0-.27.29.89.89,0,0,0-.1.41v3.41Z"/><path d="M91.77,50.16a.72.72,0,0,1-.61-.23,1.14,1.14,0,0,1-.24-.57h0a1.26,1.26,0,0,1-.54.69,1.65,1.65,0,0,1-.88.23,1.75,1.75,0,0,1-1.21-.4,1.41,1.41,0,0,1-.43-1.09,1.23,1.23,0,0,1,.51-1.06,2.67,2.67,0,0,1,1.58-.37h1v-.48a1.06,1.06,0,0,0-.29-.8,1.18,1.18,0,0,0-.87-.28A1.35,1.35,0,0,0,89,46a1.7,1.7,0,0,0-.5.53L88,46.11a1.64,1.64,0,0,1,.63-.68,2.39,2.39,0,0,1,2.49.15,1.55,1.55,0,0,1,.5,1.22v2.69h.56v.67Zm-2.18-.53a1.72,1.72,0,0,0,.52-.07,1.11,1.11,0,0,0,.41-.19.86.86,0,0,0,.26-.28.64.64,0,0,0,.1-.35v-.81h-1a1.78,1.78,0,0,0-1,.19.62.62,0,0,0-.3.55v.2a.65.65,0,0,0,.26.56A1.15,1.15,0,0,0,89.59,49.63Z"/><path d="M94.09,50.16a.79.79,0,0,1-.61-.22.84.84,0,0,1-.2-.57V43.13H94v6.36h.72v.67Z"/><path d="M96.24,44.11a.4.4,0,0,1-.46-.43v-.12a.4.4,0,0,1,.46-.43.46.46,0,0,1,.36.12.45.45,0,0,1,.11.31v.12a.45.45,0,0,1-.11.31A.46.46,0,0,1,96.24,44.11Zm-.38,1.15h.76v4.9h-.76Z"/><path d="M101.8,50.16a.72.72,0,0,1-.61-.23,1.13,1.13,0,0,1-.23-.57h0a1.29,1.29,0,0,1-.53.69,1.68,1.68,0,0,1-.89.23,1.75,1.75,0,0,1-1.21-.4,1.41,1.41,0,0,1-.43-1.09,1.23,1.23,0,0,1,.51-1.06,2.67,2.67,0,0,1,1.58-.37h1v-.48a1.06,1.06,0,0,0-.29-.8,1.18,1.18,0,0,0-.87-.28A1.35,1.35,0,0,0,99,46a1.56,1.56,0,0,0-.49.53l-.46-.42a1.6,1.6,0,0,1,.64-.68,2,2,0,0,1,1.1-.28,2,2,0,0,1,1.38.43,1.55,1.55,0,0,1,.5,1.22v2.69h.56v.67Zm-2.18-.53a1.72,1.72,0,0,0,.52-.07,1.11,1.11,0,0,0,.41-.19.86.86,0,0,0,.26-.28.64.64,0,0,0,.1-.35v-.81h-1a1.78,1.78,0,0,0-1,.19.62.62,0,0,0-.3.55v.2a.67.67,0,0,0,.26.56A1.15,1.15,0,0,0,99.62,49.63Z"/><path d="M108.69,49.37h0a1.5,1.5,0,0,1-1.43.91,1.77,1.77,0,0,1-1.46-.7,2.2,2.2,0,0,1-.4-.81,4.08,4.08,0,0,1,0-2.12,2.2,2.2,0,0,1,.4-.81,1.73,1.73,0,0,1,.63-.51,1.87,1.87,0,0,1,.83-.18,1.61,1.61,0,0,1,.87.22,1.32,1.32,0,0,1,.56.68h0V43.13h.76v7h-.76Zm-1.26.23a1.61,1.61,0,0,0,.49-.07,1.34,1.34,0,0,0,.4-.19,1,1,0,0,0,.27-.32.82.82,0,0,0,.1-.42V46.77a.72.72,0,0,0-.1-.38,1,1,0,0,0-.27-.3,1.66,1.66,0,0,0-.4-.2,1.61,1.61,0,0,0-.49-.07,1.31,1.31,0,0,0-1,.41,1.49,1.49,0,0,0-.37,1.06v.84a1.52,1.52,0,0,0,.37,1.07A1.3,1.3,0,0,0,107.43,49.6Z"/><path d="M112.91,50.28a2.21,2.21,0,0,1-.91-.18,2.1,2.1,0,0,1-.69-.52,2.29,2.29,0,0,1-.45-.81,3.19,3.19,0,0,1-.16-1.06,3.13,3.13,0,0,1,.16-1.05,2.25,2.25,0,0,1,.45-.82,1.94,1.94,0,0,1,.69-.51,2.21,2.21,0,0,1,.91-.18,2.07,2.07,0,0,1,.88.18,2,2,0,0,1,.67.49,2.33,2.33,0,0,1,.42.76,2.87,2.87,0,0,1,.15,1v.36H111.5v.23a1.57,1.57,0,0,0,.1.58,1.33,1.33,0,0,0,.29.47,1.23,1.23,0,0,0,.45.32,1.7,1.7,0,0,0,.61.11,1.48,1.48,0,0,0,.82-.22,1.35,1.35,0,0,0,.53-.62l.54.39a1.82,1.82,0,0,1-.74.82A2.27,2.27,0,0,1,112.91,50.28Zm0-4.5a1.48,1.48,0,0,0-.57.11,1.39,1.39,0,0,0-.45.31,1.31,1.31,0,0,0-.28.47,1.55,1.55,0,0,0-.11.59v.06h2.71v-.1a1.5,1.5,0,0,0-.36-1A1.21,1.21,0,0,0,112.91,45.78Z"/><path d="M119.39,50.16h-.79V43.53h2.64a1.7,1.7,0,0,1,1.85,1.88,2,2,0,0,1-.34,1.2,1.61,1.61,0,0,1-1,.63l1.52,2.92h-.9l-1.44-2.85h-1.55Zm1.85-3.53a1,1,0,0,0,.73-.25.9.9,0,0,0,.27-.7v-.5a.91.91,0,0,0-.27-.7,1,1,0,0,0-.73-.25h-1.85v2.4Z"/><path d="M128.07,50.16a.71.71,0,0,1-.61-.23,1.06,1.06,0,0,1-.24-.57h0a1.26,1.26,0,0,1-.54.69,1.65,1.65,0,0,1-.88.23,1.75,1.75,0,0,1-1.21-.4,1.41,1.41,0,0,1-.43-1.09,1.23,1.23,0,0,1,.51-1.06,2.65,2.65,0,0,1,1.58-.37h1v-.48a1.06,1.06,0,0,0-.29-.8,1.18,1.18,0,0,0-.87-.28,1.35,1.35,0,0,0-.75.2,1.7,1.7,0,0,0-.5.53l-.45-.42a1.64,1.64,0,0,1,.63-.68,2,2,0,0,1,1.1-.28,2,2,0,0,1,1.39.43,1.55,1.55,0,0,1,.5,1.22v2.69h.56v.67Zm-2.19-.53a1.79,1.79,0,0,0,.53-.07,1.06,1.06,0,0,0,.4-.19.8.8,0,0,0,.27-.28.74.74,0,0,0,.1-.35v-.81h-1a1.82,1.82,0,0,0-1,.19.62.62,0,0,0-.3.55v.2a.65.65,0,0,0,.27.56A1.14,1.14,0,0,0,125.88,49.63Z"/><path d="M132.71,49.37h0a1.51,1.51,0,0,1-1.44.91,1.83,1.83,0,0,1-.82-.18,2,2,0,0,1-.64-.52,2.56,2.56,0,0,1-.4-.81,4.39,4.39,0,0,1,0-2.12,2.56,2.56,0,0,1,.4-.81,1.86,1.86,0,0,1,.64-.51,1.83,1.83,0,0,1,.82-.18,1.64,1.64,0,0,1,.88.22,1.37,1.37,0,0,1,.56.68h0V43.13h.76v7h-.76Zm-1.26.23a1.61,1.61,0,0,0,.49-.07,1.24,1.24,0,0,0,.4-.19.83.83,0,0,0,.27-.32.82.82,0,0,0,.1-.42V46.77a.72.72,0,0,0-.1-.38.77.77,0,0,0-.27-.3,1.5,1.5,0,0,0-.4-.2,1.61,1.61,0,0,0-.49-.07,1.33,1.33,0,0,0-1,.41,1.54,1.54,0,0,0-.37,1.06v.84a1.56,1.56,0,0,0,.37,1.07A1.32,1.32,0,0,0,131.45,49.6Z"/><path d="M135.47,44.11a.46.46,0,0,1-.36-.12.45.45,0,0,1-.11-.31v-.12a.45.45,0,0,1,.11-.31.46.46,0,0,1,.36-.12.49.49,0,0,1,.36.12.45.45,0,0,1,.1.31v.12a.45.45,0,0,1-.1.31A.49.49,0,0,1,135.47,44.11Zm-.38,1.15h.76v4.9h-.76Z"/><path d="M141,50.16a.74.74,0,0,1-.62-.23,1.13,1.13,0,0,1-.23-.57h-.05a1.21,1.21,0,0,1-.53.69,1.67,1.67,0,0,1-.88.23,1.73,1.73,0,0,1-1.21-.4,1.42,1.42,0,0,1-.44-1.09,1.23,1.23,0,0,1,.51-1.06,2.69,2.69,0,0,1,1.58-.37h1v-.48a1.05,1.05,0,0,0-.28-.8,1.19,1.19,0,0,0-.88-.28,1.34,1.34,0,0,0-.74.2,1.59,1.59,0,0,0-.5.53l-.46-.42a1.73,1.73,0,0,1,.64-.68,2,2,0,0,1,1.1-.28,2,2,0,0,1,1.39.43,1.54,1.54,0,0,1,.49,1.22v2.69h.56v.67Zm-2.19-.53a1.68,1.68,0,0,0,.52-.07,1,1,0,0,0,.41-.19.9.9,0,0,0,.27-.28.73.73,0,0,0,.09-.35v-.81h-1a1.82,1.82,0,0,0-1,.19.62.62,0,0,0-.3.55v.2a.67.67,0,0,0,.26.56A1.17,1.17,0,0,0,138.84,49.63Z"/><path d="M144.36,45.15a2,2,0,0,1,1.17.31,1.91,1.91,0,0,1,.66.83l-.63.33a1.2,1.2,0,0,0-.44-.59,1.31,1.31,0,0,0-.76-.21,1.57,1.57,0,0,0-.6.11,1.19,1.19,0,0,0-.43.3,1.25,1.25,0,0,0-.25.47,1.83,1.83,0,0,0-.09.59v.83a1.61,1.61,0,0,0,.35,1.06,1.27,1.27,0,0,0,1,.41,1.38,1.38,0,0,0,1.33-.85l.55.37a1.9,1.9,0,0,1-.64.79,2,2,0,0,1-1,.37l-.1.47,0,0a1.19,1.19,0,0,1,.37-.06.69.69,0,0,1,.46.16.58.58,0,0,1,.19.47.68.68,0,0,1-.09.35.61.61,0,0,1-.23.25,1.16,1.16,0,0,1-.34.14,1.68,1.68,0,0,1-.4.05,1.2,1.2,0,0,1-.61-.13,1.18,1.18,0,0,1-.33-.26l.37-.39a.67.67,0,0,0,.22.18.68.68,0,0,0,.35.09.53.53,0,0,0,.3-.08.23.23,0,0,0,.12-.22.28.28,0,0,0-.12-.23,1.16,1.16,0,0,0-.52-.16l-.27,0,.12-.62a2,2,0,0,1-1.42-.78,3,3,0,0,1-.5-1.78,3.48,3.48,0,0,1,.15-1.06,2.24,2.24,0,0,1,.43-.81,1.94,1.94,0,0,1,.69-.51A2.25,2.25,0,0,1,144.36,45.15Z"/><path d="M150.88,50.16a.74.74,0,0,1-.62-.23,1.13,1.13,0,0,1-.23-.57H150a1.21,1.21,0,0,1-.53.69,1.65,1.65,0,0,1-.88.23,1.75,1.75,0,0,1-1.21-.4,1.42,1.42,0,0,1-.44-1.09,1.23,1.23,0,0,1,.51-1.06,2.69,2.69,0,0,1,1.58-.37h1v-.48a1.05,1.05,0,0,0-.28-.8,1.18,1.18,0,0,0-.87-.28,1.35,1.35,0,0,0-.75.2,1.59,1.59,0,0,0-.5.53l-.45-.42a1.64,1.64,0,0,1,.63-.68,2,2,0,0,1,1.1-.28,2,2,0,0,1,1.39.43,1.54,1.54,0,0,1,.49,1.22v2.69h.56v.67Zm-1.28-5.81a.93.93,0,0,1-.42-.09l-.34-.16a2.26,2.26,0,0,0-.38-.17.83.83,0,0,0-.28-.06.57.57,0,0,0-.29.07,1.31,1.31,0,0,0-.26.19l-.32-.38a1.5,1.5,0,0,1,.36-.35.94.94,0,0,1,.55-.15.93.93,0,0,1,.42.08l.34.16a2.45,2.45,0,0,0,.38.18,1.11,1.11,0,0,0,.28,0,.57.57,0,0,0,.29-.07,1.22,1.22,0,0,0,.26-.18l.32.37a1.45,1.45,0,0,1-.35.35A.91.91,0,0,1,149.6,44.35Zm-.91,5.28a1.68,1.68,0,0,0,.52-.07,1,1,0,0,0,.41-.19.8.8,0,0,0,.27-.28.73.73,0,0,0,.09-.35v-.81h-1a1.82,1.82,0,0,0-1,.19.62.62,0,0,0-.3.55v.2a.67.67,0,0,0,.26.56A1.17,1.17,0,0,0,148.69,49.63Z"/><path d="M154.24,50.28a2.19,2.19,0,0,1-.9-.18,2.14,2.14,0,0,1-.7-.52,2.65,2.65,0,0,1-.45-.81,3.19,3.19,0,0,1-.16-1.06,3.13,3.13,0,0,1,.16-1.05,2.59,2.59,0,0,1,.45-.82,2,2,0,0,1,.7-.51,2.34,2.34,0,0,1,1.8,0,2.07,2.07,0,0,1,.7.51,2.59,2.59,0,0,1,.45.82,3.13,3.13,0,0,1,.16,1.05,3.19,3.19,0,0,1-.16,1.06,2.65,2.65,0,0,1-.45.81,2.24,2.24,0,0,1-.7.52A2.19,2.19,0,0,1,154.24,50.28Zm0-.68a1.41,1.41,0,0,0,1-.38,1.55,1.55,0,0,0,.39-1.16v-.7a1.55,1.55,0,0,0-.39-1.16,1.53,1.53,0,0,0-2,0,1.55,1.55,0,0,0-.39,1.16v.7a1.55,1.55,0,0,0,.39,1.16A1.41,1.41,0,0,0,154.24,49.6Z"/><path d="M163.08,49.37h0a1.51,1.51,0,0,1-1.44.91,1.83,1.83,0,0,1-.82-.18,2,2,0,0,1-.64-.52,2.56,2.56,0,0,1-.4-.81,4.39,4.39,0,0,1,0-2.12,2.56,2.56,0,0,1,.4-.81,1.86,1.86,0,0,1,.64-.51,1.83,1.83,0,0,1,.82-.18,1.64,1.64,0,0,1,.88.22,1.37,1.37,0,0,1,.56.68h0V43.13h.76v7h-.76Zm-1.26.23a1.61,1.61,0,0,0,.49-.07,1.24,1.24,0,0,0,.4-.19A.83.83,0,0,0,163,49a.82.82,0,0,0,.1-.42V46.77a.72.72,0,0,0-.1-.38.77.77,0,0,0-.27-.3,1.5,1.5,0,0,0-.4-.2,1.61,1.61,0,0,0-.49-.07,1.33,1.33,0,0,0-1,.41,1.54,1.54,0,0,0-.37,1.06v.84a1.56,1.56,0,0,0,.37,1.07A1.32,1.32,0,0,0,161.82,49.6Z"/><path d="M167.3,50.28a2.24,2.24,0,0,1-.91-.18,2.2,2.2,0,0,1-.69-.52,2.65,2.65,0,0,1-.45-.81,3.48,3.48,0,0,1-.15-1.06,3.41,3.41,0,0,1,.15-1.05,2.59,2.59,0,0,1,.45-.82,2,2,0,0,1,.69-.51,2.24,2.24,0,0,1,.91-.18,2.11,2.11,0,0,1,.89.18,2,2,0,0,1,.66.49,2.33,2.33,0,0,1,.42.76,2.87,2.87,0,0,1,.15,1v.36H165.9v.23a1.57,1.57,0,0,0,.1.58,1.31,1.31,0,0,0,.28.47,1.27,1.27,0,0,0,.46.32,1.66,1.66,0,0,0,.61.11,1.45,1.45,0,0,0,.81-.22,1.43,1.43,0,0,0,.54-.62l.54.39a2,2,0,0,1-.74.82A2.33,2.33,0,0,1,167.3,50.28Zm0-4.5a1.48,1.48,0,0,0-.57.11,1.25,1.25,0,0,0-.44.31,1.49,1.49,0,0,0-.29.47,1.55,1.55,0,0,0-.1.59v.06h2.7v-.1a1.55,1.55,0,0,0-.35-1A1.24,1.24,0,0,0,167.3,45.78Z"/><path d="M175.47,50.28a2.86,2.86,0,0,1-1.16-.23,2.39,2.39,0,0,1-.89-.65,3.07,3.07,0,0,1-.56-1.08,5,5,0,0,1-.2-1.47,5.1,5.1,0,0,1,.2-1.48,3.11,3.11,0,0,1,.56-1.07,2.41,2.41,0,0,1,.89-.66,2.86,2.86,0,0,1,1.16-.22,2.89,2.89,0,0,1,1.16.22,2.41,2.41,0,0,1,.89.66,3.11,3.11,0,0,1,.56,1.07,4.78,4.78,0,0,1,.2,1.48,4.71,4.71,0,0,1-.2,1.47,3.07,3.07,0,0,1-.56,1.08,2.39,2.39,0,0,1-.89.65A2.89,2.89,0,0,1,175.47,50.28Zm0-.71a2,2,0,0,0,.79-.15,1.71,1.71,0,0,0,.62-.44,2,2,0,0,0,.41-.68,2.83,2.83,0,0,0,.14-.9V46.29a2.72,2.72,0,0,0-.14-.89,2,2,0,0,0-.41-.69,1.71,1.71,0,0,0-.62-.44,2,2,0,0,0-.79-.15,2.06,2.06,0,0,0-.79.15,1.71,1.71,0,0,0-.62.44,2,2,0,0,0-.4.69,2.48,2.48,0,0,0-.15.89V47.4a2.57,2.57,0,0,0,.15.9,2,2,0,0,0,.4.68,1.71,1.71,0,0,0,.62.44A2.06,2.06,0,0,0,175.47,49.57Z"/><path d="M179.64,50.16v-4.9h.76v.79h0a1.55,1.55,0,0,1,.51-.66,1.46,1.46,0,0,1,.88-.24,1.57,1.57,0,0,1,1.2.48,2,2,0,0,1,.44,1.39v3.14h-.76v-3q0-1.32-1.11-1.32a1.61,1.61,0,0,0-.44.06,1.25,1.25,0,0,0-.39.17.94.94,0,0,0-.27.29.78.78,0,0,0-.1.41v3.41Z"/><path d="M188.17,49.37h0a1.49,1.49,0,0,1-1.43.91,1.9,1.9,0,0,1-.83-.18,2.09,2.09,0,0,1-.63-.52,2.36,2.36,0,0,1-.4-.81,4.39,4.39,0,0,1,0-2.12,2.36,2.36,0,0,1,.4-.81,1.79,1.79,0,0,1,1.46-.69,1.64,1.64,0,0,1,.88.22,1.31,1.31,0,0,1,.55.68h0V43.13h.76v7h-.76Zm-1.26.23a1.61,1.61,0,0,0,.49-.07,1.24,1.24,0,0,0,.4-.19.83.83,0,0,0,.27-.32.82.82,0,0,0,.1-.42V46.77a.72.72,0,0,0-.1-.38.77.77,0,0,0-.27-.3,1.5,1.5,0,0,0-.4-.2,1.61,1.61,0,0,0-.49-.07,1.33,1.33,0,0,0-1,.41,1.54,1.54,0,0,0-.37,1.06v.84a1.56,1.56,0,0,0,.37,1.07A1.32,1.32,0,0,0,186.91,49.6Z"/><path d="M194.11,50.16a.72.72,0,0,1-.61-.23,1.14,1.14,0,0,1-.24-.57h0a1.29,1.29,0,0,1-.53.69,1.71,1.71,0,0,1-.89.23,1.75,1.75,0,0,1-1.21-.4,1.41,1.41,0,0,1-.43-1.09,1.23,1.23,0,0,1,.51-1.06,2.65,2.65,0,0,1,1.58-.37h1v-.48a1.06,1.06,0,0,0-.29-.8,1.18,1.18,0,0,0-.87-.28,1.35,1.35,0,0,0-.75.2,1.7,1.7,0,0,0-.5.53l-.45-.42a1.64,1.64,0,0,1,.63-.68,2.39,2.39,0,0,1,2.49.15,1.55,1.55,0,0,1,.5,1.22v2.69h.56v.67Zm-2.19-.53a1.74,1.74,0,0,0,.53-.07,1.11,1.11,0,0,0,.41-.19.86.86,0,0,0,.26-.28.64.64,0,0,0,.1-.35v-.81h-1a1.78,1.78,0,0,0-1,.19.62.62,0,0,0-.3.55v.2a.65.65,0,0,0,.26.56A1.14,1.14,0,0,0,191.92,49.63Z"/><path d="M197.94,50.16V43.53h.8v5.93h2.82v.7Z"/><path d="M204.38,50.28a2.19,2.19,0,0,1-.9-.18,2.14,2.14,0,0,1-.7-.52,2.65,2.65,0,0,1-.45-.81,3.19,3.19,0,0,1-.16-1.06,3.13,3.13,0,0,1,.16-1.05,2.59,2.59,0,0,1,.45-.82,2,2,0,0,1,.7-.51,2.34,2.34,0,0,1,1.8,0,2.07,2.07,0,0,1,.7.51,2.41,2.41,0,0,1,.45.82,3.13,3.13,0,0,1,.16,1.05,3.19,3.19,0,0,1-.16,1.06,2.46,2.46,0,0,1-.45.81,2.24,2.24,0,0,1-.7.52A2.19,2.19,0,0,1,204.38,50.28Zm0-.68a1.41,1.41,0,0,0,1-.38,1.55,1.55,0,0,0,.39-1.16v-.7a1.55,1.55,0,0,0-.39-1.16,1.53,1.53,0,0,0-2,0,1.55,1.55,0,0,0-.39,1.16v.7a1.55,1.55,0,0,0,.39,1.16A1.41,1.41,0,0,0,204.38,49.6Z"/><path d="M207.85,50.16v-4.9h.76v.79h0a1.61,1.61,0,0,1,.5-.66,1.48,1.48,0,0,1,.88-.24,1.57,1.57,0,0,1,1.21.48,2,2,0,0,1,.44,1.39v3.14h-.76v-3q0-1.32-1.11-1.32a1.68,1.68,0,0,0-.45.06,1.19,1.19,0,0,0-.38.17.83.83,0,0,0-.27.29.78.78,0,0,0-.1.41v3.41Z"/><path d="M217.38,50.71a1.2,1.2,0,0,1-.6,1.11,3.49,3.49,0,0,1-1.78.36,3.23,3.23,0,0,1-1.65-.32,1,1,0,0,1-.51-.89.93.93,0,0,1,.21-.62,1.23,1.23,0,0,1,.57-.33v-.1a.71.71,0,0,1-.43-.68.72.72,0,0,1,.23-.57,1.92,1.92,0,0,1,.61-.29v0a1.59,1.59,0,0,1-.68-.6,1.72,1.72,0,0,1-.24-.91,1.87,1.87,0,0,1,.13-.68,1.62,1.62,0,0,1,1-.89,2.19,2.19,0,0,1,.75-.12,2.12,2.12,0,0,1,.93.19v-.09a.83.83,0,0,1,.14-.48.51.51,0,0,1,.44-.18h.73v.67h-.93v.31a1.84,1.84,0,0,1,.41.55,1.69,1.69,0,0,1,.15.72,1.74,1.74,0,0,1-.14.69,1.58,1.58,0,0,1-.37.54,1.63,1.63,0,0,1-.59.34,2,2,0,0,1-.76.13,2.5,2.5,0,0,1-.47,0,1.53,1.53,0,0,0-.45.19.42.42,0,0,0-.2.36.29.29,0,0,0,.21.3,1.65,1.65,0,0,0,.54.07h1a2,2,0,0,1,1.32.35A1.15,1.15,0,0,1,217.38,50.71Zm-.72,0a.56.56,0,0,0-.22-.47,1.29,1.29,0,0,0-.79-.18H214a.7.7,0,0,0-.45.67.74.74,0,0,0,.24.55,1.2,1.2,0,0,0,.82.23h.7a2,2,0,0,0,1-.2A.63.63,0,0,0,216.66,50.76ZM215,47.93a1.2,1.2,0,0,0,.77-.23A.9.9,0,0,0,216,47v-.26a.86.86,0,0,0-.29-.72,1.15,1.15,0,0,0-.77-.24,1.16,1.16,0,0,0-.77.24.86.86,0,0,0-.28.72V47a.89.89,0,0,0,.28.73A1.22,1.22,0,0,0,215,47.93Z"/><path d="M221.79,50.16a.72.72,0,0,1-.61-.23,1.13,1.13,0,0,1-.23-.57h0a1.25,1.25,0,0,1-.53.69,1.68,1.68,0,0,1-.89.23,1.75,1.75,0,0,1-1.21-.4,1.41,1.41,0,0,1-.43-1.09,1.23,1.23,0,0,1,.51-1.06,2.67,2.67,0,0,1,1.58-.37h1v-.48a1.09,1.09,0,0,0-.28-.8,1.22,1.22,0,0,0-.88-.28,1.29,1.29,0,0,0-.74.2,1.59,1.59,0,0,0-.5.53l-.46-.42a1.66,1.66,0,0,1,.64-.68,2,2,0,0,1,1.1-.28,2,2,0,0,1,1.39.43,1.54,1.54,0,0,1,.49,1.22v2.69h.56v.67Zm-2.18-.53a1.72,1.72,0,0,0,.52-.07,1.11,1.11,0,0,0,.41-.19.86.86,0,0,0,.26-.28.64.64,0,0,0,.1-.35v-.81h-1a1.8,1.8,0,0,0-.95.19.62.62,0,0,0-.3.55v.2a.67.67,0,0,0,.26.56A1.15,1.15,0,0,0,219.61,49.63Z"/><path d="M225.53,47.2a6.29,6.29,0,0,1,.13-1.32,6.13,6.13,0,0,1,.37-1.19,5.22,5.22,0,0,1,.54-1,4.22,4.22,0,0,1,.68-.76H228a4.7,4.7,0,0,0-.72.82,5.73,5.73,0,0,0-.54,1,6.69,6.69,0,0,0-.35,1,4.73,4.73,0,0,0-.12,1v.82a4.66,4.66,0,0,0,.12,1,6.81,6.81,0,0,0,.35,1.05,7.12,7.12,0,0,0,.55,1,4.16,4.16,0,0,0,.71.79h-.72a3.47,3.47,0,0,1-.67-.74,5,5,0,0,1-.54-1,6.64,6.64,0,0,1-.38-1.19A6.38,6.38,0,0,1,225.53,47.2Z"/><path d="M229.92,50.16l-1.62-6.63h.85l.71,3.19.55,2.48h0l.62-2.48.83-3.19h.91l.81,3.19.62,2.47h0l.57-2.47.75-3.19h.82l-1.7,6.63h-.89l-.86-3.3-.61-2.44h0l-.63,2.44-.88,3.3Z"/><path d="M236.57,51.6l2.48-8.47h.68l-2.48,8.47Z"/><path d="M240.93,50.16v-4.9h.76v.79h0a2,2,0,0,1,.19-.35,1.06,1.06,0,0,1,.27-.29,1,1,0,0,1,.36-.19,1.51,1.51,0,0,1,.5-.07,1.71,1.71,0,0,1,.89.23,1.41,1.41,0,0,1,.61.75h0a1.47,1.47,0,0,1,.49-.69,1.55,1.55,0,0,1,1-.29,1.47,1.47,0,0,1,1.17.48,2.08,2.08,0,0,1,.42,1.39v3.14h-.76v-3a1.65,1.65,0,0,0-.25-1,1,1,0,0,0-.82-.33,1.49,1.49,0,0,0-.43.06,1.14,1.14,0,0,0-.37.17.86.86,0,0,0-.35.7v3.41h-.76v-3a1.58,1.58,0,0,0-.26-1,.93.93,0,0,0-.79-.33,1.56,1.56,0,0,0-.44.06,1.14,1.14,0,0,0-.37.17.8.8,0,0,0-.26.29.78.78,0,0,0-.1.41v3.41Z"/><path d="M251.16,47h-2.59v-.55l1.24-1a2.23,2.23,0,0,0,.43-.45.79.79,0,0,0,.16-.48v-.06a.47.47,0,0,0-.16-.39.64.64,0,0,0-.46-.15.68.68,0,0,0-.5.16,1,1,0,0,0-.24.39l-.51-.19a1.33,1.33,0,0,1,.15-.32,1.16,1.16,0,0,1,.26-.28,1.28,1.28,0,0,1,.37-.18,1.6,1.6,0,0,1,.51-.08,1.3,1.3,0,0,1,.9.29,1,1,0,0,1,.31.75,1.12,1.12,0,0,1-.25.73,3.87,3.87,0,0,1-.65.61l-.92.71h1.95Z"/><path d="M253.88,47.2a6.38,6.38,0,0,1-.13,1.33,7.56,7.56,0,0,1-.37,1.19,5.61,5.61,0,0,1-.55,1,3.72,3.72,0,0,1-.66.74h-.73a4.12,4.12,0,0,0,.7-.79,6.2,6.2,0,0,0,.55-1,5.88,5.88,0,0,0,.35-1.05,4.15,4.15,0,0,0,.13-1V46.8a4.73,4.73,0,0,0-.12-1,6,6,0,0,0-.89-2,4.7,4.7,0,0,0-.72-.82h.73a4.18,4.18,0,0,1,.67.76,5.88,5.88,0,0,1,.55,1,6.9,6.9,0,0,1,.36,1.19A6.29,6.29,0,0,1,253.88,47.2Z"/></svg>