<svg id="Camada_1" data-name="Camada 1" xmlns="http://www.w3.org/2000/svg" viewBox="0 0 320.4 57.45">
  <title>LEGENDAS_PÁGINA_CLIMA</title>
  <g style="opacity: 0.75">
    <path d="M0,6.38C0,2.86,3.19,0,7.12,0H313.28c3.94,0,7.12,2.86,7.12,6.38V51.07c0,3.52-3.18,6.38-7.12,6.38H7.12C3.19,57.45,0,54.59,0,51.07Z" style="fill: #fff"/>
  </g>
  <g>
    <path d="M51.74,33.14v-.69h2.1v.69Z"/>
    <path d="M55.1,35.24v-.6h1.57V30.12h-.06L55.2,31.44,54.8,31l1.49-1.39h1.06v5h1.44v.6Z"/>
    <path d="M63.51,35.24H59.82v-.69l1.84-1.69a4.28,4.28,0,0,0,.66-.77,1.48,1.48,0,0,0,.27-.82v-.1a1.13,1.13,0,0,0-.26-.76,1,1,0,0,0-.78-.29,1.52,1.52,0,0,0-.45.07,1.08,1.08,0,0,0-.34.21,1,1,0,0,0-.23.3,2,2,0,0,0-.15.37l-.6-.23a1.94,1.94,0,0,1,.22-.49,1.57,1.57,0,0,1,.35-.42,1.63,1.63,0,0,1,.52-.29,1.93,1.93,0,0,1,.71-.11,2.07,2.07,0,0,1,.73.12,1.45,1.45,0,0,1,.54.33,1.51,1.51,0,0,1,.34.52,2.07,2.07,0,0,1,0,1.27,2.35,2.35,0,0,1-.25.53,3,3,0,0,1-.4.5c-.15.16-.31.32-.49.48l-1.51,1.36h2.95Z"/>
  </g>
  <g>
    <path d="M17.58,33.14v-.69h2.11v.69Z"/>
    <path d="M21,35.24v-.6h1.57V30.12h-.06l-1.41,1.32-.4-.43,1.49-1.39h1.05v5h1.45v.6Z"/>
    <path d="M27.49,35.34a1.94,1.94,0,0,1-.78-.15,1.62,1.62,0,0,1-.6-.43,1.78,1.78,0,0,1-.37-.68,2.84,2.84,0,0,1-.13-.9A3.79,3.79,0,0,1,25.79,32a5.23,5.23,0,0,1,.48-1,4.72,4.72,0,0,1,.65-.8,5.45,5.45,0,0,1,.69-.57h.87c-.3.22-.57.44-.8.64a4.23,4.23,0,0,0-.62.66,3.68,3.68,0,0,0-.45.73,3.64,3.64,0,0,0-.3.88l0,0a1.71,1.71,0,0,1,.52-.58,1.41,1.41,0,0,1,.83-.23,1.85,1.85,0,0,1,.67.12,1.45,1.45,0,0,1,.52.35,1.46,1.46,0,0,1,.34.55,1.8,1.8,0,0,1,.13.71,2.28,2.28,0,0,1-.13.76,1.66,1.66,0,0,1-1,1A2.11,2.11,0,0,1,27.49,35.34Zm0-.6a1.21,1.21,0,0,0,.87-.3,1.18,1.18,0,0,0,.31-.88v-.07a1.14,1.14,0,0,0-.31-.87,1.17,1.17,0,0,0-.87-.31,1.08,1.08,0,0,0-1.17,1.18v.07a1.06,1.06,0,0,0,1.17,1.18Z"/>
  </g>
  <g>
    <path d="M88.28,33.14v-.69h2.1v.69Z"/>
    <path d="M93.35,35.34a2.45,2.45,0,0,1-.85-.13,1.74,1.74,0,0,1-.6-.34,1.49,1.49,0,0,1-.38-.52,1.66,1.66,0,0,1-.12-.64,1.3,1.3,0,0,1,.31-.92,1.74,1.74,0,0,1,.83-.47v-.07a1.45,1.45,0,0,1-.71-.49,1.35,1.35,0,0,1-.26-.83,1.26,1.26,0,0,1,.47-1,2.45,2.45,0,0,1,2.62,0,1.26,1.26,0,0,1,.47,1,1.35,1.35,0,0,1-.26.83,1.45,1.45,0,0,1-.71.49v.07a1.71,1.71,0,0,1,.82.47,1.3,1.3,0,0,1,.32.92,1.66,1.66,0,0,1-.13.64,1.46,1.46,0,0,1-.37.52,1.79,1.79,0,0,1-.61.34A2.39,2.39,0,0,1,93.35,35.34Zm0-.6a1.45,1.45,0,0,0,.91-.26.9.9,0,0,0,.32-.74v-.17a.9.9,0,0,0-.32-.74,1.39,1.39,0,0,0-.91-.26,1.37,1.37,0,0,0-.91.26.88.88,0,0,0-.32.74v.17a.88.88,0,0,0,.32.74A1.43,1.43,0,0,0,93.35,34.74Zm0-2.74a1.23,1.23,0,0,0,.8-.22.82.82,0,0,0,.28-.66V31a.8.8,0,0,0-.28-.65,1.23,1.23,0,0,0-.8-.23,1.26,1.26,0,0,0-.81.23.79.79,0,0,0-.27.65v.12a.81.81,0,0,0,.27.66A1.26,1.26,0,0,0,93.35,32Z"/>
  </g>
  <g>
    <path d="M122.4,33.14v-.69h2.11v.69Z"/>
    <path d="M128.08,35.24v-1.1h-2.71v-.6l2.35-3.92h1v3.95h.81v.57h-.81v1.1ZM126,33.57h2.08V30.15h0Z"/>
  </g>
  <path d="M160.2,35.34a1.6,1.6,0,0,1-1.47-.77,4.12,4.12,0,0,1-.46-2.14,4.12,4.12,0,0,1,.46-2.14,1.8,1.8,0,0,1,2.94,0,4.12,4.12,0,0,1,.46,2.14,4.12,4.12,0,0,1-.46,2.14A1.6,1.6,0,0,1,160.2,35.34Zm0-.6a1,1,0,0,0,.57-.14,1,1,0,0,0,.37-.38,2,2,0,0,0,.22-.59,4.18,4.18,0,0,0,.06-.74V32a4.18,4.18,0,0,0-.06-.74,2,2,0,0,0-.22-.59,1,1,0,0,0-.37-.38,1.15,1.15,0,0,0-.57-.14,1.08,1.08,0,0,0-.56.14,1.06,1.06,0,0,0-.38.38,1.72,1.72,0,0,0-.21.59A3.38,3.38,0,0,0,159,32v.92a3.38,3.38,0,0,0,.07.74,1.72,1.72,0,0,0,.21.59,1.06,1.06,0,0,0,.38.38A1,1,0,0,0,160.2,34.74Z"/>
  <path d="M195,35.24v-1.1h-2.71v-.6l2.35-3.92h1v3.95h.81v.57h-.81v1.1ZM193,33.57H195V30.15h0Z"/>
  <path d="M228.57,35.34a2.39,2.39,0,0,1-.84-.13,1.79,1.79,0,0,1-.61-.34,1.46,1.46,0,0,1-.37-.52,1.66,1.66,0,0,1-.12-.64,1.3,1.3,0,0,1,.31-.92,1.71,1.71,0,0,1,.82-.47v-.07a1.42,1.42,0,0,1-.7-.49,1.29,1.29,0,0,1-.27-.83,1.26,1.26,0,0,1,.47-1,2.45,2.45,0,0,1,2.62,0,1.23,1.23,0,0,1,.47,1,1.35,1.35,0,0,1-.26.83,1.42,1.42,0,0,1-.7.49v.07a1.76,1.76,0,0,1,.82.47,1.3,1.3,0,0,1,.31.92,1.66,1.66,0,0,1-.12.64,1.59,1.59,0,0,1-.37.52,1.89,1.89,0,0,1-.61.34A2.45,2.45,0,0,1,228.57,35.34Zm0-.6a1.43,1.43,0,0,0,.91-.26.88.88,0,0,0,.32-.74v-.17a.88.88,0,0,0-.32-.74,1.37,1.37,0,0,0-.91-.26,1.39,1.39,0,0,0-.91.26.9.9,0,0,0-.32.74v.17a.9.9,0,0,0,.32.74A1.45,1.45,0,0,0,228.57,34.74Zm0-2.74a1.24,1.24,0,0,0,.81-.22.81.81,0,0,0,.27-.66V31a.79.79,0,0,0-.27-.65,1.52,1.52,0,0,0-1.61,0,.8.8,0,0,0-.28.65v.12a.82.82,0,0,0,.28.66A1.23,1.23,0,0,0,228.57,32Z"/>
  <g>
    <path d="M258.69,35.24v-.6h1.56V30.12h-.05l-1.42,1.32-.39-.43,1.49-1.39h1.05v5h1.45v.6Z"/>
    <path d="M267.1,35.24h-3.69v-.69l1.83-1.69a3.61,3.61,0,0,0,.66-.77,1.48,1.48,0,0,0,.27-.82v-.1a1.13,1.13,0,0,0-.26-.76,1,1,0,0,0-.78-.29,1.52,1.52,0,0,0-.45.07.93.93,0,0,0-.33.21,1,1,0,0,0-.24.3,1.49,1.49,0,0,0-.14.37l-.61-.23a3.06,3.06,0,0,1,.22-.49,1.61,1.61,0,0,1,.36-.42,1.58,1.58,0,0,1,.51-.29,1.93,1.93,0,0,1,.71-.11,2.13,2.13,0,0,1,.74.12,1.38,1.38,0,0,1,.87.85,1.76,1.76,0,0,1,.12.66,1.74,1.74,0,0,1-.1.61,2,2,0,0,1-.25.53,3.56,3.56,0,0,1-.39.5c-.15.16-.32.32-.5.48l-1.51,1.36h3Z"/>
  </g>
  <g>
    <path d="M292.86,35.24v-.6h1.57V30.12h-.05L293,31.44l-.4-.43,1.49-1.39h1.06v5h1.45v.6Z"/>
    <path d="M299.41,35.34a2,2,0,0,1-.79-.15,1.58,1.58,0,0,1-.59-.43,1.8,1.8,0,0,1-.38-.68,3.15,3.15,0,0,1-.13-.9,3.52,3.52,0,0,1,.19-1.18,4.27,4.27,0,0,1,.48-1,4.68,4.68,0,0,1,.64-.8,4.87,4.87,0,0,1,.7-.57h.87c-.3.22-.57.44-.81.64a4.77,4.77,0,0,0-.62.66,3.68,3.68,0,0,0-.45.73,4.77,4.77,0,0,0-.3.88l0,0a1.82,1.82,0,0,1,.52-.58,1.42,1.42,0,0,1,.84-.23,1.76,1.76,0,0,1,.66.12,1.49,1.49,0,0,1,.53.35,1.6,1.6,0,0,1,.34.55,2,2,0,0,1,.12.71,2.06,2.06,0,0,1-.13.76,1.66,1.66,0,0,1-.38.59,1.71,1.71,0,0,1-.59.38A2.1,2.1,0,0,1,299.41,35.34Zm0-.6a1.17,1.17,0,0,0,.86-.3,1.18,1.18,0,0,0,.31-.88v-.07a1.08,1.08,0,0,0-1.17-1.18,1.08,1.08,0,0,0-1.18,1.18v.07a1.22,1.22,0,0,0,.31.88A1.21,1.21,0,0,0,299.4,34.74Z"/>
  </g>
  <g>
    <path d="M89.75,49.82V43.73h2.43a1.67,1.67,0,0,1,1.26.47,2.08,2.08,0,0,1,0,2.56,1.67,1.67,0,0,1-1.26.46H90.49v2.6Zm.74-3.24h1.69a.94.94,0,0,0,.67-.23.85.85,0,0,0,.24-.65v-.45a.83.83,0,0,0-.24-.64.94.94,0,0,0-.67-.23H90.49Z"/>
    <path d="M94.88,49.82v-4.5h.7v.83h0a1.34,1.34,0,0,1,.44-.58,1.4,1.4,0,0,1,.86-.25h.27V46h-.41a1.57,1.57,0,0,0-.88.21.61.61,0,0,0-.32.54v3Z"/>
    <path d="M99.73,49.92a2,2,0,0,1-.83-.16,1.77,1.77,0,0,1-.64-.48,2.12,2.12,0,0,1-.41-.74,2.91,2.91,0,0,1-.14-1,3,3,0,0,1,.14-1,2.12,2.12,0,0,1,.41-.74,1.77,1.77,0,0,1,.64-.48,2,2,0,0,1,.83-.16,1.92,1.92,0,0,1,.81.16,1.73,1.73,0,0,1,.61.46,1.94,1.94,0,0,1,.39.69,2.75,2.75,0,0,1,.13.88v.33H98.44V48a1.51,1.51,0,0,0,.09.53,1.24,1.24,0,0,0,.26.43,1.06,1.06,0,0,0,.42.29,1.43,1.43,0,0,0,.56.1,1.29,1.29,0,0,0,1.24-.77l.5.36a1.75,1.75,0,0,1-.68.75A2.07,2.07,0,0,1,99.73,49.92Zm0-4.12a1.24,1.24,0,0,0-.52.1,1.2,1.2,0,0,0-.41.28,1.57,1.57,0,0,0-.27.43,1.61,1.61,0,0,0-.09.54v.06h2.48v-.09a1.41,1.41,0,0,0-.32-1A1.12,1.12,0,0,0,99.73,45.8Z"/>
    <path d="M104.18,49.92a2.16,2.16,0,0,1-1.06-.24,2.31,2.31,0,0,1-.72-.64l.49-.4a2,2,0,0,0,.59.51,1.49,1.49,0,0,0,.75.18,1.09,1.09,0,0,0,.69-.19.64.64,0,0,0,.25-.54.68.68,0,0,0-.17-.45,1.09,1.09,0,0,0-.62-.26l-.35,0a3.29,3.29,0,0,1-.58-.13,2,2,0,0,1-.46-.25,1,1,0,0,1-.3-.38,1.27,1.27,0,0,1-.11-.54,1.34,1.34,0,0,1,.12-.58,1.12,1.12,0,0,1,.34-.41,1.35,1.35,0,0,1,.51-.25,2.13,2.13,0,0,1,.63-.08,1.87,1.87,0,0,1,1.57.72l-.46.42a1.35,1.35,0,0,0-.43-.38,1.49,1.49,0,0,0-.73-.17,1,1,0,0,0-.66.19.61.61,0,0,0-.22.51.53.53,0,0,0,.22.48,1.6,1.6,0,0,0,.64.21l.35.06a1.87,1.87,0,0,1,1.07.43,1.12,1.12,0,0,1,.31.83,1.29,1.29,0,0,1-.44,1A1.85,1.85,0,0,1,104.18,49.92Z"/>
    <path d="M108.37,49.92a2.09,2.09,0,0,1-1.05-.24,2.34,2.34,0,0,1-.73-.64l.5-.4a2,2,0,0,0,.58.51,1.54,1.54,0,0,0,.75.18,1.07,1.07,0,0,0,.69-.19.7.7,0,0,0,.08-1,1.09,1.09,0,0,0-.61-.26l-.36,0a3,3,0,0,1-.57-.13,1.82,1.82,0,0,1-.46-.25,1.15,1.15,0,0,1-.31-.38,1.27,1.27,0,0,1-.11-.54,1.21,1.21,0,0,1,.13-.58,1.2,1.2,0,0,1,.33-.41,1.35,1.35,0,0,1,.51-.25,2.2,2.2,0,0,1,.64-.08,2,2,0,0,1,.92.19,2.17,2.17,0,0,1,.65.53l-.46.42a1.39,1.39,0,0,0-.44-.38,1.42,1.42,0,0,0-.72-.17,1,1,0,0,0-.66.19.61.61,0,0,0-.22.51.53.53,0,0,0,.22.48,1.55,1.55,0,0,0,.64.21l.35.06a1.84,1.84,0,0,1,1.06.43,1.12,1.12,0,0,1,.31.83,1.26,1.26,0,0,1-.44,1A1.83,1.83,0,0,1,108.37,49.92Z"/>
    <path d="M114.53,49.82a.68.68,0,0,1-.56-.21,1.06,1.06,0,0,1-.21-.52h-.05a1.19,1.19,0,0,1-.48.63,1.63,1.63,0,0,1-.82.2,1.61,1.61,0,0,1-1.11-.36,1.32,1.32,0,0,1-.39-1,1.12,1.12,0,0,1,.46-1,2.46,2.46,0,0,1,1.45-.34h.89V46.8a1,1,0,0,0-.26-.73,1.1,1.1,0,0,0-.8-.25A1.21,1.21,0,0,0,112,46a1.44,1.44,0,0,0-.46.49l-.42-.39a1.58,1.58,0,0,1,.58-.63,2.21,2.21,0,0,1,2.29.15,1.39,1.39,0,0,1,.45,1.11V49.2h.52v.62Zm-1.17-5.34a.94.94,0,0,1-.39-.07l-.3-.15a1.74,1.74,0,0,0-.36-.16.62.62,0,0,0-.25-.05.53.53,0,0,0-.26.06,1.59,1.59,0,0,0-.25.17l-.29-.35a1.24,1.24,0,0,1,.33-.31.8.8,0,0,1,.5-.15.93.93,0,0,1,.39.08l.31.15a3.12,3.12,0,0,0,.35.16.91.91,0,0,0,.26,0,.53.53,0,0,0,.26-.06,1.19,1.19,0,0,0,.25-.18l.28.35a1.39,1.39,0,0,1-.32.32A.81.81,0,0,1,113.36,44.48Zm-.83,4.85a1.86,1.86,0,0,0,.48-.06,1.26,1.26,0,0,0,.37-.17.91.91,0,0,0,.25-.27.66.66,0,0,0,.08-.32v-.74h-.92a1.68,1.68,0,0,0-.88.18.55.55,0,0,0-.27.5v.18a.62.62,0,0,0,.24.52A1,1,0,0,0,112.53,49.33Z"/>
    <path d="M117.62,49.92a2,2,0,0,1-.83-.16,1.77,1.77,0,0,1-.64-.48,2.12,2.12,0,0,1-.41-.74,2.91,2.91,0,0,1-.15-1,3,3,0,0,1,.15-1,2.12,2.12,0,0,1,.41-.74,1.77,1.77,0,0,1,.64-.48,2,2,0,0,1,.83-.16,2,2,0,0,1,.82.16,1.77,1.77,0,0,1,.64.48,2.14,2.14,0,0,1,.42.74,3,3,0,0,1,.15,1,2.91,2.91,0,0,1-.15,1,2.14,2.14,0,0,1-.42.74,1.77,1.77,0,0,1-.64.48A2,2,0,0,1,117.62,49.92Zm0-.62a1.25,1.25,0,0,0,.92-.34,1.44,1.44,0,0,0,.36-1.07v-.64a1.44,1.44,0,0,0-.36-1.07,1.41,1.41,0,0,0-1.84,0,1.44,1.44,0,0,0-.36,1.07v.64A1.44,1.44,0,0,0,116.7,49,1.25,1.25,0,0,0,117.62,49.3Z"/>
    <path d="M126.13,49.82a.68.68,0,0,1-.56-.21,1,1,0,0,1-.22-.52h0a1.16,1.16,0,0,1-.49.63,1.62,1.62,0,0,1-.81.2,1.58,1.58,0,0,1-1.11-.36,1.29,1.29,0,0,1-.4-1,1.13,1.13,0,0,1,.47-1,2.44,2.44,0,0,1,1.45-.34h.89V46.8a1,1,0,0,0-.26-.73,1.11,1.11,0,0,0-.8-.25,1.22,1.22,0,0,0-.69.18,1.67,1.67,0,0,0-.46.49l-.41-.39a1.51,1.51,0,0,1,.58-.63,1.85,1.85,0,0,1,1-.25,1.83,1.83,0,0,1,1.27.4,1.36,1.36,0,0,1,.46,1.11V49.2h.51v.62Zm-2-.49a1.75,1.75,0,0,0,.48-.06,1.33,1.33,0,0,0,.38-.17,1,1,0,0,0,.24-.27.57.57,0,0,0,.09-.32v-.74h-.92a1.63,1.63,0,0,0-.88.18.56.56,0,0,0-.28.5v.18a.62.62,0,0,0,.24.52A1.07,1.07,0,0,0,124.12,49.33Z"/>
    <path d="M129.22,49.92a2,2,0,0,1-.83-.16,1.69,1.69,0,0,1-.64-.48,2.14,2.14,0,0,1-.42-.74,2.91,2.91,0,0,1-.15-1,3,3,0,0,1,.15-1,2.14,2.14,0,0,1,.42-.74,1.69,1.69,0,0,1,.64-.48,2.21,2.21,0,0,1,1.65,0,1.77,1.77,0,0,1,.64.48,2.14,2.14,0,0,1,.42.74,3,3,0,0,1,.15,1,2.91,2.91,0,0,1-.15,1,2.14,2.14,0,0,1-.42.74,1.77,1.77,0,0,1-.64.48A2,2,0,0,1,129.22,49.92Zm0-.62a1.28,1.28,0,0,0,.92-.34,1.44,1.44,0,0,0,.36-1.07v-.64a1.44,1.44,0,0,0-.36-1.07,1.43,1.43,0,0,0-1.85,0,1.44,1.44,0,0,0-.36,1.07v.64a1.44,1.44,0,0,0,.36,1.07A1.29,1.29,0,0,0,129.22,49.3Z"/>
    <path d="M136,46.11l-.73-1.36h0v5.07h-.71V43.73h.84l2.22,3.72.74,1.35h0V43.73h.72v6.09h-.85Z"/>
    <path d="M141,44.72l-.46-.21.75-1.48.63.3Zm-.42,5.1v-4.5h.7v4.5Z"/>
    <path d="M143.79,49.82l-1.58-4.5h.7l.79,2.23.49,1.54h0l.49-1.54.8-2.23h.67l-1.59,4.5Z"/>
    <path d="M148.71,49.92a2,2,0,0,1-.83-.16,1.77,1.77,0,0,1-.64-.48,2.12,2.12,0,0,1-.41-.74,3.2,3.2,0,0,1-.14-1,3.29,3.29,0,0,1,.14-1,2.12,2.12,0,0,1,.41-.74,1.77,1.77,0,0,1,.64-.48,2,2,0,0,1,.83-.16,1.92,1.92,0,0,1,.81.16,1.73,1.73,0,0,1,.61.46,1.94,1.94,0,0,1,.39.69,2.75,2.75,0,0,1,.14.88v.33h-3.24V48a1.51,1.51,0,0,0,.09.53,1.24,1.24,0,0,0,.26.43,1.22,1.22,0,0,0,.42.29,1.47,1.47,0,0,0,.56.1,1.32,1.32,0,0,0,.75-.2,1.25,1.25,0,0,0,.49-.57l.5.36a1.75,1.75,0,0,1-.68.75A2.07,2.07,0,0,1,148.71,49.92Zm0-4.12a1.24,1.24,0,0,0-.52.1,1.3,1.3,0,0,0-.41.28,1.34,1.34,0,0,0-.26.43,1.4,1.4,0,0,0-.1.54v.06h2.49v-.09a1.37,1.37,0,0,0-.33-1A1.12,1.12,0,0,0,148.71,45.8Z"/>
    <path d="M152.55,49.82a.72.72,0,0,1-.56-.21.74.74,0,0,1-.18-.51V43.37h.69V49.2h.67v.62Z"/>
    <path d="M161.05,44.69H161l-.51,1L159,48.36l-1.45-2.65-.52-1h0v5.13h-.72V43.73h1L159,47h0l1.75-3.28h.94v6.09h-.71Z"/>
    <path d="M165,49.92a2.06,2.06,0,0,1-.84-.16,1.74,1.74,0,0,1-.63-.48,2,2,0,0,1-.41-.74,2.91,2.91,0,0,1-.15-1,3,3,0,0,1,.15-1,2,2,0,0,1,.41-.74,1.74,1.74,0,0,1,.63-.48,2.06,2.06,0,0,1,.84-.16,1.92,1.92,0,0,1,.81.16,1.82,1.82,0,0,1,.61.46,2.1,2.1,0,0,1,.39.69,2.75,2.75,0,0,1,.13.88v.33h-3.23V48a1.51,1.51,0,0,0,.09.53,1.24,1.24,0,0,0,.26.43,1.06,1.06,0,0,0,.42.29,1.4,1.4,0,0,0,.56.1,1.36,1.36,0,0,0,.75-.2,1.31,1.31,0,0,0,.49-.57l.49.36a1.69,1.69,0,0,1-.68.75A2,2,0,0,1,165,49.92Zm0-4.12a1.29,1.29,0,0,0-.53.1,1.26,1.26,0,0,0-.4.28,1.36,1.36,0,0,0-.27.43,1.61,1.61,0,0,0-.09.54v.06h2.48v-.09a1.37,1.37,0,0,0-.33-1A1.09,1.09,0,0,0,165,45.8Zm.07-1.08-.46-.21.74-1.48.64.3Z"/>
    <path d="M171,49.1h0a1.36,1.36,0,0,1-1.31.82,1.7,1.7,0,0,1-.76-.16,1.65,1.65,0,0,1-.58-.47,2.33,2.33,0,0,1-.37-.74,4.06,4.06,0,0,1,0-2,2.33,2.33,0,0,1,.37-.74,1.65,1.65,0,0,1,.58-.47,1.7,1.7,0,0,1,.76-.16,1.46,1.46,0,0,1,.8.2,1.16,1.16,0,0,1,.51.63h0V43.37h.7v6.45H171Zm-1.16.2a1.33,1.33,0,0,0,.45-.06,1.16,1.16,0,0,0,.37-.18.84.84,0,0,0,.25-.28.87.87,0,0,0,.09-.4V46.7a.69.69,0,0,0-.09-.34,1,1,0,0,0-.25-.28,1.41,1.41,0,0,0-.37-.18,1.63,1.63,0,0,0-.45-.06,1.17,1.17,0,0,0-.93.37,1.37,1.37,0,0,0-.34,1V48a1.37,1.37,0,0,0,.34,1A1.17,1.17,0,0,0,169.82,49.3Z"/>
    <path d="M173.51,44.27a.45.45,0,0,1-.33-.11.41.41,0,0,1-.1-.29v-.11a.37.37,0,0,1,.1-.28.41.41,0,0,1,.33-.11.38.38,0,0,1,.32.11.37.37,0,0,1,.1.28v.11a.37.37,0,0,1-.42.4Zm-.35,1h.7v4.5h-.7Z"/>
    <path d="M177,49.92a2,2,0,0,1-.83-.16,1.77,1.77,0,0,1-.64-.48,2.14,2.14,0,0,1-.42-.74,3.2,3.2,0,0,1-.14-1,3.29,3.29,0,0,1,.14-1,2.14,2.14,0,0,1,.42-.74,1.77,1.77,0,0,1,.64-.48,2,2,0,0,1,.83-.16,2,2,0,0,1,.82.16,1.77,1.77,0,0,1,.64.48,2.14,2.14,0,0,1,.42.74,3,3,0,0,1,.15,1,2.91,2.91,0,0,1-.15,1,2.14,2.14,0,0,1-.42.74,1.77,1.77,0,0,1-.64.48A2,2,0,0,1,177,49.92Zm0-.62A1.26,1.26,0,0,0,178,49a1.44,1.44,0,0,0,.36-1.07v-.64a1.44,1.44,0,0,0-.36-1.07,1.26,1.26,0,0,0-.92-.34,1.29,1.29,0,0,0-.93.34,1.48,1.48,0,0,0-.35,1.07v.64a1.48,1.48,0,0,0,.35,1.07A1.29,1.29,0,0,0,177,49.3Z"/>
    <path d="M185.15,49.1h0a1.37,1.37,0,0,1-1.32.82,1.65,1.65,0,0,1-.75-.16,1.57,1.57,0,0,1-.58-.47,2,2,0,0,1-.37-.74,3.76,3.76,0,0,1,0-2,2,2,0,0,1,.37-.74,1.57,1.57,0,0,1,.58-.47,1.65,1.65,0,0,1,.75-.16,1.48,1.48,0,0,1,.81.2,1.26,1.26,0,0,1,.51.63h0V43.37h.7v6.45h-.7Zm-1.15.2a1.3,1.3,0,0,0,.44-.06,1,1,0,0,0,.37-.18.75.75,0,0,0,.25-.28.87.87,0,0,0,.09-.4V46.7a.69.69,0,0,0-.09-.34.83.83,0,0,0-.25-.28,1.16,1.16,0,0,0-.37-.18,1.61,1.61,0,0,0-.44-.06,1.21,1.21,0,0,0-.94.37,1.41,1.41,0,0,0-.34,1V48a1.41,1.41,0,0,0,.34,1A1.21,1.21,0,0,0,184,49.3Z"/>
    <path d="M189,49.92a2,2,0,0,1-.82-.16,1.81,1.81,0,0,1-.65-.48,2.29,2.29,0,0,1-.41-.74,2.91,2.91,0,0,1-.15-1,3,3,0,0,1,.15-1,2.29,2.29,0,0,1,.41-.74,1.81,1.81,0,0,1,.65-.48,2.21,2.21,0,0,1,1.65,0,1.86,1.86,0,0,1,.64.48,2.14,2.14,0,0,1,.42.74,3,3,0,0,1,.15,1,2.91,2.91,0,0,1-.15,1,2.14,2.14,0,0,1-.42.74,1.86,1.86,0,0,1-.64.48A2,2,0,0,1,189,49.92Zm0-.62A1.29,1.29,0,0,0,190,49a1.44,1.44,0,0,0,.36-1.07v-.64a1.44,1.44,0,0,0-.36-1.07,1.43,1.43,0,0,0-1.85,0,1.44,1.44,0,0,0-.36,1.07v.64a1.44,1.44,0,0,0,.36,1.07A1.28,1.28,0,0,0,189,49.3Z"/>
    <path d="M199.09,44.69H199l-.51,1-1.46,2.65-1.45-2.65-.52-1h0v5.13h-.72V43.73h1L197.06,47h.05l1.75-3.28h.94v6.09h-.71Z"/>
    <path d="M204.62,49.82a.69.69,0,0,1-.56-.21,1.06,1.06,0,0,1-.21-.52h0a1.15,1.15,0,0,1-.48.63,1.84,1.84,0,0,1-1.93-.16,1.32,1.32,0,0,1-.39-1,1.12,1.12,0,0,1,.46-1,2.48,2.48,0,0,1,1.46-.34h.88V46.8a1,1,0,0,0-.26-.73,1.1,1.1,0,0,0-.8-.25,1.21,1.21,0,0,0-.68.18,1.44,1.44,0,0,0-.46.49l-.42-.39a1.58,1.58,0,0,1,.58-.63,1.88,1.88,0,0,1,1-.25,1.84,1.84,0,0,1,1.27.4,1.39,1.39,0,0,1,.45,1.11V49.2H205v.62Zm-2-.49a1.86,1.86,0,0,0,.48-.06,1.26,1.26,0,0,0,.37-.17.91.91,0,0,0,.25-.27.57.57,0,0,0,.08-.32v-.74h-.92A1.68,1.68,0,0,0,202,48a.55.55,0,0,0-.27.5v.18a.62.62,0,0,0,.24.52A1.07,1.07,0,0,0,202.62,49.33Z"/>
    <path d="M206,49.82v-4.5h.7v.83h0a1.34,1.34,0,0,1,.44-.58,1.37,1.37,0,0,1,.86-.25h.27V46h-.41a1.57,1.57,0,0,0-.88.21.61.61,0,0,0-.32.54v3Z"/>
    <path d="M211.25,47.1a5.8,5.8,0,0,1,.46-2.3,5,5,0,0,1,.5-.91,3.87,3.87,0,0,1,.62-.7h.66a4.79,4.79,0,0,0-.66.75,5.59,5.59,0,0,0-.81,1.85,4,4,0,0,0-.12.94v.75a3.93,3.93,0,0,0,.12,1,4.71,4.71,0,0,0,.32,1,5.51,5.51,0,0,0,.5.89,4.18,4.18,0,0,0,.65.73h-.66a3.13,3.13,0,0,1-.61-.68,4.65,4.65,0,0,1-.5-.91,5.24,5.24,0,0,1-.34-1.1A5.43,5.43,0,0,1,211.25,47.1Z"/>
    <path d="M214.19,43.37h.7v2.68h0a1.45,1.45,0,0,1,.47-.61,1.31,1.31,0,0,1,.8-.22,1.42,1.42,0,0,1,1.11.45,1.82,1.82,0,0,1,.4,1.26v2.89H217V47.05c0-.81-.35-1.21-1-1.21a1.33,1.33,0,0,0-.4,0,.86.86,0,0,0-.35.16.69.69,0,0,0-.25.26.79.79,0,0,0-.09.38v3.13h-.7Z"/>
    <path d="M219.21,49.82V43.73h2.42a1.64,1.64,0,0,1,1.26.47,2.08,2.08,0,0,1,0,2.56,1.64,1.64,0,0,1-1.26.46h-1.69v2.6Zm.73-3.24h1.69a1,1,0,0,0,.68-.23.85.85,0,0,0,.24-.65v-.45a.83.83,0,0,0-.24-.64,1,1,0,0,0-.68-.23h-1.69Z"/>
    <path d="M227.61,49.82a.7.7,0,0,1-.57-.21,1.06,1.06,0,0,1-.21-.52h0a1.16,1.16,0,0,1-.49.63,1.62,1.62,0,0,1-.81.2,1.58,1.58,0,0,1-1.11-.36,1.29,1.29,0,0,1-.4-1,1.1,1.1,0,0,1,.47-1,2.44,2.44,0,0,1,1.45-.34h.89V46.8a1,1,0,0,0-.26-.73,1.14,1.14,0,0,0-.81-.25A1.21,1.21,0,0,0,225,46a1.55,1.55,0,0,0-.46.49l-.42-.39a1.54,1.54,0,0,1,.59-.63,1.82,1.82,0,0,1,1-.25,1.84,1.84,0,0,1,1.27.4,1.39,1.39,0,0,1,.45,1.11V49.2H228v.62Zm-2-.49a1.75,1.75,0,0,0,.48-.06,1.33,1.33,0,0,0,.38-.17,1,1,0,0,0,.24-.27.57.57,0,0,0,.09-.32v-.74h-.93A1.61,1.61,0,0,0,225,48a.54.54,0,0,0-.28.5v.18a.62.62,0,0,0,.24.52A1.07,1.07,0,0,0,225.6,49.33Z"/>
    <path d="M230.45,47.1a5.43,5.43,0,0,1-.13,1.22,5.24,5.24,0,0,1-.34,1.1,4.65,4.65,0,0,1-.5.91,3.13,3.13,0,0,1-.61.68h-.66a4.18,4.18,0,0,0,.65-.73,5.51,5.51,0,0,0,.5-.89,4.71,4.71,0,0,0,.32-1,3.93,3.93,0,0,0,.12-1v-.75a4,4,0,0,0-.12-.94,5.59,5.59,0,0,0-.81-1.85,4.79,4.79,0,0,0-.66-.75h.66a3.87,3.87,0,0,1,.62.7,5,5,0,0,1,.5.91,5.8,5.8,0,0,1,.46,2.3Z"/>
  </g>
  <g>
    <g>
      <path d="M154.42,23.58H149a2,2,0,0,1-2.11-2V10.68a2,2,0,0,1,2.11-2h5.46a2,2,0,0,1,2.11,2V21.61A2,2,0,0,1,154.42,23.58Z" style="fill: #fff"/>
      <path d="M154.42,23.83H149a2.29,2.29,0,0,1-2.36-2.22V10.68A2.29,2.29,0,0,1,149,8.46h5.46a2.3,2.3,0,0,1,2.36,2.22V21.61A2.29,2.29,0,0,1,154.42,23.83ZM149,9a1.79,1.79,0,0,0-1.86,1.72V21.61A1.79,1.79,0,0,0,149,23.33h5.46a1.79,1.79,0,0,0,1.86-1.72V10.68A1.79,1.79,0,0,0,154.42,9Z" style="fill: #939393"/>
    </g>
    <path d="M274,23.58h-5.47a2,2,0,0,1-2.11-2V10.68a2,2,0,0,1,2.11-2H274a2,2,0,0,1,2.11,2V21.61A2.05,2.05,0,0,1,274,23.58Z" style="fill: #eb2b20"/>
    <path d="M291.11,23.58h-5.46a2,2,0,0,1-2.11-2V10.68a2,2,0,0,1,2.11-2h5.46a2,2,0,0,1,2.11,2V21.61A2,2,0,0,1,291.11,23.58Z" style="fill: #d6111f"/>
    <path d="M308.2,23.58h-5.46a2,2,0,0,1-2.11-2V10.68a2,2,0,0,1,2.11-2h5.46a2,2,0,0,1,2.11,2V21.61A2,2,0,0,1,308.2,23.58Z" style="fill: #bd0026"/>
    <path d="M51.82,23.58H46.35a2,2,0,0,1-2.11-2V10.68a2,2,0,0,1,2.11-2h5.47a2,2,0,0,1,2.11,2V21.61A2,2,0,0,1,51.82,23.58Z" style="fill: #0868ac"/>
    <path d="M34.74,23.58H29.28a2,2,0,0,1-2.11-2V10.68a2,2,0,0,1,2.11-2h5.46a2,2,0,0,1,2.11,2V21.61A2,2,0,0,1,34.74,23.58Z" style="fill: #001476"/>
    <path d="M17.67,23.58H12.2a2,2,0,0,1-2.11-2V10.68a2,2,0,0,1,2.11-2h5.47a2,2,0,0,1,2.11,2V21.61A2,2,0,0,1,17.67,23.58Z" style="fill: #081d58"/>
    <path d="M68.91,23.58H63.44a2,2,0,0,1-2.11-2V10.68a2,2,0,0,1,2.11-2h5.47a2,2,0,0,1,2.11,2V21.61A2.05,2.05,0,0,1,68.91,23.58Z" style="fill: #2b8cbe"/>
    <path d="M86,23.58H80.53a2,2,0,0,1-2.11-2V10.68a2,2,0,0,1,2.11-2H86a2,2,0,0,1,2.11,2V21.61A2.05,2.05,0,0,1,86,23.58Z" style="fill: #7bccc4"/>
    <path d="M103.08,23.58H97.61a2,2,0,0,1-2.11-2V10.68a2,2,0,0,1,2.11-2h5.47a2,2,0,0,1,2.11,2V21.61A2.05,2.05,0,0,1,103.08,23.58Z" style="fill: #a8ddb5"/>
    <path d="M120.17,23.58H114.7a2,2,0,0,1-2.11-2V10.68a2,2,0,0,1,2.11-2h5.47a2,2,0,0,1,2.1,2V21.61A2,2,0,0,1,120.17,23.58Z" style="fill: #ccebc5"/>
    <path d="M137.25,23.58h-5.46a2,2,0,0,1-2.11-2V10.68a2,2,0,0,1,2.11-2h5.46a2,2,0,0,1,2.11,2V21.61A2,2,0,0,1,137.25,23.58Z" style="fill: #e0f3db"/>
    <g>
      <path d="M171.51,23.58H166a2,2,0,0,1-2.11-2V10.68a2,2,0,0,1,2.11-2h5.47a2,2,0,0,1,2.11,2V21.61A2,2,0,0,1,171.51,23.58Z" style="fill: #fff"/>
      <path d="M171.51,23.83H166a2.29,2.29,0,0,1-2.36-2.22V10.68A2.3,2.3,0,0,1,166,8.46h5.47a2.3,2.3,0,0,1,2.36,2.22V21.61A2.29,2.29,0,0,1,171.51,23.83ZM166,9a1.8,1.8,0,0,0-1.86,1.72V21.61A1.8,1.8,0,0,0,166,23.33h5.47a1.79,1.79,0,0,0,1.86-1.72V10.68A1.79,1.79,0,0,0,171.51,9Z" style="fill: #939393"/>
    </g>
    <path d="M188.59,23.58h-5.47a2,2,0,0,1-2.1-2V10.68a2,2,0,0,1,2.1-2h5.47a2,2,0,0,1,2.11,2V21.61A2,2,0,0,1,188.59,23.58Z" style="fill: #ffc"/>
    <path d="M205.68,23.58h-5.47a2,2,0,0,1-2.11-2V10.68a2,2,0,0,1,2.11-2h5.47a2,2,0,0,1,2.11,2V21.61A2,2,0,0,1,205.68,23.58Z" style="fill: #ffeda0"/>
    <path d="M222.77,23.58H217.3a2,2,0,0,1-2.11-2V10.68a2,2,0,0,1,2.11-2h5.47a2,2,0,0,1,2.11,2V21.61A2.05,2.05,0,0,1,222.77,23.58Z" style="fill: #fed976"/>
    <path d="M239.85,23.58h-5.47a2,2,0,0,1-2.11-2V10.68a2,2,0,0,1,2.11-2h5.47a2,2,0,0,1,2.11,2V21.61A2,2,0,0,1,239.85,23.58Z" style="fill: #feb24c"/>
    <path d="M256.94,23.58h-5.47a2,2,0,0,1-2.11-2V10.68a2,2,0,0,1,2.11-2h5.47a2,2,0,0,1,2.11,2V21.61A2.05,2.05,0,0,1,256.94,23.58Z" style="fill: #fc4e2a"/>
  </g>
</svg>
