<svg id="Camada_1" data-name="Camada 1" xmlns="http://www.w3.org/2000/svg" viewBox="0 0 320.4 57.45"><defs><style>.cls-1{opacity:0.75;}.cls-2{fill:#fff;}.cls-3{fill:#939393;}.cls-4{fill:#eb2b20;}.cls-5{fill:#d6111f;}.cls-6{fill:#bd0026;}.cls-7{fill:#0868ac;}.cls-8{fill:#001476;}.cls-9{fill:#081d58;}.cls-10{fill:#2b8cbe;}.cls-11{fill:#7bccc4;}.cls-12{fill:#a8ddb5;}.cls-13{fill:#ccebc5;}.cls-14{fill:#e0f3db;}.cls-15{fill:#ffc;}.cls-16{fill:#ffeda0;}.cls-17{fill:#fed976;}.cls-18{fill:#feb24c;}.cls-19{fill:#fc4e2a;}</style></defs><title>LEGENDAS - ESCALA</title><g class="cls-1"><path class="cls-2" d="M0,6.38C0,2.86,3.19,0,7.12,0H313.28c3.94,0,7.12,2.86,7.12,6.38V51.07c0,3.52-3.18,6.38-7.12,6.38H7.12C3.19,57.45,0,54.59,0,51.07Z"/></g><path class="cls-2" d="M166,23.58h5.47a2,2,0,0,0,2.11-2V10.68a2,2,0,0,0-2.11-2H166a2,2,0,0,0-2.11,2V21.61A2,2,0,0,0,166,23.58Z"/><path class="cls-3" d="M171.45,23.83H166a2.29,2.29,0,0,1-2.36-2.22V10.68A2.3,2.3,0,0,1,166,8.46h5.47a2.3,2.3,0,0,1,2.36,2.22V21.61A2.29,2.29,0,0,1,171.45,23.83ZM166,9a1.8,1.8,0,0,0-1.86,1.72V21.61A1.8,1.8,0,0,0,166,23.33h5.47a1.8,1.8,0,0,0,1.86-1.72V10.68A1.8,1.8,0,0,0,171.45,9Z"/><path class="cls-4" d="M46.38,23.58h5.46a2,2,0,0,0,2.11-2V10.68a2,2,0,0,0-2.11-2H46.38a2,2,0,0,0-2.11,2V21.61A2,2,0,0,0,46.38,23.58Z"/><path class="cls-5" d="M29.29,23.58h5.47a2,2,0,0,0,2.11-2V10.68a2,2,0,0,0-2.11-2H29.29a2,2,0,0,0-2.11,2V21.61A2,2,0,0,0,29.29,23.58Z"/><path class="cls-6" d="M12.2,23.58h5.47a2,2,0,0,0,2.11-2V10.68a2,2,0,0,0-2.11-2H12.2a2,2,0,0,0-2.11,2V21.61A2,2,0,0,0,12.2,23.58Z"/><path class="cls-7" d="M268.58,23.58h5.47a2,2,0,0,0,2.11-2V10.68a2,2,0,0,0-2.11-2h-5.47a2,2,0,0,0-2.11,2V21.61A2.05,2.05,0,0,0,268.58,23.58Z"/><path class="cls-8" d="M285.66,23.58h5.47a2,2,0,0,0,2.11-2V10.68a2,2,0,0,0-2.11-2h-5.47a2,2,0,0,0-2.11,2V21.61A2,2,0,0,0,285.66,23.58Z"/><path class="cls-9" d="M302.74,23.58h5.46a2,2,0,0,0,2.11-2V10.68a2,2,0,0,0-2.11-2h-5.46a2,2,0,0,0-2.11,2V21.61A2,2,0,0,0,302.74,23.58Z"/><path class="cls-10" d="M251.5,23.58H257a2,2,0,0,0,2.11-2V10.68a2,2,0,0,0-2.11-2H251.5a2,2,0,0,0-2.11,2V21.61A2,2,0,0,0,251.5,23.58Z"/><path class="cls-11" d="M234.41,23.58h5.46a2,2,0,0,0,2.11-2V10.68a2,2,0,0,0-2.11-2h-5.46a2,2,0,0,0-2.11,2V21.61A2,2,0,0,0,234.41,23.58Z"/><path class="cls-12" d="M217.33,23.58h5.46a2,2,0,0,0,2.11-2V10.68a2,2,0,0,0-2.11-2h-5.46a2,2,0,0,0-2.11,2V21.61A2,2,0,0,0,217.33,23.58Z"/><path class="cls-13" d="M200.24,23.58h5.47a2,2,0,0,0,2.1-2V10.68a2,2,0,0,0-2.1-2h-5.47a2,2,0,0,0-2.11,2V21.61A2,2,0,0,0,200.24,23.58Z"/><path class="cls-14" d="M183.15,23.58h5.47a2,2,0,0,0,2.11-2V10.68a2,2,0,0,0-2.11-2h-5.47a2,2,0,0,0-2.11,2V21.61A2,2,0,0,0,183.15,23.58Z"/><path class="cls-2" d="M148.89,23.58h5.47a2,2,0,0,0,2.11-2V10.68a2,2,0,0,0-2.11-2h-5.47a2,2,0,0,0-2.11,2V21.61A2.05,2.05,0,0,0,148.89,23.58Z"/><path class="cls-3" d="M154.36,23.83h-5.47a2.29,2.29,0,0,1-2.36-2.22V10.68a2.3,2.3,0,0,1,2.36-2.22h5.47a2.3,2.3,0,0,1,2.36,2.22V21.61A2.29,2.29,0,0,1,154.36,23.83ZM148.89,9A1.8,1.8,0,0,0,147,10.68V21.61a1.8,1.8,0,0,0,1.86,1.72h5.47a1.8,1.8,0,0,0,1.86-1.72V10.68A1.8,1.8,0,0,0,154.36,9Z"/><path class="cls-15" d="M131.81,23.58h5.47a2,2,0,0,0,2.11-2V10.68a2,2,0,0,0-2.11-2h-5.47a2,2,0,0,0-2.11,2V21.61A2,2,0,0,0,131.81,23.58Z"/><path class="cls-16" d="M114.72,23.58h5.47a2,2,0,0,0,2.11-2V10.68a2,2,0,0,0-2.11-2h-5.47a2,2,0,0,0-2.11,2V21.61A2.05,2.05,0,0,0,114.72,23.58Z"/><path class="cls-17" d="M97.63,23.58h5.47a2,2,0,0,0,2.11-2V10.68a2,2,0,0,0-2.11-2H97.63a2,2,0,0,0-2.1,2V21.61A2,2,0,0,0,97.63,23.58Z"/><path class="cls-18" d="M80.55,23.58H86a2,2,0,0,0,2.11-2V10.68a2,2,0,0,0-2.11-2H80.55a2,2,0,0,0-2.1,2V21.61A2,2,0,0,0,80.55,23.58Z"/><path class="cls-19" d="M63.47,23.58h5.46a2,2,0,0,0,2.11-2V10.68a2,2,0,0,0-2.11-2H63.47a2,2,0,0,0-2.11,2V21.61A2,2,0,0,0,63.47,23.58Z"/><path d="M53.51,34v-.82H56V34Z"/><path d="M59.5,36.56a3.31,3.31,0,0,1-1-.14,2.09,2.09,0,0,1-.72-.41,1.73,1.73,0,0,1-.44-.6,2.15,2.15,0,0,1-.14-.77,1.52,1.52,0,0,1,.37-1.08,2.08,2.08,0,0,1,1-.56v-.07a1.69,1.69,0,0,1-.83-.59,1.52,1.52,0,0,1-.31-1A1.47,1.47,0,0,1,58,30.16a2.89,2.89,0,0,1,3.1,0,1.5,1.5,0,0,1,.55,1.21,1.58,1.58,0,0,1-.31,1,1.79,1.79,0,0,1-.83.59V33a2,2,0,0,1,1,.56,1.53,1.53,0,0,1,.38,1.08,2,2,0,0,1-.15.77,1.73,1.73,0,0,1-.44.6,2.09,2.09,0,0,1-.72.41A3.24,3.24,0,0,1,59.5,36.56Zm0-.7a1.63,1.63,0,0,0,1.07-.31,1.05,1.05,0,0,0,.38-.87v-.2a1.09,1.09,0,0,0-.38-.88,1.68,1.68,0,0,0-1.07-.3,1.71,1.71,0,0,0-1.08.3,1.09,1.09,0,0,0-.38.88v.2a1.05,1.05,0,0,0,.38.87A1.65,1.65,0,0,0,59.5,35.86Zm0-3.23a1.53,1.53,0,0,0,1-.26,1,1,0,0,0,.32-.78v-.14a1,1,0,0,0-.32-.78,1.53,1.53,0,0,0-1-.26,1.49,1.49,0,0,0-1,.26,1,1,0,0,0-.33.78v.14a1,1,0,0,0,.33.78A1.49,1.49,0,0,0,59.5,32.63Z"/><path d="M16.53,34v-.82H19V34Z"/><path d="M20.5,36.45v-.7h1.85V30.41h-.06L20.61,32l-.46-.51,1.76-1.64h1.24v5.93h1.71v.7Z"/><path d="M30.43,36.45H26.08v-.82l2.16-2a5,5,0,0,0,.78-.91,1.74,1.74,0,0,0,.31-1v-.11a1.32,1.32,0,0,0-.3-.9,1.16,1.16,0,0,0-.92-.34,1.69,1.69,0,0,0-.53.08,1.33,1.33,0,0,0-.4.24,1.22,1.22,0,0,0-.27.36,1.93,1.93,0,0,0-.18.44L26,31.25a2.88,2.88,0,0,1,.26-.57,2,2,0,0,1,.42-.5,1.89,1.89,0,0,1,.61-.34,2.74,2.74,0,0,1,1.7,0,1.66,1.66,0,0,1,.64.4,1.73,1.73,0,0,1,.39.6,2.21,2.21,0,0,1,.14.78,2.36,2.36,0,0,1-.11.72,2.29,2.29,0,0,1-.3.63,3.5,3.5,0,0,1-.46.59c-.18.19-.37.38-.58.57l-1.79,1.61h3.49Z"/><path d="M87.62,34v-.82H90.1V34Z"/><path d="M94.32,36.45v-1.3h-3.2v-.7l2.77-4.63h1.19v4.66h1v.67h-1v1.3Zm-2.45-2h2.45v-4h0Z"/><path d="M121.9,34v-.82h2.48V34Z"/><path d="M130.1,36.45h-4.35v-.82l2.17-2a4.6,4.6,0,0,0,.77-.91,1.75,1.75,0,0,0,.32-1v-.11a1.28,1.28,0,0,0-.31-.9,1.16,1.16,0,0,0-.92-.34,1.69,1.69,0,0,0-.53.08,1.28,1.28,0,0,0-.39.24,1.25,1.25,0,0,0-.28.36,1.92,1.92,0,0,0-.17.44l-.72-.28a3.6,3.6,0,0,1,.26-.57,2,2,0,0,1,.42-.5,1.89,1.89,0,0,1,.61-.34,2.78,2.78,0,0,1,1.71,0,1.7,1.7,0,0,1,.63.4,1.91,1.91,0,0,1,.4.6,2.2,2.2,0,0,1,.13.78,2.09,2.09,0,0,1-.11.72,2.59,2.59,0,0,1-.29.63,3.57,3.57,0,0,1-.47.59c-.18.19-.37.38-.58.57l-1.79,1.61h3.49Z"/><path d="M160.2,36.56a1.87,1.87,0,0,1-1.73-.9,4.82,4.82,0,0,1-.55-2.53,4.81,4.81,0,0,1,.55-2.52,1.87,1.87,0,0,1,1.73-.9,1.9,1.9,0,0,1,1.74.9,4.91,4.91,0,0,1,.54,2.52,4.93,4.93,0,0,1-.54,2.53A1.9,1.9,0,0,1,160.2,36.56Zm0-.7a1.3,1.3,0,0,0,.67-.16,1.27,1.27,0,0,0,.44-.45,2.32,2.32,0,0,0,.26-.7,4.63,4.63,0,0,0,.08-.88V32.59a4.6,4.6,0,0,0-.08-.87,2.32,2.32,0,0,0-.26-.7,1.27,1.27,0,0,0-.44-.45,1.3,1.3,0,0,0-.67-.16,1.24,1.24,0,0,0-.66.16,1.21,1.21,0,0,0-.45.45,2.31,2.31,0,0,0-.25.7,3.9,3.9,0,0,0-.08.87v1.08a3.94,3.94,0,0,0,.08.88,2.31,2.31,0,0,0,.25.7,1.21,1.21,0,0,0,.45.45A1.24,1.24,0,0,0,160.2,35.86Z"/><path d="M196.63,36.45h-4.35v-.82l2.17-2a5,5,0,0,0,.78-.91,1.85,1.85,0,0,0,.31-1v-.11a1.32,1.32,0,0,0-.3-.9,1.18,1.18,0,0,0-.93-.34,1.69,1.69,0,0,0-.53.08,1.28,1.28,0,0,0-.39.24,1.25,1.25,0,0,0-.28.36,1.92,1.92,0,0,0-.17.44l-.72-.28a2.94,2.94,0,0,1,.27-.57,2.19,2.19,0,0,1,.41-.5,1.89,1.89,0,0,1,.61-.34,2.59,2.59,0,0,1,1.71,0,1.58,1.58,0,0,1,.63.4,1.91,1.91,0,0,1,.4.6,2.2,2.2,0,0,1,.13.78,2.37,2.37,0,0,1-.1.72,3.32,3.32,0,0,1-.3.63,4.1,4.1,0,0,1-.46.59c-.19.19-.38.38-.59.57l-1.78,1.61h3.48Z"/><path d="M229.28,36.45v-1.3h-3.2v-.7l2.78-4.63H230v4.66h1v.67h-1v1.3Zm-2.45-2h2.45v-4h-.05Z"/><path d="M262.68,36.56a3.24,3.24,0,0,1-1-.14A2.09,2.09,0,0,1,261,36a1.73,1.73,0,0,1-.44-.6,2,2,0,0,1-.15-.77,1.53,1.53,0,0,1,.38-1.08,2,2,0,0,1,1-.56v-.07a1.79,1.79,0,0,1-.83-.59,1.58,1.58,0,0,1-.3-1,1.47,1.47,0,0,1,.55-1.21,2.88,2.88,0,0,1,3.09,0,1.47,1.47,0,0,1,.55,1.21,1.52,1.52,0,0,1-.31,1,1.69,1.69,0,0,1-.83.59V33a2,2,0,0,1,1,.56,1.52,1.52,0,0,1,.37,1.08,2.15,2.15,0,0,1-.14.77,1.73,1.73,0,0,1-.44.6,2.09,2.09,0,0,1-.72.41A3.31,3.31,0,0,1,262.68,36.56Zm0-.7a1.65,1.65,0,0,0,1.08-.31,1.05,1.05,0,0,0,.38-.87v-.2a1.09,1.09,0,0,0-.38-.88,1.71,1.71,0,0,0-1.08-.3,1.68,1.68,0,0,0-1.07.3,1.09,1.09,0,0,0-.38.88v.2a1.05,1.05,0,0,0,.38.87A1.63,1.63,0,0,0,262.68,35.86Zm0-3.23a1.49,1.49,0,0,0,.95-.26,1,1,0,0,0,.33-.78v-.14a1,1,0,0,0-.33-.78,1.49,1.49,0,0,0-.95-.26,1.53,1.53,0,0,0-.95.26,1,1,0,0,0-.32.78v.14a1,1,0,0,0,.32.78A1.53,1.53,0,0,0,262.68,32.63Z"/><path d="M292.15,36.45v-.7H294V30.41h-.06L292.26,32l-.46-.51,1.76-1.64h1.24v5.93h1.71v.7Z"/><path d="M302.08,36.45h-4.35v-.82l2.16-2a5,5,0,0,0,.78-.91,1.74,1.74,0,0,0,.31-1v-.11a1.32,1.32,0,0,0-.3-.9,1.16,1.16,0,0,0-.92-.34,1.69,1.69,0,0,0-.53.08,1.33,1.33,0,0,0-.4.24,1.22,1.22,0,0,0-.27.36,1.93,1.93,0,0,0-.18.44l-.71-.28a2.88,2.88,0,0,1,.26-.57,2,2,0,0,1,.42-.5,1.89,1.89,0,0,1,.61-.34,2.35,2.35,0,0,1,.84-.13,2.32,2.32,0,0,1,.86.14,1.66,1.66,0,0,1,.64.4,1.73,1.73,0,0,1,.39.6,2.21,2.21,0,0,1,.14.78,2.36,2.36,0,0,1-.11.72,2.29,2.29,0,0,1-.3.63,3.5,3.5,0,0,1-.46.59c-.18.19-.37.38-.58.57l-1.79,1.61h3.49Z"/><path d="M96.24,50.53l-.67-2H92.89l-.66,2h-.81l2.32-6.63h1l2.32,6.63Zm-2-5.89h0l-1.12,3.23h2.29Z"/><path d="M98.1,50.53v-4.9h.76v.79h0a1.68,1.68,0,0,1,.5-.66,1.48,1.48,0,0,1,.88-.24,1.55,1.55,0,0,1,1.21.49,2,2,0,0,1,.44,1.38v3.14h-.76v-3c0-.89-.37-1.33-1.11-1.33a1.68,1.68,0,0,0-.45.06,1.19,1.19,0,0,0-.38.17.83.83,0,0,0-.27.29.82.82,0,0,0-.1.42v3.4Z"/><path d="M105.35,50.65a2.27,2.27,0,0,1-.91-.18,2,2,0,0,1-.69-.52,2.21,2.21,0,0,1-.45-.81,3.36,3.36,0,0,1,0-2.11,2.13,2.13,0,0,1,.45-.81,1.86,1.86,0,0,1,.69-.52,2.27,2.27,0,0,1,.91-.18,2.11,2.11,0,0,1,.89.18,1.89,1.89,0,0,1,.7.52,2.29,2.29,0,0,1,.46.81,3.56,3.56,0,0,1,0,2.11,2.38,2.38,0,0,1-.46.81,2,2,0,0,1-.7.52A2.11,2.11,0,0,1,105.35,50.65Zm0-.68a1.34,1.34,0,0,0,1-.38,1.55,1.55,0,0,0,.39-1.16v-.7a1.56,1.56,0,0,0-.39-1.16,1.38,1.38,0,0,0-1-.38,1.41,1.41,0,0,0-1,.38,1.56,1.56,0,0,0-.39,1.16v.7a1.55,1.55,0,0,0,.39,1.16A1.36,1.36,0,0,0,105.35,50Z"/><path d="M108.81,50.53v-4.9h.76v.79h0a2.43,2.43,0,0,1,.2-.35,1.2,1.2,0,0,1,.26-.29,1.18,1.18,0,0,1,.37-.19,1.45,1.45,0,0,1,.49-.07,1.75,1.75,0,0,1,.9.23,1.34,1.34,0,0,1,.6.76h0a1.55,1.55,0,0,1,.5-.7,1.6,1.6,0,0,1,1-.29,1.47,1.47,0,0,1,1.18.49,2,2,0,0,1,.42,1.38v3.14h-.76v-3a1.6,1.6,0,0,0-.26-1,.94.94,0,0,0-.81-.34,1.56,1.56,0,0,0-.44.06,1.19,1.19,0,0,0-.36.17.91.91,0,0,0-.26.29.93.93,0,0,0-.09.42v3.4h-.76v-3a1.6,1.6,0,0,0-.26-1,.93.93,0,0,0-.8-.34,1.54,1.54,0,0,0-.43.06,1.05,1.05,0,0,0-.37.17.81.81,0,0,0-.37.71v3.4Z"/><path d="M120.67,50.53a.75.75,0,0,1-.61-.22,1.22,1.22,0,0,1-.24-.57h0a1.31,1.31,0,0,1-.53.68,1.71,1.71,0,0,1-.89.23,1.75,1.75,0,0,1-1.21-.4,1.4,1.4,0,0,1-.43-1.08,1.24,1.24,0,0,1,.51-1.07,2.67,2.67,0,0,1,1.58-.37h1v-.48a1.06,1.06,0,0,0-.29-.8,1.18,1.18,0,0,0-.87-.28,1.35,1.35,0,0,0-.75.2,1.81,1.81,0,0,0-.5.53l-.45-.42a1.64,1.64,0,0,1,.63-.68A2.39,2.39,0,0,1,120,46a1.55,1.55,0,0,1,.5,1.22v2.69h.56v.67ZM118.49,50a1.72,1.72,0,0,0,.52-.07,1.28,1.28,0,0,0,.41-.18,1,1,0,0,0,.26-.29.62.62,0,0,0,.1-.35V48.3h-1a1.78,1.78,0,0,0-1,.19.62.62,0,0,0-.3.55v.2a.65.65,0,0,0,.26.56A1.15,1.15,0,0,0,118.49,50Z"/><path d="M123,50.53a.79.79,0,0,1-.61-.22.83.83,0,0,1-.2-.56V43.5h.76v6.36h.72v.67Z"/><path d="M125.14,44.48a.4.4,0,0,1-.46-.43v-.12a.4.4,0,0,1,.46-.43.46.46,0,0,1,.36.12.45.45,0,0,1,.11.31v.12a.45.45,0,0,1-.11.31A.46.46,0,0,1,125.14,44.48Zm-.38,1.15h.76v4.9h-.76Z"/><path d="M130.7,50.53a.75.75,0,0,1-.61-.22,1.21,1.21,0,0,1-.23-.57h-.05a1.31,1.31,0,0,1-.53.68,1.68,1.68,0,0,1-.89.23,1.75,1.75,0,0,1-1.21-.4,1.4,1.4,0,0,1-.43-1.08,1.24,1.24,0,0,1,.51-1.07,2.67,2.67,0,0,1,1.58-.37h1v-.48a1.06,1.06,0,0,0-.29-.8,1.18,1.18,0,0,0-.87-.28,1.35,1.35,0,0,0-.75.2,1.66,1.66,0,0,0-.49.53l-.46-.42a1.6,1.6,0,0,1,.64-.68,2,2,0,0,1,1.1-.28,2,2,0,0,1,1.39.43,1.57,1.57,0,0,1,.49,1.22v2.69h.56v.67ZM128.52,50a1.72,1.72,0,0,0,.52-.07,1.28,1.28,0,0,0,.41-.18,1,1,0,0,0,.26-.29.62.62,0,0,0,.1-.35V48.3h-1a1.8,1.8,0,0,0-1,.19.62.62,0,0,0-.3.55v.2a.67.67,0,0,0,.26.56A1.15,1.15,0,0,0,128.52,50Z"/><path d="M137.59,49.74h0a1.49,1.49,0,0,1-1.43.91,1.87,1.87,0,0,1-.83-.18,1.66,1.66,0,0,1-.63-.52,2.23,2.23,0,0,1-.4-.8,4.12,4.12,0,0,1,0-2.13,2.2,2.2,0,0,1,.4-.81,1.73,1.73,0,0,1,.63-.51,1.87,1.87,0,0,1,.83-.18,1.67,1.67,0,0,1,.88.22,1.4,1.4,0,0,1,.55.68h0V43.5h.76v7h-.76Zm-1.26.23a2,2,0,0,0,.49-.06,1.36,1.36,0,0,0,.4-.2,1,1,0,0,0,.27-.31.88.88,0,0,0,.1-.43V47.14a.72.72,0,0,0-.1-.38,1,1,0,0,0-.27-.3,1.66,1.66,0,0,0-.4-.2,2,2,0,0,0-.49-.07,1.31,1.31,0,0,0-1,.41,1.49,1.49,0,0,0-.37,1.06v.84a1.52,1.52,0,0,0,.37,1.07A1.3,1.3,0,0,0,136.33,50Z"/><path d="M141.81,50.65a2.21,2.21,0,0,1-.91-.18,2,2,0,0,1-.69-.52,2.21,2.21,0,0,1-.45-.81,3.56,3.56,0,0,1,0-2.11,2.13,2.13,0,0,1,.45-.81,1.86,1.86,0,0,1,.69-.52,2.21,2.21,0,0,1,.91-.18,2.07,2.07,0,0,1,.88.18,2,2,0,0,1,.67.49,2.44,2.44,0,0,1,.42.76,2.91,2.91,0,0,1,.15.95v.36H140.4v.23a1.66,1.66,0,0,0,.1.59,1.42,1.42,0,0,0,.29.47,1.34,1.34,0,0,0,.45.31,1.7,1.7,0,0,0,.61.11,1.56,1.56,0,0,0,.82-.21,1.43,1.43,0,0,0,.53-.63l.54.39a1.82,1.82,0,0,1-.74.82A2.27,2.27,0,0,1,141.81,50.65Zm0-4.5a1.48,1.48,0,0,0-.57.11,1.4,1.4,0,0,0-.44.31,1.2,1.2,0,0,0-.29.47,1.59,1.59,0,0,0-.11.59v.06h2.71v-.1a1.46,1.46,0,0,0-.36-1A1.19,1.19,0,0,0,141.81,46.15Z"/><path d="M147.5,50.53V43.9h2.64a1.8,1.8,0,0,1,1.37.51,2.25,2.25,0,0,1,0,2.78,1.8,1.8,0,0,1-1.37.51H148.3v2.83Zm.8-3.53h1.84a1,1,0,0,0,.73-.25.9.9,0,0,0,.27-.7v-.49a.92.92,0,0,0-.27-.71,1,1,0,0,0-.73-.24H148.3Z"/><path d="M153.08,50.53v-4.9h.76v.9h0a1.47,1.47,0,0,1,.48-.62,1.41,1.41,0,0,1,.94-.28h.29v.76h-.45a1.75,1.75,0,0,0-1,.23.7.7,0,0,0-.35.59v3.32Z"/><path d="M158.36,50.65a2.19,2.19,0,0,1-.9-.18,2.1,2.1,0,0,1-.7-.52,2.34,2.34,0,0,1-.44-.81,3.56,3.56,0,0,1,0-2.11,2.25,2.25,0,0,1,.44-.81,2,2,0,0,1,.7-.52,2.19,2.19,0,0,1,.9-.18,2.11,2.11,0,0,1,.89.18,1.9,1.9,0,0,1,.66.49,2.27,2.27,0,0,1,.43.76,3.21,3.21,0,0,1,.14.95v.36H157v.23a1.66,1.66,0,0,0,.1.59,1.4,1.4,0,0,0,.28.47,1.49,1.49,0,0,0,.46.31,1.66,1.66,0,0,0,.61.11,1.53,1.53,0,0,0,.81-.21,1.45,1.45,0,0,0,.54-.63l.54.39a1.88,1.88,0,0,1-.74.82A2.28,2.28,0,0,1,158.36,50.65Zm0-4.5a1.56,1.56,0,0,0-.57.11,1.52,1.52,0,0,0-.44.31,1.49,1.49,0,0,0-.29.47,1.59,1.59,0,0,0-.1.59v.06h2.71v-.1a1.46,1.46,0,0,0-.36-1A1.2,1.2,0,0,0,158.36,46.15Z"/><path d="M163.56,50.65a2.25,2.25,0,0,1-.92-.18A1.86,1.86,0,0,1,162,50a2.28,2.28,0,0,1-.43-.8,4.12,4.12,0,0,1,0-2.13,2.24,2.24,0,0,1,.43-.81,1.94,1.94,0,0,1,.69-.51,2.25,2.25,0,0,1,.92-.18,1.89,1.89,0,0,1,1.17.32,1.86,1.86,0,0,1,.66.83l-.63.32a1.2,1.2,0,0,0-.44-.59,1.29,1.29,0,0,0-.76-.21,1.57,1.57,0,0,0-.6.11,1.1,1.1,0,0,0-.42.31,1.23,1.23,0,0,0-.26.46,1.87,1.87,0,0,0-.09.59v.84a1.61,1.61,0,0,0,.35,1.06,1.24,1.24,0,0,0,1,.41,1.37,1.37,0,0,0,1.33-.85l.55.37a1.88,1.88,0,0,1-.71.84A2,2,0,0,1,163.56,50.65Z"/><path d="M166.9,44.48a.46.46,0,0,1-.36-.12.45.45,0,0,1-.11-.31v-.12a.45.45,0,0,1,.11-.31.46.46,0,0,1,.36-.12.4.4,0,0,1,.46.43v.12a.4.4,0,0,1-.46.43Zm-.38,1.15h.76v4.9h-.76Z"/><path d="M168.89,45.63h.76v.79h0a1.4,1.4,0,0,1,.55-.68,1.67,1.67,0,0,1,.88-.22,1.87,1.87,0,0,1,.83.18,1.73,1.73,0,0,1,.63.51,2.2,2.2,0,0,1,.4.81,4.12,4.12,0,0,1,0,2.13,2.23,2.23,0,0,1-.4.8,1.66,1.66,0,0,1-.63.52,1.87,1.87,0,0,1-.83.18,1.48,1.48,0,0,1-1.43-.91h0v2.69h-.76Zm2,4.34a1.32,1.32,0,0,0,1-.4,1.52,1.52,0,0,0,.37-1.07v-.84a1.49,1.49,0,0,0-.37-1.06,1.33,1.33,0,0,0-1-.41,2,2,0,0,0-.49.07,1.5,1.5,0,0,0-.4.2,1,1,0,0,0-.27.3.72.72,0,0,0-.1.38V49a.88.88,0,0,0,.1.43,1,1,0,0,0,.27.31,1.25,1.25,0,0,0,.4.2A2,2,0,0,0,170.91,50Z"/><path d="M174.78,44.48a.49.49,0,0,1-.36-.12.45.45,0,0,1-.1-.31v-.12a.45.45,0,0,1,.1-.31.6.6,0,0,1,.72,0,.45.45,0,0,1,.11.31v.12a.45.45,0,0,1-.11.31A.49.49,0,0,1,174.78,44.48Zm-.38,1.15h.76v4.9h-.76Z"/><path d="M177.86,50.53a.79.79,0,0,1-.61-.22.85.85,0,0,1-.2-.58V46.31h-.81v-.68h.46a.45.45,0,0,0,.34-.1.51.51,0,0,0,.09-.35v-.91h.68v1.36h1.07v.68h-1.07v3.55h1v.67Z"/><path d="M183.67,50.53a.75.75,0,0,1-.61-.22,1.21,1.21,0,0,1-.23-.57h-.05a1.31,1.31,0,0,1-.53.68,1.68,1.68,0,0,1-.89.23,1.75,1.75,0,0,1-1.21-.4,1.4,1.4,0,0,1-.43-1.08,1.24,1.24,0,0,1,.51-1.07,2.67,2.67,0,0,1,1.58-.37h1v-.48a1.06,1.06,0,0,0-.29-.8,1.18,1.18,0,0,0-.87-.28,1.35,1.35,0,0,0-.75.2,1.66,1.66,0,0,0-.49.53l-.46-.42a1.6,1.6,0,0,1,.64-.68,2,2,0,0,1,1.1-.28,2,2,0,0,1,1.39.43,1.57,1.57,0,0,1,.49,1.22v2.69h.56v.67ZM181.49,50a1.72,1.72,0,0,0,.52-.07,1.28,1.28,0,0,0,.41-.18,1,1,0,0,0,.26-.29.62.62,0,0,0,.1-.35V48.3h-1a1.8,1.8,0,0,0-1,.19.62.62,0,0,0-.3.55v.2a.65.65,0,0,0,.26.56A1.15,1.15,0,0,0,181.49,50Z"/><path d="M187,45.52a1.93,1.93,0,0,1,1.17.32,2,2,0,0,1,.66.82l-.64.33a1.18,1.18,0,0,0-.43-.59,1.33,1.33,0,0,0-.76-.21,1.57,1.57,0,0,0-.6.11,1.11,1.11,0,0,0-.43.3,1.43,1.43,0,0,0-.26.47,2.21,2.21,0,0,0-.08.59v.84a1.53,1.53,0,0,0,.35,1,1.24,1.24,0,0,0,1,.41,1.39,1.39,0,0,0,1.33-.85l.55.37a2.09,2.09,0,0,1-.64.8,1.9,1.9,0,0,1-1,.36l-.1.47,0,0a1.15,1.15,0,0,1,.37-.06.67.67,0,0,1,.46.17.58.58,0,0,1,.19.46.68.68,0,0,1-.09.35.69.69,0,0,1-.23.25,1.16,1.16,0,0,1-.34.14,1.75,1.75,0,0,1-.4,0,1.18,1.18,0,0,1-.61-.13,1,1,0,0,1-.33-.26l.36-.39a.9.9,0,0,0,.23.19.72.72,0,0,0,.35.08.66.66,0,0,0,.3-.07.26.26,0,0,0,.12-.23.29.29,0,0,0-.12-.23,1.22,1.22,0,0,0-.53-.16l-.26,0,.12-.62a1.92,1.92,0,0,1-1.42-.78,3,3,0,0,1-.5-1.78A3.53,3.53,0,0,1,185,47a2.24,2.24,0,0,1,.43-.81,1.78,1.78,0,0,1,.69-.51A2.22,2.22,0,0,1,187,45.52Z"/><path d="M193.52,50.53a.75.75,0,0,1-.61-.22,1.21,1.21,0,0,1-.23-.57h-.05a1.26,1.26,0,0,1-.53.68,1.68,1.68,0,0,1-.89.23,1.76,1.76,0,0,1-1.21-.4,1.4,1.4,0,0,1-.43-1.08,1.24,1.24,0,0,1,.51-1.07,2.69,2.69,0,0,1,1.58-.37h1v-.48a1.05,1.05,0,0,0-.28-.8,1.21,1.21,0,0,0-.88-.28,1.29,1.29,0,0,0-.74.2,1.69,1.69,0,0,0-.5.53l-.46-.42a1.66,1.66,0,0,1,.64-.68,2,2,0,0,1,1.1-.28,2,2,0,0,1,1.39.43,1.54,1.54,0,0,1,.49,1.22v2.69H194v.67Zm-1.27-5.81a1,1,0,0,1-.43-.09l-.33-.16a2.26,2.26,0,0,0-.38-.17.83.83,0,0,0-.28-.06.65.65,0,0,0-.29.07l-.27.19-.31-.38a1.66,1.66,0,0,1,.35-.35,1,1,0,0,1,.55-.15,1.1,1.1,0,0,1,.43.08l.33.16A1.81,1.81,0,0,0,192,44a.76.76,0,0,0,.28.05.61.61,0,0,0,.28-.06,1.93,1.93,0,0,0,.27-.19l.31.38a1.42,1.42,0,0,1-.35.34A.88.88,0,0,1,192.25,44.72ZM191.34,50a1.72,1.72,0,0,0,.52-.07,1.19,1.19,0,0,0,.41-.18,1.23,1.23,0,0,0,.27-.29.7.7,0,0,0,.09-.35V48.3h-1a1.8,1.8,0,0,0-1,.19.62.62,0,0,0-.3.55v.2a.67.67,0,0,0,.26.56A1.15,1.15,0,0,0,191.34,50Z"/><path d="M196.89,50.65a2.27,2.27,0,0,1-.91-.18,2,2,0,0,1-.69-.52,2.21,2.21,0,0,1-.45-.81,3.36,3.36,0,0,1,0-2.11,2.13,2.13,0,0,1,.45-.81,1.86,1.86,0,0,1,.69-.52,2.27,2.27,0,0,1,.91-.18,2.14,2.14,0,0,1,.89.18,1.89,1.89,0,0,1,.7.52,2.29,2.29,0,0,1,.46.81,3.56,3.56,0,0,1,0,2.11,2.38,2.38,0,0,1-.46.81,2,2,0,0,1-.7.52A2.14,2.14,0,0,1,196.89,50.65Zm0-.68a1.34,1.34,0,0,0,1-.38,1.55,1.55,0,0,0,.39-1.16v-.7a1.56,1.56,0,0,0-.39-1.16,1.52,1.52,0,0,0-2,0,1.56,1.56,0,0,0-.39,1.16v.7a1.55,1.55,0,0,0,.39,1.16A1.35,1.35,0,0,0,196.89,50Z"/><path d="M202.58,47.57a6.29,6.29,0,0,1,.13-1.32,6,6,0,0,1,.37-1.18,5,5,0,0,1,.54-1,4.59,4.59,0,0,1,.68-.76H205a4.7,4.7,0,0,0-.72.82,5.73,5.73,0,0,0-.54,1,6.69,6.69,0,0,0-.35,1,4.73,4.73,0,0,0-.12,1V48a4.66,4.66,0,0,0,.12,1,6.47,6.47,0,0,0,.35,1,7.12,7.12,0,0,0,.55,1,4.56,4.56,0,0,0,.71.8h-.72a3.8,3.8,0,0,1-.67-.75,4.93,4.93,0,0,1-.54-1,7,7,0,0,1-.38-1.2A6.38,6.38,0,0,1,202.58,47.57Z"/><path d="M205.78,50.53v-4.9h.76v.79h0a2.37,2.37,0,0,1,.19-.35,1.06,1.06,0,0,1,.27-.29,1,1,0,0,1,.36-.19,1.51,1.51,0,0,1,.5-.07,1.71,1.71,0,0,1,.89.23,1.36,1.36,0,0,1,.61.76h0a1.47,1.47,0,0,1,.5-.7,1.56,1.56,0,0,1,1-.29,1.45,1.45,0,0,1,1.17.49,2,2,0,0,1,.42,1.38v3.14h-.75v-3a1.6,1.6,0,0,0-.26-1,1,1,0,0,0-.82-.34,1.54,1.54,0,0,0-.43.06,1.14,1.14,0,0,0-.37.17.88.88,0,0,0-.25.29.82.82,0,0,0-.1.42v3.4h-.76v-3a1.61,1.61,0,0,0-.25-1,.93.93,0,0,0-.8-.34,1.61,1.61,0,0,0-.44.06,1.14,1.14,0,0,0-.37.17.91.91,0,0,0-.26.29.82.82,0,0,0-.1.42v3.4Z"/><path d="M214.07,50.53v-4.9h.76v.79h0a3.9,3.9,0,0,1,.19-.35,1.5,1.5,0,0,1,.27-.29,1.18,1.18,0,0,1,.37-.19,1.45,1.45,0,0,1,.49-.07,1.71,1.71,0,0,1,.89.23,1.32,1.32,0,0,1,.61.76h0a1.45,1.45,0,0,1,1.49-1,1.48,1.48,0,0,1,1.18.49,2,2,0,0,1,.42,1.38v3.14H220v-3a1.6,1.6,0,0,0-.26-1,1,1,0,0,0-.82-.34,1.54,1.54,0,0,0-.43.06,1.09,1.09,0,0,0-.36.17.8.8,0,0,0-.26.29.93.93,0,0,0-.09.42v3.4h-.77v-3a1.61,1.61,0,0,0-.25-1,.93.93,0,0,0-.8-.34,1.61,1.61,0,0,0-.44.06,1.14,1.14,0,0,0-.37.17,1,1,0,0,0-.26.29.93.93,0,0,0-.1.42v3.4Z"/><path d="M224,47.57a5.77,5.77,0,0,1-.14,1.33,6.23,6.23,0,0,1-.37,1.2,4.93,4.93,0,0,1-.54,1,3.8,3.8,0,0,1-.67.75h-.72a5,5,0,0,0,.7-.8,6.14,6.14,0,0,0,.54-1,5,5,0,0,0,.36-1,4.15,4.15,0,0,0,.13-1v-.82a4.73,4.73,0,0,0-.12-1,6.69,6.69,0,0,0-.35-1,5.73,5.73,0,0,0-.54-1,5.16,5.16,0,0,0-.72-.82h.72a4.59,4.59,0,0,1,.68.76,5,5,0,0,1,.54,1,6,6,0,0,1,.37,1.18A6.29,6.29,0,0,1,224,47.57Z"/></svg>