<svg id="Camada_1" data-name="Camada 1" xmlns="http://www.w3.org/2000/svg" viewBox="0 0 320.4 57.45"><defs><style>.cls-1{opacity:0.75;}.cls-2{fill:#fff;}.cls-3{fill:#939393;}.cls-4{fill:#eb2b20;}.cls-5{fill:#d6111f;}.cls-6{fill:#bd0026;}.cls-7{fill:#0868ac;}.cls-8{fill:#001476;}.cls-9{fill:#081d58;}.cls-10{fill:#2b8cbe;}.cls-11{fill:#7bccc4;}.cls-12{fill:#a8ddb5;}.cls-13{fill:#ccebc5;}.cls-14{fill:#e0f3db;}.cls-15{fill:#ffc;}.cls-16{fill:#ffeda0;}.cls-17{fill:#fed976;}.cls-18{fill:#feb24c;}.cls-19{fill:#fc4e2a;}</style></defs><title>LEGENDAS_PÁGINA_CLIMA_MAIORES</title><g class="cls-1"><path class="cls-2" d="M0,6.38C0,2.86,3.19,0,7.12,0H313.28c3.94,0,7.12,2.86,7.12,6.38V51.07c0,3.52-3.18,6.38-7.12,6.38H7.12C3.19,57.45,0,54.59,0,51.07Z"/></g><path class="cls-2" d="M166,23.58h5.47a2,2,0,0,0,2.11-2V10.68a2,2,0,0,0-2.11-2H166a2,2,0,0,0-2.11,2V21.61A2,2,0,0,0,166,23.58Z"/><path class="cls-3" d="M171.45,23.83H166a2.29,2.29,0,0,1-2.36-2.22V10.68A2.3,2.3,0,0,1,166,8.46h5.47a2.3,2.3,0,0,1,2.36,2.22V21.61A2.29,2.29,0,0,1,171.45,23.83ZM166,9a1.8,1.8,0,0,0-1.86,1.72V21.61A1.8,1.8,0,0,0,166,23.33h5.47a1.8,1.8,0,0,0,1.86-1.72V10.68A1.8,1.8,0,0,0,171.45,9Z"/><path class="cls-4" d="M46.38,23.58h5.46a2,2,0,0,0,2.11-2V10.68a2,2,0,0,0-2.11-2H46.38a2,2,0,0,0-2.11,2V21.61A2,2,0,0,0,46.38,23.58Z"/><path class="cls-5" d="M29.29,23.58h5.47a2,2,0,0,0,2.11-2V10.68a2,2,0,0,0-2.11-2H29.29a2,2,0,0,0-2.11,2V21.61A2,2,0,0,0,29.29,23.58Z"/><path class="cls-6" d="M12.2,23.58h5.47a2,2,0,0,0,2.11-2V10.68a2,2,0,0,0-2.11-2H12.2a2,2,0,0,0-2.11,2V21.61A2,2,0,0,0,12.2,23.58Z"/><path class="cls-7" d="M268.58,23.58h5.47a2,2,0,0,0,2.11-2V10.68a2,2,0,0,0-2.11-2h-5.47a2,2,0,0,0-2.11,2V21.61A2.05,2.05,0,0,0,268.58,23.58Z"/><path class="cls-8" d="M285.66,23.58h5.47a2,2,0,0,0,2.11-2V10.68a2,2,0,0,0-2.11-2h-5.47a2,2,0,0,0-2.11,2V21.61A2,2,0,0,0,285.66,23.58Z"/><path class="cls-9" d="M302.74,23.58h5.46a2,2,0,0,0,2.11-2V10.68a2,2,0,0,0-2.11-2h-5.46a2,2,0,0,0-2.11,2V21.61A2,2,0,0,0,302.74,23.58Z"/><path class="cls-10" d="M251.5,23.58H257a2,2,0,0,0,2.11-2V10.68a2,2,0,0,0-2.11-2H251.5a2,2,0,0,0-2.11,2V21.61A2,2,0,0,0,251.5,23.58Z"/><path class="cls-11" d="M234.41,23.58h5.46a2,2,0,0,0,2.11-2V10.68a2,2,0,0,0-2.11-2h-5.46a2,2,0,0,0-2.11,2V21.61A2,2,0,0,0,234.41,23.58Z"/><path class="cls-12" d="M217.33,23.58h5.46a2,2,0,0,0,2.11-2V10.68a2,2,0,0,0-2.11-2h-5.46a2,2,0,0,0-2.11,2V21.61A2,2,0,0,0,217.33,23.58Z"/><path class="cls-13" d="M200.24,23.58h5.47a2,2,0,0,0,2.1-2V10.68a2,2,0,0,0-2.1-2h-5.47a2,2,0,0,0-2.11,2V21.61A2,2,0,0,0,200.24,23.58Z"/><path class="cls-14" d="M183.15,23.58h5.47a2,2,0,0,0,2.11-2V10.68a2,2,0,0,0-2.11-2h-5.47a2,2,0,0,0-2.11,2V21.61A2,2,0,0,0,183.15,23.58Z"/><path class="cls-2" d="M148.89,23.58h5.47a2,2,0,0,0,2.11-2V10.68a2,2,0,0,0-2.11-2h-5.47a2,2,0,0,0-2.11,2V21.61A2.05,2.05,0,0,0,148.89,23.58Z"/><path class="cls-3" d="M154.36,23.83h-5.47a2.29,2.29,0,0,1-2.36-2.22V10.68a2.3,2.3,0,0,1,2.36-2.22h5.47a2.3,2.3,0,0,1,2.36,2.22V21.61A2.29,2.29,0,0,1,154.36,23.83ZM148.89,9A1.8,1.8,0,0,0,147,10.68V21.61a1.8,1.8,0,0,0,1.86,1.72h5.47a1.8,1.8,0,0,0,1.86-1.72V10.68A1.8,1.8,0,0,0,154.36,9Z"/><path class="cls-15" d="M131.81,23.58h5.47a2,2,0,0,0,2.11-2V10.68a2,2,0,0,0-2.11-2h-5.47a2,2,0,0,0-2.11,2V21.61A2,2,0,0,0,131.81,23.58Z"/><path class="cls-16" d="M114.72,23.58h5.47a2,2,0,0,0,2.11-2V10.68a2,2,0,0,0-2.11-2h-5.47a2,2,0,0,0-2.11,2V21.61A2.05,2.05,0,0,0,114.72,23.58Z"/><path class="cls-17" d="M97.63,23.58h5.47a2,2,0,0,0,2.11-2V10.68a2,2,0,0,0-2.11-2H97.63a2,2,0,0,0-2.1,2V21.61A2,2,0,0,0,97.63,23.58Z"/><path class="cls-18" d="M80.55,23.58H86a2,2,0,0,0,2.11-2V10.68a2,2,0,0,0-2.11-2H80.55a2,2,0,0,0-2.1,2V21.61A2,2,0,0,0,80.55,23.58Z"/><path class="cls-19" d="M63.47,23.58h5.46a2,2,0,0,0,2.11-2V10.68a2,2,0,0,0-2.11-2H63.47a2,2,0,0,0-2.11,2V21.61A2,2,0,0,0,63.47,23.58Z"/><path d="M47.85,33.72v-.81h2.48v.81Z"/><path d="M51.82,36.2v-.7h1.85V30.16h-.06l-1.67,1.56-.47-.5,1.76-1.65h1.24V35.5h1.71v.7Z"/><path d="M59.54,36.32a1.89,1.89,0,0,1-1.74-.9,5,5,0,0,1-.54-2.53,5,5,0,0,1,.54-2.53,2.12,2.12,0,0,1,3.47,0,5,5,0,0,1,.55,2.53,5,5,0,0,1-.55,2.53A1.88,1.88,0,0,1,59.54,36.32Zm0-.7a1.27,1.27,0,0,0,.66-.17,1.21,1.21,0,0,0,.45-.45,2.67,2.67,0,0,0,.25-.69,4.79,4.79,0,0,0,.08-.88V32.35a4.71,4.71,0,0,0-.08-.88,2.42,2.42,0,0,0-.25-.69,1.32,1.32,0,0,0-.45-.46,1.46,1.46,0,0,0-1.33,0,1.32,1.32,0,0,0-.45.46,2.42,2.42,0,0,0-.25.69,4.71,4.71,0,0,0-.08.88v1.08a4.79,4.79,0,0,0,.08.88,2.67,2.67,0,0,0,.25.69,1.21,1.21,0,0,0,.45.45A1.28,1.28,0,0,0,59.54,35.62Z"/><path d="M65.23,36.32a1.88,1.88,0,0,1-1.73-.9A5,5,0,0,1,63,32.89a5,5,0,0,1,.55-2.53,2.12,2.12,0,0,1,3.47,0,5,5,0,0,1,.54,2.53A5,5,0,0,1,67,35.42,1.89,1.89,0,0,1,65.23,36.32Zm0-.7a1.28,1.28,0,0,0,.67-.17,1.21,1.21,0,0,0,.45-.45,2.67,2.67,0,0,0,.25-.69,4.79,4.79,0,0,0,.08-.88V32.35a4.71,4.71,0,0,0-.08-.88,2.42,2.42,0,0,0-.25-.69,1.32,1.32,0,0,0-.45-.46,1.46,1.46,0,0,0-1.33,0,1.32,1.32,0,0,0-.45.46,2.42,2.42,0,0,0-.25.69,4.71,4.71,0,0,0-.08.88v1.08a4.79,4.79,0,0,0,.08.88,2.67,2.67,0,0,0,.25.69,1.21,1.21,0,0,0,.45.45A1.27,1.27,0,0,0,65.23,35.62Z"/><path d="M13.67,33.72v-.81h2.48v.81Z"/><path d="M17.64,36.2v-.7H19.5V30.16h-.07l-1.67,1.56-.47-.5,1.76-1.65h1.24V35.5H22v.7Z"/><path d="M27.24,30.28H24.33l-.19,2.52h.07a2.08,2.08,0,0,1,.54-.53,1.46,1.46,0,0,1,.82-.2,2.3,2.3,0,0,1,.79.14,1.86,1.86,0,0,1,.62.41,1.78,1.78,0,0,1,.42.64,2.71,2.71,0,0,1,0,1.75,2,2,0,0,1-.44.7,2.11,2.11,0,0,1-.7.45,2.76,2.76,0,0,1-.94.16,2.41,2.41,0,0,1-.74-.1A1.91,1.91,0,0,1,24,36a1.68,1.68,0,0,1-.43-.36,3.21,3.21,0,0,1-.34-.41l.6-.46a2.56,2.56,0,0,0,.26.36,1.58,1.58,0,0,0,.3.28,1.39,1.39,0,0,0,.39.17,1.92,1.92,0,0,0,.52.07,1.36,1.36,0,0,0,1-.37,1.42,1.42,0,0,0,.35-1v-.09a1.42,1.42,0,0,0-.35-1,1.4,1.4,0,0,0-1-.36,1.37,1.37,0,0,0-.72.16,2.22,2.22,0,0,0-.47.4l-.67-.1.24-3.65h3.55Z"/><path d="M31.06,36.32a1.9,1.9,0,0,1-1.74-.9,5,5,0,0,1-.54-2.53,5,5,0,0,1,.54-2.53,1.9,1.9,0,0,1,1.74-.9,1.87,1.87,0,0,1,1.73.9,4.85,4.85,0,0,1,.55,2.53,4.87,4.87,0,0,1-.55,2.53A1.87,1.87,0,0,1,31.06,36.32Zm0-.7a1.24,1.24,0,0,0,.66-.17,1.08,1.08,0,0,0,.45-.45,2.35,2.35,0,0,0,.25-.69,4.79,4.79,0,0,0,.08-.88V32.35a4.71,4.71,0,0,0-.08-.88,2.15,2.15,0,0,0-.25-.69,1.17,1.17,0,0,0-.45-.46,1.34,1.34,0,0,0-.66-.16,1.41,1.41,0,0,0-.67.16,1.22,1.22,0,0,0-.44.46,2.16,2.16,0,0,0-.26.69,4.71,4.71,0,0,0-.08.88v1.08a4.79,4.79,0,0,0,.08.88A2.36,2.36,0,0,0,30,35a1.12,1.12,0,0,0,.44.45A1.31,1.31,0,0,0,31.06,35.62Z"/><path d="M84.88,33.72v-.81h2.48v.81Z"/><path d="M90.87,36.32a2.25,2.25,0,0,1-.92-.18,1.87,1.87,0,0,1-.71-.5,2.29,2.29,0,0,1-.44-.8,3.55,3.55,0,0,1-.15-1.07,4.22,4.22,0,0,1,.22-1.39,5.2,5.2,0,0,1,.56-1.19,6,6,0,0,1,.77-1,5.72,5.72,0,0,1,.81-.67h1c-.35.26-.67.52-1,.76a6.51,6.51,0,0,0-.73.77,4.81,4.81,0,0,0-.88,1.9l0,0a2.24,2.24,0,0,1,.62-.68,1.63,1.63,0,0,1,1-.27,2.06,2.06,0,0,1,.79.15,1.84,1.84,0,0,1,.62.4,2,2,0,0,1,.4.65,2.34,2.34,0,0,1,.15.85,2.56,2.56,0,0,1-.16.89,1.92,1.92,0,0,1-.45.69,1.9,1.9,0,0,1-.7.46A2.57,2.57,0,0,1,90.87,36.32Zm0-.7a1.28,1.28,0,0,0,1.39-1.4v-.08a1.35,1.35,0,0,0-.37-1,1.38,1.38,0,0,0-1-.36,1.25,1.25,0,0,0-1.38,1.39v.08a1.39,1.39,0,0,0,.36,1A1.36,1.36,0,0,0,90.86,35.62Z"/><path d="M96.56,36.32a1.87,1.87,0,0,1-1.73-.9,4.87,4.87,0,0,1-.55-2.53,4.85,4.85,0,0,1,.55-2.53,1.87,1.87,0,0,1,1.73-.9,1.9,1.9,0,0,1,1.74.9,5,5,0,0,1,.54,2.53,5,5,0,0,1-.54,2.53A1.9,1.9,0,0,1,96.56,36.32Zm0-.7a1.31,1.31,0,0,0,.67-.17,1.12,1.12,0,0,0,.44-.45,2.36,2.36,0,0,0,.26-.69,4.79,4.79,0,0,0,.08-.88V32.35a4.71,4.71,0,0,0-.08-.88,2.16,2.16,0,0,0-.26-.69,1.22,1.22,0,0,0-.44-.46,1.41,1.41,0,0,0-.67-.16,1.34,1.34,0,0,0-.66.16,1.17,1.17,0,0,0-.45.46,2.15,2.15,0,0,0-.25.69,4.71,4.71,0,0,0-.08.88v1.08a4.79,4.79,0,0,0,.08.88,2.35,2.35,0,0,0,.25.69,1.08,1.08,0,0,0,.45.45A1.24,1.24,0,0,0,96.56,35.62Z"/><path d="M119.08,33.72v-.81h2.48v.81Z"/><path d="M127.28,36.2h-4.35v-.81l2.17-2a4.71,4.71,0,0,0,.78-.91,1.73,1.73,0,0,0,.31-1V31.4a1.28,1.28,0,0,0-.3-.89,1.18,1.18,0,0,0-.93-.35,1.44,1.44,0,0,0-.53.09,1,1,0,0,0-.39.24,1.6,1.6,0,0,0-.28.35,2.35,2.35,0,0,0-.17.44l-.72-.27a2.76,2.76,0,0,1,.27-.58,2.14,2.14,0,0,1,.41-.49,1.91,1.91,0,0,1,.61-.35,2.39,2.39,0,0,1,.84-.13,2.65,2.65,0,0,1,.87.14,1.84,1.84,0,0,1,.63.4,1.7,1.7,0,0,1,.4.61,2.13,2.13,0,0,1,.13.78,2.37,2.37,0,0,1-.1.72,3.64,3.64,0,0,1-.3.63,4,4,0,0,1-.46.58c-.19.19-.38.38-.59.57L123.8,35.5h3.48Z"/><path d="M130.77,36.32a1.9,1.9,0,0,1-1.74-.9,5,5,0,0,1-.54-2.53,5,5,0,0,1,.54-2.53,1.9,1.9,0,0,1,1.74-.9,1.87,1.87,0,0,1,1.73.9,4.85,4.85,0,0,1,.55,2.53,4.87,4.87,0,0,1-.55,2.53A1.87,1.87,0,0,1,130.77,36.32Zm0-.7a1.24,1.24,0,0,0,.66-.17,1.08,1.08,0,0,0,.45-.45,2.35,2.35,0,0,0,.25-.69,4.06,4.06,0,0,0,.08-.88V32.35a4,4,0,0,0-.08-.88,2.15,2.15,0,0,0-.25-.69,1.17,1.17,0,0,0-.45-.46,1.34,1.34,0,0,0-.66-.16,1.41,1.41,0,0,0-.67.16,1.22,1.22,0,0,0-.44.46,2.16,2.16,0,0,0-.26.69,4.71,4.71,0,0,0-.08.88v1.08a4.79,4.79,0,0,0,.08.88,2.36,2.36,0,0,0,.26.69,1.12,1.12,0,0,0,.44.45A1.31,1.31,0,0,0,130.77,35.62Z"/><path d="M160.2,36.32a1.87,1.87,0,0,1-1.73-.9,4.87,4.87,0,0,1-.55-2.53,4.85,4.85,0,0,1,.55-2.53,1.87,1.87,0,0,1,1.73-.9,1.9,1.9,0,0,1,1.74.9,5,5,0,0,1,.54,2.53,5,5,0,0,1-.54,2.53A1.9,1.9,0,0,1,160.2,36.32Zm0-.7a1.31,1.31,0,0,0,.67-.17,1.12,1.12,0,0,0,.44-.45,2.36,2.36,0,0,0,.26-.69,4.79,4.79,0,0,0,.08-.88V32.35a4.71,4.71,0,0,0-.08-.88,2.16,2.16,0,0,0-.26-.69,1.22,1.22,0,0,0-.44-.46,1.41,1.41,0,0,0-.67-.16,1.34,1.34,0,0,0-.66.16,1.17,1.17,0,0,0-.45.46,2.15,2.15,0,0,0-.25.69,4,4,0,0,0-.08.88v1.08a4.06,4.06,0,0,0,.08.88,2.35,2.35,0,0,0,.25.69,1.08,1.08,0,0,0,.45.45A1.24,1.24,0,0,0,160.2,35.62Z"/><path d="M193.78,36.2h-4.36v-.81l2.17-2a4.71,4.71,0,0,0,.78-.91,1.74,1.74,0,0,0,.31-1V31.4a1.28,1.28,0,0,0-.3-.89,1.16,1.16,0,0,0-.92-.35,1.44,1.44,0,0,0-.53.09,1.05,1.05,0,0,0-.4.23,1.54,1.54,0,0,0-.27.36,1.85,1.85,0,0,0-.18.44l-.71-.27a2.72,2.72,0,0,1,.26-.58,2,2,0,0,1,.42-.49,1.86,1.86,0,0,1,.6-.35,2.41,2.41,0,0,1,.85-.13,2.54,2.54,0,0,1,.86.14,1.88,1.88,0,0,1,.64.4,1.68,1.68,0,0,1,.39.61,2.13,2.13,0,0,1,.14.78,2.36,2.36,0,0,1-.11.72,2.6,2.6,0,0,1-.3.63,4,4,0,0,1-.46.58c-.18.19-.38.38-.58.57l-1.79,1.61h3.49Z"/><path d="M197.26,36.32a1.87,1.87,0,0,1-1.73-.9,4.87,4.87,0,0,1-.55-2.53,4.85,4.85,0,0,1,.55-2.53,1.87,1.87,0,0,1,1.73-.9,1.9,1.9,0,0,1,1.74.9,5,5,0,0,1,.54,2.53,5,5,0,0,1-.54,2.53A1.9,1.9,0,0,1,197.26,36.32Zm0-.7a1.31,1.31,0,0,0,.67-.17,1.12,1.12,0,0,0,.44-.45,2.36,2.36,0,0,0,.26-.69,4.79,4.79,0,0,0,.08-.88V32.35a4.71,4.71,0,0,0-.08-.88,2.16,2.16,0,0,0-.26-.69,1.22,1.22,0,0,0-.44-.46,1.41,1.41,0,0,0-.67-.16,1.34,1.34,0,0,0-.66.16,1.17,1.17,0,0,0-.45.46,2.15,2.15,0,0,0-.25.69,4,4,0,0,0-.08.88v1.08a4.06,4.06,0,0,0,.08.88,2.35,2.35,0,0,0,.25.69,1.08,1.08,0,0,0,.45.45A1.24,1.24,0,0,0,197.26,35.62Z"/><path d="M225.58,36.32a2.25,2.25,0,0,1-.92-.18,1.87,1.87,0,0,1-.71-.5,2.29,2.29,0,0,1-.44-.8,3.55,3.55,0,0,1-.15-1.07,4.22,4.22,0,0,1,.22-1.39,5.2,5.2,0,0,1,.56-1.19,6,6,0,0,1,.77-1,5.26,5.26,0,0,1,.82-.67h1c-.35.26-.67.52-.95.76a6.51,6.51,0,0,0-.73.77,4.81,4.81,0,0,0-.88,1.9l0,0a2.24,2.24,0,0,1,.62-.68,1.63,1.63,0,0,1,1-.27,2.26,2.26,0,0,1,.79.14,1.75,1.75,0,0,1,1,1.06,2.34,2.34,0,0,1,.15.85,2.56,2.56,0,0,1-.16.89,1.8,1.8,0,0,1-.45.69,1.9,1.9,0,0,1-.7.46A2.57,2.57,0,0,1,225.58,36.32Zm0-.7a1.38,1.38,0,0,0,1-.37,1.35,1.35,0,0,0,.37-1v-.08a1.35,1.35,0,0,0-.37-1,1.38,1.38,0,0,0-1-.36,1.41,1.41,0,0,0-1,.36,1.39,1.39,0,0,0-.36,1v.08a1.39,1.39,0,0,0,.36,1A1.42,1.42,0,0,0,225.57,35.62Z"/><path d="M231.27,36.32a1.87,1.87,0,0,1-1.73-.9,5,5,0,0,1-.55-2.53,5,5,0,0,1,.55-2.53,1.87,1.87,0,0,1,1.73-.9,1.9,1.9,0,0,1,1.74.9,5,5,0,0,1,.54,2.53,5,5,0,0,1-.54,2.53A1.9,1.9,0,0,1,231.27,36.32Zm0-.7a1.31,1.31,0,0,0,.67-.17,1.21,1.21,0,0,0,.45-.45,2.67,2.67,0,0,0,.25-.69,4.79,4.79,0,0,0,.08-.88V32.35a4.71,4.71,0,0,0-.08-.88,2.42,2.42,0,0,0-.25-.69,1.32,1.32,0,0,0-.45-.46,1.41,1.41,0,0,0-.67-.16,1.34,1.34,0,0,0-.66.16,1.24,1.24,0,0,0-.45.46,2.15,2.15,0,0,0-.25.69,4.71,4.71,0,0,0-.08.88v1.08a4.79,4.79,0,0,0,.08.88,2.35,2.35,0,0,0,.25.69,1.14,1.14,0,0,0,.45.45A1.24,1.24,0,0,0,231.27,35.62Z"/><path d="M255.13,36.2v-.7H257V30.16h-.06l-1.68,1.56-.46-.5,1.76-1.65h1.24V35.5h1.71v.7Z"/><path d="M262.84,36.32a1.87,1.87,0,0,1-1.73-.9,5,5,0,0,1-.55-2.53,5,5,0,0,1,.55-2.53,2.12,2.12,0,0,1,3.47,0,5,5,0,0,1,.54,2.53,5,5,0,0,1-.54,2.53A1.89,1.89,0,0,1,262.84,36.32Zm0-.7a1.31,1.31,0,0,0,.67-.17A1.21,1.21,0,0,0,264,35a2.67,2.67,0,0,0,.25-.69,4.79,4.79,0,0,0,.08-.88V32.35a4.71,4.71,0,0,0-.08-.88,2.42,2.42,0,0,0-.25-.69,1.32,1.32,0,0,0-.45-.46,1.41,1.41,0,0,0-.67-.16,1.34,1.34,0,0,0-.66.16,1.24,1.24,0,0,0-.45.46,2.15,2.15,0,0,0-.25.69,4.71,4.71,0,0,0-.08.88v1.08a4.79,4.79,0,0,0,.08.88,2.35,2.35,0,0,0,.25.69,1.14,1.14,0,0,0,.45.45A1.24,1.24,0,0,0,262.84,35.62Z"/><path d="M268.54,36.32a1.87,1.87,0,0,1-1.73-.9,5,5,0,0,1-.55-2.53,5,5,0,0,1,.55-2.53,2.12,2.12,0,0,1,3.47,0,5,5,0,0,1,.54,2.53,5,5,0,0,1-.54,2.53A1.89,1.89,0,0,1,268.54,36.32Zm0-.7a1.31,1.31,0,0,0,.67-.17,1.21,1.21,0,0,0,.45-.45,2.67,2.67,0,0,0,.25-.69,4.79,4.79,0,0,0,.08-.88V32.35a4.71,4.71,0,0,0-.08-.88,2.42,2.42,0,0,0-.25-.69,1.32,1.32,0,0,0-.45-.46,1.41,1.41,0,0,0-.67-.16,1.34,1.34,0,0,0-.66.16,1.24,1.24,0,0,0-.45.46,2.15,2.15,0,0,0-.25.69,4.71,4.71,0,0,0-.08.88v1.08a4.79,4.79,0,0,0,.08.88,2.35,2.35,0,0,0,.25.69,1.14,1.14,0,0,0,.45.45A1.24,1.24,0,0,0,268.54,35.62Z"/><path d="M289.29,36.2v-.7h1.86V30.16h-.07l-1.67,1.56-.47-.5,1.76-1.65h1.24V35.5h1.71v.7Z"/><path d="M298.89,30.28H296l-.19,2.52h.07a2.08,2.08,0,0,1,.54-.53,1.46,1.46,0,0,1,.82-.2,2.3,2.3,0,0,1,.79.14,1.87,1.87,0,0,1,1,1A2.71,2.71,0,0,1,299,35a2,2,0,0,1-.44.7,2.11,2.11,0,0,1-.7.45,2.76,2.76,0,0,1-.94.16,2.41,2.41,0,0,1-.74-.1,1.91,1.91,0,0,1-.56-.25,1.68,1.68,0,0,1-.43-.36,3.21,3.21,0,0,1-.34-.41l.6-.46a2.56,2.56,0,0,0,.26.36,1.58,1.58,0,0,0,.3.28,1.39,1.39,0,0,0,.39.17,1.92,1.92,0,0,0,.52.07,1.36,1.36,0,0,0,1-.37,1.42,1.42,0,0,0,.35-1v-.09a1.42,1.42,0,0,0-.35-1,1.4,1.4,0,0,0-1-.36,1.37,1.37,0,0,0-.72.16,2.22,2.22,0,0,0-.47.4l-.67-.1.24-3.65h3.55Z"/><path d="M302.71,36.32a1.9,1.9,0,0,1-1.74-.9,5,5,0,0,1-.54-2.53,5,5,0,0,1,.54-2.53,1.9,1.9,0,0,1,1.74-.9,1.87,1.87,0,0,1,1.73.9,4.85,4.85,0,0,1,.55,2.53,4.87,4.87,0,0,1-.55,2.53A1.87,1.87,0,0,1,302.71,36.32Zm0-.7a1.24,1.24,0,0,0,.66-.17,1.08,1.08,0,0,0,.45-.45,2.35,2.35,0,0,0,.25-.69,4.79,4.79,0,0,0,.08-.88V32.35a4.71,4.71,0,0,0-.08-.88,2.15,2.15,0,0,0-.25-.69,1.17,1.17,0,0,0-.45-.46,1.34,1.34,0,0,0-.66-.16,1.41,1.41,0,0,0-.67.16,1.22,1.22,0,0,0-.44.46,2.16,2.16,0,0,0-.26.69,4.71,4.71,0,0,0-.08.88v1.08a4.79,4.79,0,0,0,.08.88,2.36,2.36,0,0,0,.26.69,1.12,1.12,0,0,0,.44.45A1.31,1.31,0,0,0,302.71,35.62Z"/><path d="M119.22,50.29V43.66h2.64a1.78,1.78,0,0,1,1.37.51,2.25,2.25,0,0,1,0,2.78,1.78,1.78,0,0,1-1.37.51H120v2.83Zm.8-3.54h1.84a1.06,1.06,0,0,0,.74-.24,1,1,0,0,0,.26-.71v-.49a.93.93,0,0,0-.26-.7,1,1,0,0,0-.74-.25H120Z"/><path d="M124.81,50.29v-4.9h.76v.9h0a1.44,1.44,0,0,1,.48-.63,1.48,1.48,0,0,1,.94-.27h.29v.76h-.44a1.7,1.7,0,0,0-1,.23.67.67,0,0,0-.34.58v3.33Z"/><path d="M130.09,50.4a2.21,2.21,0,0,1-.91-.18,1.86,1.86,0,0,1-.69-.52,2.31,2.31,0,0,1-.45-.8,3.59,3.59,0,0,1,0-2.12,2.46,2.46,0,0,1,.45-.81,2,2,0,0,1,.69-.52,2.21,2.21,0,0,1,.91-.18,2,2,0,0,1,1.55.68,2.28,2.28,0,0,1,.42.75,2.93,2.93,0,0,1,.15,1V48h-3.53v.23a1.86,1.86,0,0,0,.1.58,1.33,1.33,0,0,0,.29.47,1.21,1.21,0,0,0,.45.31,1.63,1.63,0,0,0,1.43-.1,1.43,1.43,0,0,0,.53-.63l.55.39a2,2,0,0,1-.74.82A2.23,2.23,0,0,1,130.09,50.4Zm0-4.49a1.32,1.32,0,0,0-.57.11,1.23,1.23,0,0,0-.44.3,1.42,1.42,0,0,0-.29.47,1.63,1.63,0,0,0-.11.59v.07h2.71v-.11a1.48,1.48,0,0,0-.36-1A1.2,1.2,0,0,0,130.09,45.91Z"/><path d="M135.28,50.4a2.29,2.29,0,0,1-.92-.18,1.94,1.94,0,0,1-.69-.51,2.22,2.22,0,0,1-.42-.81,3.86,3.86,0,0,1,0-2.13,2.26,2.26,0,0,1,.42-.8,1.86,1.86,0,0,1,.69-.52,2.29,2.29,0,0,1,.92-.18,1.83,1.83,0,0,1,1.84,1.15l-.64.32a1.12,1.12,0,0,0-.44-.58,1.29,1.29,0,0,0-.76-.21,1.38,1.38,0,0,0-.59.11,1,1,0,0,0-.43.3,1.19,1.19,0,0,0-.26.47,1.83,1.83,0,0,0-.08.59v.84a1.56,1.56,0,0,0,.34,1.05,1.24,1.24,0,0,0,1,.42,1.38,1.38,0,0,0,1.33-.86l.56.37a2,2,0,0,1-.71.85A2.1,2.1,0,0,1,135.28,50.4Z"/><path d="M138.62,44.24a.47.47,0,0,1-.36-.12.45.45,0,0,1-.11-.31v-.12a.45.45,0,0,1,.11-.31.47.47,0,0,1,.36-.12.49.49,0,0,1,.36.12.45.45,0,0,1,.1.31v.12a.45.45,0,0,1-.1.31A.49.49,0,0,1,138.62,44.24Zm-.38,1.15H139v4.9h-.76Z"/><path d="M140.61,45.39h.76v.78h0a1.41,1.41,0,0,1,.56-.68,1.71,1.71,0,0,1,.88-.22,1.83,1.83,0,0,1,.82.18,1.66,1.66,0,0,1,.63.52,2.23,2.23,0,0,1,.4.8,4.12,4.12,0,0,1,0,2.13,2.2,2.2,0,0,1-.4.81,1.73,1.73,0,0,1-.63.51,1.83,1.83,0,0,1-.82.18,1.49,1.49,0,0,1-1.44-.9h0v2.69h-.76Zm2,4.34a1.29,1.29,0,0,0,1-.41,1.49,1.49,0,0,0,.37-1.06v-.84a1.52,1.52,0,0,0-.37-1.07,1.28,1.28,0,0,0-1-.4,1.57,1.57,0,0,0-.49.07,1.55,1.55,0,0,0-.41.19,1.27,1.27,0,0,0-.27.3.86.86,0,0,0-.1.38v1.83a1,1,0,0,0,.1.43,1.18,1.18,0,0,0,.27.32,1.29,1.29,0,0,0,.41.19A1.57,1.57,0,0,0,142.64,49.73Z"/><path d="M146.5,44.24a.45.45,0,0,1-.35-.12.41.41,0,0,1-.11-.31v-.12a.41.41,0,0,1,.11-.31.45.45,0,0,1,.35-.12.46.46,0,0,1,.36.12.45.45,0,0,1,.11.31v.12a.45.45,0,0,1-.11.31A.46.46,0,0,1,146.5,44.24Zm-.38,1.15h.76v4.9h-.76Z"/><path d="M149.58,50.29a.8.8,0,0,1-.6-.22.84.84,0,0,1-.21-.59V46.06H148v-.67h.45a.47.47,0,0,0,.34-.1.54.54,0,0,0,.09-.35V44h.68v1.36h1.08v.67h-1.08v3.55h1v.68Z"/><path d="M155.4,50.29a.77.77,0,0,1-.62-.23,1.13,1.13,0,0,1-.23-.57h-.05a1.22,1.22,0,0,1-.53.68,1.58,1.58,0,0,1-.88.23,1.68,1.68,0,0,1-1.21-.4,1.38,1.38,0,0,1-.44-1.08,1.22,1.22,0,0,1,.51-1.06,2.69,2.69,0,0,1,1.58-.37h1V47a1.07,1.07,0,0,0-.28-.8,1.24,1.24,0,0,0-.88-.27,1.26,1.26,0,0,0-.74.2,1.59,1.59,0,0,0-.5.53l-.46-.43a1.88,1.88,0,0,1,.64-.68,2.06,2.06,0,0,1,1.1-.28,2,2,0,0,1,1.39.44,1.52,1.52,0,0,1,.49,1.21v2.69h.56v.68Zm-2.19-.53a2,2,0,0,0,.52-.07,1.2,1.2,0,0,0,.41-.19.93.93,0,0,0,.27-.29.68.68,0,0,0,.09-.35v-.8h-1a1.82,1.82,0,0,0-1,.19.61.61,0,0,0-.3.55V49a.68.68,0,0,0,.26.56A1.17,1.17,0,0,0,153.21,49.76Z"/><path d="M158.73,45.27a2,2,0,0,1,1.17.32,1.89,1.89,0,0,1,.66.82l-.63.33a1.17,1.17,0,0,0-.44-.58,1.31,1.31,0,0,0-.76-.21,1.4,1.4,0,0,0-.6.11,1.19,1.19,0,0,0-.43.3,1.21,1.21,0,0,0-.25.46,1.89,1.89,0,0,0-.09.6v.83a1.61,1.61,0,0,0,.35,1.06,1.27,1.27,0,0,0,1,.41,1.38,1.38,0,0,0,1.33-.86l.55.37a2,2,0,0,1-.64.8,1.87,1.87,0,0,1-1,.36l-.1.48,0,0a1.19,1.19,0,0,1,.37-.06.65.65,0,0,1,.46.16.57.57,0,0,1,.19.47.68.68,0,0,1-.09.35.59.59,0,0,1-.23.24,1.17,1.17,0,0,1-.34.15,1.7,1.7,0,0,1-.4,0,1.29,1.29,0,0,1-.61-.12,1.4,1.4,0,0,1-.33-.26l.36-.39a.84.84,0,0,0,.23.18.75.75,0,0,0,.35.08.56.56,0,0,0,.3-.07.24.24,0,0,0,.12-.22.31.31,0,0,0-.12-.24,1.35,1.35,0,0,0-.52-.15l-.27,0,.12-.63a1.91,1.91,0,0,1-1.42-.78,2.92,2.92,0,0,1-.5-1.77,3.55,3.55,0,0,1,.15-1.07,2.28,2.28,0,0,1,.43-.8,1.86,1.86,0,0,1,.69-.52A2.25,2.25,0,0,1,158.73,45.27Z"/><path d="M165.25,50.29a.77.77,0,0,1-.62-.23,1.13,1.13,0,0,1-.23-.57h-.05a1.22,1.22,0,0,1-.53.68,1.58,1.58,0,0,1-.88.23,1.68,1.68,0,0,1-1.21-.4,1.38,1.38,0,0,1-.44-1.08,1.22,1.22,0,0,1,.51-1.06,2.69,2.69,0,0,1,1.58-.37h1V47a1.07,1.07,0,0,0-.28-.8,1.24,1.24,0,0,0-.88-.27,1.26,1.26,0,0,0-.74.2,1.59,1.59,0,0,0-.5.53l-.46-.43a1.88,1.88,0,0,1,.64-.68,2.06,2.06,0,0,1,1.1-.28,2,2,0,0,1,1.39.44,1.52,1.52,0,0,1,.49,1.21v2.69h.56v.68ZM164,44.47a.93.93,0,0,1-.42-.08l-.34-.16a2.45,2.45,0,0,0-.38-.18,1.11,1.11,0,0,0-.28,0,.57.57,0,0,0-.29.07,1,1,0,0,0-.26.19l-.32-.38a1.34,1.34,0,0,1,.36-.35.86.86,0,0,1,.55-.16.93.93,0,0,1,.42.09l.34.16.38.18a1.11,1.11,0,0,0,.28.05.57.57,0,0,0,.29-.07,1.31,1.31,0,0,0,.26-.19l.32.38a1.5,1.5,0,0,1-.36.35A.92.92,0,0,1,164,44.47Zm-.91,5.29a2,2,0,0,0,.52-.07,1.2,1.2,0,0,0,.41-.19.82.82,0,0,0,.27-.29.68.68,0,0,0,.09-.35v-.8h-1a1.82,1.82,0,0,0-1,.19.61.61,0,0,0-.3.55V49a.68.68,0,0,0,.26.56A1.17,1.17,0,0,0,163.06,49.76Z"/><path d="M168.61,50.4a2.19,2.19,0,0,1-.9-.18,1.89,1.89,0,0,1-.7-.52,2.49,2.49,0,0,1-.45-.8,3.59,3.59,0,0,1,0-2.12A2.65,2.65,0,0,1,167,46a2,2,0,0,1,.7-.52,2.34,2.34,0,0,1,1.8,0,2.1,2.1,0,0,1,.7.52,2.65,2.65,0,0,1,.45.81,3.59,3.59,0,0,1,0,2.12,2.49,2.49,0,0,1-.45.8,2,2,0,0,1-.7.52A2.19,2.19,0,0,1,168.61,50.4Zm0-.67a1.41,1.41,0,0,0,1-.38,1.56,1.56,0,0,0,.39-1.16v-.7a1.55,1.55,0,0,0-.39-1.16,1.53,1.53,0,0,0-2,0,1.55,1.55,0,0,0-.39,1.16v.7a1.56,1.56,0,0,0,.39,1.16A1.41,1.41,0,0,0,168.61,49.73Z"/><path d="M174.3,47.32a6.42,6.42,0,0,1,.13-1.32,6,6,0,0,1,.37-1.18,5.85,5.85,0,0,1,.54-1,4.22,4.22,0,0,1,.68-.76h.72a5.62,5.62,0,0,0-.72.81,6.14,6.14,0,0,0-.54,1,5.84,5.84,0,0,0-.34,1,4.14,4.14,0,0,0-.13,1v.82a4.23,4.23,0,0,0,.13,1,6,6,0,0,0,.89,2,4.61,4.61,0,0,0,.71.8H176a3.73,3.73,0,0,1-.67-.74,5.58,5.58,0,0,1-.54-1,6.13,6.13,0,0,1-.37-1.19A6.48,6.48,0,0,1,174.3,47.32Z"/><path d="M177.5,50.29v-4.9h.76v.78h0a3.9,3.9,0,0,1,.19-.35,1.44,1.44,0,0,1,.27-.28,1.1,1.1,0,0,1,.37-.2,1.75,1.75,0,0,1,.49-.07,1.82,1.82,0,0,1,.89.23,1.43,1.43,0,0,1,.61.76h0a1.57,1.57,0,0,1,.5-.69,1.5,1.5,0,0,1,1-.3,1.45,1.45,0,0,1,1.17.49,2,2,0,0,1,.43,1.38v3.15h-.76v-3a1.6,1.6,0,0,0-.26-1,1,1,0,0,0-.82-.33,2,2,0,0,0-.43,0,1.33,1.33,0,0,0-.36.17.83.83,0,0,0-.26.3.86.86,0,0,0-.1.41v3.41h-.76v-3a1.61,1.61,0,0,0-.25-1,1,1,0,0,0-.8-.33,2.12,2.12,0,0,0-.44,0,1.4,1.4,0,0,0-.37.17.94.94,0,0,0-.26.3.76.76,0,0,0-.1.41v3.41Z"/><path d="M185.79,45.39h.76v.78h0a1.41,1.41,0,0,1,.56-.68,1.74,1.74,0,0,1,.88-.22,1.83,1.83,0,0,1,.82.18,1.66,1.66,0,0,1,.63.52,2.23,2.23,0,0,1,.4.8,4.12,4.12,0,0,1,0,2.13,2.2,2.2,0,0,1-.4.81,1.73,1.73,0,0,1-.63.51,1.83,1.83,0,0,1-.82.18,1.49,1.49,0,0,1-1.44-.9h0v2.69h-.76Zm2,4.34a1.29,1.29,0,0,0,1-.41,1.49,1.49,0,0,0,.37-1.06v-.84a1.52,1.52,0,0,0-.37-1.07,1.28,1.28,0,0,0-1-.4,1.57,1.57,0,0,0-.49.07,1.35,1.35,0,0,0-.4.19,1.13,1.13,0,0,0-.28.3.86.86,0,0,0-.1.38v1.83a1,1,0,0,0,.1.43,1.06,1.06,0,0,0,.28.32,1.14,1.14,0,0,0,.4.19A1.57,1.57,0,0,0,187.82,49.73Z"/><path d="M191.3,50.29v-4.9h.76v.78h0a2.43,2.43,0,0,1,.2-.35,1.16,1.16,0,0,1,.26-.28,1.2,1.2,0,0,1,.37-.2,1.75,1.75,0,0,1,.49-.07,1.85,1.85,0,0,1,.9.23,1.41,1.41,0,0,1,.6.76h0a1.57,1.57,0,0,1,.5-.69,1.54,1.54,0,0,1,1-.3,1.47,1.47,0,0,1,1.18.49,2.07,2.07,0,0,1,.42,1.38v3.15h-.76v-3a1.54,1.54,0,0,0-.26-1,1,1,0,0,0-.81-.33,2,2,0,0,0-.44,0,1.49,1.49,0,0,0-.36.17.94.94,0,0,0-.26.3.86.86,0,0,0-.09.41v3.41h-.76v-3a1.6,1.6,0,0,0-.26-1,1,1,0,0,0-.8-.33,2,2,0,0,0-.43,0,1.26,1.26,0,0,0-.37.17,1,1,0,0,0-.27.3.86.86,0,0,0-.1.41v3.41Z"/><path d="M201.18,47.32a6.48,6.48,0,0,1-.13,1.34,7.9,7.9,0,0,1-.37,1.19,5.61,5.61,0,0,1-.55,1,3.73,3.73,0,0,1-.67.74h-.72a4.19,4.19,0,0,0,.7-.8,6.57,6.57,0,0,0,.55-1,5.78,5.78,0,0,0,.35-1,4.23,4.23,0,0,0,.13-1v-.82a4.64,4.64,0,0,0-.12-1,5.88,5.88,0,0,0-.35-1,6.14,6.14,0,0,0-.54-1,4.64,4.64,0,0,0-.72-.81h.72a4.22,4.22,0,0,1,.68.76,5.88,5.88,0,0,1,.55,1,6.78,6.78,0,0,1,.36,1.18A6.42,6.42,0,0,1,201.18,47.32Z"/></svg>