<svg id="Camada_1" data-name="Camada 1" xmlns="http://www.w3.org/2000/svg" viewBox="0 0 320.28 57.45"><defs><style>.cls-1{opacity:0.75;}.cls-2{fill:#fff;}.cls-3{fill:#939393;}.cls-4{fill:#eb2b20;}.cls-5{fill:#d6111f;}.cls-6{fill:#bd0026;}.cls-7{fill:#0868ac;}.cls-8{fill:#001476;}.cls-9{fill:#081d58;}.cls-10{fill:#2b8cbe;}.cls-11{fill:#7bccc4;}.cls-12{fill:#a8ddb5;}.cls-13{fill:#ccebc5;}.cls-14{fill:#e0f3db;}.cls-15{fill:#ffc;}.cls-16{fill:#ffeda0;}.cls-17{fill:#fed976;}.cls-18{fill:#feb24c;}.cls-19{fill:#fc4e2a;}</style></defs><title>LEGENDAS_PÁGINA_CLIMA_MAIORES</title><g class="cls-1"><path class="cls-2" d="M0,6.38C0,2.86,3.19,0,7.12,0h306c3.93,0,7.12,2.86,7.12,6.38V51.07c0,3.52-3.19,6.38-7.12,6.38H7.12C3.19,57.45,0,54.59,0,51.07Z"/></g><path class="cls-2" d="M166,23.58h5.47a2,2,0,0,0,2.11-2V10.68a2,2,0,0,0-2.11-2H166a2,2,0,0,0-2.11,2V21.61A2,2,0,0,0,166,23.58Z"/><path class="cls-3" d="M163.62,21.61V10.68A2.3,2.3,0,0,1,166,8.46h5.47a2.3,2.3,0,0,1,2.36,2.22V21.61a2.29,2.29,0,0,1-2.36,2.22H166A2.29,2.29,0,0,1,163.62,21.61ZM166,9a1.8,1.8,0,0,0-1.86,1.72V21.61A1.8,1.8,0,0,0,166,23.33h5.47a1.8,1.8,0,0,0,1.86-1.72V10.68A1.8,1.8,0,0,0,171.45,9Z"/><path class="cls-4" d="M46.38,23.58h5.46a2,2,0,0,0,2.11-2V10.68a2,2,0,0,0-2.11-2H46.38a2,2,0,0,0-2.11,2V21.61A2,2,0,0,0,46.38,23.58Z"/><path class="cls-5" d="M29.29,23.58h5.47a2,2,0,0,0,2.11-2V10.68a2,2,0,0,0-2.11-2H29.29a2,2,0,0,0-2.11,2V21.61A2,2,0,0,0,29.29,23.58Z"/><path class="cls-6" d="M12.2,23.58h5.47a2,2,0,0,0,2.11-2V10.68a2,2,0,0,0-2.11-2H12.2a2,2,0,0,0-2.11,2V21.61A2,2,0,0,0,12.2,23.58Z"/><path class="cls-7" d="M268.58,23.58h5.47a2,2,0,0,0,2.11-2V10.68a2,2,0,0,0-2.11-2h-5.47a2,2,0,0,0-2.11,2V21.61A2.05,2.05,0,0,0,268.58,23.58Z"/><path class="cls-8" d="M285.53,23.58H291a2,2,0,0,0,2.11-2V10.68a2,2,0,0,0-2.11-2h-5.47a2,2,0,0,0-2.11,2V21.61A2,2,0,0,0,285.53,23.58Z"/><path class="cls-9" d="M302.61,23.58h5.47a2,2,0,0,0,2.11-2V10.68a2,2,0,0,0-2.11-2h-5.47a2,2,0,0,0-2.11,2V21.61A2,2,0,0,0,302.61,23.58Z"/><path class="cls-10" d="M251.5,23.58H257a2,2,0,0,0,2.11-2V10.68a2,2,0,0,0-2.11-2H251.5a2,2,0,0,0-2.11,2V21.61A2,2,0,0,0,251.5,23.58Z"/><path class="cls-11" d="M234.41,23.58h5.46a2,2,0,0,0,2.11-2V10.68a2,2,0,0,0-2.11-2h-5.46a2,2,0,0,0-2.11,2V21.61A2,2,0,0,0,234.41,23.58Z"/><path class="cls-12" d="M217.33,23.58h5.46a2,2,0,0,0,2.11-2V10.68a2,2,0,0,0-2.11-2h-5.46a2,2,0,0,0-2.11,2V21.61A2,2,0,0,0,217.33,23.58Z"/><path class="cls-13" d="M200.24,23.58h5.47a2,2,0,0,0,2.1-2V10.68a2,2,0,0,0-2.1-2h-5.47a2,2,0,0,0-2.11,2V21.61A2,2,0,0,0,200.24,23.58Z"/><path class="cls-14" d="M183.15,23.58h5.47a2,2,0,0,0,2.11-2V10.68a2,2,0,0,0-2.11-2h-5.47a2,2,0,0,0-2.11,2V21.61A2,2,0,0,0,183.15,23.58Z"/><path class="cls-2" d="M148.89,23.58h5.47a2,2,0,0,0,2.11-2V10.68a2,2,0,0,0-2.11-2h-5.47a2,2,0,0,0-2.11,2V21.61A2.05,2.05,0,0,0,148.89,23.58Z"/><path class="cls-3" d="M146.53,21.61V10.68a2.3,2.3,0,0,1,2.36-2.22h5.47a2.3,2.3,0,0,1,2.36,2.22V21.61a2.29,2.29,0,0,1-2.36,2.22h-5.47A2.29,2.29,0,0,1,146.53,21.61ZM148.89,9A1.8,1.8,0,0,0,147,10.68V21.61a1.8,1.8,0,0,0,1.86,1.72h5.47a1.8,1.8,0,0,0,1.86-1.72V10.68A1.8,1.8,0,0,0,154.36,9Z"/><path class="cls-15" d="M131.81,23.58h5.47a2,2,0,0,0,2.11-2V10.68a2,2,0,0,0-2.11-2h-5.47a2,2,0,0,0-2.11,2V21.61A2,2,0,0,0,131.81,23.58Z"/><path class="cls-16" d="M114.72,23.58h5.47a2,2,0,0,0,2.11-2V10.68a2,2,0,0,0-2.11-2h-5.47a2,2,0,0,0-2.11,2V21.61A2.05,2.05,0,0,0,114.72,23.58Z"/><path class="cls-17" d="M97.63,23.58h5.47a2,2,0,0,0,2.11-2V10.68a2,2,0,0,0-2.11-2H97.63a2,2,0,0,0-2.1,2V21.61A2,2,0,0,0,97.63,23.58Z"/><path class="cls-18" d="M80.55,23.58H86a2,2,0,0,0,2.11-2V10.68a2,2,0,0,0-2.11-2H80.55a2,2,0,0,0-2.1,2V21.61A2,2,0,0,0,80.55,23.58Z"/><path class="cls-19" d="M63.47,23.58h5.46a2,2,0,0,0,2.11-2V10.68a2,2,0,0,0-2.11-2H63.47a2,2,0,0,0-2.11,2V21.61A2,2,0,0,0,63.47,23.58Z"/><path d="M53.72,34.08v-.81H56.2v.81Z"/><path d="M59.33,32.72a1.47,1.47,0,0,0,1-.3,1,1,0,0,0,.34-.79v-.07a.92.92,0,0,0-.33-.78,1.36,1.36,0,0,0-.86-.26,1.4,1.4,0,0,0-.83.22,1.69,1.69,0,0,0-.54.61l-.58-.46a2.55,2.55,0,0,1,.3-.39,1.73,1.73,0,0,1,.41-.34,1.85,1.85,0,0,1,.55-.25,2.6,2.6,0,0,1,.71-.09,2.56,2.56,0,0,1,.79.11,1.83,1.83,0,0,1,.64.32,1.56,1.56,0,0,1,.43.52,1.65,1.65,0,0,1,.16.71,1.72,1.72,0,0,1-.1.58,1.48,1.48,0,0,1-.27.44,1.42,1.42,0,0,1-.41.32,1.69,1.69,0,0,1-.5.2v0a2,2,0,0,1,.52.19,1.45,1.45,0,0,1,.45.33,1.57,1.57,0,0,1,.31.5,1.69,1.69,0,0,1,.12.66,1.86,1.86,0,0,1-.16.79,1.73,1.73,0,0,1-.46.61,2,2,0,0,1-.71.39,2.73,2.73,0,0,1-.92.15,2.86,2.86,0,0,1-.76-.1,2.1,2.1,0,0,1-.59-.25A2.73,2.73,0,0,1,57.6,36a3.31,3.31,0,0,1-.35-.41l.6-.46a2.42,2.42,0,0,0,.27.36,1.75,1.75,0,0,0,.33.28,1.53,1.53,0,0,0,.41.17,2,2,0,0,0,.53.06,1.51,1.51,0,0,0,1.06-.32,1.14,1.14,0,0,0,.36-.91v-.08a1.15,1.15,0,0,0-.36-.91,1.51,1.51,0,0,0-1.06-.32h-.78v-.71Z"/><path d="M19.3,34.08v-.81h2.48v.81Z"/><path d="M26,36.56v-1.3h-3.2v-.7l2.78-4.63h1.18V34.6h1v.66h-1v1.3Zm-2.45-2H26V30.55h0Z"/><path d="M87.76,34.08v-.81h2.48v.81Z"/><path d="M96,36.56H91.61v-.81l2.16-2a4.71,4.71,0,0,0,.78-.91,1.75,1.75,0,0,0,.32-1v-.11a1.28,1.28,0,0,0-.31-.9,1.19,1.19,0,0,0-.92-.34,1.44,1.44,0,0,0-.53.09,1.23,1.23,0,0,0-.4.23,1.22,1.22,0,0,0-.27.36,2.89,2.89,0,0,0-.18.44l-.71-.27a2.72,2.72,0,0,1,.26-.58,1.79,1.79,0,0,1,.42-.49,1.91,1.91,0,0,1,.61-.35,2.39,2.39,0,0,1,.84-.13,2.54,2.54,0,0,1,.86.14,1.66,1.66,0,0,1,.64.4,1.68,1.68,0,0,1,.39.61,1.92,1.92,0,0,1,.14.77,2.19,2.19,0,0,1-.11.73,2.6,2.6,0,0,1-.3.63,3.44,3.44,0,0,1-.46.58c-.18.19-.37.38-.58.57l-1.79,1.61H96Z"/><path d="M121.8,34.08v-.81h2.48v.81Z"/><path d="M125.77,36.56v-.7h1.85V30.52h-.07l-1.67,1.56-.46-.5,1.75-1.65h1.25v5.93h1.71v.7Z"/><path d="M160.14,36.68a1.88,1.88,0,0,1-1.74-.91,4.91,4.91,0,0,1-.54-2.52,4.93,4.93,0,0,1,.54-2.53,1.9,1.9,0,0,1,1.74-.9,1.87,1.87,0,0,1,1.73.9,4.82,4.82,0,0,1,.55,2.53,4.81,4.81,0,0,1-.55,2.52A1.86,1.86,0,0,1,160.14,36.68Zm0-.71a1.24,1.24,0,0,0,.66-.16,1.15,1.15,0,0,0,.45-.45,2.35,2.35,0,0,0,.25-.69,4.06,4.06,0,0,0,.08-.88V32.71a4,4,0,0,0-.08-.88,2.15,2.15,0,0,0-.25-.69,1.17,1.17,0,0,0-.45-.46,1.24,1.24,0,0,0-.66-.16,1.3,1.3,0,0,0-.67.16,1.22,1.22,0,0,0-.44.46,2.16,2.16,0,0,0-.26.69,4.71,4.71,0,0,0-.08.88v1.08a4.79,4.79,0,0,0,.08.88,2.36,2.36,0,0,0,.26.69,1.19,1.19,0,0,0,.44.45A1.3,1.3,0,0,0,160.14,36Z"/><path d="M192.45,36.56v-.7h1.85V30.52h-.06l-1.68,1.56-.46-.5,1.76-1.65h1.24v5.93h1.71v.7Z"/><path d="M230.84,36.56h-4.35v-.81l2.16-2a4.71,4.71,0,0,0,.78-.91,1.74,1.74,0,0,0,.31-1v-.11a1.32,1.32,0,0,0-.3-.9,1.19,1.19,0,0,0-.92-.34,1.44,1.44,0,0,0-.53.09,1.05,1.05,0,0,0-.4.23,1.22,1.22,0,0,0-.27.36,1.7,1.7,0,0,0-.18.44l-.71-.27a2.72,2.72,0,0,1,.26-.58,1.79,1.79,0,0,1,.42-.49,2,2,0,0,1,.6-.35,2.41,2.41,0,0,1,.85-.13,2.54,2.54,0,0,1,.86.14,1.74,1.74,0,0,1,.64.4,1.68,1.68,0,0,1,.39.61,2.11,2.11,0,0,1,.14.77,2.48,2.48,0,0,1-.11.73,2.6,2.6,0,0,1-.3.63,4,4,0,0,1-.46.58c-.18.19-.38.38-.58.57l-1.79,1.61h3.49Z"/><path d="M262.68,32.72a1.47,1.47,0,0,0,1-.3,1,1,0,0,0,.34-.79v-.07a.92.92,0,0,0-.33-.78,1.36,1.36,0,0,0-.86-.26,1.4,1.4,0,0,0-.83.22,1.58,1.58,0,0,0-.53.61l-.59-.46a2.55,2.55,0,0,1,.3-.39,1.73,1.73,0,0,1,.41-.34,1.85,1.85,0,0,1,.55-.25,2.6,2.6,0,0,1,.71-.09,2.56,2.56,0,0,1,.79.11,1.83,1.83,0,0,1,.64.32,1.45,1.45,0,0,1,.43.52,1.65,1.65,0,0,1,.16.71,1.72,1.72,0,0,1-.1.58,1.48,1.48,0,0,1-.27.44,1.42,1.42,0,0,1-.41.32,1.69,1.69,0,0,1-.5.2v0a2,2,0,0,1,.52.19,1.45,1.45,0,0,1,.45.33,1.57,1.57,0,0,1,.31.5,1.69,1.69,0,0,1,.12.66,1.86,1.86,0,0,1-.16.79,1.73,1.73,0,0,1-.46.61,2,2,0,0,1-.71.39,2.73,2.73,0,0,1-.92.15,2.86,2.86,0,0,1-.76-.1,2.1,2.1,0,0,1-.59-.25A2.73,2.73,0,0,1,261,36a3.31,3.31,0,0,1-.35-.41l.6-.46a2.42,2.42,0,0,0,.27.36,1.75,1.75,0,0,0,.33.28,1.53,1.53,0,0,0,.41.17,2.09,2.09,0,0,0,.53.06,1.51,1.51,0,0,0,1.06-.32,1.14,1.14,0,0,0,.36-.91v-.08a1.15,1.15,0,0,0-.36-.91,1.51,1.51,0,0,0-1.06-.32H262v-.71Z"/><path d="M297.58,36.56v-1.3h-3.2v-.7l2.77-4.63h1.19V34.6h1v.66h-1v1.3Zm-2.45-2h2.45V30.55h-.05Z"/><path d="M111,50.65l-.66-2h-2.68l-.67,2h-.81L108.52,44h1l2.32,6.63Zm-2-5.89h0L107.87,48h2.29Z"/><path d="M112.88,50.65V45.74h.76v.79h0a1.58,1.58,0,0,1,.51-.65,1.39,1.39,0,0,1,.88-.25,1.54,1.54,0,0,1,1.2.49,2,2,0,0,1,.44,1.38v3.15H116v-3c0-.88-.37-1.33-1.11-1.33a1.61,1.61,0,0,0-.44.06,1.53,1.53,0,0,0-.39.17,1.06,1.06,0,0,0-.27.29.82.82,0,0,0-.1.42v3.41Z"/><path d="M120.13,50.76a2.19,2.19,0,0,1-.9-.18,1.89,1.89,0,0,1-.7-.52,2.49,2.49,0,0,1-.45-.8,3.59,3.59,0,0,1,0-2.12,2.43,2.43,0,0,1,.45-.81,1.89,1.89,0,0,1,.7-.52,2.34,2.34,0,0,1,1.8,0,2,2,0,0,1,.7.52,2.43,2.43,0,0,1,.45.81,3.59,3.59,0,0,1,0,2.12,2.49,2.49,0,0,1-.45.8,2,2,0,0,1-.7.52A2.19,2.19,0,0,1,120.13,50.76Zm0-.67a1.41,1.41,0,0,0,1-.38,1.56,1.56,0,0,0,.39-1.16v-.71a1.56,1.56,0,0,0-.39-1.16,1.53,1.53,0,0,0-2,0,1.56,1.56,0,0,0-.39,1.16v.71a1.56,1.56,0,0,0,.39,1.16A1.41,1.41,0,0,0,120.13,50.09Z"/><path d="M123.6,50.65V45.74h.76v.79h0a2.37,2.37,0,0,1,.19-.35,1.2,1.2,0,0,1,.63-.48,1.51,1.51,0,0,1,.5-.07,1.82,1.82,0,0,1,.89.23,1.44,1.44,0,0,1,.61.76h0a1.48,1.48,0,0,1,1.49-1,1.45,1.45,0,0,1,1.17.49,2.07,2.07,0,0,1,.42,1.38v3.15h-.76v-3a1.61,1.61,0,0,0-.25-1,1,1,0,0,0-.82-.34,1.49,1.49,0,0,0-.43.06,1.4,1.4,0,0,0-.37.17.86.86,0,0,0-.25.29.82.82,0,0,0-.1.42v3.41h-.76v-3a1.54,1.54,0,0,0-.26-1,.94.94,0,0,0-.79-.34,1.56,1.56,0,0,0-.44.06,1.4,1.4,0,0,0-.37.17.89.89,0,0,0-.26.29.82.82,0,0,0-.1.42v3.41Z"/><path d="M135.45,50.65a.75.75,0,0,1-.61-.23,1.13,1.13,0,0,1-.23-.57h-.05a1.26,1.26,0,0,1-.53.68,1.67,1.67,0,0,1-.88.23,1.73,1.73,0,0,1-1.22-.4,1.42,1.42,0,0,1-.43-1.08,1.25,1.25,0,0,1,.51-1.07,2.77,2.77,0,0,1,1.58-.37h1v-.48a1.07,1.07,0,0,0-.28-.8,1.52,1.52,0,0,0-1.62-.07,1.59,1.59,0,0,0-.5.53l-.46-.43a1.73,1.73,0,0,1,.64-.68,2,2,0,0,1,1.1-.28,2,2,0,0,1,1.39.44,1.52,1.52,0,0,1,.49,1.21V50h.56v.68Zm-2.18-.54a2.12,2.12,0,0,0,.52-.06,1.42,1.42,0,0,0,.41-.19,1.06,1.06,0,0,0,.27-.29.68.68,0,0,0,.09-.35v-.81h-1a1.91,1.91,0,0,0-1,.19.62.62,0,0,0-.3.55v.2a.7.7,0,0,0,.26.57A1.17,1.17,0,0,0,133.27,50.11Z"/><path d="M137.77,50.65a.77.77,0,0,1-.6-.23.78.78,0,0,1-.21-.56V43.62h.76V50h.73v.68Z"/><path d="M139.93,44.59a.46.46,0,0,1-.36-.11.47.47,0,0,1-.11-.31V44a.42.42,0,0,1,.11-.3.46.46,0,0,1,.36-.12.45.45,0,0,1,.35.12.39.39,0,0,1,.11.3v.13a.42.42,0,0,1-.11.31A.45.45,0,0,1,139.93,44.59Zm-.38,1.15h.76v4.91h-.76Z"/><path d="M145.49,50.65a.77.77,0,0,1-.62-.23,1.13,1.13,0,0,1-.23-.57h0a1.26,1.26,0,0,1-.53.68,1.93,1.93,0,0,1-2.09-.17,1.39,1.39,0,0,1-.44-1.08,1.25,1.25,0,0,1,.51-1.07,2.77,2.77,0,0,1,1.58-.37h1v-.48a1.07,1.07,0,0,0-.28-.8,1.24,1.24,0,0,0-.88-.27,1.26,1.26,0,0,0-.74.2,1.59,1.59,0,0,0-.5.53l-.46-.43a1.8,1.8,0,0,1,.64-.68,2,2,0,0,1,1.1-.28,2,2,0,0,1,1.39.44,1.52,1.52,0,0,1,.49,1.21V50h.56v.68Zm-2.19-.54a2.12,2.12,0,0,0,.52-.06,1.42,1.42,0,0,0,.41-.19.93.93,0,0,0,.27-.29.68.68,0,0,0,.09-.35v-.81h-1a1.92,1.92,0,0,0-1,.19.62.62,0,0,0-.3.55v.2a.7.7,0,0,0,.26.57A1.17,1.17,0,0,0,143.3,50.11Z"/><path d="M152.37,49.86h0a1.48,1.48,0,0,1-1.43.9,1.79,1.79,0,0,1-1.46-.69,2.46,2.46,0,0,1-.4-.81,4.43,4.43,0,0,1,0-2.13,2.46,2.46,0,0,1,.4-.81,1.79,1.79,0,0,1,1.46-.69,1.64,1.64,0,0,1,.88.22,1.39,1.39,0,0,1,.55.68h0V43.62h.76v7h-.76Zm-1.26.23a2,2,0,0,0,.49-.07,1.25,1.25,0,0,0,.4-.2.8.8,0,0,0,.27-.31.88.88,0,0,0,.1-.43V47.25a.75.75,0,0,0-.1-.38,1,1,0,0,0-.27-.3,1.24,1.24,0,0,0-.4-.19,1.62,1.62,0,0,0-.49-.08,1.33,1.33,0,0,0-1,.41,1.56,1.56,0,0,0-.37,1.07v.84a1.55,1.55,0,0,0,.37,1.06A1.33,1.33,0,0,0,151.11,50.09Z"/><path d="M156.6,50.76a2.19,2.19,0,0,1-.9-.18,1.81,1.81,0,0,1-.7-.52,2.49,2.49,0,0,1-.45-.8,3.59,3.59,0,0,1,0-2.12,2.43,2.43,0,0,1,.45-.81,1.81,1.81,0,0,1,.7-.52,2.34,2.34,0,0,1,1.8,0,2,2,0,0,1,.7.52,2.43,2.43,0,0,1,.45.81,3.59,3.59,0,0,1,0,2.12,2.49,2.49,0,0,1-.45.8,2,2,0,0,1-.7.52A2.19,2.19,0,0,1,156.6,50.76Zm0-.67a1.41,1.41,0,0,0,1-.38,1.56,1.56,0,0,0,.39-1.16v-.71a1.56,1.56,0,0,0-.39-1.16,1.53,1.53,0,0,0-2,0,1.56,1.56,0,0,0-.39,1.16v.71a1.56,1.56,0,0,0,.39,1.16A1.41,1.41,0,0,0,156.6,50.09Z"/><path d="M163.9,50.65,161.69,44h.86l1.09,3.34.73,2.49h0l.75-2.49,1.1-3.34h.83l-2.24,6.63Z"/><path d="M169.65,50.76a2.16,2.16,0,0,1-.9-.18,1.89,1.89,0,0,1-.7-.52,2.49,2.49,0,0,1-.45-.8,3.82,3.82,0,0,1,0-2.12,2.43,2.43,0,0,1,.45-.81,1.89,1.89,0,0,1,.7-.52,2.16,2.16,0,0,1,.9-.18,2.11,2.11,0,0,1,.89.18,2,2,0,0,1,.66.5,2.12,2.12,0,0,1,.42.75,2.93,2.93,0,0,1,.15,1v.36h-3.52v.22a1.63,1.63,0,0,0,.1.59,1.31,1.31,0,0,0,.28.47,1.25,1.25,0,0,0,.46.31,1.48,1.48,0,0,0,.61.12,1.42,1.42,0,0,0,1.35-.85l.54.39a2,2,0,0,1-.74.82A2.23,2.23,0,0,1,169.65,50.76Zm0-4.49a1.32,1.32,0,0,0-.57.11,1.23,1.23,0,0,0-.44.3,1.49,1.49,0,0,0-.29.47,1.63,1.63,0,0,0-.1.59v.07H171V47.7a1.52,1.52,0,0,0-.35-1A1.24,1.24,0,0,0,169.65,46.27Z"/><path d="M173,50.65V45.74h.76v.79h0a1.58,1.58,0,0,1,.51-.65,1.39,1.39,0,0,1,.88-.25,1.51,1.51,0,0,1,1.2.49,2,2,0,0,1,.44,1.38v3.15h-.76v-3c0-.88-.37-1.33-1.11-1.33a1.61,1.61,0,0,0-.44.06,1.46,1.46,0,0,0-.38.17,1,1,0,0,0-.28.29.93.93,0,0,0-.1.42v3.41Z"/><path d="M179.5,50.65a.74.74,0,0,1-.8-.81V46.42h-.81v-.68h.45a.43.43,0,0,0,.34-.1.5.5,0,0,0,.09-.34v-.91h.69v1.35h1.07v.68h-1.07V50h1v.68Z"/><path d="M183.57,50.76a2.19,2.19,0,0,1-.9-.18,1.81,1.81,0,0,1-.7-.52,2.31,2.31,0,0,1-.45-.8,3.59,3.59,0,0,1,0-2.12,2.27,2.27,0,0,1,.45-.81,1.81,1.81,0,0,1,.7-.52,2.34,2.34,0,0,1,1.8,0,1.86,1.86,0,0,1,.69.52,2.29,2.29,0,0,1,.46.81,3.59,3.59,0,0,1,0,2.12,2.33,2.33,0,0,1-.46.8,1.86,1.86,0,0,1-.69.52A2.19,2.19,0,0,1,183.57,50.76Zm0-.67a1.41,1.41,0,0,0,1-.38,1.56,1.56,0,0,0,.39-1.16v-.71a1.56,1.56,0,0,0-.39-1.16,1.53,1.53,0,0,0-2,0,1.56,1.56,0,0,0-.39,1.16v.71a1.56,1.56,0,0,0,.39,1.16A1.41,1.41,0,0,0,183.57,50.09Z"/><path d="M189.26,47.68a6.42,6.42,0,0,1,.13-1.32,6,6,0,0,1,.37-1.18,4.7,4.7,0,0,1,.55-1,3.84,3.84,0,0,1,.67-.76h.72a5.62,5.62,0,0,0-.72.81,6.14,6.14,0,0,0-.54,1,5.59,5.59,0,0,0-.34,1,4.08,4.08,0,0,0-.13,1v.82a4.23,4.23,0,0,0,.13,1,6,6,0,0,0,.89,2,5,5,0,0,0,.71.8H191a4.42,4.42,0,0,1-.67-.74,5.58,5.58,0,0,1-.54-1A6.35,6.35,0,0,1,189.4,49,6.55,6.55,0,0,1,189.26,47.68Z"/><path d="M192.46,50.65V45.74h.76v.79h0a3.9,3.9,0,0,1,.19-.35,1.86,1.86,0,0,1,.27-.29,1.38,1.38,0,0,1,.86-.26,1.82,1.82,0,0,1,.89.23,1.35,1.35,0,0,1,.61.76h0a1.57,1.57,0,0,1,.5-.69,1.5,1.5,0,0,1,1-.3,1.45,1.45,0,0,1,1.17.49,2,2,0,0,1,.43,1.38v3.15h-.76v-3a1.6,1.6,0,0,0-.26-1,1,1,0,0,0-.82-.34,1.54,1.54,0,0,0-.43.06,1.33,1.33,0,0,0-.36.17.89.89,0,0,0-.26.29.93.93,0,0,0-.09.42v3.41h-.77v-3a1.61,1.61,0,0,0-.25-1,1,1,0,0,0-.8-.34,1.61,1.61,0,0,0-.44.06,1.4,1.4,0,0,0-.37.17,1,1,0,0,0-.26.29.82.82,0,0,0-.1.42v3.41Z"/><path d="M202.23,50.76a2.36,2.36,0,0,1-1.15-.26,2.63,2.63,0,0,1-.79-.7l.54-.44a2.1,2.1,0,0,0,.64.56,1.62,1.62,0,0,0,.81.19,1.21,1.21,0,0,0,.76-.2.71.71,0,0,0,.27-.59.67.67,0,0,0-.19-.49,1.07,1.07,0,0,0-.66-.28l-.39-.06a2.91,2.91,0,0,1-.63-.15,1.58,1.58,0,0,1-.5-.26,1.14,1.14,0,0,1-.33-.42,1.32,1.32,0,0,1-.12-.59,1.39,1.39,0,0,1,.13-.63A1.24,1.24,0,0,1,201,46a1.57,1.57,0,0,1,.55-.27,2.63,2.63,0,0,1,.7-.09,2.15,2.15,0,0,1,1,.21,2.3,2.3,0,0,1,.71.58l-.51.46a1.39,1.39,0,0,0-.47-.42,1.57,1.57,0,0,0-.79-.18,1.07,1.07,0,0,0-.72.2.7.7,0,0,0-.24.56.58.58,0,0,0,.24.52,1.78,1.78,0,0,0,.7.24l.38.05a2.13,2.13,0,0,1,1.16.47,1.24,1.24,0,0,1,.34.91,1.38,1.38,0,0,1-.48,1.12A2,2,0,0,1,202.23,50.76Z"/><path d="M205.13,46.17v-.82h2.48v.82Z"/><path d="M208.79,47.52v-.47h1V44.53l-1,.52-.24-.42,1.2-.61h.65v3h.93v.47Z"/><path d="M214.07,47.68a6.55,6.55,0,0,1-.13,1.34,8.28,8.28,0,0,1-.37,1.19,5.61,5.61,0,0,1-.55,1,4,4,0,0,1-.67.74h-.72a4.51,4.51,0,0,0,.7-.8,6.57,6.57,0,0,0,.55-1,5.78,5.78,0,0,0,.35-1,4.23,4.23,0,0,0,.13-1v-.82a4.57,4.57,0,0,0-.12-1,5.63,5.63,0,0,0-.35-1,6.14,6.14,0,0,0-.54-1,4.64,4.64,0,0,0-.72-.81h.72a4.22,4.22,0,0,1,.68.76,5.19,5.19,0,0,1,.55,1,6.78,6.78,0,0,1,.36,1.18A6.42,6.42,0,0,1,214.07,47.68Z"/></svg>