<svg id="Camada_1" data-name="Camada 1" xmlns="http://www.w3.org/2000/svg" viewBox="0 0 320.45 57.45">
  <title>legenda_anom_psi</title>
  <g style="opacity: 0.75">
    <path d="M0,6.38C0,2.86,3.19,0,7.12,0H313.33c3.93,0,7.12,2.86,7.12,6.38V51.07c0,3.52-3.19,6.38-7.12,6.38H7.12C3.19,57.45,0,54.59,0,51.07Z" style="fill: #fff"/>
  </g>
  <g>
    <path d="M54.19,33.14v-.69h2.1v.69Z"/>
    <path d="M60.85,30.22H58.39l-.16,2.14h.05a1.78,1.78,0,0,1,.46-.45,1.27,1.27,0,0,1,.7-.17,1.76,1.76,0,0,1,.66.12,1.46,1.46,0,0,1,.53.34,1.4,1.4,0,0,1,.35.54,1.92,1.92,0,0,1,.13.74,2,2,0,0,1-.13.75,1.79,1.79,0,0,1-.37.59,1.86,1.86,0,0,1-.6.38,2.18,2.18,0,0,1-.79.14,2.35,2.35,0,0,1-.63-.08,2,2,0,0,1-.47-.22,1.86,1.86,0,0,1-.37-.3,3.17,3.17,0,0,1-.29-.35L58,34a2.44,2.44,0,0,0,.22.31,1.38,1.38,0,0,0,.26.23,1.26,1.26,0,0,0,.33.15,1.84,1.84,0,0,0,.44.05,1.17,1.17,0,0,0,.88-.31,1.21,1.21,0,0,0,.29-.86v-.08a1.21,1.21,0,0,0-.29-.86,1.4,1.4,0,0,0-1.49-.17,1.8,1.8,0,0,0-.4.33l-.57-.08.2-3.09h3Z"/>
  </g>
  <g>
    <path d="M20,33.14v-.69h2.1v.69Z"/>
    <path d="M25,35.34a2.39,2.39,0,0,1-.84-.13,1.79,1.79,0,0,1-.61-.34,1.42,1.42,0,0,1-.37-.51,1.75,1.75,0,0,1-.12-.65,1.3,1.3,0,0,1,.31-.92,1.71,1.71,0,0,1,.82-.47v-.07a1.42,1.42,0,0,1-.7-.49,1.29,1.29,0,0,1-.27-.83,1.26,1.26,0,0,1,.47-1A2,2,0,0,1,25,29.53a2,2,0,0,1,1.31.38,1.23,1.23,0,0,1,.47,1,1.35,1.35,0,0,1-.26.83,1.42,1.42,0,0,1-.7.49v.07a1.76,1.76,0,0,1,.82.47,1.3,1.3,0,0,1,.31.92,1.75,1.75,0,0,1-.12.65,1.55,1.55,0,0,1-.37.51,1.89,1.89,0,0,1-.61.34A2.41,2.41,0,0,1,25,35.34Zm0-.6a1.43,1.43,0,0,0,.91-.26.88.88,0,0,0,.32-.74v-.17a.88.88,0,0,0-.32-.74,1.37,1.37,0,0,0-.91-.26,1.39,1.39,0,0,0-.91.26.9.9,0,0,0-.32.74v.17a.9.9,0,0,0,.32.74A1.45,1.45,0,0,0,25,34.74ZM25,32a1.26,1.26,0,0,0,.81-.22.81.81,0,0,0,.27-.66V31a.79.79,0,0,0-.27-.65,1.26,1.26,0,0,0-.81-.23,1.23,1.23,0,0,0-.8.23A.8.8,0,0,0,24,31v.12a.82.82,0,0,0,.28.66A1.23,1.23,0,0,0,25,32Z"/>
  </g>
  <g>
    <path d="M88.47,33.14v-.69h2.1v.69Z"/>
    <path d="M93.22,32a1.26,1.26,0,0,0,.86-.26.88.88,0,0,0,.28-.67V31a.81.81,0,0,0-.27-.66,1.13,1.13,0,0,0-.73-.22,1.19,1.19,0,0,0-.71.19,1.59,1.59,0,0,0-.45.51l-.5-.38A2,2,0,0,1,92,30.1a1.8,1.8,0,0,1,.82-.49,1.92,1.92,0,0,1,.61-.08,2.39,2.39,0,0,1,.66.09,1.66,1.66,0,0,1,.55.27,1.39,1.39,0,0,1,.36.44,1.33,1.33,0,0,1,.13.61,1.23,1.23,0,0,1-.31.86,1.27,1.27,0,0,1-.34.27,1.75,1.75,0,0,1-.43.17v0a2.32,2.32,0,0,1,.44.16,1.49,1.49,0,0,1,.38.28,1.51,1.51,0,0,1,.27.42,1.7,1.7,0,0,1,.1.57,1.59,1.59,0,0,1-.14.66,1.43,1.43,0,0,1-.39.52,1.92,1.92,0,0,1-.6.34,2.6,2.6,0,0,1-1.42,0,2.09,2.09,0,0,1-.5-.22,2,2,0,0,1-.39-.3,3.17,3.17,0,0,1-.29-.35L92,34a2.26,2.26,0,0,0,.23.31,1.18,1.18,0,0,0,.27.23,1.84,1.84,0,0,0,.35.15,2,2,0,0,0,.45.05,1.31,1.31,0,0,0,.9-.27,1,1,0,0,0,.31-.78v-.06a1,1,0,0,0-.31-.77,1.26,1.26,0,0,0-.9-.28h-.66V32Z"/>
  </g>
  <g>
    <path d="M122.47,33.14v-.69h2.1v.69Z"/>
    <path d="M125.83,35.24v-.6h1.57V30.12h-.06l-1.41,1.32-.4-.43L127,29.62h1.06v5h1.44v.6Z"/>
  </g>
  <path d="M160.16,35.34a1.57,1.57,0,0,1-1.46-.77,4.12,4.12,0,0,1-.47-2.14,4.12,4.12,0,0,1,.47-2.14,1.56,1.56,0,0,1,1.46-.76,1.59,1.59,0,0,1,1.47.76,4.12,4.12,0,0,1,.47,2.14,4.12,4.12,0,0,1-.47,2.14A1.6,1.6,0,0,1,160.16,35.34Zm0-.6a1.15,1.15,0,0,0,.57-.14,1.06,1.06,0,0,0,.38-.38,2.27,2.27,0,0,0,.21-.59,4.14,4.14,0,0,0,.07-.74V32a4.14,4.14,0,0,0-.07-.74,2.27,2.27,0,0,0-.21-.59,1,1,0,0,0-1-.52,1.11,1.11,0,0,0-.56.14,1.06,1.06,0,0,0-.38.38,2,2,0,0,0-.21.59,3.38,3.38,0,0,0-.07.74v.92a3.38,3.38,0,0,0,.07.74,2,2,0,0,0,.21.59,1,1,0,0,0,.38.38A1.11,1.11,0,0,0,160.16,34.74Z"/>
  <path d="M192.72,35.24v-.6h1.57V30.12h0l-1.42,1.32-.39-.43,1.48-1.39H195v5h1.45v.6Z"/>
  <path d="M228.5,32a1.26,1.26,0,0,0,.86-.26.88.88,0,0,0,.28-.67V31a.81.81,0,0,0-.27-.66,1.13,1.13,0,0,0-.73-.22,1.19,1.19,0,0,0-.71.19,1.59,1.59,0,0,0-.45.51l-.5-.38a2,2,0,0,1,.25-.34,1.67,1.67,0,0,1,.82-.49,1.92,1.92,0,0,1,.61-.08,2.39,2.39,0,0,1,.66.09,1.66,1.66,0,0,1,.55.27,1.39,1.39,0,0,1,.36.44,1.33,1.33,0,0,1,.13.61,1.23,1.23,0,0,1-.31.86,1.27,1.27,0,0,1-.34.27,1.75,1.75,0,0,1-.43.17v0a2.32,2.32,0,0,1,.44.16,1.49,1.49,0,0,1,.38.28,1.51,1.51,0,0,1,.27.42,1.7,1.7,0,0,1,.1.57,1.59,1.59,0,0,1-.14.66,1.43,1.43,0,0,1-.39.52,1.92,1.92,0,0,1-.6.34,2.45,2.45,0,0,1-.78.12,2.57,2.57,0,0,1-.65-.08,2.2,2.2,0,0,1-.49-.22,2,2,0,0,1-.39-.3,3.17,3.17,0,0,1-.29-.35l.51-.39a2.26,2.26,0,0,0,.23.31,1.18,1.18,0,0,0,.27.23,1.84,1.84,0,0,0,.35.15,2,2,0,0,0,.45.05,1.31,1.31,0,0,0,.9-.27,1,1,0,0,0,.31-.78v-.06a1,1,0,0,0-.31-.77,1.26,1.26,0,0,0-.9-.28h-.66V32Z"/>
  <path d="M264.33,30.22h-2.46l-.16,2.14h.05a1.78,1.78,0,0,1,.46-.45,1.27,1.27,0,0,1,.7-.17,1.76,1.76,0,0,1,.66.12,1.6,1.6,0,0,1,.54.34,1.66,1.66,0,0,1,.34.54,1.92,1.92,0,0,1,.13.74,2,2,0,0,1-.13.75,1.79,1.79,0,0,1-.37.59,1.86,1.86,0,0,1-.6.38,2.18,2.18,0,0,1-.79.14,2.35,2.35,0,0,1-.63-.08,2,2,0,0,1-.47-.22,1.86,1.86,0,0,1-.37-.3,3.17,3.17,0,0,1-.29-.35l.51-.39a2.44,2.44,0,0,0,.22.31,1.38,1.38,0,0,0,.26.23,1.26,1.26,0,0,0,.33.15,1.84,1.84,0,0,0,.44.05,1.17,1.17,0,0,0,.88-.31,1.21,1.21,0,0,0,.29-.86v-.08a1.21,1.21,0,0,0-.29-.86,1.4,1.4,0,0,0-1.49-.17,1.8,1.8,0,0,0-.4.33l-.57-.08.2-3.09h3Z"/>
  <path d="M297,35.34a2.39,2.39,0,0,1-.84-.13,1.7,1.7,0,0,1-.61-.34,1.31,1.31,0,0,1-.37-.51,1.57,1.57,0,0,1-.13-.65,1.3,1.3,0,0,1,.32-.92,1.71,1.71,0,0,1,.82-.47v-.07a1.45,1.45,0,0,1-.71-.49,1.35,1.35,0,0,1-.26-.83,1.26,1.26,0,0,1,.47-1,2.45,2.45,0,0,1,2.62,0,1.26,1.26,0,0,1,.47,1,1.35,1.35,0,0,1-.26.83,1.45,1.45,0,0,1-.71.49v.07a1.71,1.71,0,0,1,.82.47,1.3,1.3,0,0,1,.32.92,1.57,1.57,0,0,1-.13.65,1.31,1.31,0,0,1-.37.51,1.74,1.74,0,0,1-.6.34A2.49,2.49,0,0,1,297,35.34Zm0-.6a1.43,1.43,0,0,0,.91-.26.9.9,0,0,0,.32-.74v-.17a.9.9,0,0,0-.32-.74,1.37,1.37,0,0,0-.91-.26,1.39,1.39,0,0,0-.91.26.9.9,0,0,0-.32.74v.17a.9.9,0,0,0,.32.74A1.45,1.45,0,0,0,297,34.74ZM297,32a1.28,1.28,0,0,0,.81-.22.81.81,0,0,0,.27-.66V31a.79.79,0,0,0-.27-.65,1.28,1.28,0,0,0-.81-.23,1.23,1.23,0,0,0-.8.23.77.77,0,0,0-.28.65v.12a.79.79,0,0,0,.28.66A1.23,1.23,0,0,0,297,32Z"/>
  <g>
    <path d="M109.32,49.82l-.61-1.8h-2.46l-.61,1.8h-.74L107,43.73H108l2.13,6.09Zm-1.82-5.41h0l-1,3h2.11Z"/>
    <path d="M111,49.82v-4.5h.69V46h0a1.49,1.49,0,0,1,.47-.6,1.31,1.31,0,0,1,.8-.22,1.42,1.42,0,0,1,1.11.45,1.8,1.8,0,0,1,.4,1.26v2.89h-.7V47.05c0-.81-.34-1.21-1-1.21a1.33,1.33,0,0,0-.4,0,1.23,1.23,0,0,0-.35.15.72.72,0,0,0-.25.27.8.8,0,0,0-.1.38v3.13Z"/>
    <path d="M117.68,49.92a2,2,0,0,1-.83-.16,1.77,1.77,0,0,1-.64-.48,2.12,2.12,0,0,1-.41-.74,3,3,0,0,1-.15-1,3,3,0,0,1,.15-1,2.12,2.12,0,0,1,.41-.74,1.77,1.77,0,0,1,.64-.48,2,2,0,0,1,.83-.16,2,2,0,0,1,.82.16,1.77,1.77,0,0,1,.64.48,2.14,2.14,0,0,1,.42.74,3,3,0,0,1,.15,1,3,3,0,0,1-.15,1,2.14,2.14,0,0,1-.42.74,1.77,1.77,0,0,1-.64.48A2,2,0,0,1,117.68,49.92Zm0-.61a1.25,1.25,0,0,0,.92-.35,1.44,1.44,0,0,0,.36-1.07v-.64a1.44,1.44,0,0,0-.36-1.07,1.41,1.41,0,0,0-1.84,0,1.44,1.44,0,0,0-.36,1.07v.64a1.44,1.44,0,0,0,.36,1.07A1.25,1.25,0,0,0,117.68,49.31Z"/>
    <path d="M120.86,49.82v-4.5h.7V46h0l.18-.32a1,1,0,0,1,.25-.26.88.88,0,0,1,.33-.18,1.56,1.56,0,0,1,.46-.06,1.67,1.67,0,0,1,.82.21,1.25,1.25,0,0,1,.55.69h0a1.39,1.39,0,0,1,.46-.63,1.41,1.41,0,0,1,.91-.27,1.35,1.35,0,0,1,1.08.45,1.85,1.85,0,0,1,.39,1.26v2.89h-.7V47.05a1.47,1.47,0,0,0-.24-.91.88.88,0,0,0-.75-.3,1.23,1.23,0,0,0-.39,0,1.17,1.17,0,0,0-.34.15.78.78,0,0,0-.24.27.92.92,0,0,0-.08.38v3.13h-.7V47.05a1.47,1.47,0,0,0-.24-.91.86.86,0,0,0-.73-.3,1.33,1.33,0,0,0-.4,0,1.17,1.17,0,0,0-.34.15.78.78,0,0,0-.24.27.79.79,0,0,0-.09.38v3.13Z"/>
    <path d="M131.74,49.82a.68.68,0,0,1-.56-.21,1.06,1.06,0,0,1-.21-.52h-.05a1.16,1.16,0,0,1-.49.63,1.57,1.57,0,0,1-.81.2,1.61,1.61,0,0,1-1.11-.36,1.32,1.32,0,0,1-.39-1,1.12,1.12,0,0,1,.46-1,2.46,2.46,0,0,1,1.45-.34h.89V46.8a1,1,0,0,0-.26-.73,1.1,1.1,0,0,0-.8-.25,1.27,1.27,0,0,0-.69.18,1.52,1.52,0,0,0-.45.49l-.42-.39a1.65,1.65,0,0,1,.58-.63,2.21,2.21,0,0,1,2.29.15,1.39,1.39,0,0,1,.45,1.11V49.2h.51v.62Zm-2-.49a1.86,1.86,0,0,0,.48-.06,1.26,1.26,0,0,0,.37-.17.91.91,0,0,0,.25-.27.66.66,0,0,0,.08-.32v-.74H130a1.8,1.8,0,0,0-.88.17.58.58,0,0,0-.27.51v.18a.61.61,0,0,0,.24.52A1,1,0,0,0,129.74,49.33Z"/>
    <path d="M133.87,49.82a.69.69,0,0,1-.55-.21.69.69,0,0,1-.19-.51V43.37h.7V49.2h.66v.62Z"/>
    <path d="M135.85,44.27a.45.45,0,0,1-.33-.11.46.46,0,0,1-.1-.29v-.11a.43.43,0,1,1,.86,0v.11a.46.46,0,0,1-.1.29A.45.45,0,0,1,135.85,44.27Zm-.35,1h.7v4.5h-.7Z"/>
    <path d="M141,49.82a.68.68,0,0,1-.56-.21,1,1,0,0,1-.22-.52h0a1.16,1.16,0,0,1-.49.63,1.83,1.83,0,0,1-1.92-.16,1.32,1.32,0,0,1-.4-1,1.13,1.13,0,0,1,.47-1,2.44,2.44,0,0,1,1.45-.34h.89V46.8a1,1,0,0,0-.26-.73,1.11,1.11,0,0,0-.8-.25,1.24,1.24,0,0,0-.69.18,1.67,1.67,0,0,0-.46.49l-.41-.39a1.58,1.58,0,0,1,.58-.63,1.85,1.85,0,0,1,1-.25,1.83,1.83,0,0,1,1.27.4,1.36,1.36,0,0,1,.46,1.11V49.2h.51v.62Zm-2-.49a1.75,1.75,0,0,0,.48-.06,1.33,1.33,0,0,0,.38-.17.87.87,0,0,0,.24-.27.57.57,0,0,0,.09-.32v-.74h-.92a1.74,1.74,0,0,0-.88.17.58.58,0,0,0-.27.51v.18a.58.58,0,0,0,.24.52A1,1,0,0,0,138.94,49.33Z"/>
    <path d="M147.27,49.1h0a1.38,1.38,0,0,1-1.32.82,1.73,1.73,0,0,1-.76-.16,1.65,1.65,0,0,1-.58-.47,2.33,2.33,0,0,1-.37-.74,4.06,4.06,0,0,1,0-2,2.33,2.33,0,0,1,.37-.74,1.65,1.65,0,0,1,.58-.47,1.73,1.73,0,0,1,.76-.16,1.52,1.52,0,0,1,.81.2,1.27,1.27,0,0,1,.51.62h0V43.37h.7v6.45h-.7Zm-1.16.21a1.63,1.63,0,0,0,.45-.07,1.06,1.06,0,0,0,.37-.18.75.75,0,0,0,.25-.28.86.86,0,0,0,.09-.39V46.7a.67.67,0,0,0-.09-.34.83.83,0,0,0-.25-.28,1.06,1.06,0,0,0-.37-.18,1.63,1.63,0,0,0-.45-.06,1.2,1.2,0,0,0-.93.37,1.38,1.38,0,0,0-.34,1V48a1.35,1.35,0,0,0,.34,1A1.21,1.21,0,0,0,146.11,49.31Z"/>
    <path d="M151.14,49.92a2,2,0,0,1-.83-.16,1.77,1.77,0,0,1-.64-.48,2.29,2.29,0,0,1-.41-.74,3.24,3.24,0,0,1-.14-1,3.29,3.29,0,0,1,.14-1,2.29,2.29,0,0,1,.41-.74,1.77,1.77,0,0,1,.64-.48,2,2,0,0,1,.83-.16,1.92,1.92,0,0,1,.81.16,1.73,1.73,0,0,1,.61.46,1.94,1.94,0,0,1,.39.69,2.71,2.71,0,0,1,.14.88v.33h-3.24v.2a1.53,1.53,0,0,0,.09.54,1.24,1.24,0,0,0,.26.43,1.37,1.37,0,0,0,.42.29,1.48,1.48,0,0,0,.57.11,1.39,1.39,0,0,0,.74-.2,1.33,1.33,0,0,0,.49-.58l.5.36a1.69,1.69,0,0,1-.68.75A2,2,0,0,1,151.14,49.92Zm0-4.12a1.27,1.27,0,0,0-.52.1,1.3,1.3,0,0,0-.41.28,1.34,1.34,0,0,0-.26.43,1.4,1.4,0,0,0-.1.54v.06h2.49v-.09a1.37,1.37,0,0,0-.33-1A1.12,1.12,0,0,0,151.14,45.8Z"/>
    <path d="M156.36,49.82V43.73h2.43a1.66,1.66,0,0,1,1.26.47,2.08,2.08,0,0,1,0,2.56,1.65,1.65,0,0,1-1.26.46H157.1v2.6Zm.74-3.24h1.69a.94.94,0,0,0,.67-.23.85.85,0,0,0,.24-.65v-.45a.83.83,0,0,0-.24-.64.9.9,0,0,0-.67-.23H157.1Z"/>
    <path d="M163.36,49.92a2.62,2.62,0,0,1-1.27-.28,2.76,2.76,0,0,1-.89-.78l.54-.45a2.56,2.56,0,0,0,.72.65,1.92,1.92,0,0,0,.92.22,1.48,1.48,0,0,0,1-.31,1.09,1.09,0,0,0,.35-.84.83.83,0,0,0-.27-.67,2,2,0,0,0-.86-.38l-.5-.11a2.89,2.89,0,0,1-1.27-.58,1.36,1.36,0,0,1-.44-1.1,1.8,1.8,0,0,1,.14-.71,1.42,1.42,0,0,1,.42-.52,1.83,1.83,0,0,1,.64-.32,2.88,2.88,0,0,1,.81-.11,2.54,2.54,0,0,1,1.18.25,2.26,2.26,0,0,1,.83.74l-.54.4a2,2,0,0,0-.61-.54,1.75,1.75,0,0,0-.89-.2,1.55,1.55,0,0,0-.92.24.87.87,0,0,0-.34.75.79.79,0,0,0,.28.66,2.42,2.42,0,0,0,.86.35l.5.11a2.67,2.67,0,0,1,1.3.61,1.5,1.5,0,0,1,.4,1.09,2,2,0,0,1-.14.76,1.63,1.63,0,0,1-.42.58,1.9,1.9,0,0,1-.66.36A2.65,2.65,0,0,1,163.36,49.92Z"/>
    <path d="M166.43,49.82v-.61h.85V44.34h-.85v-.61h2.44v.61H168v4.87h.86v.61Z"/>
    <path d="M172.17,47.1a6,6,0,0,1,.12-1.21,7,7,0,0,1,.34-1.09,5,5,0,0,1,.5-.91,4.24,4.24,0,0,1,.62-.7h.66a4.79,4.79,0,0,0-.66.75,5.59,5.59,0,0,0-.81,1.85,3.94,3.94,0,0,0-.11.94v.75a3.91,3.91,0,0,0,.11,1,4.71,4.71,0,0,0,.32,1,5.51,5.51,0,0,0,.5.89,3.85,3.85,0,0,0,.65.73h-.66a3.13,3.13,0,0,1-.61-.68,4.65,4.65,0,0,1-.5-.91,5.9,5.9,0,0,1-.34-1.1A5.43,5.43,0,0,1,172.17,47.1Z"/>
    <path d="M175.14,49.82v-.65h1.7V44.28h-.07l-1.53,1.42-.43-.46,1.62-1.51h1.14v5.44h1.57v.65Z"/>
    <path d="M182.21,49.92a1.73,1.73,0,0,1-1.59-.82,4.57,4.57,0,0,1-.5-2.32,4.52,4.52,0,0,1,.5-2.32,1.95,1.95,0,0,1,3.19,0,4.52,4.52,0,0,1,.5,2.32,4.57,4.57,0,0,1-.5,2.32A1.74,1.74,0,0,1,182.21,49.92Zm0-.64a1.21,1.21,0,0,0,.62-.15,1.27,1.27,0,0,0,.41-.42,2.23,2.23,0,0,0,.23-.63,4,4,0,0,0,.07-.81v-1a4.14,4.14,0,0,0-.07-.81,2.23,2.23,0,0,0-.23-.63,1.27,1.27,0,0,0-.41-.42,1.21,1.21,0,0,0-.62-.14,1.2,1.2,0,0,0-.61.14,1.16,1.16,0,0,0-.4.42,2,2,0,0,0-.24.63,5.09,5.09,0,0,0-.07.81v1a4.89,4.89,0,0,0,.07.81,2,2,0,0,0,.24.63,1.16,1.16,0,0,0,.4.42A1.2,1.2,0,0,0,182.21,49.28Z"/>
    <path d="M186.41,47a1.22,1.22,0,0,1-.91-.33,1.3,1.3,0,0,1-.32-.92,2.08,2.08,0,0,1,.11-.66,2.73,2.73,0,0,1,.3-.56,3,3,0,0,1,.41-.46,2.26,2.26,0,0,1,.44-.34h.73q-.31.21-.54.39a2.49,2.49,0,0,0-.41.37,2.26,2.26,0,0,0-.3.41,2.17,2.17,0,0,0-.17.47h0a1.3,1.3,0,0,1,.3-.32.89.89,0,0,1,.52-.14,1.05,1.05,0,0,1,.74.27.91.91,0,0,1,.3.72,1,1,0,0,1-.34.79A1.28,1.28,0,0,1,186.41,47Zm0-.42a.72.72,0,0,0,.48-.14.56.56,0,0,0,.18-.46v0a.55.55,0,0,0-.18-.45.73.73,0,0,0-.48-.15.75.75,0,0,0-.49.15.58.58,0,0,0-.17.45v0a.59.59,0,0,0,.17.46A.75.75,0,0,0,186.41,46.58Z"/>
    <path d="M188.7,49.82v-4.5h.7V46h0l.18-.32a1,1,0,0,1,.25-.26,1,1,0,0,1,.33-.18,1.56,1.56,0,0,1,.46-.06,1.67,1.67,0,0,1,.82.21,1.25,1.25,0,0,1,.55.69h0a1.39,1.39,0,0,1,.46-.63,1.41,1.41,0,0,1,.91-.27,1.35,1.35,0,0,1,1.08.45,1.85,1.85,0,0,1,.39,1.26v2.89h-.7V47.05a1.47,1.47,0,0,0-.24-.91.88.88,0,0,0-.75-.3,1.23,1.23,0,0,0-.39,0,1.17,1.17,0,0,0-.34.15.78.78,0,0,0-.24.27.92.92,0,0,0-.08.38v3.13h-.7V47.05a1.47,1.47,0,0,0-.24-.91.86.86,0,0,0-.73-.3,1.33,1.33,0,0,0-.4,0,1.17,1.17,0,0,0-.34.15.78.78,0,0,0-.24.27.79.79,0,0,0-.09.38v3.13Z"/>
    <path d="M198.28,47h-2.37v-.5l1.14-.91a2.14,2.14,0,0,0,.39-.42.71.71,0,0,0,.15-.44v0a.46.46,0,0,0-.15-.36.57.57,0,0,0-.42-.13.63.63,0,0,0-.46.14,1,1,0,0,0-.22.36l-.47-.17a1,1,0,0,1,.14-.3.94.94,0,0,1,.24-.25,1.08,1.08,0,0,1,.34-.17,1.35,1.35,0,0,1,.46-.07,1.15,1.15,0,0,1,.83.27.88.88,0,0,1,.29.68,1,1,0,0,1-.23.67,3,3,0,0,1-.6.56l-.84.66h1.78Z"/>
    <path d="M204.68,49.92a2.09,2.09,0,0,1-1.05-.24,2.33,2.33,0,0,1-.73-.64l.5-.4a2,2,0,0,0,.58.51,1.54,1.54,0,0,0,.75.18,1.12,1.12,0,0,0,.7-.19.7.7,0,0,0,.08-1,1.12,1.12,0,0,0-.62-.26l-.36,0a3,3,0,0,1-.57-.13,1.82,1.82,0,0,1-.46-.25,1.15,1.15,0,0,1-.31-.38,1.27,1.27,0,0,1-.1-.54,1.34,1.34,0,0,1,.12-.58,1.2,1.2,0,0,1,.33-.41,1.52,1.52,0,0,1,.51-.25,2.2,2.2,0,0,1,.64-.08,2,2,0,0,1,.92.19,2.05,2.05,0,0,1,.65.53l-.46.42a1.39,1.39,0,0,0-.44-.38,1.42,1.42,0,0,0-.72-.17A1,1,0,0,0,204,46a.61.61,0,0,0-.22.51A.53.53,0,0,0,204,47a1.71,1.71,0,0,0,.64.21l.35.06a1.84,1.84,0,0,1,1.06.43,1.13,1.13,0,0,1,.32.83,1.26,1.26,0,0,1-.45,1A1.82,1.82,0,0,1,204.68,49.92Z"/>
    <path d="M207.35,46v-.75h2.28V46Z"/>
    <path d="M210.71,47v-.43h.95V44.18h-.06l-.78.77-.31-.32.88-.9h.82v2.79h.85V47Z"/>
    <path d="M215.55,47.1a6.08,6.08,0,0,1-.12,1.22,6.75,6.75,0,0,1-.34,1.1,5.23,5.23,0,0,1-.5.91A3.75,3.75,0,0,1,214,51h-.67a3.53,3.53,0,0,0,.65-.73,4.84,4.84,0,0,0,.5-.89,5.44,5.44,0,0,0,.33-1,4.47,4.47,0,0,0,.11-1v-.75a4.53,4.53,0,0,0-.11-.94,7.2,7.2,0,0,0-.32-1,5.2,5.2,0,0,0-.5-.89,3.94,3.94,0,0,0-.66-.75H214a4.2,4.2,0,0,1,.61.7,5,5,0,0,1,.51.91,6,6,0,0,1,.45,2.3Z"/>
  </g>
  <g>
    <g>
      <path d="M166,23.58h5.47a2,2,0,0,0,2.11-2V10.68a2,2,0,0,0-2.11-2H166a2,2,0,0,0-2.11,2V21.61A2,2,0,0,0,166,23.58Z" style="fill: #fff"/>
      <path d="M171.45,23.83H166a2.29,2.29,0,0,1-2.36-2.22V10.68A2.3,2.3,0,0,1,166,8.46h5.47a2.3,2.3,0,0,1,2.36,2.22V21.61A2.29,2.29,0,0,1,171.45,23.83ZM166,9a1.81,1.81,0,0,0-1.86,1.72V21.61A1.8,1.8,0,0,0,166,23.33h5.47a1.8,1.8,0,0,0,1.86-1.72V10.68A1.81,1.81,0,0,0,171.45,9Z" style="fill: #939393"/>
    </g>
    <path d="M46.38,23.58h5.46a2,2,0,0,0,2.11-2V10.68a2,2,0,0,0-2.11-2H46.38a2,2,0,0,0-2.11,2V21.61A2,2,0,0,0,46.38,23.58Z" style="fill: #eb2b20"/>
    <path d="M29.29,23.58h5.47a2,2,0,0,0,2.11-2V10.68a2,2,0,0,0-2.11-2H29.29a2,2,0,0,0-2.11,2V21.61A2,2,0,0,0,29.29,23.58Z" style="fill: #d6111f"/>
    <path d="M12.2,23.58h5.47a2,2,0,0,0,2.11-2V10.68a2,2,0,0,0-2.11-2H12.2a2,2,0,0,0-2.11,2V21.61A2,2,0,0,0,12.2,23.58Z" style="fill: #bd0026"/>
    <path d="M268.58,23.58h5.47a2,2,0,0,0,2.11-2V10.68a2,2,0,0,0-2.11-2h-5.47a2,2,0,0,0-2.11,2V21.61A2.05,2.05,0,0,0,268.58,23.58Z" style="fill: #0868ac"/>
    <path d="M285.66,23.58h5.47a2,2,0,0,0,2.11-2V10.68a2,2,0,0,0-2.11-2h-5.47a2,2,0,0,0-2.11,2V21.61A2,2,0,0,0,285.66,23.58Z" style="fill: #001476"/>
    <path d="M302.79,23.58h5.46a2,2,0,0,0,2.11-2V10.68a2,2,0,0,0-2.11-2h-5.46a2,2,0,0,0-2.11,2V21.61A2,2,0,0,0,302.79,23.58Z" style="fill: #081d58"/>
    <path d="M251.5,23.58H257a2,2,0,0,0,2.11-2V10.68a2,2,0,0,0-2.11-2H251.5a2,2,0,0,0-2.11,2V21.61A2,2,0,0,0,251.5,23.58Z" style="fill: #2b8cbe"/>
    <path d="M234.41,23.58h5.46a2,2,0,0,0,2.11-2V10.68a2,2,0,0,0-2.11-2h-5.46a2,2,0,0,0-2.11,2V21.61A2,2,0,0,0,234.41,23.58Z" style="fill: #7bccc4"/>
    <path d="M217.33,23.58h5.46a2,2,0,0,0,2.11-2V10.68a2,2,0,0,0-2.11-2h-5.46a2,2,0,0,0-2.11,2V21.61A2,2,0,0,0,217.33,23.58Z" style="fill: #a8ddb5"/>
    <path d="M200.24,23.58h5.47a2,2,0,0,0,2.1-2V10.68a2,2,0,0,0-2.1-2h-5.47a2,2,0,0,0-2.11,2V21.61A2,2,0,0,0,200.24,23.58Z" style="fill: #ccebc5"/>
    <path d="M183.15,23.58h5.47a2,2,0,0,0,2.11-2V10.68a2,2,0,0,0-2.11-2h-5.47a2,2,0,0,0-2.11,2V21.61A2,2,0,0,0,183.15,23.58Z" style="fill: #e0f3db"/>
    <g>
      <path d="M148.89,23.58h5.47a2,2,0,0,0,2.11-2V10.68a2,2,0,0,0-2.11-2h-5.47a2,2,0,0,0-2.11,2V21.61A2.05,2.05,0,0,0,148.89,23.58Z" style="fill: #fff"/>
      <path d="M154.36,23.83h-5.47a2.29,2.29,0,0,1-2.36-2.22V10.68a2.3,2.3,0,0,1,2.36-2.22h5.47a2.3,2.3,0,0,1,2.36,2.22V21.61A2.29,2.29,0,0,1,154.36,23.83ZM148.89,9A1.81,1.81,0,0,0,147,10.68V21.61a1.8,1.8,0,0,0,1.86,1.72h5.47a1.79,1.79,0,0,0,1.86-1.72V10.68A1.8,1.8,0,0,0,154.36,9Z" style="fill: #939393"/>
    </g>
    <path d="M131.81,23.58h5.47a2,2,0,0,0,2.11-2V10.68a2,2,0,0,0-2.11-2h-5.47a2,2,0,0,0-2.11,2V21.61A2,2,0,0,0,131.81,23.58Z" style="fill: #ffc"/>
    <path d="M114.72,23.58h5.47a2,2,0,0,0,2.11-2V10.68a2,2,0,0,0-2.11-2h-5.47a2,2,0,0,0-2.11,2V21.61A2.05,2.05,0,0,0,114.72,23.58Z" style="fill: #ffeda0"/>
    <path d="M97.63,23.58h5.47a2,2,0,0,0,2.11-2V10.68a2,2,0,0,0-2.11-2H97.63a2,2,0,0,0-2.1,2V21.61A2,2,0,0,0,97.63,23.58Z" style="fill: #fed976"/>
    <path d="M80.55,23.58H86a2,2,0,0,0,2.11-2V10.68a2,2,0,0,0-2.11-2H80.55a2,2,0,0,0-2.1,2V21.61A2,2,0,0,0,80.55,23.58Z" style="fill: #feb24c"/>
    <path d="M63.47,23.58h5.46a2,2,0,0,0,2.11-2V10.68a2,2,0,0,0-2.11-2H63.47a2,2,0,0,0-2.11,2V21.61A2,2,0,0,0,63.47,23.58Z" style="fill: #fc4e2a"/>
  </g>
</svg>
