<svg id="Camada_1" data-name="Camada 1" xmlns="http://www.w3.org/2000/svg" viewBox="0 0 320.4 57.45"><defs><style>.cls-1{opacity:0.75;}.cls-2{fill:#fff;}.cls-3{fill:#939393;}.cls-4{fill:#eb2b20;}.cls-5{fill:#d6111f;}.cls-6{fill:#bd0026;}.cls-7{fill:#0868ac;}.cls-8{fill:#001476;}.cls-9{fill:#081d58;}.cls-10{fill:#2b8cbe;}.cls-11{fill:#7bccc4;}.cls-12{fill:#a8ddb5;}.cls-13{fill:#ccebc5;}.cls-14{fill:#e0f3db;}.cls-15{fill:#ffc;}.cls-16{fill:#ffeda0;}.cls-17{fill:#fed976;}.cls-18{fill:#feb24c;}.cls-19{fill:#fc4e2a;}</style></defs><title>LEGENDAS - ESCALA</title><g class="cls-1"><path class="cls-2" d="M0,6.38C0,2.86,3.19,0,7.12,0H313.28c3.94,0,7.12,2.86,7.12,6.38V51.07c0,3.52-3.18,6.38-7.12,6.38H7.12C3.19,57.45,0,54.59,0,51.07Z"/></g><path class="cls-2" d="M154.42,23.58H149a2,2,0,0,1-2.11-2V10.68a2,2,0,0,1,2.11-2h5.46a2,2,0,0,1,2.11,2V21.61A2,2,0,0,1,154.42,23.58Z"/><path class="cls-3" d="M154.42,23.83H149a2.29,2.29,0,0,1-2.36-2.22V10.68A2.29,2.29,0,0,1,149,8.46h5.46a2.3,2.3,0,0,1,2.36,2.22V21.61A2.29,2.29,0,0,1,154.42,23.83ZM149,9a1.8,1.8,0,0,0-1.86,1.72V21.61A1.79,1.79,0,0,0,149,23.33h5.46a1.79,1.79,0,0,0,1.86-1.72V10.68A1.8,1.8,0,0,0,154.42,9Z"/><path class="cls-4" d="M274,23.58h-5.47a2,2,0,0,1-2.11-2V10.68a2,2,0,0,1,2.11-2H274a2,2,0,0,1,2.11,2V21.61A2.05,2.05,0,0,1,274,23.58Z"/><path class="cls-5" d="M291.11,23.58h-5.46a2,2,0,0,1-2.11-2V10.68a2,2,0,0,1,2.11-2h5.46a2,2,0,0,1,2.11,2V21.61A2,2,0,0,1,291.11,23.58Z"/><path class="cls-6" d="M308.2,23.58h-5.46a2,2,0,0,1-2.11-2V10.68a2,2,0,0,1,2.11-2h5.46a2,2,0,0,1,2.11,2V21.61A2,2,0,0,1,308.2,23.58Z"/><path class="cls-7" d="M51.82,23.58H46.35a2,2,0,0,1-2.11-2V10.68a2,2,0,0,1,2.11-2h5.47a2,2,0,0,1,2.11,2V21.61A2,2,0,0,1,51.82,23.58Z"/><path class="cls-8" d="M34.74,23.58H29.28a2,2,0,0,1-2.11-2V10.68a2,2,0,0,1,2.11-2h5.46a2,2,0,0,1,2.11,2V21.61A2,2,0,0,1,34.74,23.58Z"/><path class="cls-9" d="M17.67,23.58H12.2a2,2,0,0,1-2.11-2V10.68a2,2,0,0,1,2.11-2h5.47a2,2,0,0,1,2.11,2V21.61A2,2,0,0,1,17.67,23.58Z"/><path class="cls-10" d="M68.91,23.58H63.44a2,2,0,0,1-2.11-2V10.68a2,2,0,0,1,2.11-2h5.47a2,2,0,0,1,2.11,2V21.61A2.05,2.05,0,0,1,68.91,23.58Z"/><path class="cls-11" d="M86,23.58H80.53a2,2,0,0,1-2.11-2V10.68a2,2,0,0,1,2.11-2H86a2,2,0,0,1,2.11,2V21.61A2.05,2.05,0,0,1,86,23.58Z"/><path class="cls-12" d="M103.08,23.58H97.61a2,2,0,0,1-2.11-2V10.68a2,2,0,0,1,2.11-2h5.47a2,2,0,0,1,2.11,2V21.61A2.05,2.05,0,0,1,103.08,23.58Z"/><path class="cls-13" d="M120.17,23.58H114.7a2,2,0,0,1-2.11-2V10.68a2,2,0,0,1,2.11-2h5.47a2,2,0,0,1,2.1,2V21.61A2,2,0,0,1,120.17,23.58Z"/><path class="cls-14" d="M137.25,23.58h-5.46a2,2,0,0,1-2.11-2V10.68a2,2,0,0,1,2.11-2h5.46a2,2,0,0,1,2.11,2V21.61A2,2,0,0,1,137.25,23.58Z"/><path class="cls-2" d="M171.51,23.58H166a2,2,0,0,1-2.11-2V10.68a2,2,0,0,1,2.11-2h5.47a2,2,0,0,1,2.11,2V21.61A2,2,0,0,1,171.51,23.58Z"/><path class="cls-3" d="M171.51,23.83H166a2.29,2.29,0,0,1-2.36-2.22V10.68A2.3,2.3,0,0,1,166,8.46h5.47a2.3,2.3,0,0,1,2.36,2.22V21.61A2.29,2.29,0,0,1,171.51,23.83ZM166,9a1.81,1.81,0,0,0-1.86,1.72V21.61A1.8,1.8,0,0,0,166,23.33h5.47a1.79,1.79,0,0,0,1.86-1.72V10.68A1.8,1.8,0,0,0,171.51,9Z"/><path class="cls-15" d="M188.59,23.58h-5.47a2,2,0,0,1-2.1-2V10.68a2,2,0,0,1,2.1-2h5.47a2,2,0,0,1,2.11,2V21.61A2,2,0,0,1,188.59,23.58Z"/><path class="cls-16" d="M205.68,23.58h-5.47a2,2,0,0,1-2.11-2V10.68a2,2,0,0,1,2.11-2h5.47a2,2,0,0,1,2.11,2V21.61A2,2,0,0,1,205.68,23.58Z"/><path class="cls-17" d="M222.77,23.58H217.3a2,2,0,0,1-2.11-2V10.68a2,2,0,0,1,2.11-2h5.47a2,2,0,0,1,2.11,2V21.61A2.05,2.05,0,0,1,222.77,23.58Z"/><path class="cls-18" d="M239.85,23.58h-5.47a2,2,0,0,1-2.11-2V10.68a2,2,0,0,1,2.11-2h5.47a2,2,0,0,1,2.11,2V21.61A2,2,0,0,1,239.85,23.58Z"/><path class="cls-19" d="M256.94,23.58h-5.47a2,2,0,0,1-2.11-2V10.68a2,2,0,0,1,2.11-2h5.47a2,2,0,0,1,2.11,2V21.61A2.05,2.05,0,0,1,256.94,23.58Z"/><path d="M53.56,33.79V33H56v.81Z"/><path d="M59.55,36.39a2.25,2.25,0,0,1-.92-.18,2,2,0,0,1-.71-.5,2.25,2.25,0,0,1-.44-.81,3.48,3.48,0,0,1-.15-1.06,4.22,4.22,0,0,1,.22-1.39,5,5,0,0,1,.56-1.19,5.6,5.6,0,0,1,.77-1,4.74,4.74,0,0,1,.82-.67h1c-.35.26-.67.51-.95.76a5.82,5.82,0,0,0-.73.77,4.53,4.53,0,0,0-.53.86,5.08,5.08,0,0,0-.35,1l0,0a2.24,2.24,0,0,1,.62-.68,1.63,1.63,0,0,1,1-.27,2.22,2.22,0,0,1,.79.14,1.86,1.86,0,0,1,.62.41,2,2,0,0,1,.4.65,2.3,2.3,0,0,1,.15.85,2.56,2.56,0,0,1-.16.89,2,2,0,0,1-1.14,1.14A2.46,2.46,0,0,1,59.55,36.39Zm0-.71a1.38,1.38,0,0,0,1-.36,1.35,1.35,0,0,0,.37-1v-.08a1.27,1.27,0,0,0-1.39-1.4,1.41,1.41,0,0,0-1,.36,1.43,1.43,0,0,0-.36,1v.08a1.39,1.39,0,0,0,.36,1A1.41,1.41,0,0,0,59.54,35.68Z"/><path d="M19.3,33.79V33h2.48v.81Z"/><path d="M25.28,36.39a3,3,0,0,1-1-.15,2,2,0,0,1-.71-.41,1.61,1.61,0,0,1-.44-.6,1.94,1.94,0,0,1-.15-.76,1.58,1.58,0,0,1,.37-1.09,2.08,2.08,0,0,1,1-.56v-.07a1.74,1.74,0,0,1-.83-.59,1.52,1.52,0,0,1-.31-1A1.5,1.5,0,0,1,23.73,30a2.4,2.4,0,0,1,1.55-.45,2.39,2.39,0,0,1,1.55.45,1.47,1.47,0,0,1,.55,1.21,1.52,1.52,0,0,1-.31,1,1.69,1.69,0,0,1-.83.59v.07a2.08,2.08,0,0,1,1,.56,1.53,1.53,0,0,1,.37,1.09,1.94,1.94,0,0,1-.15.76,1.7,1.7,0,0,1-.43.6,2.12,2.12,0,0,1-.72.41A3,3,0,0,1,25.28,36.39Zm0-.71a1.68,1.68,0,0,0,1.07-.3,1.06,1.06,0,0,0,.38-.88v-.2a1,1,0,0,0-.38-.87,2,2,0,0,0-2.14,0,1,1,0,0,0-.38.87v.2a1.06,1.06,0,0,0,.38.88A1.68,1.68,0,0,0,25.28,35.68Zm0-3.23a1.44,1.44,0,0,0,.95-.26.94.94,0,0,0,.32-.78v-.14a.94.94,0,0,0-.32-.78,1.49,1.49,0,0,0-.95-.26,1.51,1.51,0,0,0-1,.26,1,1,0,0,0-.32.78v.14a1,1,0,0,0,.32.78A1.45,1.45,0,0,0,25.28,32.45Z"/><path d="M87.63,33.79V33H90.1v.81Z"/><path d="M94.32,36.27V35h-3.2v-.7l2.78-4.63h1.18v4.67h1V35h-1v1.3Zm-2.45-2h2.45V30.26h0Z"/><path d="M121.82,33.79V33h2.47v.81Z"/><path d="M130,36.27h-4.35v-.82l2.17-2a5,5,0,0,0,.78-.91,1.74,1.74,0,0,0,.31-1v-.11a1.32,1.32,0,0,0-.3-.9,1.17,1.17,0,0,0-.92-.34,1.49,1.49,0,0,0-.54.09,1.09,1.09,0,0,0-.39.23,1.45,1.45,0,0,0-.28.36,1.92,1.92,0,0,0-.17.44l-.71-.27a2.72,2.72,0,0,1,.26-.58,2,2,0,0,1,.42-.5,1.84,1.84,0,0,1,.6-.34,2.78,2.78,0,0,1,1.71,0,1.83,1.83,0,0,1,.64.4,1.68,1.68,0,0,1,.39.61,2.11,2.11,0,0,1,.14.77,2.36,2.36,0,0,1-.11.72,2.88,2.88,0,0,1-.3.64,4,4,0,0,1-.46.58c-.18.19-.38.38-.59.57l-1.78,1.61H130Z"/><path d="M160.2,36.39a1.88,1.88,0,0,1-1.73-.91,4.81,4.81,0,0,1-.55-2.52,4.82,4.82,0,0,1,.55-2.53,1.87,1.87,0,0,1,1.73-.9,1.9,1.9,0,0,1,1.74.9,4.93,4.93,0,0,1,.54,2.53,4.91,4.91,0,0,1-.54,2.52A1.9,1.9,0,0,1,160.2,36.39Zm0-.71a1.3,1.3,0,0,0,.67-.16,1.27,1.27,0,0,0,.44-.45,2.1,2.1,0,0,0,.25-.69,4,4,0,0,0,.09-.88V32.42a3.91,3.91,0,0,0-.09-.88,2.07,2.07,0,0,0-.25-.7,1.27,1.27,0,0,0-.44-.45,1.3,1.3,0,0,0-.67-.16,1.24,1.24,0,0,0-.66.16,1.21,1.21,0,0,0-.45.45,2.31,2.31,0,0,0-.25.7,3.94,3.94,0,0,0-.08.88V33.5a4.06,4.06,0,0,0,.08.88,2.35,2.35,0,0,0,.25.69,1.21,1.21,0,0,0,.45.45A1.24,1.24,0,0,0,160.2,35.68Z"/><path d="M196.63,36.27h-4.35v-.82l2.17-2a5,5,0,0,0,.78-.91,1.74,1.74,0,0,0,.31-1v-.11a1.32,1.32,0,0,0-.3-.9,1.17,1.17,0,0,0-.92-.34,1.49,1.49,0,0,0-.54.09,1.09,1.09,0,0,0-.39.23,1.45,1.45,0,0,0-.28.36,1.92,1.92,0,0,0-.17.44l-.71-.27a2.72,2.72,0,0,1,.26-.58,2,2,0,0,1,.42-.5,1.84,1.84,0,0,1,.6-.34,2.78,2.78,0,0,1,1.71,0,1.7,1.7,0,0,1,.63.4,1.58,1.58,0,0,1,.4.61,2.11,2.11,0,0,1,.14.77,2.36,2.36,0,0,1-.11.72,3.41,3.41,0,0,1-.3.64,4,4,0,0,1-.46.58c-.18.19-.38.38-.59.57l-1.78,1.61h3.48Z"/><path d="M229.35,36.27V35h-3.2v-.7l2.77-4.63h1.19v4.67h1V35h-1v1.3Zm-2.45-2h2.45V30.26h0Z"/><path d="M262.78,36.39a2.25,2.25,0,0,1-.92-.18,1.87,1.87,0,0,1-.7-.5,2.27,2.27,0,0,1-.45-.81,3.48,3.48,0,0,1-.15-1.06,4.22,4.22,0,0,1,.22-1.39,5,5,0,0,1,.57-1.19,5.56,5.56,0,0,1,.76-1,4.74,4.74,0,0,1,.82-.67h1c-.35.26-.67.51-.95.76a5.82,5.82,0,0,0-.73.77,4.64,4.64,0,0,0-.88,1.9l.05,0a2.09,2.09,0,0,1,.61-.68,1.65,1.65,0,0,1,1-.27,2.22,2.22,0,0,1,.79.14,1.77,1.77,0,0,1,.62.41,2,2,0,0,1,.4.65,2.3,2.3,0,0,1,.15.85,2.35,2.35,0,0,1-.16.89,1.93,1.93,0,0,1-1.14,1.14A2.46,2.46,0,0,1,262.78,36.39Zm0-.71a1.41,1.41,0,0,0,1-.36,1.39,1.39,0,0,0,.36-1v-.08a1.43,1.43,0,0,0-.36-1,1.64,1.64,0,0,0-2.05,0,1.43,1.43,0,0,0-.36,1v.08a1.39,1.39,0,0,0,.36,1A1.42,1.42,0,0,0,262.78,35.68Z"/><path d="M297,36.39a3,3,0,0,1-1-.15,1.94,1.94,0,0,1-.72-.41,1.61,1.61,0,0,1-.44-.6,1.94,1.94,0,0,1-.15-.76,1.58,1.58,0,0,1,.37-1.09,2.08,2.08,0,0,1,1-.56v-.07a1.74,1.74,0,0,1-.83-.59,1.58,1.58,0,0,1-.31-1A1.5,1.5,0,0,1,295.4,30a2.89,2.89,0,0,1,3.1,0,1.47,1.47,0,0,1,.55,1.21,1.52,1.52,0,0,1-.31,1,1.69,1.69,0,0,1-.83.59v.07a2.08,2.08,0,0,1,1,.56,1.53,1.53,0,0,1,.37,1.09,1.94,1.94,0,0,1-.15.76,1.58,1.58,0,0,1-.43.6,2,2,0,0,1-.72.41A3,3,0,0,1,297,36.39Zm0-.71a1.71,1.71,0,0,0,1.08-.3,1.09,1.09,0,0,0,.38-.88v-.2a1.05,1.05,0,0,0-.38-.87,1.65,1.65,0,0,0-1.08-.31,1.63,1.63,0,0,0-1.07.31,1.05,1.05,0,0,0-.38.87v.2a1.09,1.09,0,0,0,.38.88A1.68,1.68,0,0,0,297,35.68Zm0-3.23a1.44,1.44,0,0,0,.95-.26,1,1,0,0,0,.33-.78v-.14a1,1,0,0,0-.33-.78,1.49,1.49,0,0,0-.95-.26,1.51,1.51,0,0,0-.95.26,1,1,0,0,0-.32.78v.14a1,1,0,0,0,.32.78A1.45,1.45,0,0,0,297,32.45Z"/><path d="M114,44.43v5.93h-.8V44.43h-2.11v-.71h5v.71Z"/><path d="M118.35,50.47a2.21,2.21,0,0,1-.91-.18,1.86,1.86,0,0,1-.69-.52,2.13,2.13,0,0,1-.45-.81,3.42,3.42,0,0,1-.16-1.06,3.5,3.5,0,0,1,.16-1,2.13,2.13,0,0,1,.45-.81,1.86,1.86,0,0,1,.69-.52,2.21,2.21,0,0,1,.91-.18,2,2,0,0,1,1.55.68,2.28,2.28,0,0,1,.42.75,2.93,2.93,0,0,1,.15,1v.35h-3.53v.23a1.87,1.87,0,0,0,.1.59,1.42,1.42,0,0,0,.29.47,1.21,1.21,0,0,0,.45.31,1.72,1.72,0,0,0,1.43-.1,1.43,1.43,0,0,0,.53-.63l.55.39a1.91,1.91,0,0,1-.75.82A2.18,2.18,0,0,1,118.35,50.47Zm0-4.49a1.48,1.48,0,0,0-.57.1,1.4,1.4,0,0,0-.44.31,1.33,1.33,0,0,0-.29.47,1.63,1.63,0,0,0-.11.59v.07h2.71v-.11a1.48,1.48,0,0,0-.36-1A1.2,1.2,0,0,0,118.35,46Z"/><path d="M121.72,50.36V45.45h.76v.79h0a2.37,2.37,0,0,1,.19-.35,1.24,1.24,0,0,1,.27-.29,1.23,1.23,0,0,1,.36-.19,1.51,1.51,0,0,1,.5-.07,1.82,1.82,0,0,1,.89.23,1.39,1.39,0,0,1,.61.76h0a1.4,1.4,0,0,1,.5-.69,1.5,1.5,0,0,1,1-.3,1.45,1.45,0,0,1,1.17.49,2,2,0,0,1,.43,1.38v3.15h-.76v-3a1.6,1.6,0,0,0-.26-1,1,1,0,0,0-.82-.34,1.54,1.54,0,0,0-.43.06,1.4,1.4,0,0,0-.37.17,1,1,0,0,0-.25.29.82.82,0,0,0-.1.42v3.41h-.76v-3a1.61,1.61,0,0,0-.25-1,.93.93,0,0,0-.8-.34,1.61,1.61,0,0,0-.44.06,1.4,1.4,0,0,0-.37.17,1,1,0,0,0-.26.29.82.82,0,0,0-.1.42v3.41Z"/><path d="M130,45.45h.76v.79h0a1.41,1.41,0,0,1,.56-.68,1.62,1.62,0,0,1,.88-.22,1.83,1.83,0,0,1,.82.18,1.73,1.73,0,0,1,.63.51,2.2,2.2,0,0,1,.4.81,4.12,4.12,0,0,1,0,2.13,2.36,2.36,0,0,1-.4.81,1.73,1.73,0,0,1-.63.51,1.83,1.83,0,0,1-.82.18,1.49,1.49,0,0,1-1.44-.9h0v2.69H130Zm2,4.34a1.28,1.28,0,0,0,1-.4,1.51,1.51,0,0,0,.37-1.06v-.85a1.49,1.49,0,0,0-.37-1.06,1.29,1.29,0,0,0-1-.41,1.57,1.57,0,0,0-.49.08,1.29,1.29,0,0,0-.41.19,1,1,0,0,0-.27.3.86.86,0,0,0-.1.38v1.83a.88.88,0,0,0,.37.74,1.31,1.31,0,0,0,.41.2A1.93,1.93,0,0,0,132,49.79Z"/><path d="M137.37,50.47a2.21,2.21,0,0,1-.91-.18,1.86,1.86,0,0,1-.69-.52,2.13,2.13,0,0,1-.45-.81,3.15,3.15,0,0,1-.16-1.06,3.21,3.21,0,0,1,.16-1,2.13,2.13,0,0,1,.45-.81,1.86,1.86,0,0,1,.69-.52,2.21,2.21,0,0,1,.91-.18,2.1,2.1,0,0,1,.88.18,1.93,1.93,0,0,1,.66.5,2.13,2.13,0,0,1,.43.75,2.93,2.93,0,0,1,.14,1v.35H136v.23a1.63,1.63,0,0,0,.1.59,1.42,1.42,0,0,0,.29.47,1.21,1.21,0,0,0,.45.31,1.51,1.51,0,0,0,.61.11,1.59,1.59,0,0,0,.82-.21,1.43,1.43,0,0,0,.53-.63l.54.39a1.82,1.82,0,0,1-.74.82A2.18,2.18,0,0,1,137.37,50.47Zm0-4.49a1.48,1.48,0,0,0-.57.1,1.57,1.57,0,0,0-.45.31,1.31,1.31,0,0,0-.28.47,1.44,1.44,0,0,0-.11.59v.07h2.71v-.11a1.48,1.48,0,0,0-.36-1A1.21,1.21,0,0,0,137.37,46Z"/><path d="M140.74,50.36V45.45h.76v.91h.05a1.35,1.35,0,0,1,.47-.63,1.48,1.48,0,0,1,.94-.28h.3v.76h-.45a1.66,1.66,0,0,0-1,.24.66.66,0,0,0-.35.58v3.33Z"/><path d="M147.75,50.36a.74.74,0,0,1-.61-.23,1.14,1.14,0,0,1-.24-.57h0a1.28,1.28,0,0,1-.54.68,1.65,1.65,0,0,1-.88.23,1.7,1.7,0,0,1-1.21-.4A1.4,1.4,0,0,1,143.8,49a1.25,1.25,0,0,1,.51-1.07,2.72,2.72,0,0,1,1.58-.37h1v-.48a1.06,1.06,0,0,0-.29-.8,1.23,1.23,0,0,0-.87-.28,1.35,1.35,0,0,0-.75.2,1.74,1.74,0,0,0-.5.54L144,46.3a1.7,1.7,0,0,1,.63-.68,2,2,0,0,1,1.1-.28,2,2,0,0,1,1.39.44,1.52,1.52,0,0,1,.5,1.21v2.69h.56v.68Zm-2.19-.54a2.2,2.2,0,0,0,.53-.06,1.72,1.72,0,0,0,.41-.19.89.89,0,0,0,.26-.29.71.71,0,0,0,.1-.35v-.81h-1a1.92,1.92,0,0,0-1,.19.61.61,0,0,0-.29.55v.2a.65.65,0,0,0,.26.56A1.08,1.08,0,0,0,145.56,49.82Z"/><path d="M150.34,50.36a.78.78,0,0,1-.6-.23.81.81,0,0,1-.21-.58V46.13h-.8v-.68h.45a.43.43,0,0,0,.34-.1.5.5,0,0,0,.09-.34v-.92h.68v1.36h1.08v.68h-1.08v3.55h1v.68Z"/><path d="M155.61,49.57h0a2.79,2.79,0,0,1-.19.33,1.06,1.06,0,0,1-.27.29,1.2,1.2,0,0,1-.39.2,1.69,1.69,0,0,1-.53.08A1.55,1.55,0,0,1,153,50a2,2,0,0,1-.44-1.38V45.45h.76v3c0,.88.37,1.32,1.12,1.32a1.61,1.61,0,0,0,.44,0,1.46,1.46,0,0,0,.38-.17,1.06,1.06,0,0,0,.27-.29.94.94,0,0,0,.09-.43v-3.4h.76v4.91h-.76Z"/><path d="M158,50.36V45.45h.76v.91h.05a1.42,1.42,0,0,1,.47-.63,1.48,1.48,0,0,1,.94-.28h.3v.76h-.45a1.66,1.66,0,0,0-1,.24.68.68,0,0,0-.35.58v3.33Z"/><path d="M165,50.36a.75.75,0,0,1-.61-.23,1.14,1.14,0,0,1-.24-.57h0a1.31,1.31,0,0,1-.53.68,1.95,1.95,0,0,1-2.1-.17,1.4,1.4,0,0,1-.43-1.08,1.25,1.25,0,0,1,.51-1.07,2.74,2.74,0,0,1,1.58-.37h1v-.48a1.06,1.06,0,0,0-.29-.8A1.23,1.23,0,0,0,163,46a1.35,1.35,0,0,0-.75.2,1.74,1.74,0,0,0-.5.54l-.45-.43a1.7,1.7,0,0,1,.63-.68,2.36,2.36,0,0,1,2.49.16,1.52,1.52,0,0,1,.5,1.21v2.69h.56v.68Zm-2.18-.54a2.12,2.12,0,0,0,.52-.06,1.55,1.55,0,0,0,.41-.19.89.89,0,0,0,.26-.29.62.62,0,0,0,.1-.35v-.81h-1a1.88,1.88,0,0,0-.95.19.62.62,0,0,0-.3.55v.2a.65.65,0,0,0,.26.56A1.09,1.09,0,0,0,162.82,49.82Z"/><path d="M171.89,49.57h0a1.5,1.5,0,0,1-1.43.9,1.87,1.87,0,0,1-.83-.18,1.73,1.73,0,0,1-.63-.51,2.36,2.36,0,0,1-.4-.81,4.12,4.12,0,0,1,0-2.13A2.2,2.2,0,0,1,169,46a1.73,1.73,0,0,1,.63-.51,1.87,1.87,0,0,1,.83-.18,1.61,1.61,0,0,1,.87.22,1.41,1.41,0,0,1,.56.68h0V43.33h.76v7h-.76Zm-1.27.22a1.88,1.88,0,0,0,.49-.06,1.31,1.31,0,0,0,.41-.2.88.88,0,0,0,.37-.74V47a.86.86,0,0,0-.1-.38,1,1,0,0,0-.27-.3,1.29,1.29,0,0,0-.41-.19,1.53,1.53,0,0,0-.49-.08,1.3,1.3,0,0,0-1,.41,1.49,1.49,0,0,0-.37,1.06v.85a1.51,1.51,0,0,0,.37,1.06A1.3,1.3,0,0,0,170.62,49.79Z"/><path d="M176.11,50.47a2.23,2.23,0,0,1-.9-.18,2,2,0,0,1-.7-.52,2.43,2.43,0,0,1-.45-.81,3.15,3.15,0,0,1-.16-1.06,3.21,3.21,0,0,1,.16-1,2.43,2.43,0,0,1,.45-.81,2,2,0,0,1,.7-.52,2.23,2.23,0,0,1,.9-.18,2.19,2.19,0,0,1,.9.18,2,2,0,0,1,.7.52,2.29,2.29,0,0,1,.46.81,3.21,3.21,0,0,1,.16,1,3.15,3.15,0,0,1-.16,1.06,2.29,2.29,0,0,1-.46.81,2,2,0,0,1-.7.52A2.19,2.19,0,0,1,176.11,50.47Zm0-.68a1.35,1.35,0,0,0,1-.38,1.52,1.52,0,0,0,.39-1.15v-.71a1.56,1.56,0,0,0-.39-1.16,1.52,1.52,0,0,0-2,0,1.56,1.56,0,0,0-.39,1.16v.71a1.52,1.52,0,0,0,.39,1.15A1.34,1.34,0,0,0,176.11,49.79Z"/><path d="M186.05,50.36l-.66-2h-2.68l-.67,2h-.81l2.32-6.64h1l2.32,6.64Zm-2-5.89h0L182.9,47.7h2.29Z"/><path d="M187.91,50.36V45.45h.76v.91h.05a1.44,1.44,0,0,1,.48-.63,1.46,1.46,0,0,1,.94-.28h.29v.76H190a1.66,1.66,0,0,0-1,.24.68.68,0,0,0-.35.58v3.33Z"/><path d="M195.48,50.47a2.19,2.19,0,0,1-.9-.18,2,2,0,0,1-.7-.52,2.25,2.25,0,0,1-.44-.81,3.15,3.15,0,0,1-.16-1.06,3.21,3.21,0,0,1,.16-1,2.25,2.25,0,0,1,.44-.81,2,2,0,0,1,.7-.52,2.19,2.19,0,0,1,.9-.18,2.11,2.11,0,0,1,.89.18,1.93,1.93,0,0,1,.66.5,2.13,2.13,0,0,1,.43.75,3.22,3.22,0,0,1,.14,1v.35h-3.52v.23a1.63,1.63,0,0,0,.1.59,1.4,1.4,0,0,0,.28.47,1.33,1.33,0,0,0,.46.31,1.48,1.48,0,0,0,.61.11,1.39,1.39,0,0,0,1.35-.84l.54.39a1.88,1.88,0,0,1-.74.82A2.19,2.19,0,0,1,195.48,50.47Zm0-4.49a1.56,1.56,0,0,0-.57.1,1.52,1.52,0,0,0-.44.31,1.49,1.49,0,0,0-.29.47,1.63,1.63,0,0,0-.1.59v.07h2.71v-.11a1.48,1.48,0,0,0-.36-1A1.22,1.22,0,0,0,195.48,46Z"/><path d="M198.86,50.36V45.45h.76v.79h0a4,4,0,0,1,.2-.35,1.06,1.06,0,0,1,.27-.29,1.23,1.23,0,0,1,.36-.19,1.47,1.47,0,0,1,.5-.07,1.82,1.82,0,0,1,.89.23,1.44,1.44,0,0,1,.61.76h0a1.47,1.47,0,0,1,.5-.69,1.55,1.55,0,0,1,1-.3,1.45,1.45,0,0,1,1.17.49,2.07,2.07,0,0,1,.42,1.38v3.15h-.76v-3a1.61,1.61,0,0,0-.25-1,1,1,0,0,0-.82-.34,1.49,1.49,0,0,0-.43.06,1.4,1.4,0,0,0-.37.17,1,1,0,0,0-.26.29.93.93,0,0,0-.09.42v3.41h-.76v-3a1.6,1.6,0,0,0-.26-1,.92.92,0,0,0-.8-.34,1.54,1.54,0,0,0-.43.06,1.4,1.4,0,0,0-.37.17.89.89,0,0,0-.26.29.82.82,0,0,0-.1.42v3.41Z"/><path d="M213.65,50.36H209.3v-.82l2.16-2a4.71,4.71,0,0,0,.78-.91,1.75,1.75,0,0,0,.32-1v-.12a1.3,1.3,0,0,0-.31-.89,1.16,1.16,0,0,0-.92-.35,1.44,1.44,0,0,0-.53.09,1.15,1.15,0,0,0-.4.24,1.31,1.31,0,0,0-.27.35,3.38,3.38,0,0,0-.18.44l-.71-.27a2.72,2.72,0,0,1,.26-.58,2,2,0,0,1,.42-.49,2.12,2.12,0,0,1,.61-.35,2.39,2.39,0,0,1,.84-.13,2.54,2.54,0,0,1,.86.14,1.79,1.79,0,0,1,.64.4,1.77,1.77,0,0,1,.39.61,1.94,1.94,0,0,1,.14.78,2.36,2.36,0,0,1-.11.72,2.6,2.6,0,0,1-.3.63,3.44,3.44,0,0,1-.46.58c-.18.19-.37.38-.58.57l-1.79,1.61h3.49Z"/><path d="M217.33,50.36V45.45h.76v.79h0a2.43,2.43,0,0,1,.2-.35,1.2,1.2,0,0,1,.26-.29,1.38,1.38,0,0,1,.86-.26,1.85,1.85,0,0,1,.9.23,1.38,1.38,0,0,1,.6.76h0a1.47,1.47,0,0,1,.5-.69,1.54,1.54,0,0,1,1-.3,1.47,1.47,0,0,1,1.18.49,2.07,2.07,0,0,1,.42,1.38v3.15h-.76v-3a1.54,1.54,0,0,0-.26-1,.94.94,0,0,0-.81-.34,1.56,1.56,0,0,0-.44.06,1.49,1.49,0,0,0-.36.17,1,1,0,0,0-.26.29.93.93,0,0,0-.09.42v3.41h-.76v-3a1.6,1.6,0,0,0-.26-1,.93.93,0,0,0-.8-.34,1.54,1.54,0,0,0-.43.06,1.26,1.26,0,0,0-.37.17,1.06,1.06,0,0,0-.27.29.93.93,0,0,0-.1.42v3.41Z"/><path d="M227.47,50.47a2.21,2.21,0,0,1-.91-.18,1.86,1.86,0,0,1-.69-.52,2.43,2.43,0,0,1-.45-.81,3.43,3.43,0,0,1-.15-1.06,3.51,3.51,0,0,1,.15-1,2.43,2.43,0,0,1,.45-.81,1.86,1.86,0,0,1,.69-.52,2.21,2.21,0,0,1,.91-.18,2.07,2.07,0,0,1,.88.18,2,2,0,0,1,.67.5,2.28,2.28,0,0,1,.42.75,2.93,2.93,0,0,1,.15,1v.35h-3.53v.23a1.87,1.87,0,0,0,.1.59,1.61,1.61,0,0,0,.29.47,1.21,1.21,0,0,0,.45.31,1.56,1.56,0,0,0,.62.11,1.39,1.39,0,0,0,1.35-.84l.54.39a2,2,0,0,1-.74.82A2.23,2.23,0,0,1,227.47,50.47Zm0-4.49a1.48,1.48,0,0,0-.57.1,1.4,1.4,0,0,0-.44.31,1.49,1.49,0,0,0-.29.47,1.63,1.63,0,0,0-.11.59v.07h2.71v-.11a1.52,1.52,0,0,0-.35-1A1.24,1.24,0,0,0,227.47,46Z"/><path d="M231.93,50.36a.79.79,0,0,1-.61-.23.85.85,0,0,1-.2-.58V46.13h-.81v-.68h.46a.42.42,0,0,0,.33-.1.5.5,0,0,0,.09-.34v-.92h.69v1.36H233v.68h-1.07v3.55h1v.68Z"/><path d="M234.18,50.36V45.45h.76v.91H235a1.35,1.35,0,0,1,.47-.63,1.48,1.48,0,0,1,.94-.28h.3v.76h-.45a1.72,1.72,0,0,0-1,.24.67.67,0,0,0-.34.58v3.33Z"/><path d="M239.47,50.47a2.19,2.19,0,0,1-.9-.18,1.89,1.89,0,0,1-.7-.52,2.43,2.43,0,0,1-.45-.81,3.15,3.15,0,0,1-.16-1.06,3.21,3.21,0,0,1,.16-1,2.43,2.43,0,0,1,.45-.81,1.89,1.89,0,0,1,.7-.52,2.34,2.34,0,0,1,1.8,0,2,2,0,0,1,.7.52,2.43,2.43,0,0,1,.45.81,3.21,3.21,0,0,1,.16,1,3.15,3.15,0,0,1-.16,1.06,2.43,2.43,0,0,1-.45.81,2,2,0,0,1-.7.52A2.19,2.19,0,0,1,239.47,50.47Zm0-.68a1.36,1.36,0,0,0,1-.38,1.52,1.52,0,0,0,.39-1.15v-.71a1.56,1.56,0,0,0-.39-1.16,1.53,1.53,0,0,0-2,0,1.56,1.56,0,0,0-.39,1.16v.71a1.52,1.52,0,0,0,.39,1.15A1.36,1.36,0,0,0,239.47,49.79Z"/><path d="M244.41,50.47a2.29,2.29,0,0,1-1.14-.26,2.68,2.68,0,0,1-.8-.7l.54-.44a2.23,2.23,0,0,0,.64.56,1.66,1.66,0,0,0,.82.19,1.19,1.19,0,0,0,.75-.21.68.68,0,0,0,.27-.58.71.71,0,0,0-.18-.49,1.1,1.1,0,0,0-.67-.28l-.39-.06a2.91,2.91,0,0,1-.63-.15,1.7,1.7,0,0,1-.5-.26,1.23,1.23,0,0,1-.33-.42,1.32,1.32,0,0,1-.12-.59,1.39,1.39,0,0,1,.14-.63,1.22,1.22,0,0,1,.36-.45,1.62,1.62,0,0,1,.56-.27,2.5,2.5,0,0,1,.69-.09,2.15,2.15,0,0,1,1,.21,2.19,2.19,0,0,1,.71.58l-.5.45a1.52,1.52,0,0,0-.48-.41,1.57,1.57,0,0,0-.79-.18,1.06,1.06,0,0,0-.71.2.68.68,0,0,0-.25.56.57.57,0,0,0,.25.52,1.9,1.9,0,0,0,.69.24l.38.05a2.09,2.09,0,0,1,1.16.47,1.24,1.24,0,0,1,.35.91,1.4,1.4,0,0,1-.49,1.12A2,2,0,0,1,244.41,50.47Z"/><path d="M249.79,47.39a6.36,6.36,0,0,1,.13-1.32,6,6,0,0,1,.37-1.18,4.67,4.67,0,0,1,.54-1,3.9,3.9,0,0,1,.68-.76h.72a4.64,4.64,0,0,0-.72.81,6.14,6.14,0,0,0-.54,1,6.47,6.47,0,0,0-.35,1,4.57,4.57,0,0,0-.12,1v.82a4.59,4.59,0,0,0,.12,1,5.66,5.66,0,0,0,.36,1,5.73,5.73,0,0,0,.54,1,4.56,4.56,0,0,0,.71.8h-.72a4,4,0,0,1-.67-.74,5,5,0,0,1-.54-1,6.35,6.35,0,0,1-.37-1.19A5.92,5.92,0,0,1,249.79,47.39Z"/><path d="M254.07,47a1.35,1.35,0,0,1-1.08-.45,2.23,2.23,0,0,1,0-2.52,1.35,1.35,0,0,1,1.08-.45,1.34,1.34,0,0,1,1.08.45,2.23,2.23,0,0,1,0,2.52A1.34,1.34,0,0,1,254.07,47Zm0-.49a.74.74,0,0,0,.62-.26,1,1,0,0,0,.21-.66V45a1,1,0,0,0-.21-.67.74.74,0,0,0-.62-.26.75.75,0,0,0-.62.26,1,1,0,0,0-.2.67v.59a1,1,0,0,0,.2.66A.75.75,0,0,0,254.07,46.54Z"/><path d="M259.18,50.47a2.4,2.4,0,0,1-2-.86,3.91,3.91,0,0,1-.71-2.53,4.07,4.07,0,0,1,.71-2.57,2.35,2.35,0,0,1,2-.9,2.34,2.34,0,0,1,2.28,1.44l-.64.39a2,2,0,0,0-.61-.82,1.83,1.83,0,0,0-1.79-.14,1.42,1.42,0,0,0-.57.46,2.07,2.07,0,0,0-.36.71,3.38,3.38,0,0,0-.12.93v1a2.54,2.54,0,0,0,.47,1.62,1.67,1.67,0,0,0,1.34.58,1.71,1.71,0,0,0,1.07-.33,1.91,1.91,0,0,0,.62-.87l.64.4a2.58,2.58,0,0,1-.9,1.1A2.46,2.46,0,0,1,259.18,50.47Z"/><path d="M264.26,47.39a6.55,6.55,0,0,1-.14,1.34,7.19,7.19,0,0,1-.37,1.19,5.61,5.61,0,0,1-.55,1,4.39,4.39,0,0,1-.66.74h-.72a4.91,4.91,0,0,0,.69-.8,5.16,5.16,0,0,0,.55-1,6.51,6.51,0,0,0,.36-1,4.59,4.59,0,0,0,.12-1V47a4.57,4.57,0,0,0-.12-1,5.63,5.63,0,0,0-.35-1,5.44,5.44,0,0,0-.54-1,5,5,0,0,0-.71-.81h.72a3.87,3.87,0,0,1,.67.76,5.19,5.19,0,0,1,.55,1,6.78,6.78,0,0,1,.36,1.18A6.35,6.35,0,0,1,264.26,47.39Z"/><path d="M61,50.24l-.66-2H57.62l-.67,2h-.8l2.32-6.63h1l2.32,6.63Zm-2-5.89h0l-1.12,3.23H60.1Z"/><path d="M62.83,50.24v-4.9h.76v.79h0a1.55,1.55,0,0,1,.51-.66,1.46,1.46,0,0,1,.88-.24,1.54,1.54,0,0,1,1.2.48,2,2,0,0,1,.44,1.39v3.14h-.76v-3q0-1.32-1.11-1.32a1.61,1.61,0,0,0-.44.06,1,1,0,0,0-.38.17.69.69,0,0,0-.27.29.78.78,0,0,0-.1.41v3.41Z"/><path d="M70.07,50.36a2.2,2.2,0,0,1-.9-.19,2.07,2.07,0,0,1-.7-.51,2.65,2.65,0,0,1-.45-.81,3.19,3.19,0,0,1-.16-1.06,3.13,3.13,0,0,1,.16-1,2.59,2.59,0,0,1,.45-.82,2.07,2.07,0,0,1,.7-.51,2.34,2.34,0,0,1,1.8,0,2.07,2.07,0,0,1,.7.51,2.43,2.43,0,0,1,.46.82,3.4,3.4,0,0,1,.16,1,3.47,3.47,0,0,1-.16,1.06,2.48,2.48,0,0,1-.46.81,2.07,2.07,0,0,1-.7.51A2.2,2.2,0,0,1,70.07,50.36Zm0-.68a1.39,1.39,0,0,0,1-.38,1.55,1.55,0,0,0,.39-1.16v-.7a1.55,1.55,0,0,0-.39-1.16,1.52,1.52,0,0,0-2,0,1.55,1.55,0,0,0-.39,1.16v.7a1.55,1.55,0,0,0,.39,1.16A1.38,1.38,0,0,0,70.07,49.68Z"/><path d="M73.54,50.24v-4.9h.76v.79h0a2.89,2.89,0,0,1,.19-.35,1.5,1.5,0,0,1,.27-.29,1.08,1.08,0,0,1,.37-.19,1.45,1.45,0,0,1,.49-.07,1.71,1.71,0,0,1,.89.23,1.33,1.33,0,0,1,.61.75h0a1.57,1.57,0,0,1,.5-.69,1.75,1.75,0,0,1,2.17.19,2.08,2.08,0,0,1,.42,1.39v3.14h-.76v-3a1.6,1.6,0,0,0-.26-1,1,1,0,0,0-.82-.33A1.54,1.54,0,0,0,78,46a.92.92,0,0,0-.36.17.73.73,0,0,0-.26.29.89.89,0,0,0-.1.41v3.41h-.76v-3a1.61,1.61,0,0,0-.25-1,1,1,0,0,0-.8-.33A1.61,1.61,0,0,0,75,46a1,1,0,0,0-.37.17.92.92,0,0,0-.26.29.78.78,0,0,0-.1.41v3.41Z"/><path d="M85.4,50.24a.77.77,0,0,1-.62-.23,1.13,1.13,0,0,1-.23-.57h0a1.21,1.21,0,0,1-.53.69,1.65,1.65,0,0,1-.88.23,1.75,1.75,0,0,1-1.21-.4,1.41,1.41,0,0,1-.43-1.09,1.23,1.23,0,0,1,.5-1.06,2.7,2.7,0,0,1,1.59-.37h1V47a1,1,0,0,0-.28-.79,1.18,1.18,0,0,0-.87-.28,1.35,1.35,0,0,0-.75.2,1.59,1.59,0,0,0-.5.53l-.45-.43a1.67,1.67,0,0,1,.63-.67,2,2,0,0,1,1.1-.28,2,2,0,0,1,1.39.43,1.53,1.53,0,0,1,.49,1.21v2.7h.56v.67Zm-2.19-.53a1.68,1.68,0,0,0,.52-.07,1.2,1.2,0,0,0,.41-.19.8.8,0,0,0,.27-.28.73.73,0,0,0,.09-.35V48h-1a1.82,1.82,0,0,0-1,.19.62.62,0,0,0-.3.55V49a.67.67,0,0,0,.26.56A1.17,1.17,0,0,0,83.21,49.71Z"/><path d="M87.72,50.24a.79.79,0,0,1-.61-.22.84.84,0,0,1-.2-.57V43.21h.76v6.36h.72v.67Z"/><path d="M89.87,44.19a.45.45,0,0,1-.35-.12.41.41,0,0,1-.11-.31v-.12a.41.41,0,0,1,.11-.31.45.45,0,0,1,.35-.12.47.47,0,0,1,.36.12.45.45,0,0,1,.11.31v.12a.45.45,0,0,1-.11.31A.47.47,0,0,1,89.87,44.19Zm-.38,1.15h.76v4.9h-.76Z"/><path d="M95.43,50.24a.74.74,0,0,1-.61-.23,1.14,1.14,0,0,1-.24-.57h0a1.26,1.26,0,0,1-.54.69,1.65,1.65,0,0,1-.88.23,1.75,1.75,0,0,1-1.21-.4,1.41,1.41,0,0,1-.43-1.09A1.23,1.23,0,0,1,92,47.81a2.65,2.65,0,0,1,1.58-.37h1V47a1,1,0,0,0-.29-.79,1.18,1.18,0,0,0-.87-.28,1.35,1.35,0,0,0-.75.2,1.7,1.7,0,0,0-.5.53l-.45-.43a1.67,1.67,0,0,1,.63-.67,2,2,0,0,1,1.11-.28,2,2,0,0,1,1.38.43,1.54,1.54,0,0,1,.5,1.21v2.7h.56v.67Zm-2.19-.53a1.79,1.79,0,0,0,.53-.07,1.29,1.29,0,0,0,.41-.19.86.86,0,0,0,.26-.28.74.74,0,0,0,.1-.35V48h-1a1.82,1.82,0,0,0-1,.19.64.64,0,0,0-.3.55V49a.65.65,0,0,0,.27.56A1.14,1.14,0,0,0,93.24,49.71Z"/><path d="M102.32,49.45h0a1.51,1.51,0,0,1-1.44.91,1.83,1.83,0,0,1-.82-.19,1.73,1.73,0,0,1-.63-.51,2.2,2.2,0,0,1-.4-.81,4.08,4.08,0,0,1,0-2.12,2.2,2.2,0,0,1,.4-.81,1.73,1.73,0,0,1,.63-.51,1.83,1.83,0,0,1,.82-.18,1.62,1.62,0,0,1,.88.22,1.32,1.32,0,0,1,.56.68h0V43.21h.76v7h-.76Zm-1.27.23a1.57,1.57,0,0,0,.49-.07,1.29,1.29,0,0,0,.41-.19,1,1,0,0,0,.27-.32.93.93,0,0,0,.1-.42V46.84a.82.82,0,0,0-.1-.37,1,1,0,0,0-.27-.3,1.31,1.31,0,0,0-.41-.2,1.57,1.57,0,0,0-.49-.07,1.26,1.26,0,0,0-1,.41,1.49,1.49,0,0,0-.37,1.06v.84a1.53,1.53,0,0,0,.37,1.07A1.28,1.28,0,0,0,101.05,49.68Z"/><path d="M106.53,50.36a2.2,2.2,0,0,1-.9-.19,2.07,2.07,0,0,1-.7-.51,2.44,2.44,0,0,1-.44-.81,3.19,3.19,0,0,1-.16-1.06,3.13,3.13,0,0,1,.16-1,2.39,2.39,0,0,1,.44-.82,2.07,2.07,0,0,1,.7-.51,2.19,2.19,0,0,1,.9-.18,2,2,0,0,1,.89.18,1.9,1.9,0,0,1,.66.49,2.09,2.09,0,0,1,.43.76,3.16,3.16,0,0,1,.14,1V48h-3.52v.23a1.57,1.57,0,0,0,.1.58,1.47,1.47,0,0,0,.28.47,1.36,1.36,0,0,0,.46.32,1.66,1.66,0,0,0,.61.11,1.45,1.45,0,0,0,.81-.22,1.37,1.37,0,0,0,.54-.62l.54.39a1.81,1.81,0,0,1-.74.81A2.19,2.19,0,0,1,106.53,50.36Zm0-4.5A1.56,1.56,0,0,0,106,46a1.35,1.35,0,0,0-.44.31,1.56,1.56,0,0,0-.29.46,1.63,1.63,0,0,0-.1.59v.07h2.71v-.1a1.49,1.49,0,0,0-.36-1A1.22,1.22,0,0,0,106.53,45.86Z"/></svg>