<svg id="Camada_1" data-name="Camada 1" xmlns="http://www.w3.org/2000/svg" viewBox="0 0 320.4 57.45"><defs><style>.cls-1{opacity:0.75;}.cls-2{fill:#fff;}.cls-3{fill:#939393;}.cls-4{fill:#eb2b20;}.cls-5{fill:#d6111f;}.cls-6{fill:#bd0026;}.cls-7{fill:#0868ac;}.cls-8{fill:#001476;}.cls-9{fill:#081d58;}.cls-10{fill:#2b8cbe;}.cls-11{fill:#7bccc4;}.cls-12{fill:#a8ddb5;}.cls-13{fill:#ccebc5;}.cls-14{fill:#e0f3db;}.cls-15{fill:#ffc;}.cls-16{fill:#ffeda0;}.cls-17{fill:#fed976;}.cls-18{fill:#feb24c;}.cls-19{fill:#fc4e2a;}</style></defs><title>LEGENDAS_PÁGINA_CLIMA_MAIORES</title><g class="cls-1"><path class="cls-2" d="M0,6.38C0,2.86,3.19,0,7.12,0H313.28c3.94,0,7.12,2.86,7.12,6.38V51.07c0,3.52-3.18,6.38-7.12,6.38H7.12C3.19,57.45,0,54.59,0,51.07Z"/></g><path class="cls-2" d="M154.42,23.58H149a2,2,0,0,1-2.11-2V10.68a2,2,0,0,1,2.11-2h5.46a2,2,0,0,1,2.11,2V21.61A2,2,0,0,1,154.42,23.58Z"/><path class="cls-3" d="M154.42,23.83H149a2.29,2.29,0,0,1-2.36-2.22V10.68A2.29,2.29,0,0,1,149,8.46h5.46a2.3,2.3,0,0,1,2.36,2.22V21.61A2.29,2.29,0,0,1,154.42,23.83ZM149,9a1.8,1.8,0,0,0-1.86,1.72V21.61A1.79,1.79,0,0,0,149,23.33h5.46a1.79,1.79,0,0,0,1.86-1.72V10.68A1.8,1.8,0,0,0,154.42,9Z"/><path class="cls-4" d="M274,23.58h-5.47a2,2,0,0,1-2.11-2V10.68a2,2,0,0,1,2.11-2H274a2,2,0,0,1,2.11,2V21.61A2.05,2.05,0,0,1,274,23.58Z"/><path class="cls-5" d="M291.11,23.58h-5.46a2,2,0,0,1-2.11-2V10.68a2,2,0,0,1,2.11-2h5.46a2,2,0,0,1,2.11,2V21.61A2,2,0,0,1,291.11,23.58Z"/><path class="cls-6" d="M308.2,23.58h-5.46a2,2,0,0,1-2.11-2V10.68a2,2,0,0,1,2.11-2h5.46a2,2,0,0,1,2.11,2V21.61A2,2,0,0,1,308.2,23.58Z"/><path class="cls-7" d="M51.82,23.58H46.35a2,2,0,0,1-2.11-2V10.68a2,2,0,0,1,2.11-2h5.47a2,2,0,0,1,2.11,2V21.61A2,2,0,0,1,51.82,23.58Z"/><path class="cls-8" d="M34.74,23.58H29.28a2,2,0,0,1-2.11-2V10.68a2,2,0,0,1,2.11-2h5.46a2,2,0,0,1,2.11,2V21.61A2,2,0,0,1,34.74,23.58Z"/><path class="cls-9" d="M17.67,23.58H12.2a2,2,0,0,1-2.11-2V10.68a2,2,0,0,1,2.11-2h5.47a2,2,0,0,1,2.11,2V21.61A2,2,0,0,1,17.67,23.58Z"/><path class="cls-10" d="M68.91,23.58H63.44a2,2,0,0,1-2.11-2V10.68a2,2,0,0,1,2.11-2h5.47a2,2,0,0,1,2.11,2V21.61A2.05,2.05,0,0,1,68.91,23.58Z"/><path class="cls-11" d="M86,23.58H80.53a2,2,0,0,1-2.11-2V10.68a2,2,0,0,1,2.11-2H86a2,2,0,0,1,2.11,2V21.61A2.05,2.05,0,0,1,86,23.58Z"/><path class="cls-12" d="M103.08,23.58H97.61a2,2,0,0,1-2.11-2V10.68a2,2,0,0,1,2.11-2h5.47a2,2,0,0,1,2.11,2V21.61A2.05,2.05,0,0,1,103.08,23.58Z"/><path class="cls-13" d="M120.17,23.58H114.7a2,2,0,0,1-2.11-2V10.68a2,2,0,0,1,2.11-2h5.47a2,2,0,0,1,2.1,2V21.61A2,2,0,0,1,120.17,23.58Z"/><path class="cls-14" d="M137.25,23.58h-5.46a2,2,0,0,1-2.11-2V10.68a2,2,0,0,1,2.11-2h5.46a2,2,0,0,1,2.11,2V21.61A2,2,0,0,1,137.25,23.58Z"/><path class="cls-2" d="M171.51,23.58H166a2,2,0,0,1-2.11-2V10.68a2,2,0,0,1,2.11-2h5.47a2,2,0,0,1,2.11,2V21.61A2,2,0,0,1,171.51,23.58Z"/><path class="cls-3" d="M171.51,23.83H166a2.29,2.29,0,0,1-2.36-2.22V10.68A2.3,2.3,0,0,1,166,8.46h5.47a2.3,2.3,0,0,1,2.36,2.22V21.61A2.29,2.29,0,0,1,171.51,23.83ZM166,9a1.81,1.81,0,0,0-1.86,1.72V21.61A1.8,1.8,0,0,0,166,23.33h5.47a1.79,1.79,0,0,0,1.86-1.72V10.68A1.8,1.8,0,0,0,171.51,9Z"/><path class="cls-15" d="M188.59,23.58h-5.47a2,2,0,0,1-2.1-2V10.68a2,2,0,0,1,2.1-2h5.47a2,2,0,0,1,2.11,2V21.61A2,2,0,0,1,188.59,23.58Z"/><path class="cls-16" d="M205.68,23.58h-5.47a2,2,0,0,1-2.11-2V10.68a2,2,0,0,1,2.11-2h5.47a2,2,0,0,1,2.11,2V21.61A2,2,0,0,1,205.68,23.58Z"/><path class="cls-17" d="M222.77,23.58H217.3a2,2,0,0,1-2.11-2V10.68a2,2,0,0,1,2.11-2h5.47a2,2,0,0,1,2.11,2V21.61A2.05,2.05,0,0,1,222.77,23.58Z"/><path class="cls-18" d="M239.85,23.58h-5.47a2,2,0,0,1-2.11-2V10.68a2,2,0,0,1,2.11-2h5.47a2,2,0,0,1,2.11,2V21.61A2,2,0,0,1,239.85,23.58Z"/><path class="cls-19" d="M256.94,23.58h-5.47a2,2,0,0,1-2.11-2V10.68a2,2,0,0,1,2.11-2h5.47a2,2,0,0,1,2.11,2V21.61A2.05,2.05,0,0,1,256.94,23.58Z"/><path d="M53.56,33.79V33H56v.81Z"/><path d="M59.55,36.39a2.25,2.25,0,0,1-.92-.18,2,2,0,0,1-.71-.5,2.25,2.25,0,0,1-.44-.81,3.48,3.48,0,0,1-.15-1.06,4.22,4.22,0,0,1,.22-1.39,5,5,0,0,1,.56-1.19,5.6,5.6,0,0,1,.77-1,4.74,4.74,0,0,1,.82-.67h1c-.35.26-.67.51-.95.76a5.82,5.82,0,0,0-.73.77,4.53,4.53,0,0,0-.53.86,5.08,5.08,0,0,0-.35,1l0,0a2.24,2.24,0,0,1,.62-.68,1.63,1.63,0,0,1,1-.27,2.22,2.22,0,0,1,.79.14,1.86,1.86,0,0,1,.62.41,2,2,0,0,1,.4.65,2.3,2.3,0,0,1,.15.85,2.56,2.56,0,0,1-.16.89,2,2,0,0,1-1.14,1.14A2.46,2.46,0,0,1,59.55,36.39Zm0-.71a1.38,1.38,0,0,0,1-.36,1.35,1.35,0,0,0,.37-1v-.08a1.27,1.27,0,0,0-1.39-1.4,1.41,1.41,0,0,0-1,.36,1.43,1.43,0,0,0-.36,1v.08a1.39,1.39,0,0,0,.36,1A1.41,1.41,0,0,0,59.54,35.68Z"/><path d="M19.3,33.79V33h2.48v.81Z"/><path d="M25.28,36.39a3,3,0,0,1-1-.15,2,2,0,0,1-.71-.41,1.61,1.61,0,0,1-.44-.6,1.94,1.94,0,0,1-.15-.76,1.58,1.58,0,0,1,.37-1.09,2.08,2.08,0,0,1,1-.56v-.07a1.74,1.74,0,0,1-.83-.59,1.52,1.52,0,0,1-.31-1A1.5,1.5,0,0,1,23.73,30a2.4,2.4,0,0,1,1.55-.45,2.39,2.39,0,0,1,1.55.45,1.47,1.47,0,0,1,.55,1.21,1.52,1.52,0,0,1-.31,1,1.69,1.69,0,0,1-.83.59v.07a2.08,2.08,0,0,1,1,.56,1.53,1.53,0,0,1,.37,1.09,1.94,1.94,0,0,1-.15.76,1.7,1.7,0,0,1-.43.6,2.12,2.12,0,0,1-.72.41A3,3,0,0,1,25.28,36.39Zm0-.71a1.68,1.68,0,0,0,1.07-.3,1.06,1.06,0,0,0,.38-.88v-.2a1,1,0,0,0-.38-.87,2,2,0,0,0-2.14,0,1,1,0,0,0-.38.87v.2a1.06,1.06,0,0,0,.38.88A1.68,1.68,0,0,0,25.28,35.68Zm0-3.23a1.44,1.44,0,0,0,.95-.26.94.94,0,0,0,.32-.78v-.14a.94.94,0,0,0-.32-.78,1.49,1.49,0,0,0-.95-.26,1.51,1.51,0,0,0-1,.26,1,1,0,0,0-.32.78v.14a1,1,0,0,0,.32.78A1.45,1.45,0,0,0,25.28,32.45Z"/><path d="M87.63,33.79V33H90.1v.81Z"/><path d="M94.32,36.27V35h-3.2v-.7l2.78-4.63h1.18v4.67h1V35h-1v1.3Zm-2.45-2h2.45V30.26h0Z"/><path d="M121.82,33.79V33h2.47v.81Z"/><path d="M130,36.27h-4.35v-.82l2.17-2a5,5,0,0,0,.78-.91,1.74,1.74,0,0,0,.31-1v-.11a1.32,1.32,0,0,0-.3-.9,1.17,1.17,0,0,0-.92-.34,1.49,1.49,0,0,0-.54.09,1.09,1.09,0,0,0-.39.23,1.45,1.45,0,0,0-.28.36,1.92,1.92,0,0,0-.17.44l-.71-.27a2.72,2.72,0,0,1,.26-.58,2,2,0,0,1,.42-.5,1.84,1.84,0,0,1,.6-.34,2.78,2.78,0,0,1,1.71,0,1.83,1.83,0,0,1,.64.4,1.68,1.68,0,0,1,.39.61,2.11,2.11,0,0,1,.14.77,2.36,2.36,0,0,1-.11.72,2.88,2.88,0,0,1-.3.64,4,4,0,0,1-.46.58c-.18.19-.38.38-.59.57l-1.78,1.61H130Z"/><path d="M160.2,36.39a1.88,1.88,0,0,1-1.73-.91,4.81,4.81,0,0,1-.55-2.52,4.82,4.82,0,0,1,.55-2.53,1.87,1.87,0,0,1,1.73-.9,1.9,1.9,0,0,1,1.74.9,4.93,4.93,0,0,1,.54,2.53,4.91,4.91,0,0,1-.54,2.52A1.9,1.9,0,0,1,160.2,36.39Zm0-.71a1.3,1.3,0,0,0,.67-.16,1.27,1.27,0,0,0,.44-.45,2.1,2.1,0,0,0,.25-.69,4,4,0,0,0,.09-.88V32.42a3.91,3.91,0,0,0-.09-.88,2.07,2.07,0,0,0-.25-.7,1.27,1.27,0,0,0-.44-.45,1.3,1.3,0,0,0-.67-.16,1.24,1.24,0,0,0-.66.16,1.21,1.21,0,0,0-.45.45,2.31,2.31,0,0,0-.25.7,3.94,3.94,0,0,0-.08.88V33.5a4.06,4.06,0,0,0,.08.88,2.35,2.35,0,0,0,.25.69,1.21,1.21,0,0,0,.45.45A1.24,1.24,0,0,0,160.2,35.68Z"/><path d="M196.63,36.27h-4.35v-.82l2.17-2a5,5,0,0,0,.78-.91,1.74,1.74,0,0,0,.31-1v-.11a1.32,1.32,0,0,0-.3-.9,1.17,1.17,0,0,0-.92-.34,1.49,1.49,0,0,0-.54.09,1.09,1.09,0,0,0-.39.23,1.45,1.45,0,0,0-.28.36,1.92,1.92,0,0,0-.17.44l-.71-.27a2.72,2.72,0,0,1,.26-.58,2,2,0,0,1,.42-.5,1.84,1.84,0,0,1,.6-.34,2.78,2.78,0,0,1,1.71,0,1.7,1.7,0,0,1,.63.4,1.58,1.58,0,0,1,.4.61,2.11,2.11,0,0,1,.14.77,2.36,2.36,0,0,1-.11.72,3.41,3.41,0,0,1-.3.64,4,4,0,0,1-.46.58c-.18.19-.38.38-.59.57l-1.78,1.61h3.48Z"/><path d="M229.35,36.27V35h-3.2v-.7l2.77-4.63h1.19v4.67h1V35h-1v1.3Zm-2.45-2h2.45V30.26h0Z"/><path d="M262.78,36.39a2.25,2.25,0,0,1-.92-.18,1.87,1.87,0,0,1-.7-.5,2.27,2.27,0,0,1-.45-.81,3.48,3.48,0,0,1-.15-1.06,4.22,4.22,0,0,1,.22-1.39,5,5,0,0,1,.57-1.19,5.56,5.56,0,0,1,.76-1,4.74,4.74,0,0,1,.82-.67h1c-.35.26-.67.51-.95.76a5.82,5.82,0,0,0-.73.77,4.64,4.64,0,0,0-.88,1.9l.05,0a2.09,2.09,0,0,1,.61-.68,1.65,1.65,0,0,1,1-.27,2.22,2.22,0,0,1,.79.14,1.77,1.77,0,0,1,.62.41,2,2,0,0,1,.4.65,2.3,2.3,0,0,1,.15.85,2.35,2.35,0,0,1-.16.89,1.93,1.93,0,0,1-1.14,1.14A2.46,2.46,0,0,1,262.78,36.39Zm0-.71a1.41,1.41,0,0,0,1-.36,1.39,1.39,0,0,0,.36-1v-.08a1.43,1.43,0,0,0-.36-1,1.64,1.64,0,0,0-2.05,0,1.43,1.43,0,0,0-.36,1v.08a1.39,1.39,0,0,0,.36,1A1.42,1.42,0,0,0,262.78,35.68Z"/><path d="M297,36.39a3,3,0,0,1-1-.15,1.94,1.94,0,0,1-.72-.41,1.61,1.61,0,0,1-.44-.6,1.94,1.94,0,0,1-.15-.76,1.58,1.58,0,0,1,.37-1.09,2.08,2.08,0,0,1,1-.56v-.07a1.74,1.74,0,0,1-.83-.59,1.58,1.58,0,0,1-.31-1A1.5,1.5,0,0,1,295.4,30a2.89,2.89,0,0,1,3.1,0,1.47,1.47,0,0,1,.55,1.21,1.52,1.52,0,0,1-.31,1,1.69,1.69,0,0,1-.83.59v.07a2.08,2.08,0,0,1,1,.56,1.53,1.53,0,0,1,.37,1.09,1.94,1.94,0,0,1-.15.76,1.58,1.58,0,0,1-.43.6,2,2,0,0,1-.72.41A3,3,0,0,1,297,36.39Zm0-.71a1.71,1.71,0,0,0,1.08-.3,1.09,1.09,0,0,0,.38-.88v-.2a1.05,1.05,0,0,0-.38-.87,1.65,1.65,0,0,0-1.08-.31,1.63,1.63,0,0,0-1.07.31,1.05,1.05,0,0,0-.38.87v.2a1.09,1.09,0,0,0,.38.88A1.68,1.68,0,0,0,297,35.68Zm0-3.23a1.44,1.44,0,0,0,.95-.26,1,1,0,0,0,.33-.78v-.14a1,1,0,0,0-.33-.78,1.49,1.49,0,0,0-.95-.26,1.51,1.51,0,0,0-.95.26,1,1,0,0,0-.32.78v.14a1,1,0,0,0,.32.78A1.45,1.45,0,0,0,297,32.45Z"/><path d="M86.53,44.43v5.93h-.8V44.43H83.62v-.71h5v.71Z"/><path d="M90.88,50.47a2.21,2.21,0,0,1-.91-.18,1.86,1.86,0,0,1-.69-.52,2.13,2.13,0,0,1-.45-.81,3.15,3.15,0,0,1-.16-1.06,3.21,3.21,0,0,1,.16-1,2.13,2.13,0,0,1,.45-.81,1.86,1.86,0,0,1,.69-.52,2.21,2.21,0,0,1,.91-.18,2.07,2.07,0,0,1,.88.18,1.93,1.93,0,0,1,.66.5,2.13,2.13,0,0,1,.43.75,2.93,2.93,0,0,1,.15,1v.35H89.47v.23a1.63,1.63,0,0,0,.1.59,1.42,1.42,0,0,0,.29.47,1.21,1.21,0,0,0,.45.31,1.51,1.51,0,0,0,.61.11,1.59,1.59,0,0,0,.82-.21,1.43,1.43,0,0,0,.53-.63l.54.39a1.82,1.82,0,0,1-.74.82A2.18,2.18,0,0,1,90.88,50.47Zm0-4.49a1.48,1.48,0,0,0-.57.1,1.57,1.57,0,0,0-.45.31,1.31,1.31,0,0,0-.28.47,1.44,1.44,0,0,0-.11.59v.07h2.71v-.11a1.48,1.48,0,0,0-.36-1A1.21,1.21,0,0,0,90.88,46Z"/><path d="M94.25,50.36V45.45H95v.79h0a2.37,2.37,0,0,1,.19-.35,1.06,1.06,0,0,1,.27-.29,1.23,1.23,0,0,1,.36-.19,1.51,1.51,0,0,1,.5-.07,1.82,1.82,0,0,1,.89.23,1.39,1.39,0,0,1,.61.76h0a1.4,1.4,0,0,1,.5-.69,1.5,1.5,0,0,1,1-.3,1.45,1.45,0,0,1,1.17.49,2.07,2.07,0,0,1,.42,1.38v3.15h-.76v-3a1.61,1.61,0,0,0-.25-1,1,1,0,0,0-.82-.34,1.49,1.49,0,0,0-.43.06,1.4,1.4,0,0,0-.37.17,1,1,0,0,0-.25.29A.82.82,0,0,0,98,47v3.41h-.76v-3a1.61,1.61,0,0,0-.25-1,.94.94,0,0,0-.8-.34,1.61,1.61,0,0,0-.44.06,1.4,1.4,0,0,0-.37.17.89.89,0,0,0-.26.29A.82.82,0,0,0,95,47v3.41Z"/><path d="M102.54,45.45h.76v.79h0a1.41,1.41,0,0,1,.56-.68,1.61,1.61,0,0,1,.87-.22,1.87,1.87,0,0,1,.83.18,1.73,1.73,0,0,1,.63.51,2.2,2.2,0,0,1,.4.81,4.12,4.12,0,0,1,0,2.13,2.36,2.36,0,0,1-.4.81,1.73,1.73,0,0,1-.63.51,1.87,1.87,0,0,1-.83.18,1.48,1.48,0,0,1-1.43-.9h0v2.69h-.76Zm2,4.34a1.28,1.28,0,0,0,1-.4,1.51,1.51,0,0,0,.37-1.06v-.85a1.49,1.49,0,0,0-.37-1.06,1.29,1.29,0,0,0-1-.41,1.53,1.53,0,0,0-.49.08,1.29,1.29,0,0,0-.41.19,1,1,0,0,0-.27.3.86.86,0,0,0-.1.38v1.83a.88.88,0,0,0,.37.74,1.31,1.31,0,0,0,.41.2A1.88,1.88,0,0,0,104.57,49.79Z"/><path d="M109.89,50.47a2.19,2.19,0,0,1-.9-.18,2,2,0,0,1-.7-.52,2.25,2.25,0,0,1-.44-.81,3.15,3.15,0,0,1-.16-1.06,3.21,3.21,0,0,1,.16-1,2.25,2.25,0,0,1,.44-.81,2,2,0,0,1,.7-.52,2.19,2.19,0,0,1,.9-.18,2.11,2.11,0,0,1,.89.18,1.93,1.93,0,0,1,.66.5,2.13,2.13,0,0,1,.43.75,3.22,3.22,0,0,1,.14,1v.35h-3.52v.23a1.63,1.63,0,0,0,.1.59,1.58,1.58,0,0,0,.28.47,1.33,1.33,0,0,0,.46.31,1.48,1.48,0,0,0,.61.11,1.53,1.53,0,0,0,.81-.21,1.39,1.39,0,0,0,.54-.63l.54.39a1.88,1.88,0,0,1-.74.82A2.19,2.19,0,0,1,109.89,50.47Zm0-4.49a1.47,1.47,0,0,0-.56.1,1.44,1.44,0,0,0-.45.31,1.49,1.49,0,0,0-.29.47,1.63,1.63,0,0,0-.1.59v.07h2.71v-.11a1.48,1.48,0,0,0-.36-1A1.22,1.22,0,0,0,109.89,46Z"/><path d="M113.27,50.36V45.45H114v.91h0a1.35,1.35,0,0,1,.47-.63,1.48,1.48,0,0,1,.94-.28h.3v.76h-.45a1.72,1.72,0,0,0-1,.24A.67.67,0,0,0,114,47v3.33Z"/><path d="M120.28,50.36a.74.74,0,0,1-.61-.23,1.06,1.06,0,0,1-.24-.57h-.05a1.22,1.22,0,0,1-.53.68,1.65,1.65,0,0,1-.88.23,1.7,1.7,0,0,1-1.21-.4,1.4,1.4,0,0,1-.43-1.08,1.27,1.27,0,0,1,.5-1.07,2.78,2.78,0,0,1,1.59-.37h1v-.48a1.05,1.05,0,0,0-.28-.8,1.23,1.23,0,0,0-.87-.28,1.35,1.35,0,0,0-.75.2,1.63,1.63,0,0,0-.5.54l-.45-.43a1.7,1.7,0,0,1,.63-.68,2,2,0,0,1,1.1-.28,2,2,0,0,1,1.39.44,1.52,1.52,0,0,1,.49,1.21v2.69h.57v.68Zm-2.19-.54a2.2,2.2,0,0,0,.53-.06,1.48,1.48,0,0,0,.4-.19.82.82,0,0,0,.27-.29.7.7,0,0,0,.09-.35v-.81h-1a1.92,1.92,0,0,0-1,.19.62.62,0,0,0-.3.55v.2a.67.67,0,0,0,.26.56A1.11,1.11,0,0,0,118.09,49.82Z"/><path d="M122.87,50.36a.77.77,0,0,1-.6-.23.81.81,0,0,1-.21-.58V46.13h-.8v-.68h.45a.43.43,0,0,0,.34-.1.5.5,0,0,0,.09-.34v-.92h.68v1.36h1.08v.68h-1.08v3.55h1v.68Z"/><path d="M128.14,49.57h0c-.06.11-.12.22-.19.33a1.06,1.06,0,0,1-.27.29,1.2,1.2,0,0,1-.39.2,1.69,1.69,0,0,1-.53.08,1.55,1.55,0,0,1-1.21-.49,2,2,0,0,1-.44-1.38V45.45h.76v3c0,.88.37,1.32,1.12,1.32a1.61,1.61,0,0,0,.44,0,1.46,1.46,0,0,0,.38-.17.89.89,0,0,0,.26-.29.83.83,0,0,0,.1-.43v-3.4h.76v4.91h-.76Z"/><path d="M130.52,50.36V45.45h.76v.91h.05a1.42,1.42,0,0,1,.47-.63,1.48,1.48,0,0,1,.94-.28h.3v.76h-.45a1.66,1.66,0,0,0-1,.24.66.66,0,0,0-.35.58v3.33Z"/><path d="M137.53,50.36a.74.74,0,0,1-.61-.23,1.14,1.14,0,0,1-.24-.57h0a1.28,1.28,0,0,1-.54.68,1.65,1.65,0,0,1-.88.23,1.7,1.7,0,0,1-1.21-.4,1.4,1.4,0,0,1-.43-1.08,1.25,1.25,0,0,1,.51-1.07,2.72,2.72,0,0,1,1.58-.37h1v-.48a1.06,1.06,0,0,0-.29-.8,1.23,1.23,0,0,0-.87-.28,1.35,1.35,0,0,0-.75.2,1.74,1.74,0,0,0-.5.54l-.45-.43a1.7,1.7,0,0,1,.63-.68,2.36,2.36,0,0,1,2.49.16,1.52,1.52,0,0,1,.5,1.21v2.69H138v.68Zm-2.19-.54a2.2,2.2,0,0,0,.53-.06,1.55,1.55,0,0,0,.41-.19.89.89,0,0,0,.26-.29.71.71,0,0,0,.1-.35v-.81h-1a1.92,1.92,0,0,0-1,.19.63.63,0,0,0-.29.55v.2a.65.65,0,0,0,.26.56A1.08,1.08,0,0,0,135.34,49.82Z"/><path d="M144.42,49.57h0a1.51,1.51,0,0,1-1.44.9,1.83,1.83,0,0,1-.82-.18,1.73,1.73,0,0,1-.63-.51,2.36,2.36,0,0,1-.4-.81,4.12,4.12,0,0,1,0-2.13,2.2,2.2,0,0,1,.4-.81,1.73,1.73,0,0,1,.63-.51,1.83,1.83,0,0,1,.82-.18,1.62,1.62,0,0,1,.88.22,1.41,1.41,0,0,1,.56.68h0V43.33h.76v7h-.76Zm-1.27.22a1.93,1.93,0,0,0,.49-.06,1.31,1.31,0,0,0,.41-.2.88.88,0,0,0,.37-.74V47a.86.86,0,0,0-.1-.38,1,1,0,0,0-.27-.3,1.29,1.29,0,0,0-.41-.19,1.57,1.57,0,0,0-.49-.08,1.29,1.29,0,0,0-1,.41,1.49,1.49,0,0,0-.37,1.06v.85a1.51,1.51,0,0,0,.37,1.06A1.28,1.28,0,0,0,143.15,49.79Z"/><path d="M148.64,50.47a2.19,2.19,0,0,1-.9-.18,2,2,0,0,1-.7-.52,2.43,2.43,0,0,1-.45-.81,3.15,3.15,0,0,1-.16-1.06,3.21,3.21,0,0,1,.16-1A2.43,2.43,0,0,1,147,46a2,2,0,0,1,.7-.52,2.34,2.34,0,0,1,1.8,0,2,2,0,0,1,.7.52,2.29,2.29,0,0,1,.46.81,3.5,3.5,0,0,1,.16,1A3.42,3.42,0,0,1,150.7,49a2.29,2.29,0,0,1-.46.81,2,2,0,0,1-.7.52A2.19,2.19,0,0,1,148.64,50.47Zm0-.68a1.35,1.35,0,0,0,1-.38,1.52,1.52,0,0,0,.39-1.15v-.71a1.56,1.56,0,0,0-.39-1.16,1.52,1.52,0,0,0-2,0,1.56,1.56,0,0,0-.39,1.16v.71a1.52,1.52,0,0,0,.39,1.15A1.34,1.34,0,0,0,148.64,49.79Z"/><path d="M158.58,50.36l-.66-2h-2.68l-.67,2h-.81l2.32-6.64h1l2.32,6.64Zm-2-5.89h0l-1.12,3.23h2.29Z"/><path d="M160.44,50.36V45.45h.76v.91h.05a1.5,1.5,0,0,1,.47-.63,1.51,1.51,0,0,1,.95-.28H163v.76h-.45a1.66,1.66,0,0,0-1,.24.68.68,0,0,0-.35.58v3.33Z"/><path d="M168,50.47a2.19,2.19,0,0,1-.9-.18,2,2,0,0,1-.7-.52A2.25,2.25,0,0,1,166,49a3.15,3.15,0,0,1-.16-1.06,3.21,3.21,0,0,1,.16-1,2.25,2.25,0,0,1,.44-.81,2,2,0,0,1,.7-.52,2.19,2.19,0,0,1,.9-.18,2.11,2.11,0,0,1,.89.18,1.93,1.93,0,0,1,.66.5,2,2,0,0,1,.42.75,2.93,2.93,0,0,1,.15,1v.35h-3.52v.23a1.63,1.63,0,0,0,.1.59,1.4,1.4,0,0,0,.28.47,1.33,1.33,0,0,0,.46.31,1.48,1.48,0,0,0,.61.11,1.39,1.39,0,0,0,1.35-.84l.54.39a1.88,1.88,0,0,1-.74.82A2.21,2.21,0,0,1,168,50.47ZM168,46a1.48,1.48,0,0,0-.57.1,1.52,1.52,0,0,0-.44.31,1.49,1.49,0,0,0-.29.47,1.63,1.63,0,0,0-.1.59v.07h2.7v-.11a1.47,1.47,0,0,0-.35-1A1.22,1.22,0,0,0,168,46Z"/><path d="M171.39,50.36V45.45h.76v.79h0a4,4,0,0,1,.2-.35,1.2,1.2,0,0,1,.26-.29,1.38,1.38,0,0,1,.86-.26,1.85,1.85,0,0,1,.9.23,1.38,1.38,0,0,1,.6.76h0a1.47,1.47,0,0,1,.5-.69,1.55,1.55,0,0,1,1-.3,1.45,1.45,0,0,1,1.17.49,2.07,2.07,0,0,1,.42,1.38v3.15h-.76v-3a1.54,1.54,0,0,0-.26-1,.94.94,0,0,0-.81-.34,1.49,1.49,0,0,0-.43.06,1.4,1.4,0,0,0-.37.17,1,1,0,0,0-.26.29.93.93,0,0,0-.09.42v3.41h-.76v-3a1.6,1.6,0,0,0-.26-1,.93.93,0,0,0-.8-.34,1.54,1.54,0,0,0-.43.06,1.26,1.26,0,0,0-.37.17.89.89,0,0,0-.26.29.82.82,0,0,0-.1.42v3.41Z"/><path d="M186.18,50.36h-4.35v-.82l2.16-2a4.71,4.71,0,0,0,.78-.91,1.73,1.73,0,0,0,.31-1v-.12a1.3,1.3,0,0,0-.3-.89,1.16,1.16,0,0,0-.92-.35,1.44,1.44,0,0,0-.53.09,1.07,1.07,0,0,0-.4.24,1.31,1.31,0,0,0-.27.35,2.39,2.39,0,0,0-.18.44l-.71-.27a2.72,2.72,0,0,1,.26-.58,2,2,0,0,1,.42-.49,2.12,2.12,0,0,1,.61-.35,2.32,2.32,0,0,1,.84-.13,2.54,2.54,0,0,1,.86.14,1.88,1.88,0,0,1,.64.4,1.77,1.77,0,0,1,.39.61,2.13,2.13,0,0,1,.14.78,2.36,2.36,0,0,1-.11.72,2.6,2.6,0,0,1-.3.63,4,4,0,0,1-.46.58c-.18.19-.37.38-.58.57l-1.79,1.61h3.49Z"/><path d="M189.86,50.36V45.45h.76v.79h0a2.43,2.43,0,0,1,.2-.35,1.2,1.2,0,0,1,.26-.29,1.38,1.38,0,0,1,.86-.26,1.88,1.88,0,0,1,.9.23,1.38,1.38,0,0,1,.6.76h0a1.47,1.47,0,0,1,.5-.69,1.52,1.52,0,0,1,1-.3,1.48,1.48,0,0,1,1.18.49,2.07,2.07,0,0,1,.42,1.38v3.15h-.76v-3a1.6,1.6,0,0,0-.26-1,.94.94,0,0,0-.81-.34,1.56,1.56,0,0,0-.44.06,1.49,1.49,0,0,0-.36.17.89.89,0,0,0-.26.29.93.93,0,0,0-.09.42v3.41h-.76v-3a1.6,1.6,0,0,0-.26-1,.93.93,0,0,0-.8-.34,1.61,1.61,0,0,0-.44.06,1.4,1.4,0,0,0-.37.17,1.2,1.2,0,0,0-.26.29.93.93,0,0,0-.1.42v3.41Z"/><path d="M200,50.47a2.21,2.21,0,0,1-.91-.18,1.86,1.86,0,0,1-.69-.52A2.43,2.43,0,0,1,198,49a3.42,3.42,0,0,1-.16-1.06,3.5,3.5,0,0,1,.16-1,2.43,2.43,0,0,1,.45-.81,1.86,1.86,0,0,1,.69-.52,2.21,2.21,0,0,1,.91-.18,2,2,0,0,1,1.55.68,2.28,2.28,0,0,1,.42.75,2.93,2.93,0,0,1,.15,1v.35h-3.53v.23a1.87,1.87,0,0,0,.1.59,1.42,1.42,0,0,0,.29.47,1.21,1.21,0,0,0,.45.31,1.48,1.48,0,0,0,2-.73l.54.39a2,2,0,0,1-.74.82A2.23,2.23,0,0,1,200,50.47ZM200,46a1.48,1.48,0,0,0-.57.1,1.4,1.4,0,0,0-.44.31,1.33,1.33,0,0,0-.29.47,1.63,1.63,0,0,0-.11.59v.07h2.71v-.11a1.48,1.48,0,0,0-.36-1A1.2,1.2,0,0,0,200,46Z"/><path d="M204.46,50.36a.79.79,0,0,1-.61-.23.85.85,0,0,1-.2-.58V46.13h-.81v-.68h.46a.42.42,0,0,0,.33-.1.5.5,0,0,0,.09-.34v-.92h.69v1.36h1.07v.68h-1.07v3.55h1v.68Z"/><path d="M206.71,50.36V45.45h.76v.91h0a1.44,1.44,0,0,1,.48-.63,1.48,1.48,0,0,1,.94-.28h.29v.76h-.44a1.7,1.7,0,0,0-1,.24.67.67,0,0,0-.34.58v3.33Z"/><path d="M212,50.47a2.19,2.19,0,0,1-.9-.18,1.81,1.81,0,0,1-.7-.52A2.27,2.27,0,0,1,210,49a3.15,3.15,0,0,1-.16-1.06,3.21,3.21,0,0,1,.16-1,2.27,2.27,0,0,1,.45-.81,1.81,1.81,0,0,1,.7-.52,2.34,2.34,0,0,1,1.8,0,1.86,1.86,0,0,1,.69.52,2.29,2.29,0,0,1,.46.81,3.21,3.21,0,0,1,.16,1,3.15,3.15,0,0,1-.16,1.06,2.29,2.29,0,0,1-.46.81,1.86,1.86,0,0,1-.69.52A2.19,2.19,0,0,1,212,50.47Zm0-.68a1.36,1.36,0,0,0,1-.38,1.52,1.52,0,0,0,.39-1.15v-.71a1.56,1.56,0,0,0-.39-1.16,1.53,1.53,0,0,0-2,0,1.56,1.56,0,0,0-.39,1.16v.71a1.52,1.52,0,0,0,.39,1.15A1.36,1.36,0,0,0,212,49.79Z"/><path d="M216.94,50.47a2.36,2.36,0,0,1-1.15-.26,2.77,2.77,0,0,1-.79-.7l.54-.44a2.1,2.1,0,0,0,.64.56,1.66,1.66,0,0,0,.82.19,1.19,1.19,0,0,0,.75-.21A.68.68,0,0,0,218,49a.71.71,0,0,0-.18-.49,1.13,1.13,0,0,0-.67-.28l-.39-.06a2.91,2.91,0,0,1-.63-.15,1.58,1.58,0,0,1-.5-.26,1.23,1.23,0,0,1-.33-.42,1.32,1.32,0,0,1-.12-.59,1.54,1.54,0,0,1,.13-.63,1.24,1.24,0,0,1,.37-.45,1.57,1.57,0,0,1,.55-.27,2.63,2.63,0,0,1,.7-.09,2.15,2.15,0,0,1,1,.21,2.19,2.19,0,0,1,.71.58l-.5.45a1.52,1.52,0,0,0-.48-.41,1.57,1.57,0,0,0-.79-.18,1.1,1.1,0,0,0-.72.2.7.7,0,0,0-.24.56.58.58,0,0,0,.24.52,2,2,0,0,0,.7.24l.38.05a2.09,2.09,0,0,1,1.16.47,1.24,1.24,0,0,1,.34.91,1.4,1.4,0,0,1-.48,1.12A2,2,0,0,1,216.94,50.47Z"/><path d="M222.32,47.39a6.36,6.36,0,0,1,.13-1.32,6,6,0,0,1,.37-1.18,4.67,4.67,0,0,1,.54-1,3.9,3.9,0,0,1,.68-.76h.72A4.64,4.64,0,0,0,224,44a6.14,6.14,0,0,0-.54,1,6.47,6.47,0,0,0-.35,1,4.57,4.57,0,0,0-.12,1v.82a4.59,4.59,0,0,0,.12,1,6.47,6.47,0,0,0,.35,1,6.57,6.57,0,0,0,.55,1,4.56,4.56,0,0,0,.71.8H224a4,4,0,0,1-.67-.74,5,5,0,0,1-.54-1,7.2,7.2,0,0,1-.38-1.19A6.55,6.55,0,0,1,222.32,47.39Z"/><path d="M226.6,47a1.35,1.35,0,0,1-1.08-.45,2.23,2.23,0,0,1,0-2.52,1.52,1.52,0,0,1,2.16,0,2.23,2.23,0,0,1,0,2.52A1.35,1.35,0,0,1,226.6,47Zm0-.49a.74.74,0,0,0,.62-.26,1,1,0,0,0,.21-.66V45a1,1,0,0,0-.21-.67.87.87,0,0,0-1.24,0,1,1,0,0,0-.21.67v.59a1,1,0,0,0,.21.66A.74.74,0,0,0,226.6,46.54Z"/><path d="M231.71,50.47a2.39,2.39,0,0,1-2-.86,3.91,3.91,0,0,1-.71-2.53,4.07,4.07,0,0,1,.71-2.57,2.33,2.33,0,0,1,2-.9A2.34,2.34,0,0,1,234,45.05l-.64.39a2,2,0,0,0-.61-.82,1.72,1.72,0,0,0-1-.31,1.7,1.7,0,0,0-.76.17,1.42,1.42,0,0,0-.57.46,2.07,2.07,0,0,0-.36.71,3.38,3.38,0,0,0-.12.93v1a2.54,2.54,0,0,0,.47,1.62,1.67,1.67,0,0,0,1.34.58,1.71,1.71,0,0,0,1.07-.33,1.91,1.91,0,0,0,.62-.87l.64.4a2.58,2.58,0,0,1-.9,1.1A2.48,2.48,0,0,1,231.71,50.47Z"/><path d="M236.79,47.39a6.55,6.55,0,0,1-.14,1.34,7.19,7.19,0,0,1-.37,1.19,5.61,5.61,0,0,1-.55,1,4.39,4.39,0,0,1-.66.74h-.73a4.51,4.51,0,0,0,.7-.8,5.78,5.78,0,0,0,.55-1,6.51,6.51,0,0,0,.36-1,4.59,4.59,0,0,0,.12-1V47a4.57,4.57,0,0,0-.12-1,5.63,5.63,0,0,0-.35-1,6.14,6.14,0,0,0-.54-1,4.64,4.64,0,0,0-.72-.81h.73a3.87,3.87,0,0,1,.67.76,5.19,5.19,0,0,1,.55,1,6.78,6.78,0,0,1,.36,1.18A6.35,6.35,0,0,1,236.79,47.39Z"/></svg>