<svg id="Camada_1" data-name="Camada 1" xmlns="http://www.w3.org/2000/svg" viewBox="0 0 320.4 57.45"><defs><style>.cls-1{opacity:0.75;}.cls-2{fill:#fff;}.cls-3{fill:#939393;}.cls-4{fill:#eb2b20;}.cls-5{fill:#d6111f;}.cls-6{fill:#bd0026;}.cls-7{fill:#0868ac;}.cls-8{fill:#001476;}.cls-9{fill:#081d58;}.cls-10{fill:#2b8cbe;}.cls-11{fill:#7bccc4;}.cls-12{fill:#a8ddb5;}.cls-13{fill:#ccebc5;}.cls-14{fill:#e0f3db;}.cls-15{fill:#ffc;}.cls-16{fill:#ffeda0;}.cls-17{fill:#fed976;}.cls-18{fill:#feb24c;}.cls-19{fill:#fc4e2a;}</style></defs><title>LEGENDAS_PÁGINA_CLIMA_MAIORES</title><g class="cls-1"><path class="cls-2" d="M0,6.38C0,2.86,3.19,0,7.12,0H313.28c3.94,0,7.12,2.86,7.12,6.38V51.07c0,3.52-3.18,6.38-7.12,6.38H7.12C3.19,57.45,0,54.59,0,51.07Z"/></g><path class="cls-2" d="M154.42,23.58H149a2,2,0,0,1-2.11-2V10.68a2,2,0,0,1,2.11-2h5.46a2,2,0,0,1,2.11,2V21.61A2,2,0,0,1,154.42,23.58Z"/><path class="cls-3" d="M154.42,23.83H149a2.29,2.29,0,0,1-2.36-2.22V10.68A2.29,2.29,0,0,1,149,8.46h5.46a2.3,2.3,0,0,1,2.36,2.22V21.61A2.29,2.29,0,0,1,154.42,23.83ZM149,9a1.79,1.79,0,0,0-1.86,1.72V21.61A1.79,1.79,0,0,0,149,23.33h5.46a1.79,1.79,0,0,0,1.86-1.72V10.68A1.79,1.79,0,0,0,154.42,9Z"/><path class="cls-4" d="M274,23.58h-5.47a2,2,0,0,1-2.11-2V10.68a2,2,0,0,1,2.11-2H274a2,2,0,0,1,2.11,2V21.61A2.05,2.05,0,0,1,274,23.58Z"/><path class="cls-5" d="M291.11,23.58h-5.46a2,2,0,0,1-2.11-2V10.68a2,2,0,0,1,2.11-2h5.46a2,2,0,0,1,2.11,2V21.61A2,2,0,0,1,291.11,23.58Z"/><path class="cls-6" d="M308.2,23.58h-5.46a2,2,0,0,1-2.11-2V10.68a2,2,0,0,1,2.11-2h5.46a2,2,0,0,1,2.11,2V21.61A2,2,0,0,1,308.2,23.58Z"/><path class="cls-7" d="M51.82,23.58H46.35a2,2,0,0,1-2.11-2V10.68a2,2,0,0,1,2.11-2h5.47a2,2,0,0,1,2.11,2V21.61A2,2,0,0,1,51.82,23.58Z"/><path class="cls-8" d="M34.74,23.58H29.28a2,2,0,0,1-2.11-2V10.68a2,2,0,0,1,2.11-2h5.46a2,2,0,0,1,2.11,2V21.61A2,2,0,0,1,34.74,23.58Z"/><path class="cls-9" d="M17.67,23.58H12.2a2,2,0,0,1-2.11-2V10.68a2,2,0,0,1,2.11-2h5.47a2,2,0,0,1,2.11,2V21.61A2,2,0,0,1,17.67,23.58Z"/><path class="cls-10" d="M68.91,23.58H63.44a2,2,0,0,1-2.11-2V10.68a2,2,0,0,1,2.11-2h5.47a2,2,0,0,1,2.11,2V21.61A2.05,2.05,0,0,1,68.91,23.58Z"/><path class="cls-11" d="M86,23.58H80.53a2,2,0,0,1-2.11-2V10.68a2,2,0,0,1,2.11-2H86a2,2,0,0,1,2.11,2V21.61A2.05,2.05,0,0,1,86,23.58Z"/><path class="cls-12" d="M103.08,23.58H97.61a2,2,0,0,1-2.11-2V10.68a2,2,0,0,1,2.11-2h5.47a2,2,0,0,1,2.11,2V21.61A2.05,2.05,0,0,1,103.08,23.58Z"/><path class="cls-13" d="M120.17,23.58H114.7a2,2,0,0,1-2.11-2V10.68a2,2,0,0,1,2.11-2h5.47a2,2,0,0,1,2.1,2V21.61A2,2,0,0,1,120.17,23.58Z"/><path class="cls-14" d="M137.25,23.58h-5.46a2,2,0,0,1-2.11-2V10.68a2,2,0,0,1,2.11-2h5.46a2,2,0,0,1,2.11,2V21.61A2,2,0,0,1,137.25,23.58Z"/><path class="cls-2" d="M171.51,23.58H166a2,2,0,0,1-2.11-2V10.68a2,2,0,0,1,2.11-2h5.47a2,2,0,0,1,2.11,2V21.61A2,2,0,0,1,171.51,23.58Z"/><path class="cls-3" d="M171.51,23.83H166a2.29,2.29,0,0,1-2.36-2.22V10.68A2.3,2.3,0,0,1,166,8.46h5.47a2.3,2.3,0,0,1,2.36,2.22V21.61A2.29,2.29,0,0,1,171.51,23.83ZM166,9a1.8,1.8,0,0,0-1.86,1.72V21.61A1.8,1.8,0,0,0,166,23.33h5.47a1.79,1.79,0,0,0,1.86-1.72V10.68A1.79,1.79,0,0,0,171.51,9Z"/><path class="cls-15" d="M188.59,23.58h-5.47a2,2,0,0,1-2.1-2V10.68a2,2,0,0,1,2.1-2h5.47a2,2,0,0,1,2.11,2V21.61A2,2,0,0,1,188.59,23.58Z"/><path class="cls-16" d="M205.68,23.58h-5.47a2,2,0,0,1-2.11-2V10.68a2,2,0,0,1,2.11-2h5.47a2,2,0,0,1,2.11,2V21.61A2,2,0,0,1,205.68,23.58Z"/><path class="cls-17" d="M222.77,23.58H217.3a2,2,0,0,1-2.11-2V10.68a2,2,0,0,1,2.11-2h5.47a2,2,0,0,1,2.11,2V21.61A2.05,2.05,0,0,1,222.77,23.58Z"/><path class="cls-18" d="M239.85,23.58h-5.47a2,2,0,0,1-2.11-2V10.68a2,2,0,0,1,2.11-2h5.47a2,2,0,0,1,2.11,2V21.61A2,2,0,0,1,239.85,23.58Z"/><path class="cls-19" d="M256.94,23.58h-5.47a2,2,0,0,1-2.11-2V10.68a2,2,0,0,1,2.11-2h5.47a2,2,0,0,1,2.11,2V21.61A2.05,2.05,0,0,1,256.94,23.58Z"/><path d="M47.91,33.89v-.82h2.48v.82Z"/><path d="M51.88,36.37v-.7h1.86V30.33h-.07L52,31.88l-.47-.5,1.76-1.64h1.24v5.93h1.71v.7Z"/><path d="M59.6,36.48a1.9,1.9,0,0,1-1.74-.9,4.93,4.93,0,0,1-.54-2.53,4.91,4.91,0,0,1,.54-2.52,1.9,1.9,0,0,1,1.74-.91,1.88,1.88,0,0,1,1.73.91,4.81,4.81,0,0,1,.55,2.52,4.82,4.82,0,0,1-.55,2.53A1.87,1.87,0,0,1,59.6,36.48Zm0-.7a1.24,1.24,0,0,0,.66-.16,1.21,1.21,0,0,0,.45-.45,2.31,2.31,0,0,0,.25-.7,3.94,3.94,0,0,0,.08-.88V32.51a4.06,4.06,0,0,0-.08-.88,2.35,2.35,0,0,0-.25-.69,1.15,1.15,0,0,0-.45-.45,1.24,1.24,0,0,0-.66-.16,1.3,1.3,0,0,0-.67.16,1.19,1.19,0,0,0-.44.45,2.1,2.1,0,0,0-.25.69,4,4,0,0,0-.09.88v1.08a3.91,3.91,0,0,0,.09.88,2.07,2.07,0,0,0,.25.7,1.27,1.27,0,0,0,.44.45A1.3,1.3,0,0,0,59.6,35.78Z"/><path d="M67.18,30.44H64.27L64.08,33h.07a2.08,2.08,0,0,1,.54-.53,1.38,1.38,0,0,1,.82-.2,2.05,2.05,0,0,1,.79.14,1.84,1.84,0,0,1,.62.4,1.87,1.87,0,0,1,.42.64,2.65,2.65,0,0,1,.14.87,2.56,2.56,0,0,1-.15.89,1.9,1.9,0,0,1-.44.69,2.11,2.11,0,0,1-.7.45,2.54,2.54,0,0,1-.94.16,2.78,2.78,0,0,1-.74-.09,2.13,2.13,0,0,1-1-.61,2.72,2.72,0,0,1-.34-.42l.6-.45a3.32,3.32,0,0,0,.26.36,1.27,1.27,0,0,0,.3.27,1.17,1.17,0,0,0,.39.18,2,2,0,0,0,.52.06,1.4,1.4,0,0,0,1-.36,1.42,1.42,0,0,0,.35-1v-.1a1.42,1.42,0,0,0-.35-1,1.4,1.4,0,0,0-1-.36,1.37,1.37,0,0,0-.72.17,2.5,2.5,0,0,0-.47.39l-.67-.09.24-3.65h3.55Z"/><path d="M13.67,33.89v-.82h2.48v.82Z"/><path d="M17.64,36.37v-.7H19.5V30.33h-.07l-1.67,1.55-.47-.5,1.76-1.64h1.24v5.93H22v.7Z"/><path d="M27.24,30.44H24.33L24.14,33h.07a2.08,2.08,0,0,1,.54-.53,1.38,1.38,0,0,1,.82-.2,2.09,2.09,0,0,1,.79.14,1.84,1.84,0,0,1,.62.4,1.87,1.87,0,0,1,.42.64,2.65,2.65,0,0,1,.14.87,2.56,2.56,0,0,1-.15.89,1.9,1.9,0,0,1-.44.69,2.11,2.11,0,0,1-.7.45,2.54,2.54,0,0,1-.94.16,2.78,2.78,0,0,1-.74-.09,2.13,2.13,0,0,1-1-.61,2.72,2.72,0,0,1-.34-.42l.6-.45a3.32,3.32,0,0,0,.26.36,1.27,1.27,0,0,0,.3.27,1.17,1.17,0,0,0,.39.18,2,2,0,0,0,.52.06,1.4,1.4,0,0,0,1-.36,1.42,1.42,0,0,0,.35-1v-.1a1.42,1.42,0,0,0-.35-1,1.4,1.4,0,0,0-1-.36,1.37,1.37,0,0,0-.72.17,2.5,2.5,0,0,0-.47.39l-.67-.09.24-3.65h3.55Z"/><path d="M31.06,36.48a1.9,1.9,0,0,1-1.74-.9,4.93,4.93,0,0,1-.54-2.53,4.91,4.91,0,0,1,.54-2.52,1.9,1.9,0,0,1,1.74-.91,1.88,1.88,0,0,1,1.73.91,4.81,4.81,0,0,1,.55,2.52,4.82,4.82,0,0,1-.55,2.53A1.87,1.87,0,0,1,31.06,36.48Zm0-.7a1.24,1.24,0,0,0,.66-.16,1.21,1.21,0,0,0,.45-.45,2.31,2.31,0,0,0,.25-.7,4.63,4.63,0,0,0,.08-.88V32.51a4.79,4.79,0,0,0-.08-.88,2.35,2.35,0,0,0-.25-.69,1.15,1.15,0,0,0-.45-.45,1.24,1.24,0,0,0-.66-.16,1.3,1.3,0,0,0-.67.16,1.19,1.19,0,0,0-.44.45,2.36,2.36,0,0,0-.26.69,4.79,4.79,0,0,0-.08.88v1.08a4.63,4.63,0,0,0,.08.88,2.32,2.32,0,0,0,.26.7,1.27,1.27,0,0,0,.44.45A1.3,1.3,0,0,0,31.06,35.78Z"/><path d="M84.9,33.89v-.82h2.48v.82Z"/><path d="M90.89,36.48a2.43,2.43,0,0,1-.92-.17,1.89,1.89,0,0,1-.7-.51,2,2,0,0,1-.45-.8,3.53,3.53,0,0,1-.15-1.06,4.18,4.18,0,0,1,.22-1.39,5,5,0,0,1,.57-1.19,5.19,5.19,0,0,1,.76-.95,4.74,4.74,0,0,1,.82-.67h1c-.35.26-.67.51-1,.76a5.26,5.26,0,0,0-.73.77,4.24,4.24,0,0,0-.53.86,4.88,4.88,0,0,0-.35,1l0,0a2.09,2.09,0,0,1,.61-.68,1.65,1.65,0,0,1,1-.27,2,2,0,0,1,.79.14,1.64,1.64,0,0,1,.62.41,1.93,1.93,0,0,1,.4.65,2.24,2.24,0,0,1,.15.84,2.31,2.31,0,0,1-.16.89,1.94,1.94,0,0,1-.44.7,2.21,2.21,0,0,1-.7.45A2.45,2.45,0,0,1,90.89,36.48Zm0-.7a1.26,1.26,0,0,0,1.39-1.4v-.07a1.39,1.39,0,1,0-2.77,0v.07a1.26,1.26,0,0,0,1.38,1.4Z"/><path d="M98.47,30.44H95.56L95.37,33h.07a1.91,1.91,0,0,1,.53-.53,1.4,1.4,0,0,1,.82-.2,2,2,0,0,1,.79.14,1.88,1.88,0,0,1,.63.4,1.85,1.85,0,0,1,.41.64,2.41,2.41,0,0,1,.15.87,2.56,2.56,0,0,1-.15.89,1.9,1.9,0,0,1-.44.69,2.15,2.15,0,0,1-.71.45,2.45,2.45,0,0,1-.93.16,2.73,2.73,0,0,1-.74-.09,2.21,2.21,0,0,1-.56-.25,2.65,2.65,0,0,1-.44-.36,3.39,3.39,0,0,1-.33-.42l.59-.45a3.38,3.38,0,0,0,.27.36,1.27,1.27,0,0,0,.3.27,1.21,1.21,0,0,0,.38.18,2,2,0,0,0,.53.06,1.24,1.24,0,0,0,1.38-1.38v-.1a1.24,1.24,0,0,0-1.38-1.38,1.32,1.32,0,0,0-.72.17,2.5,2.5,0,0,0-.47.39l-.68-.09.24-3.65h3.56Z"/><path d="M119.15,33.89v-.82h2.48v.82Z"/><path d="M127.35,36.37H123v-.82l2.16-2a5,5,0,0,0,.78-.91,1.78,1.78,0,0,0,.32-1v-.11a1.33,1.33,0,0,0-.31-.9,1.16,1.16,0,0,0-.92-.34,1.69,1.69,0,0,0-.53.08,1.47,1.47,0,0,0-.4.24,1.22,1.22,0,0,0-.27.36,2.53,2.53,0,0,0-.18.44l-.71-.28a2.64,2.64,0,0,1,.26-.57,2,2,0,0,1,.42-.5,1.89,1.89,0,0,1,.61-.34,2.38,2.38,0,0,1,.84-.14,2.31,2.31,0,0,1,.86.15,1.55,1.55,0,0,1,.64.4,1.73,1.73,0,0,1,.39.6,2,2,0,0,1,.14.78,2.09,2.09,0,0,1-.11.72,2.6,2.6,0,0,1-.3.63,3.5,3.5,0,0,1-.46.59c-.18.19-.37.38-.58.57l-1.79,1.61h3.49Z"/><path d="M132.72,30.44h-2.91L129.62,33h.07a1.91,1.91,0,0,1,.53-.53,1.42,1.42,0,0,1,.82-.2,2,2,0,0,1,.79.14,1.88,1.88,0,0,1,.63.4,1.85,1.85,0,0,1,.41.64,2.41,2.41,0,0,1,.15.87,2.56,2.56,0,0,1-.15.89,1.9,1.9,0,0,1-.44.69,2.15,2.15,0,0,1-.71.45,2.45,2.45,0,0,1-.93.16,2.73,2.73,0,0,1-.74-.09,2.21,2.21,0,0,1-.56-.25,2.65,2.65,0,0,1-.44-.36,3.39,3.39,0,0,1-.33-.42l.6-.45a2.36,2.36,0,0,0,.26.36,1.27,1.27,0,0,0,.3.27,1.21,1.21,0,0,0,.38.18,2,2,0,0,0,.53.06,1.24,1.24,0,0,0,1.38-1.38v-.1a1.24,1.24,0,0,0-1.38-1.38,1.32,1.32,0,0,0-.72.17,2.5,2.5,0,0,0-.47.39l-.67-.09.23-3.65h3.56Z"/><path d="M160.31,36.48a1.87,1.87,0,0,1-1.73-.9,4.82,4.82,0,0,1-.55-2.53,4.81,4.81,0,0,1,.55-2.52,1.88,1.88,0,0,1,1.73-.91,1.9,1.9,0,0,1,1.74.91,4.91,4.91,0,0,1,.54,2.52,4.93,4.93,0,0,1-.54,2.53A1.9,1.9,0,0,1,160.31,36.48Zm0-.7a1.3,1.3,0,0,0,.67-.16,1.27,1.27,0,0,0,.44-.45,2.32,2.32,0,0,0,.26-.7,4.63,4.63,0,0,0,.08-.88V32.51a4.79,4.79,0,0,0-.08-.88,2.36,2.36,0,0,0-.26-.69,1.19,1.19,0,0,0-.44-.45,1.3,1.3,0,0,0-.67-.16,1.24,1.24,0,0,0-.66.16,1.21,1.21,0,0,0-.45.45,2.35,2.35,0,0,0-.25.69,4.79,4.79,0,0,0-.08.88v1.08a4.63,4.63,0,0,0,.08.88,2.31,2.31,0,0,0,.25.7,1.29,1.29,0,0,0,.45.45A1.24,1.24,0,0,0,160.31,35.78Z"/><path d="M193.78,36.37h-4.35v-.82l2.16-2a5,5,0,0,0,.78-.91,1.76,1.76,0,0,0,.31-1v-.11a1.32,1.32,0,0,0-.3-.9,1.16,1.16,0,0,0-.92-.34,1.69,1.69,0,0,0-.53.08,1.19,1.19,0,0,0-.67.6,1.93,1.93,0,0,0-.18.44l-.71-.28a2.64,2.64,0,0,1,.26-.57,2,2,0,0,1,.42-.5,1.89,1.89,0,0,1,.61-.34,2.56,2.56,0,0,1,1.7,0,1.62,1.62,0,0,1,.64.4,1.73,1.73,0,0,1,.39.6,2.21,2.21,0,0,1,.14.78,2.36,2.36,0,0,1-.11.72,2.6,2.6,0,0,1-.3.63,4.1,4.1,0,0,1-.46.59c-.18.19-.37.38-.58.57l-1.79,1.61h3.49Z"/><path d="M199.14,30.44h-2.9L196.05,33h.06a2.08,2.08,0,0,1,.54-.53,1.4,1.4,0,0,1,.82-.2,2,2,0,0,1,.79.14,1.88,1.88,0,0,1,.63.4,2,2,0,0,1,.41.64,2.41,2.41,0,0,1,.15.87,2.56,2.56,0,0,1-.15.89,1.92,1.92,0,0,1-.45.69,2,2,0,0,1-.7.45,2.49,2.49,0,0,1-.93.16,2.73,2.73,0,0,1-.74-.09,2.46,2.46,0,0,1-.57-.25,3,3,0,0,1-.43-.36,4.78,4.78,0,0,1-.34-.42l.6-.45c.09.13.17.25.26.36a1.54,1.54,0,0,0,.31.27,1.21,1.21,0,0,0,.38.18,2,2,0,0,0,.53.06,1.24,1.24,0,0,0,1.38-1.38v-.1a1.24,1.24,0,0,0-1.38-1.38,1.32,1.32,0,0,0-.72.17,2.22,2.22,0,0,0-.47.39l-.68-.09.24-3.65h3.55Z"/><path d="M225.83,36.48a2.25,2.25,0,0,1-.92-.17,1.89,1.89,0,0,1-.7-.51,2,2,0,0,1-.45-.8,3.53,3.53,0,0,1-.15-1.06,4.18,4.18,0,0,1,.22-1.39,5.43,5.43,0,0,1,.56-1.19,5.69,5.69,0,0,1,.77-.95,4.74,4.74,0,0,1,.82-.67h1c-.35.26-.67.51-.95.76a5.26,5.26,0,0,0-.73.77,4.24,4.24,0,0,0-.53.86,4.88,4.88,0,0,0-.35,1l.05,0a2.09,2.09,0,0,1,.61-.68,1.65,1.65,0,0,1,1-.27,2,2,0,0,1,.79.14,1.64,1.64,0,0,1,.62.41,1.93,1.93,0,0,1,.4.65,2.24,2.24,0,0,1,.15.84,2.31,2.31,0,0,1-.16.89,1.84,1.84,0,0,1-.45.7,2.06,2.06,0,0,1-.69.45A2.45,2.45,0,0,1,225.83,36.48Zm0-.7a1.26,1.26,0,0,0,1.39-1.4v-.07a1.39,1.39,0,1,0-2.77,0v.07a1.26,1.26,0,0,0,1.38,1.4Z"/><path d="M233.41,30.44H230.5L230.31,33h.07a1.91,1.91,0,0,1,.53-.53,1.42,1.42,0,0,1,.82-.2,2,2,0,0,1,.79.14,1.88,1.88,0,0,1,.63.4,1.8,1.8,0,0,1,.41.65,2.31,2.31,0,0,1,.15.86,2.56,2.56,0,0,1-.15.89,1.9,1.9,0,0,1-.44.69,2.15,2.15,0,0,1-.71.45,2.45,2.45,0,0,1-.93.16,2.73,2.73,0,0,1-.74-.09,2.21,2.21,0,0,1-.56-.25,2.65,2.65,0,0,1-.44-.36,3.39,3.39,0,0,1-.33-.42l.59-.45a3.38,3.38,0,0,0,.27.36,1.27,1.27,0,0,0,.3.27,1.17,1.17,0,0,0,.39.18,1.9,1.9,0,0,0,.52.06,1.24,1.24,0,0,0,1.38-1.38v-.1a1.24,1.24,0,0,0-1.38-1.38,1.32,1.32,0,0,0-.72.17,2.5,2.5,0,0,0-.47.39l-.67-.09.23-3.65h3.56Z"/><path d="M255.15,36.37v-.7H257V30.33h-.06l-1.67,1.56-.47-.51,1.76-1.64h1.24v5.93h1.71v.7Z"/><path d="M262.87,36.48a1.89,1.89,0,0,1-1.74-.9,4.93,4.93,0,0,1-.54-2.53,4.91,4.91,0,0,1,.54-2.52,2.12,2.12,0,0,1,3.47,0,4.91,4.91,0,0,1,.55,2.52,4.92,4.92,0,0,1-.55,2.53A1.87,1.87,0,0,1,262.87,36.48Zm0-.7a1.24,1.24,0,0,0,.66-.16,1.38,1.38,0,0,0,.45-.45,2.61,2.61,0,0,0,.25-.7,4.63,4.63,0,0,0,.08-.88V32.51a4.79,4.79,0,0,0-.08-.88,2.67,2.67,0,0,0-.25-.69,1.38,1.38,0,0,0-.45-.45,1.24,1.24,0,0,0-.66-.16,1.28,1.28,0,0,0-.67.16,1.38,1.38,0,0,0-.45.45,2.67,2.67,0,0,0-.25.69,4.79,4.79,0,0,0-.08.88v1.08a4.63,4.63,0,0,0,.08.88,2.61,2.61,0,0,0,.25.7,1.38,1.38,0,0,0,.45.45A1.28,1.28,0,0,0,262.87,35.78Z"/><path d="M270.45,30.44h-2.91L267.35,33h.07a1.91,1.91,0,0,1,.53-.53,1.42,1.42,0,0,1,.82-.2,2.22,2.22,0,0,1,.79.14,1.88,1.88,0,0,1,.63.4,1.8,1.8,0,0,1,.41.65,2.31,2.31,0,0,1,.15.86,2.56,2.56,0,0,1-.15.89,1.9,1.9,0,0,1-.44.69,2,2,0,0,1-.71.45,2.45,2.45,0,0,1-.93.16,2.73,2.73,0,0,1-.74-.09,2.21,2.21,0,0,1-.56-.25,2.65,2.65,0,0,1-.44-.36,3.39,3.39,0,0,1-.33-.42l.6-.45a2.36,2.36,0,0,0,.26.36,1.27,1.27,0,0,0,.3.27,1.17,1.17,0,0,0,.39.18,2,2,0,0,0,.52.06,1.25,1.25,0,0,0,1.39-1.38v-.1a1.41,1.41,0,0,0-.36-1,1.37,1.37,0,0,0-1-.36,1.34,1.34,0,0,0-.72.17,2.5,2.5,0,0,0-.47.39l-.67-.09.23-3.65h3.56Z"/><path d="M289.3,36.37v-.7h1.85V30.33h-.07l-1.67,1.55-.46-.5,1.75-1.64H292v5.93h1.71v.7Z"/><path d="M298.89,30.44H296L295.8,33h.06a2.08,2.08,0,0,1,.54-.53,1.4,1.4,0,0,1,.82-.2,2,2,0,0,1,.79.14,1.88,1.88,0,0,1,.63.4,2,2,0,0,1,.41.64,2.41,2.41,0,0,1,.15.87,2.56,2.56,0,0,1-.15.89,1.92,1.92,0,0,1-.45.69,2,2,0,0,1-.7.45,2.5,2.5,0,0,1-.94.16,2.7,2.7,0,0,1-.73-.09,2.46,2.46,0,0,1-.57-.25,2.56,2.56,0,0,1-.43-.36,4.78,4.78,0,0,1-.34-.42l.6-.45a3.32,3.32,0,0,0,.26.36,1.31,1.31,0,0,0,.31.27,1.21,1.21,0,0,0,.38.18,2,2,0,0,0,.52.06,1.38,1.38,0,0,0,1-.36,1.42,1.42,0,0,0,.35-1v-.1a1.42,1.42,0,0,0-.35-1,1.38,1.38,0,0,0-1-.36,1.31,1.31,0,0,0-.71.17,2.22,2.22,0,0,0-.47.39l-.68-.09.24-3.65h3.55Z"/><path d="M302.71,36.48a1.87,1.87,0,0,1-1.73-.9,4.82,4.82,0,0,1-.55-2.53,4.81,4.81,0,0,1,.55-2.52,1.88,1.88,0,0,1,1.73-.91,1.9,1.9,0,0,1,1.74.91,4.91,4.91,0,0,1,.54,2.52,4.93,4.93,0,0,1-.54,2.53A1.9,1.9,0,0,1,302.71,36.48Zm0-.7a1.3,1.3,0,0,0,.67-.16,1.27,1.27,0,0,0,.44-.45,2.32,2.32,0,0,0,.26-.7,4.63,4.63,0,0,0,.08-.88V32.51a4.79,4.79,0,0,0-.08-.88,2.36,2.36,0,0,0-.26-.69,1.19,1.19,0,0,0-.44-.45,1.3,1.3,0,0,0-.67-.16,1.24,1.24,0,0,0-.66.16,1.15,1.15,0,0,0-.45.45,2.35,2.35,0,0,0-.25.69,4.79,4.79,0,0,0-.08.88v1.08a4.63,4.63,0,0,0,.08.88,2.31,2.31,0,0,0,.25.7,1.21,1.21,0,0,0,.45.45A1.24,1.24,0,0,0,302.71,35.78Z"/><path d="M95.71,50.45l-.66-2H92.37l-.67,2h-.8l2.32-6.63h1l2.32,6.63Zm-2-5.89h0l-1.12,3.23h2.29Z"/><path d="M97.58,50.45v-4.9h.76v.79h0a1.55,1.55,0,0,1,.51-.66,1.46,1.46,0,0,1,.88-.24,1.51,1.51,0,0,1,1.2.49,1.94,1.94,0,0,1,.44,1.38v3.14h-.76v-3c0-.89-.37-1.33-1.11-1.33a1.61,1.61,0,0,0-.44.06,1.19,1.19,0,0,0-.38.17.75.75,0,0,0-.27.29.82.82,0,0,0-.1.42v3.4Z"/><path d="M104.82,50.57a2.19,2.19,0,0,1-.9-.18,2.1,2.1,0,0,1-.7-.52,2.54,2.54,0,0,1-.45-.81,3.56,3.56,0,0,1,0-2.11,2.43,2.43,0,0,1,.45-.81,2,2,0,0,1,.7-.52,2.34,2.34,0,0,1,1.8,0,2,2,0,0,1,.7.52,2.29,2.29,0,0,1,.46.81,3.56,3.56,0,0,1,0,2.11,2.38,2.38,0,0,1-.46.81,2.1,2.1,0,0,1-.7.52A2.19,2.19,0,0,1,104.82,50.57Zm0-.68a1.35,1.35,0,0,0,1-.38,1.55,1.55,0,0,0,.39-1.16v-.7a1.56,1.56,0,0,0-.39-1.16,1.52,1.52,0,0,0-2,0,1.56,1.56,0,0,0-.39,1.16v.7a1.55,1.55,0,0,0,.39,1.16A1.34,1.34,0,0,0,104.82,49.89Z"/><path d="M108.29,50.45v-4.9h.76v.79h0a3.9,3.9,0,0,1,.19-.35,1.5,1.5,0,0,1,.27-.29,1.08,1.08,0,0,1,.37-.19,1.41,1.41,0,0,1,.49-.07,1.71,1.71,0,0,1,.89.23,1.32,1.32,0,0,1,.61.76h0a1.47,1.47,0,0,1,.5-.7,1.56,1.56,0,0,1,1-.29,1.45,1.45,0,0,1,1.17.49,2,2,0,0,1,.43,1.38v3.14h-.76v-3a1.6,1.6,0,0,0-.26-1,1,1,0,0,0-.82-.34,1.54,1.54,0,0,0-.43.06,1.09,1.09,0,0,0-.36.17.8.8,0,0,0-.26.29.93.93,0,0,0-.1.42v3.4h-.76v-3a1.61,1.61,0,0,0-.25-1,.93.93,0,0,0-.8-.34,1.61,1.61,0,0,0-.44.06,1.14,1.14,0,0,0-.37.17.91.91,0,0,0-.26.29.82.82,0,0,0-.1.42v3.4Z"/><path d="M120.15,50.45a.77.77,0,0,1-.62-.22,1.21,1.21,0,0,1-.23-.57h0a1.22,1.22,0,0,1-.53.68,1.65,1.65,0,0,1-.88.23,1.75,1.75,0,0,1-1.21-.4,1.4,1.4,0,0,1-.43-1.08,1.23,1.23,0,0,1,.5-1.07,2.69,2.69,0,0,1,1.58-.37h1v-.48a1.05,1.05,0,0,0-.28-.8,1.18,1.18,0,0,0-.87-.28,1.35,1.35,0,0,0-.75.2,1.69,1.69,0,0,0-.5.53l-.46-.42a1.73,1.73,0,0,1,.64-.68,2,2,0,0,1,1.1-.28,2,2,0,0,1,1.39.43,1.54,1.54,0,0,1,.49,1.22v2.69h.56v.67ZM118,49.92a1.68,1.68,0,0,0,.52-.07,1.19,1.19,0,0,0,.41-.18.92.92,0,0,0,.27-.29.7.7,0,0,0,.09-.35v-.81h-1a1.82,1.82,0,0,0-1,.19.62.62,0,0,0-.3.55v.2a.67.67,0,0,0,.26.56A1.17,1.17,0,0,0,118,49.92Z"/><path d="M122.47,50.45a.79.79,0,0,1-.61-.22.83.83,0,0,1-.2-.56V43.42h.76v6.36h.72v.67Z"/><path d="M124.62,44.4a.49.49,0,0,1-.36-.12.45.45,0,0,1-.1-.31v-.12a.45.45,0,0,1,.1-.31.49.49,0,0,1,.36-.12.47.47,0,0,1,.36.12.45.45,0,0,1,.11.31V44a.45.45,0,0,1-.11.31A.47.47,0,0,1,124.62,44.4Zm-.38,1.15H125v4.9h-.76Z"/><path d="M130.18,50.45a.73.73,0,0,1-.61-.22,1.22,1.22,0,0,1-.24-.57h0a1.28,1.28,0,0,1-.54.68,1.65,1.65,0,0,1-.88.23,1.75,1.75,0,0,1-1.21-.4,1.4,1.4,0,0,1-.43-1.08,1.24,1.24,0,0,1,.51-1.07,2.65,2.65,0,0,1,1.58-.37h1v-.48a1.06,1.06,0,0,0-.29-.8,1.18,1.18,0,0,0-.87-.28,1.35,1.35,0,0,0-.75.2,1.81,1.81,0,0,0-.5.53l-.45-.42a1.64,1.64,0,0,1,.63-.68,2,2,0,0,1,1.1-.28,2,2,0,0,1,1.39.43,1.55,1.55,0,0,1,.5,1.22v2.69h.56v.67ZM128,49.92a1.79,1.79,0,0,0,.53-.07,1.38,1.38,0,0,0,.41-.18,1,1,0,0,0,.26-.29.71.71,0,0,0,.1-.35v-.81h-1a1.82,1.82,0,0,0-1,.19.62.62,0,0,0-.3.55v.2a.65.65,0,0,0,.27.56A1.14,1.14,0,0,0,128,49.92Z"/><path d="M137.07,49.66h0a1.5,1.5,0,0,1-1.44.91,1.83,1.83,0,0,1-.82-.18,1.66,1.66,0,0,1-.63-.52,2.23,2.23,0,0,1-.4-.8,4.12,4.12,0,0,1,0-2.13,2.2,2.2,0,0,1,.4-.81,1.73,1.73,0,0,1,.63-.51,1.83,1.83,0,0,1,.82-.18,1.62,1.62,0,0,1,.88.22,1.37,1.37,0,0,1,.56.68h0V43.42h.76v7h-.76Zm-1.27.23a1.93,1.93,0,0,0,.49-.06,1.31,1.31,0,0,0,.41-.2.88.88,0,0,0,.37-.74V47.06a.83.83,0,0,0-.1-.38,1,1,0,0,0-.27-.3,1.56,1.56,0,0,0-.41-.2,1.93,1.93,0,0,0-.49-.07,1.29,1.29,0,0,0-1,.41,1.49,1.49,0,0,0-.37,1.06v.84a1.52,1.52,0,0,0,.37,1.07A1.28,1.28,0,0,0,135.8,49.89Z"/><path d="M141.28,50.57a2.19,2.19,0,0,1-.9-.18,2.1,2.1,0,0,1-.7-.52,2.34,2.34,0,0,1-.44-.81,3.56,3.56,0,0,1,0-2.11,2.25,2.25,0,0,1,.44-.81,2,2,0,0,1,.7-.52,2.19,2.19,0,0,1,.9-.18,2.11,2.11,0,0,1,.89.18,1.9,1.9,0,0,1,.66.49,2.09,2.09,0,0,1,.42.76,2.91,2.91,0,0,1,.15,1v.36h-3.52v.23a1.66,1.66,0,0,0,.1.59,1.4,1.4,0,0,0,.28.47,1.49,1.49,0,0,0,.46.31,1.66,1.66,0,0,0,.61.11,1.39,1.39,0,0,0,1.35-.84l.54.39a1.88,1.88,0,0,1-.74.82A2.3,2.3,0,0,1,141.28,50.57Zm0-4.5a1.48,1.48,0,0,0-.57.11,1.52,1.52,0,0,0-.44.31A1.49,1.49,0,0,0,140,47a1.59,1.59,0,0,0-.1.59v.06h2.71v-.1a1.46,1.46,0,0,0-.36-1A1.2,1.2,0,0,0,141.28,46.07Z"/><path d="M151.27,49.49h0a1.28,1.28,0,0,1-.6.77,2.24,2.24,0,0,1-1.24.31,2.73,2.73,0,0,1-1.12-.23,2.22,2.22,0,0,1-.87-.65,3.11,3.11,0,0,1-.56-1.07,4.76,4.76,0,0,1-.21-1.48,5.07,5.07,0,0,1,.2-1.47,2.8,2.8,0,0,1,.57-1.07,2.5,2.5,0,0,1,.89-.66,2.76,2.76,0,0,1,1.16-.23,2.66,2.66,0,0,1,1.49.39,2.77,2.77,0,0,1,.93,1l-.66.4a1.86,1.86,0,0,0-.68-.83,1.83,1.83,0,0,0-1.08-.31,1.94,1.94,0,0,0-.8.16A1.8,1.8,0,0,0,148,45a2,2,0,0,0-.4.69,2.52,2.52,0,0,0-.14.89v1.08a2.58,2.58,0,0,0,.14.9,1.84,1.84,0,0,0,1,1.14,2.35,2.35,0,0,0,.86.15,2.32,2.32,0,0,0,.65-.09,1.52,1.52,0,0,0,.54-.27,1.24,1.24,0,0,0,.37-.45,1.45,1.45,0,0,0,.13-.65v-.65h-1.46V47H152v3.41h-.74Z"/><path d="M155.34,50.57a2.16,2.16,0,0,1-.9-.18,2.1,2.1,0,0,1-.7-.52,2.34,2.34,0,0,1-.44-.81,3.56,3.56,0,0,1,0-2.11,2.25,2.25,0,0,1,.44-.81,2,2,0,0,1,.7-.52,2.16,2.16,0,0,1,.9-.18,2.11,2.11,0,0,1,.89.18,1.9,1.9,0,0,1,.66.49,2.09,2.09,0,0,1,.42.76,2.91,2.91,0,0,1,.15,1v.36h-3.52v.23a1.66,1.66,0,0,0,.1.59,1.4,1.4,0,0,0,.28.47,1.49,1.49,0,0,0,.46.31,1.66,1.66,0,0,0,.61.11,1.39,1.39,0,0,0,1.35-.84l.54.39a1.88,1.88,0,0,1-.74.82A2.3,2.3,0,0,1,155.34,50.57Zm0-4.5a1.48,1.48,0,0,0-.57.11,1.4,1.4,0,0,0-.44.31A1.49,1.49,0,0,0,154,47a1.59,1.59,0,0,0-.1.59v.06h2.7v-.1a1.46,1.46,0,0,0-.35-1A1.2,1.2,0,0,0,155.34,46.07Z"/><path d="M160.57,50.57a2.19,2.19,0,0,1-.9-.18,1.92,1.92,0,0,1-.7-.52,2.21,2.21,0,0,1-.45-.81,3.36,3.36,0,0,1,0-2.11,2.13,2.13,0,0,1,.45-.81,1.81,1.81,0,0,1,.7-.52,2.34,2.34,0,0,1,1.8,0,1.94,1.94,0,0,1,.69.52,2.29,2.29,0,0,1,.46.81,3.56,3.56,0,0,1,0,2.11,2.38,2.38,0,0,1-.46.81,2.06,2.06,0,0,1-.69.52A2.19,2.19,0,0,1,160.57,50.57Zm0-.68a1.36,1.36,0,0,0,1-.38,1.59,1.59,0,0,0,.38-1.16v-.7a1.6,1.6,0,0,0-.38-1.16,1.53,1.53,0,0,0-2,0,1.56,1.56,0,0,0-.39,1.16v.7a1.55,1.55,0,0,0,.39,1.16A1.36,1.36,0,0,0,160.57,49.89Z"/><path d="M164,45.55h.76v.79h0a1.42,1.42,0,0,1,.56-.68,1.64,1.64,0,0,1,.88-.22,1.83,1.83,0,0,1,.82.18,1.86,1.86,0,0,1,.64.51,2.56,2.56,0,0,1,.4.81,4.43,4.43,0,0,1,0,2.13,2.61,2.61,0,0,1-.4.8,1.77,1.77,0,0,1-.64.52,1.83,1.83,0,0,1-.82.18,1.48,1.48,0,0,1-1.44-.91h0v2.69H164Zm2,4.34a1.32,1.32,0,0,0,1-.4,1.56,1.56,0,0,0,.37-1.07v-.84a1.54,1.54,0,0,0-.37-1.06,1.33,1.33,0,0,0-1-.41,1.93,1.93,0,0,0-.49.07,1.36,1.36,0,0,0-.4.2.77.77,0,0,0-.27.3.72.72,0,0,0-.1.38v1.83a.88.88,0,0,0,.1.43.8.8,0,0,0,.27.31,1.16,1.16,0,0,0,.4.2A1.93,1.93,0,0,0,166.06,49.89Z"/><path d="M171.4,50.57a2.27,2.27,0,0,1-.91-.18,2,2,0,0,1-.69-.52,2.21,2.21,0,0,1-.45-.81,3.36,3.36,0,0,1,0-2.11,2.13,2.13,0,0,1,.45-.81,1.86,1.86,0,0,1,.69-.52,2.27,2.27,0,0,1,.91-.18,2.19,2.19,0,0,1,.9.18,1.94,1.94,0,0,1,.69.52,2.29,2.29,0,0,1,.46.81,3.56,3.56,0,0,1,0,2.11,2.38,2.38,0,0,1-.46.81,2.06,2.06,0,0,1-.69.52A2.19,2.19,0,0,1,171.4,50.57Zm0-.68a1.34,1.34,0,0,0,1-.38,1.55,1.55,0,0,0,.39-1.16v-.7a1.56,1.56,0,0,0-.39-1.16,1.38,1.38,0,0,0-1-.38,1.41,1.41,0,0,0-1,.38,1.56,1.56,0,0,0-.39,1.16v.7a1.55,1.55,0,0,0,.39,1.16A1.36,1.36,0,0,0,171.4,49.89Z"/><path d="M176,50.45a.79.79,0,0,1-.61-.22.85.85,0,0,1-.2-.58V46.23h-.81v-.68h.46a.45.45,0,0,0,.34-.1.53.53,0,0,0,.09-.35v-.91h.68v1.36H177v.68H175.9v3.55h1v.67Z"/><path d="M180,50.57a2.19,2.19,0,0,1-.9-.18,2.1,2.1,0,0,1-.7-.52,2.34,2.34,0,0,1-.44-.81A3.56,3.56,0,0,1,178,47a2.25,2.25,0,0,1,.44-.81,2,2,0,0,1,.7-.52,2.19,2.19,0,0,1,.9-.18,2.11,2.11,0,0,1,.89.18,1.9,1.9,0,0,1,.66.49,2.27,2.27,0,0,1,.43.76,3.21,3.21,0,0,1,.14,1v.36H178.6v.23a1.66,1.66,0,0,0,.1.59,1.4,1.4,0,0,0,.28.47,1.49,1.49,0,0,0,.46.31,1.66,1.66,0,0,0,.61.11,1.53,1.53,0,0,0,.81-.21,1.45,1.45,0,0,0,.54-.63l.54.39a1.88,1.88,0,0,1-.74.82A2.28,2.28,0,0,1,180,50.57Zm0-4.5a1.56,1.56,0,0,0-.57.11,1.52,1.52,0,0,0-.44.31,1.49,1.49,0,0,0-.29.47,1.59,1.59,0,0,0-.1.59v.06h2.71v-.1a1.46,1.46,0,0,0-.36-1A1.2,1.2,0,0,0,180,46.07Z"/><path d="M183.38,50.45v-4.9h.76v.79h0a1.61,1.61,0,0,1,.5-.66,1.46,1.46,0,0,1,.88-.24,1.51,1.51,0,0,1,1.2.49,1.94,1.94,0,0,1,.45,1.38v3.14h-.76v-3c0-.89-.37-1.33-1.12-1.33a1.61,1.61,0,0,0-.44.06,1.19,1.19,0,0,0-.38.17.75.75,0,0,0-.27.29.82.82,0,0,0-.1.42v3.4Z"/><path d="M190.6,50.57a2.22,2.22,0,0,1-.92-.18,1.71,1.71,0,0,1-.69-.52,2.28,2.28,0,0,1-.43-.8,3.86,3.86,0,0,1,0-2.13,2.24,2.24,0,0,1,.43-.81,1.78,1.78,0,0,1,.69-.51,2.22,2.22,0,0,1,.92-.18,1.93,1.93,0,0,1,1.17.32,2,2,0,0,1,.66.83l-.64.32a1.18,1.18,0,0,0-.43-.59,1.33,1.33,0,0,0-.76-.21,1.57,1.57,0,0,0-.6.11,1.13,1.13,0,0,0-.43.31,1.38,1.38,0,0,0-.26.46,2.21,2.21,0,0,0-.08.59v.84a1.56,1.56,0,0,0,.35,1.06,1.24,1.24,0,0,0,1,.41,1.39,1.39,0,0,0,1.33-.85l.55.37a2,2,0,0,1-.71.84A2,2,0,0,1,190.6,50.57Z"/><path d="M193.93,44.4a.49.49,0,0,1-.36-.12.45.45,0,0,1-.1-.31v-.12a.45.45,0,0,1,.1-.31.49.49,0,0,1,.36-.12.47.47,0,0,1,.36.12.45.45,0,0,1,.11.31V44a.45.45,0,0,1-.11.31A.47.47,0,0,1,193.93,44.4Zm-.38,1.15h.76v4.9h-.76Z"/><path d="M199.49,50.45a.73.73,0,0,1-.61-.22,1.13,1.13,0,0,1-.24-.57h0a1.28,1.28,0,0,1-.54.68,1.65,1.65,0,0,1-.88.23,1.75,1.75,0,0,1-1.21-.4,1.4,1.4,0,0,1-.43-1.08A1.26,1.26,0,0,1,196,48a2.7,2.7,0,0,1,1.59-.37h1v-.48a1.06,1.06,0,0,0-.29-.8,1.18,1.18,0,0,0-.87-.28,1.35,1.35,0,0,0-.75.2,1.69,1.69,0,0,0-.5.53l-.45-.42a1.64,1.64,0,0,1,.63-.68,2,2,0,0,1,1.1-.28,2,2,0,0,1,1.39.43,1.55,1.55,0,0,1,.5,1.22v2.69h.56v.67Zm-2.19-.53a1.79,1.79,0,0,0,.53-.07,1.22,1.22,0,0,0,.4-.18.92.92,0,0,0,.27-.29.71.71,0,0,0,.1-.35v-.81h-1a1.82,1.82,0,0,0-1,.19.62.62,0,0,0-.3.55v.2a.65.65,0,0,0,.27.56A1.14,1.14,0,0,0,197.3,49.92Z"/><path d="M201.81,50.45a.79.79,0,0,1-.61-.22.83.83,0,0,1-.2-.56V43.42h.76v6.36h.72v.67Z"/><path d="M205.81,47.49a6.29,6.29,0,0,1,.13-1.32A6.78,6.78,0,0,1,206.3,45a5.61,5.61,0,0,1,.55-1,4.18,4.18,0,0,1,.68-.76h.72a4.7,4.7,0,0,0-.72.82,6,6,0,0,0-.89,2,4.73,4.73,0,0,0-.12,1v.82a4.66,4.66,0,0,0,.12,1A5.63,5.63,0,0,0,207,50a7.12,7.12,0,0,0,.55,1,4.56,4.56,0,0,0,.71.8h-.72a3.8,3.8,0,0,1-.67-.75,5.51,5.51,0,0,1-.55-1,7,7,0,0,1-.37-1.2A6.38,6.38,0,0,1,205.81,47.49Z"/><path d="M213.24,51a1.18,1.18,0,0,1-.6,1.11,3.51,3.51,0,0,1-1.78.36,3.21,3.21,0,0,1-1.65-.32,1,1,0,0,1-.51-.89.88.88,0,0,1,.21-.62,1.23,1.23,0,0,1,.57-.33v-.1a.71.71,0,0,1-.43-.68.65.65,0,0,1,.23-.56,1.51,1.51,0,0,1,.61-.29v0a1.59,1.59,0,0,1-.68-.6,1.69,1.69,0,0,1-.24-.91,1.72,1.72,0,0,1,.13-.68,1.62,1.62,0,0,1,1-.89,2.19,2.19,0,0,1,.75-.12,2.12,2.12,0,0,1,.93.19v-.09a.77.77,0,0,1,.14-.47.47.47,0,0,1,.43-.19H213v.67h-.93v.32a1.58,1.58,0,0,1,.42.54,1.89,1.89,0,0,1,.14.72,1.73,1.73,0,0,1-.13.69,1.58,1.58,0,0,1-.37.54,1.92,1.92,0,0,1-.59.35,2.29,2.29,0,0,1-.76.12,2.42,2.42,0,0,1-.47,0,1.54,1.54,0,0,0-.45.2.39.39,0,0,0-.2.35.29.29,0,0,0,.21.3,1.65,1.65,0,0,0,.54.07h1.05a2,2,0,0,1,1.32.35A1.17,1.17,0,0,1,213.24,51Zm-.72,0a.57.57,0,0,0-.22-.47,1.3,1.3,0,0,0-.79-.17h-1.64a.69.69,0,0,0-.45.66.72.72,0,0,0,.24.55,1.18,1.18,0,0,0,.82.23h.7a2,2,0,0,0,1-.2A.63.63,0,0,0,212.52,51.05Zm-1.7-2.83a1.22,1.22,0,0,0,.77-.23.89.89,0,0,0,.29-.72V47a.88.88,0,0,0-.29-.72,1.4,1.4,0,0,0-1.54,0,.87.87,0,0,0-.28.72v.27a.89.89,0,0,0,.28.72A1.22,1.22,0,0,0,210.82,48.22Z"/><path d="M214.12,45.55h.76v.79h0a1.35,1.35,0,0,1,.55-.68,1.67,1.67,0,0,1,.88-.22,1.79,1.79,0,0,1,1.46.69,2.36,2.36,0,0,1,.4.81,4.12,4.12,0,0,1,0,2.13,2.4,2.4,0,0,1-.4.8,1.83,1.83,0,0,1-.63.52,1.9,1.9,0,0,1-.83.18,1.48,1.48,0,0,1-1.43-.91h0v2.69h-.76Zm2,4.34a1.32,1.32,0,0,0,1-.4,1.52,1.52,0,0,0,.37-1.07v-.84a1.49,1.49,0,0,0-.37-1.06,1.33,1.33,0,0,0-1-.41,2,2,0,0,0-.49.07,1.5,1.5,0,0,0-.4.2.77.77,0,0,0-.27.3.72.72,0,0,0-.1.38v1.83a.88.88,0,0,0,.1.43.8.8,0,0,0,.27.31,1.25,1.25,0,0,0,.4.2A2,2,0,0,0,216.14,49.89Z"/><path d="M219.63,50.45v-4.9h.76v.79h0a2.37,2.37,0,0,1,.19-.35,1.06,1.06,0,0,1,.27-.29,1,1,0,0,1,.36-.19,1.51,1.51,0,0,1,.5-.07,1.71,1.71,0,0,1,.89.23,1.4,1.4,0,0,1,.61.76h0a1.45,1.45,0,0,1,.49-.7,1.61,1.61,0,0,1,1-.29,1.45,1.45,0,0,1,1.17.49,2,2,0,0,1,.42,1.38v3.14h-.76v-3a1.61,1.61,0,0,0-.25-1,1,1,0,0,0-.82-.34,1.49,1.49,0,0,0-.43.06,1.14,1.14,0,0,0-.37.17.78.78,0,0,0-.25.29.82.82,0,0,0-.1.42v3.4h-.76v-3a1.54,1.54,0,0,0-.26-1,.91.91,0,0,0-.79-.34,1.56,1.56,0,0,0-.44.06,1.14,1.14,0,0,0-.37.17.8.8,0,0,0-.26.29.82.82,0,0,0-.1.42v3.4Z"/><path d="M229.51,47.49a6.38,6.38,0,0,1-.14,1.33A7,7,0,0,1,229,50a5.51,5.51,0,0,1-.55,1,4.11,4.11,0,0,1-.66.75h-.72a4.91,4.91,0,0,0,.69-.8,5.49,5.49,0,0,0,.55-1,6.51,6.51,0,0,0,.36-1.05,4.66,4.66,0,0,0,.12-1v-.82a4.73,4.73,0,0,0-.12-1,5.78,5.78,0,0,0-.35-1,5.35,5.35,0,0,0-1.25-1.79h.72a4.55,4.55,0,0,1,.67.76,5.61,5.61,0,0,1,.55,1,6.78,6.78,0,0,1,.36,1.18A6.28,6.28,0,0,1,229.51,47.49Z"/></svg>