<svg id="Camada_1" data-name="Camada 1" xmlns="http://www.w3.org/2000/svg" viewBox="0 0 320.4 57.45"><defs><style>.cls-1{opacity:0.75;}.cls-2{fill:#fff;}.cls-3{fill:#939393;}.cls-4{fill:#eb2b20;}.cls-5{fill:#d6111f;}.cls-6{fill:#bd0026;}.cls-7{fill:#0868ac;}.cls-8{fill:#001476;}.cls-9{fill:#081d58;}.cls-10{fill:#2b8cbe;}.cls-11{fill:#7bccc4;}.cls-12{fill:#a8ddb5;}.cls-13{fill:#ccebc5;}.cls-14{fill:#e0f3db;}.cls-15{fill:#ffc;}.cls-16{fill:#ffeda0;}.cls-17{fill:#fed976;}.cls-18{fill:#feb24c;}.cls-19{fill:#fc4e2a;}</style></defs><title>LEGENDAS - ESCALA</title><g class="cls-1"><path class="cls-2" d="M0,6.38C0,2.86,3.19,0,7.12,0H313.28c3.94,0,7.12,2.86,7.12,6.38V51.07c0,3.52-3.18,6.38-7.12,6.38H7.12C3.19,57.45,0,54.59,0,51.07Z"/></g><path class="cls-2" d="M166,23.58h5.47a2,2,0,0,0,2.11-2V10.68a2,2,0,0,0-2.11-2H166a2,2,0,0,0-2.11,2V21.61A2,2,0,0,0,166,23.58Z"/><path class="cls-3" d="M171.45,23.83H166a2.29,2.29,0,0,1-2.36-2.22V10.68A2.3,2.3,0,0,1,166,8.46h5.47a2.3,2.3,0,0,1,2.36,2.22V21.61A2.29,2.29,0,0,1,171.45,23.83ZM166,9a1.81,1.81,0,0,0-1.86,1.72V21.61A1.8,1.8,0,0,0,166,23.33h5.47a1.8,1.8,0,0,0,1.86-1.72V10.68A1.81,1.81,0,0,0,171.45,9Z"/><path class="cls-4" d="M46.38,23.58h5.46a2,2,0,0,0,2.11-2V10.68a2,2,0,0,0-2.11-2H46.38a2,2,0,0,0-2.11,2V21.61A2,2,0,0,0,46.38,23.58Z"/><path class="cls-5" d="M29.29,23.58h5.47a2,2,0,0,0,2.11-2V10.68a2,2,0,0,0-2.11-2H29.29a2,2,0,0,0-2.11,2V21.61A2,2,0,0,0,29.29,23.58Z"/><path class="cls-6" d="M12.2,23.58h5.47a2,2,0,0,0,2.11-2V10.68a2,2,0,0,0-2.11-2H12.2a2,2,0,0,0-2.11,2V21.61A2,2,0,0,0,12.2,23.58Z"/><path class="cls-7" d="M268.58,23.58h5.47a2,2,0,0,0,2.11-2V10.68a2,2,0,0,0-2.11-2h-5.47a2,2,0,0,0-2.11,2V21.61A2.05,2.05,0,0,0,268.58,23.58Z"/><path class="cls-8" d="M285.66,23.58h5.47a2,2,0,0,0,2.11-2V10.68a2,2,0,0,0-2.11-2h-5.47a2,2,0,0,0-2.11,2V21.61A2,2,0,0,0,285.66,23.58Z"/><path class="cls-9" d="M302.74,23.58h5.46a2,2,0,0,0,2.11-2V10.68a2,2,0,0,0-2.11-2h-5.46a2,2,0,0,0-2.11,2V21.61A2,2,0,0,0,302.74,23.58Z"/><path class="cls-10" d="M251.5,23.58H257a2,2,0,0,0,2.11-2V10.68a2,2,0,0,0-2.11-2H251.5a2,2,0,0,0-2.11,2V21.61A2,2,0,0,0,251.5,23.58Z"/><path class="cls-11" d="M234.41,23.58h5.46a2,2,0,0,0,2.11-2V10.68a2,2,0,0,0-2.11-2h-5.46a2,2,0,0,0-2.11,2V21.61A2,2,0,0,0,234.41,23.58Z"/><path class="cls-12" d="M217.33,23.58h5.46a2,2,0,0,0,2.11-2V10.68a2,2,0,0,0-2.11-2h-5.46a2,2,0,0,0-2.11,2V21.61A2,2,0,0,0,217.33,23.58Z"/><path class="cls-13" d="M200.24,23.58h5.47a2,2,0,0,0,2.1-2V10.68a2,2,0,0,0-2.1-2h-5.47a2,2,0,0,0-2.11,2V21.61A2,2,0,0,0,200.24,23.58Z"/><path class="cls-14" d="M183.15,23.58h5.47a2,2,0,0,0,2.11-2V10.68a2,2,0,0,0-2.11-2h-5.47a2,2,0,0,0-2.11,2V21.61A2,2,0,0,0,183.15,23.58Z"/><path class="cls-2" d="M148.89,23.58h5.47a2,2,0,0,0,2.11-2V10.68a2,2,0,0,0-2.11-2h-5.47a2,2,0,0,0-2.11,2V21.61A2.05,2.05,0,0,0,148.89,23.58Z"/><path class="cls-3" d="M154.36,23.83h-5.47a2.29,2.29,0,0,1-2.36-2.22V10.68a2.3,2.3,0,0,1,2.36-2.22h5.47a2.3,2.3,0,0,1,2.36,2.22V21.61A2.29,2.29,0,0,1,154.36,23.83ZM148.89,9A1.81,1.81,0,0,0,147,10.68V21.61a1.8,1.8,0,0,0,1.86,1.72h5.47a1.8,1.8,0,0,0,1.86-1.72V10.68A1.81,1.81,0,0,0,154.36,9Z"/><path class="cls-15" d="M131.81,23.58h5.47a2,2,0,0,0,2.11-2V10.68a2,2,0,0,0-2.11-2h-5.47a2,2,0,0,0-2.11,2V21.61A2,2,0,0,0,131.81,23.58Z"/><path class="cls-16" d="M114.72,23.58h5.47a2,2,0,0,0,2.11-2V10.68a2,2,0,0,0-2.11-2h-5.47a2,2,0,0,0-2.11,2V21.61A2.05,2.05,0,0,0,114.72,23.58Z"/><path class="cls-17" d="M97.63,23.58h5.47a2,2,0,0,0,2.11-2V10.68a2,2,0,0,0-2.11-2H97.63a2,2,0,0,0-2.1,2V21.61A2,2,0,0,0,97.63,23.58Z"/><path class="cls-18" d="M80.55,23.58H86a2,2,0,0,0,2.11-2V10.68a2,2,0,0,0-2.11-2H80.55a2,2,0,0,0-2.1,2V21.61A2,2,0,0,0,80.55,23.58Z"/><path class="cls-19" d="M63.47,23.58h5.46a2,2,0,0,0,2.11-2V10.68a2,2,0,0,0-2.11-2H63.47a2,2,0,0,0-2.11,2V21.61A2,2,0,0,0,63.47,23.58Z"/><path d="M53.69,33.72V32.9h2.48v.82Z"/><path d="M59.3,32.36a1.51,1.51,0,0,0,1-.3,1,1,0,0,0,.33-.79V31.2a1,1,0,0,0-.32-.78,1.38,1.38,0,0,0-.86-.26,1.42,1.42,0,0,0-.84.22,1.67,1.67,0,0,0-.53.61l-.59-.46a2.55,2.55,0,0,1,.3-.39,1.76,1.76,0,0,1,.41-.35,2.13,2.13,0,0,1,.55-.24,2.6,2.6,0,0,1,.71-.09,2.85,2.85,0,0,1,.79.1,1.85,1.85,0,0,1,.64.33,1.45,1.45,0,0,1,.43.52,1.51,1.51,0,0,1,.16.71,1.76,1.76,0,0,1-.1.58,1.48,1.48,0,0,1-.27.44,1.62,1.62,0,0,1-.41.32,1.74,1.74,0,0,1-.49.2v0a2,2,0,0,1,.51.19,1.45,1.45,0,0,1,.45.33,1.57,1.57,0,0,1,.31.5,1.69,1.69,0,0,1,.12.66,1.81,1.81,0,0,1-.16.78,1.76,1.76,0,0,1-.46.62,2.11,2.11,0,0,1-.71.39,2.69,2.69,0,0,1-.92.14,2.93,2.93,0,0,1-.76-.09A2.44,2.44,0,0,1,58,36a2.73,2.73,0,0,1-.45-.36,2.79,2.79,0,0,1-.35-.42l.6-.45a2.42,2.42,0,0,0,.27.36,1.4,1.4,0,0,0,.33.27,1.38,1.38,0,0,0,.41.18,2.09,2.09,0,0,0,.53.06,1.56,1.56,0,0,0,1.06-.32,1.13,1.13,0,0,0,.37-.91V34.3a1.13,1.13,0,0,0-.37-.91,1.51,1.51,0,0,0-1.06-.32h-.78v-.71Z"/><path d="M19.3,33.72V32.9h2.48v.82Z"/><path d="M26,36.2V34.9h-3.2v-.7l2.78-4.63h1.18v4.66h1v.67h-1v1.3Zm-2.45-2H26v-4h0Z"/><path d="M87.76,33.72V32.9h2.48v.82Z"/><path d="M96,36.2H91.61v-.82l2.16-2a5,5,0,0,0,.78-.91,1.75,1.75,0,0,0,.32-1V31.4a1.28,1.28,0,0,0-.31-.9,1.16,1.16,0,0,0-.92-.34,1.69,1.69,0,0,0-.53.08,1.47,1.47,0,0,0-.4.24,1.22,1.22,0,0,0-.27.36,2.53,2.53,0,0,0-.18.44L91.55,31a2.88,2.88,0,0,1,.26-.57,2,2,0,0,1,.42-.5,1.89,1.89,0,0,1,.61-.34,2.39,2.39,0,0,1,.84-.13,2.32,2.32,0,0,1,.86.14,1.66,1.66,0,0,1,.64.4,1.73,1.73,0,0,1,.39.6,2,2,0,0,1,.14.78,2.09,2.09,0,0,1-.11.72,2.5,2.5,0,0,1-.3.64,3.89,3.89,0,0,1-.46.58c-.18.19-.37.38-.58.57L92.47,35.5H96Z"/><path d="M121.71,33.72V32.9h2.48v.82Z"/><path d="M125.68,36.2v-.7h1.85V30.16h-.07l-1.67,1.56-.46-.51,1.75-1.64h1.25V35.5H130v.7Z"/><path d="M160.2,36.31a1.87,1.87,0,0,1-1.73-.9,4.81,4.81,0,0,1-.55-2.52,4.82,4.82,0,0,1,.55-2.53,1.87,1.87,0,0,1,1.73-.9,1.9,1.9,0,0,1,1.74.9,4.93,4.93,0,0,1,.54,2.53,4.91,4.91,0,0,1-.54,2.52A1.9,1.9,0,0,1,160.2,36.31Zm0-.7a1.3,1.3,0,0,0,.67-.16,1.27,1.27,0,0,0,.44-.45,2.36,2.36,0,0,0,.26-.69,4.82,4.82,0,0,0,.08-.89V32.35a4.63,4.63,0,0,0-.08-.88,2.32,2.32,0,0,0-.26-.7,1.27,1.27,0,0,0-.44-.45,1.3,1.3,0,0,0-.67-.16,1.24,1.24,0,0,0-.66.16,1.21,1.21,0,0,0-.45.45,2.31,2.31,0,0,0-.25.7,3.94,3.94,0,0,0-.08.88v1.07a4.09,4.09,0,0,0,.08.89,2.35,2.35,0,0,0,.25.69,1.21,1.21,0,0,0,.45.45A1.24,1.24,0,0,0,160.2,35.61Z"/><path d="M192.45,36.2v-.7h1.85V30.16h-.06l-1.68,1.56-.46-.51,1.76-1.64h1.24V35.5h1.71v.7Z"/><path d="M230.8,36.2h-4.35v-.82l2.17-2a5,5,0,0,0,.78-.91,1.74,1.74,0,0,0,.31-1V31.4a1.32,1.32,0,0,0-.3-.9,1.17,1.17,0,0,0-.92-.34,1.75,1.75,0,0,0-.54.08,1.28,1.28,0,0,0-.39.24,1.45,1.45,0,0,0-.28.36,1.92,1.92,0,0,0-.17.44L226.4,31a2.88,2.88,0,0,1,.26-.57,2,2,0,0,1,.42-.5,1.84,1.84,0,0,1,.6-.34,2.39,2.39,0,0,1,.84-.13,2.34,2.34,0,0,1,.87.14,1.83,1.83,0,0,1,.64.4,1.73,1.73,0,0,1,.39.6,2.21,2.21,0,0,1,.14.78,2.36,2.36,0,0,1-.11.72,2.5,2.5,0,0,1-.3.64,4.67,4.67,0,0,1-.46.58c-.18.19-.38.38-.59.57l-1.78,1.61h3.48Z"/><path d="M262.68,32.36a1.47,1.47,0,0,0,1-.3,1,1,0,0,0,.34-.79V31.2a.92.92,0,0,0-.33-.78,1.36,1.36,0,0,0-.86-.26,1.4,1.4,0,0,0-.83.22,1.58,1.58,0,0,0-.53.61l-.59-.46a2.55,2.55,0,0,1,.3-.39,1.76,1.76,0,0,1,.41-.35,2.13,2.13,0,0,1,.55-.24,2.6,2.6,0,0,1,.71-.09,2.9,2.9,0,0,1,.79.1,1.85,1.85,0,0,1,.64.33,1.45,1.45,0,0,1,.43.52,1.65,1.65,0,0,1,.16.71,1.76,1.76,0,0,1-.1.58,1.48,1.48,0,0,1-.27.44,1.62,1.62,0,0,1-.41.32,1.69,1.69,0,0,1-.5.2v0a2,2,0,0,1,.52.19,1.45,1.45,0,0,1,.45.33,1.57,1.57,0,0,1,.31.5,1.69,1.69,0,0,1,.12.66,1.81,1.81,0,0,1-.16.78,1.76,1.76,0,0,1-.46.62,2.11,2.11,0,0,1-.71.39,2.73,2.73,0,0,1-.92.14,2.88,2.88,0,0,1-.76-.09,2.44,2.44,0,0,1-.59-.25,2.73,2.73,0,0,1-.45-.36,2.79,2.79,0,0,1-.35-.42l.6-.45a2.42,2.42,0,0,0,.27.36,1.4,1.4,0,0,0,.33.27,1.28,1.28,0,0,0,.41.18,2.09,2.09,0,0,0,.53.06,1.56,1.56,0,0,0,1.06-.32,1.15,1.15,0,0,0,.36-.91V34.3a1.15,1.15,0,0,0-.36-.91,1.51,1.51,0,0,0-1.06-.32H262v-.71Z"/><path d="M297.71,36.2V34.9H294.5v-.7l2.78-4.63h1.19v4.66h1v.67h-1v1.3Zm-2.46-2h2.46v-4h0Z"/><path d="M106.24,50.28l-.66-2H102.9l-.67,2h-.8l2.32-6.63h1l2.32,6.63Zm-2-5.89h-.05l-1.12,3.23h2.29Z"/><path d="M108.11,50.28v-4.9h.76v.79h0a1.68,1.68,0,0,1,.51-.66,1.46,1.46,0,0,1,.88-.24,1.51,1.51,0,0,1,1.2.49,1.94,1.94,0,0,1,.44,1.38v3.14h-.76v-3c0-.89-.37-1.33-1.11-1.33a1.61,1.61,0,0,0-.44.06,1.46,1.46,0,0,0-.38.17.75.75,0,0,0-.27.29.82.82,0,0,0-.1.42v3.4Z"/><path d="M115.35,50.4a2.19,2.19,0,0,1-.9-.18,2,2,0,0,1-.7-.52,2.43,2.43,0,0,1-.45-.81,3.15,3.15,0,0,1-.16-1.06,3.21,3.21,0,0,1,.16-1,2.43,2.43,0,0,1,.45-.81,2,2,0,0,1,.7-.52,2.34,2.34,0,0,1,1.8,0,2,2,0,0,1,.7.52,2.29,2.29,0,0,1,.46.81,3.5,3.5,0,0,1,.16,1,3.42,3.42,0,0,1-.16,1.06,2.29,2.29,0,0,1-.46.81,2,2,0,0,1-.7.52A2.19,2.19,0,0,1,115.35,50.4Zm0-.68a1.35,1.35,0,0,0,1-.38,1.54,1.54,0,0,0,.39-1.15v-.71a1.56,1.56,0,0,0-.39-1.16,1.52,1.52,0,0,0-2,0,1.56,1.56,0,0,0-.39,1.16v.71a1.54,1.54,0,0,0,.39,1.15A1.34,1.34,0,0,0,115.35,49.72Z"/><path d="M118.82,50.28v-4.9h.76v.79h0a3.9,3.9,0,0,1,.19-.35,1.5,1.5,0,0,1,.27-.29,1.29,1.29,0,0,1,.37-.19,1.45,1.45,0,0,1,.49-.07,1.82,1.82,0,0,1,.89.23,1.35,1.35,0,0,1,.61.76h0a1.4,1.4,0,0,1,.5-.69,1.5,1.5,0,0,1,1-.3,1.45,1.45,0,0,1,1.17.49,2,2,0,0,1,.43,1.38v3.14h-.76v-3a1.6,1.6,0,0,0-.26-1,1,1,0,0,0-.82-.34,1.54,1.54,0,0,0-.43.06,1.33,1.33,0,0,0-.36.17.8.8,0,0,0-.26.29.93.93,0,0,0-.1.42v3.4h-.76v-3a1.61,1.61,0,0,0-.25-1,.93.93,0,0,0-.8-.34,1.61,1.61,0,0,0-.44.06,1.4,1.4,0,0,0-.37.17.91.91,0,0,0-.26.29.82.82,0,0,0-.1.42v3.4Z"/><path d="M130.68,50.28a.77.77,0,0,1-.62-.22,1.17,1.17,0,0,1-.23-.57h-.05a1.22,1.22,0,0,1-.53.68,1.65,1.65,0,0,1-.88.23,1.7,1.7,0,0,1-1.21-.4,1.4,1.4,0,0,1-.43-1.08,1.23,1.23,0,0,1,.5-1.07,2.78,2.78,0,0,1,1.59-.37h1V47a1.05,1.05,0,0,0-.28-.8,1.23,1.23,0,0,0-.87-.28,1.35,1.35,0,0,0-.75.2,1.63,1.63,0,0,0-.5.54l-.45-.43a1.7,1.7,0,0,1,.63-.68,2,2,0,0,1,1.1-.28,2,2,0,0,1,1.39.43,1.55,1.55,0,0,1,.49,1.22v2.69h.56v.67Zm-2.19-.53a2.06,2.06,0,0,0,.52-.06,1.42,1.42,0,0,0,.41-.19.92.92,0,0,0,.27-.29.7.7,0,0,0,.09-.35v-.81h-1a1.92,1.92,0,0,0-1,.19.62.62,0,0,0-.3.55V49a.67.67,0,0,0,.26.56A1.11,1.11,0,0,0,128.49,49.75Z"/><path d="M133,50.28a.79.79,0,0,1-.61-.22.83.83,0,0,1-.2-.56V43.25H133v6.36h.72v.67Z"/><path d="M135.15,44.23a.45.45,0,0,1-.35-.12.4.4,0,0,1-.11-.3v-.13a.42.42,0,0,1,.11-.31.45.45,0,0,1,.35-.12.4.4,0,0,1,.47.43v.13a.44.44,0,0,1-.11.3A.47.47,0,0,1,135.15,44.23Zm-.38,1.15h.76v4.9h-.76Z"/><path d="M140.71,50.28a.73.73,0,0,1-.61-.22,1.18,1.18,0,0,1-.24-.57h0a1.28,1.28,0,0,1-.54.68,1.65,1.65,0,0,1-.88.23,1.7,1.7,0,0,1-1.21-.4,1.4,1.4,0,0,1-.43-1.08,1.24,1.24,0,0,1,.51-1.07,2.72,2.72,0,0,1,1.58-.37h1V47a1.06,1.06,0,0,0-.29-.8,1.23,1.23,0,0,0-.87-.28,1.35,1.35,0,0,0-.75.2,1.74,1.74,0,0,0-.5.54l-.45-.43a1.7,1.7,0,0,1,.63-.68,2,2,0,0,1,1.11-.28,2,2,0,0,1,1.38.43,1.56,1.56,0,0,1,.5,1.22v2.69h.56v.67Zm-2.19-.53a2.2,2.2,0,0,0,.53-.06,1.72,1.72,0,0,0,.41-.19,1,1,0,0,0,.26-.29.71.71,0,0,0,.1-.35v-.81h-1a1.92,1.92,0,0,0-1,.19.64.64,0,0,0-.3.55V49a.65.65,0,0,0,.27.56A1.08,1.08,0,0,0,138.52,49.75Z"/><path d="M147.6,49.5h0a1.51,1.51,0,0,1-1.44.9,1.83,1.83,0,0,1-.82-.18,1.66,1.66,0,0,1-.63-.52,2.23,2.23,0,0,1-.4-.8,4.12,4.12,0,0,1,0-2.13,2.2,2.2,0,0,1,.4-.81,1.73,1.73,0,0,1,.63-.51,1.83,1.83,0,0,1,.82-.18,1.62,1.62,0,0,1,.88.22,1.37,1.37,0,0,1,.56.68h0V43.25h.76v7h-.76Zm-1.27.22a1.93,1.93,0,0,0,.49-.06,1.31,1.31,0,0,0,.41-.2.88.88,0,0,0,.37-.74V46.89a.83.83,0,0,0-.1-.38,1,1,0,0,0-.27-.3,1.56,1.56,0,0,0-.41-.2,1.93,1.93,0,0,0-.49-.07,1.29,1.29,0,0,0-1,.41,1.49,1.49,0,0,0-.37,1.06v.84a1.52,1.52,0,0,0,.37,1.07A1.28,1.28,0,0,0,146.33,49.72Z"/><path d="M151.81,50.4a2.19,2.19,0,0,1-.9-.18,2,2,0,0,1-.7-.52,2.25,2.25,0,0,1-.44-.81,3.15,3.15,0,0,1-.16-1.06,3.21,3.21,0,0,1,.16-1,2.25,2.25,0,0,1,.44-.81,2,2,0,0,1,.7-.52,2.19,2.19,0,0,1,.9-.18,2.11,2.11,0,0,1,.89.18,1.81,1.81,0,0,1,.66.5,2,2,0,0,1,.42.75,2.91,2.91,0,0,1,.15.95V48h-3.52v.23a1.63,1.63,0,0,0,.1.59,1.4,1.4,0,0,0,.28.47,1.43,1.43,0,0,0,1.07.42,1.39,1.39,0,0,0,1.35-.84l.54.39a1.88,1.88,0,0,1-.74.82A2.28,2.28,0,0,1,151.81,50.4Zm0-4.49a1.48,1.48,0,0,0-.57.1,1.52,1.52,0,0,0-.44.31,1.49,1.49,0,0,0-.29.47,1.59,1.59,0,0,0-.1.59v.06h2.71v-.1a1.48,1.48,0,0,0-.36-1A1.22,1.22,0,0,0,151.81,45.91Z"/><path d="M159.84,50.4a2.42,2.42,0,0,1-2-.86,4,4,0,0,1-.7-2.53,4.14,4.14,0,0,1,.7-2.57,2.36,2.36,0,0,1,2-.9A2.31,2.31,0,0,1,162.12,45l-.65.39a1.85,1.85,0,0,0-.6-.82,1.72,1.72,0,0,0-1-.31,1.7,1.7,0,0,0-.76.17,1.42,1.42,0,0,0-.57.46,2.07,2.07,0,0,0-.36.71,3.38,3.38,0,0,0-.12.93v1a2.43,2.43,0,0,0,.47,1.61,1.63,1.63,0,0,0,1.34.59,1.73,1.73,0,0,0,1.07-.33,1.91,1.91,0,0,0,.62-.87l.64.4a2.58,2.58,0,0,1-.9,1.1A2.48,2.48,0,0,1,159.84,50.4Z"/><path d="M167.55,47.28H164.2v3h-.8V43.65h.8v2.93h3.35V43.65h.8v6.63h-.8Z"/><path d="M169.81,50.28v-.66h.93v-5.3h-.93v-.67h2.66v.67h-.94v5.3h.94v.66Z"/><path d="M176.07,47.32A6.36,6.36,0,0,1,176.2,46a6.78,6.78,0,0,1,.36-1.18,5.19,5.19,0,0,1,.55-1,3.94,3.94,0,0,1,.68-.77h.72a5.1,5.1,0,0,0-.72.82,6.14,6.14,0,0,0-.54,1,5.63,5.63,0,0,0-.35,1,4.57,4.57,0,0,0-.12,1v.82a4.66,4.66,0,0,0,.12,1,5.63,5.63,0,0,0,.35,1,7.12,7.12,0,0,0,.55,1,4.56,4.56,0,0,0,.71.8h-.72a4,4,0,0,1-.67-.74,6,6,0,0,1-.55-1,8.28,8.28,0,0,1-.37-1.19A6.55,6.55,0,0,1,176.07,47.32Z"/><path d="M179.3,50.28v-.7h1.85V44.24h-.07l-1.67,1.56-.47-.5,1.76-1.65H182v5.93h1.71v.7Z"/><path d="M187,50.4a1.87,1.87,0,0,1-1.73-.9,4.87,4.87,0,0,1-.55-2.53,4.85,4.85,0,0,1,.55-2.53,2.11,2.11,0,0,1,3.46,0,4.85,4.85,0,0,1,.55,2.53,4.87,4.87,0,0,1-.55,2.53A1.87,1.87,0,0,1,187,50.4Zm0-.7a1.24,1.24,0,0,0,.66-.17,1.08,1.08,0,0,0,.45-.45,2.1,2.1,0,0,0,.25-.69,4.06,4.06,0,0,0,.08-.88V46.43a4,4,0,0,0-.08-.88,1.94,1.94,0,0,0-.25-.69,1.17,1.17,0,0,0-.45-.46,1.34,1.34,0,0,0-.66-.16,1.41,1.41,0,0,0-.67.16,1.22,1.22,0,0,0-.44.46,1.94,1.94,0,0,0-.25.69,4,4,0,0,0-.08.88v1.08a4.06,4.06,0,0,0,.08.88,2.1,2.1,0,0,0,.25.69,1.12,1.12,0,0,0,.44.45A1.31,1.31,0,0,0,187,49.7Z"/><path d="M191.58,47.22a1.34,1.34,0,0,1-1-.37,1.4,1.4,0,0,1-.35-1,2,2,0,0,1,.12-.71,2.62,2.62,0,0,1,.33-.62,3.5,3.5,0,0,1,.44-.5,3.09,3.09,0,0,1,.48-.37h.8c-.23.15-.42.29-.59.42a3.6,3.6,0,0,0-.45.41,2.59,2.59,0,0,0-.32.44,2.14,2.14,0,0,0-.19.52h0a1.32,1.32,0,0,1,.32-.35,1,1,0,0,1,.57-.15,1.15,1.15,0,0,1,.81.29,1,1,0,0,1,.32.79,1.09,1.09,0,0,1-.37.86A1.37,1.37,0,0,1,191.58,47.22Zm0-.46a.8.8,0,0,0,.53-.16.61.61,0,0,0,.19-.5v0a.62.62,0,0,0-.19-.5,1,1,0,0,0-1.06,0,.62.62,0,0,0-.19.5v0a.61.61,0,0,0,.19.5A.8.8,0,0,0,191.58,46.76Z"/><path d="M194.08,50.28v-4.9h.76v.79h0a2.37,2.37,0,0,1,.19-.35,1.06,1.06,0,0,1,.27-.29,1.23,1.23,0,0,1,.36-.19,1.51,1.51,0,0,1,.5-.07,1.82,1.82,0,0,1,.89.23,1.44,1.44,0,0,1,.61.76h0a1.38,1.38,0,0,1,.49-.69,1.55,1.55,0,0,1,1-.3,1.45,1.45,0,0,1,1.17.49,2,2,0,0,1,.42,1.38v3.14H200v-3a1.61,1.61,0,0,0-.25-1,1,1,0,0,0-.82-.34,1.49,1.49,0,0,0-.43.06,1.4,1.4,0,0,0-.37.17.78.78,0,0,0-.25.29.82.82,0,0,0-.1.42v3.4h-.76v-3a1.54,1.54,0,0,0-.26-1,.91.91,0,0,0-.79-.34,1.56,1.56,0,0,0-.44.06,1.4,1.4,0,0,0-.37.17.8.8,0,0,0-.26.29.82.82,0,0,0-.1.42v3.4Z"/><path d="M204.52,47.16h-2.59v-.54l1.24-1a2.23,2.23,0,0,0,.43-.45.79.79,0,0,0,.16-.48v-.06a.5.5,0,0,0-.16-.39.64.64,0,0,0-.46-.15.68.68,0,0,0-.5.16,1,1,0,0,0-.24.39l-.51-.19a1.11,1.11,0,0,1,.41-.59,1.29,1.29,0,0,1,.37-.19,1.61,1.61,0,0,1,.51-.07,1.25,1.25,0,0,1,.9.29,1,1,0,0,1,.31.74,1.12,1.12,0,0,1-.25.73,3.5,3.5,0,0,1-.65.61l-.92.71h2Z"/><path d="M207.13,50.4a2.29,2.29,0,0,1-1.14-.26,2.68,2.68,0,0,1-.8-.7l.54-.44a2.23,2.23,0,0,0,.64.56,1.66,1.66,0,0,0,.82.19,1.19,1.19,0,0,0,.75-.21.7.7,0,0,0,.27-.59.68.68,0,0,0-.18-.48,1.1,1.1,0,0,0-.67-.28l-.39-.06a2.91,2.91,0,0,1-.63-.15,1.72,1.72,0,0,1-.5-.27,1.11,1.11,0,0,1-.33-.41,1.32,1.32,0,0,1-.12-.59,1.39,1.39,0,0,1,.14-.63,1.22,1.22,0,0,1,.36-.45,1.62,1.62,0,0,1,.56-.27,2.5,2.5,0,0,1,.69-.09,2.15,2.15,0,0,1,1,.21,2.19,2.19,0,0,1,.71.58l-.5.45a1.52,1.52,0,0,0-.48-.41,1.56,1.56,0,0,0-.79-.19,1.06,1.06,0,0,0-.71.21.67.67,0,0,0-.25.55.57.57,0,0,0,.25.53,1.74,1.74,0,0,0,.69.23l.38.06a2,2,0,0,1,1.16.47,1.24,1.24,0,0,1,.35.91,1.4,1.4,0,0,1-.49,1.12A2,2,0,0,1,207.13,50.4Z"/><path d="M210,45.81V45h2.48v.82Z"/><path d="M213.7,47.16v-.48h1V44.17l-1,.52-.23-.42,1.19-.62h.65v3h.93v.48Z"/><path d="M219,47.32a6.55,6.55,0,0,1-.14,1.34,7.19,7.19,0,0,1-.37,1.19,6,6,0,0,1-.55,1,4.39,4.39,0,0,1-.66.74h-.73a4.51,4.51,0,0,0,.7-.8,5.49,5.49,0,0,0,.55-1,6.51,6.51,0,0,0,.36-1,4.66,4.66,0,0,0,.12-1v-.82a4.57,4.57,0,0,0-.12-1,5.63,5.63,0,0,0-.35-1,5.44,5.44,0,0,0-.54-1,5.1,5.1,0,0,0-.72-.82h.73a4.26,4.26,0,0,1,.67.77,5.19,5.19,0,0,1,.55,1,6.78,6.78,0,0,1,.36,1.18A6.35,6.35,0,0,1,219,47.32Z"/></svg>