<svg id="Camada_1" data-name="Camada 1" xmlns="http://www.w3.org/2000/svg" viewBox="0 0 320.28 57.45">
  <title>LEGENDAS_PÁGINA_CLIMA</title>
  <g style="opacity: 0.75">
    <path d="M0,6.38C0,2.86,3.19,0,7.12,0h306c3.93,0,7.12,2.86,7.12,6.38V51.07c0,3.52-3.19,6.38-7.12,6.38H7.12C3.19,57.45,0,54.59,0,51.07Z" style="fill: #fff"/>
  </g>
  <g>
    <path d="M54.14,33.14v-.69h2.1v.69Z"/>
    <path d="M58.89,32a1.26,1.26,0,0,0,.86-.26.88.88,0,0,0,.29-.67V31a.82.82,0,0,0-.28-.66,1.37,1.37,0,0,0-1.44,0,1.59,1.59,0,0,0-.45.51l-.5-.38a2,2,0,0,1,.26-.34,1.46,1.46,0,0,1,.35-.29,2,2,0,0,1,1.07-.28,2.39,2.39,0,0,1,.66.09,1.66,1.66,0,0,1,.55.27,1.33,1.33,0,0,1,.36.45,1.26,1.26,0,0,1,.13.6,1.23,1.23,0,0,1-.31.86,1.27,1.27,0,0,1-.34.27,1.75,1.75,0,0,1-.43.17v0a2.32,2.32,0,0,1,.44.16,1.49,1.49,0,0,1,.38.28,1.43,1.43,0,0,1,.27.43,1.62,1.62,0,0,1,0,1.22,1.43,1.43,0,0,1-.39.52,1.74,1.74,0,0,1-.6.34,2.6,2.6,0,0,1-1.42,0,2.09,2.09,0,0,1-.5-.22,2,2,0,0,1-.39-.3,3.17,3.17,0,0,1-.29-.35l.51-.39a1.78,1.78,0,0,0,.23.31,1.18,1.18,0,0,0,.27.23,1.84,1.84,0,0,0,.35.15,2,2,0,0,0,.45.05,1.31,1.31,0,0,0,.9-.27,1,1,0,0,0,.31-.77v-.07a1,1,0,0,0-.31-.77,1.31,1.31,0,0,0-.9-.28h-.66V32Z"/>
  </g>
  <g>
    <path d="M19.91,33.14v-.69H22v.69Z"/>
    <path d="M25.58,35.24v-1.1H22.87v-.6l2.35-3.92h1v3.95H27v.57h-.82v1.1ZM23.5,33.57h2.08V30.15h0Z"/>
  </g>
  <g>
    <path d="M88.2,33.14v-.69h2.1v.69Z"/>
    <path d="M95.15,35.24H91.46v-.69l1.84-1.69a4.28,4.28,0,0,0,.66-.77,1.55,1.55,0,0,0,.26-.82v-.1a1.08,1.08,0,0,0-.26-.76,1,1,0,0,0-.78-.29,1.52,1.52,0,0,0-.45.07.93.93,0,0,0-.33.21,1,1,0,0,0-.24.3,1.49,1.49,0,0,0-.14.37l-.61-.23a3.06,3.06,0,0,1,.22-.49,1.82,1.82,0,0,1,.36-.42,1.58,1.58,0,0,1,.51-.29,1.93,1.93,0,0,1,.71-.11,2.13,2.13,0,0,1,.74.12,1.38,1.38,0,0,1,.87.85,1.76,1.76,0,0,1,.12.66,1.74,1.74,0,0,1-.1.61,2,2,0,0,1-.25.53,3.56,3.56,0,0,1-.39.5c-.15.16-.32.32-.49.48l-1.52,1.36h3Z"/>
  </g>
  <g>
    <path d="M122.31,33.14v-.69h2.1v.69Z"/>
    <path d="M125.68,35.24v-.6h1.57V30.12h-.06l-1.42,1.32-.39-.43,1.49-1.39h1v5h1.45v.6Z"/>
  </g>
  <path d="M160.1,35.34a1.6,1.6,0,0,1-1.47-.77,4.12,4.12,0,0,1-.46-2.14,4.12,4.12,0,0,1,.46-2.14,1.8,1.8,0,0,1,2.94,0,4.12,4.12,0,0,1,.46,2.14,4.12,4.12,0,0,1-.46,2.14A1.6,1.6,0,0,1,160.1,35.34Zm0-.6a1,1,0,0,0,.94-.52,2,2,0,0,0,.22-.59,4.18,4.18,0,0,0,.06-.74V32a4.18,4.18,0,0,0-.06-.74,2,2,0,0,0-.22-.59,1.06,1.06,0,0,0-.38-.38,1.19,1.19,0,0,0-1.12,0,1.06,1.06,0,0,0-.38.38,1.72,1.72,0,0,0-.21.59,3.38,3.38,0,0,0-.07.74v.92a3.38,3.38,0,0,0,.07.74,1.72,1.72,0,0,0,.21.59,1,1,0,0,0,.94.52Z"/>
  <path d="M192.57,35.24v-.6h1.57V30.12h-.06l-1.41,1.32-.4-.43,1.49-1.39h1.06v5h1.44v.6Z"/>
  <path d="M230.31,35.24h-3.68v-.69l1.83-1.69a4.28,4.28,0,0,0,.66-.77,1.48,1.48,0,0,0,.27-.82v-.1a1.13,1.13,0,0,0-.26-.76,1,1,0,0,0-.78-.29,1.52,1.52,0,0,0-.45.07,1.08,1.08,0,0,0-.34.21,1,1,0,0,0-.23.3,2,2,0,0,0-.15.37l-.6-.23a2.38,2.38,0,0,1,.22-.49,1.57,1.57,0,0,1,.35-.42,1.75,1.75,0,0,1,.52-.29,1.93,1.93,0,0,1,.71-.11,2.07,2.07,0,0,1,.73.12,1.45,1.45,0,0,1,.54.33,1.51,1.51,0,0,1,.34.52,2.07,2.07,0,0,1,0,1.27,2.35,2.35,0,0,1-.25.53,3.56,3.56,0,0,1-.39.5c-.16.16-.32.32-.5.48l-1.51,1.36h2.95Z"/>
  <path d="M262.51,32a1.26,1.26,0,0,0,.86-.26.88.88,0,0,0,.29-.67V31a.82.82,0,0,0-.28-.66,1.2,1.2,0,0,0-.73-.22,1.21,1.21,0,0,0-.71.19,1.59,1.59,0,0,0-.45.51l-.5-.38a2,2,0,0,1,.26-.34,1.69,1.69,0,0,1,.35-.29,2,2,0,0,1,1.07-.28,2.46,2.46,0,0,1,.67.09,1.61,1.61,0,0,1,.54.27,1.33,1.33,0,0,1,.36.45,1.26,1.26,0,0,1,.13.6,1.23,1.23,0,0,1-.31.86,1.27,1.27,0,0,1-.34.27,1.61,1.61,0,0,1-.43.17v0a2.32,2.32,0,0,1,.44.16,1.34,1.34,0,0,1,.38.28,1.43,1.43,0,0,1,.27.43,1.62,1.62,0,0,1,0,1.22,1.43,1.43,0,0,1-.39.52,1.74,1.74,0,0,1-.6.34,2.6,2.6,0,0,1-1.42,0,2.09,2.09,0,0,1-.5-.22,1.68,1.68,0,0,1-.38-.3,3.27,3.27,0,0,1-.3-.35l.51-.39a1.78,1.78,0,0,0,.23.31,1,1,0,0,0,.28.23,1.52,1.52,0,0,0,.34.15,2,2,0,0,0,.45.05,1.31,1.31,0,0,0,.9-.27,1,1,0,0,0,.31-.77v-.07a1,1,0,0,0-.31-.77,1.31,1.31,0,0,0-.9-.28h-.66V32Z"/>
  <path d="M297.42,35.24v-1.1h-2.71v-.6l2.35-3.92h1v3.95h.82v.57h-.82v1.1Zm-2.08-1.67h2.08V30.15h0Z"/>
  <g>
    <path d="M116.22,49.82l-.61-1.8h-2.46l-.61,1.8h-.74l2.13-6.09h.93L117,49.82Zm-1.82-5.41h-.05l-1,3h2.1Z"/>
    <path d="M117.93,49.82v-4.5h.69v.73h0a1.45,1.45,0,0,1,.47-.61,1.31,1.31,0,0,1,.8-.22,1.42,1.42,0,0,1,1.11.45,1.82,1.82,0,0,1,.4,1.26v2.89h-.7V47.05c0-.81-.34-1.21-1-1.21a1.33,1.33,0,0,0-.4,0,1.17,1.17,0,0,0-.36.16.75.75,0,0,0-.24.26.8.8,0,0,0-.1.38v3.13Z"/>
    <path d="M124.58,49.93a2.05,2.05,0,0,1-.83-.17,1.77,1.77,0,0,1-.64-.48,2,2,0,0,1-.41-.74,2.91,2.91,0,0,1-.15-1,3,3,0,0,1,.15-1,2,2,0,0,1,.41-.74,1.77,1.77,0,0,1,.64-.48,2,2,0,0,1,.83-.16,2,2,0,0,1,.82.16,1.77,1.77,0,0,1,.64.48,2.14,2.14,0,0,1,.42.74,3,3,0,0,1,.15,1,2.91,2.91,0,0,1-.15,1,2.14,2.14,0,0,1-.42.74,1.77,1.77,0,0,1-.64.48A2,2,0,0,1,124.58,49.93Zm0-.62a1.25,1.25,0,0,0,.92-.35,1.44,1.44,0,0,0,.36-1.07v-.64a1.44,1.44,0,0,0-.36-1.07,1.41,1.41,0,0,0-1.84,0,1.44,1.44,0,0,0-.36,1.07v.64a1.44,1.44,0,0,0,.36,1.07A1.25,1.25,0,0,0,124.58,49.31Z"/>
    <path d="M127.76,49.82v-4.5h.7v.73h0l.18-.33a1,1,0,0,1,.25-.26.88.88,0,0,1,.33-.18,1.56,1.56,0,0,1,.46-.06,1.67,1.67,0,0,1,.82.21,1.25,1.25,0,0,1,.55.69h0a1.32,1.32,0,0,1,.46-.63,1.41,1.41,0,0,1,.91-.27,1.35,1.35,0,0,1,1.08.45,1.86,1.86,0,0,1,.38,1.26v2.89h-.69V47.05a1.47,1.47,0,0,0-.24-.91.9.9,0,0,0-.75-.3,1.23,1.23,0,0,0-.39,0,1,1,0,0,0-.34.16.75.75,0,0,0-.24.26.92.92,0,0,0-.08.38v3.13h-.7V47.05a1.47,1.47,0,0,0-.24-.91.86.86,0,0,0-.73-.3,1.33,1.33,0,0,0-.4,0,1,1,0,0,0-.34.16.75.75,0,0,0-.24.26.79.79,0,0,0-.09.38v3.13Z"/>
    <path d="M138.64,49.82a.68.68,0,0,1-.56-.21,1.06,1.06,0,0,1-.21-.52h-.05a1.16,1.16,0,0,1-.49.63,1.57,1.57,0,0,1-.81.21,1.62,1.62,0,0,1-1.11-.37,1.32,1.32,0,0,1-.39-1,1.12,1.12,0,0,1,.46-1,2.46,2.46,0,0,1,1.45-.34h.89V46.8a1,1,0,0,0-.26-.73,1.1,1.1,0,0,0-.8-.25,1.21,1.21,0,0,0-.68.18,1.44,1.44,0,0,0-.46.49l-.42-.39a1.65,1.65,0,0,1,.58-.63,2.21,2.21,0,0,1,2.29.15,1.4,1.4,0,0,1,.45,1.11V49.2H139v.62Zm-2-.49a1.86,1.86,0,0,0,.48-.06,1.26,1.26,0,0,0,.37-.17,1,1,0,0,0,.25-.26.73.73,0,0,0,.08-.33v-.74h-.92A1.68,1.68,0,0,0,136,48a.55.55,0,0,0-.27.5v.19a.6.6,0,0,0,.24.51A1,1,0,0,0,136.64,49.33Z"/>
    <path d="M140.77,49.82a.67.67,0,0,1-.74-.72V43.37h.7V49.2h.66v.62Z"/>
    <path d="M142.75,44.27a.45.45,0,0,1-.33-.11.44.44,0,0,1-.1-.29v-.11a.43.43,0,1,1,.86,0v.11a.44.44,0,0,1-.1.29A.45.45,0,0,1,142.75,44.27Zm-.35,1h.7v4.5h-.7Z"/>
    <path d="M147.85,49.82a.68.68,0,0,1-.56-.21,1,1,0,0,1-.22-.52h0a1.16,1.16,0,0,1-.49.63,1.6,1.6,0,0,1-.81.21,1.58,1.58,0,0,1-1.11-.37,1.29,1.29,0,0,1-.4-1,1.13,1.13,0,0,1,.47-1,2.44,2.44,0,0,1,1.45-.34H147V46.8a1,1,0,0,0-.26-.73,1.11,1.11,0,0,0-.8-.25,1.22,1.22,0,0,0-.69.18,1.67,1.67,0,0,0-.46.49l-.41-.39a1.58,1.58,0,0,1,.58-.63,1.85,1.85,0,0,1,1-.25,1.83,1.83,0,0,1,1.27.4,1.38,1.38,0,0,1,.46,1.11V49.2h.51v.62Zm-2-.49a1.75,1.75,0,0,0,.48-.06,1.33,1.33,0,0,0,.38-.17,1.16,1.16,0,0,0,.24-.26.63.63,0,0,0,.09-.33v-.74h-.92a1.65,1.65,0,0,0-.88.18.55.55,0,0,0-.27.5v.19a.6.6,0,0,0,.24.51A1,1,0,0,0,145.84,49.33Z"/>
    <path d="M154.17,49.1h0a1.39,1.39,0,0,1-1.32.83,1.73,1.73,0,0,1-.76-.17,1.65,1.65,0,0,1-.58-.47,2,2,0,0,1-.36-.74,3.32,3.32,0,0,1-.13-1,3.37,3.37,0,0,1,.13-1,2.13,2.13,0,0,1,.36-.74,1.65,1.65,0,0,1,.58-.47,1.73,1.73,0,0,1,.76-.16,1.52,1.52,0,0,1,.81.2,1.26,1.26,0,0,1,.51.63h0V43.37h.7v6.45h-.7Zm-1.16.21a1.33,1.33,0,0,0,.45-.07,1.06,1.06,0,0,0,.37-.18.75.75,0,0,0,.25-.28.86.86,0,0,0,.09-.39V46.7a.69.69,0,0,0-.09-.34.83.83,0,0,0-.25-.28,1.59,1.59,0,0,0-.37-.18,1.63,1.63,0,0,0-.45-.06,1.18,1.18,0,0,0-.93.37,1.38,1.38,0,0,0-.34,1V48a1.35,1.35,0,0,0,.34,1A1.19,1.19,0,0,0,153,49.31Z"/>
    <path d="M158.05,49.93a2.05,2.05,0,0,1-.83-.17,1.77,1.77,0,0,1-.64-.48,2.12,2.12,0,0,1-.41-.74,2.91,2.91,0,0,1-.15-1,3,3,0,0,1,.15-1,2.12,2.12,0,0,1,.41-.74,1.77,1.77,0,0,1,.64-.48,2,2,0,0,1,.83-.16,2,2,0,0,1,.82.16,1.9,1.9,0,0,1,.65.48,2.12,2.12,0,0,1,.41.74,3,3,0,0,1,.15,1,2.91,2.91,0,0,1-.15,1,2.12,2.12,0,0,1-.41.74,1.9,1.9,0,0,1-.65.48A2,2,0,0,1,158.05,49.93Zm0-.62A1.25,1.25,0,0,0,159,49a1.44,1.44,0,0,0,.36-1.07v-.64a1.44,1.44,0,0,0-.36-1.07,1.41,1.41,0,0,0-1.84,0,1.44,1.44,0,0,0-.36,1.07v.64a1.44,1.44,0,0,0,.36,1.07A1.25,1.25,0,0,0,158.05,49.31Z"/>
    <path d="M164.75,49.82l-2-6.09h.79l1,3.07.67,2.29h0l.68-2.29,1-3.07h.75l-2,6.09Z"/>
    <path d="M170,49.93a2,2,0,0,1-.83-.17,1.77,1.77,0,0,1-.64-.48,2.12,2.12,0,0,1-.41-.74,2.91,2.91,0,0,1-.14-1,3,3,0,0,1,.14-1,2.12,2.12,0,0,1,.41-.74,1.77,1.77,0,0,1,.64-.48,2,2,0,0,1,.83-.16,1.92,1.92,0,0,1,.81.16,1.73,1.73,0,0,1,.61.46,1.94,1.94,0,0,1,.39.69,2.75,2.75,0,0,1,.13.88v.33h-3.23V48a1.51,1.51,0,0,0,.09.53,1.24,1.24,0,0,0,.26.43,1.13,1.13,0,0,0,.42.29,1.43,1.43,0,0,0,.56.11,1.28,1.28,0,0,0,1.24-.78l.5.36a1.75,1.75,0,0,1-.68.75A2.07,2.07,0,0,1,170,49.93Zm0-4.13a1.24,1.24,0,0,0-.52.1,1.2,1.2,0,0,0-.41.28,1.57,1.57,0,0,0-.27.43,1.61,1.61,0,0,0-.09.54v.06h2.48v-.09a1.36,1.36,0,0,0-.32-1A1.12,1.12,0,0,0,170,45.8Z"/>
    <path d="M173.12,49.82v-4.5h.7v.73h0a1.43,1.43,0,0,1,.46-.61,1.32,1.32,0,0,1,.81-.22,1.41,1.41,0,0,1,1.1.45,1.82,1.82,0,0,1,.41,1.26v2.89h-.7V47.05c0-.81-.34-1.21-1-1.21a1.33,1.33,0,0,0-.4,0,1.07,1.07,0,0,0-.36.16.78.78,0,0,0-.25.26.79.79,0,0,0-.09.38v3.13Z"/>
    <path d="M179.07,49.82a.73.73,0,0,1-.55-.2.76.76,0,0,1-.19-.54V45.94h-.74v-.62H178a.43.43,0,0,0,.31-.09.51.51,0,0,0,.08-.32v-.84H179v1.25h1v.62h-1V49.2h.91v.62Z"/>
    <path d="M182.8,49.93a2.05,2.05,0,0,1-.83-.17,1.77,1.77,0,0,1-.64-.48,2.29,2.29,0,0,1-.41-.74,2.91,2.91,0,0,1-.15-1,3,3,0,0,1,.15-1,2.29,2.29,0,0,1,.41-.74,1.77,1.77,0,0,1,.64-.48,2.23,2.23,0,0,1,1.66,0,1.86,1.86,0,0,1,.64.48,2.14,2.14,0,0,1,.42.74,3.29,3.29,0,0,1,.14,1,3.2,3.2,0,0,1-.14,1,2.14,2.14,0,0,1-.42.74,1.86,1.86,0,0,1-.64.48A2.05,2.05,0,0,1,182.8,49.93Zm0-.62a1.29,1.29,0,0,0,.93-.35,1.48,1.48,0,0,0,.35-1.07v-.64a1.48,1.48,0,0,0-.35-1.07,1.29,1.29,0,0,0-.93-.34,1.26,1.26,0,0,0-.92.34,1.44,1.44,0,0,0-.36,1.07v.64a1.44,1.44,0,0,0,.36,1.07A1.27,1.27,0,0,0,182.8,49.31Z"/>
    <path d="M188,47.1a6.31,6.31,0,0,1,.46-2.3,5.3,5.3,0,0,1,.5-.91,4.76,4.76,0,0,1,.62-.7h.67a4.67,4.67,0,0,0-.66.75,5.2,5.2,0,0,0-.5.89,6,6,0,0,0-.32,1,4.53,4.53,0,0,0-.11.94v.75a4.47,4.47,0,0,0,.11,1,5.41,5.41,0,0,0,.32,1,4.89,4.89,0,0,0,.51.89,3.53,3.53,0,0,0,.65.73h-.67a3.64,3.64,0,0,1-.61-.67,5,5,0,0,1-.5-.92,7,7,0,0,1-.34-1.09A6.26,6.26,0,0,1,188,47.1Z"/>
    <path d="M191,49.82v-4.5h.7v.73h0a2.55,2.55,0,0,1,.17-.33,1,1,0,0,1,.25-.26,1,1,0,0,1,.33-.18,1.56,1.56,0,0,1,.46-.06,1.67,1.67,0,0,1,.82.21,1.25,1.25,0,0,1,.55.69h0a1.39,1.39,0,0,1,.46-.63,1.41,1.41,0,0,1,.91-.27,1.35,1.35,0,0,1,1.08.45,1.86,1.86,0,0,1,.39,1.26v2.89h-.7V47.05a1.47,1.47,0,0,0-.24-.91.88.88,0,0,0-.75-.3,1.23,1.23,0,0,0-.39,0,1,1,0,0,0-.34.16.64.64,0,0,0-.23.26.79.79,0,0,0-.09.38v3.13h-.7V47.05a1.47,1.47,0,0,0-.24-.91.86.86,0,0,0-.73-.3,1.33,1.33,0,0,0-.4,0,1,1,0,0,0-.34.16.75.75,0,0,0-.24.26.79.79,0,0,0-.09.38v3.13Z"/>
    <path d="M202.93,49.93a2.16,2.16,0,0,1-1.06-.25,2.19,2.19,0,0,1-.72-.64l.49-.4a2,2,0,0,0,.59.51,1.49,1.49,0,0,0,.75.18,1.11,1.11,0,0,0,.69-.19.64.64,0,0,0,.25-.54.68.68,0,0,0-.17-.45,1.09,1.09,0,0,0-.62-.26l-.35,0a3.29,3.29,0,0,1-.58-.13,2,2,0,0,1-.46-.25,1,1,0,0,1-.3-.38,1.27,1.27,0,0,1-.11-.54,1.34,1.34,0,0,1,.12-.58,1.23,1.23,0,0,1,.34-.41,1.35,1.35,0,0,1,.51-.25,2.18,2.18,0,0,1,.63-.08,1.87,1.87,0,0,1,1.57.72l-.46.42a1.35,1.35,0,0,0-.43-.38,1.49,1.49,0,0,0-.73-.17,1,1,0,0,0-.66.19.64.64,0,0,0-.22.51.56.56,0,0,0,.22.48,1.6,1.6,0,0,0,.64.21l.35.06a1.87,1.87,0,0,1,1.07.43,1.12,1.12,0,0,1,.31.83,1.29,1.29,0,0,1-.44,1A1.85,1.85,0,0,1,202.93,49.93Z"/>
    <path d="M205.59,46.09v-.75h2.28v.75Z"/>
    <path d="M209,47v-.43h1V44.18h-.05l-.79.78-.31-.33.89-.9h.81v2.79h.85V47Z"/>
    <path d="M213.8,47.1a5.58,5.58,0,0,1-.13,1.23,6,6,0,0,1-.34,1.09,5,5,0,0,1-.5.92,3.64,3.64,0,0,1-.61.67h-.66a4.22,4.22,0,0,0,.65-.73,5.51,5.51,0,0,0,.5-.89,4.71,4.71,0,0,0,.32-1,3.91,3.91,0,0,0,.11-1v-.75a3.94,3.94,0,0,0-.11-.94,5.15,5.15,0,0,0-.32-1,4.6,4.6,0,0,0-.5-.89,5.14,5.14,0,0,0-.65-.75h.66a4.24,4.24,0,0,1,.62.7,5.3,5.3,0,0,1,.5.91,7,7,0,0,1,.34,1.09A6,6,0,0,1,213.8,47.1Z"/>
  </g>
  <g>
    <g>
      <path d="M166,23.58h5.47a2,2,0,0,0,2.11-2V10.68a2,2,0,0,0-2.11-2H166a2,2,0,0,0-2.11,2V21.61A2,2,0,0,0,166,23.58Z" style="fill: #fff"/>
      <path d="M163.62,21.61V10.68A2.3,2.3,0,0,1,166,8.46h5.47a2.3,2.3,0,0,1,2.36,2.22V21.61a2.29,2.29,0,0,1-2.36,2.22H166A2.29,2.29,0,0,1,163.62,21.61ZM166,9a1.8,1.8,0,0,0-1.86,1.72V21.61A1.8,1.8,0,0,0,166,23.33h5.47a1.8,1.8,0,0,0,1.86-1.72V10.68A1.8,1.8,0,0,0,171.45,9Z" style="fill: #939393"/>
    </g>
    <path d="M46.38,23.58h5.46a2,2,0,0,0,2.11-2V10.68a2,2,0,0,0-2.11-2H46.38a2,2,0,0,0-2.11,2V21.61A2,2,0,0,0,46.38,23.58Z" style="fill: #eb2b20"/>
    <path d="M29.29,23.58h5.47a2,2,0,0,0,2.11-2V10.68a2,2,0,0,0-2.11-2H29.29a2,2,0,0,0-2.11,2V21.61A2,2,0,0,0,29.29,23.58Z" style="fill: #d6111f"/>
    <path d="M12.2,23.58h5.47a2,2,0,0,0,2.11-2V10.68a2,2,0,0,0-2.11-2H12.2a2,2,0,0,0-2.11,2V21.61A2,2,0,0,0,12.2,23.58Z" style="fill: #bd0026"/>
    <path d="M268.58,23.58h5.47a2,2,0,0,0,2.11-2V10.68a2,2,0,0,0-2.11-2h-5.47a2,2,0,0,0-2.11,2V21.61A2.05,2.05,0,0,0,268.58,23.58Z" style="fill: #0868ac"/>
    <path d="M285.53,23.58H291a2,2,0,0,0,2.11-2V10.68a2,2,0,0,0-2.11-2h-5.47a2,2,0,0,0-2.11,2V21.61A2,2,0,0,0,285.53,23.58Z" style="fill: #001476"/>
    <path d="M302.61,23.58h5.47a2,2,0,0,0,2.11-2V10.68a2,2,0,0,0-2.11-2h-5.47a2,2,0,0,0-2.11,2V21.61A2,2,0,0,0,302.61,23.58Z" style="fill: #081d58"/>
    <path d="M251.5,23.58H257a2,2,0,0,0,2.11-2V10.68a2,2,0,0,0-2.11-2H251.5a2,2,0,0,0-2.11,2V21.61A2,2,0,0,0,251.5,23.58Z" style="fill: #2b8cbe"/>
    <path d="M234.41,23.58h5.46a2,2,0,0,0,2.11-2V10.68a2,2,0,0,0-2.11-2h-5.46a2,2,0,0,0-2.11,2V21.61A2,2,0,0,0,234.41,23.58Z" style="fill: #7bccc4"/>
    <path d="M217.33,23.58h5.46a2,2,0,0,0,2.11-2V10.68a2,2,0,0,0-2.11-2h-5.46a2,2,0,0,0-2.11,2V21.61A2,2,0,0,0,217.33,23.58Z" style="fill: #a8ddb5"/>
    <path d="M200.24,23.58h5.47a2,2,0,0,0,2.1-2V10.68a2,2,0,0,0-2.1-2h-5.47a2,2,0,0,0-2.11,2V21.61A2,2,0,0,0,200.24,23.58Z" style="fill: #ccebc5"/>
    <path d="M183.15,23.58h5.47a2,2,0,0,0,2.11-2V10.68a2,2,0,0,0-2.11-2h-5.47a2,2,0,0,0-2.11,2V21.61A2,2,0,0,0,183.15,23.58Z" style="fill: #e0f3db"/>
    <g>
      <path d="M148.89,23.58h5.47a2,2,0,0,0,2.11-2V10.68a2,2,0,0,0-2.11-2h-5.47a2,2,0,0,0-2.11,2V21.61A2.05,2.05,0,0,0,148.89,23.58Z" style="fill: #fff"/>
      <path d="M146.53,21.61V10.68a2.3,2.3,0,0,1,2.36-2.22h5.47a2.3,2.3,0,0,1,2.36,2.22V21.61a2.29,2.29,0,0,1-2.36,2.22h-5.47A2.29,2.29,0,0,1,146.53,21.61ZM148.89,9A1.8,1.8,0,0,0,147,10.68V21.61a1.8,1.8,0,0,0,1.86,1.72h5.47a1.8,1.8,0,0,0,1.86-1.72V10.68A1.8,1.8,0,0,0,154.36,9Z" style="fill: #939393"/>
    </g>
    <path d="M131.81,23.58h5.47a2,2,0,0,0,2.11-2V10.68a2,2,0,0,0-2.11-2h-5.47a2,2,0,0,0-2.11,2V21.61A2,2,0,0,0,131.81,23.58Z" style="fill: #ffc"/>
    <path d="M114.72,23.58h5.47a2,2,0,0,0,2.11-2V10.68a2,2,0,0,0-2.11-2h-5.47a2,2,0,0,0-2.11,2V21.61A2.05,2.05,0,0,0,114.72,23.58Z" style="fill: #ffeda0"/>
    <path d="M97.63,23.58h5.47a2,2,0,0,0,2.11-2V10.68a2,2,0,0,0-2.11-2H97.63a2,2,0,0,0-2.1,2V21.61A2,2,0,0,0,97.63,23.58Z" style="fill: #fed976"/>
    <path d="M80.55,23.58H86a2,2,0,0,0,2.11-2V10.68a2,2,0,0,0-2.11-2H80.55a2,2,0,0,0-2.1,2V21.61A2,2,0,0,0,80.55,23.58Z" style="fill: #feb24c"/>
    <path d="M63.47,23.58h5.46a2,2,0,0,0,2.11-2V10.68a2,2,0,0,0-2.11-2H63.47a2,2,0,0,0-2.11,2V21.61A2,2,0,0,0,63.47,23.58Z" style="fill: #fc4e2a"/>
  </g>
</svg>
