<svg id="Camada_1" data-name="Camada 1" xmlns="http://www.w3.org/2000/svg" viewBox="0 0 320.45 57.45"><defs><style>.cls-1{opacity:0.75;}.cls-2{fill:#fff;}.cls-3{fill:#939393;}.cls-4{fill:#eb2b20;}.cls-5{fill:#d6111f;}.cls-6{fill:#bd0026;}.cls-7{fill:#0868ac;}.cls-8{fill:#001476;}.cls-9{fill:#081d58;}.cls-10{fill:#2b8cbe;}.cls-11{fill:#7bccc4;}.cls-12{fill:#a8ddb5;}.cls-13{fill:#ccebc5;}.cls-14{fill:#e0f3db;}.cls-15{fill:#ffc;}.cls-16{fill:#ffeda0;}.cls-17{fill:#fed976;}.cls-18{fill:#feb24c;}.cls-19{fill:#fc4e2a;}</style></defs><title>LEGENDAS - ESCALA</title><g class="cls-1"><path class="cls-2" d="M0,6.38C0,2.86,3.19,0,7.12,0H313.33c3.93,0,7.12,2.86,7.12,6.38V51.07c0,3.52-3.19,6.38-7.12,6.38H7.12C3.19,57.45,0,54.59,0,51.07Z"/></g><path class="cls-2" d="M166,23.58h5.47a2,2,0,0,0,2.11-2V10.68a2,2,0,0,0-2.11-2H166a2,2,0,0,0-2.11,2V21.61A2,2,0,0,0,166,23.58Z"/><path class="cls-3" d="M171.45,23.83H166a2.29,2.29,0,0,1-2.36-2.22V10.68A2.3,2.3,0,0,1,166,8.46h5.47a2.3,2.3,0,0,1,2.36,2.22V21.61A2.29,2.29,0,0,1,171.45,23.83ZM166,9a1.81,1.81,0,0,0-1.86,1.72V21.61A1.8,1.8,0,0,0,166,23.33h5.47a1.8,1.8,0,0,0,1.86-1.72V10.68A1.81,1.81,0,0,0,171.45,9Z"/><path class="cls-4" d="M46.38,23.58h5.46a2,2,0,0,0,2.11-2V10.68a2,2,0,0,0-2.11-2H46.38a2,2,0,0,0-2.11,2V21.61A2,2,0,0,0,46.38,23.58Z"/><path class="cls-5" d="M29.29,23.58h5.47a2,2,0,0,0,2.11-2V10.68a2,2,0,0,0-2.11-2H29.29a2,2,0,0,0-2.11,2V21.61A2,2,0,0,0,29.29,23.58Z"/><path class="cls-6" d="M12.2,23.58h5.47a2,2,0,0,0,2.11-2V10.68a2,2,0,0,0-2.11-2H12.2a2,2,0,0,0-2.11,2V21.61A2,2,0,0,0,12.2,23.58Z"/><path class="cls-7" d="M268.58,23.58h5.47a2,2,0,0,0,2.11-2V10.68a2,2,0,0,0-2.11-2h-5.47a2,2,0,0,0-2.11,2V21.61A2.05,2.05,0,0,0,268.58,23.58Z"/><path class="cls-8" d="M285.66,23.58h5.47a2,2,0,0,0,2.11-2V10.68a2,2,0,0,0-2.11-2h-5.47a2,2,0,0,0-2.11,2V21.61A2,2,0,0,0,285.66,23.58Z"/><path class="cls-9" d="M302.79,23.58h5.46a2,2,0,0,0,2.11-2V10.68a2,2,0,0,0-2.11-2h-5.46a2,2,0,0,0-2.11,2V21.61A2,2,0,0,0,302.79,23.58Z"/><path class="cls-10" d="M251.5,23.58H257a2,2,0,0,0,2.11-2V10.68a2,2,0,0,0-2.11-2H251.5a2,2,0,0,0-2.11,2V21.61A2,2,0,0,0,251.5,23.58Z"/><path class="cls-11" d="M234.41,23.58h5.46a2,2,0,0,0,2.11-2V10.68a2,2,0,0,0-2.11-2h-5.46a2,2,0,0,0-2.11,2V21.61A2,2,0,0,0,234.41,23.58Z"/><path class="cls-12" d="M217.33,23.58h5.46a2,2,0,0,0,2.11-2V10.68a2,2,0,0,0-2.11-2h-5.46a2,2,0,0,0-2.11,2V21.61A2,2,0,0,0,217.33,23.58Z"/><path class="cls-13" d="M200.24,23.58h5.47a2,2,0,0,0,2.1-2V10.68a2,2,0,0,0-2.1-2h-5.47a2,2,0,0,0-2.11,2V21.61A2,2,0,0,0,200.24,23.58Z"/><path class="cls-14" d="M183.15,23.58h5.47a2,2,0,0,0,2.11-2V10.68a2,2,0,0,0-2.11-2h-5.47a2,2,0,0,0-2.11,2V21.61A2,2,0,0,0,183.15,23.58Z"/><path class="cls-2" d="M148.89,23.58h5.47a2,2,0,0,0,2.11-2V10.68a2,2,0,0,0-2.11-2h-5.47a2,2,0,0,0-2.11,2V21.61A2.05,2.05,0,0,0,148.89,23.58Z"/><path class="cls-3" d="M154.36,23.83h-5.47a2.29,2.29,0,0,1-2.36-2.22V10.68a2.3,2.3,0,0,1,2.36-2.22h5.47a2.3,2.3,0,0,1,2.36,2.22V21.61A2.29,2.29,0,0,1,154.36,23.83ZM148.89,9A1.81,1.81,0,0,0,147,10.68V21.61a1.8,1.8,0,0,0,1.86,1.72h5.47a1.79,1.79,0,0,0,1.86-1.72V10.68A1.8,1.8,0,0,0,154.36,9Z"/><path class="cls-15" d="M131.81,23.58h5.47a2,2,0,0,0,2.11-2V10.68a2,2,0,0,0-2.11-2h-5.47a2,2,0,0,0-2.11,2V21.61A2,2,0,0,0,131.81,23.58Z"/><path class="cls-16" d="M114.72,23.58h5.47a2,2,0,0,0,2.11-2V10.68a2,2,0,0,0-2.11-2h-5.47a2,2,0,0,0-2.11,2V21.61A2.05,2.05,0,0,0,114.72,23.58Z"/><path class="cls-17" d="M97.63,23.58h5.47a2,2,0,0,0,2.11-2V10.68a2,2,0,0,0-2.11-2H97.63a2,2,0,0,0-2.1,2V21.61A2,2,0,0,0,97.63,23.58Z"/><path class="cls-18" d="M80.55,23.58H86a2,2,0,0,0,2.11-2V10.68a2,2,0,0,0-2.11-2H80.55a2,2,0,0,0-2.1,2V21.61A2,2,0,0,0,80.55,23.58Z"/><path class="cls-19" d="M63.47,23.58h5.46a2,2,0,0,0,2.11-2V10.68a2,2,0,0,0-2.11-2H63.47a2,2,0,0,0-2.11,2V21.61A2,2,0,0,0,63.47,23.58Z"/><path d="M53.6,33.79V33h2.48v.81Z"/><path d="M61.46,30.34h-2.9l-.19,2.53h.06a2.08,2.08,0,0,1,.54-.53,1.48,1.48,0,0,1,.82-.2,2.22,2.22,0,0,1,.79.14,1.91,1.91,0,0,1,.63.41,1.81,1.81,0,0,1,.41.64,2.31,2.31,0,0,1,.15.86,2.56,2.56,0,0,1-.15.89,1.92,1.92,0,0,1-.45.69,1.76,1.76,0,0,1-.7.45,2.49,2.49,0,0,1-.93.17,2.7,2.7,0,0,1-.74-.1,2.1,2.1,0,0,1-.57-.25,3,3,0,0,1-.43-.36,4.35,4.35,0,0,1-.34-.41l.6-.46a3.32,3.32,0,0,0,.26.36,1.54,1.54,0,0,0,.31.27,1.21,1.21,0,0,0,.38.18,2,2,0,0,0,.53.06,1.24,1.24,0,0,0,1.38-1.38v-.09a1.38,1.38,0,0,0-.35-1,1.34,1.34,0,0,0-1-.37,1.32,1.32,0,0,0-.72.17,2.22,2.22,0,0,0-.47.39l-.68-.09.24-3.65h3.55Z"/><path d="M19.36,33.79V33h2.48v.81Z"/><path d="M25.35,36.39a3,3,0,0,1-1-.15,2.12,2.12,0,0,1-.72-.41,1.58,1.58,0,0,1-.43-.6,1.94,1.94,0,0,1-.15-.76,1.53,1.53,0,0,1,.37-1.09,2.08,2.08,0,0,1,1-.56v-.07a1.69,1.69,0,0,1-.83-.59,1.52,1.52,0,0,1-.31-1A1.47,1.47,0,0,1,23.8,30a2.39,2.39,0,0,1,1.55-.45A2.4,2.4,0,0,1,26.9,30a1.5,1.5,0,0,1,.55,1.21,1.58,1.58,0,0,1-.31,1,1.74,1.74,0,0,1-.83.59v.07a2.08,2.08,0,0,1,1,.56,1.58,1.58,0,0,1,.37,1.09,1.94,1.94,0,0,1-.15.76,1.61,1.61,0,0,1-.44.6,2,2,0,0,1-.71.41A3,3,0,0,1,25.35,36.39Zm0-.71a1.68,1.68,0,0,0,1.07-.3,1.09,1.09,0,0,0,.38-.88v-.2a1.05,1.05,0,0,0-.38-.87,1.63,1.63,0,0,0-1.07-.31,1.67,1.67,0,0,0-1.08.31,1.05,1.05,0,0,0-.38.87v.2a1.09,1.09,0,0,0,.38.88A1.73,1.73,0,0,0,25.35,35.68Zm0-3.23a1.51,1.51,0,0,0,.95-.26,1,1,0,0,0,.32-.78v-.14a1,1,0,0,0-.32-.78,1.51,1.51,0,0,0-.95-.26,1.49,1.49,0,0,0-1,.26.94.94,0,0,0-.32.78v.14a.94.94,0,0,0,.32.78A1.49,1.49,0,0,0,25.35,32.45Z"/><path d="M87.85,33.79V33h2.48v.81Z"/><path d="M93.46,32.43a1.47,1.47,0,0,0,1-.3,1,1,0,0,0,.34-.79v-.07a.92.92,0,0,0-.33-.78,1.34,1.34,0,0,0-.86-.26,1.4,1.4,0,0,0-.83.22,1.58,1.58,0,0,0-.53.61l-.59-.46a2.55,2.55,0,0,1,.3-.39,1.76,1.76,0,0,1,.41-.35,2.13,2.13,0,0,1,.55-.24,2.6,2.6,0,0,1,.71-.09,2.56,2.56,0,0,1,.79.11,1.83,1.83,0,0,1,.64.32,1.56,1.56,0,0,1,.43.52,1.65,1.65,0,0,1,.16.71,1.76,1.76,0,0,1-.1.58,1.48,1.48,0,0,1-.27.44,1.62,1.62,0,0,1-.41.32,1.69,1.69,0,0,1-.5.2v0a2,2,0,0,1,.52.19,1.45,1.45,0,0,1,.45.33,1.57,1.57,0,0,1,.31.5,1.69,1.69,0,0,1,.12.66,1.86,1.86,0,0,1-.16.79,1.82,1.82,0,0,1-.46.61,2,2,0,0,1-.71.39,2.73,2.73,0,0,1-.92.15,2.86,2.86,0,0,1-.76-.1,2.1,2.1,0,0,1-.59-.25,2.73,2.73,0,0,1-.45-.36,2.79,2.79,0,0,1-.35-.42l.6-.45a2.42,2.42,0,0,0,.27.36,1.4,1.4,0,0,0,.33.27,1.38,1.38,0,0,0,.41.18,2.09,2.09,0,0,0,.53.06,1.51,1.51,0,0,0,1.06-.32,1.15,1.15,0,0,0,.36-.91v-.08a1.15,1.15,0,0,0-.36-.91,1.51,1.51,0,0,0-1.06-.32h-.78v-.71Z"/><path d="M121.86,33.79V33h2.48v.81Z"/><path d="M125.83,36.27v-.7h1.86V30.23h-.07L126,31.79l-.47-.51,1.76-1.64h1.24v5.93h1.71v.7Z"/><path d="M160.23,36.39a1.89,1.89,0,0,1-1.74-.91A4.91,4.91,0,0,1,158,33a4.93,4.93,0,0,1,.54-2.53,2.12,2.12,0,0,1,3.47,0,4.92,4.92,0,0,1,.55,2.53,4.91,4.91,0,0,1-.55,2.52A1.88,1.88,0,0,1,160.23,36.39Zm0-.71a1.24,1.24,0,0,0,.66-.16,1.38,1.38,0,0,0,.45-.45,2.35,2.35,0,0,0,.25-.69,4.79,4.79,0,0,0,.08-.88V32.42a4.63,4.63,0,0,0-.08-.88,2.31,2.31,0,0,0-.25-.7,1.38,1.38,0,0,0-.45-.45,1.24,1.24,0,0,0-.66-.16,1.28,1.28,0,0,0-.67.16,1.38,1.38,0,0,0-.45.45,2.61,2.61,0,0,0-.25.7,4.63,4.63,0,0,0-.08.88V33.5a4.79,4.79,0,0,0,.08.88,2.67,2.67,0,0,0,.25.69,1.38,1.38,0,0,0,.45.45A1.28,1.28,0,0,0,160.23,35.68Z"/><path d="M192.45,36.27v-.7h1.85V30.23h-.06l-1.68,1.56-.46-.51,1.76-1.64h1.24v5.93h1.71v.7Z"/><path d="M228.51,32.43a1.47,1.47,0,0,0,1-.3,1,1,0,0,0,.34-.79v-.07a.92.92,0,0,0-.33-.78,1.34,1.34,0,0,0-.86-.26,1.4,1.4,0,0,0-.83.22,1.67,1.67,0,0,0-.53.61l-.59-.46a2.55,2.55,0,0,1,.3-.39,1.76,1.76,0,0,1,.41-.35,2.13,2.13,0,0,1,.55-.24,2.6,2.6,0,0,1,.71-.09,2.56,2.56,0,0,1,.79.11,1.83,1.83,0,0,1,.64.32,1.45,1.45,0,0,1,.43.52,1.51,1.51,0,0,1,.16.71,1.76,1.76,0,0,1-.1.58,1.48,1.48,0,0,1-.27.44,1.62,1.62,0,0,1-.41.32,1.69,1.69,0,0,1-.5.2v0A2,2,0,0,1,230,33a1.45,1.45,0,0,1,.45.33,1.57,1.57,0,0,1,.31.5,1.69,1.69,0,0,1,.12.66,1.86,1.86,0,0,1-.16.79,1.82,1.82,0,0,1-.46.61,2,2,0,0,1-.71.39,2.69,2.69,0,0,1-.92.15,2.86,2.86,0,0,1-.76-.1,2.1,2.1,0,0,1-.59-.25,2.73,2.73,0,0,1-.45-.36,2.79,2.79,0,0,1-.35-.42l.6-.45a2.42,2.42,0,0,0,.27.36,1.4,1.4,0,0,0,.33.27,1.38,1.38,0,0,0,.41.18,2.09,2.09,0,0,0,.53.06,1.51,1.51,0,0,0,1.06-.32,1.16,1.16,0,0,0,.37-.91v-.08a1.16,1.16,0,0,0-.37-.91,1.51,1.51,0,0,0-1.06-.32h-.78v-.71Z"/><path d="M264.65,30.34h-2.91l-.19,2.53h.07a2.22,2.22,0,0,1,.53-.53,1.52,1.52,0,0,1,.83-.2,2.21,2.21,0,0,1,.78.14,1.81,1.81,0,0,1,.63.41,1.7,1.7,0,0,1,.42.64,2.71,2.71,0,0,1,0,1.75,1.9,1.9,0,0,1-.44.69,1.84,1.84,0,0,1-.7.45,2.54,2.54,0,0,1-.94.17,2.76,2.76,0,0,1-.74-.1,1.91,1.91,0,0,1-.56-.25,2.22,2.22,0,0,1-.43-.36,3.21,3.21,0,0,1-.34-.41l.6-.46a3.32,3.32,0,0,0,.26.36,1.27,1.27,0,0,0,.3.27,1.17,1.17,0,0,0,.39.18,2,2,0,0,0,.52.06,1.4,1.4,0,0,0,1-.36,1.42,1.42,0,0,0,.35-1v-.09a1.42,1.42,0,0,0-.35-1A1.63,1.63,0,0,0,262,33a2.5,2.5,0,0,0-.47.39l-.67-.09.24-3.65h3.55Z"/><path d="M297,36.39a3,3,0,0,1-1-.15,1.94,1.94,0,0,1-.72-.41,1.73,1.73,0,0,1-.44-.6,1.94,1.94,0,0,1-.14-.76,1.53,1.53,0,0,1,.37-1.09,2,2,0,0,1,1-.56v-.07a1.77,1.77,0,0,1-.84-.59,1.58,1.58,0,0,1-.3-1,1.47,1.47,0,0,1,.55-1.21,2.88,2.88,0,0,1,3.09,0,1.47,1.47,0,0,1,.55,1.21,1.58,1.58,0,0,1-.3,1,1.77,1.77,0,0,1-.84.59v.07a2,2,0,0,1,1,.56,1.53,1.53,0,0,1,.37,1.09,2.14,2.14,0,0,1-.14.76,1.73,1.73,0,0,1-.44.6,1.94,1.94,0,0,1-.72.41A3,3,0,0,1,297,36.39Zm0-.71a1.69,1.69,0,0,0,1.08-.3,1.09,1.09,0,0,0,.38-.88v-.2a1.05,1.05,0,0,0-.38-.87,2,2,0,0,0-2.15,0,1.05,1.05,0,0,0-.38.87v.2a1.09,1.09,0,0,0,.38.88A1.68,1.68,0,0,0,297,35.68Zm0-3.23a1.49,1.49,0,0,0,1-.26,1,1,0,0,0,.33-.78v-.14a1,1,0,0,0-.33-.78,1.85,1.85,0,0,0-1.89,0,1,1,0,0,0-.33.78v.14a1,1,0,0,0,.33.78A1.48,1.48,0,0,0,297,32.45Z"/><path d="M106.94,50.36l-.67-2h-2.68l-.66,2h-.81l2.32-6.64h1l2.31,6.64Zm-2-5.89h0l-1.12,3.22h2.29Z"/><path d="M108.8,50.36V45.45h.76v.79h0a1.68,1.68,0,0,1,.51-.66,1.44,1.44,0,0,1,.88-.24,1.54,1.54,0,0,1,1.2.49,2,2,0,0,1,.44,1.38v3.15h-.76v-3c0-.89-.37-1.33-1.11-1.33a1.56,1.56,0,0,0-.44.06,1.39,1.39,0,0,0-.39.17,1.06,1.06,0,0,0-.27.29.82.82,0,0,0-.1.42v3.41Z"/><path d="M116.05,50.47a2.19,2.19,0,0,1-.9-.18,1.81,1.81,0,0,1-.7-.52A2.13,2.13,0,0,1,114,49a3.14,3.14,0,0,1-.17-1.06,3.21,3.21,0,0,1,.17-1,2.13,2.13,0,0,1,.45-.81,1.81,1.81,0,0,1,.7-.52,2.34,2.34,0,0,1,1.8,0,1.94,1.94,0,0,1,.69.52,2.29,2.29,0,0,1,.46.81,3.21,3.21,0,0,1,.16,1A3.15,3.15,0,0,1,118.1,49a2.29,2.29,0,0,1-.46.81,1.94,1.94,0,0,1-.69.52A2.19,2.19,0,0,1,116.05,50.47Zm0-.68a1.36,1.36,0,0,0,1-.38,1.52,1.52,0,0,0,.38-1.15v-.71a1.56,1.56,0,0,0-.38-1.16,1.53,1.53,0,0,0-2,0,1.56,1.56,0,0,0-.39,1.16v.71a1.52,1.52,0,0,0,.39,1.15A1.36,1.36,0,0,0,116.05,49.79Z"/><path d="M119.52,50.36V45.45h.76v.79h0a4,4,0,0,1,.2-.35,1.2,1.2,0,0,1,.26-.29,1.38,1.38,0,0,1,.86-.26,1.85,1.85,0,0,1,.9.23,1.38,1.38,0,0,1,.6.76h0a1.47,1.47,0,0,1,.5-.69,1.55,1.55,0,0,1,1-.3,1.45,1.45,0,0,1,1.17.49,2.05,2.05,0,0,1,.42,1.38v3.15h-.76v-3a1.61,1.61,0,0,0-.25-1,1,1,0,0,0-.82-.34,1.49,1.49,0,0,0-.43.06,1.4,1.4,0,0,0-.37.17,1,1,0,0,0-.26.29.93.93,0,0,0-.09.42v3.41h-.76v-3a1.6,1.6,0,0,0-.26-1,.92.92,0,0,0-.8-.34,1.54,1.54,0,0,0-.43.06,1.26,1.26,0,0,0-.37.17.89.89,0,0,0-.26.29.82.82,0,0,0-.1.42v3.41Z"/><path d="M131.37,50.36a.75.75,0,0,1-.61-.23,1.13,1.13,0,0,1-.23-.57h-.05a1.31,1.31,0,0,1-.53.68,1.95,1.95,0,0,1-2.1-.17,1.4,1.4,0,0,1-.43-1.08,1.25,1.25,0,0,1,.51-1.07,2.74,2.74,0,0,1,1.58-.37h1v-.48a1.06,1.06,0,0,0-.29-.8,1.23,1.23,0,0,0-.87-.28,1.35,1.35,0,0,0-.75.2,1.74,1.74,0,0,0-.5.54l-.45-.43a1.66,1.66,0,0,1,.64-.68,2,2,0,0,1,1.1-.28,2,2,0,0,1,1.38.44,1.52,1.52,0,0,1,.5,1.21v2.69h.56v.68Zm-2.18-.54a2.12,2.12,0,0,0,.52-.06,1.55,1.55,0,0,0,.41-.19.89.89,0,0,0,.26-.29.62.62,0,0,0,.1-.35v-.81h-1a1.88,1.88,0,0,0-.95.19.62.62,0,0,0-.3.55v.2a.65.65,0,0,0,.26.56A1.09,1.09,0,0,0,129.19,49.82Z"/><path d="M133.69,50.36a.75.75,0,0,1-.6-.23.79.79,0,0,1-.21-.56V43.33h.76v6.35h.72v.68Z"/><path d="M135.85,44.3a.5.5,0,0,1-.36-.11.47.47,0,0,1-.11-.31v-.13a.47.47,0,0,1,.11-.31.46.46,0,0,1,.36-.11.45.45,0,0,1,.35.11.42.42,0,0,1,.11.31v.13a.42.42,0,0,1-.11.31A.49.49,0,0,1,135.85,44.3Zm-.38,1.15h.76v4.91h-.76Z"/><path d="M141.4,50.36a.75.75,0,0,1-.61-.23,1.13,1.13,0,0,1-.23-.57h-.05a1.26,1.26,0,0,1-.53.68,1.68,1.68,0,0,1-.89.23,1.7,1.7,0,0,1-1.21-.4,1.44,1.44,0,0,1-.43-1.08,1.25,1.25,0,0,1,.51-1.07,2.74,2.74,0,0,1,1.58-.37h1v-.48a1.09,1.09,0,0,0-.28-.8,1.27,1.27,0,0,0-.88-.28,1.32,1.32,0,0,0-.74.2,1.63,1.63,0,0,0-.5.54l-.46-.43a1.73,1.73,0,0,1,.64-.68,2,2,0,0,1,1.1-.28,2.05,2.05,0,0,1,1.39.44,1.52,1.52,0,0,1,.49,1.21v2.69h.56v.68Zm-2.18-.54a2.12,2.12,0,0,0,.52-.06,1.55,1.55,0,0,0,.41-.19.89.89,0,0,0,.26-.29.62.62,0,0,0,.1-.35v-.81h-1a1.91,1.91,0,0,0-.95.19.62.62,0,0,0-.3.55v.2a.67.67,0,0,0,.26.56A1.09,1.09,0,0,0,139.22,49.82Z"/><path d="M148.29,49.57h0a1.49,1.49,0,0,1-1.43.9,1.87,1.87,0,0,1-.83-.18,1.73,1.73,0,0,1-.63-.51A2.56,2.56,0,0,1,145,49a4.12,4.12,0,0,1,0-2.13,2.36,2.36,0,0,1,.4-.81,1.73,1.73,0,0,1,.63-.51,1.87,1.87,0,0,1,.83-.18,1.67,1.67,0,0,1,.88.22,1.39,1.39,0,0,1,.55.68h0V43.33h.76v7h-.76Zm-1.26.22a2,2,0,0,0,.49-.06,1.25,1.25,0,0,0,.4-.2,1,1,0,0,0,.27-.31.88.88,0,0,0,.1-.43V47a.75.75,0,0,0-.1-.38,1,1,0,0,0-.27-.3,1.24,1.24,0,0,0-.4-.19A1.62,1.62,0,0,0,147,46a1.33,1.33,0,0,0-1,.41,1.49,1.49,0,0,0-.37,1.06v.84a1.52,1.52,0,0,0,.37,1.07A1.32,1.32,0,0,0,147,49.79Z"/><path d="M152.51,50.47a2.21,2.21,0,0,1-.91-.18,1.86,1.86,0,0,1-.69-.52,2.27,2.27,0,0,1-.45-.81,3.42,3.42,0,0,1-.16-1.06,3.5,3.5,0,0,1,.16-1,2.27,2.27,0,0,1,.45-.81,1.86,1.86,0,0,1,.69-.52,2.21,2.21,0,0,1,.91-.18,2,2,0,0,1,1.55.68,2.28,2.28,0,0,1,.42.75,2.93,2.93,0,0,1,.15,1v.35H151.1v.23a1.87,1.87,0,0,0,.1.59,1.42,1.42,0,0,0,.29.47,1.21,1.21,0,0,0,.45.31,1.72,1.72,0,0,0,1.43-.1,1.43,1.43,0,0,0,.53-.63l.55.39a1.91,1.91,0,0,1-.75.82A2.18,2.18,0,0,1,152.51,50.47Zm0-4.49a1.48,1.48,0,0,0-.57.1,1.4,1.4,0,0,0-.44.31,1.33,1.33,0,0,0-.29.47,1.63,1.63,0,0,0-.11.59v.07h2.71v-.11a1.48,1.48,0,0,0-.36-1A1.2,1.2,0,0,0,152.51,46Z"/><path d="M158.2,50.36V43.72h2.64a1.8,1.8,0,0,1,1.37.51,2.27,2.27,0,0,1,0,2.79,1.79,1.79,0,0,1-1.37.5H159v2.84Zm.8-3.54h1.84a1,1,0,0,0,.73-.25.88.88,0,0,0,.27-.7v-.49a.92.92,0,0,0-.27-.71,1,1,0,0,0-.73-.24H159Z"/><path d="M165.82,50.47a2.81,2.81,0,0,1-1.38-.31,3,3,0,0,1-1-.85l.59-.49a2.44,2.44,0,0,0,.78.7,1.92,1.92,0,0,0,1,.25,1.54,1.54,0,0,0,1.08-.35,1.16,1.16,0,0,0,.38-.91.94.94,0,0,0-.29-.73,2.12,2.12,0,0,0-.94-.41l-.54-.12a3.16,3.16,0,0,1-1.39-.63,1.51,1.51,0,0,1-.48-1.2,1.71,1.71,0,0,1,.16-.77,1.59,1.59,0,0,1,.45-.57,2,2,0,0,1,.7-.35,3,3,0,0,1,.88-.12,2.73,2.73,0,0,1,1.29.28,2.48,2.48,0,0,1,.91.8l-.6.44a2.21,2.21,0,0,0-.66-.6,2,2,0,0,0-1-.22,1.68,1.68,0,0,0-1,.27,1,1,0,0,0-.36.82.84.84,0,0,0,.31.71,2.26,2.26,0,0,0,.93.39l.54.12a2.81,2.81,0,0,1,1.42.67,1.61,1.61,0,0,1,.44,1.18,2.19,2.19,0,0,1-.16.83,1.59,1.59,0,0,1-.45.63,2.28,2.28,0,0,1-.72.4A3.11,3.11,0,0,1,165.82,50.47Z"/><path d="M169.16,50.36v-.67h.93v-5.3h-.93v-.67h2.66v.67h-.93v5.3h.93v.67Z"/><path d="M175.42,47.39a6.36,6.36,0,0,1,.13-1.32,6,6,0,0,1,.37-1.18,4.7,4.7,0,0,1,.55-1,3.57,3.57,0,0,1,.67-.76h.72a5,5,0,0,0-.71.81,5.49,5.49,0,0,0-.55,1,5.59,5.59,0,0,0-.34,1,4.08,4.08,0,0,0-.13,1v.82a4.1,4.1,0,0,0,.13,1,5.63,5.63,0,0,0,.35,1,5.73,5.73,0,0,0,.54,1,5,5,0,0,0,.71.8h-.72a4,4,0,0,1-.66-.74,5,5,0,0,1-.55-1,6.35,6.35,0,0,1-.37-1.19A6.55,6.55,0,0,1,175.42,47.39Z"/><path d="M178.65,50.36v-.71h1.85V44.31h-.06l-1.67,1.56-.47-.5,1.76-1.65h1.24v5.93H183v.71Z"/><path d="M186.36,50.47a1.88,1.88,0,0,1-1.73-.9,5,5,0,0,1-.54-2.53,5,5,0,0,1,.54-2.53,2.12,2.12,0,0,1,3.47,0,5,5,0,0,1,.55,2.53,5,5,0,0,1-.55,2.53A1.88,1.88,0,0,1,186.36,50.47Zm0-.7a1.38,1.38,0,0,0,.67-.16,1.32,1.32,0,0,0,.45-.46,2.42,2.42,0,0,0,.25-.69,4.79,4.79,0,0,0,.08-.88V46.5a4.79,4.79,0,0,0-.08-.88,2.54,2.54,0,0,0-.25-.69,1.32,1.32,0,0,0-.45-.46,1.46,1.46,0,0,0-1.33,0,1.32,1.32,0,0,0-.45.46,2.54,2.54,0,0,0-.25.69,4.79,4.79,0,0,0-.08.88v1.08a4.79,4.79,0,0,0,.08.88,2.42,2.42,0,0,0,.25.69,1.32,1.32,0,0,0,.45.46A1.37,1.37,0,0,0,186.36,49.77Z"/><path d="M190.94,47.29a1.31,1.31,0,0,1-1-.37,1.36,1.36,0,0,1-.35-1,2.08,2.08,0,0,1,.12-.71,2.8,2.8,0,0,1,.32-.62,4.25,4.25,0,0,1,.44-.5,4.46,4.46,0,0,1,.48-.37h.8l-.59.42a3.54,3.54,0,0,0-.44.41,2.14,2.14,0,0,0-.32.44,2.16,2.16,0,0,0-.2.52h0a1.21,1.21,0,0,1,.33-.35.91.91,0,0,1,.56-.15,1.12,1.12,0,0,1,.81.29,1,1,0,0,1,.32.79,1.12,1.12,0,0,1-.36.86A1.41,1.41,0,0,1,190.94,47.29Zm0-.46a.77.77,0,0,0,.52-.16.6.6,0,0,0,.2-.49v0a.63.63,0,0,0-.2-.5.83.83,0,0,0-.52-.16.84.84,0,0,0-.53.16.63.63,0,0,0-.2.5v0a.6.6,0,0,0,.2.49A.78.78,0,0,0,190.94,46.83Z"/><path d="M193.43,50.36V45.45h.76v.79h0a2.43,2.43,0,0,1,.2-.35,1.2,1.2,0,0,1,.26-.29,1.38,1.38,0,0,1,.86-.26,1.82,1.82,0,0,1,.89.23,1.35,1.35,0,0,1,.61.76h0a1.47,1.47,0,0,1,.5-.69,1.52,1.52,0,0,1,1-.3,1.48,1.48,0,0,1,1.18.49,2.05,2.05,0,0,1,.42,1.38v3.15h-.76v-3a1.6,1.6,0,0,0-.26-1,.94.94,0,0,0-.81-.34,1.56,1.56,0,0,0-.44.06,1.49,1.49,0,0,0-.36.17.89.89,0,0,0-.26.29.93.93,0,0,0-.09.42v3.41h-.76v-3a1.6,1.6,0,0,0-.26-1,.93.93,0,0,0-.8-.34,1.61,1.61,0,0,0-.44.06,1.4,1.4,0,0,0-.37.17,1.2,1.2,0,0,0-.26.29.93.93,0,0,0-.1.42v3.41Z"/><path d="M203.87,47.23h-2.58v-.54l1.23-1a2.31,2.31,0,0,0,.44-.45.85.85,0,0,0,.15-.48V44.7a.53.53,0,0,0-.15-.39.65.65,0,0,0-.46-.15.71.71,0,0,0-.5.16,1.14,1.14,0,0,0-.25.39l-.51-.19a1.37,1.37,0,0,1,.16-.32,1.06,1.06,0,0,1,.25-.27,1.35,1.35,0,0,1,.38-.19,1.55,1.55,0,0,1,.5-.07,1.26,1.26,0,0,1,.91.29,1,1,0,0,1,.31.74,1.12,1.12,0,0,1-.25.73,3.85,3.85,0,0,1-.65.61l-.92.71h1.94Z"/><path d="M206.49,50.47a2.36,2.36,0,0,1-1.15-.26,2.64,2.64,0,0,1-.79-.7l.54-.44a2.1,2.1,0,0,0,.64.56,1.62,1.62,0,0,0,.81.19,1.21,1.21,0,0,0,.76-.21.74.74,0,0,0,.08-1.07,1.08,1.08,0,0,0-.67-.28l-.39-.06a3,3,0,0,1-.62-.15,1.58,1.58,0,0,1-.5-.26,1.12,1.12,0,0,1-.33-.42,1.32,1.32,0,0,1-.12-.59,1.39,1.39,0,0,1,.13-.63,1.24,1.24,0,0,1,.37-.45,1.57,1.57,0,0,1,.55-.27,2.61,2.61,0,0,1,.69-.09,2.19,2.19,0,0,1,1,.21,2.15,2.15,0,0,1,.7.58l-.5.45a1.48,1.48,0,0,0-.47-.41,1.59,1.59,0,0,0-.79-.18,1.07,1.07,0,0,0-.72.2.7.7,0,0,0-.24.56.58.58,0,0,0,.24.52,1.89,1.89,0,0,0,.7.24l.38.05A2.13,2.13,0,0,1,208,48a1.24,1.24,0,0,1,.34.91,1.4,1.4,0,0,1-.48,1.12A2,2,0,0,1,206.49,50.47Z"/><path d="M209.39,45.88v-.82h2.48v.82Z"/><path d="M213.05,47.23v-.48h1V44.24l-1,.52-.24-.42,1.2-.62h.64v3h.94v.48Z"/><path d="M218.33,47.39a5.92,5.92,0,0,1-.14,1.34,6.35,6.35,0,0,1-.37,1.19,5,5,0,0,1-.54,1,4,4,0,0,1-.67.74h-.72a5,5,0,0,0,.7-.8,6.57,6.57,0,0,0,.55-1,5.63,5.63,0,0,0,.35-1,4.1,4.1,0,0,0,.13-1V47a4.57,4.57,0,0,0-.12-1,6.47,6.47,0,0,0-.35-1,6.14,6.14,0,0,0-.54-1,4.64,4.64,0,0,0-.72-.81h.72a3.9,3.9,0,0,1,.68.76,4.67,4.67,0,0,1,.54,1,6,6,0,0,1,.37,1.18A6.36,6.36,0,0,1,218.33,47.39Z"/></svg>