<svg id="Camada_1" data-name="Camada 1" xmlns="http://www.w3.org/2000/svg" viewBox="0 0 320.4 57.45">
  <title>LEGENDAS_PÁGINA_CLIMA</title>
  <g style="opacity: 0.75">
    <path d="M0,6.38C0,2.86,3.19,0,7.12,0H313.28c3.94,0,7.12,2.86,7.12,6.38V51.07c0,3.52-3.18,6.38-7.12,6.38H7.12C3.19,57.45,0,54.59,0,51.07Z" style="fill: #fff"/>
  </g>
  <g>
    <path d="M54.3,33.14v-.69h2.1v.69Z"/>
    <path d="M59.05,32a1.26,1.26,0,0,0,.86-.26.88.88,0,0,0,.28-.67V31a.81.81,0,0,0-.27-.66,1.37,1.37,0,0,0-1.44,0,1.59,1.59,0,0,0-.45.51l-.5-.38a2,2,0,0,1,.25-.34,1.67,1.67,0,0,1,.82-.49,1.9,1.9,0,0,1,.6-.08,2.41,2.41,0,0,1,.67.09,1.66,1.66,0,0,1,.55.27,1.39,1.39,0,0,1,.36.44,1.33,1.33,0,0,1,.13.61,1.23,1.23,0,0,1-.31.86,1.17,1.17,0,0,1-.35.27,1.54,1.54,0,0,1-.42.17v0a2.32,2.32,0,0,1,.44.16,1.49,1.49,0,0,1,.38.28,1.29,1.29,0,0,1,.26.42,1.48,1.48,0,0,1,.11.57,1.59,1.59,0,0,1-.14.66,1.43,1.43,0,0,1-.39.52,1.82,1.82,0,0,1-.6.33,2.2,2.2,0,0,1-.78.13,2.57,2.57,0,0,1-.65-.08A2.2,2.2,0,0,1,58,35a2,2,0,0,1-.39-.3,2.34,2.34,0,0,1-.29-.35L57.8,34a2.26,2.26,0,0,0,.23.31,1.49,1.49,0,0,0,.27.23,1.6,1.6,0,0,0,.35.15,2,2,0,0,0,.45.05,1.31,1.31,0,0,0,.9-.27,1,1,0,0,0,.31-.77v-.07a1,1,0,0,0-.31-.77,1.26,1.26,0,0,0-.9-.28h-.66V32Z"/>
  </g>
  <g>
    <path d="M19.91,33.14v-.69H22v.69Z"/>
    <path d="M25.59,35.24v-1.1H22.87v-.6l2.35-3.92h1v3.95H27v.57h-.81v1.1Zm-2.08-1.67h2.08V30.15h0Z"/>
  </g>
  <g>
    <path d="M88.36,33.14v-.69h2.1v.69Z"/>
    <path d="M95.3,35.24H91.61v-.69l1.84-1.69a4.28,4.28,0,0,0,.66-.77,1.51,1.51,0,0,0,.27-.82v-.1a1.13,1.13,0,0,0-.26-.76,1,1,0,0,0-.78-.29,1.52,1.52,0,0,0-.45.07,1.27,1.27,0,0,0-.34.2,1.19,1.19,0,0,0-.23.31,2,2,0,0,0-.15.37l-.6-.23a1.94,1.94,0,0,1,.22-.49,1.57,1.57,0,0,1,.35-.42,1.63,1.63,0,0,1,.52-.29,1.93,1.93,0,0,1,.71-.11,2.07,2.07,0,0,1,.73.12,1.45,1.45,0,0,1,.54.33,1.51,1.51,0,0,1,.34.52,2.07,2.07,0,0,1,0,1.27,2.57,2.57,0,0,1-.25.53,3.56,3.56,0,0,1-.39.5c-.16.16-.32.32-.5.48l-1.51,1.36h3Z"/>
  </g>
  <g>
    <path d="M122.53,33.14v-.69h2.1v.69Z"/>
    <path d="M125.89,35.24v-.6h1.57V30.12h0L126,31.44,125.6,31l1.48-1.39h1.06v5h1.45v.6Z"/>
  </g>
  <path d="M160.21,35.34a1.57,1.57,0,0,1-1.46-.77,4.12,4.12,0,0,1-.47-2.14,4.12,4.12,0,0,1,.47-2.14,1.56,1.56,0,0,1,1.46-.76,1.59,1.59,0,0,1,1.47.76,4.12,4.12,0,0,1,.47,2.14,4.12,4.12,0,0,1-.47,2.14A1.6,1.6,0,0,1,160.21,35.34Zm0-.6a1,1,0,0,0,.57-.14,1.15,1.15,0,0,0,.38-.38,2.27,2.27,0,0,0,.21-.59,4.14,4.14,0,0,0,.07-.74V32a4.14,4.14,0,0,0-.07-.74,2.27,2.27,0,0,0-.21-.59,1,1,0,0,0-.95-.52,1.11,1.11,0,0,0-.56.14,1.15,1.15,0,0,0-.38.38,2,2,0,0,0-.21.59A3.38,3.38,0,0,0,159,32v.92a3.38,3.38,0,0,0,.07.74,2,2,0,0,0,.21.59,1.15,1.15,0,0,0,.38.38A1,1,0,0,0,160.21,34.74Z"/>
  <path d="M192.69,35.24v-.6h1.57V30.12h-.06l-1.41,1.32-.4-.43,1.49-1.39h1.06v5h1.44v.6Z"/>
  <path d="M230.47,35.24h-3.69v-.69l1.84-1.69a4.28,4.28,0,0,0,.66-.77,1.58,1.58,0,0,0,.26-.82v-.1a1.08,1.08,0,0,0-.26-.76,1,1,0,0,0-.78-.29,1.52,1.52,0,0,0-.45.07,1.08,1.08,0,0,0-.33.2,1,1,0,0,0-.23.31,1.2,1.2,0,0,0-.15.37l-.61-.23a3.06,3.06,0,0,1,.22-.49,1.82,1.82,0,0,1,.36-.42,1.58,1.58,0,0,1,.51-.29,2,2,0,0,1,.72-.11,2.11,2.11,0,0,1,.73.12,1.38,1.38,0,0,1,.87.85,1.76,1.76,0,0,1,.12.66,2,2,0,0,1-.09.61,2.61,2.61,0,0,1-.26.53,3.56,3.56,0,0,1-.39.5c-.15.16-.32.32-.49.48l-1.52,1.36h3Z"/>
  <path d="M262.67,32a1.26,1.26,0,0,0,.86-.26.88.88,0,0,0,.29-.67V31a.82.82,0,0,0-.28-.66,1.37,1.37,0,0,0-1.44,0,1.59,1.59,0,0,0-.45.51l-.5-.38a2,2,0,0,1,.26-.34,1.62,1.62,0,0,1,.34-.29,2,2,0,0,1,.47-.2,1.92,1.92,0,0,1,.61-.08,2.39,2.39,0,0,1,.66.09,1.66,1.66,0,0,1,.55.27,1.39,1.39,0,0,1,.36.44,1.33,1.33,0,0,1,.13.61,1.23,1.23,0,0,1-.31.86,1.27,1.27,0,0,1-.34.27,1.75,1.75,0,0,1-.43.17v0a2.32,2.32,0,0,1,.44.16,1.49,1.49,0,0,1,.38.28,1.51,1.51,0,0,1,.27.42,1.7,1.7,0,0,1,.1.57,1.59,1.59,0,0,1-.14.66,1.43,1.43,0,0,1-.39.52,1.73,1.73,0,0,1-.6.33,2.2,2.2,0,0,1-.78.13,2.57,2.57,0,0,1-.65-.08,2.2,2.2,0,0,1-.49-.22,2,2,0,0,1-.39-.3,3.17,3.17,0,0,1-.29-.35l.51-.39a2.26,2.26,0,0,0,.23.31,1.49,1.49,0,0,0,.27.23,1.84,1.84,0,0,0,.35.15,2,2,0,0,0,.45.05,1.31,1.31,0,0,0,.9-.27,1,1,0,0,0,.31-.77v-.07a1,1,0,0,0-.31-.77,1.26,1.26,0,0,0-.9-.28h-.66V32Z"/>
  <path d="M296.75,35.24v-1.1H294v-.6l2.35-3.92h1v3.95h.81v.57h-.81v1.1Zm-2.08-1.67h2.08V30.15h0Z"/>
  <g>
    <g>
      <path d="M154.42,23.58H149a2,2,0,0,1-2.11-2V10.68a2,2,0,0,1,2.11-2h5.46a2,2,0,0,1,2.11,2V21.61A2,2,0,0,1,154.42,23.58Z" style="fill: #fff"/>
      <path d="M146.6,21.61V10.68A2.29,2.29,0,0,1,149,8.46h5.46a2.3,2.3,0,0,1,2.36,2.22V21.61a2.29,2.29,0,0,1-2.36,2.22H149A2.29,2.29,0,0,1,146.6,21.61ZM149,9a1.8,1.8,0,0,0-1.86,1.72V21.61A1.79,1.79,0,0,0,149,23.33h5.46a1.79,1.79,0,0,0,1.86-1.72V10.68A1.8,1.8,0,0,0,154.42,9Z" style="fill: #939393"/>
    </g>
    <path d="M274,23.58h-5.47a2,2,0,0,1-2.11-2V10.68a2,2,0,0,1,2.11-2H274a2,2,0,0,1,2.11,2V21.61A2.05,2.05,0,0,1,274,23.58Z" style="fill: #eb2b20"/>
    <path d="M291.11,23.58h-5.46a2,2,0,0,1-2.11-2V10.68a2,2,0,0,1,2.11-2h5.46a2,2,0,0,1,2.11,2V21.61A2,2,0,0,1,291.11,23.58Z" style="fill: #d6111f"/>
    <path d="M308.2,23.58h-5.46a2,2,0,0,1-2.11-2V10.68a2,2,0,0,1,2.11-2h5.46a2,2,0,0,1,2.11,2V21.61A2,2,0,0,1,308.2,23.58Z" style="fill: #bd0026"/>
    <path d="M51.82,23.58H46.35a2,2,0,0,1-2.11-2V10.68a2,2,0,0,1,2.11-2h5.47a2,2,0,0,1,2.11,2V21.61A2,2,0,0,1,51.82,23.58Z" style="fill: #0868ac"/>
    <path d="M34.74,23.58H29.28a2,2,0,0,1-2.11-2V10.68a2,2,0,0,1,2.11-2h5.46a2,2,0,0,1,2.11,2V21.61A2,2,0,0,1,34.74,23.58Z" style="fill: #001476"/>
    <path d="M17.67,23.58H12.2a2,2,0,0,1-2.11-2V10.68a2,2,0,0,1,2.11-2h5.47a2,2,0,0,1,2.11,2V21.61A2,2,0,0,1,17.67,23.58Z" style="fill: #081d58"/>
    <path d="M68.91,23.58H63.44a2,2,0,0,1-2.11-2V10.68a2,2,0,0,1,2.11-2h5.47a2,2,0,0,1,2.11,2V21.61A2.05,2.05,0,0,1,68.91,23.58Z" style="fill: #2b8cbe"/>
    <path d="M86,23.58H80.53a2,2,0,0,1-2.11-2V10.68a2,2,0,0,1,2.11-2H86a2,2,0,0,1,2.11,2V21.61A2.05,2.05,0,0,1,86,23.58Z" style="fill: #7bccc4"/>
    <path d="M103.08,23.58H97.61a2,2,0,0,1-2.11-2V10.68a2,2,0,0,1,2.11-2h5.47a2,2,0,0,1,2.11,2V21.61A2.05,2.05,0,0,1,103.08,23.58Z" style="fill: #a8ddb5"/>
    <path d="M120.17,23.58H114.7a2,2,0,0,1-2.11-2V10.68a2,2,0,0,1,2.11-2h5.47a2,2,0,0,1,2.1,2V21.61A2,2,0,0,1,120.17,23.58Z" style="fill: #ccebc5"/>
    <path d="M137.25,23.58h-5.46a2,2,0,0,1-2.11-2V10.68a2,2,0,0,1,2.11-2h5.46a2,2,0,0,1,2.11,2V21.61A2,2,0,0,1,137.25,23.58Z" style="fill: #e0f3db"/>
    <g>
      <path d="M171.51,23.58H166a2,2,0,0,1-2.11-2V10.68a2,2,0,0,1,2.11-2h5.47a2,2,0,0,1,2.11,2V21.61A2,2,0,0,1,171.51,23.58Z" style="fill: #fff"/>
      <path d="M163.68,21.61V10.68A2.3,2.3,0,0,1,166,8.46h5.47a2.3,2.3,0,0,1,2.36,2.22V21.61a2.29,2.29,0,0,1-2.36,2.22H166A2.29,2.29,0,0,1,163.68,21.61ZM166,9a1.81,1.81,0,0,0-1.86,1.72V21.61A1.8,1.8,0,0,0,166,23.33h5.47a1.79,1.79,0,0,0,1.86-1.72V10.68A1.8,1.8,0,0,0,171.51,9Z" style="fill: #939393"/>
    </g>
    <path d="M188.59,23.58h-5.47a2,2,0,0,1-2.1-2V10.68a2,2,0,0,1,2.1-2h5.47a2,2,0,0,1,2.11,2V21.61A2,2,0,0,1,188.59,23.58Z" style="fill: #ffc"/>
    <path d="M205.68,23.58h-5.47a2,2,0,0,1-2.11-2V10.68a2,2,0,0,1,2.11-2h5.47a2,2,0,0,1,2.11,2V21.61A2,2,0,0,1,205.68,23.58Z" style="fill: #ffeda0"/>
    <path d="M222.77,23.58H217.3a2,2,0,0,1-2.11-2V10.68a2,2,0,0,1,2.11-2h5.47a2,2,0,0,1,2.11,2V21.61A2.05,2.05,0,0,1,222.77,23.58Z" style="fill: #fed976"/>
    <path d="M239.85,23.58h-5.47a2,2,0,0,1-2.11-2V10.68a2,2,0,0,1,2.11-2h5.47a2,2,0,0,1,2.11,2V21.61A2,2,0,0,1,239.85,23.58Z" style="fill: #feb24c"/>
    <path d="M256.94,23.58h-5.47a2,2,0,0,1-2.11-2V10.68a2,2,0,0,1,2.11-2h5.47a2,2,0,0,1,2.11,2V21.61A2.05,2.05,0,0,1,256.94,23.58Z" style="fill: #fc4e2a"/>
  </g>
  <g>
    <path d="M69.45,49.82,68.84,48H66.39l-.61,1.8H65l2.13-6.09h.93l2.13,6.09Zm-1.82-5.41h0l-1,3h2.1Z"/>
    <path d="M71.16,49.82v-4.5h.7V46h0a1.46,1.46,0,0,1,.46-.6,1.32,1.32,0,0,1,.81-.22,1.44,1.44,0,0,1,1.1.44,1.85,1.85,0,0,1,.41,1.27v2.89H74V47.05c0-.81-.34-1.22-1-1.22a1.45,1.45,0,0,0-.41.06,1.09,1.09,0,0,0-.35.15.92.92,0,0,0-.25.27.79.79,0,0,0-.09.38v3.13Z"/>
    <path d="M77.82,49.92a2,2,0,0,1-.83-.16,1.69,1.69,0,0,1-.64-.48,2.14,2.14,0,0,1-.42-.74,3,3,0,0,1-.15-1,3,3,0,0,1,.15-1,2.14,2.14,0,0,1,.42-.74,1.69,1.69,0,0,1,.64-.48,2.21,2.21,0,0,1,1.65,0,1.77,1.77,0,0,1,.64.48,2.14,2.14,0,0,1,.42.74,3,3,0,0,1,.15,1,3,3,0,0,1-.15,1,2.14,2.14,0,0,1-.42.74,1.77,1.77,0,0,1-.64.48A2,2,0,0,1,77.82,49.92Zm0-.62a1.28,1.28,0,0,0,.92-.34,1.44,1.44,0,0,0,.36-1.07v-.64a1.44,1.44,0,0,0-.36-1.07,1.4,1.4,0,0,0-1.85,0,1.44,1.44,0,0,0-.36,1.07v.64A1.44,1.44,0,0,0,76.89,49,1.29,1.29,0,0,0,77.82,49.3Z"/>
    <path d="M81,49.82v-4.5h.7V46h0a2,2,0,0,1,.18-.32,1.2,1.2,0,0,1,.24-.26,1,1,0,0,1,.34-.18,1.53,1.53,0,0,1,.45-.06,1.64,1.64,0,0,1,.82.21,1.27,1.27,0,0,1,.56.69h0a1.32,1.32,0,0,1,.46-.63,1.39,1.39,0,0,1,.91-.27,1.36,1.36,0,0,1,1.07.44,1.89,1.89,0,0,1,.39,1.27v2.89h-.7V47.05a1.46,1.46,0,0,0-.23-.91.91.91,0,0,0-.75-.31,1.34,1.34,0,0,0-.4.06.91.91,0,0,0-.33.15.88.88,0,0,0-.24.27.79.79,0,0,0-.09.38v3.13h-.69V47.05a1.45,1.45,0,0,0-.24-.91.88.88,0,0,0-.73-.31,1.29,1.29,0,0,0-.4.06A1,1,0,0,0,82,46a.88.88,0,0,0-.24.27.79.79,0,0,0-.09.38v3.13Z"/>
    <path d="M91.88,49.82a.68.68,0,0,1-.56-.21,1,1,0,0,1-.22-.52h0a1.1,1.1,0,0,1-.49.62,1.53,1.53,0,0,1-.81.21,1.58,1.58,0,0,1-1.11-.36,1.29,1.29,0,0,1-.4-1,1.13,1.13,0,0,1,.47-1,2.44,2.44,0,0,1,1.45-.34h.89V46.8a1,1,0,0,0-.26-.73,1.11,1.11,0,0,0-.8-.25,1.22,1.22,0,0,0-.69.18,1.67,1.67,0,0,0-.46.49l-.41-.39a1.51,1.51,0,0,1,.58-.63,1.85,1.85,0,0,1,1-.25,1.83,1.83,0,0,1,1.27.4,1.36,1.36,0,0,1,.46,1.11V49.2h.51v.62Zm-2-.49a1.75,1.75,0,0,0,.48-.06,1.33,1.33,0,0,0,.38-.17,1,1,0,0,0,.24-.27.57.57,0,0,0,.09-.32v-.74h-.92a1.63,1.63,0,0,0-.88.18.56.56,0,0,0-.28.5v.18a.62.62,0,0,0,.24.52A1.07,1.07,0,0,0,89.87,49.33Z"/>
    <path d="M94,49.82a.72.72,0,0,1-.56-.21.74.74,0,0,1-.18-.51V43.37H94V49.2h.67v.62Z"/>
    <path d="M96,44.27a.44.44,0,0,1-.33-.11.41.41,0,0,1-.1-.29v-.11a.37.37,0,0,1,.1-.28.4.4,0,0,1,.33-.11.38.38,0,0,1,.32.11.37.37,0,0,1,.1.28v.11a.37.37,0,0,1-.42.4Zm-.35,1h.69v4.5h-.69Z"/>
    <path d="M101.09,49.82a.7.7,0,0,1-.57-.21,1.06,1.06,0,0,1-.21-.52h0a1.1,1.1,0,0,1-.49.62,1.53,1.53,0,0,1-.81.21,1.58,1.58,0,0,1-1.11-.36,1.29,1.29,0,0,1-.4-1,1.1,1.1,0,0,1,.47-1,2.44,2.44,0,0,1,1.45-.34h.89V46.8a1,1,0,0,0-.26-.73,1.14,1.14,0,0,0-.81-.25,1.21,1.21,0,0,0-.68.18,1.55,1.55,0,0,0-.46.49l-.42-.39a1.54,1.54,0,0,1,.59-.63,1.82,1.82,0,0,1,1-.25,1.84,1.84,0,0,1,1.27.4,1.39,1.39,0,0,1,.45,1.11V49.2h.52v.62Zm-2-.49a1.8,1.8,0,0,0,.48-.06,1.33,1.33,0,0,0,.38-.17,1,1,0,0,0,.24-.27.57.57,0,0,0,.09-.32v-.74h-.93a1.61,1.61,0,0,0-.87.18.54.54,0,0,0-.28.5v.18a.62.62,0,0,0,.24.52A1.07,1.07,0,0,0,99.08,49.33Z"/>
    <path d="M107.41,49.1h0a1.36,1.36,0,0,1-1.31.82,1.7,1.7,0,0,1-.76-.16,1.65,1.65,0,0,1-.58-.47,2.33,2.33,0,0,1-.37-.74,3.76,3.76,0,0,1,0-2,2.33,2.33,0,0,1,.37-.74,1.65,1.65,0,0,1,.58-.47,1.7,1.7,0,0,1,.76-.16,1.46,1.46,0,0,1,.8.2,1.18,1.18,0,0,1,.51.62h0V43.37h.69v6.45h-.69Zm-1.16.2a1.4,1.4,0,0,0,.45-.06,1.16,1.16,0,0,0,.37-.18,1,1,0,0,0,.25-.28.87.87,0,0,0,.09-.4V46.7a.67.67,0,0,0-.09-.34,1.12,1.12,0,0,0-.25-.28,1.16,1.16,0,0,0-.37-.18,1.76,1.76,0,0,0-.45-.07,1.21,1.21,0,0,0-.94.38,1.41,1.41,0,0,0-.34,1V48a1.41,1.41,0,0,0,.34,1A1.21,1.21,0,0,0,106.25,49.3Z"/>
    <path d="M111.28,49.92a2,2,0,0,1-.83-.16,1.77,1.77,0,0,1-.64-.48,2,2,0,0,1-.41-.74,3,3,0,0,1-.14-1,3,3,0,0,1,.14-1,2,2,0,0,1,.41-.74,1.77,1.77,0,0,1,.64-.48,2,2,0,0,1,.83-.16,1.92,1.92,0,0,1,.81.16,1.73,1.73,0,0,1,.61.46,1.94,1.94,0,0,1,.39.69,2.71,2.71,0,0,1,.13.88v.33H110V48a1.51,1.51,0,0,0,.09.53,1.24,1.24,0,0,0,.26.43,1.06,1.06,0,0,0,.42.29,1.43,1.43,0,0,0,.56.1,1.34,1.34,0,0,0,.75-.2,1.31,1.31,0,0,0,.49-.57l.5.36a1.82,1.82,0,0,1-.68.75A2.07,2.07,0,0,1,111.28,49.92Zm0-4.12a1.32,1.32,0,0,0-.53.1,1.26,1.26,0,0,0-.4.28,1.57,1.57,0,0,0-.27.43,1.61,1.61,0,0,0-.09.54v.06h2.48v-.09a1.41,1.41,0,0,0-.32-1A1.12,1.12,0,0,0,111.28,45.8Z"/>
    <path d="M116.5,43.73h2a2.63,2.63,0,0,1,1,.2,1.93,1.93,0,0,1,.79.57,2.6,2.6,0,0,1,.5,1,5.29,5.29,0,0,1,0,2.66,2.68,2.68,0,0,1-.5,1,2.14,2.14,0,0,1-.79.57,2.63,2.63,0,0,1-1,.19h-2Zm2,5.44a1.92,1.92,0,0,0,.69-.12,1.58,1.58,0,0,0,.54-.37,1.7,1.7,0,0,0,.35-.6,2.26,2.26,0,0,0,.13-.81v-1a2.3,2.3,0,0,0-.13-.81,1.65,1.65,0,0,0-.35-.59,1.34,1.34,0,0,0-.54-.37,1.73,1.73,0,0,0-.69-.13h-1.31v4.79Z"/>
    <path d="M122.63,44.27a.45.45,0,0,1-.33-.11.46.46,0,0,1-.1-.29v-.11a.43.43,0,1,1,.86,0v.11a.46.46,0,0,1-.1.29A.45.45,0,0,1,122.63,44.27Zm-.35,1h.7v4.5h-.7Z"/>
    <path d="M125.45,49.82l-1.57-4.5h.69l.79,2.23.49,1.54h0l.49-1.54.8-2.23h.67l-1.58,4.5Z"/>
    <path d="M130.37,49.92a2,2,0,0,1-.83-.16,1.77,1.77,0,0,1-.64-.48,2.29,2.29,0,0,1-.41-.74,3.24,3.24,0,0,1-.14-1,3.29,3.29,0,0,1,.14-1,2.29,2.29,0,0,1,.41-.74,1.77,1.77,0,0,1,.64-.48,2,2,0,0,1,.83-.16,1.92,1.92,0,0,1,.81.16,1.73,1.73,0,0,1,.61.46,1.94,1.94,0,0,1,.39.69,2.71,2.71,0,0,1,.14.88v.33h-3.24V48a1.51,1.51,0,0,0,.09.53,1.24,1.24,0,0,0,.26.43,1.22,1.22,0,0,0,.42.29,1.48,1.48,0,0,0,.57.1,1.3,1.3,0,0,0,.74-.2,1.25,1.25,0,0,0,.49-.57l.5.36a1.69,1.69,0,0,1-.68.75A2,2,0,0,1,130.37,49.92Zm0-4.12a1.27,1.27,0,0,0-.52.1,1.3,1.3,0,0,0-.41.28,1.34,1.34,0,0,0-.26.43,1.4,1.4,0,0,0-.1.54v.06h2.49v-.09a1.37,1.37,0,0,0-.33-1A1.12,1.12,0,0,0,130.37,45.8Z"/>
    <path d="M133.47,49.82v-4.5h.69v.83h.05a1.32,1.32,0,0,1,.43-.58,1.41,1.41,0,0,1,.87-.25h.27V46h-.41a1.6,1.6,0,0,0-.89.21.63.63,0,0,0-.32.54v3Z"/>
    <path d="M140.26,50.32a1.1,1.1,0,0,1-.55,1,3.18,3.18,0,0,1-1.63.33,3,3,0,0,1-1.52-.29.9.9,0,0,1-.46-.82.8.8,0,0,1,.19-.57,1.14,1.14,0,0,1,.53-.3V49.6a.66.66,0,0,1-.41-.63.65.65,0,0,1,.22-.52,1.45,1.45,0,0,1,.56-.26v0a1.38,1.38,0,0,1-.62-.55,1.52,1.52,0,0,1-.23-.83,1.61,1.61,0,0,1,.13-.63,1.39,1.39,0,0,1,.34-.49,1.67,1.67,0,0,1,.53-.32,2.24,2.24,0,0,1,1.55.06v-.08a.78.78,0,0,1,.12-.44.47.47,0,0,1,.4-.17h.67v.62h-.85v.29a1.55,1.55,0,0,1,.38.5,1.59,1.59,0,0,1,.13.66,1.61,1.61,0,0,1-.12.63,1.43,1.43,0,0,1-.34.5,1.59,1.59,0,0,1-.54.31,1.94,1.94,0,0,1-.7.12,3.13,3.13,0,0,1-.43,0,1.68,1.68,0,0,0-.41.17.38.38,0,0,0-.18.33.27.27,0,0,0,.19.27,1.37,1.37,0,0,0,.49.07h1a1.9,1.9,0,0,1,1.22.32A1.08,1.08,0,0,1,140.26,50.32Zm-.65,0a.5.5,0,0,0-.21-.43,1.21,1.21,0,0,0-.73-.16h-1.5a.63.63,0,0,0-.42.61.67.67,0,0,0,.23.5,1.07,1.07,0,0,0,.75.21h.65a1.84,1.84,0,0,0,.9-.18A.59.59,0,0,0,139.61,50.37ZM138,47.77a1.09,1.09,0,0,0,.71-.21.81.81,0,0,0,.26-.67v-.24a.78.78,0,0,0-.26-.66,1.24,1.24,0,0,0-1.41,0,.78.78,0,0,0-.26.66v.24a.81.81,0,0,0,.26.67A1.08,1.08,0,0,0,138,47.77Z"/>
    <path d="M142.71,49.92a2,2,0,0,1-.83-.16,1.77,1.77,0,0,1-.64-.48,2.12,2.12,0,0,1-.41-.74,3,3,0,0,1-.14-1,3,3,0,0,1,.14-1,2.12,2.12,0,0,1,.41-.74,1.77,1.77,0,0,1,.64-.48,2,2,0,0,1,.83-.16,1.92,1.92,0,0,1,.81.16,1.73,1.73,0,0,1,.61.46,1.94,1.94,0,0,1,.39.69,2.71,2.71,0,0,1,.13.88v.33h-3.23V48a1.51,1.51,0,0,0,.09.53,1.24,1.24,0,0,0,.26.43,1.13,1.13,0,0,0,.42.29,1.43,1.43,0,0,0,.56.1,1.29,1.29,0,0,0,1.24-.77l.5.36a1.75,1.75,0,0,1-.68.75A2.07,2.07,0,0,1,142.71,49.92Zm.44-6.77,1,1.25-.38.27-1-1-1,1-.39-.27,1-1.25Zm-.44,2.65a1.24,1.24,0,0,0-.52.1,1.2,1.2,0,0,0-.41.28,1.57,1.57,0,0,0-.27.43,1.61,1.61,0,0,0-.09.54v.06h2.48v-.09a1.41,1.41,0,0,0-.32-1A1.12,1.12,0,0,0,142.71,45.8Z"/>
    <path d="M145.8,49.82v-4.5h.7V46h0a1.46,1.46,0,0,1,.46-.6,1.32,1.32,0,0,1,.81-.22,1.44,1.44,0,0,1,1.1.44,1.85,1.85,0,0,1,.41,1.27v2.89h-.7V47.05c0-.81-.34-1.22-1-1.22a1.34,1.34,0,0,0-.4.06,1.05,1.05,0,0,0-.36.15.92.92,0,0,0-.25.27.79.79,0,0,0-.09.38v3.13Z"/>
    <path d="M152.43,49.92a2.11,2.11,0,0,1-.85-.16,1.74,1.74,0,0,1-.63-.47,2.18,2.18,0,0,1-.39-.74,3.76,3.76,0,0,1,0-2,2.18,2.18,0,0,1,.39-.74,1.74,1.74,0,0,1,.63-.47,2.11,2.11,0,0,1,.85-.16,1.77,1.77,0,0,1,1.08.29,1.73,1.73,0,0,1,.6.76l-.58.3a1.06,1.06,0,0,0-.4-.54,1.2,1.2,0,0,0-.7-.2,1.35,1.35,0,0,0-.55.11,1,1,0,0,0-.39.27,1.29,1.29,0,0,0-.24.43,1.93,1.93,0,0,0-.07.55V48a1.49,1.49,0,0,0,.31,1,1.18,1.18,0,0,0,.94.37,1.27,1.27,0,0,0,1.22-.78l.51.34a1.84,1.84,0,0,1-.65.78A1.93,1.93,0,0,1,152.43,49.92Z"/>
    <path d="M155.49,44.27a.45.45,0,0,1-.33-.11.46.46,0,0,1-.1-.29v-.11a.43.43,0,1,1,.86,0v.11a.46.46,0,0,1-.1.29A.45.45,0,0,1,155.49,44.27Zm-.35,1h.7v4.5h-.7Z"/>
    <path d="M160.59,49.82a.68.68,0,0,1-.56-.21,1,1,0,0,1-.21-.52h0a1.1,1.1,0,0,1-.49.62,1.48,1.48,0,0,1-.81.21,1.61,1.61,0,0,1-1.11-.36,1.32,1.32,0,0,1-.4-1,1.13,1.13,0,0,1,.47-1,2.46,2.46,0,0,1,1.45-.34h.89V46.8a1,1,0,0,0-.26-.73,1.1,1.1,0,0,0-.8-.25A1.24,1.24,0,0,0,158,46a1.52,1.52,0,0,0-.45.49l-.42-.39a1.51,1.51,0,0,1,.58-.63,2.21,2.21,0,0,1,2.29.15,1.39,1.39,0,0,1,.45,1.11V49.2H161v.62Zm-2-.49a1.86,1.86,0,0,0,.48-.06,1.26,1.26,0,0,0,.37-.17.87.87,0,0,0,.24-.27.57.57,0,0,0,.09-.32v-.74h-.92A1.65,1.65,0,0,0,158,48a.55.55,0,0,0-.27.5v.18a.62.62,0,0,0,.24.52A1,1,0,0,0,158.59,49.33Z"/>
    <path d="M166.91,49.1h0a1.38,1.38,0,0,1-1.32.82,1.73,1.73,0,0,1-.76-.16,1.74,1.74,0,0,1-.58-.47,2.13,2.13,0,0,1-.36-.74,3.76,3.76,0,0,1,0-2,2.13,2.13,0,0,1,.36-.74,1.74,1.74,0,0,1,.58-.47,1.73,1.73,0,0,1,.76-.16,1.52,1.52,0,0,1,.81.2,1.27,1.27,0,0,1,.51.62h0V43.37h.7v6.45h-.7Zm-1.16.2a1.33,1.33,0,0,0,.45-.06,1.06,1.06,0,0,0,.37-.18.75.75,0,0,0,.25-.28.87.87,0,0,0,.09-.4V46.7a.67.67,0,0,0-.09-.34.83.83,0,0,0-.25-.28,1.06,1.06,0,0,0-.37-.18,1.63,1.63,0,0,0-.45-.07,1.21,1.21,0,0,0-.93.38,1.37,1.37,0,0,0-.34,1V48a1.37,1.37,0,0,0,.34,1A1.2,1.2,0,0,0,165.75,49.3Z"/>
    <path d="M170.78,49.92a2,2,0,0,1-.83-.16,1.77,1.77,0,0,1-.64-.48,2.29,2.29,0,0,1-.41-.74,3.24,3.24,0,0,1-.14-1,3.29,3.29,0,0,1,.14-1,2.29,2.29,0,0,1,.41-.74,1.77,1.77,0,0,1,.64-.48,2,2,0,0,1,.83-.16,1.86,1.86,0,0,1,.81.16,1.64,1.64,0,0,1,.61.46,1.94,1.94,0,0,1,.39.69,2.71,2.71,0,0,1,.14.88v.33h-3.24V48a1.51,1.51,0,0,0,.09.53,1.26,1.26,0,0,0,.27.43,1.09,1.09,0,0,0,.41.29,1.48,1.48,0,0,0,.57.1,1.3,1.3,0,0,0,.74-.2,1.25,1.25,0,0,0,.49-.57l.5.36a1.69,1.69,0,0,1-.68.75A2,2,0,0,1,170.78,49.92Zm0-4.12a1.27,1.27,0,0,0-.52.1,1.3,1.3,0,0,0-.41.28,1.34,1.34,0,0,0-.26.43,1.4,1.4,0,0,0-.1.54v.06H172v-.09a1.37,1.37,0,0,0-.33-1A1.12,1.12,0,0,0,170.78,45.8Z"/>
    <path d="M176.69,43.73v3.78a2.22,2.22,0,0,0,.33,1.32,1.64,1.64,0,0,0,2.26,0,2.22,2.22,0,0,0,.33-1.32V43.73h.73v3.6a4.89,4.89,0,0,1-.12,1.15,2,2,0,0,1-.38.81,1.62,1.62,0,0,1-.68.48,3.13,3.13,0,0,1-1,.15,3,3,0,0,1-1-.15,1.58,1.58,0,0,1-.67-.48,2,2,0,0,1-.36-.81,5.54,5.54,0,0,1-.11-1.15v-3.6Z"/>
    <path d="M181.85,49.82v-4.5h.69V46h0a2,2,0,0,1,.18-.32,1.2,1.2,0,0,1,.24-.26,1,1,0,0,1,.34-.18,1.53,1.53,0,0,1,.45-.06,1.64,1.64,0,0,1,.82.21,1.27,1.27,0,0,1,.56.69h0a1.37,1.37,0,0,1,.45-.63,1.44,1.44,0,0,1,.92-.27,1.37,1.37,0,0,1,1.07.44,1.89,1.89,0,0,1,.39,1.27v2.89h-.7V47.05a1.52,1.52,0,0,0-.23-.91.91.91,0,0,0-.75-.31,1.34,1.34,0,0,0-.4.06.91.91,0,0,0-.33.15.88.88,0,0,0-.24.27.79.79,0,0,0-.09.38v3.13h-.7V47.05a1.46,1.46,0,0,0-.23-.91.88.88,0,0,0-.73-.31,1.29,1.29,0,0,0-.4.06,1,1,0,0,0-.34.15.88.88,0,0,0-.24.27.8.8,0,0,0-.1.38v3.13Z"/>
    <path d="M189.81,44.27a.45.45,0,0,1-.33-.11.41.41,0,0,1-.1-.29v-.11a.37.37,0,0,1,.1-.28.41.41,0,0,1,.33-.11.38.38,0,0,1,.32.11.37.37,0,0,1,.1.28v.11a.37.37,0,0,1-.42.4Zm-.35,1h.7v4.5h-.7Z"/>
    <path d="M194.52,49.1h0a1.37,1.37,0,0,1-1.32.82,1.68,1.68,0,0,1-.75-.16,1.65,1.65,0,0,1-.58-.47,2.14,2.14,0,0,1-.37-.74,3.76,3.76,0,0,1,0-2,2.14,2.14,0,0,1,.37-.74,1.65,1.65,0,0,1,.58-.47,1.68,1.68,0,0,1,.75-.16,1.48,1.48,0,0,1,.81.2,1.27,1.27,0,0,1,.51.62h0V43.37h.69v6.45h-.69Zm-1.16.2a1.4,1.4,0,0,0,.45-.06,1.16,1.16,0,0,0,.37-.18.81.81,0,0,0,.24-.28.77.77,0,0,0,.1-.4V46.7a.59.59,0,0,0-.1-.34.92.92,0,0,0-.24-.28,1.16,1.16,0,0,0-.37-.18,1.76,1.76,0,0,0-.45-.07,1.21,1.21,0,0,0-.94.38,1.41,1.41,0,0,0-.34,1V48a1.41,1.41,0,0,0,.34,1A1.21,1.21,0,0,0,193.36,49.3Z"/>
    <path d="M200,49.82a.69.69,0,0,1-.56-.21,1.06,1.06,0,0,1-.21-.52h0a1.15,1.15,0,0,1-.49.62,1.53,1.53,0,0,1-.81.21,1.62,1.62,0,0,1-1.12-.36,1.32,1.32,0,0,1-.39-1,1.12,1.12,0,0,1,.46-1,2.5,2.5,0,0,1,1.46-.34h.89V46.8a1,1,0,0,0-.27-.73,1.1,1.1,0,0,0-.8-.25,1.21,1.21,0,0,0-.68.18,1.44,1.44,0,0,0-.46.49l-.42-.39a1.54,1.54,0,0,1,.59-.63,1.82,1.82,0,0,1,1-.25,1.84,1.84,0,0,1,1.27.4,1.39,1.39,0,0,1,.45,1.11V49.2h.52v.62Zm-2-.49a1.86,1.86,0,0,0,.48-.06,1.26,1.26,0,0,0,.37-.17.91.91,0,0,0,.25-.27.57.57,0,0,0,.09-.32v-.74h-.93a1.68,1.68,0,0,0-.88.18.55.55,0,0,0-.27.5v.18a.62.62,0,0,0,.24.52A1.07,1.07,0,0,0,198,49.33Z"/>
    <path d="M204.23,49.1h0a1.36,1.36,0,0,1-1.31.82,1.73,1.73,0,0,1-.76-.16,1.65,1.65,0,0,1-.58-.47,2.33,2.33,0,0,1-.37-.74,4.06,4.06,0,0,1,0-2,2.33,2.33,0,0,1,.37-.74,1.65,1.65,0,0,1,.58-.47,1.73,1.73,0,0,1,.76-.16,1.46,1.46,0,0,1,.8.2,1.18,1.18,0,0,1,.51.62h0V43.37h.7v6.45h-.7Zm-1.16.2a1.33,1.33,0,0,0,.45-.06,1.16,1.16,0,0,0,.37-.18.84.84,0,0,0,.25-.28.87.87,0,0,0,.09-.4V46.7a.67.67,0,0,0-.09-.34,1,1,0,0,0-.25-.28,1.16,1.16,0,0,0-.37-.18,1.63,1.63,0,0,0-.45-.07,1.18,1.18,0,0,0-.93.38,1.37,1.37,0,0,0-.34,1V48a1.37,1.37,0,0,0,.34,1A1.17,1.17,0,0,0,203.07,49.3Z"/>
    <path d="M208.1,49.92a2,2,0,0,1-.83-.16,1.77,1.77,0,0,1-.64-.48,2.12,2.12,0,0,1-.41-.74,3,3,0,0,1-.14-1,3,3,0,0,1,.14-1,2.12,2.12,0,0,1,.41-.74,1.77,1.77,0,0,1,.64-.48,2,2,0,0,1,.83-.16,1.92,1.92,0,0,1,.81.16,1.73,1.73,0,0,1,.61.46,1.94,1.94,0,0,1,.39.69,2.71,2.71,0,0,1,.13.88v.33h-3.23V48a1.51,1.51,0,0,0,.09.53,1.24,1.24,0,0,0,.26.43,1.13,1.13,0,0,0,.42.29,1.43,1.43,0,0,0,.56.1,1.29,1.29,0,0,0,1.24-.77l.5.36a1.75,1.75,0,0,1-.68.75A2.07,2.07,0,0,1,208.1,49.92Zm0-4.12a1.24,1.24,0,0,0-.52.1,1.2,1.2,0,0,0-.41.28,1.34,1.34,0,0,0-.26.43,1.4,1.4,0,0,0-.1.54v.06h2.48v-.09a1.41,1.41,0,0,0-.32-1A1.12,1.12,0,0,0,208.1,45.8Z"/>
    <path d="M213.23,47.1a6.31,6.31,0,0,1,.46-2.3,5,5,0,0,1,.5-.91,4.29,4.29,0,0,1,.62-.7h.67a3.94,3.94,0,0,0-.66.75,5.2,5.2,0,0,0-.5.89,6,6,0,0,0-.32,1,4.53,4.53,0,0,0-.11.94v.75a4.47,4.47,0,0,0,.11,1,5.41,5.41,0,0,0,.32,1,4.89,4.89,0,0,0,.51.89,3.81,3.81,0,0,0,.65.73h-.67a3.41,3.41,0,0,1-.61-.68,4.65,4.65,0,0,1-.5-.91,6.75,6.75,0,0,1-.34-1.1A6.08,6.08,0,0,1,213.23,47.1Z"/>
    <path d="M216.2,49.82v-.65h1.7v-4.9h-.06L216.3,45.7l-.42-.46,1.61-1.51h1.14v5.44h1.57v.65Z"/>
    <path d="M223.28,49.92a1.71,1.71,0,0,1-1.59-.82,4.47,4.47,0,0,1-.5-2.32,4.42,4.42,0,0,1,.5-2.32,1.72,1.72,0,0,1,1.59-.83,1.74,1.74,0,0,1,1.59.83,4.52,4.52,0,0,1,.5,2.32,4.57,4.57,0,0,1-.5,2.32A1.73,1.73,0,0,1,223.28,49.92Zm0-.64a1.11,1.11,0,0,0,1-.57,2.12,2.12,0,0,0,.23-.63,4,4,0,0,0,.07-.81v-1a4.14,4.14,0,0,0-.07-.81,2.23,2.23,0,0,0-.23-.63,1.23,1.23,0,0,0-1.63-.42,1.1,1.1,0,0,0-.41.42,2,2,0,0,0-.23.63,4.12,4.12,0,0,0-.08.81v1a4,4,0,0,0,.08.81,1.88,1.88,0,0,0,.23.63,1.1,1.1,0,0,0,.41.42A1.17,1.17,0,0,0,223.28,49.28Z"/>
    <path d="M227.17,47l1.3-2.78h-1.36v.59h-.47v-1H229v.46L227.76,47Z"/>
    <path d="M230,43.37h.7v4.09h0l.69-.77,1.27-1.37h.85l-1.67,1.78,1.83,2.72h-.85l-1.49-2.29-.67.68v1.61H230Z"/>
    <path d="M238.34,50.32a1.12,1.12,0,0,1-.55,1,3.21,3.21,0,0,1-1.63.33,3,3,0,0,1-1.52-.29.9.9,0,0,1-.46-.82.8.8,0,0,1,.19-.57,1.15,1.15,0,0,1,.52-.3V49.6a.65.65,0,0,1-.4-.63.62.62,0,0,1,.22-.52,1.39,1.39,0,0,1,.56-.26v0a1.41,1.41,0,0,1-.63-.55,1.51,1.51,0,0,1-.22-.83,1.61,1.61,0,0,1,.12-.63,1.42,1.42,0,0,1,.35-.49,1.47,1.47,0,0,1,.53-.32,1.89,1.89,0,0,1,.69-.11,2,2,0,0,1,.86.17v-.08a.78.78,0,0,1,.12-.44.46.46,0,0,1,.4-.17h.67v.62h-.85v.29a1.55,1.55,0,0,1,.38.5,1.59,1.59,0,0,1,.13.66,1.61,1.61,0,0,1-.12.63,1.43,1.43,0,0,1-.88.81,1.94,1.94,0,0,1-.7.12,3.42,3.42,0,0,1-.44,0,1.61,1.61,0,0,0-.4.17.37.37,0,0,0-.19.33.28.28,0,0,0,.19.27,1.43,1.43,0,0,0,.5.07h1a1.92,1.92,0,0,1,1.22.32A1.08,1.08,0,0,1,238.34,50.32Zm-.66,0a.52.52,0,0,0-.2-.43,1.21,1.21,0,0,0-.73-.16h-1.5a.63.63,0,0,0-.42.61.66.66,0,0,0,.22.5,1.1,1.1,0,0,0,.76.21h.64a1.91,1.91,0,0,0,.91-.18A.6.6,0,0,0,237.68,50.37Zm-1.56-2.6a1.11,1.11,0,0,0,.71-.21.84.84,0,0,0,.26-.67v-.24a.81.81,0,0,0-.26-.66,1.26,1.26,0,0,0-1.42,0,.81.81,0,0,0-.26.66v.24a.84.84,0,0,0,.26.67A1.11,1.11,0,0,0,236.12,47.77Z"/>
    <path d="M244.5,49.92a2.09,2.09,0,0,1-1.05-.24,2.24,2.24,0,0,1-.73-.64l.5-.4a1.86,1.86,0,0,0,.58.51,1.54,1.54,0,0,0,.75.18,1.07,1.07,0,0,0,.69-.19.64.64,0,0,0,.25-.54.66.66,0,0,0-.17-.45,1.09,1.09,0,0,0-.61-.26l-.36,0a2.59,2.59,0,0,1-.58-.14,1.61,1.61,0,0,1-.45-.24,1,1,0,0,1-.31-.38,1.27,1.27,0,0,1-.11-.54A1.34,1.34,0,0,1,243,46a1.31,1.31,0,0,1,.85-.66,2.2,2.2,0,0,1,.64-.08,2,2,0,0,1,.92.19,2.17,2.17,0,0,1,.65.53l-.47.42a1.35,1.35,0,0,0-.43-.38,1.46,1.46,0,0,0-.73-.17.94.94,0,0,0-.65.19.62.62,0,0,0-.23.51.54.54,0,0,0,.23.48,1.65,1.65,0,0,0,.64.21l.34.06a1.87,1.87,0,0,1,1.07.43,1.12,1.12,0,0,1,.31.83,1.29,1.29,0,0,1-.44,1A1.85,1.85,0,0,1,244.5,49.92Z"/>
    <path d="M247.16,46.15V45.4h2.28v.75Z"/>
    <path d="M250.52,47v-.43h.95V44.18h-.05l-.79.77-.31-.32.89-.9H252v2.79h.86V47Z"/>
    <path d="M255.37,47.1a5.43,5.43,0,0,1-.13,1.22,5.9,5.9,0,0,1-.34,1.1,4.65,4.65,0,0,1-.5.91,3.13,3.13,0,0,1-.61.68h-.66a4.18,4.18,0,0,0,.65-.73,5.51,5.51,0,0,0,.5-.89,4.71,4.71,0,0,0,.32-1,3.91,3.91,0,0,0,.11-1v-.75a3.94,3.94,0,0,0-.11-.94,5.59,5.59,0,0,0-.81-1.85,4.79,4.79,0,0,0-.66-.75h.66a3.87,3.87,0,0,1,.62.7,5,5,0,0,1,.5.91,7,7,0,0,1,.34,1.09A6,6,0,0,1,255.37,47.1Z"/>
  </g>
</svg>
